<?xml version="1.0" standalone="no"?>
<!DOCTYPE svg PUBLIC "-//W3C//DTD SVG 1.1//EN" "http://www.w3.org/Graphics/SVG/1.1/DTD/svg11.dtd" >
<svg xmlns="http://www.w3.org/2000/svg" xmlns:xlink="http://www.w3.org/1999/xlink" version="1.1">
<metadata>
Created by FontForge 20161003 at Thu May  9 10:46:58 2019
 By www-data
(c) 2001-2018 Typodermic Fonts Inc.
</metadata>
<defs>
<font id="steelfishrg" horiz-adv-x="303" >
  <font-face 
    font-family="steelfishrg"
    font-weight="400"
    font-stretch="normal"
    units-per-em="1000"
    panose-1="2 11 6 8 2 2 2 4 5 4"
    ascent="851"
    descent="-149"
    x-height="619"
    cap-height="823"
    bbox="-296 -149 587 1118"
    underline-thickness="50"
    underline-position="-175"
    unicode-range="U+0017-FB02"
  />
<missing-glyph horiz-adv-x="524" 
d="M124 -144q-90 0 -90 79v869q0 80 90 80h274q92 0 92 -80v-869q0 -79 -92 -79h-274zM257 234q5 27 9 44.5t11 31.5t19 27t34 31q35 29 56 69.5t32 103.5l18 104q2 11 3 23t1 23q0 64 -40.5 102t-121.5 38q-57 0 -87.5 -33t-41.5 -102l-27 -159l115 -21l28 162q5 29 27 29
q30 0 30 -29l-21 -117q-6 -32 -10.5 -51.5t-12 -33.5t-20 -26t-33.5 -29q-17 -15 -29 -31t-21 -35.5t-15.5 -44t-12.5 -57.5l-23 -123l112 -20zM225 42l-111 19l-24 -138l110 -18z" />
    <glyph glyph-name=".notdef" horiz-adv-x="524" 
d="M124 -144q-90 0 -90 79v869q0 80 90 80h274q92 0 92 -80v-869q0 -79 -92 -79h-274zM257 234q5 27 9 44.5t11 31.5t19 27t34 31q35 29 56 69.5t32 103.5l18 104q2 11 3 23t1 23q0 64 -40.5 102t-121.5 38q-57 0 -87.5 -33t-41.5 -102l-27 -159l115 -21l28 162q5 29 27 29
q30 0 30 -29l-21 -117q-6 -32 -10.5 -51.5t-12 -33.5t-20 -26t-33.5 -29q-17 -15 -29 -31t-21 -35.5t-15.5 -44t-12.5 -57.5l-23 -123l112 -20zM225 42l-111 19l-24 -138l110 -18z" />
    <glyph glyph-name=".null" horiz-adv-x="0" 
 />
    <glyph glyph-name="nonmarkingreturn" horiz-adv-x="136" 
 />
    <glyph glyph-name="uni0017" horiz-adv-x="136" 
 />
    <glyph glyph-name="space" unicode=" " horiz-adv-x="136" 
 />
    <glyph glyph-name="exclam" unicode="!" horiz-adv-x="161" 
d="M41 0v109h78v-109h-78zM55 159l-15 342v322h80v-321l-16 -343h-49z" />
    <glyph glyph-name="quotedbl" unicode="&#x22;" horiz-adv-x="257" 
d="M31 595zM170 595l-15 139v89h70v-89l-15 -139h-40zM46 595l-15 139v89h70v-89l-15 -139h-40z" />
    <glyph glyph-name="numbersign" unicode="#" horiz-adv-x="395" 
d="M170 0l50 296h-85l-50 -296h-52l49 296h-61v65h72l20 123h-75v65h86l45 274h55l-47 -274h84l46 274h54l-47 -274h60v-65h-70l-21 -123h72v-65h-83l-49 -296h-53zM251 484h-85l-20 -123h84z" />
    <glyph glyph-name="dollar" unicode="$" horiz-adv-x="286" 
d="M127 -52v62q-51 5 -73.5 39.5t-22.5 94.5v158h58v-124q0 -42 5.5 -68t33.5 -31v298l-38 38t-27 30q-18 23 -25 47.5t-7 68.5v118q0 63 24 95.5t72 37.5v57h31v-57q49 -5 71.5 -37t22.5 -96v-133h-57v119q0 32 -6.5 53t-32.5 26v-291q16 -14 33 -28t31 -31
q19 -24 27 -55.5t8 -84.5v-110q0 -60 -24 -95t-73 -40v-61h-31zM194 246q0 42 -8 67t-30 45v-279q38 6 38 59v108zM128 744q-21 -4 -30 -19.5t-9 -41.5v-123q0 -28 9.5 -47.5t29.5 -38.5v270z" />
    <glyph glyph-name="percent" unicode="%" horiz-adv-x="478" 
d="M31 0zM31 0l362 823h51l-361 -823h-52zM311 336q0 70 67 70q68 0 68 -70v-281q0 -70 -68 -70q-67 0 -67 70v281zM400 337q0 23 -22 23q-21 0 -21 -23v-283q0 -23 21 -23q22 0 22 23v283zM33 768q0 70 67 70q68 0 68 -70v-281q0 -70 -68 -70q-67 0 -67 70v281zM122 769
q0 23 -22 23q-21 0 -21 -23v-283q0 -23 21 -23q22 0 22 23v283z" />
    <glyph glyph-name="ampersand" unicode="&#x26;" horiz-adv-x="377" 
d="M359 8q-8 -5 -19 -8.5t-30 -3.5q-18 0 -31.5 6t-22.5 16q-17 -14 -40.5 -20.5t-51.5 -6.5q-42 0 -68.5 10.5t-41.5 32t-21 53.5t-6 75v57q0 34 4 61.5t12.5 52.5t23 49t35.5 51q-18 49 -28 81.5t-15 55.5t-6 40.5t-1 35.5v50q0 72 25 103t82 31q30 0 50 -9.5t32 -27
t17.5 -42t5.5 -53.5v-58q0 -32 -6.5 -60.5t-18 -55t-27.5 -52t-36 -52.5l95 -270q11 27 15.5 59t4.5 64v32h58v-35q0 -55 -10.5 -106t-34.5 -90q4 -3 10.5 -5.5t14.5 -2.5q21 0 30 13v-71zM131 356q-9 -14 -15 -27t-9 -28.5t-4.5 -34.5t-1.5 -44v-59q0 -55 14.5 -78
t54.5 -23q37 0 57 17zM117 642q0 -38 9 -75.5t23 -74.5q23 30 38.5 67t15.5 89v42q0 29 -9 48t-32 19q-24 0 -34.5 -15.5t-10.5 -47.5v-52z" />
    <glyph glyph-name="quotesingle" unicode="'" horiz-adv-x="133" 
d="M46 595l-15 139v89h70v-89l-15 -139h-40z" />
    <glyph glyph-name="parenleft" unicode="(" horiz-adv-x="257" 
d="M226 -80q-78 0 -115 41t-37 132v637q0 91 37 132t115 41h8v-56h-8q-51 0 -74 -28.5t-23 -88.5v-637q0 -61 23 -89.5t74 -28.5h8v-55h-8z" />
    <glyph glyph-name="parenright" unicode=")" horiz-adv-x="257" 
d="M74 -80v55h8q51 0 74 28.5t23 89.5v637q0 60 -23 88.5t-74 28.5h-8v56h8q78 0 115 -41t37 -132v-637q0 -91 -37 -132t-115 -41h-8z" />
    <glyph glyph-name="asterisk" unicode="*" horiz-adv-x="335" 
d="M237 534l-71 107l-69 -107l-38 28l79 99l-123 34l15 45l119 -45l-7 128h49l-7 -128l120 46l14 -46l-123 -34l80 -99z" />
    <glyph glyph-name="plus" unicode="+" horiz-adv-x="463" 
d="M203 224v167h-166v57h166v165h57v-165h166v-57h-166v-167h-57z" />
    <glyph glyph-name="comma" unicode="," horiz-adv-x="135" 
d="M41 -60v33h6q17 0 17 18v31h-33v103h72v-129q0 -26 -12.5 -41t-41.5 -15h-8z" />
    <glyph glyph-name="hyphen" unicode="-" horiz-adv-x="182" 
d="M13 385v59h158v-59h-158z" />
    <glyph glyph-name="hyphen" unicode="&#xad;" horiz-adv-x="182" 
d="M13 385v59h158v-59h-158z" />
    <glyph glyph-name="period" unicode="." horiz-adv-x="134" 
d="M31 0v125h71v-125h-71z" />
    <glyph glyph-name="slash" unicode="/" horiz-adv-x="242" 
d="M6 0l172 823h56l-172 -823h-56z" />
    <glyph glyph-name="zero" unicode="0" horiz-adv-x="328" 
d="M31 692q0 69 32 104.5t101 35.5t101 -35.5t32 -104.5v-561q0 -69 -32 -104.5t-101 -35.5t-101 35.5t-32 104.5v561zM222 693q0 64 -58 64q-57 0 -57 -64v-564q0 -64 57 -64q58 0 58 64v564z" />
    <glyph glyph-name="one" unicode="1" horiz-adv-x="176" 
d="M61 0v688h-44v74h22q16 0 23 8.5t7 28.5v24h67v-823h-75z" />
    <glyph glyph-name="two" unicode="2" horiz-adv-x="309" 
d="M27 0v151q0 36 2 63t9.5 52t22.5 51t40 59q33 44 54 74t33 53.5t16 46t4 51.5v88q0 66 -54 66q-31 0 -41.5 -17t-10.5 -50v-142h-75v142q0 76 30.5 110t96.5 34t98 -34.5t32 -109.5v-92q0 -34 -6 -62.5t-17.5 -55.5t-28.5 -53.5t-39 -55.5q-31 -39 -49 -66.5t-27 -50.5
t-11.5 -46.5t-2.5 -54.5v-76h181v-75h-257z" />
    <glyph glyph-name="three" unicode="3" horiz-adv-x="310" 
d="M209 319q0 33 -10.5 49t-44.5 16h-39v71h43q31 0 40.5 16.5t9.5 48.5v170q0 34 -11 49.5t-42 15.5q-30 0 -41 -15.5t-11 -49.5v-145h-75v145q0 75 30.5 108.5t96.5 33.5t96 -33.5t30 -109.5v-177q0 -40 -15 -61t-44 -32q28 -7 44.5 -27.5t16.5 -65.5v-195
q0 -63 -31 -101.5t-97 -38.5t-97.5 38t-31.5 101v162h77v-162q0 -30 12 -47t40 -17q29 0 41.5 17t12.5 48v188z" />
    <glyph glyph-name="three" unicode="&#x417;" horiz-adv-x="310" 
d="M209 319q0 33 -10.5 49t-44.5 16h-39v71h43q31 0 40.5 16.5t9.5 48.5v170q0 34 -11 49.5t-42 15.5q-30 0 -41 -15.5t-11 -49.5v-145h-75v145q0 75 30.5 108.5t96.5 33.5t96 -33.5t30 -109.5v-177q0 -40 -15 -61t-44 -32q28 -7 44.5 -27.5t16.5 -65.5v-195
q0 -63 -31 -101.5t-97 -38.5t-97.5 38t-31.5 101v162h77v-162q0 -30 12 -47t40 -17q29 0 41.5 17t12.5 48v188z" />
    <glyph glyph-name="four" unicode="4" horiz-adv-x="319" 
d="M199 629l-121 -388h119zM197 0v169h-187v66l185 588h72v-582h40v-72h-40v-169h-70z" />
    <glyph glyph-name="five" unicode="5" horiz-adv-x="316" 
d="M213 396q0 58 -55 58q-48 0 -60 -50l-67 3l10 416h240v-77h-171l-9 -265q11 17 31 29t55 12q48 0 73.5 -29t25.5 -98v-266q0 -70 -30 -104t-96 -34q-128 0 -128 138v173h74v-173q0 -63 54 -63q53 0 53 64v266z" />
    <glyph glyph-name="six" unicode="6" horiz-adv-x="319" 
d="M31 692q0 66 31.5 103t97.5 37t95.5 -37t29.5 -103v-142h-73v142q0 30 -12.5 46.5t-39.5 16.5q-26 0 -39.5 -16.5t-13.5 -46.5v-217q10 18 29 30t51 12q54 0 78.5 -30.5t24.5 -100.5v-255q0 -66 -32 -103t-98 -37t-97.5 36.5t-31.5 102.5v562zM214 369q0 38 -12.5 56.5
t-41.5 18.5q-49 0 -53 -49v-246q0 -39 11 -61t42 -22q29 0 41.5 17t12.5 48v238z" />
    <glyph glyph-name="seven" unicode="7" horiz-adv-x="288" 
d="M69 0q0 171 15.5 298.5t37 218t44 146.5t36.5 83h-188v77h260v-71q-33 -74 -57.5 -154t-40 -171.5t-23.5 -197t-8 -229.5h-76z" />
    <glyph glyph-name="eight" unicode="8" horiz-adv-x="315" 
d="M285 128q0 -67 -31.5 -102t-97.5 -35t-97 35t-31 102v197q0 45 17 68t44 32q-25 10 -40 31.5t-15 63.5v170q0 69 28 105.5t94 36.5t94 -36.5t28 -105.5v-170q0 -42 -14.5 -63.5t-39.5 -31.5q26 -9 43.5 -32t17.5 -68v-197zM210 330q0 28 -12.5 41t-41.5 13q-53 0 -53 -54
v-201q0 -32 12 -47.5t41 -15.5t41.5 15.5t12.5 47.5v201zM209 690q0 35 -10.5 50t-42.5 15q-31 0 -41.5 -15t-10.5 -50v-180q0 -29 12 -42t40 -13q53 0 53 55v180z" />
    <glyph glyph-name="nine" unicode="9" horiz-adv-x="319" 
d="M211 691q0 34 -13 49t-41 15t-40.5 -14t-12.5 -50v-238q0 -59 53 -59q50 0 54 49v248zM211 360q-10 -18 -29 -29.5t-50 -11.5q-54 0 -78.5 30t-24.5 100v243q0 140 128 140q66 0 98 -36t32 -103v-562q0 -66 -32 -103t-98 -37q-61 0 -94 37t-33 103v142h74v-142
q0 -31 13.5 -48t39.5 -17q27 0 40.5 17t13.5 48v229z" />
    <glyph glyph-name="colon" unicode=":" horiz-adv-x="134" 
d="M31 366v124h71v-124h-71zM31 0v125h71v-125h-71z" />
    <glyph glyph-name="semicolon" unicode=";" horiz-adv-x="135" 
d="M31 366v124h71v-124h-71zM41 -60v33h6q17 0 17 18v31h-33v103h72v-129q0 -26 -12.5 -41t-41.5 -15h-8z" />
    <glyph glyph-name="less" unicode="&#x3c;" horiz-adv-x="463" 
d="M37 384v70l389 128v-58l-331 -103l331 -109v-57z" />
    <glyph glyph-name="equal" unicode="=" horiz-adv-x="463" 
d="M37 484v58h389v-58h-389zM37 297v58h389v-58h-389z" />
    <glyph glyph-name="greater" unicode="&#x3e;" horiz-adv-x="463" 
d="M37 255v57l331 109l-331 103v58l389 -128v-70z" />
    <glyph glyph-name="question" unicode="?" horiz-adv-x="299" 
d="M105 187v111q0 29 2.5 51.5t8.5 41t16 35.5t25 34q15 16 23.5 28.5t13 27.5t6 35t1.5 52v87q0 65 -51 65q-53 0 -53 -64v-145h-73v144q0 73 30 107.5t96 34.5t96 -34t30 -109v-86q0 -61 -11.5 -98t-37.5 -68q-18 -20 -28 -34t-15.5 -28.5t-6.5 -31.5t-1 -43v-113h-71z
M105 0v125h71v-125h-71z" />
    <glyph glyph-name="at" unicode="@" horiz-adv-x="516" 
d="M483 63q3 -9 3 -22q0 -30 -10.5 -56t-37 -45.5t-70.5 -31t-110 -11.5q-53 0 -95 12.5t-72 41.5t-46 76.5t-16 118.5v349q0 124 54.5 177t172.5 53q115 0 167 -50t52 -161v-305q0 -48 -23 -78t-65 -30q-27 0 -47 12t-28 31q-4 -15 -20 -27t-43 -12q-37 0 -59.5 20
t-22.5 74v217q0 30 6 50t16.5 31.5t26 16t33.5 4.5q22 0 36.5 -10.5t21.5 -27.5q0 9 0.5 17t1.5 16h37v-313q2 -19 8.5 -34t29.5 -15q17 0 28 12t11 43v309q0 70 -39 110t-128 40q-48 0 -80.5 -11.5t-52 -34.5t-27.5 -57.5t-8 -80.5v-337q0 -53 12 -88t35 -57t56 -31t76 -9
q47 0 79 6t51.5 17t28 27.5t8.5 37.5q0 15 -1 16h50zM300 420q-3 22 -11 32.5t-26 10.5q-22 0 -33.5 -11.5t-11.5 -38.5v-201q0 -32 10.5 -45.5t34.5 -13.5q29 0 37 33v234z" />
    <glyph glyph-name="A" unicode="A" horiz-adv-x="335" 
d="M245 0l-18 138h-123l-18 -138h-74l113 823h89l107 -823h-76zM218 208q-13 106 -26 209.5t-25 212.5q-13 -109 -26.5 -212.5t-27.5 -209.5h105z" />
    <glyph glyph-name="A" unicode="&#x410;" horiz-adv-x="335" 
d="M245 0l-18 138h-123l-18 -138h-74l113 823h89l107 -823h-76zM218 208q-13 106 -26 209.5t-25 212.5q-13 -109 -26.5 -212.5t-27.5 -209.5h105z" />
    <glyph glyph-name="A" unicode="&#x391;" horiz-adv-x="335" 
d="M245 0l-18 138h-123l-18 -138h-74l113 823h89l107 -823h-76zM218 208q-13 106 -26 209.5t-25 212.5q-13 -109 -26.5 -212.5t-27.5 -209.5h105z" />
    <glyph glyph-name="B" unicode="B" horiz-adv-x="325" 
d="M219 683q0 35 -11.5 49t-39.5 14h-55v-291h56q27 0 38.5 13t11.5 42v173zM222 322q0 35 -10.5 50.5t-42.5 15.5h-56v-313h55q54 0 54 64v183zM37 0v823h131q66 0 94 -33t28 -108v-165q0 -77 -50 -91q24 -5 42 -25.5t18 -65.5v-196q0 -73 -33 -106t-99 -33h-131z" />
    <glyph glyph-name="B" unicode="&#x412;" horiz-adv-x="325" 
d="M219 683q0 35 -11.5 49t-39.5 14h-55v-291h56q27 0 38.5 13t11.5 42v173zM222 322q0 35 -10.5 50.5t-42.5 15.5h-56v-313h55q54 0 54 64v183zM37 0v823h131q66 0 94 -33t28 -108v-165q0 -77 -50 -91q24 -5 42 -25.5t18 -65.5v-196q0 -73 -33 -106t-99 -33h-131z" />
    <glyph glyph-name="B" unicode="&#x392;" horiz-adv-x="325" 
d="M219 683q0 35 -11.5 49t-39.5 14h-55v-291h56q27 0 38.5 13t11.5 42v173zM222 322q0 35 -10.5 50.5t-42.5 15.5h-56v-313h55q54 0 54 64v183zM37 0v823h131q66 0 94 -33t28 -108v-165q0 -77 -50 -91q24 -5 42 -25.5t18 -65.5v-196q0 -73 -33 -106t-99 -33h-131z" />
    <glyph glyph-name="C" unicode="C" horiz-adv-x="309" 
d="M213 302h69v-170q0 -72 -28.5 -106.5t-91.5 -34.5q-131 0 -131 139v560q0 142 131 142q120 0 120 -140v-146h-69v145q0 33 -11 48.5t-40 15.5q-54 0 -54 -64v-560q0 -65 54 -65q28 0 39.5 16t11.5 49v171z" />
    <glyph glyph-name="C" unicode="&#x421;" horiz-adv-x="309" 
d="M213 302h69v-170q0 -72 -28.5 -106.5t-91.5 -34.5q-131 0 -131 139v560q0 142 131 142q120 0 120 -140v-146h-69v145q0 33 -11 48.5t-40 15.5q-54 0 -54 -64v-560q0 -65 54 -65q28 0 39.5 16t11.5 49v171z" />
    <glyph glyph-name="D" unicode="D" horiz-adv-x="326" 
d="M219 681q0 31 -13.5 48t-40.5 17h-52v-671h52q54 0 54 65v541zM37 0v823h128q66 0 98 -37.5t32 -103.5v-542q0 -140 -130 -140h-128z" />
    <glyph glyph-name="E" unicode="E" horiz-adv-x="281" 
d="M37 0v823h218v-77h-142v-289h100v-76h-100v-306h147v-75h-223z" />
    <glyph glyph-name="E" unicode="&#x415;" horiz-adv-x="281" 
d="M37 0v823h218v-77h-142v-289h100v-76h-100v-306h147v-75h-223z" />
    <glyph glyph-name="E" unicode="&#x395;" horiz-adv-x="281" 
d="M37 0v823h218v-77h-142v-289h100v-76h-100v-306h147v-75h-223z" />
    <glyph glyph-name="F" unicode="F" horiz-adv-x="271" 
d="M37 0v823h223v-77h-147v-293h101v-76h-101v-377h-76z" />
    <glyph glyph-name="G" unicode="G" horiz-adv-x="322" 
d="M280 -5l-25 45q-12 -24 -39 -36.5t-61 -12.5q-27 0 -49.5 7t-39 23.5t-26 43.5t-9.5 66v560q0 69 32 105t98 36t95.5 -36t29.5 -105v-145h-68v145q0 32 -13 48t-44 16q-29 0 -41.5 -16t-12.5 -48v-560q0 -32 15 -48.5t38 -16.5q54 0 59 59v187h-63v72h136v-389h-12z" />
    <glyph glyph-name="H" unicode="H" horiz-adv-x="332" 
d="M219 0v381h-106v-381h-76v823h76v-367h106v367h76v-823h-76z" />
    <glyph glyph-name="H" unicode="&#x41d;" horiz-adv-x="332" 
d="M219 0v381h-106v-381h-76v823h76v-367h106v367h76v-823h-76z" />
    <glyph glyph-name="H" unicode="&#x397;" horiz-adv-x="332" 
d="M219 0v381h-106v-381h-76v823h76v-367h106v367h76v-823h-76z" />
    <glyph glyph-name="I" unicode="I" horiz-adv-x="155" 
d="M39 0v823h76v-823h-76z" />
    <glyph glyph-name="I" unicode="&#x4cf;" horiz-adv-x="155" 
d="M39 0v823h76v-823h-76z" />
    <glyph glyph-name="I" unicode="&#x4c0;" horiz-adv-x="155" 
d="M39 0v823h76v-823h-76z" />
    <glyph glyph-name="I" unicode="&#x406;" horiz-adv-x="155" 
d="M39 0v823h76v-823h-76z" />
    <glyph glyph-name="I" unicode="&#x399;" horiz-adv-x="155" 
d="M39 0v823h76v-823h-76z" />
    <glyph glyph-name="J" unicode="J" horiz-adv-x="218" 
d="M10 77q14 -7 48 -7q49 0 49 64v689h76v-689q0 -73 -32 -106.5t-93 -33.5q-35 0 -48 7v76z" />
    <glyph glyph-name="J" unicode="&#x408;" horiz-adv-x="218" 
d="M10 77q14 -7 48 -7q49 0 49 64v689h76v-689q0 -73 -32 -106.5t-93 -33.5q-35 0 -48 7v76z" />
    <glyph glyph-name="K" unicode="K" horiz-adv-x="349" 
d="M257 0l-144 405v-405h-76v823h76v-355l139 355h82l-156 -375l166 -448h-87z" />
    <glyph glyph-name="K" unicode="&#x41a;" horiz-adv-x="349" 
d="M257 0l-144 405v-405h-76v823h76v-355l139 355h82l-156 -375l166 -448h-87z" />
    <glyph glyph-name="K" unicode="&#x39a;" horiz-adv-x="349" 
d="M257 0l-144 405v-405h-76v823h76v-355l139 355h82l-156 -375l166 -448h-87z" />
    <glyph glyph-name="L" unicode="L" horiz-adv-x="271" 
d="M37 0v823h76v-748h147v-75h-223z" />
    <glyph glyph-name="M" unicode="M" horiz-adv-x="451" 
d="M345 0v249q0 91 0.5 178t1.5 178l-89 -605h-67l-88 605q1 -91 1.5 -178t0.5 -178v-249h-70v823h102l87 -643l87 643h105v-823h-71z" />
    <glyph glyph-name="M" unicode="&#x41c;" horiz-adv-x="451" 
d="M345 0v249q0 91 0.5 178t1.5 178l-89 -605h-67l-88 605q1 -91 1.5 -178t0.5 -178v-249h-70v823h102l87 -643l87 643h105v-823h-71z" />
    <glyph glyph-name="M" unicode="&#x39c;" horiz-adv-x="451" 
d="M345 0v249q0 91 0.5 178t1.5 178l-89 -605h-67l-88 605q1 -91 1.5 -178t0.5 -178v-249h-70v823h102l87 -643l87 643h105v-823h-71z" />
    <glyph glyph-name="N" unicode="N" horiz-adv-x="354" 
d="M242 0l-142 601q1 -94 1 -182.5v-182.5v-236h-66v823h91l126 -603q-1 85 -1 166.5v166.5v270h67v-823h-76z" />
    <glyph glyph-name="N" unicode="&#x39d;" horiz-adv-x="354" 
d="M242 0l-142 601q1 -94 1 -182.5v-182.5v-236h-66v823h91l126 -603q-1 85 -1 166.5v166.5v270h67v-823h-76z" />
    <glyph glyph-name="O" unicode="O" horiz-adv-x="321" 
d="M31 692q0 140 129 140q130 0 130 -140v-561q0 -140 -130 -140q-129 0 -129 140v561zM214 692q0 63 -54 63q-53 0 -53 -63v-561q0 -65 53 -65q54 0 54 65v561z" />
    <glyph glyph-name="O" unicode="&#x41e;" horiz-adv-x="321" 
d="M31 692q0 140 129 140q130 0 130 -140v-561q0 -140 -130 -140q-129 0 -129 140v561zM214 692q0 63 -54 63q-53 0 -53 -63v-561q0 -65 53 -65q54 0 54 65v561z" />
    <glyph glyph-name="O" unicode="&#x39f;" horiz-adv-x="321" 
d="M31 692q0 140 129 140q130 0 130 -140v-561q0 -140 -130 -140q-129 0 -129 140v561zM214 692q0 63 -54 63q-53 0 -53 -63v-561q0 -65 53 -65q54 0 54 65v561z" />
    <glyph glyph-name="P" unicode="P" horiz-adv-x="322" 
d="M231 674q0 37 -15 54.5t-51 17.5h-52v-281h53q33 0 49 17t16 55v137zM37 0v823h128q72 0 106.5 -35.5t34.5 -113.5v-135q0 -78 -34 -113t-106 -35h-53v-391h-76z" />
    <glyph glyph-name="P" unicode="&#x420;" horiz-adv-x="322" 
d="M231 674q0 37 -15 54.5t-51 17.5h-52v-281h53q33 0 49 17t16 55v137zM37 0v823h128q72 0 106.5 -35.5t34.5 -113.5v-135q0 -78 -34 -113t-106 -35h-53v-391h-76z" />
    <glyph glyph-name="P" unicode="&#x3a1;" horiz-adv-x="322" 
d="M231 674q0 37 -15 54.5t-51 17.5h-52v-281h53q33 0 49 17t16 55v137zM37 0v823h128q72 0 106.5 -35.5t34.5 -113.5v-135q0 -78 -34 -113t-106 -35h-53v-391h-76z" />
    <glyph glyph-name="Q" unicode="Q" horiz-adv-x="321" 
d="M290 -72q-8 -10 -24.5 -17t-42.5 -7q-24 0 -42 8.5t-29.5 22.5t-17.5 32.5t-6 39.5q-97 16 -97 137v548q0 69 31.5 104.5t97.5 35.5q130 0 130 -140v-548q0 -60 -26 -97t-84 -41q0 -17 12 -29.5t41 -12.5q38 0 57 25v-61zM214 692q0 63 -54 63q-53 0 -53 -63v-552
q0 -63 53 -63q54 0 54 63v552z" />
    <glyph glyph-name="R" unicode="R" horiz-adv-x="332" 
d="M230 0q-13 97 -27 188.5t-31 185.5q-5 -1 -9 -1h-9h-41v-373h-76v823h125q72 0 107.5 -33.5t35.5 -114.5v-164q0 -90 -61 -121q20 -100 37 -196.5t32 -193.5h-83zM228 665q0 45 -13 63t-53 18h-49v-304h50q35 0 50 16.5t15 51.5v155z" />
    <glyph glyph-name="S" unicode="S" horiz-adv-x="310" 
d="M207 244q0 19 -1 31t-4 21t-8 16.5t-12 16.5q-32 39 -69 74t-59 63q-9 12 -14.5 22.5t-8.5 22.5t-3.5 26.5t-0.5 35.5v123q0 136 131 136q67 0 94.5 -33.5t27.5 -102.5v-150h-71v140q0 31 -10.5 50t-41.5 19q-53 0 -53 -59v-122q0 -26 3.5 -38t14.5 -26q13 -18 30 -35.5
t34.5 -34.5t33 -33t27.5 -31q10 -13 17 -25t11 -26.5t6 -33.5t2 -46v-118q0 -66 -29 -101t-98 -35q-68 0 -98.5 34.5t-30.5 101.5v175h73v-164q0 -33 11.5 -52.5t43.5 -19.5q28 0 40 16t12 45v117z" />
    <glyph glyph-name="S" unicode="&#x405;" horiz-adv-x="310" 
d="M207 244q0 19 -1 31t-4 21t-8 16.5t-12 16.5q-32 39 -69 74t-59 63q-9 12 -14.5 22.5t-8.5 22.5t-3.5 26.5t-0.5 35.5v123q0 136 131 136q67 0 94.5 -33.5t27.5 -102.5v-150h-71v140q0 31 -10.5 50t-41.5 19q-53 0 -53 -59v-122q0 -26 3.5 -38t14.5 -26q13 -18 30 -35.5
t34.5 -34.5t33 -33t27.5 -31q10 -13 17 -25t11 -26.5t6 -33.5t2 -46v-118q0 -66 -29 -101t-98 -35q-68 0 -98.5 34.5t-30.5 101.5v175h73v-164q0 -33 11.5 -52.5t43.5 -19.5q28 0 40 16t12 45v117z" />
    <glyph glyph-name="T" unicode="T" horiz-adv-x="281" 
d="M103 0v746h-92v77h259v-77h-92v-746h-75z" />
    <glyph glyph-name="T" unicode="&#x422;" horiz-adv-x="281" 
d="M103 0v746h-92v77h259v-77h-92v-746h-75z" />
    <glyph glyph-name="T" unicode="&#x3a4;" horiz-adv-x="281" 
d="M103 0v746h-92v77h259v-77h-92v-746h-75z" />
    <glyph glyph-name="U" unicode="U" horiz-adv-x="326" 
d="M216 823h76v-692q0 -140 -129 -140t-129 140v692h76v-692q0 -65 53 -65t53 65v692z" />
    <glyph glyph-name="V" unicode="V" horiz-adv-x="338" 
d="M114 0l-102 823h79q6 -51 13.5 -116.5t15 -136t15.5 -140.5t14.5 -130t11 -105t6.5 -64q2 20 7 64.5t11.5 104.5t15 130t17 140.5t16.5 136t15 116.5h76l-109 -823h-102z" />
    <glyph glyph-name="W" unicode="W" horiz-adv-x="526" 
d="M318 0q-5 44 -11 101.5t-12 119.5l-12 124t-10.5 115t-8 92.5t-4.5 57.5q-1 -18 -4.5 -57.5t-8.5 -92.5t-11 -115t-13 -124t-13.5 -119.5t-12.5 -101.5h-93l-92 823h79q6 -51 12.5 -113t13 -127.5t12 -129.5t10.5 -118.5t9 -96.5t6 -62q2 20 6.5 62t10.5 96.5t12.5 118.5
t14 129.5t14.5 127.5t13 113h76l62 -647q2 20 6.5 62t10.5 96.5t12.5 118.5t14 129.5t14.5 127.5t13 113h80l-104 -823h-92z" />
    <glyph glyph-name="X" unicode="X" horiz-adv-x="339" 
d="M252 0q-12 42 -25.5 97t-26 107t-21.5 94t-12 59q-3 -17 -12 -59t-21 -94t-25.5 -106.5t-25.5 -97.5h-78l120 439l-102 384h81q9 -33 19.5 -77t19.5 -86.5t16.5 -78t10.5 -53.5q3 18 10.5 53.5t17 78t20 86.5t19.5 77h79l-104 -382l122 -441h-82z" />
    <glyph glyph-name="X" unicode="&#x425;" horiz-adv-x="339" 
d="M252 0q-12 42 -25.5 97t-26 107t-21.5 94t-12 59q-3 -17 -12 -59t-21 -94t-25.5 -106.5t-25.5 -97.5h-78l120 439l-102 384h81q9 -33 19.5 -77t19.5 -86.5t16.5 -78t10.5 -53.5q3 18 10.5 53.5t17 78t20 86.5t19.5 77h79l-104 -382l122 -441h-82z" />
    <glyph glyph-name="X" unicode="&#x3a7;" horiz-adv-x="339" 
d="M252 0q-12 42 -25.5 97t-26 107t-21.5 94t-12 59q-3 -17 -12 -59t-21 -94t-25.5 -106.5t-25.5 -97.5h-78l120 439l-102 384h81q9 -33 19.5 -77t19.5 -86.5t16.5 -78t10.5 -53.5q3 18 10.5 53.5t17 78t20 86.5t19.5 77h79l-104 -382l122 -441h-82z" />
    <glyph glyph-name="Y" unicode="Y" horiz-adv-x="332" 
d="M125 0v369l-116 454h80q10 -41 21.5 -90.5t23 -97.5t20.5 -88.5t13 -62.5q4 22 13 62.5t20.5 88.5t24 97.5t23.5 90.5h74l-120 -454v-369h-77z" />
    <glyph glyph-name="Y" unicode="&#x4ae;" horiz-adv-x="332" 
d="M125 0v369l-116 454h80q10 -41 21.5 -90.5t23 -97.5t20.5 -88.5t13 -62.5q4 22 13 62.5t20.5 88.5t24 97.5t23.5 90.5h74l-120 -454v-369h-77z" />
    <glyph glyph-name="Y" unicode="&#x3a5;" horiz-adv-x="332" 
d="M125 0v369l-116 454h80q10 -41 21.5 -90.5t23 -97.5t20.5 -88.5t13 -62.5q4 22 13 62.5t20.5 88.5t24 97.5t23.5 90.5h74l-120 -454v-369h-77z" />
    <glyph glyph-name="Z" unicode="Z" horiz-adv-x="307" 
d="M25 0v76l182 673h-175v74h251v-69l-179 -677h179v-77h-258z" />
    <glyph glyph-name="Z" unicode="&#x396;" horiz-adv-x="307" 
d="M25 0v76l182 673h-175v74h251v-69l-179 -677h179v-77h-258z" />
    <glyph glyph-name="bracketleft" unicode="[" horiz-adv-x="248" 
d="M74 -80v983h151v-56h-96v-872h96v-55h-151z" />
    <glyph glyph-name="backslash" unicode="\" horiz-adv-x="242" 
d="M178 0l-172 823h56l172 -823h-56z" />
    <glyph glyph-name="bracketright" unicode="]" horiz-adv-x="248" 
d="M74 -80v55h96v872h-96v56h151v-983h-151z" />
    <glyph glyph-name="asciicircum" unicode="^" horiz-adv-x="314" 
d="M221 507l-62 254l-67 -254h-55l86 316h69l84 -316h-55z" />
    <glyph glyph-name="underscore" unicode="_" horiz-adv-x="297" 
d="M-1 -108v51h299v-51h-299z" />
    <glyph glyph-name="grave" unicode="`" horiz-adv-x="276" 
d="M171 656l-134 161h88l113 -161h-67z" />
    <glyph glyph-name="a" unicode="a" horiz-adv-x="285" 
d="M190 0q-4 12 -4 37q-25 -46 -74 -46q-42 0 -65.5 23t-23.5 75v91q0 45 12.5 75.5t34 51.5t50.5 35.5t62 28.5v135q0 26 -9.5 40t-35.5 14q-27 0 -36 -14t-9 -40v-130h-61v131q0 61 25.5 91.5t82.5 30.5q109 0 109 -122v-436q0 -22 1 -41t4 -30h-63zM182 316
q-30 -11 -48.5 -24t-28 -29.5t-12.5 -38t-3 -49.5v-66q0 -51 47 -51q15 0 27.5 9t17.5 30v219z" />
    <glyph glyph-name="a" unicode="&#x430;" horiz-adv-x="285" 
d="M190 0q-4 12 -4 37q-25 -46 -74 -46q-42 0 -65.5 23t-23.5 75v91q0 45 12.5 75.5t34 51.5t50.5 35.5t62 28.5v135q0 26 -9.5 40t-35.5 14q-27 0 -36 -14t-9 -40v-130h-61v131q0 61 25.5 91.5t82.5 30.5q109 0 109 -122v-436q0 -22 1 -41t4 -30h-63zM182 316
q-30 -11 -48.5 -24t-28 -29.5t-12.5 -38t-3 -49.5v-66q0 -51 47 -51q15 0 27.5 9t17.5 30v219z" />
    <glyph glyph-name="b" unicode="b" 
d="M203 510q0 47 -44 47q-17 0 -31.5 -10t-21.5 -30v-410q7 -20 21.5 -30.5t31.5 -10.5q23 0 33.5 11.5t10.5 40.5v392zM37 0v823h69v-234q11 18 30.5 29t44.5 11q48 0 69 -26.5t21 -87.5v-396q0 -66 -24 -96t-78 -30q-31 0 -51.5 15t-32.5 38q-2 -12 -4.5 -23.5t-6.5 -22.5
h-37z" />
    <glyph glyph-name="c" unicode="c" horiz-adv-x="284" 
d="M190 253h64v-138q0 -57 -26.5 -90.5t-83.5 -33.5t-85 34.5t-28 91.5v384q0 57 28 92.5t85 35.5t82.5 -35t25.5 -92v-134h-62v135q0 55 -46 55q-23 0 -34.5 -15t-11.5 -41v-385q0 -56 46 -56t46 55v137z" />
    <glyph glyph-name="c" unicode="&#x441;" horiz-adv-x="284" 
d="M190 253h64v-138q0 -57 -26.5 -90.5t-83.5 -33.5t-85 34.5t-28 91.5v384q0 57 28 92.5t85 35.5t82.5 -35t25.5 -92v-134h-62v135q0 55 -46 55q-23 0 -34.5 -15t-11.5 -41v-385q0 -56 46 -56t46 55v137z" />
    <glyph glyph-name="d" unicode="d" 
d="M197 518q-17 41 -54 41q-23 0 -33 -11.5t-10 -39.5v-390q0 -29 10 -40.5t33 -11.5q37 0 54 41v411zM207 0q-1 11 -1.5 22.5t-0.5 23.5q-11 -25 -31.5 -39t-54.5 -14q-88 0 -88 116v406q0 61 21.5 87.5t69.5 26.5q24 0 43.5 -11t31.5 -29v234h68v-823h-58z" />
    <glyph glyph-name="e" unicode="e" horiz-adv-x="280" 
d="M184 502q0 55 -46 55q-43 0 -43 -55v-149h89v149zM184 252h65v-136q0 -125 -111 -125q-107 0 -107 125v386q0 63 27.5 95t79.5 32q111 0 111 -127v-199h-154v-187q0 -55 43 -55q46 0 46 55v136z" />
    <glyph glyph-name="e" unicode="&#x435;" horiz-adv-x="280" 
d="M184 502q0 55 -46 55q-43 0 -43 -55v-149h89v149zM184 252h65v-136q0 -125 -111 -125q-107 0 -107 125v386q0 63 27.5 95t79.5 32q111 0 111 -127v-199h-154v-187q0 -55 43 -55q46 0 46 55v136z" />
    <glyph glyph-name="f" unicode="f" horiz-adv-x="192" 
d="M40 0v558h-30v61h30v86q0 58 20.5 90.5t74.5 32.5q12 0 24 -1.5t21 -4.5v-59q-11 3 -25 3q-24 0 -35.5 -14.5t-11.5 -48.5v-84h70v-61h-70v-558h-68z" />
    <glyph glyph-name="g" unicode="g" 
d="M199 68q-11 -18 -31.5 -28.5t-46.5 -10.5q-48 0 -69 26t-21 87v367q0 60 22.5 88t65.5 28q32 0 52.5 -13.5t33.5 -39.5q0 12 0.5 24t1.5 23h58v-651q0 -57 -27.5 -87t-85.5 -30q-32 0 -54 8t-35 23t-18.5 36.5t-5.5 49.5v25h62v-28q0 -54 50 -54q48 0 48 54v103zM199 511
q-8 20 -23 30.5t-33 10.5q-26 0 -35 -12.5t-9 -34.5v-361q0 -26 9.5 -37.5t34.5 -11.5q18 0 33 10t23 30v376z" />
    <glyph glyph-name="h" unicode="h" 
d="M199 0v511q0 27 -9 38.5t-31 11.5q-15 0 -30 -9t-23 -29v-523h-69v823h69v-239q14 20 35 32.5t47 12.5q42 0 61 -27t19 -87v-515h-69z" />
    <glyph glyph-name="h" unicode="&#x4bb;" 
d="M199 0v511q0 27 -9 38.5t-31 11.5q-15 0 -30 -9t-23 -29v-523h-69v823h69v-239q14 20 35 32.5t47 12.5q42 0 61 -27t19 -87v-515h-69z" />
    <glyph glyph-name="i" unicode="i" horiz-adv-x="147" 
d="M39 698v125h69v-125h-69zM39 0v619h69v-619h-69z" />
    <glyph glyph-name="i" unicode="&#x456;" horiz-adv-x="147" 
d="M39 698v125h69v-125h-69zM39 0v619h69v-619h-69z" />
    <glyph glyph-name="j" unicode="j" horiz-adv-x="163" 
d="M-32 -72q8 -2 17.5 -3t18.5 -1q50 0 50 63v632h69v-632q0 -69 -29.5 -100t-89.5 -31q-24 0 -36 4v68zM54 698v125h69v-125h-69z" />
    <glyph glyph-name="j" unicode="&#x458;" horiz-adv-x="163" 
d="M-32 -72q8 -2 17.5 -3t18.5 -1q50 0 50 63v632h69v-632q0 -69 -29.5 -100t-89.5 -31q-24 0 -36 4v68zM54 698v125h69v-125h-69z" />
    <glyph glyph-name="k" unicode="k" horiz-adv-x="301" 
d="M216 0l-112 318v-318h-67v823h67v-471l112 267h73l-121 -274l124 -345h-76z" />
    <glyph glyph-name="l" unicode="l" horiz-adv-x="144" 
d="M37 0v823h69v-823h-69z" />
    <glyph glyph-name="m" unicode="m" horiz-adv-x="439" 
d="M336 0v515q0 46 -35 46q-14 0 -26 -9t-20 -29v-523h-69v515q0 46 -35 46q-13 0 -25 -9t-20 -29v-523h-69v619h58q3 -23 3 -46q13 26 34 41t47 15q53 0 67 -54q13 25 34.5 39.5t48.5 14.5q39 0 57 -28t18 -85v-516h-68z" />
    <glyph glyph-name="n" unicode="n" 
d="M199 0v511q0 27 -9 38.5t-31 11.5q-15 0 -30 -9t-23 -29v-523h-69v619h58q3 -23 3 -47q14 26 37 41.5t52 15.5q42 0 61.5 -27t19.5 -87v-515h-69z" />
    <glyph glyph-name="o" unicode="o" horiz-adv-x="291" 
d="M31 505q0 60 28 92t86 32q57 0 85.5 -32t28.5 -92v-391q0 -60 -28.5 -91.5t-85.5 -31.5q-58 0 -86 31.5t-28 91.5v391zM192 503q0 26 -9.5 40.5t-37.5 14.5t-37.5 -14.5t-9.5 -40.5v-389q0 -26 9.5 -39.5t37.5 -13.5t37.5 14t9.5 41v387z" />
    <glyph glyph-name="o" unicode="&#x43e;" horiz-adv-x="291" 
d="M31 505q0 60 28 92t86 32q57 0 85.5 -32t28.5 -92v-391q0 -60 -28.5 -91.5t-85.5 -31.5q-58 0 -86 31.5t-28 91.5v391zM192 503q0 26 -9.5 40.5t-37.5 14.5t-37.5 -14.5t-9.5 -40.5v-389q0 -26 9.5 -39.5t37.5 -13.5t37.5 14t9.5 41v387z" />
    <glyph glyph-name="o" unicode="&#x3bf;" horiz-adv-x="291" 
d="M31 505q0 60 28 92t86 32q57 0 85.5 -32t28.5 -92v-391q0 -60 -28.5 -91.5t-85.5 -31.5q-58 0 -86 31.5t-28 91.5v391zM192 503q0 26 -9.5 40.5t-37.5 14.5t-37.5 -14.5t-9.5 -40.5v-389q0 -26 9.5 -39.5t37.5 -13.5t37.5 14t9.5 41v387z" />
    <glyph glyph-name="p" unicode="p" 
d="M203 500q0 29 -10.5 40.5t-33.5 11.5q-17 0 -31.5 -10t-21.5 -30v-412q7 -20 21.5 -30t31.5 -10q23 0 33.5 11.5t10.5 38.5v390zM37 -139v758h58q3 -23 3 -47q11 26 31 39.5t54 13.5q43 0 65.5 -28t22.5 -88v-405q0 -63 -21 -88t-69 -25q-25 0 -44.5 10.5t-30.5 27.5
v-168h-69z" />
    <glyph glyph-name="p" unicode="&#x440;" 
d="M203 500q0 29 -10.5 40.5t-33.5 11.5q-17 0 -31.5 -10t-21.5 -30v-412q7 -20 21.5 -30t31.5 -10q23 0 33.5 11.5t10.5 38.5v390zM37 -139v758h58q3 -23 3 -47q11 26 31 39.5t54 13.5q43 0 65.5 -28t22.5 -88v-405q0 -63 -21 -88t-69 -25q-25 0 -44.5 10.5t-30.5 27.5
v-168h-69z" />
    <glyph glyph-name="q" unicode="q" 
d="M197 513q-17 41 -54 41q-23 0 -33 -12t-10 -40v-392q0 -27 10 -38.5t33 -11.5q17 0 31.5 10t22.5 30v413zM197 -139v168q-12 -17 -31.5 -27.5t-43.5 -10.5q-48 0 -69.5 25t-21.5 88v405q0 60 22.5 88t65.5 28q33 0 54 -15t32 -38q0 24 3 47h57v-758h-68z" />
    <glyph glyph-name="r" unicode="r" horiz-adv-x="208" 
d="M37 0v619h58q3 -23 3 -45q13 27 31.5 39t43.5 12q14 0 21 -4v-77q-5 4 -14 5.5t-17 1.5q-16 0 -31.5 -7.5t-25.5 -29.5v-514h-69z" />
    <glyph glyph-name="s" unicode="s" horiz-adv-x="279" 
d="M181 179q0 20 -6 35t-24 37q-21 25 -47 48t-45 45q-20 22 -26 44t-6 58v64q0 66 28 92.5t85 26.5q61 0 84 -28.5t23 -90.5v-101h-63v101q0 23 -13 36.5t-34 13.5q-43 0 -43 -50v-73q0 -22 5.5 -34.5t22.5 -30.5q24 -25 46.5 -43t42.5 -41q23 -27 31 -52.5t8 -65.5v-67
q0 -59 -28 -85.5t-83 -26.5q-57 0 -84.5 27.5t-27.5 87.5v101h62v-99q0 -23 13 -36.5t35 -13.5q44 0 44 50v71z" />
    <glyph glyph-name="s" unicode="&#x455;" horiz-adv-x="279" 
d="M181 179q0 20 -6 35t-24 37q-21 25 -47 48t-45 45q-20 22 -26 44t-6 58v64q0 66 28 92.5t85 26.5q61 0 84 -28.5t23 -90.5v-101h-63v101q0 23 -13 36.5t-34 13.5q-43 0 -43 -50v-73q0 -22 5.5 -34.5t22.5 -30.5q24 -25 46.5 -43t42.5 -41q23 -27 31 -52.5t8 -65.5v-67
q0 -59 -28 -85.5t-83 -26.5q-57 0 -84.5 27.5t-27.5 87.5v101h62v-99q0 -23 13 -36.5t35 -13.5q44 0 44 50v71z" />
    <glyph glyph-name="t" unicode="t" horiz-adv-x="192" 
d="M180 -4q-5 -2 -14.5 -3.5t-17.5 -1.5q-55 0 -82 34t-27 94v439h-29v61h29v196h69v-196h70v-61h-70v-439q0 -38 13.5 -53.5t45.5 -15.5h6.5t6.5 1v-55z" />
    <glyph glyph-name="u" unicode="u" horiz-adv-x="301" 
d="M204 0q-1 11 -1.5 22t-0.5 23q-14 -25 -36.5 -38.5t-51.5 -13.5q-80 0 -80 107v519h69v-508q0 -28 9 -39t29 -11q16 0 30.5 8.5t22.5 28.5v521h69v-619h-59z" />
    <glyph glyph-name="v" unicode="v" horiz-adv-x="277" 
d="M101 0l-90 619h69q8 -56 16.5 -122t16.5 -129t14 -115.5t9 -82.5q3 30 9.5 82.5t15.5 115.5t18.5 129t18.5 122h66l-94 -619h-69z" />
    <glyph glyph-name="v" unicode="&#x3bd;" horiz-adv-x="277" 
d="M101 0l-90 619h69q8 -56 16.5 -122t16.5 -129t14 -115.5t9 -82.5q3 30 9.5 82.5t15.5 115.5t18.5 129t18.5 122h66l-94 -619h-69z" />
    <glyph glyph-name="w" unicode="w" horiz-adv-x="418" 
d="M253 0l-46 462l-52 -462h-82l-60 619h65l39 -486l57 486h67l51 -486l47 486h65l-68 -619h-83z" />
    <glyph glyph-name="x" unicode="x" horiz-adv-x="284" 
d="M205 0q-9 33 -19 72t-19 77.5t-16 72.5t-11 58q-5 -24 -12 -58t-15.5 -72.5t-18 -77.5t-18.5 -72h-69l90 329l-78 290h72q6 -26 13.5 -59l15 -66t14 -62t9.5 -45q3 16 9 45t13.5 62t15.5 66t14 59h69l-78 -289l91 -330h-72z" />
    <glyph glyph-name="x" unicode="&#x445;" horiz-adv-x="284" 
d="M205 0q-9 33 -19 72t-19 77.5t-16 72.5t-11 58q-5 -24 -12 -58t-15.5 -72.5t-18 -77.5t-18.5 -72h-69l90 329l-78 290h72q6 -26 13.5 -59l15 -66t14 -62t9.5 -45q3 16 9 45t13.5 62t15.5 66t14 59h69l-78 -289l91 -330h-72z" />
    <glyph glyph-name="y" unicode="y" horiz-adv-x="277" 
d="M19 -70q18 -5 34 -5q21 0 30.5 17t14.5 46l4 25l-91 606h72q5 -35 10.5 -78t10.5 -89t10.5 -92t9.5 -86t7.5 -72t5.5 -49q2 17 5.5 49t8.5 72t10.5 86t11.5 92t12.5 89t12.5 78h66l-94 -627q-5 -33 -12 -58t-19.5 -42.5t-32.5 -26.5t-50 -9q-15 0 -37 5v69z" />
    <glyph glyph-name="y" unicode="&#x443;" horiz-adv-x="277" 
d="M19 -70q18 -5 34 -5q21 0 30.5 17t14.5 46l4 25l-91 606h72q5 -35 10.5 -78t10.5 -89t10.5 -92t9.5 -86t7.5 -72t5.5 -49q2 17 5.5 49t8.5 72t10.5 86t11.5 92t12.5 89t12.5 78h66l-94 -627q-5 -33 -12 -58t-19.5 -42.5t-32.5 -26.5t-50 -9q-15 0 -37 5v69z" />
    <glyph glyph-name="z" unicode="z" horiz-adv-x="256" 
d="M25 0v64l141 487h-139v68h205v-64l-138 -485h137v-70h-206z" />
    <glyph glyph-name="braceleft" unicode="{" horiz-adv-x="262" 
d="M235 -80q-69 0 -99.5 32.5t-30.5 96.5v219q0 19 -3.5 28t-11.5 20l-74 95l74 96q8 10 11.5 19t3.5 29v217q0 64 30.5 97.5t99.5 33.5h8v-56h-7q-42 0 -59 -17t-17 -59v-207q0 -33 -6 -51.5t-20 -36.5l-51 -65l51 -65q14 -19 20 -38t6 -51v-206q0 -42 17 -59t59 -17h7v-55
h-8z" />
    <glyph glyph-name="bar" unicode="|" horiz-adv-x="193" 
d="M68 -80v983h56v-983h-56z" />
    <glyph glyph-name="braceright" unicode="}" horiz-adv-x="262" 
d="M16 -80v55h7q42 0 59 17t17 59v206q0 32 6 51t20 38l51 65l-51 65q-14 18 -20 36.5t-6 51.5v207q0 42 -17 59t-59 17h-7v56h8q69 0 99.5 -33.5t30.5 -97.5v-217q0 -20 3.5 -29t11.5 -19l74 -96l-74 -95q-8 -11 -11.5 -20t-3.5 -28v-219q0 -64 -30.5 -96.5t-99.5 -32.5h-8
z" />
    <glyph glyph-name="asciitilde" unicode="~" horiz-adv-x="464" 
d="M427 407q-21 -20 -46.5 -30t-61.5 -10q-25 0 -48 8t-45 17t-44 17t-44 8q-27 0 -52 -11.5t-49 -40.5v69q15 17 39 28.5t59 11.5q28 0 52.5 -8t47 -17t43.5 -17t43 -8q33 0 58 12.5t48 38.5v-68z" />
    <glyph glyph-name="nonbreakingspace" unicode="&#xa0;" horiz-adv-x="136" 
 />
    <glyph glyph-name="exclamdown" unicode="&#xa1;" horiz-adv-x="161" 
d="M41 0zM120.003 703v-108.993h-77.9961v108.993h77.9961zM106.003 544.01l14.999 -341.979v-321.98h-79.9941v320.98l15.998 342.979h48.9971z" />
    <glyph glyph-name="cent" unicode="&#xa2;" horiz-adv-x="282" 
d="M129 0v88q-51 4 -74.5 38t-23.5 88v381q0 54 23.5 87.5t74.5 38.5v102h31v-102q49 -5 70.5 -39t21.5 -86v-135h-55v136q0 21 -10 36t-28 18v-492q38 5 38 54v134h57v-135q0 -52 -22.5 -85t-71.5 -38v-89h-31zM131 651q-20 -4 -29.5 -18.5t-9.5 -35.5v-383q0 -51 39 -55
v492z" />
    <glyph glyph-name="sterling" unicode="&#xa3;" horiz-adv-x="286" 
d="M265 23q-22 -31 -68 -31q-17 0 -32 6t-28.5 13.5t-26 13.5t-25.5 6q-16 0 -30.5 -8.5t-30.5 -31.5h-4v69q10 14 22.5 23.5t28.5 11.5q2 22 3.5 40.5t2 38.5t1 44t0.5 59v189h-55v58h55v149q0 78 30.5 118.5t90.5 40.5q31 0 49 -7v-70q-14 7 -34 7q-35 0 -52.5 -23
t-17.5 -65v-150h104v-58h-104v-189q0 -34 -1 -60t-2.5 -48.5t-4 -43t-5.5 -42.5q14 -5 32.5 -15.5t39.5 -10.5q19 0 33 7t25 26h4v-67z" />
    <glyph glyph-name="currency" unicode="&#xa4;" horiz-adv-x="482" 
d="M360 232q-26 -19 -55.5 -30t-64.5 -11q-33 0 -64 11t-54 30l-65 -67l-41 41q5 6 14 14.5t18.5 18t19 18.5t14.5 14q-41 50 -41 120q0 66 41 119l-65 63l41 42l63 -66q49 42 119 42q69 0 121 -43l61 67l42 -42l-65 -63q20 -25 30.5 -55.5t10.5 -63.5q0 -35 -11 -65
t-30 -55l66 -65l-42 -41zM378 391q0 28 -11 53t-29.5 43.5t-44 29t-53.5 10.5q-29 0 -53.5 -10.5t-43 -29t-29 -43.5t-10.5 -53q0 -29 10.5 -54t29 -43.5t43 -29t53.5 -10.5q28 0 53.5 10.5t44 29t29.5 43.5t11 54z" />
    <glyph glyph-name="yen" unicode="&#xa5;" horiz-adv-x="340" 
d="M203 92v-92h-72v92h-114v61h114v96h-114v61h114v57l-119 456h82l77 -338l79 338h76l-123 -457v-56h114v-61h-114v-96h114v-61h-114z" />
    <glyph glyph-name="brokenbar" unicode="&#xa6;" horiz-adv-x="193" 
d="M68 490v413h56v-413h-56zM68 -80v413h56v-413h-56z" />
    <glyph glyph-name="section" unicode="&#xa7;" horiz-adv-x="287" 
d="M183 60q0 24 -3 35.5t-13 22.5q-29 32 -54.5 53t-45.5 45q-18 21 -29.5 43.5t-11.5 56.5v99q0 38 15.5 65.5t43.5 38.5q-29 27 -41.5 50.5t-12.5 62.5v87q0 113 113 113q64 0 86.5 -32t22.5 -96v-95h-62v100q0 27 -9.5 42.5t-35.5 15.5q-47 0 -47 -48v-86
q0 -21 2.5 -34.5t13.5 -24.5q29 -30 53.5 -50.5t46.5 -44.5q12 -13 19.5 -23.5t12.5 -22t7 -25t2 -32.5v-98q0 -38 -16 -62.5t-42 -36.5q29 -29 41 -53.5t12 -64.5v-87q0 -113 -113 -113q-33 0 -54 8t-33 24t-17 40t-5 56v95h62v-100q0 -28 9.5 -43t35.5 -15q47 0 47 48v86z
M190 359q0 21 -2.5 35t-9 24.5t-18.5 21t-30 24.5q-21 -2 -29.5 -14.5t-8.5 -34.5v-81q0 -21 2.5 -35.5t9.5 -26t18.5 -21.5t28.5 -23q22 2 30.5 14.5t8.5 35.5v81z" />
    <glyph glyph-name="dieresis" unicode="&#xa8;" horiz-adv-x="294" 
d="M187 668v125h69v-125h-69zM37 668v125h69v-125h-69z" />
    <glyph glyph-name="copyright" unicode="&#xa9;" horiz-adv-x="517" 
d="M485 221q0 -62 -13.5 -106t-41 -71.5t-70.5 -40t-102 -12.5t-102 12.5t-70.5 40t-41 71.5t-13.5 106v381q0 62 13.5 106t41 71.5t70.5 40t102 12.5t102 -12.5t70.5 -40t41 -71.5t13.5 -106v-381zM433 607q0 49 -9.5 82.5t-30 54t-54 29.5t-81.5 9t-81.5 -9t-54.5 -29.5
t-30 -54t-9 -82.5v-393q0 -47 9.5 -80t30.5 -53.5t54 -30t81 -9.5t81.5 9.5t54 30t30 53.5t9.5 80v393zM290 347h44v-107q0 -45 -17.5 -66.5t-57.5 -21.5q-82 0 -82 87v352q0 90 82 90q75 0 75 -89v-92h-44v92q0 39 -31 39q-32 0 -32 -40v-352q0 -39 32 -39q31 0 31 39v108z
" />
    <glyph glyph-name="ordfeminine" unicode="&#xaa;" horiz-adv-x="216" 
d="M128 300q-1 5 -1.5 9.5t-0.5 9.5q-14 -24 -38 -24q-22 0 -34 12.5t-12 41.5v50q0 24 6.5 40.5t17.5 27.5t26 19t32 15v77q0 22 -19 22q-11 0 -14.5 -5.5t-3.5 -16.5v-71h-41v72q0 67 60 67q61 0 61 -67v-250q0 -10 1 -17.5t2 -11.5h-42zM124 464q-14 -5 -21.5 -11.5
t-11 -14.5t-4 -18.5t-0.5 -23.5v-35q0 -21 18 -21q13 0 19 14v110z" />
    <glyph glyph-name="guillemotleft" unicode="&#xab;" horiz-adv-x="391" 
d="M19 178zM214 296v75l157 112v-65l-120 -84l120 -88v-68zM19 296v75l157 112v-65l-120 -84l120 -88v-68z" />
    <glyph glyph-name="logicalnot" unicode="&#xac;" horiz-adv-x="419" 
d="M310 0v389h-290v73h361v-462h-71z" />
    <glyph glyph-name="registered" unicode="&#xae;" horiz-adv-x="517" 
d="M485 221q0 -62 -13.5 -106t-41 -71.5t-70.5 -40t-102 -12.5t-102 12.5t-70.5 40t-41 71.5t-13.5 106v381q0 62 13.5 106t41 71.5t70.5 40t102 12.5t102 -12.5t70.5 -40t41 -71.5t13.5 -106v-381zM433 607q0 49 -9.5 82.5t-30 54t-54 29.5t-81.5 9t-81.5 -9t-54.5 -29.5
t-30 -54t-9 -82.5v-393q0 -47 9.5 -80t30.5 -53.5t54 -30t81 -9.5t81.5 9.5t54 30t30 53.5t9.5 80v393zM298 574q0 26 -8.5 38.5t-32.5 12.5h-30v-190h30q41 0 41 43v96zM299 157q-8 60 -16.5 117t-19.5 115h-36v-232h-49v518h79q46 0 68 -21.5t22 -73.5v-103q0 -61 -37 -77
q13 -61 23.5 -122t19.5 -121h-54z" />
    <glyph glyph-name="macron" unicode="&#xaf;" horiz-adv-x="305" 
d="M37 700v59h230v-59h-230z" />
    <glyph glyph-name="degree" unicode="&#xb0;" horiz-adv-x="305" 
d="M152 560q-60 0 -90.5 36.5t-30.5 94.5q0 57 30.5 95.5t90.5 38.5t90.5 -38.5t30.5 -95.5q0 -58 -30.5 -94.5t-90.5 -36.5zM151 603q40 0 58 22.5t18 65.5t-18 66t-58 23q-38 0 -57.5 -23t-19.5 -66q0 -88 77 -88z" />
    <glyph glyph-name="plusminus" unicode="&#xb1;" horiz-adv-x="463" 
d="M37 121zM203 224v167h-166v57h166v165h57v-165h166v-57h-166v-167h-57zM37 121v57h389v-57h-389z" />
    <glyph glyph-name="twosuperior" unicode="&#xb2;" horiz-adv-x="185" 
d="M27 422zM27 422v75q0 18 1.5 32t6 26.5t12 26.5t19.5 32q14 21 23 35t14 25.5t7 22.5t2 26v44q0 24 -20 24q-19 0 -19 -24v-72h-46v71q0 38 16 55t49 17q66 0 66 -72v-48q0 -38 -13 -64t-30 -51q-14 -21 -22.5 -34.5t-12.5 -24.5t-5 -21.5t-1 -25.5v-29h84v-46h-131z" />
    <glyph glyph-name="threesuperior" unicode="&#xb3;" horiz-adv-x="185" 
d="M27 417zM113 586q0 24 -20 24h-21v43h23q11 0 14 6.5t3 17.5v90q0 24 -19 24t-19 -24v-73h-46v73q0 38 16 54.5t49 16.5t48.5 -17t15.5 -55v-91q0 -32 -27 -44q14 -4 21 -14t7 -30v-100q0 -32 -16 -51t-49 -19t-49.5 19t-16.5 51v81h47v-81q0 -24 19 -24q20 0 20 24v99z
" />
    <glyph glyph-name="acute" unicode="&#xb4;" horiz-adv-x="276" 
d="M37 656l112 161h89l-135 -161h-66z" />
    <glyph glyph-name="paragraph" unicode="&#xb6;" horiz-adv-x="423" 
d="M282 -134v884h-87v-779q0 -51 -24 -84t-73 -33q-26 0 -43 7v53q11 -4 24 -4q27 0 39 14t12 47v631h-16q-54 0 -75.5 30t-21.5 78q0 23 5.5 43.5t17.5 36t31 24.5t47 9h286v-73h-59v-884h-63zM130 750h-18q-23 0 -33 -16.5t-10 -41.5q0 -23 9.5 -39t31.5 -16h20v113z" />
    <glyph glyph-name="periodcentered" unicode="&#xb7;" horiz-adv-x="134" 
d="M31 350zM31 350v125h71v-125h-71z" />
    <glyph glyph-name="cedilla" unicode="&#xb8;" horiz-adv-x="133" 
d="M45 -149v25h8q11 0 11 12v20h-27v72h58v-90q0 -19 -9 -29t-30 -10h-11z" />
    <glyph glyph-name="onesuperior" unicode="&#xb9;" horiz-adv-x="123" 
d="M23 422zM45 422v336h-22v45h10q17 0 17 19v11h41v-411h-46z" />
    <glyph glyph-name="ordmasculine" unicode="&#xba;" horiz-adv-x="220" 
d="M46 578q0 68 64 68t64 -68v-215q0 -68 -64 -68t-64 68v215zM129 576q0 11 -4 17t-15 6q-19 0 -19 -23v-212q0 -22 19 -22q11 0 15 5.5t4 16.5v212z" />
    <glyph glyph-name="guillemotright" unicode="&#xbb;" horiz-adv-x="391" 
d="M19 178zM214 178v68l120 88l-120 84v65l157 -112v-75zM19 178v68l120 88l-120 84v65l157 -112v-75z" />
    <glyph glyph-name="onequarter" unicode="&#xbc;" horiz-adv-x="478" 
d="M31 0zM31 0l362 823h51l-361 -823h-52zM99 422v336h-22v45h10q17 0 17 19v11h41v-411h-46zM378 115q0 61 1 99t2 69q-9 -31 -20 -69t-30 -99h47zM378 -10v82h-88v40l88 289h43v-286h20v-43h-20v-82h-43z" />
    <glyph glyph-name="onehalf" unicode="&#xbd;" horiz-adv-x="479" 
d="M31 0zM31 0l362 823h51l-361 -823h-52zM99 422v336h-22v45h10q17 0 17 19v11h41v-411h-46zM314 -10v75q0 18 1.5 32t6 26.5t12 26.5t19.5 32q14 21 23 35t14 25.5t7 22.5t2 26v44q0 24 -20 24q-19 0 -19 -24v-72h-46v71q0 38 16 55t49 17q66 0 66 -72v-48q0 -38 -13 -64
t-30 -51q-14 -21 -22.5 -34.5t-12.5 -24.5t-5 -21.5t-1 -25.5v-29h84v-46h-131z" />
    <glyph glyph-name="threequarters" unicode="&#xbe;" horiz-adv-x="478" 
d="M31 0zM31 0l362 823h51l-361 -823h-52zM358 115q0 61 1 99t2 69q-9 -31 -20 -69t-30 -99h47zM358 -10v82h-88v40l88 289h43v-286h20v-43h-20v-82h-43zM135 586q0 24 -20 24h-21v43h23q11 0 14 6.5t3 17.5v90q0 24 -19 24t-19 -24v-73h-46v73q0 38 16 54.5t49 16.5
t48.5 -17t15.5 -55v-91q0 -32 -27 -44q14 -4 21 -14t7 -30v-100q0 -32 -16 -51t-49 -19t-49.5 19t-16.5 51v81h47v-81q0 -24 19 -24q20 0 20 24v99z" />
    <glyph glyph-name="questiondown" unicode="&#xbf;" horiz-adv-x="299" 
d="M24 0zM195.007 516.012v-110.993q0 -28.999 -2.5 -51.4971q-2.5 -22.499 -8.5 -40.998q-5.99902 -18.498 -15.999 -35.4971q-9.99902 -16.999 -24.998 -33.998q-14.999 -15.999 -23.499 -28.498q-8.49902 -12.5 -12.999 -27.499t-6 -34.998
q-1.49902 -19.998 -1.49902 -51.9961v-86.9951q0 -64.9961 50.9961 -64.9961q52.9971 0 52.9971 63.9961v144.991h72.9961v-143.991q0 -72.9951 -29.999 -107.493q-29.998 -34.498 -95.9941 -34.498q-65.9951 0 -95.9941 33.998q-29.998 33.998 -29.998 108.993v85.9951
q0 60.9961 11.5 97.9941q11.499 36.9971 37.4971 67.9951q17.999 19.999 27.998 33.998q10 13.999 15.499 28.498q5.5 14.499 6.5 31.498t1 42.998v112.993h70.9961zM195.007 703v-124.992h-70.9961v124.992h70.9961z" />
    <glyph glyph-name="Agrave" unicode="&#xc0;" horiz-adv-x="335" 
d="M12 0zM245 0l-18 138h-123l-18 -138h-74l113 823h89l107 -823h-76zM218 208q-13 106 -26 209.5t-25 212.5q-13 -109 -26.5 -212.5t-27.5 -209.5h105zM158 860l-134 161h88l113 -161h-67z" />
    <glyph glyph-name="Aacute" unicode="&#xc1;" horiz-adv-x="335" 
d="M12 0zM245 0l-18 138h-123l-18 -138h-74l113 823h89l107 -823h-76zM218 208q-13 106 -26 209.5t-25 212.5q-13 -109 -26.5 -212.5t-27.5 -209.5h105zM110 860l112 161h89l-135 -161h-66z" />
    <glyph glyph-name="Acircumflex" unicode="&#xc2;" horiz-adv-x="335" 
d="M12 0zM245 0l-18 138h-123l-18 -138h-74l113 823h89l107 -823h-76zM218 208q-13 106 -26 209.5t-25 212.5q-13 -109 -26.5 -212.5t-27.5 -209.5h105zM248 860l-79 123l-82 -123h-64l108 161h80l104 -161h-67z" />
    <glyph glyph-name="Atilde" unicode="&#xc3;" horiz-adv-x="335" 
d="M12 0zM245 0l-18 138h-123l-18 -138h-74l113 823h89l107 -823h-76zM218 208q-13 106 -26 209.5t-25 212.5q-13 -109 -26.5 -212.5t-27.5 -209.5h105zM286 917q-9 -11 -24.5 -18.5t-36.5 -7.5q-17 0 -32 5t-29.5 11.5t-29 11.5t-30.5 5q-35 0 -57 -31v61q10 11 24.5 19
t35.5 8q18 0 33 -5t29.5 -11.5t28.5 -11.5t31 -5q33 0 57 30v-61z" />
    <glyph glyph-name="Adieresis" unicode="&#xc4;" horiz-adv-x="335" 
d="M12 0zM245 0l-18 138h-123l-18 -138h-74l113 823h89l107 -823h-76zM218 208q-13 106 -26 209.5t-25 212.5q-13 -109 -26.5 -212.5t-27.5 -209.5h105zM208 872v125h69v-125h-69zM58 872v125h69v-125h-69z" />
    <glyph glyph-name="Aring" unicode="&#xc5;" horiz-adv-x="335" 
d="M12 0zM245 0l-18 138h-123l-18 -138h-74l113 823h89l107 -823h-76zM218 208q-13 106 -26 209.5t-25 212.5q-13 -109 -26.5 -212.5t-27.5 -209.5h105zM264 941q0 -34 -24.5 -56t-72.5 -22t-72 22t-24 56q0 35 24 57.5t72 22.5t72.5 -22.5t24.5 -57.5zM224 941q0 46 -57 46
q-58 0 -58 -46q0 -45 58 -45q57 0 57 45z" />
    <glyph glyph-name="AE" unicode="&#xc6;" horiz-adv-x="462" 
d="M218 0v138h-113l-19 -138h-74l113 823h312v-77h-142v-289h101v-76h-101v-306h146v-75h-223zM218 746h-33l-71 -538h104v538z" />
    <glyph glyph-name="Ccedilla" unicode="&#xc7;" horiz-adv-x="309" 
d="M31 0zM213 302h69v-170q0 -72 -28.5 -106.5t-91.5 -34.5q-131 0 -131 139v560q0 142 131 142q120 0 120 -140v-146h-69v145q0 33 -11 48.5t-40 15.5q-54 0 -54 -64v-560q0 -65 54 -65q28 0 39.5 16t11.5 49v171zM140 -149v25h8q11 0 11 12v20h-27v72h58v-90q0 -19 -9 -29
t-30 -10h-11z" />
    <glyph glyph-name="Egrave" unicode="&#xc8;" horiz-adv-x="281" 
d="M0 0zM37 0v823h218v-77h-142v-289h100v-76h-100v-306h147v-75h-223zM130 860l-134 161h88l113 -161h-67z" />
    <glyph glyph-name="Egrave" unicode="&#x400;" horiz-adv-x="281" 
d="M0 0zM37 0v823h218v-77h-142v-289h100v-76h-100v-306h147v-75h-223zM130 860l-134 161h88l113 -161h-67z" />
    <glyph glyph-name="Eacute" unicode="&#xc9;" horiz-adv-x="281" 
d="M37 0zM37 0v823h218v-77h-142v-289h100v-76h-100v-306h147v-75h-223zM83 860l112 161h89l-135 -161h-66z" />
    <glyph glyph-name="Ecircumflex" unicode="&#xca;" horiz-adv-x="281" 
d="M0 0zM37 0v823h218v-77h-142v-289h100v-76h-100v-306h147v-75h-223zM225 860l-79 123l-82 -123h-64l108 161h80l104 -161h-67z" />
    <glyph glyph-name="Edieresis" unicode="&#xcb;" horiz-adv-x="281" 
d="M37 0zM37 0v823h218v-77h-142v-289h100v-76h-100v-306h147v-75h-223zM188 872v125h69v-125h-69zM38 872v125h69v-125h-69z" />
    <glyph glyph-name="Edieresis" unicode="&#x401;" horiz-adv-x="281" 
d="M37 0zM37 0v823h218v-77h-142v-289h100v-76h-100v-306h147v-75h-223zM188 872v125h69v-125h-69zM38 872v125h69v-125h-69z" />
    <glyph glyph-name="Igrave" unicode="&#xcc;" horiz-adv-x="155" 
d="M0 0zM39 0v823h76v-823h-76zM68 860l-134 161h88l113 -161h-67z" />
    <glyph glyph-name="Iacute" unicode="&#xcd;" horiz-adv-x="155" 
d="M20 0zM39 0v823h76v-823h-76zM20 860l112 161h89l-135 -161h-66z" />
    <glyph glyph-name="Icircumflex" unicode="&#xce;" horiz-adv-x="155" 
d="M0 0zM39 0v823h76v-823h-76zM156 860l-79 123l-82 -123h-64l108 161h80l104 -161h-67z" />
    <glyph glyph-name="Idieresis" unicode="&#xcf;" horiz-adv-x="155" 
d="M0 0zM39 0v823h76v-823h-76zM118 872v125h69v-125h-69zM-32 872v125h69v-125h-69z" />
    <glyph glyph-name="Idieresis" unicode="&#x407;" horiz-adv-x="155" 
d="M0 0zM39 0v823h76v-823h-76zM118 872v125h69v-125h-69zM-32 872v125h69v-125h-69z" />
    <glyph glyph-name="Idieresis" unicode="&#x3aa;" horiz-adv-x="155" 
d="M0 0zM39 0v823h76v-823h-76zM118 872v125h69v-125h-69zM-32 872v125h69v-125h-69z" />
    <glyph glyph-name="Eth" unicode="&#xd0;" horiz-adv-x="325" 
d="M35 0v381h-25v76h25v366h129q64 0 96.5 -37.5t32.5 -103.5v-542q0 -140 -129 -140h-129zM218 682q0 26 -12.5 45t-41.5 19h-53v-289h60v-76h-60v-306h53q54 0 54 65v542z" />
    <glyph glyph-name="Eth" unicode="&#x110;" horiz-adv-x="325" 
d="M35 0v381h-25v76h25v366h129q64 0 96.5 -37.5t32.5 -103.5v-542q0 -140 -129 -140h-129zM218 682q0 26 -12.5 45t-41.5 19h-53v-289h60v-76h-60v-306h53q54 0 54 65v542z" />
    <glyph glyph-name="Ntilde" unicode="&#xd1;" horiz-adv-x="354" 
d="M35 0zM242 0l-142 601q1 -94 1 -182.5v-182.5v-236h-66v823h91l126 -603q-1 85 -1 166.5v166.5v270h67v-823h-76zM295 917q-9 -11 -24.5 -18.5t-36.5 -7.5q-17 0 -32 5t-29.5 11.5t-29 11.5t-30.5 5q-35 0 -57 -31v61q10 11 24.5 19t35.5 8q18 0 33 -5t29.5 -11.5
t28.5 -11.5t31 -5q33 0 57 30v-61z" />
    <glyph glyph-name="Ograve" unicode="&#xd2;" horiz-adv-x="321" 
d="M17 0zM31 692q0 140 129 140q130 0 130 -140v-561q0 -140 -130 -140q-129 0 -129 140v561zM214 692q0 63 -54 63q-53 0 -53 -63v-561q0 -65 53 -65q54 0 54 65v561zM151 860l-134 161h88l113 -161h-67z" />
    <glyph glyph-name="Oacute" unicode="&#xd3;" horiz-adv-x="321" 
d="M31 0zM31 692q0 140 129 140q130 0 130 -140v-561q0 -140 -130 -140q-129 0 -129 140v561zM214 692q0 63 -54 63q-53 0 -53 -63v-561q0 -65 53 -65q54 0 54 65v561zM103 860l112 161h89l-135 -161h-66z" />
    <glyph glyph-name="Ocircumflex" unicode="&#xd4;" horiz-adv-x="321" 
d="M15 0zM31 692q0 140 129 140q130 0 130 -140v-561q0 -140 -130 -140q-129 0 -129 140v561zM214 692q0 63 -54 63q-53 0 -53 -63v-561q0 -65 53 -65q54 0 54 65v561zM240 860l-79 123l-82 -123h-64l108 161h80l104 -161h-67z" />
    <glyph glyph-name="Otilde" unicode="&#xd5;" horiz-adv-x="321" 
d="M31 0zM31 692q0 140 129 140q130 0 130 -140v-561q0 -140 -130 -140q-129 0 -129 140v561zM214 692q0 63 -54 63q-53 0 -53 -63v-561q0 -65 53 -65q54 0 54 65v561zM279 917q-9 -11 -24.5 -18.5t-36.5 -7.5q-17 0 -32 5t-29.5 11.5t-29 11.5t-30.5 5q-35 0 -57 -31v61
q10 11 24.5 19t35.5 8q18 0 33 -5t29.5 -11.5t28.5 -11.5t31 -5q33 0 57 30v-61z" />
    <glyph glyph-name="Odieresis" unicode="&#xd6;" horiz-adv-x="321" 
d="M31 0zM31 692q0 140 129 140q130 0 130 -140v-561q0 -140 -130 -140q-129 0 -129 140v561zM214 692q0 63 -54 63q-53 0 -53 -63v-561q0 -65 53 -65q54 0 54 65v561zM201 872v125h69v-125h-69zM51 872v125h69v-125h-69z" />
    <glyph glyph-name="multiply" unicode="&#xd7;" horiz-adv-x="463" 
d="M350 261l-119 118l-118 -118l-39 41l117 118l-117 117l40 40l117 -117l118 117l40 -40l-117 -117l117 -118z" />
    <glyph glyph-name="Oslash" unicode="&#xd8;" horiz-adv-x="321" 
d="M31 692q0 140 129 140q36 0 69 -14l22 99h39l-28 -127q28 -34 28 -98v-561q0 -140 -130 -140q-36 0 -69 14l-22 -99h-38l27 126q-27 36 -27 99v561zM214 568l-103 -469q12 -33 49 -33q54 0 54 65v437zM107 255l102 469q-12 31 -49 31q-53 0 -53 -63v-437z" />
    <glyph glyph-name="Ugrave" unicode="&#xd9;" horiz-adv-x="326" 
d="M20 0zM216 823h76v-692q0 -140 -129 -140t-129 140v692h76v-692q0 -65 53 -65t53 65v692zM154 860l-134 161h88l113 -161h-67z" />
    <glyph glyph-name="Uacute" unicode="&#xda;" horiz-adv-x="326" 
d="M34 0zM216 823h76v-692q0 -140 -129 -140t-129 140v692h76v-692q0 -65 53 -65t53 65v692zM105 860l112 161h89l-135 -161h-66z" />
    <glyph glyph-name="Ucircumflex" unicode="&#xdb;" horiz-adv-x="326" 
d="M17 0zM216 823h76v-692q0 -140 -129 -140t-129 140v692h76v-692q0 -65 53 -65t53 65v692zM242 860l-79 123l-82 -123h-64l108 161h80l104 -161h-67z" />
    <glyph glyph-name="Udieresis" unicode="&#xdc;" horiz-adv-x="326" 
d="M34 0zM216 823h76v-692q0 -140 -129 -140t-129 140v692h76v-692q0 -65 53 -65t53 65v692zM203 872v125h69v-125h-69zM53 872v125h69v-125h-69z" />
    <glyph glyph-name="Yacute" unicode="&#xdd;" horiz-adv-x="332" 
d="M9 0zM125 0v369l-116 454h80q10 -41 21.5 -90.5t23 -97.5t20.5 -88.5t13 -62.5q4 22 13 62.5t20.5 88.5t24 97.5t23.5 90.5h74l-120 -454v-369h-77zM109 860l112 161h89l-135 -161h-66z" />
    <glyph glyph-name="Thorn" unicode="&#xde;" horiz-adv-x="328" 
d="M234 529q0 71 -66 71h-55v-397h56q65 0 65 73v253zM37 0v823h76v-146h55q72 0 107 -36t35 -112v-253q0 -72 -34.5 -110t-106.5 -38h-56v-128h-76z" />
    <glyph glyph-name="germandbls" unicode="&#xdf;" horiz-adv-x="328" 
d="M153 63q10 -3 29 -3q27 0 38.5 13t11.5 45v223q0 31 -13.5 43t-37.5 12h-41v66h21q16 0 26 9t10 38v198q0 23 -10 39t-36 16t-36.5 -16t-10.5 -39v-707h-67v709q0 60 28 91.5t86 31.5q57 0 85 -31.5t28 -91.5v-200q0 -29 -10.5 -45.5t-21.5 -21.5q29 -7 48.5 -31.5
t19.5 -72.5v-220q0 -66 -25 -96.5t-88 -30.5q-26 0 -35 3z" />
    <glyph glyph-name="agrave" unicode="&#xe0;" horiz-adv-x="285" 
d="M0 0zM190 0q-4 12 -4 37q-25 -46 -74 -46q-42 0 -65.5 23t-23.5 75v91q0 45 12.5 75.5t34 51.5t50.5 35.5t62 28.5v135q0 26 -9.5 40t-35.5 14q-27 0 -36 -14t-9 -40v-130h-61v131q0 61 25.5 91.5t82.5 30.5q109 0 109 -122v-436q0 -22 1 -41t4 -30h-63zM182 316
q-30 -11 -48.5 -24t-28 -29.5t-12.5 -38t-3 -49.5v-66q0 -51 47 -51q15 0 27.5 9t17.5 30v219zM132 656l-134 161h88l113 -161h-67z" />
    <glyph glyph-name="aacute" unicode="&#xe1;" horiz-adv-x="285" 
d="M23 0zM190 0q-4 12 -4 37q-25 -46 -74 -46q-42 0 -65.5 23t-23.5 75v91q0 45 12.5 75.5t34 51.5t50.5 35.5t62 28.5v135q0 26 -9.5 40t-35.5 14q-27 0 -36 -14t-9 -40v-130h-61v131q0 61 25.5 91.5t82.5 30.5q109 0 109 -122v-436q0 -22 1 -41t4 -30h-63zM182 316
q-30 -11 -48.5 -24t-28 -29.5t-12.5 -38t-3 -49.5v-66q0 -51 47 -51q15 0 27.5 9t17.5 30v219zM85 656l112 161h89l-135 -161h-66z" />
    <glyph glyph-name="acircumflex" unicode="&#xe2;" horiz-adv-x="285" 
d="M0 0zM190 0q-4 12 -4 37q-25 -46 -74 -46q-42 0 -65.5 23t-23.5 75v91q0 45 12.5 75.5t34 51.5t50.5 35.5t62 28.5v135q0 26 -9.5 40t-35.5 14q-27 0 -36 -14t-9 -40v-130h-61v131q0 61 25.5 91.5t82.5 30.5q109 0 109 -122v-436q0 -22 1 -41t4 -30h-63zM182 316
q-30 -11 -48.5 -24t-28 -29.5t-12.5 -38t-3 -49.5v-66q0 -51 47 -51q15 0 27.5 9t17.5 30v219zM221 656l-79 123l-82 -123h-64l108 161h80l104 -161h-67z" />
    <glyph glyph-name="atilde" unicode="&#xe3;" horiz-adv-x="285" 
d="M23 0zM190 0q-4 12 -4 37q-25 -46 -74 -46q-42 0 -65.5 23t-23.5 75v91q0 45 12.5 75.5t34 51.5t50.5 35.5t62 28.5v135q0 26 -9.5 40t-35.5 14q-27 0 -36 -14t-9 -40v-130h-61v131q0 61 25.5 91.5t82.5 30.5q109 0 109 -122v-436q0 -22 1 -41t4 -30h-63zM182 316
q-30 -11 -48.5 -24t-28 -29.5t-12.5 -38t-3 -49.5v-66q0 -51 47 -51q15 0 27.5 9t17.5 30v219zM262 713q-9 -11 -24.5 -18.5t-36.5 -7.5q-17 0 -32 5t-29.5 11.5t-29 11.5t-30.5 5q-35 0 -57 -31v61q10 11 24.5 19t35.5 8q18 0 33 -5t29.5 -11.5t28.5 -11.5t31 -5
q33 0 57 30v-61z" />
    <glyph glyph-name="adieresis" unicode="&#xe4;" horiz-adv-x="285" 
d="M23 0zM190 0q-4 12 -4 37q-25 -46 -74 -46q-42 0 -65.5 23t-23.5 75v91q0 45 12.5 75.5t34 51.5t50.5 35.5t62 28.5v135q0 26 -9.5 40t-35.5 14q-27 0 -36 -14t-9 -40v-130h-61v131q0 61 25.5 91.5t82.5 30.5q109 0 109 -122v-436q0 -22 1 -41t4 -30h-63zM182 316
q-30 -11 -48.5 -24t-28 -29.5t-12.5 -38t-3 -49.5v-66q0 -51 47 -51q15 0 27.5 9t17.5 30v219zM183 668v125h69v-125h-69zM33 668v125h69v-125h-69z" />
    <glyph glyph-name="aring" unicode="&#xe5;" horiz-adv-x="285" 
d="M23 0zM190 0q-4 12 -4 37q-25 -46 -74 -46q-42 0 -65.5 23t-23.5 75v91q0 45 12.5 75.5t34 51.5t50.5 35.5t62 28.5v135q0 26 -9.5 40t-35.5 14q-27 0 -36 -14t-9 -40v-130h-61v131q0 61 25.5 91.5t82.5 30.5q109 0 109 -122v-436q0 -22 1 -41t4 -30h-63zM182 316
q-30 -11 -48.5 -24t-28 -29.5t-12.5 -38t-3 -49.5v-66q0 -51 47 -51q15 0 27.5 9t17.5 30v219zM238 737q0 -34 -24.5 -56t-72.5 -22t-72 22t-24 56q0 35 24 57.5t72 22.5t72.5 -22.5t24.5 -57.5zM198 737q0 46 -57 46q-58 0 -58 -46q0 -45 58 -45q57 0 57 45z" />
    <glyph glyph-name="ae" unicode="&#xe6;" horiz-adv-x="433" 
d="M337 252h65v-136q0 -125 -111 -125q-34 0 -55 12t-34 36q-11 -20 -31 -34t-56 -14q-42 0 -67 23t-25 75v91q0 45 12.5 75.5t34 51.5t50.5 35.5t62 28.5v136q0 26 -9.5 39.5t-35.5 13.5t-35.5 -13.5t-9.5 -39.5v-131h-61v131q0 61 25.5 91.5t82.5 30.5q51 0 78 -29
q26 29 74 29q111 0 111 -127v-199h-154v-192q0 -50 43 -50q46 0 46 55v136zM182 316q-30 -11 -48.5 -24t-28 -29.5t-12.5 -38t-3 -49.5v-60q0 -29 10.5 -43t36.5 -14q15 0 27.5 9t17.5 30v219zM337 502q0 55 -46 55q-43 0 -43 -55v-149h89v149z" />
    <glyph glyph-name="ccedilla" unicode="&#xe7;" horiz-adv-x="284" 
d="M31 0zM190 253h64v-138q0 -57 -26.5 -90.5t-83.5 -33.5t-85 34.5t-28 91.5v384q0 57 28 92.5t85 35.5t82.5 -35t25.5 -92v-134h-62v135q0 55 -46 55q-23 0 -34.5 -15t-11.5 -41v-385q0 -56 46 -56t46 55v137zM124 -149v25h8q11 0 11 12v20h-27v72h58v-90q0 -19 -9 -29
t-30 -10h-11z" />
    <glyph glyph-name="egrave" unicode="&#xe8;" horiz-adv-x="280" 
d="M0 0zM184 502q0 55 -46 55q-43 0 -43 -55v-149h89v149zM184 252h65v-136q0 -125 -111 -125q-107 0 -107 125v386q0 63 27.5 95t79.5 32q111 0 111 -127v-199h-154v-187q0 -55 43 -55q46 0 46 55v136zM130 656l-134 161h88l113 -161h-67z" />
    <glyph glyph-name="egrave" unicode="&#x450;" horiz-adv-x="280" 
d="M0 0zM184 502q0 55 -46 55q-43 0 -43 -55v-149h89v149zM184 252h65v-136q0 -125 -111 -125q-107 0 -107 125v386q0 63 27.5 95t79.5 32q111 0 111 -127v-199h-154v-187q0 -55 43 -55q46 0 46 55v136zM130 656l-134 161h88l113 -161h-67z" />
    <glyph glyph-name="eacute" unicode="&#xe9;" horiz-adv-x="280" 
d="M31 0zM184 502q0 55 -46 55q-43 0 -43 -55v-149h89v149zM184 252h65v-136q0 -125 -111 -125q-107 0 -107 125v386q0 63 27.5 95t79.5 32q111 0 111 -127v-199h-154v-187q0 -55 43 -55q46 0 46 55v136zM82 656l112 161h89l-135 -161h-66z" />
    <glyph glyph-name="ecircumflex" unicode="&#xea;" horiz-adv-x="280" 
d="M0 0zM184 502q0 55 -46 55q-43 0 -43 -55v-149h89v149zM184 252h65v-136q0 -125 -111 -125q-107 0 -107 125v386q0 63 27.5 95t79.5 32q111 0 111 -127v-199h-154v-187q0 -55 43 -55q46 0 46 55v136zM219 656l-79 123l-82 -123h-64l108 161h80l104 -161h-67z" />
    <glyph glyph-name="edieresis" unicode="&#xeb;" horiz-adv-x="280" 
d="M30 0zM184 502q0 55 -46 55q-43 0 -43 -55v-149h89v149zM184 252h65v-136q0 -125 -111 -125q-107 0 -107 125v386q0 63 27.5 95t79.5 32q111 0 111 -127v-199h-154v-187q0 -55 43 -55q46 0 46 55v136zM180 668v125h69v-125h-69zM30 668v125h69v-125h-69z" />
    <glyph glyph-name="edieresis" unicode="&#x451;" horiz-adv-x="280" 
d="M30 0zM184 502q0 55 -46 55q-43 0 -43 -55v-149h89v149zM184 252h65v-136q0 -125 -111 -125q-107 0 -107 125v386q0 63 27.5 95t79.5 32q111 0 111 -127v-199h-154v-187q0 -55 43 -55q46 0 46 55v136zM180 668v125h69v-125h-69zM30 668v125h69v-125h-69z" />
    <glyph glyph-name="igrave" unicode="&#xec;" horiz-adv-x="171" 
d="M0 0zM88 656l-134 161h88l113 -161h-67zM63 0v619h69v-619h-69z" />
    <glyph glyph-name="iacute" unicode="&#xed;" horiz-adv-x="174" 
d="M16 0zM16 656l112 161h89l-135 -161h-66zM39 0v619h69v-619h-69z" />
    <glyph glyph-name="icircumflex" unicode="&#xee;" horiz-adv-x="231" 
d="M0 0zM81 0v619h69v-619h-69zM194 656l-79 123l-82 -123h-64l108 161h80l104 -161h-67z" />
    <glyph glyph-name="idieresis" unicode="&#xef;" horiz-adv-x="219" 
d="M0 0zM150 668v125h69v-125h-69zM0 668v125h69v-125h-69zM75 0v619h69v-619h-69z" />
    <glyph glyph-name="idieresis" unicode="&#x457;" horiz-adv-x="219" 
d="M0 0zM150 668v125h69v-125h-69zM0 668v125h69v-125h-69zM75 0v619h69v-619h-69z" />
    <glyph glyph-name="eth" unicode="&#xf0;" horiz-adv-x="321" 
d="M31 398q0 66 30.5 94t82.5 28q27 0 46.5 -12t29.5 -32v115q0 64 -15 102l-103 -128l-27 23l110 137q-27 28 -84 30v77q45 0 77.5 -12.5t54.5 -35.5l44 54l27 -23l-49 -60q19 -34 27 -80t8 -103v-438q0 -69 -32 -106t-98 -37q-64 0 -96.5 37t-32.5 106v264zM213 379l-4 24
t-7 21t-14.5 15t-25.5 6q-55 0 -55 -60v-242q0 -35 12 -56t41 -21q53 0 53 65v248z" />
    <glyph glyph-name="ntilde" unicode="&#xf1;" 
d="M32 0zM199 0v511q0 27 -9 38.5t-31 11.5q-15 0 -30 -9t-23 -29v-523h-69v619h58q3 -23 3 -47q14 26 37 41.5t52 15.5q42 0 61.5 -27t19.5 -87v-515h-69zM271 713q-9 -11 -24.5 -18.5t-36.5 -7.5q-17 0 -32 5t-29.5 11.5t-29 11.5t-30.5 5q-35 0 -57 -31v61q10 11 24.5 19
t35.5 8q18 0 33 -5t29.5 -11.5t28.5 -11.5t31 -5q33 0 57 30v-61z" />
    <glyph glyph-name="ograve" unicode="&#xf2;" horiz-adv-x="291" 
d="M1 0zM31 505q0 60 28 92t86 32q57 0 85.5 -32t28.5 -92v-391q0 -60 -28.5 -91.5t-85.5 -31.5q-58 0 -86 31.5t-28 91.5v391zM192 503q0 26 -9.5 40.5t-37.5 14.5t-37.5 -14.5t-9.5 -40.5v-389q0 -26 9.5 -39.5t37.5 -13.5t37.5 14t9.5 41v387zM135 656l-134 161h88
l113 -161h-67z" />
    <glyph glyph-name="oacute" unicode="&#xf3;" horiz-adv-x="291" 
d="M31 0zM31 505q0 60 28 92t86 32q57 0 85.5 -32t28.5 -92v-391q0 -60 -28.5 -91.5t-85.5 -31.5q-58 0 -86 31.5t-28 91.5v391zM192 503q0 26 -9.5 40.5t-37.5 14.5t-37.5 -14.5t-9.5 -40.5v-389q0 -26 9.5 -39.5t37.5 -13.5t37.5 14t9.5 41v387zM88 656l112 161h89
l-135 -161h-66z" />
    <glyph glyph-name="ocircumflex" unicode="&#xf4;" horiz-adv-x="291" 
d="M0 0zM31 505q0 60 28 92t86 32q57 0 85.5 -32t28.5 -92v-391q0 -60 -28.5 -91.5t-85.5 -31.5q-58 0 -86 31.5t-28 91.5v391zM192 503q0 26 -9.5 40.5t-37.5 14.5t-37.5 -14.5t-9.5 -40.5v-389q0 -26 9.5 -39.5t37.5 -13.5t37.5 14t9.5 41v387zM224 656l-79 123l-82 -123
h-64l108 161h80l104 -161h-67z" />
    <glyph glyph-name="otilde" unicode="&#xf5;" horiz-adv-x="291" 
d="M26 0zM31 505q0 60 28 92t86 32q57 0 85.5 -32t28.5 -92v-391q0 -60 -28.5 -91.5t-85.5 -31.5q-58 0 -86 31.5t-28 91.5v391zM192 503q0 26 -9.5 40.5t-37.5 14.5t-37.5 -14.5t-9.5 -40.5v-389q0 -26 9.5 -39.5t37.5 -13.5t37.5 14t9.5 41v387zM265 713
q-9 -11 -24.5 -18.5t-36.5 -7.5q-17 0 -32 5t-29.5 11.5t-29 11.5t-30.5 5q-35 0 -57 -31v61q10 11 24.5 19t35.5 8q18 0 33 -5t29.5 -11.5t28.5 -11.5t31 -5q33 0 57 30v-61z" />
    <glyph glyph-name="odieresis" unicode="&#xf6;" horiz-adv-x="291" 
d="M31 0zM31 505q0 60 28 92t86 32q57 0 85.5 -32t28.5 -92v-391q0 -60 -28.5 -91.5t-85.5 -31.5q-58 0 -86 31.5t-28 91.5v391zM192 503q0 26 -9.5 40.5t-37.5 14.5t-37.5 -14.5t-9.5 -40.5v-389q0 -26 9.5 -39.5t37.5 -13.5t37.5 14t9.5 41v387zM186 668v125h69v-125h-69z
M36 668v125h69v-125h-69z" />
    <glyph glyph-name="divide" unicode="&#xf7;" horiz-adv-x="463" 
d="M37 192zM37 391v57h389v-57h-389zM195 192v125h71v-125h-71zM195 522v125h71v-125h-71z" />
    <glyph glyph-name="oslash" unicode="&#xf8;" horiz-adv-x="291" 
d="M31 505q0 60 28 92t86 32q33 0 54 -10l22 94h38l-28 -118q28 -31 28 -90v-391q0 -60 -28.5 -91.5t-85.5 -31.5q-32 0 -54 9l-22 -94h-38l27 117q-27 31 -27 91v391zM192 428l-84 -354v-1q10 -12 37 -12q28 0 37.5 14t9.5 41v312zM98 191l83 353q-11 14 -36 14
q-28 0 -37.5 -14.5t-9.5 -40.5v-312z" />
    <glyph glyph-name="ugrave" unicode="&#xf9;" horiz-adv-x="301" 
d="M6 0zM204 0q-1 11 -1.5 22t-0.5 23q-14 -25 -36.5 -38.5t-51.5 -13.5q-80 0 -80 107v519h69v-508q0 -28 9 -39t29 -11q16 0 30.5 8.5t22.5 28.5v521h69v-619h-59zM140 656l-134 161h88l113 -161h-67z" />
    <glyph glyph-name="uacute" unicode="&#xfa;" horiz-adv-x="301" 
d="M34 0zM204 0q-1 11 -1.5 22t-0.5 23q-14 -25 -36.5 -38.5t-51.5 -13.5q-80 0 -80 107v519h69v-508q0 -28 9 -39t29 -11q16 0 30.5 8.5t22.5 28.5v521h69v-619h-59zM93 656l112 161h89l-135 -161h-66z" />
    <glyph glyph-name="ucircumflex" unicode="&#xfb;" horiz-adv-x="301" 
d="M4 0zM204 0q-1 11 -1.5 22t-0.5 23q-14 -25 -36.5 -38.5t-51.5 -13.5q-80 0 -80 107v519h69v-508q0 -28 9 -39t29 -11q16 0 30.5 8.5t22.5 28.5v521h69v-619h-59zM229 656l-79 123l-82 -123h-64l108 161h80l104 -161h-67z" />
    <glyph glyph-name="udieresis" unicode="&#xfc;" horiz-adv-x="301" 
d="M34 0zM204 0q-1 11 -1.5 22t-0.5 23q-14 -25 -36.5 -38.5t-51.5 -13.5q-80 0 -80 107v519h69v-508q0 -28 9 -39t29 -11q16 0 30.5 8.5t22.5 28.5v521h69v-619h-59zM191 668v125h69v-125h-69zM41 668v125h69v-125h-69z" />
    <glyph glyph-name="yacute" unicode="&#xfd;" horiz-adv-x="277" 
d="M11 0zM19 -70q18 -5 34 -5q21 0 30.5 17t14.5 46l4 25l-91 606h72q5 -35 10.5 -78t10.5 -89t10.5 -92t9.5 -86t7.5 -72t5.5 -49q2 17 5.5 49t8.5 72t10.5 86t11.5 92t12.5 89t12.5 78h66l-94 -627q-5 -33 -12 -58t-19.5 -42.5t-32.5 -26.5t-50 -9q-15 0 -37 5v69zM81 656
l112 161h89l-135 -161h-66z" />
    <glyph glyph-name="thorn" unicode="&#xfe;" 
d="M37 -139v962h69v-234q11 18 30.5 29t44.5 11q48 0 69 -26.5t21 -87.5v-411q0 -63 -21 -88t-69 -25q-25 0 -44.5 10.5t-30.5 27.5v-168h-69zM203 506q0 28 -10.5 39.5t-33.5 11.5q-17 0 -31.5 -10t-21.5 -30v-415q7 -20 21.5 -30t31.5 -10q23 0 33.5 11t10.5 40v393z" />
    <glyph glyph-name="ydieresis" unicode="&#xff;" horiz-adv-x="277" 
d="M11 0zM19 -70q18 -5 34 -5q21 0 30.5 17t14.5 46l4 25l-91 606h72q5 -35 10.5 -78t10.5 -89t10.5 -92t9.5 -86t7.5 -72t5.5 -49q2 17 5.5 49t8.5 72t10.5 86t11.5 92t12.5 89t12.5 78h66l-94 -627q-5 -33 -12 -58t-19.5 -42.5t-32.5 -26.5t-50 -9q-15 0 -37 5v69z
M179 668v125h69v-125h-69zM29 668v125h69v-125h-69z" />
    <glyph glyph-name="Amacron" unicode="&#x100;" horiz-adv-x="335" 
d="M12 0zM245 0l-18 138h-123l-18 -138h-74l113 823h89l107 -823h-76zM218 208q-13 106 -26 209.5t-25 212.5q-13 -109 -26.5 -212.5t-27.5 -209.5h105zM52 904v59h230v-59h-230z" />
    <glyph glyph-name="amacron" unicode="&#x101;" horiz-adv-x="285" 
d="M23 0zM190 0q-4 12 -4 37q-25 -46 -74 -46q-42 0 -65.5 23t-23.5 75v91q0 45 12.5 75.5t34 51.5t50.5 35.5t62 28.5v135q0 26 -9.5 40t-35.5 14q-27 0 -36 -14t-9 -40v-130h-61v131q0 61 25.5 91.5t82.5 30.5q109 0 109 -122v-436q0 -22 1 -41t4 -30h-63zM182 316
q-30 -11 -48.5 -24t-28 -29.5t-12.5 -38t-3 -49.5v-66q0 -51 47 -51q15 0 27.5 9t17.5 30v219zM27 700v59h230v-59h-230z" />
    <glyph glyph-name="Abreve" unicode="&#x102;" horiz-adv-x="335" 
d="M12 0zM245 0l-18 138h-123l-18 -138h-74l113 823h89l107 -823h-76zM218 208q-13 106 -26 209.5t-25 212.5q-13 -109 -26.5 -212.5t-27.5 -209.5h105zM302 1015q0 -45 -8 -74t-24.5 -46.5t-41.5 -24t-58 -6.5q-39 0 -65 6.5t-41.5 24t-22.5 46.5t-7 74h61q0 -36 5 -58
t14.5 -33.5t23 -15t30.5 -3.5q15 0 28 3.5t23 15t15.5 33.5t5.5 58h62z" />
    <glyph glyph-name="abreve" unicode="&#x103;" horiz-adv-x="285" 
d="M9 0zM190 0q-4 12 -4 37q-25 -46 -74 -46q-42 0 -65.5 23t-23.5 75v91q0 45 12.5 75.5t34 51.5t50.5 35.5t62 28.5v135q0 26 -9.5 40t-35.5 14q-27 0 -36 -14t-9 -40v-130h-61v131q0 61 25.5 91.5t82.5 30.5q109 0 109 -122v-436q0 -22 1 -41t4 -30h-63zM182 316
q-30 -11 -48.5 -24t-28 -29.5t-12.5 -38t-3 -49.5v-66q0 -51 47 -51q15 0 27.5 9t17.5 30v219zM277 811q0 -45 -8 -74t-24.5 -46.5t-41.5 -24t-58 -6.5q-39 0 -65 6.5t-41.5 24t-22.5 46.5t-7 74h61q0 -36 5 -58t14.5 -33.5t23 -15t30.5 -3.5q15 0 28 3.5t23 15t15.5 33.5
t5.5 58h62z" />
    <glyph glyph-name="Aogonek" unicode="&#x104;" horiz-adv-x="335" 
d="M350 -49q0 -48 -24 -74t-87 -26q-36 0 -59.5 17.5t-23.5 50.5q0 29 22 50t67 29l-18 140h-123l-18 -138h-74l113 823h89l107 -823q-55 -8 -85.5 -25t-30.5 -43q0 -11 8.5 -22t29.5 -11q29 0 39 14.5t10 37.5v11h58v-11zM218 208q-13 106 -26 209.5t-25 212.5
q-13 -109 -26.5 -212.5t-27.5 -209.5h105z" />
    <glyph glyph-name="aogonek" unicode="&#x105;" horiz-adv-x="285" 
d="M282 -49q0 -48 -24 -74t-87 -26q-36 0 -59.5 17.5t-23.5 50.5q0 30 25.5 52t76.5 29q-2 7 -3 17t-1 20q-25 -46 -74 -46q-42 0 -65.5 23t-23.5 75v91q0 45 12.5 75.5t34 51.5t50.5 35.5t62 28.5v135q0 26 -9.5 40t-35.5 14q-27 0 -36 -14t-9 -40v-130h-61v131
q0 61 25.5 91.5t82.5 30.5q109 0 109 -122v-436q0 -22 1 -41t4 -30q-55 -8 -85.5 -25t-30.5 -43q0 -11 8.5 -22t29.5 -11q29 0 39 14.5t10 37.5v11h58v-11zM182 316q-30 -11 -48.5 -24t-28 -29.5t-12.5 -38t-3 -49.5v-66q0 -51 47 -51q15 0 27.5 9t17.5 30v219z" />
    <glyph glyph-name="Cacute" unicode="&#x106;" horiz-adv-x="309" 
d="M31 0zM213 302h69v-170q0 -72 -28.5 -106.5t-91.5 -34.5q-131 0 -131 139v560q0 142 131 142q120 0 120 -140v-146h-69v145q0 33 -11 48.5t-40 15.5q-54 0 -54 -64v-560q0 -65 54 -65q28 0 39.5 16t11.5 49v171zM97 860l112 161h89l-135 -161h-66z" />
    <glyph glyph-name="cacute" unicode="&#x107;" horiz-adv-x="284" 
d="M31 0zM190 253h64v-138q0 -57 -26.5 -90.5t-83.5 -33.5t-85 34.5t-28 91.5v384q0 57 28 92.5t85 35.5t82.5 -35t25.5 -92v-134h-62v135q0 55 -46 55q-23 0 -34.5 -15t-11.5 -41v-385q0 -56 46 -56t46 55v137zM84 656l112 161h89l-135 -161h-66z" />
    <glyph glyph-name="Cdotaccent" unicode="&#x10a;" horiz-adv-x="309" 
d="M31 0zM213 302h69v-170q0 -72 -28.5 -106.5t-91.5 -34.5q-131 0 -131 139v560q0 142 131 142q120 0 120 -140v-146h-69v145q0 33 -11 48.5t-40 15.5q-54 0 -54 -64v-560q0 -65 54 -65q28 0 39.5 16t11.5 49v171zM123 872v125h69v-125h-69z" />
    <glyph glyph-name="cdotaccent" unicode="&#x10b;" horiz-adv-x="284" 
d="M31 0zM190 253h64v-138q0 -57 -26.5 -90.5t-83.5 -33.5t-85 34.5t-28 91.5v384q0 57 28 92.5t85 35.5t82.5 -35t25.5 -92v-134h-62v135q0 55 -46 55q-23 0 -34.5 -15t-11.5 -41v-385q0 -56 46 -56t46 55v137zM107 668v125h69v-125h-69z" />
    <glyph glyph-name="Ccaron" unicode="&#x10c;" horiz-adv-x="309" 
d="M10 0zM213 302h69v-170q0 -72 -28.5 -106.5t-91.5 -34.5q-131 0 -131 139v560q0 142 131 142q120 0 120 -140v-146h-69v145q0 33 -11 48.5t-40 15.5q-54 0 -54 -64v-560q0 -65 54 -65q28 0 39.5 16t11.5 49v171zM114 860l-104 161h67l80 -123l81 123h64l-108 -161h-80z
" />
    <glyph glyph-name="ccaron" unicode="&#x10d;" horiz-adv-x="284" 
d="M0 0zM190 253h64v-138q0 -57 -26.5 -90.5t-83.5 -33.5t-85 34.5t-28 91.5v384q0 57 28 92.5t85 35.5t82.5 -35t25.5 -92v-134h-62v135q0 55 -46 55q-23 0 -34.5 -15t-11.5 -41v-385q0 -56 46 -56t46 55v137zM99 656l-104 161h67l80 -123l81 123h64l-108 -161h-80z" />
    <glyph glyph-name="Dcaron" unicode="&#x10e;" horiz-adv-x="326" 
d="M13 0zM219 681q0 31 -13.5 48t-40.5 17h-52v-671h52q54 0 54 65v541zM37 0v823h128q66 0 98 -37.5t32 -103.5v-542q0 -140 -130 -140h-128zM117 860l-104 161h67l80 -123l81 123h64l-108 -161h-80z" />
    <glyph glyph-name="dcaron" unicode="&#x10f;" horiz-adv-x="382" 
d="M31 0zM197 518q-17 41 -54 41q-23 0 -33 -11.5t-10 -39.5v-390q0 -29 10 -40.5t33 -11.5q37 0 54 41v411zM207 0q-1 11 -1.5 22.5t-0.5 23.5q-11 -25 -31.5 -39t-54.5 -14q-88 0 -88 116v406q0 61 21.5 87.5t69.5 26.5q24 0 43.5 -11t31.5 -29v234h68v-823h-58zM319 638
v33h6q17 0 17 18v31h-33v103h72v-129q0 -26 -12.5 -41t-41.5 -15h-8z" />
    <glyph glyph-name="dmacron" unicode="&#x111;" 
d="M207 0q-1 11 -1.5 22.5t-0.5 24.5q-11 -26 -31.5 -39.5t-54.5 -13.5q-43 0 -65.5 27.5t-22.5 87.5v406q0 63 21.5 88.5t69.5 25.5q26 0 44.5 -11t30.5 -28v98h-131v60h131v75h69v-75h30v-60h-30v-688h-59zM197 519q-8 20 -22.5 30t-31.5 10q-22 0 -32.5 -11.5
t-10.5 -39.5v-389q0 -29 10.5 -40.5t32.5 -11.5q17 0 31.5 10t22.5 30v412z" />
    <glyph glyph-name="Emacron" unicode="&#x112;" horiz-adv-x="281" 
d="M25 0zM37 0v823h218v-77h-142v-289h100v-76h-100v-306h147v-75h-223zM25 904v59h230v-59h-230z" />
    <glyph glyph-name="emacron" unicode="&#x113;" horiz-adv-x="280" 
d="M25 0zM184 502q0 55 -46 55q-43 0 -43 -55v-149h89v149zM184 252h65v-136q0 -125 -111 -125q-107 0 -107 125v386q0 63 27.5 95t79.5 32q111 0 111 -127v-199h-154v-187q0 -55 43 -55q46 0 46 55v136zM25 700v59h230v-59h-230z" />
    <glyph glyph-name="Ebreve" unicode="&#x114;" horiz-adv-x="281" 
d="M10 0zM37 0v823h218v-77h-142v-289h100v-76h-100v-306h147v-75h-223zM278 1015q0 -45 -8 -74t-24.5 -46.5t-41.5 -24t-58 -6.5q-39 0 -65 6.5t-41.5 24t-22.5 46.5t-7 74h61q0 -36 5 -58t14.5 -33.5t23 -15t30.5 -3.5q15 0 28 3.5t23 15t15.5 33.5t5.5 58h62z" />
    <glyph glyph-name="ebreve" unicode="&#x115;" horiz-adv-x="280" 
d="M6 0zM184 502q0 55 -46 55q-43 0 -43 -55v-149h89v149zM184 252h65v-136q0 -125 -111 -125q-107 0 -107 125v386q0 63 27.5 95t79.5 32q111 0 111 -127v-199h-154v-187q0 -55 43 -55q46 0 46 55v136zM274 811q0 -45 -8 -74t-24.5 -46.5t-41.5 -24t-58 -6.5q-39 0 -65 6.5
t-41.5 24t-22.5 46.5t-7 74h61q0 -36 5 -58t14.5 -33.5t23 -15t30.5 -3.5q15 0 28 3.5t23 15t15.5 33.5t5.5 58h62z" />
    <glyph glyph-name="Edotaccent" unicode="&#x116;" horiz-adv-x="281" 
d="M37 0zM37 0v823h218v-77h-142v-289h100v-76h-100v-306h147v-75h-223zM113 872v125h69v-125h-69z" />
    <glyph glyph-name="edotaccent" unicode="&#x117;" horiz-adv-x="280" 
d="M31 0zM184 502q0 55 -46 55q-43 0 -43 -55v-149h89v149zM184 252h65v-136q0 -125 -111 -125q-107 0 -107 125v386q0 63 27.5 95t79.5 32q111 0 111 -127v-199h-154v-187q0 -55 43 -55q46 0 46 55v136zM105 668v125h69v-125h-69z" />
    <glyph glyph-name="Eogonek" unicode="&#x118;" horiz-adv-x="281" 
d="M289 -49q0 -48 -24 -74t-87 -26q-36 0 -59.5 17.5t-23.5 50.5q0 31 27 53t79 28h-164v823h218v-77h-142v-289h100v-76h-100v-306h147v-75q-55 -8 -85.5 -25t-30.5 -43q0 -11 8.5 -22t29.5 -11q29 0 39 14.5t10 37.5v11h58v-11z" />
    <glyph glyph-name="eogonek" unicode="&#x119;" horiz-adv-x="280" 
d="M248 -49q0 -48 -24 -74t-87 -26q-36 0 -59.5 17.5t-23.5 50.5q0 52 66 73q-89 11 -89 124v386q0 63 27.5 95t79.5 32q111 0 111 -127v-199h-154v-187q0 -55 43 -55q46 0 46 55v136h65v-136q0 -54 -21 -82.5t-61 -39.5q-26 -8 -45 -24t-19 -38q0 -11 8.5 -22t29.5 -11
q29 0 39 14.5t10 37.5v11h58v-11zM184 502q0 55 -46 55q-43 0 -43 -55v-149h89v149z" />
    <glyph glyph-name="Ecaron" unicode="&#x11a;" horiz-adv-x="281" 
d="M1 0zM37 0v823h218v-77h-142v-289h100v-76h-100v-306h147v-75h-223zM105 860l-104 161h67l80 -123l81 123h64l-108 -161h-80z" />
    <glyph glyph-name="ecaron" unicode="&#x11b;" horiz-adv-x="280" 
d="M0 0zM184 502q0 55 -46 55q-43 0 -43 -55v-149h89v149zM184 252h65v-136q0 -125 -111 -125q-107 0 -107 125v386q0 63 27.5 95t79.5 32q111 0 111 -127v-199h-154v-187q0 -55 43 -55q46 0 46 55v136zM98 656l-104 161h67l80 -123l81 123h64l-108 -161h-80z" />
    <glyph glyph-name="Gbreve" unicode="&#x11e;" horiz-adv-x="322" 
d="M27 0zM280 -5l-25 45q-12 -24 -39 -36.5t-61 -12.5q-27 0 -49.5 7t-39 23.5t-26 43.5t-9.5 66v560q0 69 32 105t98 36t95.5 -36t29.5 -105v-145h-68v145q0 32 -13 48t-44 16q-29 0 -41.5 -16t-12.5 -48v-560q0 -32 15 -48.5t38 -16.5q54 0 59 59v187h-63v72h136v-389h-12
zM295 1015q0 -45 -8 -74t-24.5 -46.5t-41.5 -24t-58 -6.5q-39 0 -65 6.5t-41.5 24t-22.5 46.5t-7 74h61q0 -36 5 -58t14.5 -33.5t23 -15t30.5 -3.5q15 0 28 3.5t23 15t15.5 33.5t5.5 58h62z" />
    <glyph glyph-name="gbreve" unicode="&#x11f;" 
d="M18 0zM199 68q-11 -18 -31.5 -28.5t-46.5 -10.5q-48 0 -69 26t-21 87v367q0 60 22.5 88t65.5 28q32 0 52.5 -13.5t33.5 -39.5q0 12 0.5 24t1.5 23h58v-651q0 -57 -27.5 -87t-85.5 -30q-32 0 -54 8t-35 23t-18.5 36.5t-5.5 49.5v25h62v-28q0 -54 50 -54q48 0 48 54v103z
M199 511q-8 20 -23 30.5t-33 10.5q-26 0 -35 -12.5t-9 -34.5v-361q0 -26 9.5 -37.5t34.5 -11.5q18 0 33 10t23 30v376zM286 811q0 -45 -8 -74t-24.5 -46.5t-41.5 -24t-58 -6.5q-39 0 -65 6.5t-41.5 24t-22.5 46.5t-7 74h61q0 -36 5 -58t14.5 -33.5t23 -15t30.5 -3.5
q15 0 28 3.5t23 15t15.5 33.5t5.5 58h62z" />
    <glyph glyph-name="Gdotaccent" unicode="&#x120;" horiz-adv-x="322" 
d="M31 0zM280 -5l-25 45q-12 -24 -39 -36.5t-61 -12.5q-27 0 -49.5 7t-39 23.5t-26 43.5t-9.5 66v560q0 69 32 105t98 36t95.5 -36t29.5 -105v-145h-68v145q0 32 -13 48t-44 16q-29 0 -41.5 -16t-12.5 -48v-560q0 -32 15 -48.5t38 -16.5q54 0 59 59v187h-63v72h136v-389h-12
zM126 872v125h69v-125h-69z" />
    <glyph glyph-name="gdotaccent" unicode="&#x121;" 
d="M31 0zM199 68q-11 -18 -31.5 -28.5t-46.5 -10.5q-48 0 -69 26t-21 87v367q0 60 22.5 88t65.5 28q32 0 52.5 -13.5t33.5 -39.5q0 12 0.5 24t1.5 23h58v-651q0 -57 -27.5 -87t-85.5 -30q-32 0 -54 8t-35 23t-18.5 36.5t-5.5 49.5v25h62v-28q0 -54 50 -54q48 0 48 54v103z
M199 511q-8 20 -23 30.5t-33 10.5q-26 0 -35 -12.5t-9 -34.5v-361q0 -26 9.5 -37.5t34.5 -11.5q18 0 33 10t23 30v376zM113 668v125h69v-125h-69z" />
    <glyph glyph-name="Gcommaaccent" unicode="&#x122;" horiz-adv-x="322" 
d="M31 0zM280 -5l-25 45q-12 -24 -39 -36.5t-61 -12.5q-27 0 -49.5 7t-39 23.5t-26 43.5t-9.5 66v560q0 69 32 105t98 36t95.5 -36t29.5 -105v-145h-68v145q0 32 -13 48t-44 16q-29 0 -41.5 -16t-12.5 -48v-560q0 -32 15 -48.5t38 -16.5q54 0 59 59v187h-63v72h136v-389h-12
zM141 -149v25h8q11 0 11 12v20h-27v72h58v-90q0 -19 -9 -29t-30 -10h-11z" />
    <glyph glyph-name="gcommaaccent" unicode="&#x123;" 
d="M31 0zM199 68q-11 -18 -31.5 -28.5t-46.5 -10.5q-48 0 -69 26t-21 87v367q0 60 22.5 88t65.5 28q32 0 52.5 -13.5t33.5 -39.5q0 12 0.5 24t1.5 23h58v-651q0 -57 -27.5 -87t-85.5 -30q-32 0 -54 8t-35 23t-18.5 36.5t-5.5 49.5v25h62v-28q0 -54 50 -54q48 0 48 54v103z
M199 511q-8 20 -23 30.5t-33 10.5q-26 0 -35 -12.5t-9 -34.5v-361q0 -26 9.5 -37.5t34.5 -11.5q18 0 33 10t23 30v376zM167.003 783.991v-24.999h-8q-10.999 0 -10.999 -11.999v-19.999h26.998v-71.9951h-57.9961v89.9941q0 18.999 8.99902 28.998q9 10 29.999 10h10.999z
" />
    <glyph glyph-name="Hbar" unicode="&#x126;" horiz-adv-x="332" 
d="M219 0v381h-106v-381h-76v823h76v-158h106v158h76v-823h-76zM219 456v150h-106v-150h106z" />
    <glyph glyph-name="hbar" unicode="&#x127;" 
d="M106 700v-116q14 20 35 32.5t47 12.5q42 0 61 -27t19 -87v-515h-69v511q0 27 -9 38.5t-31 11.5q-15 0 -30 -9t-23 -29v-523h-69v700h-32v59h32v64h69v-64h129v-59h-129z" />
    <glyph glyph-name="hbar" unicode="&#x45b;" 
d="M106 700v-116q14 20 35 32.5t47 12.5q42 0 61 -27t19 -87v-515h-69v511q0 27 -9 38.5t-31 11.5q-15 0 -30 -9t-23 -29v-523h-69v700h-32v59h32v64h69v-64h129v-59h-129z" />
    <glyph glyph-name="Itilde" unicode="&#x128;" horiz-adv-x="155" 
d="M0 0zM39 0v823h76v-823h-76zM197 917q-9 -11 -24.5 -18.5t-36.5 -7.5q-17 0 -32 5t-29.5 11.5t-29 11.5t-30.5 5q-35 0 -57 -31v61q10 11 24.5 19t35.5 8q18 0 33 -5t29.5 -11.5t28.5 -11.5t31 -5q33 0 57 30v-61z" />
    <glyph glyph-name="itilde" unicode="&#x129;" horiz-adv-x="214" 
d="M0 0zM73 0v619h69v-619h-69zM227 713q-9 -11 -24.5 -18.5t-36.5 -7.5q-17 0 -32 5t-29.5 11.5t-29 11.5t-30.5 5q-35 0 -57 -31v61q10 11 24.5 19t35.5 8q18 0 33 -5t29.5 -11.5t28.5 -11.5t31 -5q33 0 57 30v-61z" />
    <glyph glyph-name="Imacron" unicode="&#x12a;" horiz-adv-x="155" 
d="M0 0zM39 0v823h76v-823h-76zM-37 904v59h230v-59h-230z" />
    <glyph glyph-name="imacron" unicode="&#x12b;" horiz-adv-x="187" 
d="M0 0zM-22 700v59h230v-59h-230zM58 0v619h69v-619h-69z" />
    <glyph glyph-name="Ibreve" unicode="&#x12c;" horiz-adv-x="155" 
d="M0 0zM39 0v823h76v-823h-76zM211 1015q0 -45 -8 -74t-24.5 -46.5t-41.5 -24t-58 -6.5q-39 0 -65 6.5t-41.5 24t-22.5 46.5t-7 74h61q0 -36 5 -58t14.5 -33.5t23 -15t30.5 -3.5q15 0 28 3.5t23 15t15.5 33.5t5.5 58h62z" />
    <glyph glyph-name="ibreve" unicode="&#x12d;" horiz-adv-x="215" 
d="M0 0zM241 811q0 -45 -8 -74t-24.5 -46.5t-41.5 -24t-58 -6.5q-39 0 -65 6.5t-41.5 24t-22.5 46.5t-7 74h61q0 -36 5 -58t14.5 -33.5t23 -15t30.5 -3.5q15 0 28 3.5t23 15t15.5 33.5t5.5 58h62zM72 0v619h69v-619h-69z" />
    <glyph glyph-name="Iogonek" unicode="&#x12e;" horiz-adv-x="155" 
d="M144 -49q0 -48 -24 -74t-87 -26q-36 0 -59.5 17.5t-23.5 50.5q0 29 22 50t67 29v825h76v-823q-55 -8 -85.5 -25t-30.5 -43q0 -11 8.5 -22t29.5 -11q29 0 39 14.5t10 37.5v11h58v-11z" />
    <glyph glyph-name="iogonek" unicode="&#x12f;" horiz-adv-x="147" 
d="M137 -49q0 -48 -24 -74t-87 -26q-36 0 -59.5 17.5t-23.5 50.5q0 29 24 50.5t72 29.5v620h69v-619q-55 -8 -85.5 -25t-30.5 -43q0 -11 8.5 -22t29.5 -11q29 0 39 14.5t10 37.5v11h58v-11zM39 698v125h69v-125h-69z" />
    <glyph glyph-name="Idotaccent" unicode="&#x130;" horiz-adv-x="155" 
d="M39 0zM39 0v823h76v-823h-76zM42 872v125h69v-125h-69z" />
    <glyph glyph-name="dotlessi" unicode="&#x131;" horiz-adv-x="147" 
d="M39 0v619h69v-619h-69z" />
    <glyph glyph-name="IJ" unicode="&#x132;" horiz-adv-x="372" 
d="M39 0zM39 0v823h76v-823h-76zM165 77q14 -7 48 -7q49 0 49 64v689h76v-689q0 -73 -32 -106.5t-93 -33.5q-35 0 -48 7v76z" />
    <glyph glyph-name="ij" unicode="&#x133;" horiz-adv-x="310" 
d="M39 0zM39 698v125h69v-125h-69zM39 0v619h69v-619h-69zM115 -72q8 -2 17.5 -3t18.5 -1q50 0 50 63v632h69v-632q0 -69 -29.5 -100t-89.5 -31q-24 0 -36 4v68zM201 698v125h69v-125h-69z" />
    <glyph glyph-name="Kcommaaccent" unicode="&#x136;" horiz-adv-x="349" 
d="M37 0zM257 0l-144 405v-405h-76v823h76v-355l139 355h82l-156 -375l166 -448h-87zM165 -149v25h8q11 0 11 12v20h-27v72h58v-90q0 -19 -9 -29t-30 -10h-11z" />
    <glyph glyph-name="kcommaaccent" unicode="&#x137;" horiz-adv-x="301" 
d="M37 0zM216 0l-112 318v-318h-67v823h67v-471l112 267h73l-121 -274l124 -345h-76zM140 -149v25h8q11 0 11 12v20h-27v72h58v-90q0 -19 -9 -29t-30 -10h-11z" />
    <glyph glyph-name="Lacute" unicode="&#x139;" horiz-adv-x="271" 
d="M19 0zM37 0v823h76v-748h147v-75h-223zM19 860l112 161h89l-135 -161h-66z" />
    <glyph glyph-name="lacute" unicode="&#x13a;" horiz-adv-x="144" 
d="M14 0zM37 0v823h69v-823h-69zM14 860l112 161h89l-135 -161h-66z" />
    <glyph glyph-name="Lcommaaccent" unicode="&#x13b;" horiz-adv-x="271" 
d="M37 0zM37 0v823h76v-748h147v-75h-223zM127 -149v25h8q11 0 11 12v20h-27v72h58v-90q0 -19 -9 -29t-30 -10h-11z" />
    <glyph glyph-name="lcommaaccent" unicode="&#x13c;" horiz-adv-x="144" 
d="M37 0zM37 0v823h69v-823h-69zM50 -149v25h8q11 0 11 12v20h-27v72h58v-90q0 -19 -9 -29t-30 -10h-11z" />
    <glyph glyph-name="Lcaron" unicode="&#x13d;" horiz-adv-x="281" 
d="M37 0zM37 0v823h76v-748h147v-75h-223zM208 638v33h6q17 0 17 18v31h-33v103h72v-129q0 -26 -12.5 -41t-41.5 -15h-8z" />
    <glyph glyph-name="lcaron" unicode="&#x13e;" horiz-adv-x="216" 
d="M37 0zM37 0v823h69v-823h-69zM153 638v33h6q17 0 17 18v31h-33v103h72v-129q0 -26 -12.5 -41t-41.5 -15h-8z" />
    <glyph glyph-name="Lslash" unicode="&#x141;" horiz-adv-x="272" 
d="M38 0v497l-39 -24l-26 43l65 39v268h76v-223l63 39l25 -42l-88 -54v-468h147v-75h-223z" />
    <glyph glyph-name="lslash" unicode="&#x142;" horiz-adv-x="204" 
d="M68 0v513l-59 -35l-25 41l84 50v254h69v-213l57 35l26 -41l-83 -51v-553h-69z" />
    <glyph glyph-name="Nacute" unicode="&#x143;" horiz-adv-x="354" 
d="M35 0zM242 0l-142 601q1 -94 1 -182.5v-182.5v-236h-66v823h91l126 -603q-1 85 -1 166.5v166.5v270h67v-823h-76zM119 860l112 161h89l-135 -161h-66z" />
    <glyph glyph-name="nacute" unicode="&#x144;" 
d="M37 0zM199 0v511q0 27 -9 38.5t-31 11.5q-15 0 -30 -9t-23 -29v-523h-69v619h58q3 -23 3 -47q14 26 37 41.5t52 15.5q42 0 61.5 -27t19.5 -87v-515h-69zM94 656l112 161h89l-135 -161h-66z" />
    <glyph glyph-name="Ncommaaccent" unicode="&#x145;" horiz-adv-x="354" 
d="M35 0zM242 0l-142 601q1 -94 1 -182.5v-182.5v-236h-66v823h91l126 -603q-1 85 -1 166.5v166.5v270h67v-823h-76zM155 -149v25h8q11 0 11 12v20h-27v72h58v-90q0 -19 -9 -29t-30 -10h-11z" />
    <glyph glyph-name="ncommaaccent" unicode="&#x146;" 
d="M37 0zM199 0v511q0 27 -9 38.5t-31 11.5q-15 0 -30 -9t-23 -29v-523h-69v619h58q3 -23 3 -47q14 26 37 41.5t52 15.5q42 0 61.5 -27t19.5 -87v-515h-69zM131 -149v25h8q11 0 11 12v20h-27v72h58v-90q0 -19 -9 -29t-30 -10h-11z" />
    <glyph glyph-name="Ncaron" unicode="&#x147;" horiz-adv-x="354" 
d="M31 0zM242 0l-142 601q1 -94 1 -182.5v-182.5v-236h-66v823h91l126 -603q-1 85 -1 166.5v166.5v270h67v-823h-76zM135 860l-104 161h67l80 -123l81 123h64l-108 -161h-80z" />
    <glyph glyph-name="ncaron" unicode="&#x148;" 
d="M6 0zM199 0v511q0 27 -9 38.5t-31 11.5q-15 0 -30 -9t-23 -29v-523h-69v619h58q3 -23 3 -47q14 26 37 41.5t52 15.5q42 0 61.5 -27t19.5 -87v-515h-69zM110 656l-104 161h67l80 -123l81 123h64l-108 -161h-80z" />
    <glyph glyph-name="Eng" unicode="&#x14a;" horiz-adv-x="354" 
d="M163 -77q8 -2 17.5 -3t18.5 -1q21 0 34.5 11.5t16.5 34.5l-150 636v-95.5t0.5 -117t0.5 -161v-227.5h-66v823h91l126 -603v57v64.5t-0.5 79.5t-0.5 101.5v131.5v169h67v-841q0 -69 -29.5 -100t-89.5 -31q-24 0 -36 4v68z" />
    <glyph glyph-name="eng" unicode="&#x14b;" 
d="M113 -77q8 -2 17.5 -3t18.5 -1q50 0 50 63v529q0 27 -9 38.5t-31 11.5q-15 0 -30 -9t-23 -29v-523h-69v619h58q3 -23 3 -47q14 26 37 41.5t52 15.5q42 0 61.5 -27t19.5 -87v-533q0 -69 -29.5 -100t-89.5 -31q-24 0 -36 4v68z" />
    <glyph glyph-name="Omacron" unicode="&#x14c;" horiz-adv-x="321" 
d="M31 0zM31 692q0 140 129 140q130 0 130 -140v-561q0 -140 -130 -140q-129 0 -129 140v561zM214 692q0 63 -54 63q-53 0 -53 -63v-561q0 -65 53 -65q54 0 54 65v561zM45 904v59h230v-59h-230z" />
    <glyph glyph-name="omacron" unicode="&#x14d;" horiz-adv-x="291" 
d="M30 0zM31 505q0 60 28 92t86 32q57 0 85.5 -32t28.5 -92v-391q0 -60 -28.5 -91.5t-85.5 -31.5q-58 0 -86 31.5t-28 91.5v391zM192 503q0 26 -9.5 40.5t-37.5 14.5t-37.5 -14.5t-9.5 -40.5v-389q0 -26 9.5 -39.5t37.5 -13.5t37.5 14t9.5 41v387zM30 700v59h230v-59h-230z
" />
    <glyph glyph-name="Obreve" unicode="&#x14e;" horiz-adv-x="321" 
d="M27 0zM31 692q0 140 129 140q130 0 130 -140v-561q0 -140 -130 -140q-129 0 -129 140v561zM214 692q0 63 -54 63q-53 0 -53 -63v-561q0 -65 53 -65q54 0 54 65v561zM295 1015q0 -45 -8 -74t-24.5 -46.5t-41.5 -24t-58 -6.5q-39 0 -65 6.5t-41.5 24t-22.5 46.5t-7 74h61
q0 -36 5 -58t14.5 -33.5t23 -15t30.5 -3.5q15 0 28 3.5t23 15t15.5 33.5t5.5 58h62z" />
    <glyph glyph-name="obreve" unicode="&#x14f;" horiz-adv-x="291" 
d="M12 0zM31 505q0 60 28 92t86 32q57 0 85.5 -32t28.5 -92v-391q0 -60 -28.5 -91.5t-85.5 -31.5q-58 0 -86 31.5t-28 91.5v391zM192 503q0 26 -9.5 40.5t-37.5 14.5t-37.5 -14.5t-9.5 -40.5v-389q0 -26 9.5 -39.5t37.5 -13.5t37.5 14t9.5 41v387zM280 811q0 -45 -8 -74
t-24.5 -46.5t-41.5 -24t-58 -6.5q-39 0 -65 6.5t-41.5 24t-22.5 46.5t-7 74h61q0 -36 5 -58t14.5 -33.5t23 -15t30.5 -3.5q15 0 28 3.5t23 15t15.5 33.5t5.5 58h62z" />
    <glyph glyph-name="Ohungarumlaut" unicode="&#x150;" horiz-adv-x="321" 
d="M22 0zM31 692q0 140 129 140q130 0 130 -140v-561q0 -140 -130 -140q-129 0 -129 140v561zM214 692q0 63 -54 63q-53 0 -53 -63v-561q0 -65 53 -65q54 0 54 65v561zM184 860l112 161h90l-135 -161h-67zM22 860l112 161h89l-135 -161h-66z" />
    <glyph glyph-name="ohungarumlaut" unicode="&#x151;" horiz-adv-x="291" 
d="M6 0zM31 505q0 60 28 92t86 32q57 0 85.5 -32t28.5 -92v-391q0 -60 -28.5 -91.5t-85.5 -31.5q-58 0 -86 31.5t-28 91.5v391zM192 503q0 26 -9.5 40.5t-37.5 14.5t-37.5 -14.5t-9.5 -40.5v-389q0 -26 9.5 -39.5t37.5 -13.5t37.5 14t9.5 41v387zM168 656l112 161h90
l-135 -161h-67zM6 656l112 161h89l-135 -161h-66z" />
    <glyph glyph-name="OE" unicode="&#x152;" horiz-adv-x="438" 
d="M215 0q-23 -9 -55 -9q-129 0 -129 140v561q0 140 129 140q32 0 55 -9h197v-77h-142v-289h100v-76h-100v-306h147v-75h-202zM194 750q-7 3 -15.5 4t-18.5 1q-53 0 -53 -63v-561q0 -65 53 -65q14 0 34 5v679z" />
    <glyph glyph-name="oe" unicode="&#x153;" horiz-adv-x="444" 
d="M348 252h65v-136q0 -125 -111 -125q-50 0 -77 28q-27 -28 -80 -28q-58 0 -86 31.5t-28 91.5v391q0 60 28 92t86 32q53 0 81 -31q28 31 76 31q111 0 111 -127v-199h-154v-187q0 -55 43 -55q46 0 46 55v136zM192 503q0 26 -9.5 40.5t-37.5 14.5t-37.5 -14.5t-9.5 -40.5
v-389q0 -26 9.5 -39.5t37.5 -13.5t37.5 14t9.5 41v387zM348 502q0 55 -46 55q-43 0 -43 -55v-149h89v149z" />
    <glyph glyph-name="Racute" unicode="&#x154;" horiz-adv-x="332" 
d="M37 0zM230 0q-13 97 -27 188.5t-31 185.5q-5 -1 -9 -1h-9h-41v-373h-76v823h125q72 0 107.5 -33.5t35.5 -114.5v-164q0 -90 -61 -121q20 -100 37 -196.5t32 -193.5h-83zM228 665q0 45 -13 63t-53 18h-49v-304h50q35 0 50 16.5t15 51.5v155zM108 860l112 161h89l-135 -161
h-66z" />
    <glyph glyph-name="racute" unicode="&#x155;" horiz-adv-x="208" 
d="M37 0zM37 0v619h58q3 -23 3 -45q13 27 31.5 39t43.5 12q14 0 21 -4v-77q-5 4 -14 5.5t-17 1.5q-16 0 -31.5 -7.5t-25.5 -29.5v-514h-69zM46 656l112 161h89l-135 -161h-66z" />
    <glyph glyph-name="Rcommaaccent" unicode="&#x156;" horiz-adv-x="332" 
d="M37 0zM230 0q-13 97 -27 188.5t-31 185.5q-5 -1 -9 -1h-9h-41v-373h-76v823h125q72 0 107.5 -33.5t35.5 -114.5v-164q0 -90 -61 -121q20 -100 37 -196.5t32 -193.5h-83zM228 665q0 45 -13 63t-53 18h-49v-304h50q35 0 50 16.5t15 51.5v155zM154 -149v25h8q11 0 11 12v20
h-27v72h58v-90q0 -19 -9 -29t-30 -10h-11z" />
    <glyph glyph-name="rcommaaccent" unicode="&#x157;" horiz-adv-x="208" 
d="M37 0zM37 0v619h58q3 -23 3 -45q13 27 31.5 39t43.5 12q14 0 21 -4v-77q-5 4 -14 5.5t-17 1.5q-16 0 -31.5 -7.5t-25.5 -29.5v-514h-69zM51 -149v25h8q11 0 11 12v20h-27v72h58v-90q0 -19 -9 -29t-30 -10h-11z" />
    <glyph glyph-name="Rcaron" unicode="&#x158;" horiz-adv-x="332" 
d="M20 0zM230 0q-13 97 -27 188.5t-31 185.5q-5 -1 -9 -1h-9h-41v-373h-76v823h125q72 0 107.5 -33.5t35.5 -114.5v-164q0 -90 -61 -121q20 -100 37 -196.5t32 -193.5h-83zM228 665q0 45 -13 63t-53 18h-49v-304h50q35 0 50 16.5t15 51.5v155zM124 860l-104 161h67l80 -123
l81 123h64l-108 -161h-80z" />
    <glyph glyph-name="rcaron" unicode="&#x159;" horiz-adv-x="208" 
d="M0 0zM37 0v619h58q3 -23 3 -45q13 27 31.5 39t43.5 12q14 0 21 -4v-77q-5 4 -14 5.5t-17 1.5q-16 0 -31.5 -7.5t-25.5 -29.5v-514h-69zM62 656l-104 161h67l80 -123l81 123h64l-108 -161h-80z" />
    <glyph glyph-name="Sacute" unicode="&#x15a;" horiz-adv-x="310" 
d="M27 0zM207 244q0 19 -1 31t-4 21t-8 16.5t-12 16.5q-32 39 -69 74t-59 63q-9 12 -14.5 22.5t-8.5 22.5t-3.5 26.5t-0.5 35.5v123q0 136 131 136q67 0 94.5 -33.5t27.5 -102.5v-150h-71v140q0 31 -10.5 50t-41.5 19q-53 0 -53 -59v-122q0 -26 3.5 -38t14.5 -26
q13 -18 30 -35.5t34.5 -34.5t33 -33t27.5 -31q10 -13 17 -25t11 -26.5t6 -33.5t2 -46v-118q0 -66 -29 -101t-98 -35q-68 0 -98.5 34.5t-30.5 101.5v175h73v-164q0 -33 11.5 -52.5t43.5 -19.5q28 0 40 16t12 45v117zM97 860l112 161h89l-135 -161h-66z" />
    <glyph glyph-name="sacute" unicode="&#x15b;" horiz-adv-x="279" 
d="M27 0zM181 179q0 20 -6 35t-24 37q-21 25 -47 48t-45 45q-20 22 -26 44t-6 58v64q0 66 28 92.5t85 26.5q61 0 84 -28.5t23 -90.5v-101h-63v101q0 23 -13 36.5t-34 13.5q-43 0 -43 -50v-73q0 -22 5.5 -34.5t22.5 -30.5q24 -25 46.5 -43t42.5 -41q23 -27 31 -52.5t8 -65.5
v-67q0 -59 -28 -85.5t-83 -26.5q-57 0 -84.5 27.5t-27.5 87.5v101h62v-99q0 -23 13 -36.5t35 -13.5q44 0 44 50v71zM82 656l112 161h89l-135 -161h-66z" />
    <glyph glyph-name="Scedilla" unicode="&#x15e;" horiz-adv-x="310" 
d="M27 0zM207 244q0 19 -1 31t-4 21t-8 16.5t-12 16.5q-32 39 -69 74t-59 63q-9 12 -14.5 22.5t-8.5 22.5t-3.5 26.5t-0.5 35.5v123q0 136 131 136q67 0 94.5 -33.5t27.5 -102.5v-150h-71v140q0 31 -10.5 50t-41.5 19q-53 0 -53 -59v-122q0 -26 3.5 -38t14.5 -26
q13 -18 30 -35.5t34.5 -34.5t33 -33t27.5 -31q10 -13 17 -25t11 -26.5t6 -33.5t2 -46v-118q0 -66 -29 -101t-98 -35q-68 0 -98.5 34.5t-30.5 101.5v175h73v-164q0 -33 11.5 -52.5t43.5 -19.5q28 0 40 16t12 45v117zM134 -149v25h8q11 0 11 12v20h-27v72h58v-90q0 -19 -9 -29
t-30 -10h-11z" />
    <glyph glyph-name="Scedilla" unicode="&#x218;" horiz-adv-x="310" 
d="M27 0zM207 244q0 19 -1 31t-4 21t-8 16.5t-12 16.5q-32 39 -69 74t-59 63q-9 12 -14.5 22.5t-8.5 22.5t-3.5 26.5t-0.5 35.5v123q0 136 131 136q67 0 94.5 -33.5t27.5 -102.5v-150h-71v140q0 31 -10.5 50t-41.5 19q-53 0 -53 -59v-122q0 -26 3.5 -38t14.5 -26
q13 -18 30 -35.5t34.5 -34.5t33 -33t27.5 -31q10 -13 17 -25t11 -26.5t6 -33.5t2 -46v-118q0 -66 -29 -101t-98 -35q-68 0 -98.5 34.5t-30.5 101.5v175h73v-164q0 -33 11.5 -52.5t43.5 -19.5q28 0 40 16t12 45v117zM134 -149v25h8q11 0 11 12v20h-27v72h58v-90q0 -19 -9 -29
t-30 -10h-11z" />
    <glyph glyph-name="scedilla" unicode="&#x15f;" horiz-adv-x="279" 
d="M27 0zM181 179q0 20 -6 35t-24 37q-21 25 -47 48t-45 45q-20 22 -26 44t-6 58v64q0 66 28 92.5t85 26.5q61 0 84 -28.5t23 -90.5v-101h-63v101q0 23 -13 36.5t-34 13.5q-43 0 -43 -50v-73q0 -22 5.5 -34.5t22.5 -30.5q24 -25 46.5 -43t42.5 -41q23 -27 31 -52.5t8 -65.5
v-67q0 -59 -28 -85.5t-83 -26.5q-57 0 -84.5 27.5t-27.5 87.5v101h62v-99q0 -23 13 -36.5t35 -13.5q44 0 44 50v71zM117 -149v25h8q11 0 11 12v20h-27v72h58v-90q0 -19 -9 -29t-30 -10h-11z" />
    <glyph glyph-name="scedilla" unicode="&#x219;" horiz-adv-x="279" 
d="M27 0zM181 179q0 20 -6 35t-24 37q-21 25 -47 48t-45 45q-20 22 -26 44t-6 58v64q0 66 28 92.5t85 26.5q61 0 84 -28.5t23 -90.5v-101h-63v101q0 23 -13 36.5t-34 13.5q-43 0 -43 -50v-73q0 -22 5.5 -34.5t22.5 -30.5q24 -25 46.5 -43t42.5 -41q23 -27 31 -52.5t8 -65.5
v-67q0 -59 -28 -85.5t-83 -26.5q-57 0 -84.5 27.5t-27.5 87.5v101h62v-99q0 -23 13 -36.5t35 -13.5q44 0 44 50v71zM117 -149v25h8q11 0 11 12v20h-27v72h58v-90q0 -19 -9 -29t-30 -10h-11z" />
    <glyph glyph-name="Scaron" unicode="&#x160;" horiz-adv-x="310" 
d="M10 0zM207 244q0 19 -1 31t-4 21t-8 16.5t-12 16.5q-32 39 -69 74t-59 63q-9 12 -14.5 22.5t-8.5 22.5t-3.5 26.5t-0.5 35.5v123q0 136 131 136q67 0 94.5 -33.5t27.5 -102.5v-150h-71v140q0 31 -10.5 50t-41.5 19q-53 0 -53 -59v-122q0 -26 3.5 -38t14.5 -26
q13 -18 30 -35.5t34.5 -34.5t33 -33t27.5 -31q10 -13 17 -25t11 -26.5t6 -33.5t2 -46v-118q0 -66 -29 -101t-98 -35q-68 0 -98.5 34.5t-30.5 101.5v175h73v-164q0 -33 11.5 -52.5t43.5 -19.5q28 0 40 16t12 45v117zM114 860l-104 161h67l80 -123l81 123h64l-108 -161h-80z
" />
    <glyph glyph-name="scaron" unicode="&#x161;" horiz-adv-x="279" 
d="M0 0zM181 179q0 20 -6 35t-24 37q-21 25 -47 48t-45 45q-20 22 -26 44t-6 58v64q0 66 28 92.5t85 26.5q61 0 84 -28.5t23 -90.5v-101h-63v101q0 23 -13 36.5t-34 13.5q-43 0 -43 -50v-73q0 -22 5.5 -34.5t22.5 -30.5q24 -25 46.5 -43t42.5 -41q23 -27 31 -52.5t8 -65.5
v-67q0 -59 -28 -85.5t-83 -26.5q-57 0 -84.5 27.5t-27.5 87.5v101h62v-99q0 -23 13 -36.5t35 -13.5q44 0 44 50v71zM98 656l-104 161h67l80 -123l81 123h64l-108 -161h-80z" />
    <glyph glyph-name="Tcommaaccent" unicode="&#x162;" horiz-adv-x="281" 
d="M11 0zM103 0v746h-92v77h259v-77h-92v-746h-75zM120 -149v25h8q11 0 11 12v20h-27v72h58v-90q0 -19 -9 -29t-30 -10h-11z" />
    <glyph glyph-name="Tcommaaccent" unicode="&#x21a;" horiz-adv-x="281" 
d="M11 0zM103 0v746h-92v77h259v-77h-92v-746h-75zM120 -149v25h8q11 0 11 12v20h-27v72h58v-90q0 -19 -9 -29t-30 -10h-11z" />
    <glyph glyph-name="tcommaaccent" unicode="&#x163;" horiz-adv-x="192" 
d="M10 0zM180 -4q-5 -2 -14.5 -3.5t-17.5 -1.5q-55 0 -82 34t-27 94v439h-29v61h29v196h69v-196h70v-61h-70v-439q0 -38 13.5 -53.5t45.5 -15.5h6.5t6.5 1v-55zM98 -149v25h8q11 0 11 12v20h-27v72h58v-90q0 -19 -9 -29t-30 -10h-11z" />
    <glyph glyph-name="tcommaaccent" unicode="&#x21b;" horiz-adv-x="192" 
d="M10 0zM180 -4q-5 -2 -14.5 -3.5t-17.5 -1.5q-55 0 -82 34t-27 94v439h-29v61h29v196h69v-196h70v-61h-70v-439q0 -38 13.5 -53.5t45.5 -15.5h6.5t6.5 1v-55zM98 -149v25h8q11 0 11 12v20h-27v72h58v-90q0 -19 -9 -29t-30 -10h-11z" />
    <glyph glyph-name="Tcaron" unicode="&#x164;" horiz-adv-x="281" 
d="M0 0zM103 0v746h-92v77h259v-77h-92v-746h-75zM98 860l-104 161h67l80 -123l81 123h64l-108 -161h-80z" />
    <glyph glyph-name="tcaron" unicode="&#x165;" horiz-adv-x="249" 
d="M10 0zM180 -4q-5 -2 -14.5 -3.5t-17.5 -1.5q-55 0 -82 34t-27 94v439h-29v61h29v196h69v-196h70v-61h-70v-439q0 -38 13.5 -53.5t45.5 -15.5h6.5t6.5 1v-55zM186 638v33h6q17 0 17 18v31h-33v103h72v-129q0 -26 -12.5 -41t-41.5 -15h-8z" />
    <glyph glyph-name="Tbar" unicode="&#x166;" horiz-adv-x="281" 
d="M103 0v399h-52v59h52v288h-92v77h259v-77h-92v-288h51v-59h-51v-399h-75z" />
    <glyph glyph-name="tbar" unicode="&#x167;" horiz-adv-x="192" 
d="M108 295v-176q0 -38 13.5 -53.5t45.5 -15.5h6.5t6.5 1v-55q-5 -2 -14.5 -3.5t-17.5 -1.5q-55 0 -82 34t-27 94v176h-23v59h23v204h-29v61h29v196h69v-196h70v-61h-70v-204h66v-59h-66z" />
    <glyph glyph-name="Utilde" unicode="&#x168;" horiz-adv-x="326" 
d="M34 0zM216 823h76v-692q0 -140 -129 -140t-129 140v692h76v-692q0 -65 53 -65t53 65v692zM282 917q-9 -11 -24.5 -18.5t-36.5 -7.5q-17 0 -32 5t-29.5 11.5t-29 11.5t-30.5 5q-35 0 -57 -31v61q10 11 24.5 19t35.5 8q18 0 33 -5t29.5 -11.5t28.5 -11.5t31 -5q33 0 57 30
v-61z" />
    <glyph glyph-name="utilde" unicode="&#x169;" horiz-adv-x="301" 
d="M31 0zM204 0q-1 11 -1.5 22t-0.5 23q-14 -25 -36.5 -38.5t-51.5 -13.5q-80 0 -80 107v519h69v-508q0 -28 9 -39t29 -11q16 0 30.5 8.5t22.5 28.5v521h69v-619h-59zM270 713q-9 -11 -24.5 -18.5t-36.5 -7.5q-17 0 -32 5t-29.5 11.5t-29 11.5t-30.5 5q-35 0 -57 -31v61
q10 11 24.5 19t35.5 8q18 0 33 -5t29.5 -11.5t28.5 -11.5t31 -5q33 0 57 30v-61z" />
    <glyph glyph-name="Umacron" unicode="&#x16a;" horiz-adv-x="326" 
d="M34 0zM216 823h76v-692q0 -140 -129 -140t-129 140v692h76v-692q0 -65 53 -65t53 65v692zM47 904v59h230v-59h-230z" />
    <glyph glyph-name="umacron" unicode="&#x16b;" horiz-adv-x="301" 
d="M34 0zM204 0q-1 11 -1.5 22t-0.5 23q-14 -25 -36.5 -38.5t-51.5 -13.5q-80 0 -80 107v519h69v-508q0 -28 9 -39t29 -11q16 0 30.5 8.5t22.5 28.5v521h69v-619h-59zM35 700v59h230v-59h-230z" />
    <glyph glyph-name="Ubreve" unicode="&#x16c;" horiz-adv-x="326" 
d="M29 0zM216 823h76v-692q0 -140 -129 -140t-129 140v692h76v-692q0 -65 53 -65t53 65v692zM297 1015q0 -45 -8 -74t-24.5 -46.5t-41.5 -24t-58 -6.5q-39 0 -65 6.5t-41.5 24t-22.5 46.5t-7 74h61q0 -36 5 -58t14.5 -33.5t23 -15t30.5 -3.5q15 0 28 3.5t23 15t15.5 33.5
t5.5 58h62z" />
    <glyph glyph-name="ubreve" unicode="&#x16d;" horiz-adv-x="301" 
d="M17 0zM204 0q-1 11 -1.5 22t-0.5 23q-14 -25 -36.5 -38.5t-51.5 -13.5q-80 0 -80 107v519h69v-508q0 -28 9 -39t29 -11q16 0 30.5 8.5t22.5 28.5v521h69v-619h-59zM285 811q0 -45 -8 -74t-24.5 -46.5t-41.5 -24t-58 -6.5q-39 0 -65 6.5t-41.5 24t-22.5 46.5t-7 74h61
q0 -36 5 -58t14.5 -33.5t23 -15t30.5 -3.5q15 0 28 3.5t23 15t15.5 33.5t5.5 58h62z" />
    <glyph glyph-name="Uring" unicode="&#x16e;" horiz-adv-x="326" 
d="M34 0zM216 823h76v-692q0 -140 -129 -140t-129 140v692h76v-692q0 -65 53 -65t53 65v692zM259 941q0 -34 -24.5 -56t-72.5 -22t-72 22t-24 56q0 35 24 57.5t72 22.5t72.5 -22.5t24.5 -57.5zM219 941q0 46 -57 46q-58 0 -58 -46q0 -45 58 -45q57 0 57 45z" />
    <glyph glyph-name="uring" unicode="&#x16f;" horiz-adv-x="301" 
d="M34 0zM204 0q-1 11 -1.5 22t-0.5 23q-14 -25 -36.5 -38.5t-51.5 -13.5q-80 0 -80 107v519h69v-508q0 -28 9 -39t29 -11q16 0 30.5 8.5t22.5 28.5v521h69v-619h-59zM246 737q0 -34 -24.5 -56t-72.5 -22t-72 22t-24 56q0 35 24 57.5t72 22.5t72.5 -22.5t24.5 -57.5z
M206 737q0 46 -57 46q-58 0 -58 -46q0 -45 58 -45q57 0 57 45z" />
    <glyph glyph-name="Uhungarumlaut" unicode="&#x170;" horiz-adv-x="326" 
d="M24 0zM216 823h76v-692q0 -140 -129 -140t-129 140v692h76v-692q0 -65 53 -65t53 65v692zM186 860l112 161h90l-135 -161h-67zM24 860l112 161h89l-135 -161h-66z" />
    <glyph glyph-name="uhungarumlaut" unicode="&#x171;" horiz-adv-x="301" 
d="M11 0zM204 0q-1 11 -1.5 22t-0.5 23q-14 -25 -36.5 -38.5t-51.5 -13.5q-80 0 -80 107v519h69v-508q0 -28 9 -39t29 -11q16 0 30.5 8.5t22.5 28.5v521h69v-619h-59zM173 656l112 161h90l-135 -161h-67zM11 656l112 161h89l-135 -161h-66z" />
    <glyph glyph-name="Uogonek" unicode="&#x172;" horiz-adv-x="326" 
d="M250 -49q0 -48 -24 -74t-87 -26q-36 0 -59.5 17.5t-23.5 50.5q0 55 72 75q-94 16 -94 137v692h76v-692q0 -65 53 -65t53 65v692h76v-692q0 -66 -28.5 -98t-83.5 -41q-37 -6 -56 -22.5t-19 -37.5q0 -11 8.5 -22t29.5 -11q29 0 39 14.5t10 37.5v11h58v-11z" />
    <glyph glyph-name="uogonek" unicode="&#x173;" horiz-adv-x="301" 
d="M292 -49q0 -48 -24 -74t-87 -26q-36 0 -59.5 17.5t-23.5 50.5q0 31 27 53t79 28q-1 11 -1.5 22t-0.5 23q-14 -25 -36.5 -38.5t-51.5 -13.5q-80 0 -80 107v519h69v-508q0 -28 9 -39t29 -11q16 0 30.5 8.5t22.5 28.5v521h69v-619q-55 -8 -85.5 -25t-30.5 -43q0 -11 8.5 -22
t29.5 -11q29 0 39 14.5t10 37.5v11h58v-11z" />
    <glyph glyph-name="Wcircumflex" unicode="&#x174;" horiz-adv-x="526" 
d="M12 0zM318 0q-5 44 -11 101.5t-12 119.5l-12 124t-10.5 115t-8 92.5t-4.5 57.5q-1 -18 -4.5 -57.5t-8.5 -92.5t-11 -115t-13 -124t-13.5 -119.5t-12.5 -101.5h-93l-92 823h79q6 -51 12.5 -113t13 -127.5t12 -129.5t10.5 -118.5t9 -96.5t6 -62q2 20 6.5 62t10.5 96.5
t12.5 118.5t14 129.5t14.5 127.5t13 113h76l62 -647q2 20 6.5 62t10.5 96.5t12.5 118.5t14 129.5t14.5 127.5t13 113h80l-104 -823h-92zM342 860l-79 123l-82 -123h-64l108 161h80l104 -161h-67z" />
    <glyph glyph-name="wcircumflex" unicode="&#x175;" horiz-adv-x="418" 
d="M13 0zM253 0l-46 462l-52 -462h-82l-60 619h65l39 -486l57 486h67l51 -486l47 486h65l-68 -619h-83zM288 656l-79 123l-82 -123h-64l108 161h80l104 -161h-67z" />
    <glyph glyph-name="Ycircumflex" unicode="&#x176;" horiz-adv-x="332" 
d="M9 0zM125 0v369l-116 454h80q10 -41 21.5 -90.5t23 -97.5t20.5 -88.5t13 -62.5q4 22 13 62.5t20.5 88.5t24 97.5t23.5 90.5h74l-120 -454v-369h-77zM246 860l-79 123l-82 -123h-64l108 161h80l104 -161h-67z" />
    <glyph glyph-name="ycircumflex" unicode="&#x177;" horiz-adv-x="277" 
d="M0 0zM19 -70q18 -5 34 -5q21 0 30.5 17t14.5 46l4 25l-91 606h72q5 -35 10.5 -78t10.5 -89t10.5 -92t9.5 -86t7.5 -72t5.5 -49q2 17 5.5 49t8.5 72t10.5 86t11.5 92t12.5 89t12.5 78h66l-94 -627q-5 -33 -12 -58t-19.5 -42.5t-32.5 -26.5t-50 -9q-15 0 -37 5v69zM218 656
l-79 123l-82 -123h-64l108 161h80l104 -161h-67z" />
    <glyph glyph-name="Ydieresis" unicode="&#x178;" horiz-adv-x="332" 
d="M9 0zM125 0v369l-116 454h80q10 -41 21.5 -90.5t23 -97.5t20.5 -88.5t13 -62.5q4 22 13 62.5t20.5 88.5t24 97.5t23.5 90.5h74l-120 -454v-369h-77zM207 872v125h69v-125h-69zM57 872v125h69v-125h-69z" />
    <glyph glyph-name="Ydieresis" unicode="&#x3ab;" horiz-adv-x="332" 
d="M9 0zM125 0v369l-116 454h80q10 -41 21.5 -90.5t23 -97.5t20.5 -88.5t13 -62.5q4 22 13 62.5t20.5 88.5t24 97.5t23.5 90.5h74l-120 -454v-369h-77zM207 872v125h69v-125h-69zM57 872v125h69v-125h-69z" />
    <glyph glyph-name="Zacute" unicode="&#x179;" horiz-adv-x="307" 
d="M25 0zM25 0v76l182 673h-175v74h251v-69l-179 -677h179v-77h-258zM96 860l112 161h89l-135 -161h-66z" />
    <glyph glyph-name="zacute" unicode="&#x17a;" horiz-adv-x="256" 
d="M25 0zM25 0v64l141 487h-139v68h205v-64l-138 -485h137v-70h-206zM70 656l112 161h89l-135 -161h-66z" />
    <glyph glyph-name="Zdotaccent" unicode="&#x17b;" horiz-adv-x="307" 
d="M25 0zM25 0v76l182 673h-175v74h251v-69l-179 -677h179v-77h-258zM123 872v125h69v-125h-69z" />
    <glyph glyph-name="zdotaccent" unicode="&#x17c;" horiz-adv-x="256" 
d="M25 0zM25 0v64l141 487h-139v68h205v-64l-138 -485h137v-70h-206zM96 668v125h69v-125h-69z" />
    <glyph glyph-name="Zcaron" unicode="&#x17d;" horiz-adv-x="307" 
d="M14 0zM25 0v76l182 673h-175v74h251v-69l-179 -677h179v-77h-258zM118 860l-104 161h67l80 -123l81 123h64l-108 -161h-80z" />
    <glyph glyph-name="zcaron" unicode="&#x17e;" horiz-adv-x="256" 
d="M0 0zM25 0v64l141 487h-139v68h205v-64l-138 -485h137v-70h-206zM86 656l-104 161h67l80 -123l81 123h64l-108 -161h-80z" />
    <glyph glyph-name="uni018E" unicode="&#x18e;" horiz-adv-x="281" 
d="M243 823v-823h-218v76h142v289h-101v76h101v305h-147v77h223z" />
    <glyph glyph-name="uni018F" unicode="&#x18f;" horiz-adv-x="314" 
d="M100 536h-69v155q0 72 28.5 106.5t92.5 34.5q130 0 130 -141v-560q0 -140 -130 -140q-63 0 -92 34t-29 106v292h173v268q0 64 -54 64q-50 0 -50 -63v-156zM204 364h-104v-209q0 -44 9 -66t41 -22q31 0 42.5 19.5t11.5 55.5v222z" />
    <glyph glyph-name="uni018F" unicode="&#x4d8;" horiz-adv-x="314" 
d="M100 536h-69v155q0 72 28.5 106.5t92.5 34.5q130 0 130 -141v-560q0 -140 -130 -140q-63 0 -92 34t-29 106v292h173v268q0 64 -54 64q-50 0 -50 -63v-156zM204 364h-104v-209q0 -44 9 -66t41 -22q31 0 42.5 19.5t11.5 55.5v222z" />
    <glyph glyph-name="florin" unicode="&#x192;" horiz-adv-x="405" 
d="M17 61q10 -3 22 -5t29 -2q35 0 49 18t19 63l49 434h-83v58h89l11 82q4 34 14 57.5t27 38t41.5 21t58.5 6.5q19 0 32.5 -3t20.5 -6v-62q-11 3 -22.5 4.5t-29.5 1.5q-32 0 -46 -13t-18 -48l-10 -79h105v-58h-113l-48 -440q-4 -39 -14 -65t-27.5 -42.5t-43 -23.5t-60.5 -7
q-18 0 -32 3t-20 6v61z" />
    <glyph glyph-name="uni0194" unicode="&#x194;" horiz-adv-x="338" 
d="M171 -149q-50 0 -68 21t-18 61q0 16 2 31.5t4 29.5l46 242l-125 587h79l79 -412l79 412h76l-121 -586l47 -243q2 -14 4 -29.5t2 -31.5q0 -40 -18 -61t-68 -21zM171 77l-22 -108q-3 -15 -4 -24t-1 -17q0 -19 5.5 -28t21.5 -9t22 9t6 26q0 14 -2.5 28.5t-4.5 25.5z" />
    <glyph glyph-name="uni019D" unicode="&#x19d;" horiz-adv-x="354" 
d="M242 0l-141 601v-614q0 -69 -28.5 -100t-88.5 -31q-22 0 -35 4v69q8 -2 17 -3t16 -1q53 0 53 62v836h91l125 -603v603h67v-823h-76z" />
    <glyph glyph-name="uni01A0" unicode="&#x1a0;" horiz-adv-x="357" 
d="M155 832q26 0 43 -4.5t39 -4.5q28 0 40.5 13t12.5 46v57h66v-53q0 -54 -22 -80.5t-67 -31.5q15 -22 19 -53t4 -69v-521q0 -140 -130 -140q-129 0 -129 140v561q0 70 32.5 105t91.5 35zM214 692q0 63 -54 63q-53 0 -53 -63v-561q0 -64 53 -64q54 0 54 64v561z" />
    <glyph glyph-name="uni01A1" unicode="&#x1a1;" horiz-adv-x="339" 
d="M140 629q12 0 22 -1.5t19 -3.5t18 -3.5t20 -1.5q29 0 41.5 13.5t12.5 45.5v57h65v-43q0 -60 -22 -89t-73 -33q11 -20 13.5 -45.5t2.5 -53.5v-357q0 -60 -28 -91.5t-86 -31.5q-59 0 -86.5 31.5t-27.5 91.5v391q0 60 28 92t81 32zM191 486q0 33 -9 52t-37 19q-29 0 -38 -19
t-9 -52v-354q0 -33 9 -52t38 -19q46 0 46 55v370z" />
    <glyph glyph-name="uni01AF" unicode="&#x1af;" horiz-adv-x="411" 
d="M216 823h76q28 0 40.5 13.5t12.5 45.5v57h66v-53q0 -60 -29.5 -87t-89.5 -27v-641q0 -140 -129 -140t-129 140v692h76v-692q0 -64 53 -64t53 64v692z" />
    <glyph glyph-name="uni01B0" unicode="&#x1b0;" horiz-adv-x="382" 
d="M204 0q-1 11 -1.5 22t-0.5 24q-29 -52 -86 -52q-82 0 -82 106v519h69v-508q0 -27 9 -38.5t29 -11.5q17 0 31 9t22 28v521h69q29 0 41 13.5t12 45.5v58h66v-54q0 -60 -29.5 -86.5t-89.5 -26.5v-569h-59z" />
    <glyph glyph-name="uni01DD" unicode="&#x1dd;" horiz-adv-x="280" 
d="M96 118q0 -55 46 -55q43 0 43 55v149h-89v-149zM96 368h-65v136q0 125 111 125q107 0 107 -125v-386q0 -63 -27.5 -95t-79.5 -32q-111 0 -111 127v199h154v187q0 55 -43 55q-46 0 -46 -55v-136z" />
    <glyph glyph-name="uni01DD" unicode="&#x4d9;" horiz-adv-x="280" 
d="M96 118q0 -55 46 -55q43 0 43 55v149h-89v-149zM96 368h-65v136q0 125 111 125q107 0 107 -125v-386q0 -63 -27.5 -95t-79.5 -32q-111 0 -111 127v199h154v187q0 55 -43 55q-46 0 -46 -55v-136z" />
    <glyph glyph-name="uni01E6" unicode="&#x1e6;" horiz-adv-x="322" 
d="M15 0zM280 -5l-25 45q-12 -24 -39 -36.5t-61 -12.5q-27 0 -49.5 7t-39 23.5t-26 43.5t-9.5 66v560q0 69 32 105t98 36t95.5 -36t29.5 -105v-145h-68v145q0 32 -13 48t-44 16q-29 0 -41.5 -16t-12.5 -48v-560q0 -32 15 -48.5t38 -16.5q54 0 59 59v187h-63v72h136v-389h-12
zM119 860l-104 161h67l80 -123l81 123h64l-108 -161h-80z" />
    <glyph glyph-name="uni01E7" unicode="&#x1e7;" 
d="M1 0zM199 68q-11 -18 -31.5 -28.5t-46.5 -10.5q-48 0 -69 26t-21 87v367q0 60 22.5 88t65.5 28q32 0 52.5 -13.5t33.5 -39.5q0 12 0.5 24t1.5 23h58v-651q0 -57 -27.5 -87t-85.5 -30q-32 0 -54 8t-35 23t-18.5 36.5t-5.5 49.5v25h62v-28q0 -54 50 -54q48 0 48 54v103z
M199 511q-8 20 -23 30.5t-33 10.5q-26 0 -35 -12.5t-9 -34.5v-361q0 -26 9.5 -37.5t34.5 -11.5q18 0 33 10t23 30v376zM105 656l-104 161h67l80 -123l81 123h64l-108 -161h-80z" />
    <glyph glyph-name="uni01F4" unicode="&#x1f4;" horiz-adv-x="322" 
d="M31 0zM280 -5l-25 45q-12 -24 -39 -36.5t-61 -12.5q-27 0 -49.5 7t-39 23.5t-26 43.5t-9.5 66v560q0 69 32 105t98 36t95.5 -36t29.5 -105v-145h-68v145q0 32 -13 48t-44 16q-29 0 -41.5 -16t-12.5 -48v-560q0 -32 15 -48.5t38 -16.5q54 0 59 59v187h-63v72h136v-389h-12
zM99 860l112 161h89l-135 -161h-66z" />
    <glyph glyph-name="uni01F5" unicode="&#x1f5;" 
d="M31 0zM199 68q-11 -18 -31.5 -28.5t-46.5 -10.5q-48 0 -69 26t-21 87v367q0 60 22.5 88t65.5 28q32 0 52.5 -13.5t33.5 -39.5q0 12 0.5 24t1.5 23h58v-651q0 -57 -27.5 -87t-85.5 -30q-32 0 -54 8t-35 23t-18.5 36.5t-5.5 49.5v25h62v-28q0 -54 50 -54q48 0 48 54v103z
M199 511q-8 20 -23 30.5t-33 10.5q-26 0 -35 -12.5t-9 -34.5v-361q0 -26 9.5 -37.5t34.5 -11.5q18 0 33 10t23 30v376zM76 656l112 161h89l-135 -161h-66z" />
    <glyph glyph-name="uni01F8" unicode="&#x1f8;" horiz-adv-x="354" 
d="M35 0zM242 0l-142 601q1 -94 1 -182.5v-182.5v-236h-66v823h91l126 -603q-1 85 -1 166.5v166.5v270h67v-823h-76zM173 860l-134 161h88l113 -161h-67z" />
    <glyph glyph-name="uni01F9" unicode="&#x1f9;" 
d="M14 0zM199 0v511q0 27 -9 38.5t-31 11.5q-15 0 -30 -9t-23 -29v-523h-69v619h58q3 -23 3 -47q14 26 37 41.5t52 15.5q42 0 61.5 -27t19.5 -87v-515h-69zM148 656l-134 161h88l113 -161h-67z" />
    <glyph glyph-name="dotlessj" unicode="&#x237;" horiz-adv-x="163" 
d="M-32 -71q15 -4 37 -4q49 0 49 62v632h69v-632q0 -69 -29.5 -100t-88.5 -31q-24 0 -37 4v69z" />
    <glyph glyph-name="uni0241" unicode="&#x241;" horiz-adv-x="299" 
d="M103 0v299q0 34 3.5 57t10.5 40.5t17 32t23 31.5q14 18 22.5 30.5t13.5 27t6.5 34.5t1.5 52v87q0 34 -12 49t-39 15q-53 0 -53 -64v-145h-73v144q0 72 30 107t97 35q65 0 95.5 -34t30.5 -109v-86q0 -34 -3 -58t-9.5 -43t-16 -34t-21.5 -31q-14 -17 -23 -30t-15 -27.5
t-8.5 -33t-2.5 -46.5v-300h-75z" />
    <glyph glyph-name="uni0242" unicode="&#x242;" horiz-adv-x="297" 
d="M101 0v132q0 35 3.5 59t10 41.5t16.5 31.5t22 30q13 17 21.5 29.5t13.5 27.5t6.5 35t1.5 52v50q0 34 -12.5 49t-38.5 15q-53 0 -53 -64v-108h-66v107q0 72 27 107t93 35q63 0 92.5 -34t29.5 -109v-49q0 -37 -3 -61.5t-9 -42.5t-15 -32t-21 -30q-13 -17 -22.5 -31
t-15.5 -29t-9 -33.5t-3 -43.5v-134h-69z" />
    <glyph glyph-name="uni024C" unicode="&#x24c;" horiz-adv-x="380" 
d="M279 -1q-13 97 -27 188.5t-31 185.5q-5 -1 -9 -1h-9h-41v-373h-76v373h-86v69h86v381h125q72 0 107.5 -33.5t35.5 -114.5v-164q0 -90 -61 -121q20 -100 37 -196.5t32 -193.5h-83zM277 664q0 45 -13 63t-53 18h-49v-304h50q35 0 50 16.5t15 51.5v155z" />
    <glyph glyph-name="uni024D" unicode="&#x24d;" horiz-adv-x="230" 
d="M60 0v286h-61v59h61v274h58q3 -23 3 -45q13 27 31.5 39t43.5 12q14 0 21 -4v-77q-5 4 -14 5.5t-17 1.5q-16 0 -31.5 -7.5t-25.5 -29.5v-169h81v-59h-81v-286h-69z" />
    <glyph glyph-name="uni0263" unicode="&#x263;" horiz-adv-x="277" 
d="M137 -149q-42 0 -56.5 21.5t-14.5 62.5q0 18 2 31.5t5 27.5l37 189l-99 436h69l58 -294l59 294h67l-97 -435l38 -190q3 -14 4.5 -30t1.5 -30q0 -37 -15 -60t-59 -23zM139 60l-17 -75q-4 -17 -5.5 -32t-1.5 -26q0 -17 5 -26.5t19 -9.5t19 9t5 27q0 11 -1.5 26t-5.5 32z
" />
    <glyph glyph-name="uni0272" unicode="&#x272;" 
d="M106 -3q0 -70 -31 -105.5t-89 -35.5q-9 0 -18 1t-16 3v69q7 -2 17.5 -3t15.5 -1q28 0 40 19.5t12 52.5v622h58q3 -23 3 -47q14 26 36.5 41.5t54.5 15.5q41 0 60 -27.5t19 -86.5v-515h-69v510q0 51 -39 51q-17 0 -31.5 -9t-22.5 -29v-526z" />
    <glyph glyph-name="circumflex" unicode="&#x2c6;" horiz-adv-x="385" 
d="M271 656l-79 123l-82 -123h-64l108 161h80l104 -161h-67z" />
    <glyph glyph-name="caron" unicode="&#x2c7;" horiz-adv-x="385" 
d="M150 656l-104 161h67l80 -123l81 123h64l-108 -161h-80z" />
    <glyph glyph-name="breve" unicode="&#x2d8;" horiz-adv-x="341" 
d="M305 811q0 -45 -8 -74t-24.5 -46.5t-41.5 -24t-58 -6.5q-39 0 -65 6.5t-41.5 24t-22.5 46.5t-7 74h61q0 -36 5 -58t14.5 -33.5t23 -15t30.5 -3.5q15 0 28 3.5t23 15t15.5 33.5t5.5 58h62z" />
    <glyph glyph-name="dotaccent" unicode="&#x2d9;" horiz-adv-x="144" 
d="M37 668v125h69v-125h-69z" />
    <glyph glyph-name="ring" unicode="&#x2da;" horiz-adv-x="267" 
d="M230 737q0 -34 -24.5 -56t-72.5 -22t-72 22t-24 56q0 35 24 57.5t72 22.5t72.5 -22.5t24.5 -57.5zM190 737q0 46 -57 46q-58 0 -58 -46q0 -45 58 -45q57 0 57 45z" />
    <glyph glyph-name="ogonek" unicode="&#x2db;" horiz-adv-x="268" 
d="M231 -49q0 -48 -24 -74t-87 -26q-36 0 -59.5 17.5t-23.5 50.5q0 31 27 53t79 28h59q-55 -8 -85.5 -25t-30.5 -43q0 -11 8.5 -22t29.5 -11q29 0 39 14.5t10 37.5v11h58v-11z" />
    <glyph glyph-name="tilde" unicode="&#x2dc;" horiz-adv-x="314" 
d="M276 713q-9 -11 -24.5 -18.5t-36.5 -7.5q-17 0 -32 5t-29.5 11.5t-29 11.5t-30.5 5q-35 0 -57 -31v61q10 11 24.5 19t35.5 8q18 0 33 -5t29.5 -11.5t28.5 -11.5t31 -5q33 0 57 30v-61z" />
    <glyph glyph-name="hungarumlaut" unicode="&#x2dd;" horiz-adv-x="438" 
d="M199 656l112 161h90l-135 -161h-67zM37 656l112 161h89l-135 -161h-66z" />
    <glyph glyph-name="gravecomb" unicode="&#x300;" horiz-adv-x="0" 
d="M-93 656zM-160 656l-134 161h88l113 -161h-67z" />
    <glyph glyph-name="acutecomb" unicode="&#x301;" horiz-adv-x="0" 
d="M0 656zM-194 656l112 161h89l-135 -161h-66z" />
    <glyph glyph-name="uni0302" unicode="&#x302;" horiz-adv-x="0" 
d="M-4 656zM-71 656l-79 123l-82 -123h-64l108 161h80l104 -161h-67z" />
    <glyph glyph-name="tildecomb" unicode="&#x303;" horiz-adv-x="0" 
d="M-30 687zM-30 713q-9 -11 -24.5 -18.5t-36.5 -7.5q-17 0 -32 5t-29.5 11.5t-29 11.5t-30.5 5q-35 0 -57 -31v61q10 11 24.5 19t35.5 8q18 0 33 -5t29.5 -11.5t28.5 -11.5t31 -5q33 0 57 30v-61z" />
    <glyph glyph-name="uni0304" unicode="&#x304;" horiz-adv-x="0" 
d="M-35 700zM-265 700v59h230v-59h-230z" />
    <glyph glyph-name="uni0306" unicode="&#x306;" horiz-adv-x="0" 
d="M-17 660zM-17 811q0 -45 -8 -74t-24.5 -46.5t-41.5 -24t-58 -6.5q-39 0 -65 6.5t-41.5 24t-22.5 46.5t-7 74h61q0 -36 5 -58t14.5 -33.5t23 -15t30.5 -3.5q15 0 28 3.5t23 15t15.5 33.5t5.5 58h62z" />
    <glyph glyph-name="uni0307" unicode="&#x307;" horiz-adv-x="0" 
d="M-111 668zM-180 668v125h69v-125h-69z" />
    <glyph glyph-name="uni0308" unicode="&#x308;" horiz-adv-x="0" 
d="M-35 668zM-104 668v125h69v-125h-69zM-254 668v125h69v-125h-69z" />
    <glyph glyph-name="hookabovecomb" unicode="&#x309;" horiz-adv-x="0" 
d="M-178 661v11q0 26 10 36.5t21 17.5q17 10 21.5 16t4.5 20v7q0 18 -26 18q-27 0 -27 -16v-14h-49v15q0 23 18 34t58 11q76 0 76 -45v-10q0 -23 -6 -32.5t-26 -20.5q-10 -5 -15.5 -9t-8.5 -7.5t-4 -8.5t-1 -12v-11h-46z" />
    <glyph glyph-name="uni030A" unicode="&#x30a;" horiz-adv-x="0" 
d="M-55 659zM-55 737q0 -34 -24.5 -56t-72.5 -22t-72 22t-24 56q0 35 24 57.5t72 22.5t72.5 -22.5t24.5 -57.5zM-95 737q0 46 -57 46q-58 0 -58 -46q0 -45 58 -45q57 0 57 45z" />
    <glyph glyph-name="uni030B" unicode="&#x30b;" horiz-adv-x="0" 
d="M0 656zM-112 656l112 161h90l-135 -161h-67zM-274 656l112 161h89l-135 -161h-66z" />
    <glyph glyph-name="uni030C" unicode="&#x30c;" horiz-adv-x="0" 
d="M-4 656zM-192 656l-104 161h67l80 -123l81 123h64l-108 -161h-80z" />
    <glyph glyph-name="uni0313" unicode="&#x313;" horiz-adv-x="0" 
d="M-186 666v83q0 24 11.5 46t43.5 22h7v-43h-8q-15 0 -15 -16v-10h33v-82h-72z" />
    <glyph glyph-name="uni031B" unicode="&#x31b;" horiz-adv-x="55" 
d="M-94 622q16 -3 34 -3q29 0 39.5 13t10.5 48v55h65v-53q0 -63 -30 -88.5t-85 -25.5q-21 0 -34 3v51z" />
    <glyph glyph-name="dotbelowcomb" unicode="&#x323;" horiz-adv-x="0" 
d="M-185 -149v103h69v-103h-69z" />
    <glyph glyph-name="uni0326" unicode="&#x326;" horiz-adv-x="0" 
d="M-118 -20zM-168 -149v25h8q11 0 11 12v20h-27v72h58v-90q0 -19 -9 -29t-30 -10h-11z" />
    <glyph glyph-name="uni0328" unicode="&#x328;" horiz-adv-x="0" 
d="M-53 0zM-53 -49q0 -48 -24 -74t-87 -26q-36 0 -59.5 17.5t-23.5 50.5q0 31 27 53t79 28h59q-55 -8 -85.5 -25t-30.5 -43q0 -11 8.5 -22t29.5 -11q29 0 39 14.5t10 37.5v11h58v-11z" />
    <glyph glyph-name="uni032D" unicode="&#x32d;" horiz-adv-x="0" 
d="M-86 -149l-64 95l-68 -95h-57l91 124h71l87 -124h-60z" />
    <glyph glyph-name="tonos" unicode="&#x384;" horiz-adv-x="86" 
d="M12 657v200h64l-14 -200h-50z" />
    <glyph glyph-name="dieresistonos" unicode="&#x385;" horiz-adv-x="282" 
d="M12 657zM114 657v200h64l-14 -200h-50zM200 668v125h69v-125h-69zM12 668v125h69v-125h-69z" />
    <glyph glyph-name="Alphatonos" unicode="&#x386;" horiz-adv-x="361" 
d="M11 0zM270 0l-18 138h-123l-18 -138h-74l113 823h89l107 -823h-76zM243 208q-13 106 -26 209.5t-25 212.5q-13 -109 -26.5 -212.5t-27.5 -209.5h105zM11 657v200h64l-14 -200h-50z" />
    <glyph glyph-name="anoteleia" unicode="&#x387;" horiz-adv-x="134" 
d="M31 494zM31 494v125h71v-125h-71z" />
    <glyph glyph-name="Epsilontonos" unicode="&#x388;" horiz-adv-x="367" 
d="M11 0zM123 0v823h218v-77h-142v-289h100v-76h-100v-306h147v-75h-223zM11 657v200h64l-14 -200h-50z" />
    <glyph glyph-name="Etatonos" unicode="&#x389;" horiz-adv-x="419" 
d="M11 0zM305 0v381h-106v-381h-76v823h76v-367h106v367h76v-823h-76zM11 657v200h64l-14 -200h-50z" />
    <glyph glyph-name="Iotatonos" unicode="&#x38a;" horiz-adv-x="241" 
d="M11 0zM125 0v823h76v-823h-76zM11 657v200h64l-14 -200h-50z" />
    <glyph glyph-name="Omicrontonos" unicode="&#x38c;" horiz-adv-x="388" 
d="M11 0zM97 692q0 140 129 140q130 0 130 -140v-561q0 -140 -130 -140q-129 0 -129 140v561zM280 692q0 63 -54 63q-53 0 -53 -63v-561q0 -65 53 -65q54 0 54 65v561zM11 657v200h64l-14 -200h-50z" />
    <glyph glyph-name="Upsilontonos" unicode="&#x38e;" horiz-adv-x="418" 
d="M11 0zM211 0v369l-116 454h80q10 -41 21.5 -90.5t23 -97.5t20.5 -88.5t13 -62.5q4 22 13 62.5t20.5 88.5t24 97.5t23.5 90.5h74l-120 -454v-369h-77zM11 657v200h64l-14 -200h-50z" />
    <glyph glyph-name="Omegatonos" unicode="&#x38f;" horiz-adv-x="388" 
d="M11 0zM227 755q-29 0 -43.5 -16t-14.5 -53v-412q0 -78 11 -126t30 -80v-68h-122v76h65q-25 26 -40.5 74.5t-15.5 123.5v411q0 78 31 112.5t99 34.5q69 0 100 -34.5t31 -112.5v-411q0 -75 -16 -123.5t-41 -74.5h66v-76h-122v68q19 32 29.5 80t10.5 126v412q0 37 -14.5 53
t-43.5 16zM11 657v200h64l-14 -200h-50z" />
    <glyph glyph-name="iotadieresistonos" unicode="&#x390;" horiz-adv-x="272" 
d="M2 0zM222 2q-9 -4 -21 -5.5t-22 -1.5q-45 0 -62.5 27t-17.5 72v525h69v-515q0 -23 5 -37.5t25 -14.5q6 0 12.5 1.5t11.5 4.5v-56zM109 657v200h64l-14 -200h-50zM2 668v125h69v-125h-69zM200 668v125h69v-125h-69z" />
    <glyph glyph-name="uni0413" unicode="&#x393;" horiz-adv-x="271" 
d="M260 823v-77h-147v-746h-76v823h223z" />
    <glyph glyph-name="uni0413" unicode="&#x413;" horiz-adv-x="271" 
d="M260 823v-77h-147v-746h-76v823h223z" />
    <glyph glyph-name="Delta" unicode="&#x394;" horiz-adv-x="337" 
d="M12 0l109 823h101l102 -823h-312zM169 688l-73 -613h140z" />
    <glyph glyph-name="Theta" unicode="&#x398;" horiz-adv-x="321" 
d="M117 456h92v-76h-92v76zM31 692q0 140 129 140q130 0 130 -140v-561q0 -140 -130 -140q-129 0 -129 140v561zM214 692q0 63 -54 63q-53 0 -53 -63v-561q0 -65 53 -65q54 0 54 65v561z" />
    <glyph glyph-name="Lambda" unicode="&#x39b;" horiz-adv-x="338" 
d="M224 823l102 -823h-79q-6 51 -13.5 116.5t-15 136t-15.5 140.5t-14.5 130t-11 104.5t-6.5 64.5q-2 -20 -7 -64.5t-11.5 -104.5t-15 -130t-17 -140.5t-16.5 -136t-15 -116.5h-76l109 823h102z" />
    <glyph glyph-name="Xi" unicode="&#x39e;" horiz-adv-x="281" 
d="M20 0v76h240v-76h-240zM25 746v77h230v-77h-230zM66 381v76h148v-76h-148z" />
    <glyph glyph-name="uni041F" unicode="&#x3a0;" horiz-adv-x="332" 
d="M219 0v746h-106v-746h-76v823h258v-823h-76z" />
    <glyph glyph-name="uni041F" unicode="&#x41f;" horiz-adv-x="332" 
d="M219 0v746h-106v-746h-76v823h258v-823h-76z" />
    <glyph glyph-name="Sigma" unicode="&#x3a3;" horiz-adv-x="285" 
d="M90 76h174v-76h-248v57l124 377l-112 320v69h232v-77h-158l110 -314z" />
    <glyph glyph-name="uni0424" unicode="&#x3a6;" horiz-adv-x="392" 
d="M95 239q0 -35 16 -52.5t49 -21.5v492q-65 -6 -65 -75v-343zM231 165q32 4 48 21.5t16 52.5v343q0 69 -64 75v-492zM29 577q0 36 6 63.5t20.5 46.5t39.5 29.5t63 13.5v93h75v-93q38 -3 63 -13.5t39.5 -29.5t20.5 -46.5t6 -63.5v-333q0 -36 -6 -63t-20.5 -46t-39.5 -29.5
t-63 -13.5v-92h-75v92q-38 3 -63 13.5t-39.5 29.5t-20.5 46t-6 63v333z" />
    <glyph glyph-name="uni0424" unicode="&#x424;" horiz-adv-x="392" 
d="M95 239q0 -35 16 -52.5t49 -21.5v492q-65 -6 -65 -75v-343zM231 165q32 4 48 21.5t16 52.5v343q0 69 -64 75v-492zM29 577q0 36 6 63.5t20.5 46.5t39.5 29.5t63 13.5v93h75v-93q38 -3 63 -13.5t39.5 -29.5t20.5 -46.5t6 -63.5v-333q0 -36 -6 -63t-20.5 -46t-39.5 -29.5
t-63 -13.5v-92h-75v92q-38 3 -63 13.5t-39.5 29.5t-20.5 46t-6 63v333z" />
    <glyph glyph-name="Psi" unicode="&#x3a8;" horiz-adv-x="392" 
d="M29 823h66v-472q0 -68 65 -74v546h71v-546q64 6 64 74v472h67v-467q0 -36 -6 -63t-20.5 -46t-39.5 -29.5t-63 -13.5v-204h-75v204q-38 3 -63 13.5t-39.5 29.5t-20.5 46t-6 63v467z" />
    <glyph glyph-name="Omega" unicode="&#x3a9;" horiz-adv-x="321" 
d="M160 755q-29 0 -43.5 -16t-14.5 -53v-412q0 -78 11 -126t30 -80v-68h-122v76h65q-25 26 -40.5 74.5t-15.5 123.5v411q0 78 31 112.5t99 34.5q69 0 100 -34.5t31 -112.5v-411q0 -75 -16 -123.5t-41 -74.5h66v-76h-122v68q19 32 29.5 80t10.5 126v412q0 37 -14.5 53
t-43.5 16z" />
    <glyph glyph-name="alphatonos" unicode="&#x3ac;" horiz-adv-x="333" 
d="M31 0zM31 509q0 60 22 88t64 28q35 0 56.5 -16t30.5 -37q0 23 3 47h58v-515q0 -23 5 -37.5t25 -14.5q14 0 25 6v-56q-9 -4 -21.5 -5.5t-22.5 -1.5q-32 0 -45 15.5t-17 39.5q-14 -23 -38 -39.5t-59 -16.5q-42 0 -64 27.5t-22 87.5v400zM196 513q-14 40 -55 40
q-22 0 -31.5 -12t-9.5 -40v-383q0 -27 9.5 -39t30.5 -12q22 0 35.5 11t20.5 29v406zM123 657v200h64l-14 -200h-50z" />
    <glyph glyph-name="epsilontonos" unicode="&#x3ad;" horiz-adv-x="290" 
d="M32 0zM120 657v200h64l-14 -200h-50zM101 121q0 -31 10 -51.5t40 -20.5t37 20t7 52v116h65v-135q0 -51 -27.5 -81t-86.5 -30t-86.5 29t-27.5 79v144q0 33 15 49.5t40 21.5q-26 9 -38.5 25t-12.5 45v133q0 57 25.5 84.5t84.5 27.5q60 0 86 -28t26 -86v-120h-63v108
q0 24 -12 39t-35 15q-44 0 -44 -52v-97q0 -32 7.5 -47t37.5 -15h62v-58h-60q-50 0 -50 -41v-126z" />
    <glyph glyph-name="etatonos" unicode="&#x3ae;" 
d="M37 0zM199 -139v650q0 27 -9 38.5t-30 11.5q-16 0 -31 -9t-23 -28v-524h-69v619h59q1 -11 1.5 -22.5t0.5 -23.5q14 26 37 41t52 15q42 0 61.5 -27t19.5 -87v-654h-69zM127 657v200h64l-14 -200h-50z" />
    <glyph glyph-name="iotatonos" unicode="&#x3af;" horiz-adv-x="176" 
d="M39 0zM162 2q-9 -4 -21 -5.5t-22 -1.5q-45 0 -62.5 27t-17.5 72v525h69v-515q0 -23 5 -37.5t25 -14.5q6 0 12.5 1.5t11.5 4.5v-56zM50 657v200h64l-14 -200h-50z" />
    <glyph glyph-name="upsilondieresistonos" unicode="&#x3b0;" horiz-adv-x="319" 
d="M26 0zM133 657v200h64l-14 -200h-50zM271 114q0 -60 -27.5 -91.5t-86.5 -31.5q-58 0 -86 31.5t-28 91.5v505h68v-502q0 -56 46 -56q47 0 47 56v502h67v-505zM26 668v125h69v-125h-69zM223 668v125h69v-125h-69z" />
    <glyph glyph-name="alpha" unicode="&#x3b1;" horiz-adv-x="333" 
d="M31 509q0 60 22 88t64 28q35 0 56.5 -16t30.5 -37q0 23 3 47h58v-515q0 -23 5 -37.5t25 -14.5q14 0 25 6v-56q-9 -4 -21.5 -5.5t-22.5 -1.5q-32 0 -45 15.5t-17 39.5q-14 -23 -38 -39.5t-59 -16.5q-42 0 -64 27.5t-22 87.5v400zM196 513q-14 40 -55 40q-22 0 -31.5 -12
t-9.5 -40v-383q0 -27 9.5 -39t30.5 -12q22 0 35.5 11t20.5 29v406z" />
    <glyph glyph-name="beta" unicode="&#x3b2;" horiz-adv-x="304" 
d="M171 -9q-20 0 -35.5 3.5t-29.5 8.5v-142h-69v848q0 60 27.5 91.5t86.5 31.5q58 0 85.5 -31.5t27.5 -91.5v-201q0 -29 -11 -47t-25 -24q20 -9 31 -30.5t11 -68.5v-220q0 -69 -23 -98t-76 -29zM106 75q18 -15 48 -15q25 0 36.5 13t11.5 45v207q0 35 -8.5 52.5t-31.5 17.5
h-17v67h17q16 0 26 10t10 36v185q0 12 -1 24t-5.5 21.5t-14 16t-25.5 6.5t-25.5 -6.5t-14 -16t-5.5 -21.5t-1 -24v-618z" />
    <glyph glyph-name="uni04AF" unicode="&#x3b3;" horiz-adv-x="277" 
d="M171 -139h-69v179l-91 579h69l56 -413l62 413h66l-93 -579v-179z" />
    <glyph glyph-name="uni04AF" unicode="&#x4af;" horiz-adv-x="277" 
d="M171 -139h-69v179l-91 579h69l56 -413l62 413h66l-93 -579v-179z" />
    <glyph glyph-name="delta" unicode="&#x3b4;" horiz-adv-x="293" 
d="M154 760q42 -32 74 -83.5t32 -119.5v-443q0 -60 -28 -91.5t-86 -31.5t-86.5 31.5t-28.5 91.5v391q0 65 25.5 94.5t70.5 29.5q31 0 60 -13q-6 27 -21 50.5t-34.5 42t-42 31.5t-44.5 20v63h213v-63h-104zM146 61q46 0 46 56v431q-20 16 -46 16q-47 0 -47 -56v-391
q0 -56 47 -56z" />
    <glyph glyph-name="epsilon" unicode="&#x3b5;" horiz-adv-x="290" 
d="M101 121q0 -31 10 -51.5t40 -20.5t37 20t7 52v116h65v-135q0 -51 -27.5 -81t-86.5 -30t-86.5 29t-27.5 79v144q0 33 15 49.5t40 21.5q-26 9 -38.5 25t-12.5 45v133q0 57 25.5 84.5t84.5 27.5q60 0 86 -28t26 -86v-120h-63v108q0 24 -12 39t-35 15q-44 0 -44 -52v-97
q0 -32 7.5 -47t37.5 -15h62v-58h-60q-50 0 -50 -41v-126z" />
    <glyph glyph-name="zeta" unicode="&#x3b6;" horiz-adv-x="257" 
d="M97 186q0 -29 5 -43.5t13 -24.5q7 -9 19.5 -18.5t25 -18.5t24.5 -17t19 -13q15 -11 26.5 -31.5t11.5 -62.5q0 -55 -23 -80.5t-68 -25.5h-82v72h75q17 0 26.5 7.5t9.5 25.5q0 15 -6 26t-16 20q-18 17 -45.5 34.5t-47.5 37.5q-10 10 -16.5 20.5t-10.5 24t-5.5 32.5t-1.5 46
v38q0 24 1.5 43t5.5 39.5t11.5 46.5t19.5 64l108 331h-142v64h205v-64l-108 -342q-11 -35 -17.5 -59t-10.5 -43.5t-5 -38t-1 -41.5v-49z" />
    <glyph glyph-name="eta" unicode="&#x3b7;" 
d="M199 -139v650q0 27 -9 38.5t-30 11.5q-16 0 -31 -9t-23 -28v-524h-69v619h59q1 -11 1.5 -22.5t0.5 -23.5q14 26 37 41t52 15q42 0 61.5 -27t19.5 -87v-654h-69z" />
    <glyph glyph-name="theta" unicode="&#x3b8;" horiz-adv-x="291" 
d="M31 708q0 60 28 92t86 32q59 0 86.5 -32t27.5 -92v-594q0 -60 -27.5 -91.5t-86.5 -31.5q-58 0 -86 31.5t-28 91.5v594zM192 385h-93v-268q0 -56 46 -56q47 0 47 56v268zM99 455h93v250q0 56 -47 56q-46 0 -46 -56v-250z" />
    <glyph glyph-name="iota" unicode="&#x3b9;" horiz-adv-x="176" 
d="M162 2q-9 -4 -21 -5.5t-22 -1.5q-45 0 -62.5 27t-17.5 72v525h69v-515q0 -23 5 -37.5t25 -14.5q6 0 12.5 1.5t11.5 4.5v-56z" />
    <glyph glyph-name="uni043A" unicode="&#x3ba;" horiz-adv-x="299" 
d="M216 0l-112 318v-318h-67v619h67v-267l112 267h73l-121 -274l124 -345h-76z" />
    <glyph glyph-name="uni043A" unicode="&#x43a;" horiz-adv-x="299" 
d="M216 0l-112 318v-318h-67v619h67v-267l112 267h73l-121 -274l124 -345h-76z" />
    <glyph glyph-name="lambda" unicode="&#x3bb;" horiz-adv-x="277" 
d="M12 822q7 3 17.5 4.5t21.5 1.5q32 0 52 -11.5t32.5 -33t19 -52.5t12.5 -69l97 -662h-68l-57 448l-61 -448h-67l92 611l-14 91q-5 27 -14.5 42t-33.5 15q-5 0 -13 -1t-16 -4v68z" />
    <glyph glyph-name="mu" unicode="&#x3bc;" horiz-adv-x="334" 
d="M37 -139v758h69v-492q0 -15 1 -27t5.5 -20.5t13 -13.5t24.5 -5q15 0 27 7t20 30v521h69v-515q0 -23 5 -37.5t25 -14.5q6 0 12.5 1.5t11.5 4.5v-56q-8 -4 -20.5 -5.5t-20.5 -1.5q-23 0 -41 11.5t-26 31.5q-17 -25 -37 -32t-38 -7q-20 0 -32 6v-144h-68z" />
    <glyph glyph-name="xi" unicode="&#x3be;" horiz-adv-x="256" 
d="M34 552q0 70 29.5 123.5t73.5 83.5h-102v64h203v-64q-63 -19 -100 -75t-37 -141v-48q0 -30 16.5 -35.5t45.5 -5.5h44v-59h-44q-34 0 -50 -7t-16 -34v-153q0 -35 2.5 -54t15.5 -32q7 -7 17 -14.5t21 -14.5t21.5 -14l19.5 -13q21 -15 34 -36.5t13 -63.5q0 -57 -25 -82.5
t-66 -25.5h-82v72h75q19 0 27.5 7.5t8.5 25.5t-7 29t-18 19q-14 11 -39.5 26.5t-46.5 34.5q-22 20 -30 43t-8 61v182q0 32 14.5 48.5t39.5 22.5q-26 8 -38 24t-12 45v61z" />
    <glyph glyph-name="pi" unicode="&#x3c0;" horiz-adv-x="352" 
d="M338 2q-9 -4 -21.5 -5.5t-22.5 -1.5q-46 0 -63 28.5t-17 72.5v462h-94v-558h-69v558h-38v61h320v-61h-50v-452q0 -27 5 -40.5t25 -13.5q14 0 25 6v-56z" />
    <glyph glyph-name="rho" unicode="&#x3c1;" horiz-adv-x="300" 
d="M199 486q0 34 -9.5 52.5t-38.5 18.5q-48 0 -48 -55v-402q8 -22 22.5 -31t32.5 -9q21 0 31 11.5t10 38.5v376zM268 104q0 -62 -24.5 -87.5t-63.5 -25.5q-28 0 -47 10.5t-30 27.5v-168h-69v644q0 60 28.5 92t88.5 32t88.5 -32t28.5 -92v-401z" />
    <glyph glyph-name="sigma1" unicode="&#x3c2;" horiz-adv-x="278" 
d="M189 503q0 23 -11.5 38.5t-34.5 15.5q-22 0 -33.5 -14.5t-11.5 -40.5v-332q0 -37 18 -54q5 -5 15.5 -12t22.5 -14.5t23 -15t19 -13.5q19 -14 32.5 -36.5t13.5 -66.5q0 -57 -24.5 -82t-66.5 -25h-82v72h75q18 0 27 7.5t9 26.5q0 17 -7.5 28.5t-18.5 20.5q-9 7 -20 14.5
t-22.5 15t-22.5 14.5t-18 14q-13 11 -26.5 36t-13.5 69v332q0 57 27 92.5t85 35.5t83.5 -35t25.5 -92v-134h-63v135z" />
    <glyph glyph-name="sigma" unicode="&#x3c3;" horiz-adv-x="327" 
d="M31 495q0 60 27.5 92t86.5 32h171v-71h-80q8 -8 13.5 -21.5t5.5 -35.5v-377q0 -60 -26 -91.5t-84 -31.5q-59 0 -86.5 31.5t-27.5 91.5v381zM191 476q0 34 -9 52.5t-37 18.5q-29 0 -38 -18.5t-9 -52.5v-345q0 -32 9 -51t37 -19q47 0 47 55v360z" />
    <glyph glyph-name="tau" unicode="&#x3c4;" horiz-adv-x="246" 
d="M157 105q0 -23 5 -38t26 -15q14 0 23 6v-55q-8 -5 -20 -6.5t-22 -1.5q-23 0 -38.5 7.5t-25 20.5t-13.5 31.5t-4 39.5v455h-75v70h220v-70h-76v-444v0z" />
    <glyph glyph-name="upsilon" unicode="&#x3c5;" horiz-adv-x="297" 
d="M262 114q0 -60 -27.5 -91.5t-86.5 -31.5q-58 0 -86 31.5t-28 91.5v505h68v-502q0 -56 46 -56q47 0 47 56v502h67v-505z" />
    <glyph glyph-name="uni0444" unicode="&#x3c6;" horiz-adv-x="391" 
d="M159 -139v131q-128 4 -128 122v391q0 57 31.5 89t96.5 34v195h68v-195q65 -2 96.5 -34t31.5 -89v-391q0 -118 -128 -122v-131h-68zM97 114q0 -27 17.5 -41.5t46.5 -14.5v502q-29 0 -46.5 -14.5t-17.5 -40.5v-391zM289 505q0 26 -17.5 40.5t-46.5 14.5v-502
q29 0 46.5 14.5t17.5 41.5v391z" />
    <glyph glyph-name="uni0444" unicode="&#x444;" horiz-adv-x="391" 
d="M159 -139v131q-128 4 -128 122v391q0 57 31.5 89t96.5 34v195h68v-195q65 -2 96.5 -34t31.5 -89v-391q0 -118 -128 -122v-131h-68zM97 114q0 -27 17.5 -41.5t46.5 -14.5v502q-29 0 -46.5 -14.5t-17.5 -40.5v-391zM289 505q0 26 -17.5 40.5t-46.5 14.5v-502
q29 0 46.5 14.5t17.5 41.5v391z" />
    <glyph glyph-name="chi" unicode="&#x3c7;" horiz-adv-x="284" 
d="M205 -139q-9 40 -19 88t-19 95t-16 89t-11 71q-5 -29 -12 -71t-15.5 -89t-18 -95t-18.5 -88h-69l90 403l-78 355h72q6 -31 13.5 -71.5l15 -81t14 -76t9.5 -55.5q3 20 9 55t13.5 75.5t15.5 81t14 72.5h69l-78 -354l91 -404h-72z" />
    <glyph glyph-name="psi" unicode="&#x3c8;" horiz-adv-x="392" 
d="M294 619h67v-505q0 -118 -131 -122v-131h-69v131q-130 5 -130 122v505h66v-505q0 -27 19 -41.5t48 -14.5v561h63v-561q30 0 48.5 14.5t18.5 41.5v505z" />
    <glyph glyph-name="omega" unicode="&#x3c9;" horiz-adv-x="425" 
d="M245 116q0 -26 9 -40.5t32 -14.5q28 0 34 21.5t6 51.5v368q0 26 -12 41t-35 15v71q59 0 86.5 -32t27.5 -92v-391q0 -123 -99 -123q-34 0 -53 14.5t-29 38.5q-11 -23 -29 -38t-53 -15q-49 0 -74 31.5t-25 91.5v391q0 60 27.5 92t86.5 32v-71q-47 0 -47 -56v-368
q0 -33 6.5 -53t34.5 -20q23 0 31.5 14.5t8.5 40.5v312h66v-312z" />
    <glyph glyph-name="iotadieresis" unicode="&#x3ca;" horiz-adv-x="235" 
d="M8 0zM207 2q-9 -4 -21 -5.5t-22 -1.5q-45 0 -62.5 27t-17.5 72v525h69v-515q0 -23 5 -37.5t25 -14.5q6 0 12.5 1.5t11.5 4.5v-56zM158 668v125h69v-125h-69zM8 668v125h69v-125h-69z" />
    <glyph glyph-name="upsilondieresis" unicode="&#x3cb;" horiz-adv-x="297" 
d="M34 0zM262 114q0 -60 -27.5 -91.5t-86.5 -31.5q-58 0 -86 31.5t-28 91.5v505h68v-502q0 -56 46 -56q47 0 47 56v502h67v-505zM189 668v125h69v-125h-69zM39 668v125h69v-125h-69z" />
    <glyph glyph-name="omicrontonos" unicode="&#x3cc;" horiz-adv-x="291" 
d="M31 0zM31 505q0 60 28 92t86 32q57 0 85.5 -32t28.5 -92v-391q0 -60 -28.5 -91.5t-85.5 -31.5q-58 0 -86 31.5t-28 91.5v391zM192 503q0 26 -9.5 40.5t-37.5 14.5t-37.5 -14.5t-9.5 -40.5v-389q0 -26 9.5 -39.5t37.5 -13.5t37.5 14t9.5 41v387zM120 657v200h64l-14 -200
h-50z" />
    <glyph glyph-name="upsilontonos" unicode="&#x3cd;" horiz-adv-x="297" 
d="M34 0zM123 657v200h64l-14 -200h-50zM262 114q0 -60 -27.5 -91.5t-86.5 -31.5q-58 0 -86 31.5t-28 91.5v505h68v-502q0 -56 46 -56q47 0 47 56v502h67v-505z" />
    <glyph glyph-name="omegatonos" unicode="&#x3ce;" horiz-adv-x="425" 
d="M31 0zM245 116q0 -26 9 -40.5t32 -14.5q28 0 34 21.5t6 51.5v368q0 26 -12 41t-35 15v71q59 0 86.5 -32t27.5 -92v-391q0 -123 -99 -123q-34 0 -53 14.5t-29 38.5q-11 -23 -29 -38t-53 -15q-49 0 -74 31.5t-25 91.5v391q0 60 27.5 92t86.5 32v-71q-47 0 -47 -56v-368
q0 -33 6.5 -53t34.5 -20q23 0 31.5 14.5t8.5 40.5v312h66v-312zM188 657v200h64l-14 -200h-50z" />
    <glyph glyph-name="uni0402" unicode="&#x402;" horiz-adv-x="418" 
d="M293 338q0 33 -14 48t-43 15q-16 0 -27 -4t-22 -9v-388h-76v746h-100v77h285v-77h-109v-282q10 5 27 9.5t39 4.5q54 0 85 -35t31 -105v-351q0 -70 -32 -100.5t-98 -30.5q-11 0 -20.5 1t-17.5 3v69q9 -2 18.5 -3t17.5 -1q29 0 42.5 14t13.5 48v351z" />
    <glyph glyph-name="uni0403" unicode="&#x403;" horiz-adv-x="271" 
d="M37 0zM81 860l112 161h89l-135 -161h-66zM260 823v-77h-147v-746h-76v823h223z" />
    <glyph glyph-name="uni0404" unicode="&#x404;" horiz-adv-x="309" 
d="M213 293h70v-161q0 -72 -28 -106.5t-93 -34.5q-131 0 -131 139v560q0 72 33 107t96 35q123 0 123 -140v-142h-70v142q0 63 -51 63q-53 0 -53 -64v-234h145v-76h-145v-251q0 -63 54 -63q50 0 50 64v162z" />
    <glyph glyph-name="uni0409" unicode="&#x409;" horiz-adv-x="575" 
d="M333 823v-367h54q72 0 105.5 -35t33.5 -113v-159q0 -78 -34 -113.5t-106 -35.5h-129v746h-69l-16 -278q-5 -79 -9.5 -136.5t-9 -99.5t-9 -71t-9.5 -50q-7 -29 -15.5 -49.5t-21.5 -34.5t-31.5 -20.5t-43.5 -6.5h-13v76h11q20 0 31 9t20 41q21 78 36 357l18 340h207z
M451 270q0 22 -2 42t-8.5 35.5t-19 25t-34.5 9.5h-54v-306h53q33 0 49 17t16 55v122z" />
    <glyph glyph-name="uni040A" unicode="&#x40a;" horiz-adv-x="504" 
d="M296 823v-367h52q72 0 106 -35t34 -113v-159q0 -78 -34 -113.5t-107 -35.5h-128v380h-106v-380h-76v823h76v-367h106v367h77zM413 270q0 22 -2 42t-8.5 35.5t-19.5 25t-35 9.5h-52v-306h51q34 0 50 17t16 55v122z" />
    <glyph glyph-name="uni040B" unicode="&#x40b;" horiz-adv-x="418" 
d="M295 823v-77h-108v-282q10 4 26.5 9t39.5 5q54 0 85 -35t31 -105v-338h-76v338q0 33 -14.5 48t-42.5 15q-16 0 -27 -4t-22 -10v-387h-76v746h-101v77h285z" />
    <glyph glyph-name="uni040C" unicode="&#x40c;" horiz-adv-x="349" 
d="M37 0zM257 0l-144 405v-405h-76v823h76v-355l139 355h82l-156 -375l166 -448h-87zM119 860l112 161h89l-135 -161h-66z" />
    <glyph glyph-name="uni040D" unicode="&#x40d;" horiz-adv-x="332" 
d="M28 0zM162 860l-134 161h88l113 -161h-67zM37 0v823h69v-572l100 572h89v-823h-70v583l-115 -583h-73z" />
    <glyph glyph-name="uni040E" unicode="&#x40e;" horiz-adv-x="340" 
d="M9 0zM307 1015q0 -45 -8 -74t-24.5 -46.5t-41.5 -24t-58 -6.5q-39 0 -65 6.5t-41.5 24t-22.5 46.5t-7 74h61q0 -36 5 -58t14.5 -33.5t23 -15t30.5 -3.5q15 0 28 3.5t23 15t15.5 33.5t5.5 58h62zM189 124q-8 -38 -18.5 -62t-28.5 -38t-46.5 -19t-71.5 -5h-11v76h11
q20 0 36 2t28 9t19.5 20t12.5 34l23 110l-134 572h80l84 -422l82 422h75z" />
    <glyph glyph-name="uni040F" unicode="&#x40f;" horiz-adv-x="332" 
d="M136 -110v110h-99v823h76v-747h106v747h76v-823h-99v-110h-60z" />
    <glyph glyph-name="uni0411" unicode="&#x411;" horiz-adv-x="322" 
d="M260 823v-77h-147v-289h54q72 0 105.5 -35t33.5 -113v-160q0 -78 -34 -113.5t-106 -35.5h-129v823h223zM231 312q0 71 -64 71h-54v-307h53q65 0 65 72v164z" />
    <glyph glyph-name="uni0414" unicode="&#x414;" horiz-adv-x="387" 
d="M10 -110v186h17q15 0 25.5 10.5t19.5 39.5q5 16 9 40.5t8 63.5t8 95t9 137l20 361h207v-747h43v-186h-60v110h-246v-110h-60zM257 76v670h-69l-17 -287q-11 -180 -24.5 -272t-27.5 -111h138z" />
    <glyph glyph-name="uni0416" unicode="&#x416;" horiz-adv-x="533" 
d="M4 0l161 450l-152 373h82l133 -357v357h76v-357l133 357h81l-151 -373l161 -450h-87l-137 405v-405h-76v405l-137 -405h-87z" />
    <glyph glyph-name="uni0418" unicode="&#x418;" horiz-adv-x="332" 
d="M37 0v823h69v-572l100 572h89v-823h-70v583l-115 -583h-73z" />
    <glyph glyph-name="uni0419" unicode="&#x419;" horiz-adv-x="332" 
d="M32 0zM300 1015q0 -45 -8 -74t-24.5 -46.5t-41.5 -24t-58 -6.5q-39 0 -65 6.5t-41.5 24t-22.5 46.5t-7 74h61q0 -36 5 -58t14.5 -33.5t23 -15t30.5 -3.5q15 0 28 3.5t23 15t15.5 33.5t5.5 58h62zM37 0v823h69v-572l100 572h89v-823h-70v583l-115 -583h-73z" />
    <glyph glyph-name="uni041B" unicode="&#x41b;" horiz-adv-x="371" 
d="M10 0v76h11q17 0 29 8t22 42q4 15 8.5 39t8.5 62.5t8 95.5t9 139l20 361h207v-823h-76v746h-69l-17 -295q-6 -97 -12 -161.5t-11.5 -105.5t-10.5 -62t-8 -31q-17 -51 -43.5 -71t-62.5 -20h-13z" />
    <glyph glyph-name="uni0423" unicode="&#x423;" horiz-adv-x="340" 
d="M189 124q-8 -38 -18.5 -62t-28.5 -38t-46.5 -19t-71.5 -5h-11v76h11q20 0 36 2t28 9t19.5 20t12.5 34l23 110l-134 572h80l84 -422l82 422h75z" />
    <glyph glyph-name="uni0426" unicode="&#x426;" horiz-adv-x="349" 
d="M278 -110v110h-241v823h76v-747h106v747h76v-747h43v-186h-60z" />
    <glyph glyph-name="uni0427" unicode="&#x427;" horiz-adv-x="323" 
d="M209 0v358q-9 -5 -26.5 -9.5t-39.5 -4.5q-54 0 -85 35t-31 105v339h76v-326q0 -42 11.5 -61.5t45.5 -19.5q16 0 27 4t22 10v393h76v-823h-76z" />
    <glyph glyph-name="uni0428" unicode="&#x428;" horiz-adv-x="467" 
d="M39 0v823h76v-747h82v747h72v-747h82v747h76v-823h-388z" />
    <glyph glyph-name="uni0429" unicode="&#x429;" horiz-adv-x="482" 
d="M411 -110v110h-372v823h76v-747h82v747h73v-747h81v747h76v-747h44v-186h-60z" />
    <glyph glyph-name="uni042A" unicode="&#x42a;" horiz-adv-x="397" 
d="M187 823v-366h54q72 0 105.5 -35t33.5 -113v-160q0 -78 -34 -113.5t-106 -35.5h-129v746h-100v77h176zM305 312q0 71 -64 71h-54v-307h53q65 0 65 72v164z" />
    <glyph glyph-name="uni042B" unicode="&#x42b;" horiz-adv-x="477" 
d="M37 0zM361 0v823h76v-823h-76zM113 823v-366h54q72 0 105.5 -35t33.5 -113v-160q0 -78 -34 -113.5t-106 -35.5h-129v823h76zM231 312q0 71 -64 71h-54v-307h53q65 0 65 72v164z" />
    <glyph glyph-name="uni042C" unicode="&#x42c;" horiz-adv-x="322" 
d="M113 823v-366h54q72 0 105.5 -35t33.5 -113v-160q0 -78 -34 -113.5t-106 -35.5h-129v823h76zM231 312q0 71 -64 71h-54v-307h53q65 0 65 72v164z" />
    <glyph glyph-name="uni042D" unicode="&#x42d;" horiz-adv-x="309" 
d="M96 131q0 -64 50 -64q54 0 54 63v251h-145v76h145v234q0 64 -54 64q-50 0 -50 -63v-142h-70v142q0 140 122 140q130 0 130 -142v-560q0 -139 -132 -139q-65 0 -92.5 34.5t-27.5 106.5v161h70v-162z" />
    <glyph glyph-name="uni042E" unicode="&#x42e;" horiz-adv-x="477" 
d="M39 0v823h76v-366h71v235q0 140 130 140q129 0 129 -140v-561q0 -140 -129 -140q-130 0 -130 140v250h-71v-381h-76zM369 692q0 63 -53 63t-53 -63v-561q0 -64 53 -64t53 64v561z" />
    <glyph glyph-name="uni042F" unicode="&#x42f;" horiz-adv-x="332" 
d="M18 0q17 98 34 195t34 195q-31 16 -45.5 45t-14.5 76v164q0 81 35.5 114.5t107.5 33.5h125v-823h-76v373h-45q-12 0 -15 1l-57 -374h-83zM103 520q0 -38 13.5 -58t51.5 -20h50v304h-49q-36 0 -51 -16t-15 -55v-155z" />
    <glyph glyph-name="uni0431" unicode="&#x431;" horiz-adv-x="295" 
d="M34 678q0 45 7.5 71t21.5 39.5t33.5 18.5t43.5 7q22 2 35.5 3.5t21 5t10 10t2.5 17.5v10h54v-10q0 -31 -5 -48.5t-15.5 -27t-26.5 -13.5t-38 -7q-20 -3 -34.5 -6.5t-23.5 -11t-13.5 -21t-4.5 -37.5v-65q30 16 64 16q47 0 71.5 -30t24.5 -94v-391q0 -60 -28 -91.5
t-86 -31.5t-86 31.5t-28 91.5v564zM148 561q-28 0 -46 -17v-427q0 -56 46 -56q47 0 47 56v388q0 56 -47 56z" />
    <glyph glyph-name="uni0432" unicode="&#x432;" horiz-adv-x="308" 
d="M203 501q0 48 -47 48h-50v-203h50q26 0 36.5 10t10.5 32v113zM205 246q0 23 -11.5 32.5t-37.5 9.5h-50v-218h50q49 0 49 47v129zM37 0v619h119q60 0 85.5 -26t25.5 -83v-121q0 -56 -46 -69q22 -4 38.5 -19t16.5 -49v-147q0 -55 -30 -80t-90 -25h-119z" />
    <glyph glyph-name="uni0433" unicode="&#x433;" horiz-adv-x="218" 
d="M37 0v619h167v-70h-98v-549h-69z" />
    <glyph glyph-name="uni0434" unicode="&#x434;" horiz-adv-x="369" 
d="M315 70h43v-169h-52v99h-242v-99h-53v169h10q16 0 27.5 9t20.5 32q5 13 9 29.5t8 43.5t7.5 67.5t8.5 102.5l19 265h194v-549zM178 549l-17 -214q-3 -34 -6.5 -74t-8.5 -77.5t-12.5 -68t-17.5 -45.5h130v479h-68z" />
    <glyph glyph-name="uni0436" unicode="&#x436;" horiz-adv-x="418" 
d="M178 0v318l-100 -318h-72l114 344l-112 275h69l101 -267v267h61v-267l101 267h69l-111 -275l113 -344h-72l-100 318v-318h-61z" />
    <glyph glyph-name="uni0437" unicode="&#x437;" horiz-adv-x="290" 
d="M187 247q0 41 -49 41h-27v58h28q20 0 32.5 9t12.5 33v117q0 24 -12 38t-35 14t-33.5 -14.5t-10.5 -39.5v-108h-62v120q0 58 26 86t85 28t84.5 -27.5t25.5 -84.5v-133q0 -29 -12 -45t-38 -25q24 -5 39 -21.5t15 -49.5v-144q0 -50 -27.5 -79t-85.5 -29q-59 0 -86.5 30
t-27.5 81v135h64v-97q0 -17 1 -33.5t6 -29.5t15 -20.5t28 -7.5q24 0 34 15.5t10 45.5v137z" />
    <glyph glyph-name="uni0438" unicode="&#x438;" horiz-adv-x="316" 
d="M37 0v619h69v-410l103 410h70v-619h-67v441l-113 -441h-62z" />
    <glyph glyph-name="uni0439" unicode="&#x439;" horiz-adv-x="316" 
d="M24 0zM292 811q0 -45 -8 -74t-24.5 -46.5t-41.5 -24t-58 -6.5q-39 0 -65 6.5t-41.5 24t-22.5 46.5t-7 74h61q0 -36 5 -58t14.5 -33.5t23 -15t30.5 -3.5q15 0 28 3.5t23 15t15.5 33.5t5.5 58h62zM37 0v619h69v-410l103 410h70v-619h-67v441l-113 -441h-62z" />
    <glyph glyph-name="uni043B" unicode="&#x43b;" horiz-adv-x="352" 
d="M10 0v70h11q17 0 28 6.5t20 30.5q5 13 9 30.5t7.5 45.5t7 69t8.5 101l20 266h193v-619h-69v548h-68l-16 -212q-5 -60 -9.5 -104.5t-10 -77.5t-11 -56t-12.5 -39q-12 -29 -32 -44t-64 -15h-12z" />
    <glyph glyph-name="uni043C" unicode="&#x43c;" horiz-adv-x="441" 
d="M337 0v181q0 69 1 138t3 138l-90 -457h-64l-88 457q2 -69 3 -138t1 -138v-181h-66v619h98l84 -487l86 487h98v-619h-66z" />
    <glyph glyph-name="uni043D" unicode="&#x43d;" horiz-adv-x="306" 
d="M37 0v619h69v-257h93v257h69v-619h-69v292h-93v-292h-69z" />
    <glyph glyph-name="uni043F" unicode="&#x43f;" horiz-adv-x="306" 
d="M37 0v619h231v-619h-69v549h-93v-549h-69z" />
    <glyph glyph-name="uni0442" unicode="&#x442;" horiz-adv-x="246" 
d="M88 0v549h-75v70h220v-70h-76v-549h-69z" />
    <glyph glyph-name="uni0446" unicode="&#x446;" horiz-adv-x="322" 
d="M258 -99v99h-221v619h69v-549h93v549h69v-549h43v-169h-53z" />
    <glyph glyph-name="uni0447" unicode="&#x447;" horiz-adv-x="297" 
d="M190 0v298q-8 -4 -23 -8t-35 -4q-48 0 -76 28t-28 85v220h69v-222q0 -26 11.5 -38t38.5 -12q14 0 24 3t19 8v261h69v-619h-69z" />
    <glyph glyph-name="uni0448" unicode="&#x448;" horiz-adv-x="438" 
d="M37 0v619h69v-549h80v549h66v-549h80v549h69v-619h-364z" />
    <glyph glyph-name="uni0449" unicode="&#x449;" horiz-adv-x="455" 
d="M392 -100v100h-355v619h69v-549h80v549h66v-549h80v549h69v-549h43v-170h-52z" />
    <glyph glyph-name="uni044A" unicode="&#x44a;" horiz-adv-x="357" 
d="M157 371h51q62 0 90.5 -29.5t28.5 -95.5v-121q0 -66 -28.5 -95.5t-91.5 -29.5h-119v549h-75v70h144v-248zM259 247q0 56 -54 56h-48v-233h47q55 0 55 57v120z" />
    <glyph glyph-name="uni044B" unicode="&#x44b;" horiz-adv-x="453" 
d="M37 0zM106 619v-248h51q62 0 90.5 -29.5t28.5 -95.5v-121q0 -66 -28.5 -95.5t-91.5 -29.5h-119v619h69zM207 247q0 56 -52 56h-49v-233h48q53 0 53 57v120zM344 0v619h69v-619h-69z" />
    <glyph glyph-name="uni044C" unicode="&#x44c;" horiz-adv-x="305" 
d="M106 619v-248h51q62 0 90.5 -29.5t28.5 -95.5v-121q0 -66 -28.5 -95.5t-91.5 -29.5h-119v619h69zM207 247q0 56 -52 56h-49v-233h48q53 0 53 57v120z" />
    <glyph glyph-name="uni044D" unicode="&#x44d;" horiz-adv-x="284" 
d="M139 629q59 0 86 -35.5t27 -92.5v-384q0 -57 -27 -91.5t-86 -34.5q-58 0 -84 33.5t-26 90.5v123h64v-122q0 -26 11 -40.5t34 -14.5q24 0 35.5 15t11.5 41v171h-114v59h114v156q0 26 -11.5 40.5t-34.5 14.5q-24 0 -34.5 -15t-10.5 -40v-108h-63v107q0 57 25.5 92t82.5 35z
" />
    <glyph glyph-name="uni044E" unicode="&#x44e;" horiz-adv-x="438" 
d="M39 0v619h69v-271h70v157q0 60 28 92t86 32q57 0 85.5 -32t28.5 -92v-391q0 -60 -28.5 -91.5t-85.5 -31.5q-58 0 -86 31.5t-28 91.5v164h-70v-278h-69zM339 503q0 26 -9.5 40.5t-37.5 14.5t-37.5 -14.5t-9.5 -40.5v-389q0 -26 9.5 -39.5t37.5 -13.5t37.5 14t9.5 41v387z
" />
    <glyph glyph-name="uni044F" unicode="&#x44f;" horiz-adv-x="302" 
d="M18 0l60 293q-27 11 -40 32.5t-13 58.5v124q0 61 31 86t96 25h112v-619h-69v278h-35h-9t-7 1l-55 -279h-71zM94 402q0 -32 11.5 -48.5t46.5 -16.5h43v211h-43q-29 0 -43.5 -12t-14.5 -41v-93z" />
    <glyph glyph-name="uni0452" unicode="&#x452;" 
d="M199 511q0 27 -9 38.5t-28 11.5q-17 0 -32.5 -8.5t-23.5 -28.5v-524h-69v700h-32v59h32v64h69v-64h129v-59h-129v-115q14 20 34.5 32t49.5 12q40 0 59 -27t19 -87v-528q0 -70 -30 -100.5t-90 -30.5q-10 0 -19 1t-16 3v69q8 -2 17 -3t16 -1q28 0 40.5 14t12.5 48v524z" />
    <glyph glyph-name="uni0453" unicode="&#x453;" horiz-adv-x="239" 
d="M37 0zM43 656l112 161h89l-135 -161h-66zM37 0v619h167v-70h-98v-549h-69z" />
    <glyph glyph-name="uni0454" unicode="&#x454;" horiz-adv-x="284" 
d="M99 288v-171q0 -26 11.5 -41t34.5 -15t34 14.5t11 40.5v122h64v-123q0 -57 -25.5 -90.5t-83.5 -33.5q-59 0 -86.5 34.5t-27.5 91.5v384q0 57 27.5 92.5t85.5 35.5t83 -35t25 -92v-107h-62v108q0 25 -11 40t-34 15t-34.5 -14.5t-11.5 -40.5v-156h114v-59h-114z" />
    <glyph glyph-name="uni0459" unicode="&#x459;" horiz-adv-x="515" 
d="M10 0v70h11q17 0 28 7t20 30q4 10 8 26t7.5 40.5t7.5 58.5t7 82l22 305h193v-249h52q61 0 90 -29t29 -95v-121q0 -66 -29 -95.5t-91 -29.5h-120v548h-68l-18 -239q-7 -89 -15 -144.5t-16 -81.5q-12 -42 -35 -62.5t-71 -20.5h-12zM416 231q0 33 -10.5 52t-42.5 19h-49
v-232h48q26 0 40 13t14 43v105z" />
    <glyph glyph-name="uni045A" unicode="&#x45a;" horiz-adv-x="467" 
d="M37 0v619h69v-252h93v252h69v-252h51q62 0 90.5 -29t28.5 -95v-118q0 -66 -28.5 -95.5t-91.5 -29.5h-119v297h-93v-297h-69zM369 244q0 56 -52 56h-49v-230h48q53 0 53 57v117z" />
    <glyph glyph-name="uni045C" unicode="&#x45c;" horiz-adv-x="299" 
d="M37 0zM74 656l112 161h89l-135 -161h-66zM216 0l-112 318v-318h-67v619h67v-267l112 267h73l-121 -274l124 -345h-76z" />
    <glyph glyph-name="uni045D" unicode="&#x45d;" horiz-adv-x="316" 
d="M23 0zM157 656l-134 161h88l113 -161h-67zM37 0v619h69v-410l103 410h70v-619h-67v441l-113 -441h-62z" />
    <glyph glyph-name="uni045E" unicode="&#x45e;" horiz-adv-x="277" 
d="M6 0zM19 -70q18 -5 34 -5q21 0 30.5 17t14.5 46l4 25l-91 606h72q5 -35 10.5 -78t10.5 -89t10.5 -92t9.5 -86t7.5 -72t5.5 -49q2 17 5.5 49t8.5 72t10.5 86t11.5 92t12.5 89t12.5 78h66l-94 -627q-5 -33 -12 -58t-19.5 -42.5t-32.5 -26.5t-50 -9q-15 0 -37 5v69zM274 811
q0 -45 -8 -74t-24.5 -46.5t-41.5 -24t-58 -6.5q-39 0 -65 6.5t-41.5 24t-22.5 46.5t-7 74h61q0 -36 5 -58t14.5 -33.5t23 -15t30.5 -3.5q15 0 28 3.5t23 15t15.5 33.5t5.5 58h62z" />
    <glyph glyph-name="uni045F" unicode="&#x45f;" horiz-adv-x="306" 
d="M126 -99v99h-89v619h69v-549h93v549h69v-619h-90v-99h-52z" />
    <glyph glyph-name="uni0490" unicode="&#x490;" horiz-adv-x="271" 
d="M201 823v110h59v-187h-147v-746h-76v823h164z" />
    <glyph glyph-name="uni0491" unicode="&#x491;" horiz-adv-x="218" 
d="M106 549v-549h-69v619h115v99h52v-169h-98z" />
    <glyph glyph-name="uni0492" unicode="&#x492;" horiz-adv-x="286" 
d="M130 404v-404h-77v404h-45v59h45v360h223v-77h-146v-283h108v-59h-108z" />
    <glyph glyph-name="uni0493" unicode="&#x493;" horiz-adv-x="242" 
d="M61 0v273h-54v59h54v287h167v-70h-98v-217h95v-59h-95v-273h-69z" />
    <glyph glyph-name="uni0496" unicode="&#x496;" horiz-adv-x="581" 
d="M4 0l161 450l-152 373h82l133 -357v357h76v-357l133 357h81l-151 -373l134 -374h68v-186h-60v110h-68l-137 405v-405h-76v405l-137 -405h-87z" />
    <glyph glyph-name="uni0497" unicode="&#x497;" horiz-adv-x="457" 
d="M178 0v318l-100 -318h-72l114 344l-112 275h69l101 -267v267h61v-267l101 267h69l-111 -275l90 -274h58v-170h-53v100h-54l-100 318v-318h-61z" />
    <glyph glyph-name="uni0498" unicode="&#x498;" horiz-adv-x="310" 
d="M209 319q0 33 -10.5 49t-44.5 16h-39v71h43q31 0 40.5 16.5t9.5 48.5v170q0 34 -11 49.5t-42 15.5q-30 0 -41 -15.5t-11 -49.5v-145h-75v145q0 75 30.5 108.5t96.5 33.5t96 -33.5t30 -109.5v-177q0 -40 -15 -61t-44 -32q28 -7 44.5 -27.5t16.5 -65.5v-195q0 -55 -23 -92
t-73 -45q41 -13 56 -29.5t15 -46.5q0 -67 -91 -67h-77v49h70q49 0 49 33q0 20 -15.5 32.5t-57.5 26.5q-57 6 -83.5 42.5t-26.5 95.5v162h77v-162q0 -30 12 -47t40 -17q29 0 41.5 17t12.5 48v188z" />
    <glyph glyph-name="uni0499" unicode="&#x499;" horiz-adv-x="290" 
d="M187 247q0 41 -49 41h-27v58h28q20 0 32.5 9t12.5 33v117q0 24 -12 38t-35 14t-33.5 -14.5t-10.5 -39.5v-108h-62v120q0 58 26 86t85 28t84.5 -27.5t25.5 -84.5v-133q0 -29 -12 -45t-38 -25q24 -5 39 -21.5t15 -49.5v-144q0 -43 -20.5 -70.5t-63.5 -34.5q41 -13 55 -30
t14 -46q0 -67 -90 -67h-77v49h69q27 0 38 8.5t11 24.5q0 20 -15.5 33t-57.5 27q-47 5 -68.5 34t-21.5 75v135h64v-97q0 -17 1 -33.5t6 -29.5t15 -20.5t28 -7.5q24 0 34 15.5t10 45.5v137z" />
    <glyph glyph-name="uni049A" unicode="&#x49a;" horiz-adv-x="392" 
d="M321 -110v110h-64l-144 405v-405h-76v823h76v-355l139 355h82l-156 -375l138 -372h65v-186h-60z" />
    <glyph glyph-name="uni049B" unicode="&#x49b;" horiz-adv-x="337" 
d="M273 -100v100h-57l-112 318v-318h-67v619h67v-267l112 267h73l-121 -274l99 -275h59v-170h-53z" />
    <glyph glyph-name="uni04A0" unicode="&#x4a0;" horiz-adv-x="425" 
d="M333 0q-23 68 -42.5 124t-37 104.5t-33.5 91.5t-32 85q1 -57 1 -114v-122v-169h-76v746h-103v77h179v-151v-107.5t-1 -96.5q15 35 30 72t32.5 79.5t36.5 92.5t41 111h82q-39 -94 -78.5 -187.5t-79.5 -187.5l168 -448h-87z" />
    <glyph glyph-name="uni04A1" unicode="&#x4a1;" horiz-adv-x="351" 
d="M268 0l-64 176q-13 39 -24.5 71.5t-23.5 70.5q1 -40 1 -76v-83v-159h-68v548h-76v71h144v-110v-81.5t-1 -75.5q23 60 53 129t59 138h73l-121 -274l124 -345h-76z" />
    <glyph glyph-name="uni04A2" unicode="&#x4a2;" horiz-adv-x="349" 
d="M278 -110v110h-59v381h-106v-381h-76v823h76v-366h106v366h76v-747h43v-186h-60z" />
    <glyph glyph-name="uni04A3" unicode="&#x4a3;" horiz-adv-x="328" 
d="M265 -100v100h-66v292h-93v-292h-69v619h69v-257h93v257h69v-549h49v-170h-52z" />
    <glyph glyph-name="uni04AA" unicode="&#x4aa;" horiz-adv-x="309" 
d="M213 302h69v-170q0 -64 -22 -98t-70 -41q39 -12 53.5 -29t14.5 -46q0 -67 -91 -67h-77v49h70q49 0 49 33q0 20 -16.5 33t-59.5 27q-102 13 -102 137v560q0 142 131 142q120 0 120 -140v-146h-69v145q0 33 -11 48.5t-40 15.5q-54 0 -54 -64v-560q0 -65 54 -65
q28 0 39.5 16t11.5 49v171z" />
    <glyph glyph-name="uni04AB" unicode="&#x4ab;" horiz-adv-x="284" 
d="M190 253h64v-138q0 -49 -19 -80.5t-59 -40.5q37 -12 52 -28t15 -44q0 -71 -91 -71h-77v49h72q26 0 36.5 9.5t10.5 25.5q0 17 -15 30t-54 27q-48 6 -71 39t-23 86v384q0 57 28 92.5t85 35.5t82.5 -35t25.5 -92v-134h-62v135q0 55 -46 55q-23 0 -34.5 -15t-11.5 -41v-385
q0 -56 46 -56t46 55v137z" />
    <glyph glyph-name="uni04B2" unicode="&#x4b2;" horiz-adv-x="382" 
d="M311 -110v110h-59q-12 42 -25.5 97t-26 107t-21.5 94t-12 59q-3 -17 -12 -59t-21 -94t-25.5 -106.5t-25.5 -97.5h-78l120 439l-102 384h81q9 -33 19.5 -77t19.5 -86.5t16.5 -78t10.5 -53.5q3 18 10.5 53.5t17 78t20 86.5t19.5 77h79l-104 -382l101 -365h58v-186h-60z" />
    <glyph glyph-name="uni04B3" unicode="&#x4b3;" horiz-adv-x="356" 
d="M259 -100v100h-54q-9 33 -19 72t-19 77.5t-16 72.5t-11 58q-5 -24 -12 -58t-15.5 -72.5t-18 -77.5t-18.5 -72h-69l90 329l-78 290h72q6 -26 13.5 -59l15 -66t14 -62t9.5 -45q3 16 9 45t13.5 62t15.5 66t14 59h69l-78 -289l71 -260h55v-170h-53z" />
    <glyph glyph-name="uni04B6" unicode="&#x4b6;" horiz-adv-x="339" 
d="M268 -110v110h-59v358q-9 -5 -26.5 -9.5t-39.5 -4.5q-54 0 -85 35t-31 105v339h76v-326q0 -42 11.5 -61.5t45.5 -19.5q16 0 27 4t22 10v393h76v-747h43v-186h-60z" />
    <glyph glyph-name="uni04B7" unicode="&#x4b7;" horiz-adv-x="319" 
d="M256 -100v100h-66v298q-8 -4 -23 -8t-35 -4q-48 0 -76 28t-28 85v220h69v-222q0 -26 11.5 -38t38.5 -12q14 0 24 3t19 8v261h69v-549h50v-170h-53z" />
    <glyph glyph-name="uni04BA" unicode="&#x4ba;" horiz-adv-x="327" 
d="M115 823v-358q9 5 26.5 9.5t39.5 4.5q54 0 85 -35t31 -105v-339h-76v326q0 42 -11.5 61.5t-45.5 19.5q-16 0 -27 -4t-22 -10v-393h-76v823h76z" />
    <glyph glyph-name="uni04C3" unicode="&#x4c3;" horiz-adv-x="349" 
d="M167 -71q9 -2 19 -3t18 -1q32 0 44.5 11.5t12.5 30.5q0 14 -4.5 29.5t-10.5 32.5l-133 376v-405h-76v823h76v-355l139 355h82q-39 -94 -78.5 -187.5t-79.5 -187.5l138 -368q10 -26 16 -53.5t6 -53.5q0 -24 -6.5 -45.5t-21.5 -37t-40 -25t-62 -9.5q-11 0 -21 1t-18 3v69z
" />
    <glyph glyph-name="uni04C4" unicode="&#x4c4;" horiz-adv-x="299" 
d="M136 -71q9 -2 17.5 -3t15.5 -1q28 0 39.5 13t11.5 33q0 12 -3 24t-8 24l-105 299v-318h-67v618h67v-266l112 267h73l-121 -274l107 -303q8 -20 11.5 -35.5t3.5 -34.5q0 -53 -30 -84.5t-89 -31.5q-8 0 -17.5 1t-17.5 3v69z" />
    <glyph glyph-name="uni04C7" unicode="&#x4c7;" horiz-adv-x="332" 
d="M129 -71q9 -2 18.5 -3t16.5 -1q29 0 42 14.5t13 47.5v393h-106v-380h-76v823h76v-367h106v367h76v-836q0 -69 -32 -100t-97 -31q-11 0 -20.5 1t-16.5 3v69z" />
    <glyph glyph-name="uni04C8" unicode="&#x4c8;" horiz-adv-x="306" 
d="M112 -71q9 -2 17.5 -3t15.5 -1q29 0 41.5 14.5t12.5 47.5v304h-93v-291h-69v619h69v-257h93v257h69v-632q0 -69 -30.5 -100t-90.5 -31q-22 0 -35 4v69z" />
    <glyph glyph-name="uni04E8" unicode="&#x4e8;" horiz-adv-x="321" 
d="M31 692q0 140 129 140q130 0 130 -140v-561q0 -140 -130 -140q-129 0 -129 140v561zM214 385h-107v-254q0 -65 53 -65q54 0 54 65v254zM107 461h107v231q0 63 -54 63q-53 0 -53 -63v-231z" />
    <glyph glyph-name="uni04E9" unicode="&#x4e9;" horiz-adv-x="291" 
d="M31 505q0 60 28 92t86 32q57 0 85.5 -32t28.5 -92v-391q0 -60 -28.5 -91.5t-85.5 -31.5q-58 0 -86 31.5t-28 91.5v391zM192 284h-94v-170q0 -26 9.5 -39.5t37.5 -13.5t37.5 14t9.5 41v168zM98 343h94v160q0 26 -9.5 40.5t-37.5 14.5t-37.5 -14.5t-9.5 -40.5v-160z" />
    <glyph glyph-name="uni04EE" unicode="&#x4ee;" horiz-adv-x="340" 
d="M9 0zM58 904v59h230v-59h-230zM189 124q-8 -38 -18.5 -62t-28.5 -38t-46.5 -19t-71.5 -5h-11v76h11q20 0 36 2t28 9t19.5 20t12.5 34l23 110l-134 572h80l84 -422l82 422h75z" />
    <glyph glyph-name="uni04EF" unicode="&#x4ef;" horiz-adv-x="277" 
d="M11 0zM19 -70q18 -5 34 -5q21 0 30.5 17t14.5 46l4 25l-91 606h72q5 -35 10.5 -78t10.5 -89t10.5 -92t9.5 -86t7.5 -72t5.5 -49q2 17 5.5 49t8.5 72t10.5 86t11.5 92t12.5 89t12.5 78h66l-94 -627q-5 -33 -12 -58t-19.5 -42.5t-32.5 -26.5t-50 -9q-15 0 -37 5v69zM25 700
v59h230v-59h-230z" />
    <glyph glyph-name="uni0512" unicode="&#x512;" horiz-adv-x="371" 
d="M167 -71q8 -2 17.5 -3t16.5 -1q30 0 43 14.5t13 47.5v759h-69l-18 -297q-5 -80 -9.5 -136.5t-9 -96t-8.5 -64.5t-8 -41q-13 -57 -37 -84t-75 -27h-13v76h11q17 0 29 8t22 42q4 15 8.5 39t8.5 62.5t8 95.5t9 139l20 361h207v-836q0 -69 -32 -100t-97 -31q-11 0 -20 1
t-17 3v69z" />
    <glyph glyph-name="uni0513" unicode="&#x513;" horiz-adv-x="352" 
d="M159 -71q8 -2 17.5 -3t16.5 -1q28 0 40 14.5t12 47.5v561h-68l-15 -205q-8 -113 -17 -174t-16 -86q-8 -26 -19 -42.5t-25 -25.5t-30 -12t-33 -3h-12v70h11q17 0 28 6.5t20 30.5q5 13 9 30.5t7.5 45.5t7 69t8.5 101l20 266h193v-632q0 -69 -29.5 -100t-89.5 -31
q-10 0 -19 1t-17 3v69z" />
    <glyph glyph-name="uni1E0C" unicode="&#x1e0c;" horiz-adv-x="326" 
d="M37 0zM219 681q0 31 -13.5 48t-40.5 17h-52v-671h52q54 0 54 65v541zM37 0v823h128q66 0 98 -37.5t32 -103.5v-542q0 -140 -130 -140h-128zM128 -149v103h69v-103h-69z" />
    <glyph glyph-name="uni1E0D" unicode="&#x1e0d;" 
d="M31 0zM197 518q-17 41 -54 41q-23 0 -33 -11.5t-10 -39.5v-390q0 -29 10 -40.5t33 -11.5q37 0 54 41v411zM207 0q-1 11 -1.5 22.5t-0.5 23.5q-11 -25 -31.5 -39t-54.5 -14q-88 0 -88 116v406q0 61 21.5 87.5t69.5 26.5q24 0 43.5 -11t31.5 -29v234h68v-823h-58zM117 -149
v103h69v-103h-69z" />
    <glyph glyph-name="uni1E12" unicode="&#x1e12;" horiz-adv-x="326" 
d="M31 0zM219 681q0 31 -13.5 48t-40.5 17h-52v-671h52q54 0 54 65v541zM37 0v823h128q66 0 98 -37.5t32 -103.5v-542q0 -140 -130 -140h-128zM220 -149l-64 95l-68 -95h-57l91 124h71l87 -124h-60z" />
    <glyph glyph-name="uni1E13" unicode="&#x1e13;" 
d="M27 0zM197 518q-17 41 -54 41q-23 0 -33 -11.5t-10 -39.5v-390q0 -29 10 -40.5t33 -11.5q37 0 54 41v411zM207 0q-1 11 -1.5 22.5t-0.5 23.5q-11 -25 -31.5 -39t-54.5 -14q-88 0 -88 116v406q0 61 21.5 87.5t69.5 26.5q24 0 43.5 -11t31.5 -29v234h68v-823h-58zM216 -149
l-64 95l-68 -95h-57l91 124h71l87 -124h-60z" />
    <glyph glyph-name="uni1E24" unicode="&#x1e24;" horiz-adv-x="332" 
d="M37 0zM219 0v381h-106v-381h-76v823h76v-367h106v367h76v-823h-76zM131 -149v103h69v-103h-69z" />
    <glyph glyph-name="uni1E25" unicode="&#x1e25;" 
d="M37 0zM199 0v511q0 27 -9 38.5t-31 11.5q-15 0 -30 -9t-23 -29v-523h-69v823h69v-239q14 20 35 32.5t47 12.5q42 0 61 -27t19 -87v-515h-69zM117 -149v103h69v-103h-69z" />
    <glyph glyph-name="uni1E3C" unicode="&#x1e3c;" horiz-adv-x="271" 
d="M20 0zM37 0v823h76v-748h147v-75h-223zM209 -149l-64 95l-68 -95h-57l91 124h71l87 -124h-60z" />
    <glyph glyph-name="uni1E3D" unicode="&#x1e3d;" horiz-adv-x="221" 
d="M0 0zM75 0v823h69v-823h-69zM174 -149l-64 95l-68 -95h-57l91 124h71l87 -124h-60z" />
    <glyph glyph-name="uni1E44" unicode="&#x1e44;" horiz-adv-x="354" 
d="M35 0zM242 0l-142 601q1 -94 1 -182.5v-182.5v-236h-66v823h91l126 -603q-1 85 -1 166.5v166.5v270h67v-823h-76zM141 872v125h69v-125h-69z" />
    <glyph glyph-name="uni1E45" unicode="&#x1e45;" 
d="M37 0zM199 0v511q0 27 -9 38.5t-31 11.5q-15 0 -30 -9t-23 -29v-523h-69v619h58q3 -23 3 -47q14 26 37 41.5t52 15.5q42 0 61.5 -27t19.5 -87v-515h-69zM116 668v125h69v-125h-69z" />
    <glyph glyph-name="uni1E4A" unicode="&#x1e4a;" horiz-adv-x="354" 
d="M35 0zM242 0l-142 601q1 -94 1 -182.5v-182.5v-236h-66v823h91l126 -603q-1 85 -1 166.5v166.5v270h67v-823h-76zM240 -149l-64 95l-68 -95h-57l91 124h71l87 -124h-60z" />
    <glyph glyph-name="uni1E4B" unicode="&#x1e4b;" 
d="M27 0zM199 0v511q0 27 -9 38.5t-31 11.5q-15 0 -30 -9t-23 -29v-523h-69v619h58q3 -23 3 -47q14 26 37 41.5t52 15.5q42 0 61.5 -27t19.5 -87v-515h-69zM216 -149l-64 95l-68 -95h-57l91 124h71l87 -124h-60z" />
    <glyph glyph-name="uni1E5A" unicode="&#x1e5a;" horiz-adv-x="332" 
d="M37 0zM230 0q-13 97 -27 188.5t-31 185.5q-5 -1 -9 -1h-9h-41v-373h-76v823h125q72 0 107.5 -33.5t35.5 -114.5v-164q0 -90 -61 -121q20 -100 37 -196.5t32 -193.5h-83zM228 665q0 45 -13 63t-53 18h-49v-304h50q35 0 50 16.5t15 51.5v155zM131 -149v103h69v-103h-69z
" />
    <glyph glyph-name="uni1E5B" unicode="&#x1e5b;" horiz-adv-x="208" 
d="M37 0zM37 0v619h58q3 -23 3 -45q13 27 31.5 39t43.5 12q14 0 21 -4v-77q-5 4 -14 5.5t-17 1.5q-16 0 -31.5 -7.5t-25.5 -29.5v-514h-69zM37 -149v103h69v-103h-69z" />
    <glyph glyph-name="uni1E62" unicode="&#x1e62;" horiz-adv-x="310" 
d="M27 0zM207 244q0 19 -1 31t-4 21t-8 16.5t-12 16.5q-32 39 -69 74t-59 63q-9 12 -14.5 22.5t-8.5 22.5t-3.5 26.5t-0.5 35.5v123q0 136 131 136q67 0 94.5 -33.5t27.5 -102.5v-150h-71v140q0 31 -10.5 50t-41.5 19q-53 0 -53 -59v-122q0 -26 3.5 -38t14.5 -26
q13 -18 30 -35.5t34.5 -34.5t33 -33t27.5 -31q10 -13 17 -25t11 -26.5t6 -33.5t2 -46v-118q0 -66 -29 -101t-98 -35q-68 0 -98.5 34.5t-30.5 101.5v175h73v-164q0 -33 11.5 -52.5t43.5 -19.5q28 0 40 16t12 45v117zM120 -149v103h69v-103h-69z" />
    <glyph glyph-name="uni1E63" unicode="&#x1e63;" horiz-adv-x="279" 
d="M27 0zM181 179q0 20 -6 35t-24 37q-21 25 -47 48t-45 45q-20 22 -26 44t-6 58v64q0 66 28 92.5t85 26.5q61 0 84 -28.5t23 -90.5v-101h-63v101q0 23 -13 36.5t-34 13.5q-43 0 -43 -50v-73q0 -22 5.5 -34.5t22.5 -30.5q24 -25 46.5 -43t42.5 -41q23 -27 31 -52.5t8 -65.5
v-67q0 -59 -28 -85.5t-83 -26.5q-57 0 -84.5 27.5t-27.5 87.5v101h62v-99q0 -23 13 -36.5t35 -13.5q44 0 44 50v71zM105 -149v103h69v-103h-69z" />
    <glyph glyph-name="uni1E6C" unicode="&#x1e6c;" horiz-adv-x="281" 
d="M11 0zM103 0v746h-92v77h259v-77h-92v-746h-75zM106 -149v103h69v-103h-69z" />
    <glyph glyph-name="uni1E6D" unicode="&#x1e6d;" horiz-adv-x="192" 
d="M10 0zM180 -4q-5 -2 -14.5 -3.5t-17.5 -1.5q-55 0 -82 34t-27 94v439h-29v61h29v196h69v-196h70v-61h-70v-439q0 -38 13.5 -53.5t45.5 -15.5h6.5t6.5 1v-55zM61 -149v103h69v-103h-69z" />
    <glyph glyph-name="Wgrave" unicode="&#x1e80;" horiz-adv-x="526" 
d="M12 0zM318 0q-5 44 -11 101.5t-12 119.5l-12 124t-10.5 115t-8 92.5t-4.5 57.5q-1 -18 -4.5 -57.5t-8.5 -92.5t-11 -115t-13 -124t-13.5 -119.5t-12.5 -101.5h-93l-92 823h79q6 -51 12.5 -113t13 -127.5t12 -129.5t10.5 -118.5t9 -96.5t6 -62q2 20 6.5 62t10.5 96.5
t12.5 118.5t14 129.5t14.5 127.5t13 113h76l62 -647q2 20 6.5 62t10.5 96.5t12.5 118.5t14 129.5t14.5 127.5t13 113h80l-104 -823h-92zM253 860l-134 161h88l113 -161h-67z" />
    <glyph glyph-name="wgrave" unicode="&#x1e81;" horiz-adv-x="418" 
d="M13 0zM253 0l-46 462l-52 -462h-82l-60 619h65l39 -486l57 486h67l51 -486l47 486h65l-68 -619h-83zM199 656l-134 161h88l113 -161h-67z" />
    <glyph glyph-name="Wacute" unicode="&#x1e82;" horiz-adv-x="526" 
d="M12 0zM318 0q-5 44 -11 101.5t-12 119.5l-12 124t-10.5 115t-8 92.5t-4.5 57.5q-1 -18 -4.5 -57.5t-8.5 -92.5t-11 -115t-13 -124t-13.5 -119.5t-12.5 -101.5h-93l-92 823h79q6 -51 12.5 -113t13 -127.5t12 -129.5t10.5 -118.5t9 -96.5t6 -62q2 20 6.5 62t10.5 96.5
t12.5 118.5t14 129.5t14.5 127.5t13 113h76l62 -647q2 20 6.5 62t10.5 96.5t12.5 118.5t14 129.5t14.5 127.5t13 113h80l-104 -823h-92zM205 860l112 161h89l-135 -161h-66z" />
    <glyph glyph-name="wacute" unicode="&#x1e83;" horiz-adv-x="418" 
d="M13 0zM253 0l-46 462l-52 -462h-82l-60 619h65l39 -486l57 486h67l51 -486l47 486h65l-68 -619h-83zM151 656l112 161h89l-135 -161h-66z" />
    <glyph glyph-name="Wdieresis" unicode="&#x1e84;" horiz-adv-x="526" 
d="M12 0zM318 0q-5 44 -11 101.5t-12 119.5l-12 124t-10.5 115t-8 92.5t-4.5 57.5q-1 -18 -4.5 -57.5t-8.5 -92.5t-11 -115t-13 -124t-13.5 -119.5t-12.5 -101.5h-93l-92 823h79q6 -51 12.5 -113t13 -127.5t12 -129.5t10.5 -118.5t9 -96.5t6 -62q2 20 6.5 62t10.5 96.5
t12.5 118.5t14 129.5t14.5 127.5t13 113h76l62 -647q2 20 6.5 62t10.5 96.5t12.5 118.5t14 129.5t14.5 127.5t13 113h80l-104 -823h-92zM303 872v125h69v-125h-69zM153 872v125h69v-125h-69z" />
    <glyph glyph-name="wdieresis" unicode="&#x1e85;" horiz-adv-x="418" 
d="M13 0zM253 0l-46 462l-52 -462h-82l-60 619h65l39 -486l57 486h67l51 -486l47 486h65l-68 -619h-83zM249 668v125h69v-125h-69zM99 668v125h69v-125h-69z" />
    <glyph glyph-name="uni1E92" unicode="&#x1e92;" horiz-adv-x="307" 
d="M25 0zM25 0v76l182 673h-175v74h251v-69l-179 -677h179v-77h-258zM119 -149v103h69v-103h-69z" />
    <glyph glyph-name="uni1E93" unicode="&#x1e93;" horiz-adv-x="256" 
d="M25 0zM25 0v64l141 487h-139v68h205v-64l-138 -485h137v-70h-206zM93 -149v103h69v-103h-69z" />
    <glyph glyph-name="uni1E9E" unicode="&#x1e9e;" horiz-adv-x="350" 
d="M305 823v-69l-76 -300q39 -7 63 -36t24 -80v-220q0 -67 -28 -97t-94 -30q-15 0 -23.5 1t-13.5 2v69q12 -3 27 -3q29 0 42 13t13 45v211q0 33 -17 50t-56 17h-8v51l74 301h-70q-53 0 -53 -64v-684h-75v683q0 140 128 140h143z" />
    <glyph glyph-name="uni1EA0" unicode="&#x1ea0;" horiz-adv-x="335" 
d="M12 0zM245 0l-18 138h-123l-18 -138h-74l113 823h89l107 -823h-76zM218 208q-13 106 -26 209.5t-25 212.5q-13 -109 -26.5 -212.5t-27.5 -209.5h105zM132 -149v103h69v-103h-69z" />
    <glyph glyph-name="uni1EA1" unicode="&#x1ea1;" horiz-adv-x="285" 
d="M23 0zM190 0q-4 12 -4 37q-25 -46 -74 -46q-42 0 -65.5 23t-23.5 75v91q0 45 12.5 75.5t34 51.5t50.5 35.5t62 28.5v135q0 26 -9.5 40t-35.5 14q-27 0 -36 -14t-9 -40v-130h-61v131q0 61 25.5 91.5t82.5 30.5q109 0 109 -122v-436q0 -22 1 -41t4 -30h-63zM182 316
q-30 -11 -48.5 -24t-28 -29.5t-12.5 -38t-3 -49.5v-66q0 -51 47 -51q15 0 27.5 9t17.5 30v219zM108 -149v103h69v-103h-69z" />
    <glyph glyph-name="uni1EA2" unicode="&#x1ea2;" horiz-adv-x="335" 
d="M12 0zM245 0l-18 138h-123l-18 -138h-74l113 823h89l107 -823h-76zM218 208q-13 106 -26 209.5t-25 212.5q-13 -109 -26.5 -212.5t-27.5 -209.5h105zM146 865v11q0 26 10 36.5t21 17.5q17 10 21.5 16t4.5 20v7q0 18 -26 18q-27 0 -27 -16v-14h-49v15q0 23 18 34t58 11
q76 0 76 -45v-10q0 -23 -6 -32.5t-26 -20.5q-10 -5 -15.5 -9t-8.5 -7.5t-4 -8.5t-1 -12v-11h-46z" />
    <glyph glyph-name="uni1EA3" unicode="&#x1ea3;" horiz-adv-x="285" 
d="M23 0zM190 0q-4 12 -4 37q-25 -46 -74 -46q-42 0 -65.5 23t-23.5 75v91q0 45 12.5 75.5t34 51.5t50.5 35.5t62 28.5v135q0 26 -9.5 40t-35.5 14q-27 0 -36 -14t-9 -40v-130h-61v131q0 61 25.5 91.5t82.5 30.5q109 0 109 -122v-436q0 -22 1 -41t4 -30h-63zM182 316
q-30 -11 -48.5 -24t-28 -29.5t-12.5 -38t-3 -49.5v-66q0 -51 47 -51q15 0 27.5 9t17.5 30v219zM120 661v11q0 26 10 36.5t21 17.5q17 10 21.5 16t4.5 20v7q0 18 -26 18q-27 0 -27 -16v-14h-49v15q0 23 18 34t58 11q76 0 76 -45v-10q0 -23 -6 -32.5t-26 -20.5
q-10 -5 -15.5 -9t-8.5 -7.5t-4 -8.5t-1 -12v-11h-46z" />
    <glyph glyph-name="uni1EA4" unicode="&#x1ea4;" horiz-adv-x="335" 
d="M12 0zM245 0l-18 138h-123l-18 -138h-74l113 823h89l107 -823h-76zM218 208q-13 106 -26 209.5t-25 212.5q-13 -109 -26.5 -212.5t-27.5 -209.5h105zM267 900l112 161h89l-135 -161h-66zM247 833.114l-79 106.521l-82 -106.521h-64l108 139.431h80l104 -139.431h-67z" />
    <glyph glyph-name="uni1EA5" unicode="&#x1ea5;" horiz-adv-x="285" 
d="M0 0zM190 0q-4 12 -4 37q-25 -46 -74 -46q-42 0 -65.5 23t-23.5 75v91q0 45 12.5 75.5t34 51.5t50.5 35.5t62 28.5v135q0 26 -9.5 40t-35.5 14q-27 0 -36 -14t-9 -40v-130h-61v131q0 61 25.5 91.5t82.5 30.5q109 0 109 -122v-436q0 -22 1 -41t4 -30h-63zM182 316
q-30 -11 -48.5 -24t-28 -29.5t-12.5 -38t-3 -49.5v-66q0 -51 47 -51q15 0 27.5 9t17.5 30v219zM79 860l112 161h89l-135 -161h-66zM221 656l-79 123l-82 -123h-64l108 161h80l104 -161h-67z" />
    <glyph glyph-name="uni1EA6" unicode="&#x1ea6;" horiz-adv-x="335" 
d="M12 0zM245 0l-18 138h-123l-18 -138h-74l113 823h89l107 -823h-76zM218 208q-13 106 -26 209.5t-25 212.5q-13 -109 -26.5 -212.5t-27.5 -209.5h105zM339 900l-134 161h88l113 -161h-67zM247 833.114l-79 106.521l-82 -106.521h-64l108 139.431h80l104 -139.431h-67z" />
    <glyph glyph-name="uni1EA7" unicode="&#x1ea7;" horiz-adv-x="285" 
d="M0 0zM190 0q-4 12 -4 37q-25 -46 -74 -46q-42 0 -65.5 23t-23.5 75v91q0 45 12.5 75.5t34 51.5t50.5 35.5t62 28.5v135q0 26 -9.5 40t-35.5 14q-27 0 -36 -14t-9 -40v-130h-61v131q0 61 25.5 91.5t82.5 30.5q109 0 109 -122v-436q0 -22 1 -41t4 -30h-63zM182 316
q-30 -11 -48.5 -24t-28 -29.5t-12.5 -38t-3 -49.5v-66q0 -51 47 -51q15 0 27.5 9t17.5 30v219zM140 860l-134 161h88l113 -161h-67zM221 656l-79 123l-82 -123h-64l108 161h80l104 -161h-67z" />
    <glyph glyph-name="uni1EA8" unicode="&#x1ea8;" horiz-adv-x="335" 
d="M12 0zM245 0l-18 138h-123l-18 -138h-74l113 823h89l107 -823h-76zM218 208q-13 106 -26 209.5t-25 212.5q-13 -109 -26.5 -212.5t-27.5 -209.5h105zM247 833.114l-79 106.521l-82 -106.521h-64l108 139.431h80l104 -139.431h-67zM299 875v11q0 26 10 36.5t21 17.5
q17 10 21.5 16t4.5 20v7q0 18 -26 18q-27 0 -27 -16v-14h-49v15q0 23 18 34t58 11q76 0 76 -45v-10q0 -23 -6 -32.5t-26 -20.5q-10 -5 -15.5 -9t-8.5 -7.5t-4 -8.5t-1 -12v-11h-46z" />
    <glyph glyph-name="uni1EA9" unicode="&#x1ea9;" horiz-adv-x="285" 
d="M0 0zM190 0q-4 12 -4 37q-25 -46 -74 -46q-42 0 -65.5 23t-23.5 75v91q0 45 12.5 75.5t34 51.5t50.5 35.5t62 28.5v135q0 26 -9.5 40t-35.5 14q-27 0 -36 -14t-9 -40v-130h-61v131q0 61 25.5 91.5t82.5 30.5q109 0 109 -122v-436q0 -22 1 -41t4 -30h-63zM182 316
q-30 -11 -48.5 -24t-28 -29.5t-12.5 -38t-3 -49.5v-66q0 -51 47 -51q15 0 27.5 9t17.5 30v219zM221 656l-79 123l-82 -123h-64l108 161h80l104 -161h-67zM119 865v11q0 26 10 36.5t21 17.5q17 10 21.5 16t4.5 20v7q0 18 -26 18q-27 0 -27 -16v-14h-49v15q0 23 18 34t58 11
q76 0 76 -45v-10q0 -23 -6 -32.5t-26 -20.5q-10 -5 -15.5 -9t-8.5 -7.5t-4 -8.5t-1 -12v-11h-46z" />
    <glyph glyph-name="uni1EAA" unicode="&#x1eaa;" horiz-adv-x="335" 
d="M12 0zM245 0l-18 138h-123l-18 -138h-74l113 823h89l107 -823h-76zM218 208q-13 106 -26 209.5t-25 212.5q-13 -109 -26.5 -212.5t-27.5 -209.5h105zM286 1017q-9 -11 -24.5 -18.5t-36.5 -7.5q-17 0 -32 5t-29.5 11.5t-29 11.5t-30.5 5q-35 0 -57 -31v61q10 11 24.5 19
t35.5 8q18 0 33 -5t29.5 -11.5t28.5 -11.5t31 -5q33 0 57 30v-61zM247 833.114l-79 106.521l-82 -106.521h-64l108 139.431h80l104 -139.431h-67z" />
    <glyph glyph-name="uni1EAB" unicode="&#x1eab;" horiz-adv-x="285" 
d="M0 0zM190 0q-4 12 -4 37q-25 -46 -74 -46q-42 0 -65.5 23t-23.5 75v91q0 45 12.5 75.5t34 51.5t50.5 35.5t62 28.5v135q0 26 -9.5 40t-35.5 14q-27 0 -36 -14t-9 -40v-130h-61v131q0 61 25.5 91.5t82.5 30.5q109 0 109 -122v-436q0 -22 1 -41t4 -30h-63zM182 316
q-30 -11 -48.5 -24t-28 -29.5t-12.5 -38t-3 -49.5v-66q0 -51 47 -51q15 0 27.5 9t17.5 30v219zM261 917q-9 -11 -24.5 -18.5t-36.5 -7.5q-17 0 -32 5t-29.5 11.5t-29 11.5t-30.5 5q-35 0 -57 -31v61q10 11 24.5 19t35.5 8q18 0 33 -5t29.5 -11.5t28.5 -11.5t31 -5
q33 0 57 30v-61zM221 656l-79 123l-82 -123h-64l108 161h80l104 -161h-67z" />
    <glyph glyph-name="uni1EAC" unicode="&#x1eac;" horiz-adv-x="335" 
d="M12 0zM245 0l-18 138h-123l-18 -138h-74l113 823h89l107 -823h-76zM218 208q-13 106 -26 209.5t-25 212.5q-13 -109 -26.5 -212.5t-27.5 -209.5h105zM247 860l-79 123l-82 -123h-64l108 161h80l104 -161h-67zM132 -149v103h69v-103h-69z" />
    <glyph glyph-name="uni1EAD" unicode="&#x1ead;" horiz-adv-x="285" 
d="M0 0zM190 0q-4 12 -4 37q-25 -46 -74 -46q-42 0 -65.5 23t-23.5 75v91q0 45 12.5 75.5t34 51.5t50.5 35.5t62 28.5v135q0 26 -9.5 40t-35.5 14q-27 0 -36 -14t-9 -40v-130h-61v131q0 61 25.5 91.5t82.5 30.5q109 0 109 -122v-436q0 -22 1 -41t4 -30h-63zM182 316
q-30 -11 -48.5 -24t-28 -29.5t-12.5 -38t-3 -49.5v-66q0 -51 47 -51q15 0 27.5 9t17.5 30v219zM221 656l-79 123l-82 -123h-64l108 161h80l104 -161h-67zM108 -149v103h69v-103h-69z" />
    <glyph glyph-name="uni1EAE" unicode="&#x1eae;" horiz-adv-x="335" 
d="M12 0zM245 0l-18 138h-123l-18 -138h-74l113 823h89l107 -823h-76zM218 208q-13 106 -26 209.5t-25 212.5q-13 -109 -26.5 -212.5t-27.5 -209.5h105zM97 957l112 161h89l-135 -161h-66zM302 971.174q0 -37.4639 -8 -61.6074q-8 -24.1426 -24.5 -38.7119t-41.5 -19.9805
t-58 -5.41113q-39 0 -65 5.41113t-41.5 19.9805t-22.5 38.7119q-7 24.1436 -7 61.6074h61q0 -29.9707 5 -48.2871q5 -18.3145 14.5 -27.8887t23 -12.4883t30.5 -2.91406q15 0 28 2.91406t23 12.4883t15.5 27.8887q5.5 18.3164 5.5 48.2871h62z" />
    <glyph glyph-name="uni1EAF" unicode="&#x1eaf;" horiz-adv-x="285" 
d="M9 0zM190 0q-4 12 -4 37q-25 -46 -74 -46q-42 0 -65.5 23t-23.5 75v91q0 45 12.5 75.5t34 51.5t50.5 35.5t62 28.5v135q0 26 -9.5 40t-35.5 14q-27 0 -36 -14t-9 -40v-130h-61v131q0 61 25.5 91.5t82.5 30.5q109 0 109 -122v-436q0 -22 1 -41t4 -30h-63zM182 316
q-30 -11 -48.5 -24t-28 -29.5t-12.5 -38t-3 -49.5v-66q0 -51 47 -51q15 0 27.5 9t17.5 30v219zM78 860l112 161h89l-135 -161h-66zM277 811q0 -45 -8 -74t-24.5 -46.5t-41.5 -24t-58 -6.5q-39 0 -65 6.5t-41.5 24t-22.5 46.5t-7 74h61q0 -36 5 -58t14.5 -33.5t23 -15
t30.5 -3.5q15 0 28 3.5t23 15t15.5 33.5t5.5 58h62z" />
    <glyph glyph-name="uni1EB0" unicode="&#x1eb0;" horiz-adv-x="335" 
d="M12 0zM245 0l-18 138h-123l-18 -138h-74l113 823h89l107 -823h-76zM218 208q-13 106 -26 209.5t-25 212.5q-13 -109 -26.5 -212.5t-27.5 -209.5h105zM302 971.174q0 -37.4639 -8 -61.6074q-8 -24.1426 -24.5 -38.7119t-41.5 -19.9805t-58 -5.41113q-39 0 -65 5.41113
t-41.5 19.9805t-22.5 38.7119q-7 24.1436 -7 61.6074h61q0 -29.9707 5 -48.2871q5 -18.3145 14.5 -27.8887t23 -12.4883t30.5 -2.91406q15 0 28 2.91406t23 12.4883t15.5 27.8887q5.5 18.3164 5.5 48.2871h62zM170 957l-134 161h88l113 -161h-67z" />
    <glyph glyph-name="uni1EB1" unicode="&#x1eb1;" horiz-adv-x="285" 
d="M5 0zM190 0q-4 12 -4 37q-25 -46 -74 -46q-42 0 -65.5 23t-23.5 75v91q0 45 12.5 75.5t34 51.5t50.5 35.5t62 28.5v135q0 26 -9.5 40t-35.5 14q-27 0 -36 -14t-9 -40v-130h-61v131q0 61 25.5 91.5t82.5 30.5q109 0 109 -122v-436q0 -22 1 -41t4 -30h-63zM182 316
q-30 -11 -48.5 -24t-28 -29.5t-12.5 -38t-3 -49.5v-66q0 -51 47 -51q15 0 27.5 9t17.5 30v219zM277 811q0 -45 -8 -74t-24.5 -46.5t-41.5 -24t-58 -6.5q-39 0 -65 6.5t-41.5 24t-22.5 46.5t-7 74h61q0 -36 5 -58t14.5 -33.5t23 -15t30.5 -3.5q15 0 28 3.5t23 15t15.5 33.5
t5.5 58h62zM139 860l-134 161h88l113 -161h-67z" />
    <glyph glyph-name="uni1EB2" unicode="&#x1eb2;" horiz-adv-x="335" 
d="M12 0zM245 0l-18 138h-123l-18 -138h-74l113 823h89l107 -823h-76zM218 208q-13 106 -26 209.5t-25 212.5q-13 -109 -26.5 -212.5t-27.5 -209.5h105zM302 971.174q0 -37.4639 -8 -61.6074q-8 -24.1426 -24.5 -38.7119t-41.5 -19.9805t-58 -5.41113q-39 0 -65 5.41113
t-41.5 19.9805t-22.5 38.7119q-7 24.1436 -7 61.6074h61q0 -29.9707 5 -48.2871q5 -18.3145 14.5 -27.8887t23 -12.4883t30.5 -2.91406q15 0 28 2.91406t23 12.4883t15.5 27.8887q5.5 18.3164 5.5 48.2871h62zM145 948v11q0 26 10 36.5t21 17.5q17 10 21.5 16t4.5 20v7
q0 18 -26 18q-27 0 -27 -16v-14h-49v15q0 23 18 34t58 11q76 0 76 -45v-10q0 -23 -6 -32.5t-26 -20.5q-10 -5 -15.5 -9t-8.5 -7.5t-4 -8.5t-1 -12v-11h-46z" />
    <glyph glyph-name="uni1EB3" unicode="&#x1eb3;" horiz-adv-x="285" 
d="M9 0zM190 0q-4 12 -4 37q-25 -46 -74 -46q-42 0 -65.5 23t-23.5 75v91q0 45 12.5 75.5t34 51.5t50.5 35.5t62 28.5v135q0 26 -9.5 40t-35.5 14q-27 0 -36 -14t-9 -40v-130h-61v131q0 61 25.5 91.5t82.5 30.5q109 0 109 -122v-436q0 -22 1 -41t4 -30h-63zM182 316
q-30 -11 -48.5 -24t-28 -29.5t-12.5 -38t-3 -49.5v-66q0 -51 47 -51q15 0 27.5 9t17.5 30v219zM277 811q0 -45 -8 -74t-24.5 -46.5t-41.5 -24t-58 -6.5q-39 0 -65 6.5t-41.5 24t-22.5 46.5t-7 74h61q0 -36 5 -58t14.5 -33.5t23 -15t30.5 -3.5q15 0 28 3.5t23 15t15.5 33.5
t5.5 58h62zM120 865v11q0 26 10 36.5t21 17.5q17 10 21.5 16t4.5 20v7q0 18 -26 18q-27 0 -27 -16v-14h-49v15q0 23 18 34t58 11q76 0 76 -45v-10q0 -23 -6 -32.5t-26 -20.5q-10 -5 -15.5 -9t-8.5 -7.5t-4 -8.5t-1 -12v-11h-46z" />
    <glyph glyph-name="uni1EB4" unicode="&#x1eb4;" horiz-adv-x="335" 
d="M12 0zM245 0l-18 138h-123l-18 -138h-74l113 823h89l107 -823h-76zM218 208q-13 106 -26 209.5t-25 212.5q-13 -109 -26.5 -212.5t-27.5 -209.5h105zM302 971.174q0 -37.4639 -8 -61.6074q-8 -24.1426 -24.5 -38.7119t-41.5 -19.9805t-58 -5.41113q-39 0 -65 5.41113
t-41.5 19.9805t-22.5 38.7119q-7 24.1436 -7 61.6074h61q0 -29.9707 5 -48.2871q5 -18.3145 14.5 -27.8887t23 -12.4883t30.5 -2.91406q15 0 28 2.91406t23 12.4883t15.5 27.8887q5.5 18.3164 5.5 48.2871h62zM286 1013q-9 -11 -24.5 -18.5t-36.5 -7.5q-17 0 -32 5
t-29.5 11.5t-29 11.5t-30.5 5q-35 0 -57 -31v61q10 11 24.5 19t35.5 8q18 0 33 -5t29.5 -11.5t28.5 -11.5t31 -5q33 0 57 30v-61z" />
    <glyph glyph-name="uni1EB5" unicode="&#x1eb5;" horiz-adv-x="285" 
d="M9 0zM190 0q-4 12 -4 37q-25 -46 -74 -46q-42 0 -65.5 23t-23.5 75v91q0 45 12.5 75.5t34 51.5t50.5 35.5t62 28.5v135q0 26 -9.5 40t-35.5 14q-27 0 -36 -14t-9 -40v-130h-61v131q0 61 25.5 91.5t82.5 30.5q109 0 109 -122v-436q0 -22 1 -41t4 -30h-63zM182 316
q-30 -11 -48.5 -24t-28 -29.5t-12.5 -38t-3 -49.5v-66q0 -51 47 -51q15 0 27.5 9t17.5 30v219zM277 811q0 -45 -8 -74t-24.5 -46.5t-41.5 -24t-58 -6.5q-39 0 -65 6.5t-41.5 24t-22.5 46.5t-7 74h61q0 -36 5 -58t14.5 -33.5t23 -15t30.5 -3.5q15 0 28 3.5t23 15t15.5 33.5
t5.5 58h62zM261 917q-9 -11 -24.5 -18.5t-36.5 -7.5q-17 0 -32 5t-29.5 11.5t-29 11.5t-30.5 5q-35 0 -57 -31v61q10 11 24.5 19t35.5 8q18 0 33 -5t29.5 -11.5t28.5 -11.5t31 -5q33 0 57 30v-61z" />
    <glyph glyph-name="uni1EB6" unicode="&#x1eb6;" horiz-adv-x="335" 
d="M12 0zM245 0l-18 138h-123l-18 -138h-74l113 823h89l107 -823h-76zM218 208q-13 106 -26 209.5t-25 212.5q-13 -109 -26.5 -212.5t-27.5 -209.5h105zM302 1015q0 -45 -8 -74t-24.5 -46.5t-41.5 -24t-58 -6.5q-39 0 -65 6.5t-41.5 24t-22.5 46.5t-7 74h61q0 -36 5 -58
t14.5 -33.5t23 -15t30.5 -3.5q15 0 28 3.5t23 15t15.5 33.5t5.5 58h62zM132 -149v103h69v-103h-69z" />
    <glyph glyph-name="uni1EB7" unicode="&#x1eb7;" horiz-adv-x="285" 
d="M9 0zM190 0q-4 12 -4 37q-25 -46 -74 -46q-42 0 -65.5 23t-23.5 75v91q0 45 12.5 75.5t34 51.5t50.5 35.5t62 28.5v135q0 26 -9.5 40t-35.5 14q-27 0 -36 -14t-9 -40v-130h-61v131q0 61 25.5 91.5t82.5 30.5q109 0 109 -122v-436q0 -22 1 -41t4 -30h-63zM182 316
q-30 -11 -48.5 -24t-28 -29.5t-12.5 -38t-3 -49.5v-66q0 -51 47 -51q15 0 27.5 9t17.5 30v219zM277 811q0 -45 -8 -74t-24.5 -46.5t-41.5 -24t-58 -6.5q-39 0 -65 6.5t-41.5 24t-22.5 46.5t-7 74h61q0 -36 5 -58t14.5 -33.5t23 -15t30.5 -3.5q15 0 28 3.5t23 15t15.5 33.5
t5.5 58h62zM108 -149v103h69v-103h-69z" />
    <glyph glyph-name="uni1EB8" unicode="&#x1eb8;" horiz-adv-x="281" 
d="M37 0zM37 0v823h218v-77h-142v-289h100v-76h-100v-306h147v-75h-223zM112 -149v103h69v-103h-69z" />
    <glyph glyph-name="uni1EB9" unicode="&#x1eb9;" horiz-adv-x="280" 
d="M31 0zM184 502q0 55 -46 55q-43 0 -43 -55v-149h89v149zM184 252h65v-136q0 -125 -111 -125q-107 0 -107 125v386q0 63 27.5 95t79.5 32q111 0 111 -127v-199h-154v-187q0 -55 43 -55q46 0 46 55v136zM105 -149v103h69v-103h-69z" />
    <glyph glyph-name="uni1EBA" unicode="&#x1eba;" horiz-adv-x="281" 
d="M37 0zM37 0v823h218v-77h-142v-289h100v-76h-100v-306h147v-75h-223zM124 865v11q0 26 10 36.5t21 17.5q17 10 21.5 16t4.5 20v7q0 18 -26 18q-27 0 -27 -16v-14h-49v15q0 23 18 34t58 11q76 0 76 -45v-10q0 -23 -6 -32.5t-26 -20.5q-10 -5 -15.5 -9t-8.5 -7.5t-4 -8.5
t-1 -12v-11h-46z" />
    <glyph glyph-name="uni1EBB" unicode="&#x1ebb;" horiz-adv-x="280" 
d="M31 0zM184 502q0 55 -46 55q-43 0 -43 -55v-149h89v149zM184 252h65v-136q0 -125 -111 -125q-107 0 -107 125v386q0 63 27.5 95t79.5 32q111 0 111 -127v-199h-154v-187q0 -55 43 -55q46 0 46 55v136zM117 661v11q0 26 10 36.5t21 17.5q17 10 21.5 16t4.5 20v7
q0 18 -26 18q-27 0 -27 -16v-14h-49v15q0 23 18 34t58 11q76 0 76 -45v-10q0 -23 -6 -32.5t-26 -20.5q-10 -5 -15.5 -9t-8.5 -7.5t-4 -8.5t-1 -12v-11h-46z" />
    <glyph glyph-name="uni1EBC" unicode="&#x1ebc;" horiz-adv-x="281" 
d="M30 0zM37 0v823h218v-77h-142v-289h100v-76h-100v-306h147v-75h-223zM269 917q-9 -11 -24.5 -18.5t-36.5 -7.5q-17 0 -32 5t-29.5 11.5t-29 11.5t-30.5 5q-35 0 -57 -31v61q10 11 24.5 19t35.5 8q18 0 33 -5t29.5 -11.5t28.5 -11.5t31 -5q33 0 57 30v-61z" />
    <glyph glyph-name="uni1EBD" unicode="&#x1ebd;" horiz-adv-x="280" 
d="M20 0zM184 502q0 55 -46 55q-43 0 -43 -55v-149h89v149zM184 252h65v-136q0 -125 -111 -125q-107 0 -107 125v386q0 63 27.5 95t79.5 32q111 0 111 -127v-199h-154v-187q0 -55 43 -55q46 0 46 55v136zM259 713q-9 -11 -24.5 -18.5t-36.5 -7.5q-17 0 -32 5t-29.5 11.5
t-29 11.5t-30.5 5q-35 0 -57 -31v61q10 11 24.5 19t35.5 8q18 0 33 -5t29.5 -11.5t28.5 -11.5t31 -5q33 0 57 30v-61z" />
    <glyph glyph-name="uni1EBE" unicode="&#x1ebe;" horiz-adv-x="281" 
d="M7 0zM37 0v823h218v-77h-142v-289h100v-76h-100v-306h147v-75h-223zM251 900l112 161h89l-135 -161h-66zM232 833.114l-79 106.521l-82 -106.521h-64l108 139.431h80l104 -139.431h-67z" />
    <glyph glyph-name="uni1EBF" unicode="&#x1ebf;" horiz-adv-x="280" 
d="M0 0zM184 502q0 55 -46 55q-43 0 -43 -55v-149h89v149zM184 252h65v-136q0 -125 -111 -125q-107 0 -107 125v386q0 63 27.5 95t79.5 32q111 0 111 -127v-199h-154v-187q0 -55 43 -55q46 0 46 55v136zM76 860l112 161h89l-135 -161h-66zM218 656l-79 123l-82 -123h-64
l108 161h80l104 -161h-67z" />
    <glyph glyph-name="uni1EC0" unicode="&#x1ec0;" horiz-adv-x="281" 
d="M7 0zM37 0v823h218v-77h-142v-289h100v-76h-100v-306h147v-75h-223zM322 900l-134 161h88l113 -161h-67zM232 833.114l-79 106.521l-82 -106.521h-64l108 139.431h80l104 -139.431h-67z" />
    <glyph glyph-name="uni1EC1" unicode="&#x1ec1;" horiz-adv-x="280" 
d="M0 0zM184 502q0 55 -46 55q-43 0 -43 -55v-149h89v149zM184 252h65v-136q0 -125 -111 -125q-107 0 -107 125v386q0 63 27.5 95t79.5 32q111 0 111 -127v-199h-154v-187q0 -55 43 -55q46 0 46 55v136zM138 860l-134 161h88l113 -161h-67zM218 656l-79 123l-82 -123h-64
l108 161h80l104 -161h-67z" />
    <glyph glyph-name="uni1EC2" unicode="&#x1ec2;" horiz-adv-x="281" 
d="M7 0zM37 0v823h218v-77h-142v-289h100v-76h-100v-306h147v-75h-223zM232 833.114l-79 106.521l-82 -106.521h-64l108 139.431h80l104 -139.431h-67zM284 875v11q0 26 10 36.5t21 17.5q17 10 21.5 16t4.5 20v7q0 18 -26 18q-27 0 -27 -16v-14h-49v15q0 23 18 34t58 11
q76 0 76 -45v-10q0 -23 -6 -32.5t-26 -20.5q-10 -5 -15.5 -9t-8.5 -7.5t-4 -8.5t-1 -12v-11h-46z" />
    <glyph glyph-name="uni1EC3" unicode="&#x1ec3;" horiz-adv-x="280" 
d="M0 0zM184 502q0 55 -46 55q-43 0 -43 -55v-149h89v149zM184 252h65v-136q0 -125 -111 -125q-107 0 -107 125v386q0 63 27.5 95t79.5 32q111 0 111 -127v-199h-154v-187q0 -55 43 -55q46 0 46 55v136zM218 656l-79 123l-82 -123h-64l108 161h80l104 -161h-67zM118 865v11
q0 26 10 36.5t21 17.5q17 10 21.5 16t4.5 20v7q0 18 -26 18q-27 0 -27 -16v-14h-49v15q0 23 18 34t58 11q76 0 76 -45v-10q0 -23 -6 -32.5t-26 -20.5q-10 -5 -15.5 -9t-8.5 -7.5t-4 -8.5t-1 -12v-11h-46z" />
    <glyph glyph-name="uni1EC4" unicode="&#x1ec4;" horiz-adv-x="281" 
d="M7 0zM37 0v823h218v-77h-142v-289h100v-76h-100v-306h147v-75h-223zM270 1024q-9 -11 -24.5 -18.5t-36.5 -7.5q-17 0 -32 5t-29.5 11.5t-29 11.5t-30.5 5q-35 0 -57 -31v61q10 11 24.5 19t35.5 8q18 0 33 -5t29.5 -11.5t28.5 -11.5t31 -5q33 0 57 30v-61zM232 833.114
l-79 106.521l-82 -106.521h-64l108 139.431h80l104 -139.431h-67z" />
    <glyph glyph-name="uni1EC5" unicode="&#x1ec5;" horiz-adv-x="280" 
d="M0 0zM184 502q0 55 -46 55q-43 0 -43 -55v-149h89v149zM184 252h65v-136q0 -125 -111 -125q-107 0 -107 125v386q0 63 27.5 95t79.5 32q111 0 111 -127v-199h-154v-187q0 -55 43 -55q46 0 46 55v136zM259 917q-9 -11 -24.5 -18.5t-36.5 -7.5q-17 0 -32 5t-29.5 11.5
t-29 11.5t-30.5 5q-35 0 -57 -31v61q10 11 24.5 19t35.5 8q18 0 33 -5t29.5 -11.5t28.5 -11.5t31 -5q33 0 57 30v-61zM218 656l-79 123l-82 -123h-64l108 161h80l104 -161h-67z" />
    <glyph glyph-name="uni1EC6" unicode="&#x1ec6;" horiz-adv-x="281" 
d="M8 0zM37 0v823h218v-77h-142v-289h100v-76h-100v-306h147v-75h-223zM233 860l-79 123l-82 -123h-64l108 161h80l104 -161h-67zM112 -149v103h69v-103h-69z" />
    <glyph glyph-name="uni1EC7" unicode="&#x1ec7;" horiz-adv-x="280" 
d="M0 0zM184 502q0 55 -46 55q-43 0 -43 -55v-149h89v149zM184 252h65v-136q0 -125 -111 -125q-107 0 -107 125v386q0 63 27.5 95t79.5 32q111 0 111 -127v-199h-154v-187q0 -55 43 -55q46 0 46 55v136zM218 656l-79 123l-82 -123h-64l108 161h80l104 -161h-67zM105 -149
v103h69v-103h-69z" />
    <glyph glyph-name="uni1EC8" unicode="&#x1ec8;" horiz-adv-x="164" 
d="M12 0zM42 0v823h76v-823h-76zM57 865v11q0 26 10 36.5t21 17.5q17 10 21.5 16t4.5 20v7q0 18 -26 18q-27 0 -27 -16v-14h-49v15q0 23 18 34t58 11q76 0 76 -45v-10q0 -23 -6 -32.5t-26 -20.5q-10 -5 -15.5 -9t-8.5 -7.5t-4 -8.5t-1 -12v-11h-46z" />
    <glyph glyph-name="uni1EC9" unicode="&#x1ec9;" horiz-adv-x="160" 
d="M8 0zM42 0v619h69v-619h-69zM53 661v11q0 26 10 36.5t21 17.5q17 10 21.5 16t4.5 20v7q0 18 -26 18q-27 0 -27 -16v-14h-49v15q0 23 18 34t58 11q76 0 76 -45v-10q0 -23 -6 -32.5t-26 -20.5q-10 -5 -15.5 -9t-8.5 -7.5t-4 -8.5t-1 -12v-11h-46z" />
    <glyph glyph-name="uni1ECA" unicode="&#x1eca;" horiz-adv-x="155" 
d="M39 0zM39 0v823h76v-823h-76zM42 -149v103h69v-103h-69z" />
    <glyph glyph-name="uni1ECB" unicode="&#x1ecb;" horiz-adv-x="147" 
d="M39 0zM39 698v125h69v-125h-69zM39 0v619h69v-619h-69zM39 -149v103h69v-103h-69z" />
    <glyph glyph-name="uni1ECC" unicode="&#x1ecc;" horiz-adv-x="321" 
d="M31 0zM31 692q0 140 129 140q130 0 130 -140v-561q0 -140 -130 -140q-129 0 -129 140v561zM214 692q0 63 -54 63q-53 0 -53 -63v-561q0 -65 53 -65q54 0 54 65v561zM126 -149v103h69v-103h-69z" />
    <glyph glyph-name="uni1ECD" unicode="&#x1ecd;" horiz-adv-x="291" 
d="M31 0zM31 505q0 60 28 92t86 32q57 0 85.5 -32t28.5 -92v-391q0 -60 -28.5 -91.5t-85.5 -31.5q-58 0 -86 31.5t-28 91.5v391zM192 503q0 26 -9.5 40.5t-37.5 14.5t-37.5 -14.5t-9.5 -40.5v-389q0 -26 9.5 -39.5t37.5 -13.5t37.5 14t9.5 41v387zM111 -149v103h69v-103h-69
z" />
    <glyph glyph-name="uni1ECE" unicode="&#x1ece;" horiz-adv-x="321" 
d="M31 0zM31 692q0 140 129 140q130 0 130 -140v-561q0 -140 -130 -140q-129 0 -129 140v561zM214 692q0 63 -54 63q-53 0 -53 -63v-561q0 -65 53 -65q54 0 54 65v561zM138 865v11q0 26 10 36.5t21 17.5q17 10 21.5 16t4.5 20v7q0 18 -26 18q-27 0 -27 -16v-14h-49v15
q0 23 18 34t58 11q76 0 76 -45v-10q0 -23 -6 -32.5t-26 -20.5q-10 -5 -15.5 -9t-8.5 -7.5t-4 -8.5t-1 -12v-11h-46z" />
    <glyph glyph-name="uni1ECF" unicode="&#x1ecf;" horiz-adv-x="291" 
d="M31 0zM31 505q0 60 28 92t86 32q57 0 85.5 -32t28.5 -92v-391q0 -60 -28.5 -91.5t-85.5 -31.5q-58 0 -86 31.5t-28 91.5v391zM192 503q0 26 -9.5 40.5t-37.5 14.5t-37.5 -14.5t-9.5 -40.5v-389q0 -26 9.5 -39.5t37.5 -13.5t37.5 14t9.5 41v387zM122 661v11q0 26 10 36.5
t21 17.5q17 10 21.5 16t4.5 20v7q0 18 -26 18q-27 0 -27 -16v-14h-49v15q0 23 18 34t58 11q76 0 76 -45v-10q0 -23 -6 -32.5t-26 -20.5q-10 -5 -15.5 -9t-8.5 -7.5t-4 -8.5t-1 -12v-11h-46z" />
    <glyph glyph-name="uni1ED0" unicode="&#x1ed0;" horiz-adv-x="321" 
d="M16 0zM31 692q0 140 129 140q130 0 130 -140v-561q0 -140 -130 -140q-129 0 -129 140v561zM214 692q0 63 -54 63q-53 0 -53 -63v-561q0 -65 53 -65q54 0 54 65v561zM260 900l112 161h89l-135 -161h-66zM241 833.114l-79 106.521l-82 -106.521h-64l108 139.431h80
l104 -139.431h-67z" />
    <glyph glyph-name="uni1ED1" unicode="&#x1ed1;" horiz-adv-x="291" 
d="M0 0zM31 505q0 60 28 92t86 32q57 0 85.5 -32t28.5 -92v-391q0 -60 -28.5 -91.5t-85.5 -31.5q-58 0 -86 31.5t-28 91.5v391zM192 503q0 26 -9.5 40.5t-37.5 14.5t-37.5 -14.5t-9.5 -40.5v-389q0 -26 9.5 -39.5t37.5 -13.5t37.5 14t9.5 41v387zM81 860l112 161h89
l-135 -161h-66zM224 656l-79 123l-82 -123h-64l108 161h80l104 -161h-67z" />
    <glyph glyph-name="uni1ED2" unicode="&#x1ed2;" horiz-adv-x="321" 
d="M16 0zM31 692q0 140 129 140q130 0 130 -140v-561q0 -140 -130 -140q-129 0 -129 140v561zM214 692q0 63 -54 63q-53 0 -53 -63v-561q0 -65 53 -65q54 0 54 65v561zM332 900l-134 161h88l113 -161h-67zM241 833.114l-79 106.521l-82 -106.521h-64l108 139.431h80
l104 -139.431h-67z" />
    <glyph glyph-name="uni1ED3" unicode="&#x1ed3;" horiz-adv-x="291" 
d="M0 0zM31 505q0 60 28 92t86 32q57 0 85.5 -32t28.5 -92v-391q0 -60 -28.5 -91.5t-85.5 -31.5q-58 0 -86 31.5t-28 91.5v391zM192 503q0 26 -9.5 40.5t-37.5 14.5t-37.5 -14.5t-9.5 -40.5v-389q0 -26 9.5 -39.5t37.5 -13.5t37.5 14t9.5 41v387zM142 860l-134 161h88
l113 -161h-67zM224 656l-79 123l-82 -123h-64l108 161h80l104 -161h-67z" />
    <glyph glyph-name="uni1ED4" unicode="&#x1ed4;" horiz-adv-x="321" 
d="M16 0zM31 692q0 140 129 140q130 0 130 -140v-561q0 -140 -130 -140q-129 0 -129 140v561zM214 692q0 63 -54 63q-53 0 -53 -63v-561q0 -65 53 -65q54 0 54 65v561zM241 833.114l-79 106.521l-82 -106.521h-64l108 139.431h80l104 -139.431h-67zM278 895v11q0 26 10 36.5
t21 17.5q17 10 21.5 16t4.5 20v7q0 18 -26 18q-27 0 -27 -16v-14h-49v15q0 23 18 34t58 11q76 0 76 -45v-10q0 -23 -6 -32.5t-26 -20.5q-10 -5 -15.5 -9t-8.5 -7.5t-4 -8.5t-1 -12v-11h-46z" />
    <glyph glyph-name="uni1ED5" unicode="&#x1ed5;" horiz-adv-x="291" 
d="M0 0zM31 505q0 60 28 92t86 32q57 0 85.5 -32t28.5 -92v-391q0 -60 -28.5 -91.5t-85.5 -31.5q-58 0 -86 31.5t-28 91.5v391zM192 503q0 26 -9.5 40.5t-37.5 14.5t-37.5 -14.5t-9.5 -40.5v-389q0 -26 9.5 -39.5t37.5 -13.5t37.5 14t9.5 41v387zM224 656l-79 123l-82 -123
h-64l108 161h80l104 -161h-67zM121 865v11q0 26 10 36.5t21 17.5q17 10 21.5 16t4.5 20v7q0 18 -26 18q-27 0 -27 -16v-14h-49v15q0 23 18 34t58 11q76 0 76 -45v-10q0 -23 -6 -32.5t-26 -20.5q-10 -5 -15.5 -9t-8.5 -7.5t-4 -8.5t-1 -12v-11h-46z" />
    <glyph glyph-name="uni1ED6" unicode="&#x1ed6;" horiz-adv-x="321" 
d="M16 0zM31 692q0 140 129 140q130 0 130 -140v-561q0 -140 -130 -140q-129 0 -129 140v561zM214 692q0 63 -54 63q-53 0 -53 -63v-561q0 -65 53 -65q54 0 54 65v561zM279 1017q-9 -11 -24.5 -18.5t-36.5 -7.5q-17 0 -32 5t-29.5 11.5t-29 11.5t-30.5 5q-35 0 -57 -31v61
q10 11 24.5 19t35.5 8q18 0 33 -5t29.5 -11.5t28.5 -11.5t31 -5q33 0 57 30v-61zM241 833.114l-79 106.521l-82 -106.521h-64l108 139.431h80l104 -139.431h-67z" />
    <glyph glyph-name="uni1ED7" unicode="&#x1ed7;" horiz-adv-x="291" 
d="M0 0zM31 505q0 60 28 92t86 32q57 0 85.5 -32t28.5 -92v-391q0 -60 -28.5 -91.5t-85.5 -31.5q-58 0 -86 31.5t-28 91.5v391zM192 503q0 26 -9.5 40.5t-37.5 14.5t-37.5 -14.5t-9.5 -40.5v-389q0 -26 9.5 -39.5t37.5 -13.5t37.5 14t9.5 41v387zM264 917
q-9 -11 -24.5 -18.5t-36.5 -7.5q-17 0 -32 5t-29.5 11.5t-29 11.5t-30.5 5q-35 0 -57 -31v61q10 11 24.5 19t35.5 8q18 0 33 -5t29.5 -11.5t28.5 -11.5t31 -5q33 0 57 30v-61zM224 656l-79 123l-82 -123h-64l108 161h80l104 -161h-67z" />
    <glyph glyph-name="uni1ED8" unicode="&#x1ed8;" horiz-adv-x="321" 
d="M15 0zM31 692q0 140 129 140q130 0 130 -140v-561q0 -140 -130 -140q-129 0 -129 140v561zM214 692q0 63 -54 63q-53 0 -53 -63v-561q0 -65 53 -65q54 0 54 65v561zM240 860l-79 123l-82 -123h-64l108 161h80l104 -161h-67zM126 -149v103h69v-103h-69z" />
    <glyph glyph-name="uni1ED9" unicode="&#x1ed9;" horiz-adv-x="291" 
d="M0 0zM31 505q0 60 28 92t86 32q57 0 85.5 -32t28.5 -92v-391q0 -60 -28.5 -91.5t-85.5 -31.5q-58 0 -86 31.5t-28 91.5v391zM192 503q0 26 -9.5 40.5t-37.5 14.5t-37.5 -14.5t-9.5 -40.5v-389q0 -26 9.5 -39.5t37.5 -13.5t37.5 14t9.5 41v387zM224 656l-79 123l-82 -123
h-64l108 161h80l104 -161h-67zM111 -149v103h69v-103h-69z" />
    <glyph glyph-name="uni1EDA" unicode="&#x1eda;" horiz-adv-x="357" 
d="M31 0zM98 860l112 161h89l-135 -161h-66zM155 832q26 0 43 -4.5t39 -4.5q28 0 40.5 13t12.5 46v57h66v-53q0 -54 -22 -80.5t-67 -31.5q15 -22 19 -53t4 -69v-521q0 -140 -130 -140q-129 0 -129 140v561q0 70 32.5 105t91.5 35zM214 692q0 63 -54 63q-53 0 -53 -63v-561
q0 -64 53 -64q54 0 54 64v561z" />
    <glyph glyph-name="uni1EDB" unicode="&#x1edb;" horiz-adv-x="339" 
d="M31 0zM80 656l112 161h89l-135 -161h-66zM140 629q12 0 22 -1.5t19 -3.5t18 -3.5t20 -1.5q29 0 41.5 13.5t12.5 45.5v57h65v-43q0 -60 -22 -89t-73 -33q11 -20 13.5 -45.5t2.5 -53.5v-357q0 -60 -28 -91.5t-86 -31.5q-59 0 -86.5 31.5t-27.5 91.5v391q0 60 28 92t81 32z
M191 486q0 33 -9 52t-37 19q-29 0 -38 -19t-9 -52v-354q0 -33 9 -52t38 -19q46 0 46 55v370z" />
    <glyph glyph-name="uni1EDC" unicode="&#x1edc;" horiz-adv-x="357" 
d="M25 0zM159 860l-134 161h88l113 -161h-67zM155 832q26 0 43 -4.5t39 -4.5q28 0 40.5 13t12.5 46v57h66v-53q0 -54 -22 -80.5t-67 -31.5q15 -22 19 -53t4 -69v-521q0 -140 -130 -140q-129 0 -129 140v561q0 70 32.5 105t91.5 35zM214 692q0 63 -54 63q-53 0 -53 -63v-561
q0 -64 53 -64q54 0 54 64v561z" />
    <glyph glyph-name="uni1EDD" unicode="&#x1edd;" horiz-adv-x="339" 
d="M9 0zM143 656l-134 161h88l113 -161h-67zM140 629q12 0 22 -1.5t19 -3.5t18 -3.5t20 -1.5q29 0 41.5 13.5t12.5 45.5v57h65v-43q0 -60 -22 -89t-73 -33q11 -20 13.5 -45.5t2.5 -53.5v-357q0 -60 -28 -91.5t-86 -31.5q-59 0 -86.5 31.5t-27.5 91.5v391q0 60 28 92t81 32z
M191 486q0 33 -9 52t-37 19q-29 0 -38 -19t-9 -52v-354q0 -33 9 -52t38 -19q46 0 46 55v370z" />
    <glyph glyph-name="uni1EDE" unicode="&#x1ede;" horiz-adv-x="357" 
d="M31 0zM155 832q26 0 43 -4.5t39 -4.5q28 0 40.5 13t12.5 46v57h66v-53q0 -54 -22 -80.5t-67 -31.5q15 -22 19 -53t4 -69v-521q0 -140 -130 -140q-129 0 -129 140v561q0 70 32.5 105t91.5 35zM214 692q0 63 -54 63q-53 0 -53 -63v-561q0 -64 53 -64q54 0 54 64v561z
M138 865v11q0 26 10 36.5t21 17.5q17 10 21.5 16t4.5 20v7q0 18 -26 18q-27 0 -27 -16v-14h-49v15q0 23 18 34t58 11q76 0 76 -45v-10q0 -23 -6 -32.5t-26 -20.5q-10 -5 -15.5 -9t-8.5 -7.5t-4 -8.5t-1 -12v-11h-46z" />
    <glyph glyph-name="uni1EDF" unicode="&#x1edf;" horiz-adv-x="339" 
d="M31 0zM140 629q12 0 22 -1.5t19 -3.5t18 -3.5t20 -1.5q29 0 41.5 13.5t12.5 45.5v57h65v-43q0 -60 -22 -89t-73 -33q11 -20 13.5 -45.5t2.5 -53.5v-357q0 -60 -28 -91.5t-86 -31.5q-59 0 -86.5 31.5t-27.5 91.5v391q0 60 28 92t81 32zM191 486q0 33 -9 52t-37 19
q-29 0 -38 -19t-9 -52v-354q0 -33 9 -52t38 -19q46 0 46 55v370zM122 661v11q0 26 10 36.5t21 17.5q17 10 21.5 16t4.5 20v7q0 18 -26 18q-27 0 -27 -16v-14h-49v15q0 23 18 34t58 11q76 0 76 -45v-10q0 -23 -6 -32.5t-26 -20.5q-10 -5 -15.5 -9t-8.5 -7.5t-4 -8.5t-1 -12
v-11h-46z" />
    <glyph glyph-name="uni1EE0" unicode="&#x1ee0;" horiz-adv-x="357" 
d="M31 0zM272 937q-9 -11 -24.5 -18.5t-36.5 -7.5q-17 0 -32 5t-29.5 11.5t-29 11.5t-30.5 5q-35 0 -57 -31v61q10 11 24.5 19t35.5 8q18 0 33 -5t29.5 -11.5t28.5 -11.5t31 -5q33 0 57 30v-61zM155 832q26 0 43 -4.5t39 -4.5q28 0 40.5 13t12.5 46v57h66v-53
q0 -54 -22 -80.5t-67 -31.5q15 -22 19 -53t4 -69v-521q0 -140 -130 -140q-129 0 -129 140v561q0 70 32.5 105t91.5 35zM214 692q0 63 -54 63q-53 0 -53 -63v-561q0 -64 53 -64q54 0 54 64v561z" />
    <glyph glyph-name="uni1EE1" unicode="&#x1ee1;" horiz-adv-x="339" 
d="M23 0zM262 733q-9 -11 -24.5 -18.5t-36.5 -7.5q-17 0 -32 5t-29.5 11.5t-29 11.5t-30.5 5q-35 0 -57 -31v61q10 11 24.5 19t35.5 8q18 0 33 -5t29.5 -11.5t28.5 -11.5t31 -5q33 0 57 30v-61zM140 629q12 0 22 -1.5t19 -3.5t18 -3.5t20 -1.5q29 0 41.5 13.5t12.5 45.5v57
h65v-43q0 -60 -22 -89t-73 -33q11 -20 13.5 -45.5t2.5 -53.5v-357q0 -60 -28 -91.5t-86 -31.5q-59 0 -86.5 31.5t-27.5 91.5v391q0 60 28 92t81 32zM191 486q0 33 -9 52t-37 19q-29 0 -38 -19t-9 -52v-354q0 -33 9 -52t38 -19q46 0 46 55v370z" />
    <glyph glyph-name="uni1EE2" unicode="&#x1ee2;" horiz-adv-x="357" 
d="M31 0zM155 832q26 0 43 -4.5t39 -4.5q28 0 40.5 13t12.5 46v57h66v-53q0 -54 -22 -80.5t-67 -31.5q15 -22 19 -53t4 -69v-521q0 -140 -130 -140q-129 0 -129 140v561q0 70 32.5 105t91.5 35zM214 692q0 63 -54 63q-53 0 -53 -63v-561q0 -64 53 -64q54 0 54 64v561z
M127 -149v103h69v-103h-69z" />
    <glyph glyph-name="uni1EE3" unicode="&#x1ee3;" horiz-adv-x="339" 
d="M31 0zM140 629q12 0 22 -1.5t19 -3.5t18 -3.5t20 -1.5q29 0 41.5 13.5t12.5 45.5v57h65v-43q0 -60 -22 -89t-73 -33q11 -20 13.5 -45.5t2.5 -53.5v-357q0 -60 -28 -91.5t-86 -31.5q-59 0 -86.5 31.5t-27.5 91.5v391q0 60 28 92t81 32zM191 486q0 33 -9 52t-37 19
q-29 0 -38 -19t-9 -52v-354q0 -33 9 -52t38 -19q46 0 46 55v370zM110 -149v103h69v-103h-69z" />
    <glyph glyph-name="uni1EE4" unicode="&#x1ee4;" horiz-adv-x="326" 
d="M34 0zM216 823h76v-692q0 -140 -129 -140t-129 140v692h76v-692q0 -65 53 -65t53 65v692zM128 -149v103h69v-103h-69z" />
    <glyph glyph-name="uni1EE5" unicode="&#x1ee5;" horiz-adv-x="301" 
d="M34 0zM204 0q-1 11 -1.5 22t-0.5 23q-14 -25 -36.5 -38.5t-51.5 -13.5q-80 0 -80 107v519h69v-508q0 -28 9 -39t29 -11q16 0 30.5 8.5t22.5 28.5v521h69v-619h-59zM116 -149v103h69v-103h-69z" />
    <glyph glyph-name="uni1EE6" unicode="&#x1ee6;" horiz-adv-x="326" 
d="M34 0zM216 823h76v-692q0 -140 -129 -140t-129 140v692h76v-692q0 -65 53 -65t53 65v692zM140 865v11q0 26 10 36.5t21 17.5q17 10 21.5 16t4.5 20v7q0 18 -26 18q-27 0 -27 -16v-14h-49v15q0 23 18 34t58 11q76 0 76 -45v-10q0 -23 -6 -32.5t-26 -20.5q-10 -5 -15.5 -9
t-8.5 -7.5t-4 -8.5t-1 -12v-11h-46z" />
    <glyph glyph-name="uni1EE7" unicode="&#x1ee7;" horiz-adv-x="301" 
d="M34 0zM204 0q-1 11 -1.5 22t-0.5 23q-14 -25 -36.5 -38.5t-51.5 -13.5q-80 0 -80 107v519h69v-508q0 -28 9 -39t29 -11q16 0 30.5 8.5t22.5 28.5v521h69v-619h-59zM127 661v11q0 26 10 36.5t21 17.5q17 10 21.5 16t4.5 20v7q0 18 -26 18q-27 0 -27 -16v-14h-49v15
q0 23 18 34t58 11q76 0 76 -45v-10q0 -23 -6 -32.5t-26 -20.5q-10 -5 -15.5 -9t-8.5 -7.5t-4 -8.5t-1 -12v-11h-46z" />
    <glyph glyph-name="uni1EE8" unicode="&#x1ee8;" horiz-adv-x="411" 
d="M34 0zM105 860l112 161h89l-135 -161h-66zM216 823h76q28 0 40.5 13.5t12.5 45.5v57h66v-53q0 -60 -29.5 -87t-89.5 -27v-641q0 -140 -129 -140t-129 140v692h76v-692q0 -64 53 -64t53 64v692z" />
    <glyph glyph-name="uni1EE9" unicode="&#x1ee9;" horiz-adv-x="382" 
d="M34 0zM85 656l112 161h89l-135 -161h-66zM204 0q-1 11 -1.5 22t-0.5 24q-29 -52 -86 -52q-82 0 -82 106v519h69v-508q0 -27 9 -38.5t29 -11.5q17 0 31 9t22 28v521h69q29 0 41 13.5t12 45.5v58h66v-54q0 -60 -29.5 -86.5t-89.5 -26.5v-569h-59z" />
    <glyph glyph-name="uni1EEA" unicode="&#x1eea;" horiz-adv-x="411" 
d="M28 0zM162 860l-134 161h88l113 -161h-67zM216 823h76q28 0 40.5 13.5t12.5 45.5v57h66v-53q0 -60 -29.5 -87t-89.5 -27v-641q0 -140 -129 -140t-129 140v692h76v-692q0 -64 53 -64t53 64v692z" />
    <glyph glyph-name="uni1EEB" unicode="&#x1eeb;" horiz-adv-x="382" 
d="M13 0zM147 656l-134 161h88l113 -161h-67zM204 0q-1 11 -1.5 22t-0.5 24q-29 -52 -86 -52q-82 0 -82 106v519h69v-508q0 -27 9 -38.5t29 -11.5q17 0 31 9t22 28v521h69q29 0 41 13.5t12 45.5v58h66v-54q0 -60 -29.5 -86.5t-89.5 -26.5v-569h-59z" />
    <glyph glyph-name="uni1EEC" unicode="&#x1eec;" horiz-adv-x="411" 
d="M34 0zM216 823h76q28 0 40.5 13.5t12.5 45.5v57h66v-53q0 -60 -29.5 -87t-89.5 -27v-641q0 -140 -129 -140t-129 140v692h76v-692q0 -64 53 -64t53 64v692zM142 865v11q0 26 10 36.5t21 17.5q17 10 21.5 16t4.5 20v7q0 18 -26 18q-27 0 -27 -16v-14h-49v15q0 23 18 34
t58 11q76 0 76 -45v-10q0 -23 -6 -32.5t-26 -20.5q-10 -5 -15.5 -9t-8.5 -7.5t-4 -8.5t-1 -12v-11h-46z" />
    <glyph glyph-name="uni1EED" unicode="&#x1eed;" horiz-adv-x="382" 
d="M34 0zM204 0q-1 11 -1.5 22t-0.5 24q-29 -52 -86 -52q-82 0 -82 106v519h69v-508q0 -27 9 -38.5t29 -11.5q17 0 31 9t22 28v521h69q29 0 41 13.5t12 45.5v58h66v-54q0 -60 -29.5 -86.5t-89.5 -26.5v-569h-59zM126 661v11q0 26 10 36.5t21 17.5q17 10 21.5 16t4.5 20v7
q0 18 -26 18q-27 0 -27 -16v-14h-49v15q0 23 18 34t58 11q76 0 76 -45v-10q0 -23 -6 -32.5t-26 -20.5q-10 -5 -15.5 -9t-8.5 -7.5t-4 -8.5t-1 -12v-11h-46z" />
    <glyph glyph-name="uni1EEE" unicode="&#x1eee;" horiz-adv-x="411" 
d="M34 0zM284 917q-9 -11 -24.5 -18.5t-36.5 -7.5q-17 0 -32 5t-29.5 11.5t-29 11.5t-30.5 5q-35 0 -57 -31v61q10 11 24.5 19t35.5 8q18 0 33 -5t29.5 -11.5t28.5 -11.5t31 -5q33 0 57 30v-61zM216 823h76q28 0 40.5 13.5t12.5 45.5v57h66v-53q0 -60 -29.5 -87t-89.5 -27
v-641q0 -140 -129 -140t-129 140v692h76v-692q0 -64 53 -64t53 64v692z" />
    <glyph glyph-name="uni1EEF" unicode="&#x1eef;" horiz-adv-x="382" 
d="M30 0zM269 713q-9 -11 -24.5 -18.5t-36.5 -7.5q-17 0 -32 5t-29.5 11.5t-29 11.5t-30.5 5q-35 0 -57 -31v61q10 11 24.5 19t35.5 8q18 0 33 -5t29.5 -11.5t28.5 -11.5t31 -5q33 0 57 30v-61zM204 0q-1 11 -1.5 22t-0.5 24q-29 -52 -86 -52q-82 0 -82 106v519h69v-508
q0 -27 9 -38.5t29 -11.5q17 0 31 9t22 28v521h69q29 0 41 13.5t12 45.5v58h66v-54q0 -60 -29.5 -86.5t-89.5 -26.5v-569h-59z" />
    <glyph glyph-name="uni1EF0" unicode="&#x1ef0;" horiz-adv-x="411" 
d="M34 0zM216 823h76q28 0 40.5 13.5t12.5 45.5v57h66v-53q0 -60 -29.5 -87t-89.5 -27v-641q0 -140 -129 -140t-129 140v692h76v-692q0 -64 53 -64t53 64v692zM131 -149v103h69v-103h-69z" />
    <glyph glyph-name="uni1EF1" unicode="&#x1ef1;" horiz-adv-x="382" 
d="M34 0zM204 0q-1 11 -1.5 22t-0.5 24q-29 -52 -86 -52q-82 0 -82 106v519h69v-508q0 -27 9 -38.5t29 -11.5q17 0 31 9t22 28v521h69q29 0 41 13.5t12 45.5v58h66v-54q0 -60 -29.5 -86.5t-89.5 -26.5v-569h-59zM116 -149v103h69v-103h-69z" />
    <glyph glyph-name="Ygrave" unicode="&#x1ef2;" horiz-adv-x="332" 
d="M9 0zM125 0v369l-116 454h80q10 -41 21.5 -90.5t23 -97.5t20.5 -88.5t13 -62.5q4 22 13 62.5t20.5 88.5t24 97.5t23.5 90.5h74l-120 -454v-369h-77zM156 860l-134 161h88l113 -161h-67z" />
    <glyph glyph-name="ygrave" unicode="&#x1ef3;" horiz-adv-x="277" 
d="M0 0zM19 -70q18 -5 34 -5q21 0 30.5 17t14.5 46l4 25l-91 606h72q5 -35 10.5 -78t10.5 -89t10.5 -92t9.5 -86t7.5 -72t5.5 -49q2 17 5.5 49t8.5 72t10.5 86t11.5 92t12.5 89t12.5 78h66l-94 -627q-5 -33 -12 -58t-19.5 -42.5t-32.5 -26.5t-50 -9q-15 0 -37 5v69zM129 656
l-134 161h88l113 -161h-67z" />
    <glyph glyph-name="uni1EF6" unicode="&#x1ef6;" horiz-adv-x="332" 
d="M9 0zM125 0v369l-116 454h80q10 -41 21.5 -90.5t23 -97.5t20.5 -88.5t13 -62.5q4 22 13 62.5t20.5 88.5t24 97.5t23.5 90.5h74l-120 -454v-369h-77zM143 865v11q0 26 10 36.5t21 17.5q17 10 21.5 16t4.5 20v7q0 18 -26 18q-27 0 -27 -16v-14h-49v15q0 23 18 34t58 11
q76 0 76 -45v-10q0 -23 -6 -32.5t-26 -20.5q-10 -5 -15.5 -9t-8.5 -7.5t-4 -8.5t-1 -12v-11h-46z" />
    <glyph glyph-name="uni1EF7" unicode="&#x1ef7;" horiz-adv-x="277" 
d="M11 0zM19 -70q18 -5 34 -5q21 0 30.5 17t14.5 46l4 25l-91 606h72q5 -35 10.5 -78t10.5 -89t10.5 -92t9.5 -86t7.5 -72t5.5 -49q2 17 5.5 49t8.5 72t10.5 86t11.5 92t12.5 89t12.5 78h66l-94 -627q-5 -33 -12 -58t-19.5 -42.5t-32.5 -26.5t-50 -9q-15 0 -37 5v69z
M115 661v11q0 26 10 36.5t21 17.5q17 10 21.5 16t4.5 20v7q0 18 -26 18q-27 0 -27 -16v-14h-49v15q0 23 18 34t58 11q76 0 76 -45v-10q0 -23 -6 -32.5t-26 -20.5q-10 -5 -15.5 -9t-8.5 -7.5t-4 -8.5t-1 -12v-11h-46z" />
    <glyph glyph-name="endash" unicode="&#x2013;" horiz-adv-x="279" 
d="M13 385v59h253v-59h-253z" />
    <glyph glyph-name="emdash" unicode="&#x2014;" horiz-adv-x="438" 
d="M13 385v59h413v-59h-413z" />
    <glyph glyph-name="quoteleft" unicode="&#x2018;" horiz-adv-x="135" 
d="M31 645v130q0 25 12.5 40t41.5 15h8v-33h-7q-8 0 -12 -3.5t-4 -14.5v-31h33v-103h-72z" />
    <glyph glyph-name="quoteright" unicode="&#x2019;" horiz-adv-x="135" 
d="M41 638v33h6q17 0 17 18v31h-33v103h72v-129q0 -26 -12.5 -41t-41.5 -15h-8z" />
    <glyph glyph-name="quotesinglbase" unicode="&#x201a;" horiz-adv-x="139" 
d="M43 -60v33h6q17 0 17 18v31h-33v103h72v-129q0 -26 -12.5 -41t-41.5 -15h-8z" />
    <glyph glyph-name="quotedblleft" unicode="&#x201c;" horiz-adv-x="269" 
d="M31 645zM166 645v130q0 25 12.5 40t41.5 15h8v-33h-7q-8 0 -12 -3.5t-4 -14.5v-31h33v-103h-72zM31 645v130q0 25 12.5 40t41.5 15h8v-33h-7q-8 0 -12 -3.5t-4 -14.5v-31h33v-103h-72z" />
    <glyph glyph-name="quotedblright" unicode="&#x201d;" horiz-adv-x="269" 
d="M31 638zM176 638v33h6q17 0 17 18v31h-33v103h72v-129q0 -26 -12.5 -41t-41.5 -15h-8zM41 638v33h6q17 0 17 18v31h-33v103h72v-129q0 -26 -12.5 -41t-41.5 -15h-8z" />
    <glyph glyph-name="quotedblbase" unicode="&#x201e;" horiz-adv-x="274" 
d="M33 0zM178 -60v33h6q17 0 17 18v31h-33v103h72v-129q0 -26 -12.5 -41t-41.5 -15h-8zM43 -60v33h6q17 0 17 18v31h-33v103h72v-129q0 -26 -12.5 -41t-41.5 -15h-8z" />
    <glyph glyph-name="dagger" unicode="&#x2020;" horiz-adv-x="389" 
d="M166 195l8 416l-143 -6v56l141 -7l-7 169h57l-7 -169l142 8v-57l-144 6l7 -416h-54z" />
    <glyph glyph-name="daggerdbl" unicode="&#x2021;" horiz-adv-x="389" 
d="M165 0l7 168l-141 -6v55l143 -7l-14 202l14 199l-143 -6v56l141 -7l-7 169h57l-7 -169l142 8v-57l-144 6l14 -199l-14 -202l144 7v-57l-142 8l7 -168h-57z" />
    <glyph glyph-name="bullet" unicode="&#x2022;" horiz-adv-x="210" 
d="M105 386q-35 0 -54.5 24.5t-19.5 59.5t19.5 58.5t54.5 23.5q34 0 53.5 -23.5t19.5 -58.5t-19.5 -59.5t-53.5 -24.5z" />
    <glyph glyph-name="ellipsis" unicode="&#x2026;" horiz-adv-x="402" 
d="M31 0v125h71v-125h-71zM165 0v125h71v-125h-71zM299 0v125h71v-125h-71z" />
    <glyph glyph-name="perthousand" unicode="&#x2030;" horiz-adv-x="616" 
d="M31 0zM31 0l362 823h51l-361 -823h-52zM281 336q0 70 67 70q68 0 68 -70v-281q0 -70 -68 -70q-67 0 -67 70v281zM370 337q0 23 -22 23q-21 0 -21 -23v-283q0 -23 21 -23q22 0 22 23v283zM452 336q0 70 67 70q68 0 68 -70v-281q0 -70 -68 -70q-67 0 -67 70v281zM541 337
q0 23 -22 23q-21 0 -21 -23v-283q0 -23 21 -23q22 0 22 23v283zM63 768q0 70 67 70q68 0 68 -70v-281q0 -70 -68 -70q-67 0 -67 70v281zM152 769q0 23 -22 23q-21 0 -21 -23v-283q0 -23 21 -23q22 0 22 23v283z" />
    <glyph glyph-name="guilsinglleft" unicode="&#x2039;" horiz-adv-x="195" 
d="M19 296v75l157 112v-65l-120 -84l120 -88v-68z" />
    <glyph glyph-name="guilsinglright" unicode="&#x203a;" horiz-adv-x="195" 
d="M19 178v68l120 88l-120 84v65l157 -112v-75z" />
    <glyph glyph-name="fraction" unicode="&#x2044;" horiz-adv-x="161" 
d="M-126 0l362 823h51l-361 -823h-52z" />
    <glyph glyph-name="zerosuperior" unicode="&#x2070;" horiz-adv-x="194" 
d="M30 417zM30 768q0 70 67 70q68 0 68 -70v-281q0 -70 -68 -70q-67 0 -67 70v281zM119 769q0 23 -22 23q-21 0 -21 -23v-283q0 -23 21 -23q22 0 22 23v283z" />
    <glyph glyph-name="foursuperior" unicode="&#x2074;" horiz-adv-x="190" 
d="M19 422zM107 547q0 61 1 99t2 69q-9 -31 -20 -69t-30 -99h47zM107 422v82h-88v40l88 289h43v-286h20v-43h-20v-82h-43z" />
    <glyph glyph-name="fivesuperior" unicode="&#x2075;" horiz-adv-x="188" 
d="M30 417zM115 620q0 22 -21 22t-24 -22l-40 1l5 212h122v-46h-80l-5 -121q12 17 40 17q23 0 35 -14.5t12 -49.5v-133q0 -69 -64 -69q-65 0 -65 69v87h45v-86q0 -24 20 -24t20 24v133z" />
    <glyph glyph-name="sixsuperior" unicode="&#x2076;" horiz-adv-x="190" 
d="M29 417zM115 600q0 17 -3.5 26.5t-16.5 9.5q-17 0 -19 -17v-132q0 -11 4 -17.5t15 -6.5q20 0 20 24v113zM161 487q0 -32 -16.5 -51t-49.5 -19t-49.5 19t-16.5 51v281q0 32 16.5 51t49.5 19t48.5 -19t15.5 -51v-71h-45v71q0 23 -19 23t-19 -23v-104q5 6 13 11t25 5
q25 0 36 -14.5t11 -49.5v-129z" />
    <glyph glyph-name="sevensuperior" unicode="&#x2077;" horiz-adv-x="174" 
d="M21 422zM46 422q0 86 8 151t19 110t21.5 70.5t15.5 33.5h-89v46h132v-43q-33 -75 -47 -164t-14 -204h-46z" />
    <glyph glyph-name="eightsuperior" unicode="&#x2078;" horiz-adv-x="187" 
d="M28 417zM159 486q0 -69 -66 -69q-65 0 -65 69v100q0 20 7.5 32t20.5 17q-11 5 -17.5 15.5t-6.5 29.5v87q0 33 14.5 52t46.5 19q33 0 47.5 -19t14.5 -52v-87q0 -19 -6.5 -29.5t-17.5 -15.5q12 -5 20 -17t8 -32v-100zM113 589q0 21 -20 21q-19 0 -19 -21v-102q0 -24 19 -24
q20 0 20 24v102zM113 767q0 24 -20 24q-19 0 -19 -24v-93q0 -21 19 -21q20 0 20 21v93z" />
    <glyph glyph-name="ninesuperior" unicode="&#x2079;" horiz-adv-x="189" 
d="M29 417zM113 768q0 23 -19 23q-20 0 -20 -23v-118q0 -23 20 -23q9 0 13.5 5t5.5 12v124zM113 598q-5 -7 -12.5 -12t-24.5 -5q-25 0 -36 15t-11 50v122q0 33 16 51.5t49 18.5t49.5 -18.5t16.5 -51.5v-281q0 -33 -16.5 -51.5t-48.5 -18.5t-49 19t-17 51v71h45v-71
q0 -24 20 -24q19 0 19 24v111z" />
    <glyph glyph-name="zeroinferior" unicode="&#x2080;" horiz-adv-x="194" 
d="M30 336q0 70 67 70q68 0 68 -70v-281q0 -70 -68 -70q-67 0 -67 70v281zM119 337q0 23 -22 23q-21 0 -21 -23v-283q0 -23 21 -23q22 0 22 23v283z" />
    <glyph glyph-name="oneinferior" unicode="&#x2081;" horiz-adv-x="123" 
d="M45 -10v336h-22v45h10q17 0 17 19v11h41v-411h-46z" />
    <glyph glyph-name="twoinferior" unicode="&#x2082;" horiz-adv-x="185" 
d="M27 -10v75q0 18 1.5 32t6 26.5t12 26.5t19.5 32q14 21 23 35t14 25.5t7 22.5t2 26v44q0 24 -20 24q-19 0 -19 -24v-72h-46v71q0 38 16 55t49 17q66 0 66 -72v-48q0 -38 -13 -64t-30 -51q-14 -21 -22.5 -34.5t-12.5 -24.5t-5 -21.5t-1 -25.5v-29h84v-46h-131z" />
    <glyph glyph-name="threeinferior" unicode="&#x2083;" horiz-adv-x="185" 
d="M113 154q0 24 -20 24h-21v43h23q11 0 14 6.5t3 17.5v90q0 24 -19 24t-19 -24v-73h-46v73q0 38 16 54.5t49 16.5t48.5 -17t15.5 -55v-91q0 -32 -27 -44q14 -4 21 -14t7 -30v-100q0 -32 -16 -51t-49 -19t-49.5 19t-16.5 51v81h47v-81q0 -24 19 -24q20 0 20 24v99z" />
    <glyph glyph-name="fourinferior" unicode="&#x2084;" horiz-adv-x="190" 
d="M107 115q0 61 1 99t2 69q-9 -31 -20 -69t-30 -99h47zM107 -10v82h-88v40l88 289h43v-286h20v-43h-20v-82h-43z" />
    <glyph glyph-name="fiveinferior" unicode="&#x2085;" horiz-adv-x="188" 
d="M115 188q0 22 -21 22t-24 -22l-40 1l5 212h122v-46h-80l-5 -121q12 17 40 17q23 0 35 -14.5t12 -49.5v-133q0 -69 -64 -69q-65 0 -65 69v87h45v-86q0 -24 20 -24t20 24v133z" />
    <glyph glyph-name="sixinferior" unicode="&#x2086;" horiz-adv-x="190" 
d="M115 168q0 17 -3.5 26.5t-16.5 9.5q-17 0 -19 -17v-132q0 -11 4 -17.5t15 -6.5q20 0 20 24v113zM161 55q0 -32 -16.5 -51t-49.5 -19t-49.5 19t-16.5 51v281q0 32 16.5 51t49.5 19t48.5 -19t15.5 -51v-71h-45v71q0 23 -19 23t-19 -23v-104q5 6 13 11t25 5q25 0 36 -14.5
t11 -49.5v-129z" />
    <glyph glyph-name="seveninferior" unicode="&#x2087;" horiz-adv-x="174" 
d="M46 -10q0 86 8 151t19 110t21.5 70.5t15.5 33.5h-89v46h132v-43q-33 -75 -47 -164t-14 -204h-46z" />
    <glyph glyph-name="eightinferior" unicode="&#x2088;" horiz-adv-x="187" 
d="M159 54q0 -69 -66 -69q-65 0 -65 69v100q0 20 7.5 32t20.5 17q-11 5 -17.5 15.5t-6.5 29.5v87q0 33 14.5 52t46.5 19q33 0 47.5 -19t14.5 -52v-87q0 -19 -6.5 -29.5t-17.5 -15.5q12 -5 20 -17t8 -32v-100zM113 157q0 21 -20 21q-19 0 -19 -21v-102q0 -24 19 -24
q20 0 20 24v102zM113 335q0 24 -20 24q-19 0 -19 -24v-93q0 -21 19 -21q20 0 20 21v93z" />
    <glyph glyph-name="nineinferior" unicode="&#x2089;" horiz-adv-x="189" 
d="M113 336q0 23 -19 23q-20 0 -20 -23v-118q0 -23 20 -23q9 0 13.5 5t5.5 12v124zM113 166q-5 -7 -12.5 -12t-24.5 -5q-25 0 -36 15t-11 50v122q0 33 16 51.5t49 18.5t49.5 -18.5t16.5 -51.5v-281q0 -33 -16.5 -51.5t-48.5 -18.5t-49 19t-17 51v71h45v-71q0 -24 20 -24
q19 0 19 24v111z" />
    <glyph glyph-name="uni20A9" unicode="&#x20a9;" horiz-adv-x="526" 
d="M317 0l-34 384h-42l-37 -384h-87l-41 384h-64v59h58l-11 105h-47v59h41l-22 216h74l19 -216h84l22 216h71l19 -216h83l22 216h74l-25 -216h39v-59h-46l-13 -105h59v-59h-66l-45 -384h-85zM139 443h52l11 105h-72zM335 443h51l11 105h-71zM164 176l21 208h-40zM359 176
l21 208h-40zM246 443h32l-10 105h-11z" />
    <glyph glyph-name="uni20AA" unicode="&#x20aa;" horiz-adv-x="515" 
d="M99 739v-739h-62v823h204q57 0 83 -29.5t26 -95.5v-473h-62v463q0 28 -10.5 39.5t-36.5 11.5h-142zM415 83v740h63v-823h-206q-56 0 -82 28.5t-26 94.5v474h62v-463q0 -29 10 -40t36 -11h143z" />
    <glyph glyph-name="dong" unicode="&#x20ab;" 
d="M207 108q0 1 -0.5 8t-1 15t-0.5 15v9q-22 -53 -84 -53q-44 0 -67 27.5t-23 87.5v298q0 60 21.5 87t66.5 27q25 0 44 -9t34 -30v110h-132v59h132v64h69v-64h32v-59h-32v-592h-59zM13 0v52h275v-52h-275zM197 519q-15 40 -56 40q-21 0 -31 -12t-10 -39v-281q0 -28 10 -40
t30 -12t34.5 10t22.5 30v304z" />
    <glyph glyph-name="Euro" unicode="&#x20ac;" horiz-adv-x="342" 
d="M247 208h75v-77q0 -69 -31.5 -104.5t-100.5 -35.5t-101.5 35.5t-32.5 104.5v165h-46l9 58h37v129h-46l9 59h37v130q0 40 8.5 70.5t29 50t53.5 29.5t83 10q29 0 55 -1.5t47 -3.5l-12 -77q-45 6 -88 6q-31 0 -50.5 -5.5t-30.5 -16t-15 -26t-4 -36.5v-130h156l-10 -59h-146
v-129h127l-10 -58h-117v-167q0 -26 16 -45t42 -19q34 0 45.5 20t11.5 62v61z" />
    <glyph glyph-name="uni20AD" unicode="&#x20ad;" horiz-adv-x="393" 
d="M223 408l141 -408h-81l-135 405v-405h-71v408h-68v59h68v356h71v-355l130 355h77l-139 -356h158v-59h-151z" />
    <glyph glyph-name="uni20AE" unicode="&#x20ae;" horiz-adv-x="281" 
d="M178 449v-84l56 33l30 -51l-86 -50v-297h-75v254l-57 -33l-29 50l86 50v85l-57 -33l-29 50l86 50v273h-92v77h259v-77h-92v-229l56 33l30 -51z" />
    </font>
</defs>
</svg>
