<?xml version="1.0" standalone="no"?>
<!DOCTYPE svg PUBLIC "-//W3C//DTD SVG 1.1//EN" "http://www.w3.org/Graphics/SVG/1.1/DTD/svg11.dtd" >
<svg xmlns="http://www.w3.org/2000/svg" xmlns:xlink="http://www.w3.org/1999/xlink" version="1.1">
<metadata></metadata>
<defs>
<font id="acromregular" horiz-adv-x="1359" >
<font-face units-per-em="2048" ascent="1536" descent="-512" />
<missing-glyph horiz-adv-x="651" />
<glyph horiz-adv-x="0" />
<glyph horiz-adv-x="682" />
<glyph unicode=" "  horiz-adv-x="651" />
<glyph unicode="&#x09;" horiz-adv-x="651" />
<glyph unicode="&#xa0;" horiz-adv-x="651" />
<glyph unicode="!" horiz-adv-x="452" d="M129 76q0 37 28.5 62.5t69.5 25.5q40 0 69.5 -26t29.5 -62q0 -38 -29.5 -64t-69.5 -26q-41 0 -69.5 26t-28.5 64zM147 819v615h160v-615l-18 -479h-123z" />
<glyph unicode="&#x22;" horiz-adv-x="571" d="M129 1434h109l-15 -332h-80zM334 1434h108l-14 -332h-80z" />
<glyph unicode="#" horiz-adv-x="1423" d="M129 455l18 90h283l66 315h-281l21 92h280l102 482h101l-103 -482h289l105 482h100l-102 -482h286l-18 -92h-289l-65 -315h288l-20 -90h-289l-96 -455h-100l96 455h-291l-96 -455h-101l97 455h-281zM530 545h289l68 315h-291z" />
<glyph unicode="$" horiz-adv-x="1374" d="M129 297l104 96q45 -101 148 -170.5t248 -83.5v545l-17 2q-223 29 -335.5 115t-112.5 243q0 116 64.5 207t169 140.5t231.5 56.5v88h100v-90q138 -9 262 -72t207 -166l-104 -94q-66 77 -164 125t-201 57v-473l57 -8q228 -29 344.5 -124.5t116.5 -282.5 q0 -124 -70.5 -220.5t-187.5 -147.5t-260 -54v-95h-100v99q-178 15 -307 97.5t-193 209.5zM324 1049q0 -92 74 -142t231 -71v462q-77 -5 -144 -32.5t-114 -84t-47 -132.5zM729 135q154 3 256 77t102 196q0 117 -79 177t-240 83l-39 4v-537z" />
<glyph unicode="%" horiz-adv-x="1679" d="M129 1108q0 141 101 240.5t247 99.5t247 -99.5t101 -240.5t-101 -240.5t-247 -99.5t-247 99.5t-101 240.5zM242 1108q0 -106 65.5 -172t169.5 -66q103 0 169.5 66.5t66.5 171.5t-66.5 171.5t-169.5 66.5q-104 0 -169.5 -66t-65.5 -172zM371 0l831 1434h107l-832 -1434 h-106zM856 326q0 141 101 240.5t247 99.5t247 -99.5t101 -240.5t-101 -240.5t-247 -99.5t-247 99.5t-101 240.5zM969 326q0 -106 65.5 -172t169.5 -66q103 0 169.5 66.5t66.5 171.5t-66.5 171t-169.5 66q-104 0 -169.5 -65.5t-65.5 -171.5z" />
<glyph unicode="&#x26;" horiz-adv-x="1400" d="M129 403q0 129 68.5 221t187.5 134l-84 84q-100 112 -100 248q0 157 117 252.5t300 95.5h17q176 -2 297 -101.5t121 -263.5v-20h-152q0 80 -41.5 136t-102.5 79.5t-134 23.5q-71 0 -131 -22.5t-102 -76.5t-42 -132q0 -95 70 -168l563 -582q39 67 39 156h117 q0 -140 -64 -256l201 -211h-164l-115 117q-128 -125 -364 -125h-15q-224 1 -355.5 112t-131.5 299zM283 430q0 -138 97 -215.5t253 -77.5q172 0 260 94l-432 443q-82 -29 -130 -91.5t-48 -152.5z" />
<glyph unicode="'" horiz-adv-x="364" d="M129 1434h109l-15 -332h-80z" />
<glyph unicode="(" horiz-adv-x="778" d="M129 610v23q3 281 150.5 526.5t369.5 360.5v-152q-151 -109 -254 -310.5t-106 -424.5v-23q0 -224 103 -426.5t257 -318.5v-152q-225 122 -372.5 367.5t-147.5 529.5z" />
<glyph unicode=")" horiz-adv-x="778" d="M129 -135q154 116 257 318.5t103 426.5v23q-3 223 -106 424.5t-254 310.5v152q222 -115 369.5 -360.5t150.5 -526.5v-23q0 -284 -147.5 -529.5t-372.5 -367.5v152z" />
<glyph unicode="*" horiz-adv-x="931" d="M129 1184l25 88l274 -92l-8 288h92l-8 -288l274 92l25 -88l-279 -76l193 -231l-74 -60l-178 248l-176 -248l-74 60l193 231z" />
<glyph unicode="+" horiz-adv-x="1105" d="M129 549v98h371v375h106v-375h371v-98h-371v-375h-106v375h-371z" />
<glyph unicode="," horiz-adv-x="546" d="M129 -242l123 406h168l-184 -406h-107z" />
<glyph unicode="-" horiz-adv-x="765" d="M129 541v100h508v-100h-508z" />
<glyph unicode="." horiz-adv-x="452" d="M129 76q0 37 28.5 62.5t69.5 25.5q40 0 69.5 -26t29.5 -62q0 -38 -29.5 -64t-69.5 -26q-41 0 -69.5 26t-28.5 64z" />
<glyph unicode="/" horiz-adv-x="927" d="M129 0l569 1434h101l-570 -1434h-100z" />
<glyph unicode="0" horiz-adv-x="1716" d="M141 702q0 146 56.5 278.5t152.5 228.5t228.5 153t277.5 57q146 0 279.5 -57t229.5 -153t153 -228.5t57 -278.5q0 -195 -96.5 -360t-262 -260.5t-360.5 -95.5q-146 0 -278 56.5t-228 152t-152.5 228.5t-56.5 279zM303 702q0 -159 74 -289t201 -203t280 -73t280 73 t201 203t74 289t-74 289t-201 203.5t-280 73.5t-280 -73.5t-201 -203.5t-74 -289z" />
<glyph unicode="1" horiz-adv-x="772" d="M94 975l357 428h90v-1403h-160v1110l-180 -217z" />
<glyph unicode="2" horiz-adv-x="1294" d="M115 0v90l630 545q134 116 188 192t54 168q0 124 -96.5 198.5t-231.5 74.5l-18 2q-231 0 -391 -195l-105 96q97 122 227.5 185t278.5 63h23q205 -1 338 -115.5t133 -281.5q0 -135 -81 -247.5t-276 -274.5l-397 -350h787v-150h-1063z" />
<glyph unicode="3" horiz-adv-x="1314" d="M115 285l104 96q159 -246 455 -246h12q160 3 260.5 96.5t100.5 245.5q0 136 -89.5 212.5t-277.5 76.5q-120 0 -236 -55l-84 61l543 481h-661v150h907v-88l-533 -473q60 16 162 16q203 -12 311.5 -122t108.5 -279q0 -205 -135.5 -336t-372.5 -135h-18q-191 1 -334.5 81 t-222.5 218z" />
<glyph unicode="4" horiz-adv-x="1288" d="M94 279v90l848 1034h90v-975h162v-149h-162v-279h-160v279h-778zM291 428h581v700z" />
<glyph unicode="5" horiz-adv-x="1310" d="M115 285l104 96q81 -125 190 -185.5t261 -60.5h10q156 3 259 92.5t103 235.5q0 155 -96.5 238t-273.5 83q-106 0 -209 -37.5t-162 -87.5l-82 62v682h846v-150h-700v-446q59 42 154 69t208 27q218 0 342.5 -123t124.5 -327q0 -93 -34.5 -176.5t-98.5 -147.5t-161.5 -102.5 t-215.5 -40.5h-20q-190 1 -330 80.5t-219 218.5z" />
<glyph unicode="6" horiz-adv-x="1275" d="M115 666q0 116 19.5 223t63 204.5t107.5 169t160 114t213 42.5h12q275 -3 426 -196l-102 -95q-70 72 -147.5 106t-176.5 34l-12 2q-86 0 -155 -32t-113.5 -83.5t-75.5 -123.5t-45.5 -145.5t-18.5 -154.5q51 100 157 161.5t243 61.5q210 0 349.5 -134t139.5 -345 q0 -131 -61 -241.5t-180 -179t-273 -68.5q-158 0 -279.5 74t-185 200t-63.5 283zM276 496q0 -151 97.5 -255t263.5 -104q159 0 260.5 96t101.5 242q0 147 -101.5 244.5t-260.5 97.5q-156 0 -258.5 -94t-102.5 -227z" />
<glyph unicode="7" horiz-adv-x="1120" d="M94 1253v150h930v-88l-754 -1315h-174l721 1253h-723z" />
<glyph unicode="8" horiz-adv-x="1239" d="M115 393q0 134 77.5 227.5t208.5 129.5q-105 37 -169 115t-64 200q0 157 124 256.5t320 99.5h19q194 -3 315 -102t121 -254q0 -122 -64 -200t-169 -115q131 -36 209.5 -130t78.5 -227q0 -184 -134.5 -294.5t-360.5 -112.5h-11q-229 0 -365 110.5t-136 296.5zM268 418 q0 -132 97 -208.5t253 -76.5q155 0 253 76.5t98 208.5t-95.5 206.5t-255.5 77.5q-41 0 -84 -7t-92 -27t-86.5 -50t-62.5 -82t-25 -118zM322 1038q0 -119 84.5 -178t211.5 -59q126 0 211.5 59.5t85.5 177.5q0 80 -43 136t-108 80t-146 24q-127 0 -211.5 -60.5t-84.5 -179.5z " />
<glyph unicode="9" horiz-adv-x="1275" d="M115 928q0 98 36.5 186.5t101.5 156.5t162.5 108t213.5 40q158 0 280 -74.5t186 -201t64 -283.5v-121q0 -116 -19.5 -223t-63 -204.5t-107.5 -169t-159 -114t-212 -42.5h-14q-268 0 -426 194l102 96q72 -72 149.5 -106.5t176.5 -34.5h12q86 0 155 32t113.5 83.5 t75.5 123.5t45.5 145.5t18.5 154.5q-53 -100 -158.5 -161.5t-243.5 -61.5q-210 0 -349.5 133t-139.5 344zM276 928q0 -146 103 -243t260 -97q156 0 258 94t102 227q0 152 -96.5 255.5t-263.5 103.5q-157 0 -260 -97t-103 -243z" />
<glyph unicode=":" horiz-adv-x="452" d="M129 76q0 37 28.5 63.5t69.5 26.5q40 0 69.5 -26.5t29.5 -63.5q0 -38 -29.5 -64t-69.5 -26q-41 0 -69.5 26t-28.5 64zM129 696q0 38 28.5 64t69.5 26q40 0 69.5 -26t29.5 -64q0 -37 -29.5 -63.5t-69.5 -26.5q-41 0 -69.5 26.5t-28.5 63.5z" />
<glyph unicode=";" horiz-adv-x="569" d="M129 -242l123 406h168l-184 -406h-107zM244 696q0 38 28.5 64t69.5 26q40 0 69 -26t29 -64q0 -37 -29 -63.5t-69 -26.5q-41 0 -69.5 26.5t-28.5 63.5z" />
<glyph unicode="&#x3c;" horiz-adv-x="948" d="M129 700l692 414v-139l-450 -277l450 -274v-139z" />
<glyph unicode="=" horiz-adv-x="1105" d="M129 377v100h848v-100h-848zM129 672v100h848v-100h-848z" />
<glyph unicode="&#x3e;" horiz-adv-x="948" d="M129 285v139l451 274l-451 277v139l692 -414z" />
<glyph unicode="?" horiz-adv-x="1339" d="M129 1149q80 134 224 216t333 83h21q233 -4 369 -132t136 -321q0 -189 -131.5 -303t-347.5 -129v-178h-160v274q250 -9 369 76t119 242q0 140 -101.5 229.5t-259.5 91.5h-12q-286 0 -455 -245zM553 76q0 37 28.5 62.5t69.5 25.5q40 0 69.5 -26t29.5 -62q0 -38 -29.5 -64 t-69.5 -26q-41 0 -69.5 26t-28.5 64z" />
<glyph unicode="@" horiz-adv-x="1918" d="M129 524q0 169 65.5 323t176.5 265.5t264.5 177.5t322.5 66q186 0 343.5 -64.5t263.5 -175t165.5 -260.5t59.5 -319v-242q0 -128 -65.5 -197t-174.5 -71q-172 4 -196 149l-4 94q-56 -112 -165.5 -178.5t-242.5 -66.5t-242.5 65t-172 177t-62.5 245t62.5 246t172.5 179.5 t242 66.5q128 0 233 -64.5t162 -171.5l4 221h93v-727q0 -135 118 -135q58 0 90.5 35t32.5 133v237q0 209 -89.5 372.5t-253 255t-374.5 91.5q-141 0 -271 -54t-228 -148t-156.5 -231.5t-58.5 -293.5q0 -157 58.5 -294t156.5 -231t228 -148t271 -54q186 0 359 97l76 -76 q-198 -125 -435 -125q-169 0 -322.5 65.5t-264.5 176.5t-176.5 265t-65.5 324zM590 512q0 -158 106 -263.5t256 -105.5q151 0 258 105.5t107 263.5t-107 264.5t-258 106.5q-150 0 -256 -106.5t-106 -264.5z" />
<glyph unicode="A" horiz-adv-x="1464" d="M94 0l594 1434h90l592 -1434h-176l-156 381h-612l-156 -381h-176zM483 530h500l-250 609z" />
<glyph unicode="B" horiz-adv-x="1417" d="M231 0v1434h521q116 0 203 -23t138 -58.5t82 -86.5t41.5 -98.5t10.5 -102.5q0 -242 -217 -313q139 -26 216 -121.5t77 -233.5q0 -89 -26.5 -159t-83.5 -124.5t-156 -84t-234 -29.5h-572zM391 150h440q320 0 320 262q0 121 -80 191.5t-240 70.5h-440v-524zM391 811h375 q309 0 309 236q0 50 -11.5 88t-42.5 74t-95.5 55.5t-159.5 19.5h-375v-473z" />
<glyph unicode="C" horiz-adv-x="1527" d="M141 717q0 148 57.5 283.5t155 233.5t233 156t283.5 58q158 0 298.5 -63.5t242.5 -176.5l-104 -94q-85 88 -197.5 136t-239.5 48q-157 0 -287 -75.5t-206 -209t-76 -296.5q0 -164 76 -298t206 -209t287 -75q128 0 240.5 48t196.5 136l104 -98q-102 -111 -242 -173 t-299 -62q-198 0 -366 97.5t-265.5 265.5t-97.5 368z" />
<glyph unicode="D" horiz-adv-x="1552" d="M231 0v1434h451q201 0 367 -89.5t264 -254.5t98 -373q0 -157 -57.5 -292t-156 -227.5t-232 -145t-283.5 -52.5h-451zM391 150h291q160 0 288 66.5t204.5 197t76.5 303.5q0 172 -76.5 302.5t-205 197.5t-287.5 67h-291v-1134z" />
<glyph unicode="E" horiz-adv-x="1253" d="M231 0v1434h908v-150h-748v-485h703v-150h-703v-499h748v-150h-908z" />
<glyph unicode="F" horiz-adv-x="1253" d="M231 0v1434h908v-150h-748v-485h703v-150h-703v-649h-160z" />
<glyph unicode="G" horiz-adv-x="1622" d="M141 717q0 148 57.5 283.5t155 233.5t233 156t283.5 58q158 0 298.5 -63.5t242.5 -176.5l-104 -96q-84 89 -196.5 137.5t-240.5 48.5q-157 0 -287 -75.5t-206 -209t-76 -296.5q0 -164 76 -298t206 -209t287 -75q222 0 381 146v346h-393v125h553v-531q-102 -111 -242 -173 t-299 -62q-198 0 -366 97.5t-265.5 265.5t-97.5 368z" />
<glyph unicode="H" horiz-adv-x="1544" d="M231 0v1434h160v-633h764v633h160v-1434h-160v651h-764v-651h-160z" />
<glyph unicode="I" horiz-adv-x="958" d="M231 0v150h168v1134h-168v150h496v-150h-168v-1134h168v-150h-496z" />
<glyph unicode="J" horiz-adv-x="1222" d="M141 487v60h160v-78q0 -153 81 -243.5t228 -90.5q148 0 230 90.5t82 243.5v815h-492v150h651v-947q0 -238 -127 -369.5t-344 -131.5t-343 131.5t-126 369.5z" />
<glyph unicode="K" horiz-adv-x="1470" d="M231 0v1434h160v-629h211q37 0 64.5 3.5t52.5 16t41.5 24t39 39.5t37.5 49.5t44 66.5l276 430h182l-315 -486q-66 -99 -107.5 -145.5t-85.5 -67.5q55 -18 100.5 -66.5t115.5 -158.5l329 -510h-182l-291 455q-35 53 -52.5 77.5t-44 53.5t-49.5 40t-55.5 19t-76.5 8h-234 v-653h-160z" />
<glyph unicode="L" horiz-adv-x="1220" d="M231 0v1434h160v-1284h733v-150h-893z" />
<glyph unicode="M" horiz-adv-x="1828" d="M211 0v1434h90l604 -770l604 770h90v-1434h-159v1126l-535 -680l-534 680v-1126h-160z" />
<glyph unicode="N" horiz-adv-x="1507" d="M211 0v1434h90l836 -1121v1121h159v-1434h-88l-837 1120v-1120h-160z" />
<glyph unicode="O" horiz-adv-x="1742" d="M141 717q0 148 57.5 283.5t155 233.5t233 156t283.5 58t283.5 -58t234 -156t156.5 -233.5t58 -283.5q0 -199 -98.5 -367.5t-267 -266t-366.5 -97.5t-366 97.5t-265.5 265.5t-97.5 368zM301 717q0 -164 76 -298t206 -209t287 -75q117 0 222.5 44.5t182.5 121t122 185 t45 231.5q0 163 -76.5 296.5t-207.5 209t-288 75.5t-287 -75.5t-206 -209t-76 -296.5z" />
<glyph unicode="P" horiz-adv-x="1452" d="M231 0v1434h453q279 0 453 -142t174 -385q0 -244 -174 -385t-453 -141h-293v-381h-160zM391 530h303q96 0 178 22t147 66t102.5 118t37.5 171q0 95 -37.5 169t-102.5 118.5t-147.5 67t-177.5 22.5h-303v-754z" />
<glyph unicode="Q" horiz-adv-x="1779" d="M141 717q0 148 57.5 283.5t155 233.5t233 156t283.5 58t283.5 -58t234 -156t156.5 -233.5t58 -283.5q0 -190 -99 -347t-260 -235h395v-149h-768q-198 0 -366 97.5t-265.5 265.5t-97.5 368zM301 717q0 -164 76 -298t206 -209t287 -75q117 0 222.5 44.5t182.5 121t122 185 t45 231.5q0 163 -76.5 296.5t-207.5 209t-288 75.5t-287 -75.5t-206 -209t-76 -296.5z" />
<glyph unicode="R" horiz-adv-x="1419" d="M231 0v1434h461q182 0 322 -62t218.5 -179.5t78.5 -274.5q0 -175 -98.5 -293.5t-268.5 -167.5q117 -49 238 -238l143 -219h-182l-117 182q-46 71 -82.5 112.5t-77 65.5t-80.5 32t-102 9h-293v-401h-160zM391 551h314q76 0 142.5 13.5t124 42.5t99 71t65 103.5t23.5 136.5 q0 92 -35.5 163t-98.5 115t-144 66t-176 22h-314v-733z" />
<glyph unicode="S" horiz-adv-x="1347" d="M115 297l104 96q52 -115 175 -186.5t298 -71.5h13q157 0 262.5 74.5t105.5 198.5q0 117 -79 177t-240 83l-156 18q-223 29 -335.5 115t-112.5 243q0 120 69 213t180.5 141.5t243.5 49.5h23q152 0 289.5 -63.5t228.5 -176.5l-105 -94q-74 86 -186 135t-227 49h-23 q-59 0 -116.5 -15.5t-107 -45t-80 -78.5t-30.5 -110q0 -92 74.5 -142t232.5 -71l156 -21q228 -29 344.5 -124.5t116.5 -282.5q0 -125 -72 -222t-191.5 -148t-264.5 -52h-13q-207 0 -357 85t-220 226z" />
<glyph unicode="T" horiz-adv-x="1236" d="M94 1284v150h1047v-150h-443v-1284h-159v1284h-445z" />
<glyph unicode="U" horiz-adv-x="1609" d="M231 616v818h160v-813q0 -232 114 -359t310 -127t310 127t114 359v813h160v-818q0 -289 -162 -459.5t-422 -170.5q-261 0 -422.5 170t-161.5 460z" />
<glyph unicode="V" horiz-adv-x="1478" d="M94 1434h176l469 -1137l467 1137h176l-598 -1434h-88z" />
<glyph unicode="W" horiz-adv-x="2412" d="M94 1434h176l437 -1135l454 1135h90l455 -1135l436 1135h174l-567 -1434h-90l-453 1108l-454 -1108h-88z" />
<glyph unicode="X" horiz-adv-x="1409" d="M94 0l518 739l-491 695h184l402 -557l395 557h186l-493 -703l518 -731h-185l-426 596l-423 -596h-185z" />
<glyph unicode="Y" horiz-adv-x="1441" d="M94 1434h182l445 -750l442 750h183l-547 -942v-492h-160v492z" />
<glyph unicode="Z" horiz-adv-x="1286" d="M115 0v86l813 1198h-746v150h973v-88l-813 -1196h829v-150h-1056z" />
<glyph unicode="[" horiz-adv-x="550" d="M129 -287v1823h293v-150h-133v-1523h133v-150h-293z" />
<glyph unicode="\" horiz-adv-x="927" d="M129 1434h100l570 -1434h-101z" />
<glyph unicode="]" horiz-adv-x="550" d="M129 -137h133v1523h-133v150h293v-1823h-293v150z" />
<glyph unicode="^" horiz-adv-x="1081" d="M129 780l412 631l411 -631h-106l-305 467l-305 -467h-107z" />
<glyph unicode="_" horiz-adv-x="1105" d="M129 -135h848v-80h-848v80z" />
<glyph unicode="`" horiz-adv-x="585" d="M129 1470h180l150 -239h-121z" />
<glyph unicode="a" d="M129 512q0 144 66.5 264.5t184.5 191t261 70.5q134 0 245 -66.5t171 -176.5l6 229h106v-1024h-106l-6 231q-59 -111 -170.5 -177t-245.5 -66q-143 0 -261 70t-184.5 190t-66.5 264zM276 512q0 -163 110 -272t265 -109q156 0 266.5 109t110.5 272q0 164 -110.5 273.5 t-266.5 109.5q-155 0 -265 -110t-110 -273z" />
<glyph unicode="b" d="M190 0v1434h150v-619q53 101 154.5 162t224.5 61q143 0 261 -70.5t184.5 -191t66.5 -264.5t-66.5 -264t-184.5 -190t-261 -70q-134 0 -245.5 66t-170.5 177l-6 -231h-107zM330 512q0 -163 111 -272t266 -109t264.5 109t109.5 272q0 164 -109.5 273.5t-264.5 109.5 t-266 -110t-111 -273z" />
<glyph unicode="c" horiz-adv-x="1175" d="M129 512q0 143 70 264t190.5 191.5t263.5 70.5q120 0 225.5 -50.5t178.5 -139.5l-90 -96q-131 143 -314 143q-156 0 -265 -109.5t-109 -273.5t109 -272.5t265 -108.5q185 0 314 141l90 -96q-73 -88 -178.5 -138t-225.5 -50q-143 0 -263.5 70t-190.5 190.5t-70 263.5z" />
<glyph unicode="d" d="M129 512q0 144 66.5 264.5t184.5 191t261 70.5q123 0 224.5 -61t156.5 -162v619h147v-1434h-106l-6 231q-59 -111 -170.5 -177t-245.5 -66q-143 0 -261 70t-184.5 190t-66.5 264zM276 512q0 -163 110 -272t265 -109q156 0 266.5 109t110.5 272q0 164 -110.5 273.5 t-266.5 109.5q-155 0 -265 -110t-110 -273z" />
<glyph unicode="e" horiz-adv-x="1257" d="M129 512q0 145 64 264.5t183.5 190.5t272.5 71q165 0 284.5 -80t176.5 -219q24 -59 29 -137q1 -18 1 -35q0 -54 -12 -90h-847q0 -163 107 -257.5t278 -96.5q197 0 354 110l80 -90q-199 -155 -434 -155q-238 2 -387.5 147.5t-149.5 376.5zM287 578h706v11q0 48 -22 105 q-39 95 -123.5 151t-198.5 56q-152 0 -253 -94t-109 -229z" />
<glyph unicode="f" horiz-adv-x="815" d="M129 883v141h152v47q0 98 32.5 174t89 120.5t128.5 64.5q58 17 123 17q16 0 32 -1l27 -2v-133h-21q-43 0 -79.5 -6.5t-71.5 -24t-59.5 -44t-39 -70t-14.5 -99.5v-43h285v-141h-287v-883h-147v883h-150z" />
<glyph unicode="g" horiz-adv-x="1347" d="M119 520q0 140 66.5 259t185 189t260.5 70q133 0 243 -66t170 -175l9 227h106v-895q0 -237 -130 -378t-367 -142q-251 0 -441 155l86 95q168 -115 355 -115q168 0 257 92t89 262v123q-55 -99 -155.5 -159t-221.5 -60q-107 0 -202.5 41t-163 111t-107 165.5t-39.5 200.5z M266 520q0 -159 110.5 -267t264.5 -108q156 0 266.5 108t110.5 267q0 158 -111 266.5t-266 108.5q-154 0 -264.5 -108.5t-110.5 -266.5z" />
<glyph unicode="h" horiz-adv-x="1347" d="M201 0v1434h149v-617q36 76 100.5 127.5t132.5 72.5t140 21q209 0 326.5 -129t117.5 -358v-551h-147v545q0 176 -85 263t-233 87q-162 0 -257 -107t-95 -301v-487h-149z" />
<glyph unicode="i" horiz-adv-x="573" d="M201 1235q0 35 27 59.5t65 24.5t65 -24.5t27 -59.5t-27 -59.5t-65 -24.5t-65 24.5t-27 59.5zM217 0v1024h150v-1024h-150z" />
<glyph unicode="j" horiz-adv-x="573" d="M201 1235q0 35 27 59.5t65 24.5t65 -24.5t27 -59.5t-27 -59.5t-65 -24.5t-65 24.5t-27 59.5zM217 -377v1401h150v-1401h-150z" />
<glyph unicode="k" horiz-adv-x="1191" d="M201 0v1434h149v-834h133q55 0 91.5 9t69 37t55 58t63.5 95l147 225h168l-192 -291q-61 -90 -100.5 -135.5t-84.5 -65.5q55 -16 99 -63.5t108 -144.5l211 -324h-166l-168 258q-34 53 -52 78.5t-43.5 54t-49 40t-56.5 19t-77 7.5h-156v-457h-149z" />
<glyph unicode="l" horiz-adv-x="536" d="M201 0v1434h149v-1434h-149z" />
<glyph unicode="m" horiz-adv-x="2156" d="M190 0v1024h107l8 -233q57 124 168 185.5t240 61.5q150 0 254 -71t145 -205q35 93 104.5 157t149 91.5t166.5 27.5q209 0 326.5 -129t117.5 -358v-551h-147v545q0 176 -85 263t-233 87q-164 0 -259 -107t-95 -301v-487h-147v545q0 176 -85 263t-233 87q-162 0 -257 -107 t-95 -301v-487h-150z" />
<glyph unicode="n" horiz-adv-x="1337" d="M190 0v1024h107l8 -233q57 124 168 185.5t240 61.5q209 0 326.5 -129t117.5 -358v-551h-147v545q0 176 -85 263t-233 87q-162 0 -257 -107t-95 -301v-487h-150z" />
<glyph unicode="o" horiz-adv-x="1306" d="M129 512q0 143 70 264t190.5 191.5t263.5 70.5t264.5 -70.5t192 -191.5t70.5 -264t-70.5 -263.5t-192 -190.5t-264.5 -70t-263.5 70t-190.5 190.5t-70 263.5zM276 512q0 -163 110 -272t265 -109q156 0 266.5 109t110.5 272q0 164 -110.5 273.5t-266.5 109.5 q-155 0 -265 -110t-110 -273z" />
<glyph unicode="p" horiz-adv-x="1310" d="M141 -377v1401h107l6 -231q60 111 171 178t245 67q143 0 261 -70.5t184.5 -191t66.5 -264.5t-66.5 -264t-184.5 -190t-261 -70q-122 0 -224 60.5t-155 160.5v-586h-150zM281 512q0 -163 110.5 -273t265.5 -110t265 110t110 273t-110 273t-265 110t-265.5 -110 t-110.5 -273z" />
<glyph unicode="q" d="M129 512q0 144 66.5 264.5t184.5 191t261 70.5q134 0 245 -67t171 -178l6 231h106v-1401h-147v586q-55 -100 -157 -160.5t-224 -60.5q-143 0 -261 70t-184.5 190t-66.5 264zM276 512q0 -163 110 -273t265 -110q156 0 266.5 109.5t110.5 273.5t-110.5 273.5t-266.5 109.5 q-155 0 -265 -110t-110 -273z" />
<glyph unicode="r" horiz-adv-x="876" d="M190 0v1024h107l14 -276q58 143 178 216.5t287 73.5h27v-143h-58q-107 0 -186.5 -34.5t-126.5 -97.5t-69.5 -144t-22.5 -181v-438h-150z" />
<glyph unicode="s" horiz-adv-x="1124" d="M129 193l86 81q43 -71 147 -118t218 -47h8q112 2 186 46.5t74 129.5q0 41 -13 72t-32 49t-50.5 30.5t-59.5 17.5t-68 9l-117 12q-346 35 -346 270q0 134 110.5 212.5t276.5 80.5h22q118 0 230 -52t172 -138l-86 -80q-49 67 -140 108.5t-174 41.5h-16q-107 0 -176.5 -44.5 t-69.5 -119.5q0 -31 9 -53.5t32 -43t67.5 -34.5t110.5 -21l121 -12q56 -5 102 -15.5t92.5 -32t78 -53.5t51.5 -82.5t20 -115.5q0 -137 -112 -220t-287 -85h-14q-147 0 -273 57.5t-180 149.5z" />
<glyph unicode="t" horiz-adv-x="684" d="M129 883v141h150v344h149v-344h150v-141h-150v-883h-149v883h-150z" />
<glyph unicode="u" horiz-adv-x="1327" d="M180 473v551h150v-543q0 -178 83.5 -265t233.5 -87q162 0 257 107t95 301v487h148v-1024h-105l-10 233q-57 -124 -167.5 -185.5t-237.5 -61.5q-211 0 -329 129t-118 358z" />
<glyph unicode="v" horiz-adv-x="1181" d="M74 1024h157l359 -795l360 795h158l-473 -1024h-90z" />
<glyph unicode="w" horiz-adv-x="1935" d="M74 1024h157l340 -795l353 795h86l352 -793l342 793h156l-453 -1024h-88l-352 778l-353 -778h-88z" />
<glyph unicode="x" horiz-adv-x="1179" d="M74 0l428 528l-406 496h172l324 -379l317 379h172l-405 -502l428 -522h-174l-344 408l-338 -408h-174z" />
<glyph unicode="y" horiz-adv-x="1337" d="M190 489v535h150v-528q0 -178 83.5 -264.5t233.5 -86.5q162 0 257.5 107t95.5 299v473h149v-895q0 -237 -130 -378t-367 -142q-251 0 -441 155l86 95q168 -115 355 -115q168 0 257 92.5t89 263.5v121q-36 -76 -100.5 -127t-132 -71.5t-138.5 -20.5q-211 0 -329 128.5 t-118 358.5z" />
<glyph unicode="z" horiz-adv-x="1144" d="M129 0v102l645 781h-590v141h809l-2 -102l-643 -781h668v-141h-887z" />
<glyph unicode="{" horiz-adv-x="784" d="M129 561v139h10q194 6 197 209v379q1 114 68.5 181t173.5 67h77v-150h-55q-43 0 -73.5 -32t-30.5 -82v-375q0 -99 -44.5 -170.5t-132.5 -95.5q88 -22 132.5 -88.5t44.5 -159.5v-406q0 -50 30.5 -82t73.5 -32h55v-150h-77q-106 0 -173.5 67t-68.5 181v389q-6 205 -197 211 h-10z" />
<glyph unicode="|" horiz-adv-x="364" d="M129 -123v1557h109v-1557h-109z" />
<glyph unicode="}" horiz-adv-x="784" d="M129 -137h55q43 0 75 32.5t32 81.5v406q0 93 44 159.5t130 88.5q-86 24 -131 95.5t-45 170.5v375q0 50 -31 82t-74 32h-55v150h80q105 0 172 -67t68 -181l2 -379q0 -203 194 -209h10v-139h-10q-191 -6 -194 -211l-2 -389q-1 -114 -68 -181t-172 -67h-80v150z" />
<glyph unicode="~" horiz-adv-x="1114" d="M129 461l88 143q34 57 89 78.5t107.5 12.5t100.5 -38l125 -73q37 -22 74 -30t73 3.5t58 44.5l47 70h96l-88 -144q-35 -57 -90 -78.5t-106.5 -12.5t-100.5 38l-125 72q-37 21 -74.5 29t-73.5 -3t-57 -43l-47 -69h-96z" />
<glyph unicode="&#xa1;" horiz-adv-x="452" d="M129 1032q0 38 28.5 64t69.5 26q40 0 69.5 -26t29.5 -64q0 -37 -29.5 -63.5t-69.5 -26.5q-41 0 -69.5 26.5t-28.5 63.5zM147 289l19 479h123l18 -481v-613h-160v615z" />
<glyph unicode="&#xa2;" horiz-adv-x="1185" d="M129 512q0 201 132.5 350t328.5 172v197h100v-195q110 -7 205.5 -56.5t161.5 -131.5l-90 -96q-120 129 -277 141v-760q159 12 277 139l90 -96q-67 -80 -162.5 -129.5t-204.5 -56.5v-191h-100v193q-196 23 -328.5 171t-132.5 349zM279 512q0 -146 88 -249.5t223 -125.5 v752q-135 -22 -223 -126t-88 -251z" />
<glyph unicode="&#xa3;" horiz-adv-x="1388" d="M129 621v149h152q-26 149 -37 231q-11 95 11 172t67 127.5t111 84.5t138.5 48.5t153.5 14.5h20q153 -2 289 -65t223 -175l-102 -94q-74 86 -186.5 135t-227.5 49h-22q-48 0 -92.5 -7.5t-91.5 -29.5t-79 -56t-48 -93t-5 -135q4 -29 33 -207h438v-149h-413 q12 -73 18.5 -114.5t12 -92t3.5 -78t-7.5 -59.5t-19 -52t-33.5 -39.5t-50 -35.5h811v-150h-1065v109q116 47 160 101.5t44.5 153t-30.5 257.5h-176z" />
<glyph unicode="&#xa4;" horiz-adv-x="1216" d="M133 172l117 115q-101 126 -101 287.5t101 287.5l-117 117l72 70l117 -117q124 103 286 103t287 -103l117 117l71 -70l-116 -117q103 -124 103 -286.5t-103 -288.5l116 -115l-71 -72l-117 117q-125 -103 -287 -103t-286 103l-117 -117zM320 520q20 -117 116 -190 q63 -47 141 -55.5t151.5 24.5t119.5 102q69 108 48.5 226.5t-116.5 189.5q-63 47 -140.5 55t-150.5 -25t-120 -102q-69 -108 -49 -225z" />
<glyph unicode="&#xa5;" horiz-adv-x="1507" d="M129 1434h182l445 -750l442 750h182l-522 -902h379v-133h-403v-399h-160v399h-402v133h377z" />
<glyph unicode="&#xa6;" horiz-adv-x="364" d="M129 -123v666h109v-666h-109zM129 766v668h109v-668h-109z" />
<glyph unicode="&#xa7;" horiz-adv-x="1124" d="M129 606q0 130 102 209q-69 61 -69 170q0 134 109.5 212.5t273.5 80.5h26q117 0 229 -52.5t173 -138.5l-86 -79q-49 67 -140 108t-174 41h-18q-106 -2 -175 -46t-69 -118q0 -61 38 -98.5t149 -48.5l118 -12q77 -3 142 -21t120 -53t86 -93.5t31 -136.5q0 -129 -102 -208 q72 -64 72 -170q0 -134 -110 -212.5t-273 -80.5h-29q-116 0 -227.5 52t-173.5 138l86 80q49 -66 140 -107.5t173 -41.5h16q108 2 178 45.5t70 117.5q0 61 -38.5 99t-149.5 49l-119 12q-71 3 -133 19.5t-120 49.5t-92 93t-34 141zM279 612q0 -155 221 -178l118 -12 q80 -8 146 -33q84 48 84 135q0 155 -223 178l-117 13q-79 8 -146 33q-83 -47 -83 -136z" />
<glyph unicode="&#xa8;" horiz-adv-x="866" d="M129 1397q0 35 27 59.5t65 24.5t65 -24.5t27 -59.5t-27 -59.5t-65 -24.5t-65 24.5t-27 59.5zM553 1397q0 35 27 59.5t65 24.5t65 -24.5t27 -59.5t-27 -59.5t-65 -24.5t-65 24.5t-27 59.5z" />
<glyph unicode="&#xa9;" horiz-adv-x="1349" d="M129 881q0 111 42 212.5t114.5 176.5t174.5 119.5t216 44.5q151 0 277.5 -75.5t198 -202.5t71.5 -275q0 -149 -71.5 -276t-198 -202t-277.5 -75q-114 0 -216 44.5t-174.5 119t-114.5 176.5t-42 213zM201 881q0 -132 61.5 -243t170.5 -176t241 -65q202 0 338.5 141.5 t136.5 342.5q0 131 -61.5 241.5t-171 176t-242.5 65.5q-132 0 -241 -65.5t-170.5 -176t-61.5 -241.5zM334 881q0 142 100.5 243t241.5 101q78 0 147 -33.5t117 -91.5l-57 -62q-92 92 -207 92q-98 0 -171 -72.5t-73 -176.5t73 -176t171 -72q106 0 205 92l59 -63 q-48 -58 -117 -90.5t-147 -32.5q-141 0 -241.5 100t-100.5 242z" />
<glyph unicode="&#xab;" horiz-adv-x="892" d="M129 549l336 297v-141l-184 -156l184 -154v-139zM428 549l336 297v-141l-184 -156l184 -154v-139z" />
<glyph unicode="&#xac;" horiz-adv-x="1105" d="M129 549v100h848v-336h-105v236h-743z" />
<glyph unicode="&#xad;" horiz-adv-x="765" d="M129 541v100h508v-100h-508z" />
<glyph unicode="&#xae;" horiz-adv-x="1349" d="M129 881q0 111 42 212.5t114.5 176.5t174.5 119.5t216 44.5q151 0 277.5 -75.5t198 -202.5t71.5 -275q0 -149 -71.5 -276t-198 -202t-277.5 -75q-114 0 -216 44.5t-174.5 119t-114.5 176.5t-42 213zM201 881q0 -132 61.5 -243t170.5 -176t241 -65q202 0 338.5 141.5 t136.5 342.5q0 131 -61.5 241.5t-171 176t-242.5 65.5q-132 0 -241 -65.5t-170.5 -176t-61.5 -241.5zM391 555v653h340q67 0 116.5 -17.5t77 -48.5t40 -68t12.5 -81q0 -76 -45 -128t-135 -62l192 -248h-104l-187 233h-211v-233h-96zM485 872h252q73 0 108.5 33.5t35.5 87.5 q0 56 -35.5 90.5t-108.5 34.5h-252v-246z" />
<glyph unicode="&#xaf;" horiz-adv-x="778" d="M129 1358v112h520v-112h-520z" />
<glyph unicode="&#xb0;" horiz-adv-x="755" d="M129 1231q0 103 73.5 176.5t176.5 73.5t176.5 -73.5t73.5 -176.5q0 -104 -73.5 -177t-176.5 -73t-176.5 73t-73.5 177zM223 1231q0 -67 45.5 -112.5t110.5 -45.5t110.5 45.5t45.5 112.5q0 66 -45.5 112t-110.5 46t-110.5 -46t-45.5 -112z" />
<glyph unicode="&#xb1;" horiz-adv-x="1105" d="M129 231v101h848v-101h-848zM129 682v98h371v258h106v-258h371v-98h-371v-258h-106v258h-371z" />
<glyph unicode="&#xb4;" horiz-adv-x="585" d="M129 1231l147 239h183l-211 -239h-119z" />
<glyph unicode="&#xb6;" horiz-adv-x="1265" d="M129 1024q0 105 39 185.5t108 128.5t158 72t195 24h510v-101h-101v-1667h-108v1667h-197v-1667h-108v965q-105 0 -192 21.5t-156.5 66t-108.5 122.5t-39 183z" />
<glyph unicode="&#xb7;" horiz-adv-x="452" d="M129 612q0 41 28 70t70 29t70.5 -29.5t28.5 -69.5q0 -39 -28.5 -67.5t-70.5 -28.5t-70 28.5t-28 67.5z" />
<glyph unicode="&#xb8;" horiz-adv-x="516" d="M129 -242q38 -25 75.5 -28t61 15.5t23.5 49.5q0 47 -36.5 62.5t-105.5 -11.5l43 154h58l-23 -88q63 20 113.5 -12t50.5 -107q0 -55 -37 -91t-94.5 -37t-128.5 38v55z" />
<glyph unicode="&#xbb;" horiz-adv-x="892" d="M129 256v139l186 154l-186 156v141l336 -297zM428 256v139l186 154l-186 156v141l336 -297z" />
<glyph unicode="&#xbc;" horiz-adv-x="1441" d="M129 1182l211 252h74v-652h-111v484l-110 -131zM307 0l676 1434h100l-675 -1434h-101zM735 129v53l424 469h70v-430h84v-92h-84v-129h-111v129h-383zM864 221h256v277z" />
<glyph unicode="&#xbd;" horiz-adv-x="1581" d="M129 1182l211 252h74v-652h-111v484l-110 -131zM307 0l676 1434h100l-675 -1434h-101zM852 0v53l356 238q61 40 90 73.5t29 75.5q0 48 -44.5 86.5t-115.5 38.5h-12q-65 0 -122 -30.5t-93 -69.5l-72 65q134 138 306 138h12q112 -1 181 -63t69 -144q0 -75 -46.5 -127 t-142.5 -111l-192 -121h397v-102h-600z" />
<glyph unicode="&#xbe;" horiz-adv-x="1646" d="M129 903l66 60q91 -97 221 -97q81 0 135.5 37.5t54.5 93.5q0 48 -46 79.5t-126 31.5q-75 -2 -117 -21l-45 35l267 215h-340v97h477v-68l-264 -205q44 4 90 0q104 -9 158.5 -57.5t54.5 -122.5q0 -90 -75 -151.5t-200 -61.5h-8q-194 0 -303 135zM512 0l676 1434h100 l-676 -1434h-100zM942 129v53l424 469h70v-430h84v-92h-84v-129h-111v129h-383zM1069 221h256v277z" />
<glyph unicode="&#xbf;" horiz-adv-x="1339" d="M129 123q0 189 131.5 303t347.5 129v180h160v-274q-249 7 -368 -78t-119 -240q0 -140 101 -230t259 -93h10q290 3 457 246l104 -97q-82 -133 -225.5 -214.5t-331.5 -84.5h-20q-117 2 -213 38.5t-160 97.5t-98.5 142.5t-34.5 174.5zM590 1044q0 37 28.5 63t69.5 26 q40 0 69 -26t29 -63q0 -38 -29 -64t-69 -26q-41 0 -69.5 26t-28.5 64z" />
<glyph unicode="&#xc0;" horiz-adv-x="1464" d="M94 0l594 1434h90l592 -1434h-176l-156 381h-612l-156 -381h-176zM483 530h500l-250 609zM485 1776h181l149 -240h-121z" />
<glyph unicode="&#xc1;" horiz-adv-x="1464" d="M94 0l594 1434h90l592 -1434h-176l-156 381h-612l-156 -381h-176zM483 530h500l-250 609zM657 1536l148 240h182l-211 -240h-119z" />
<glyph unicode="&#xc2;" horiz-adv-x="1464" d="M94 0l594 1434h90l592 -1434h-176l-156 381h-612l-156 -381h-176zM446 1536l218 248h137l217 -248h-129l-156 131l-158 -131h-129zM483 530h500l-250 609z" />
<glyph unicode="&#xc3;" horiz-adv-x="1464" d="M94 0l594 1434h90l592 -1434h-176l-156 381h-612l-156 -381h-176zM440 1536l39 104q37 115 127 121q58 3 109 -41l80 -73q37 -29 71 -29q30 0 47.5 19t30.5 59l17 45h77l-39 -105q-37 -115 -129 -118q-59 -3 -106 38l-80 74q-40 32 -76 29q-28 0 -45 -18.5t-28 -57.5 l-15 -47h-80zM483 530h500l-250 609z" />
<glyph unicode="&#xc4;" horiz-adv-x="1464" d="M94 0l594 1434h90l592 -1434h-176l-156 381h-612l-156 -381h-176zM430 1620q0 35 27 59.5t65 24.5t65 -24.5t27 -59.5t-27 -59.5t-65 -24.5t-65 24.5t-27 59.5zM483 530h500l-250 609zM856 1620q0 35 27 59.5t65 24.5t65 -24.5t27 -59.5t-27 -59.5t-65 -24.5t-65 24.5 t-27 59.5z" />
<glyph unicode="&#xc5;" horiz-adv-x="1464" d="M94 0l594 1434h90l592 -1434h-176l-156 381h-612l-156 -381h-176zM483 530h500l-250 609zM563 1706q0 70 49 120t119 50t120 -50.5t50 -119.5q0 -70 -49.5 -120t-120.5 -50q-70 0 -119 49.5t-49 120.5zM647 1706q0 -36 23.5 -62t60.5 -26q36 0 61 26t25 62q0 35 -25 61.5 t-61 26.5q-37 0 -60.5 -26.5t-23.5 -61.5z" />
<glyph unicode="&#xc6;" horiz-adv-x="1751" d="M94 0l594 1434h946v-150h-747v-485h704v-150h-704v-499h747v-150h-907v381h-301l-156 -381h-176zM483 530h246v598z" />
<glyph unicode="&#xc7;" horiz-adv-x="1527" d="M141 717q0 148 57.5 283.5t155 233.5t233 156t283.5 58q158 0 298.5 -63.5t242.5 -176.5l-104 -94q-85 88 -197.5 136t-239.5 48q-157 0 -287 -75.5t-206 -209t-76 -296.5q0 -164 76 -298t206 -209t287 -75q128 0 240.5 48t196.5 136l104 -98q-102 -111 -242 -173 t-299 -62h-8l-18 -74q63 20 113.5 -12t50.5 -107q0 -55 -37 -91t-94.5 -37t-128.5 38v55q58 -38 108.5 -25t50.5 62q0 47 -36 62.5t-105 -11.5l39 142q-138 12 -261 74.5t-211.5 158.5t-140 225.5t-51.5 270.5z" />
<glyph unicode="&#xc8;" horiz-adv-x="1253" d="M231 0v1434h908v-150h-748v-485h703v-150h-703v-499h748v-150h-908zM457 1776h180l149 -240h-120z" />
<glyph unicode="&#xc9;" horiz-adv-x="1253" d="M231 0v1434h908v-150h-748v-485h703v-150h-703v-499h748v-150h-908zM563 1536l148 240h182l-211 -240h-119z" />
<glyph unicode="&#xca;" horiz-adv-x="1253" d="M231 0v1434h908v-150h-748v-485h703v-150h-703v-499h748v-150h-908zM397 1536l217 248h138l217 -248h-129l-156 131l-158 -131h-129z" />
<glyph unicode="&#xcb;" horiz-adv-x="1253" d="M231 0v1434h908v-150h-748v-485h703v-150h-703v-499h748v-150h-908zM373 1620q0 35 27 59.5t65 24.5t65 -24.5t27 -59.5t-27 -59.5t-65 -24.5t-65 24.5t-27 59.5zM799 1620q0 35 27 59.5t65 24.5t65 -24.5t27 -59.5t-27 -59.5t-65 -24.5t-65 24.5t-27 59.5z" />
<glyph unicode="&#xcc;" horiz-adv-x="958" d="M231 0v150h168v1134h-168v150h496v-150h-168v-1134h168v-150h-496zM266 1776h180l150 -240h-121z" />
<glyph unicode="&#xcd;" horiz-adv-x="958" d="M231 0v150h168v1134h-168v150h496v-150h-168v-1134h168v-150h-496zM356 1536l148 240h182l-211 -240h-119z" />
<glyph unicode="&#xce;" horiz-adv-x="1056" d="M244 1536l217 248h137l217 -248h-129l-156 131l-157 -131h-129zM281 0v150h168v1134h-168v150h495v-150h-168v-1134h168v-150h-495z" />
<glyph unicode="&#xcf;" horiz-adv-x="1071" d="M231 1620q0 35 27.5 59.5t65.5 24.5t65 -24.5t27 -59.5t-27 -59.5t-65 -24.5t-65.5 24.5t-27.5 59.5zM287 0v150h168v1134h-168v150h495v-150h-168v-1134h168v-150h-495zM655 1620q0 35 27.5 59.5t65.5 24.5t65 -24.5t27 -59.5t-27 -59.5t-65 -24.5t-65.5 24.5 t-27.5 59.5z" />
<glyph unicode="&#xd0;" horiz-adv-x="1689" d="M231 670v98h138v666h450q201 0 367 -89.5t264 -254.5t98 -373q0 -157 -57.5 -292t-156 -227.5t-232 -145t-283.5 -52.5h-450v670h-138zM528 150h291q160 0 288 66.5t205 197t77 303.5q0 172 -76.5 302.5t-205.5 197.5t-288 67h-291v-516h213v-98h-213v-520z" />
<glyph unicode="&#xd1;" horiz-adv-x="1507" d="M211 0v1434h90l836 -1121v1121h159v-1434h-88l-837 1120v-1120h-160zM459 1536l39 104q37 115 127 121q57 3 108 -41l80 -73q37 -29 72 -29q30 0 47.5 19t30.5 59l16 45h78l-39 -105q-37 -115 -129 -118q-60 -3 -107 38l-80 74q-40 32 -75 29q-52 0 -74 -76l-14 -47h-80z " />
<glyph unicode="&#xd2;" horiz-adv-x="1742" d="M141 717q0 148 57.5 283.5t155 233.5t233 156t283.5 58t283.5 -58t234 -156t156.5 -233.5t58 -283.5q0 -199 -98.5 -367.5t-267 -266t-366.5 -97.5t-366 97.5t-265.5 265.5t-97.5 368zM301 717q0 -164 76 -298t206 -209t287 -75q117 0 222.5 44.5t182.5 121t122 185 t45 231.5q0 163 -76.5 296.5t-207.5 209t-288 75.5t-287 -75.5t-206 -209t-76 -296.5zM641 1776h180l150 -240h-121z" />
<glyph unicode="&#xd3;" horiz-adv-x="1742" d="M141 717q0 148 57.5 283.5t155 233.5t233 156t283.5 58t283.5 -58t234 -156t156.5 -233.5t58 -283.5q0 -199 -98.5 -367.5t-267 -266t-366.5 -97.5t-366 97.5t-265.5 265.5t-97.5 368zM301 717q0 -164 76 -298t206 -209t287 -75q117 0 222.5 44.5t182.5 121t122 185 t45 231.5q0 163 -76.5 296.5t-207.5 209t-288 75.5t-287 -75.5t-206 -209t-76 -296.5zM766 1536l147 240h183l-211 -240h-119z" />
<glyph unicode="&#xd4;" horiz-adv-x="1742" d="M141 717q0 148 57.5 283.5t155 233.5t233 156t283.5 58t283.5 -58t234 -156t156.5 -233.5t58 -283.5q0 -199 -98.5 -367.5t-267 -266t-366.5 -97.5t-366 97.5t-265.5 265.5t-97.5 368zM301 717q0 -164 76 -298t206 -209t287 -75q117 0 222.5 44.5t182.5 121t122 185 t45 231.5q0 163 -76.5 296.5t-207.5 209t-288 75.5t-287 -75.5t-206 -209t-76 -296.5zM586 1536l217 246h137l217 -246h-129l-156 131l-157 -131h-129z" />
<glyph unicode="&#xd5;" horiz-adv-x="1742" d="M141 717q0 148 57.5 283.5t155 233.5t233 156t283.5 58t283.5 -58t234 -156t156.5 -233.5t58 -283.5q0 -199 -98.5 -367.5t-267 -266t-366.5 -97.5t-366 97.5t-265.5 265.5t-97.5 368zM301 717q0 -164 76 -298t206 -209t287 -75q117 0 222.5 44.5t182.5 121t122 185 t45 231.5q0 163 -76.5 296.5t-207.5 209t-288 75.5t-287 -75.5t-206 -209t-76 -296.5zM571 1536l39 104q37 115 127 121q58 3 109 -41l80 -73q37 -29 71 -29q30 0 47.5 19t30.5 59l17 45h77l-39 -105q-37 -115 -129 -118q-59 -3 -106 38l-80 74q-40 32 -76 29 q-28 0 -45 -18.5t-28 -57.5l-15 -47h-80z" />
<glyph unicode="&#xd6;" horiz-adv-x="1742" d="M141 717q0 148 57.5 283.5t155 233.5t233 156t283.5 58t283.5 -58t234 -156t156.5 -233.5t58 -283.5q0 -199 -98.5 -367.5t-267 -266t-366.5 -97.5t-366 97.5t-265.5 265.5t-97.5 368zM301 717q0 -164 76 -298t206 -209t287 -75q117 0 222.5 44.5t182.5 121t122 185 t45 231.5q0 163 -76.5 296.5t-207.5 209t-288 75.5t-287 -75.5t-206 -209t-76 -296.5zM567 1620q0 35 27 59.5t65 24.5t65.5 -24.5t27.5 -59.5t-27.5 -59.5t-65.5 -24.5t-65 24.5t-27 59.5zM993 1620q0 35 27 59.5t65 24.5t65.5 -24.5t27.5 -59.5t-27.5 -59.5t-65.5 -24.5 t-65 24.5t-27 59.5z" />
<glyph unicode="&#xd7;" horiz-adv-x="927" d="M129 334l264 264l-264 264l72 72l264 -264l262 264l72 -72l-264 -264l264 -264l-72 -70l-262 262l-264 -262z" />
<glyph unicode="&#xd8;" horiz-adv-x="1742" d="M141 0l201 213q-96 100 -148.5 229.5t-52.5 274.5q0 148 57.5 283.5t155 233.5t233 156t283.5 58q267 0 473 -174l150 160h109l-201 -213q95 -100 148 -230t53 -274q0 -199 -98.5 -367.5t-267 -266t-366.5 -97.5q-265 0 -471 172l-149 -158h-109zM301 717 q0 -232 145 -393l793 841q-155 133 -369 133q-157 0 -287 -75.5t-206 -209t-76 -296.5zM502 268q158 -133 368 -133q117 0 222.5 44.5t182.5 121t122 185t45 231.5q0 228 -146 393z" />
<glyph unicode="&#xd9;" horiz-adv-x="1609" d="M231 616v818h160v-813q0 -232 114 -359t310 -127t310 127t114 359v813h160v-818q0 -289 -162 -459.5t-422 -170.5q-261 0 -422.5 170t-161.5 460zM590 1776h180l150 -240h-121z" />
<glyph unicode="&#xda;" horiz-adv-x="1609" d="M231 616v818h160v-813q0 -232 114 -359t310 -127t310 127t114 359v813h160v-818q0 -289 -162 -459.5t-422 -170.5q-261 0 -422.5 170t-161.5 460zM705 1536l147 240h182l-211 -240h-118z" />
<glyph unicode="&#xdb;" horiz-adv-x="1609" d="M231 616v818h160v-813q0 -232 114 -359t310 -127t310 127t114 359v813h160v-818q0 -289 -162 -459.5t-422 -170.5q-261 0 -422.5 170t-161.5 460zM528 1536l217 248h138l217 -248h-129l-156 131l-158 -131h-129z" />
<glyph unicode="&#xdc;" horiz-adv-x="1609" d="M231 616v818h160v-813q0 -232 114 -359t310 -127t310 127t114 359v813h160v-818q0 -289 -162 -459.5t-422 -170.5q-261 0 -422.5 170t-161.5 460zM512 1620q0 35 27 59.5t65 24.5t65 -24.5t27 -59.5t-27 -59.5t-65 -24.5t-65 24.5t-27 59.5zM938 1620q0 35 27 59.5 t65 24.5t65 -24.5t27 -59.5t-27 -59.5t-65 -24.5t-65 24.5t-27 59.5z" />
<glyph unicode="&#xdd;" horiz-adv-x="1441" d="M94 1434h182l445 -750l442 750h183l-547 -942v-492h-160v492zM612 1536l148 240h182l-211 -240h-119z" />
<glyph unicode="&#xde;" horiz-adv-x="1452" d="M231 0v1434h160v-170h293q279 0 453 -142t174 -385q0 -244 -174 -385t-453 -141h-293v-211h-160zM391 360h303q96 0 178 22t147 66t102.5 118t37.5 171q0 95 -37.5 169t-102.5 118.5t-147.5 67t-177.5 22.5h-303v-754z" />
<glyph unicode="&#xdf;" horiz-adv-x="1349" d="M190 0v1065q0 55 14 107t48 103t85.5 88.5t134 61t185.5 23.5h66q102 0 183 -22.5t132.5 -59.5t85.5 -87t48 -101.5t14 -106.5q0 -119 -57 -206t-171 -122q132 -29 204.5 -122.5t72.5 -229.5q0 -185 -132.5 -295t-385.5 -110h-242v149h242q171 0 268.5 69.5t97.5 203.5 q0 121 -78.5 190.5t-238.5 69.5h-176v149h135q309 0 309 236q0 112 -76.5 178.5t-234.5 66.5h-72q-156 0 -232.5 -70.5t-76.5 -183.5v-1044h-152z" />
<glyph unicode="&#xe0;" d="M129 512q0 144 66.5 264.5t184.5 191t261 70.5q134 0 245 -66.5t171 -176.5l6 229h106v-1024h-106l-6 231q-59 -111 -170.5 -177t-245.5 -66q-143 0 -261 70t-184.5 190t-66.5 264zM276 512q0 -163 110 -272t265 -109q156 0 266.5 109t110.5 272q0 164 -110.5 273.5 t-266.5 109.5q-155 0 -265 -110t-110 -273zM444 1391h181l149 -240h-121z" />
<glyph unicode="&#xe1;" d="M129 512q0 144 66.5 264.5t184.5 191t261 70.5q134 0 245 -66.5t171 -176.5l6 229h106v-1024h-106l-6 231q-59 -111 -170.5 -177t-245.5 -66q-143 0 -261 70t-184.5 190t-66.5 264zM276 512q0 -163 110 -272t265 -109q156 0 266.5 109t110.5 272q0 164 -110.5 273.5 t-266.5 109.5q-155 0 -265 -110t-110 -273zM557 1151l148 240h182l-211 -240h-119z" />
<glyph unicode="&#xe2;" d="M129 512q0 144 66.5 264.5t184.5 191t261 70.5q134 0 245 -66.5t171 -176.5l6 229h106v-1024h-106l-6 231q-59 -111 -170.5 -177t-245.5 -66q-143 0 -261 70t-184.5 190t-66.5 264zM276 512q0 -163 110 -272t265 -109q156 0 266.5 109t110.5 272q0 164 -110.5 273.5 t-266.5 109.5q-155 0 -265 -110t-110 -273zM367 1153l217 246h137l217 -248h-129l-156 131l-157 -129h-129z" />
<glyph unicode="&#xe3;" d="M129 512q0 144 66.5 264.5t184.5 191t261 70.5q134 0 245 -66.5t171 -176.5l6 229h106v-1024h-106l-6 231q-59 -111 -170.5 -177t-245.5 -66q-143 0 -261 70t-184.5 190t-66.5 264zM276 512q0 -163 110 -272t265 -109q156 0 266.5 109t110.5 272q0 164 -110.5 273.5 t-266.5 109.5q-155 0 -265 -110t-110 -273zM356 1151l39 106q38 116 127 119q61 3 109 -39l80 -75q42 -29 71 -29q30 1 48 20t30 58l17 47h77l-39 -107q-38 -115 -129 -118q-55 -3 -106 38l-80 76q-37 29 -76 29q-29 -1 -45.5 -20t-27.5 -58l-15 -47h-80z" />
<glyph unicode="&#xe4;" d="M129 512q0 144 66.5 264.5t184.5 191t261 70.5q134 0 245 -66.5t171 -176.5l6 229h106v-1024h-106l-6 231q-59 -111 -170.5 -177t-245.5 -66q-143 0 -261 70t-184.5 190t-66.5 264zM276 512q0 -163 110 -272t265 -109q156 0 266.5 109t110.5 272q0 164 -110.5 273.5 t-266.5 109.5q-155 0 -265 -110t-110 -273zM350 1235q0 35 27 59.5t65 24.5t65.5 -24.5t27.5 -59.5t-27.5 -59.5t-65.5 -24.5t-65 24.5t-27 59.5zM774 1235q0 35 27 59.5t65 24.5t65 -24.5t27 -59.5t-27 -59.5t-65 -24.5t-65 24.5t-27 59.5z" />
<glyph unicode="&#xe5;" d="M129 512q0 144 66.5 264.5t184.5 191t261 70.5q134 0 245 -66.5t171 -176.5l6 229h106v-1024h-106l-6 231q-59 -111 -170.5 -177t-245.5 -66q-143 0 -261 70t-184.5 190t-66.5 264zM276 512q0 -163 110 -272t265 -109q156 0 266.5 109t110.5 272q0 164 -110.5 273.5 t-266.5 109.5q-155 0 -265 -110t-110 -273zM485 1323q0 68 49 118t119 50t120 -50t50 -118q0 -71 -50 -121.5t-120 -50.5t-119 50.5t-49 121.5zM569 1323q0 -38 23.5 -64t60.5 -26q36 0 61 26.5t25 63.5q0 34 -25 60t-61 26q-37 0 -60.5 -25.5t-23.5 -60.5z" />
<glyph unicode="&#xe6;" horiz-adv-x="2160" d="M129 512q0 144 66.5 264.5t184.5 191t261 70.5q134 0 245 -66.5t171 -176.5l6 229h106v-201q56 98 156 156.5t227 58.5q164 0 283 -80.5t176 -218.5q25 -58 30 -136.5t-11 -125.5h-846q0 -162 107 -257t276 -97q200 0 354 110l82 -90q-199 -155 -436 -155 q-135 2 -239.5 56.5t-158.5 152.5v-197h-106l-6 231q-59 -111 -170.5 -177t-245.5 -66q-143 0 -261 70t-184.5 190t-66.5 264zM276 512q0 -163 110 -272t265 -109q156 0 266.5 109t110.5 272q0 164 -110.5 273.5t-266.5 109.5q-155 0 -265 -110t-110 -273zM1190 578h706 q3 56 -24 116q-38 95 -122 151t-198 56q-152 0 -253 -94t-109 -229z" />
<glyph unicode="&#xe7;" horiz-adv-x="1175" d="M129 512q0 143 70 264t190.5 191.5t263.5 70.5q120 0 225.5 -50.5t178.5 -139.5l-90 -96q-131 143 -314 143q-156 0 -265 -109.5t-109 -273.5t109 -272.5t265 -108.5q185 0 314 141l90 -96q-73 -88 -179 -138t-227 -50l-18 -76q63 20 113.5 -12t50.5 -107q0 -55 -37 -91 t-94.5 -37t-128.5 38v55q38 -25 75.5 -28t60.5 15.5t23 49.5q0 47 -36 62.5t-105 -11.5l41 146q-130 13 -237 85.5t-168.5 187t-61.5 247.5z" />
<glyph unicode="&#xe8;" horiz-adv-x="1257" d="M129 512q0 145 64 264.5t183.5 190.5t272.5 71q165 0 284.5 -80t176.5 -219q24 -59 29 -136.5t-11 -125.5h-847q0 -163 107 -257.5t278 -96.5q197 0 354 110l80 -90q-199 -155 -434 -155q-238 2 -387.5 147.5t-149.5 376.5zM287 578h706q3 53 -22 116q-39 95 -123.5 151 t-198.5 56q-152 0 -253 -94t-109 -229zM428 1391h180l150 -240h-121z" />
<glyph unicode="&#xe9;" horiz-adv-x="1257" d="M129 512q0 145 64 264.5t183.5 190.5t272.5 71q165 0 284.5 -80t176.5 -219q24 -59 29 -136.5t-11 -125.5h-847q0 -163 107 -257.5t278 -96.5q197 0 354 110l80 -90q-199 -155 -434 -155q-238 2 -387.5 147.5t-149.5 376.5zM287 578h706q3 53 -22 116q-39 95 -123.5 151 t-198.5 56q-152 0 -253 -94t-109 -229zM547 1151l147 240h183l-211 -240h-119z" />
<glyph unicode="&#xea;" horiz-adv-x="1257" d="M129 512q0 145 64 264.5t183.5 190.5t272.5 71q165 0 284.5 -80t176.5 -219q24 -59 29 -136.5t-11 -125.5h-847q0 -163 107 -257.5t278 -96.5q197 0 354 110l80 -90q-199 -155 -434 -155q-238 2 -387.5 147.5t-149.5 376.5zM287 578h706q3 53 -22 116q-39 95 -123.5 151 t-198.5 56q-152 0 -253 -94t-109 -229zM362 1151l218 248h137l217 -248h-129l-156 131l-157 -131h-130z" />
<glyph unicode="&#xeb;" horiz-adv-x="1257" d="M129 512q0 145 64 264.5t183.5 190.5t272.5 71q165 0 284.5 -80t176.5 -219q24 -59 29 -136.5t-11 -125.5h-847q0 -163 107 -257.5t278 -96.5q197 0 354 110l80 -90q-199 -155 -434 -155q-238 2 -387.5 147.5t-149.5 376.5zM287 578h706q3 53 -22 116q-39 95 -123.5 151 t-198.5 56q-152 0 -253 -94t-109 -229zM348 1235q0 35 27 59.5t65 24.5t65 -24.5t27 -59.5q0 -34 -27 -59t-65 -25t-65 25t-27 59zM774 1235q0 35 27 59.5t65 24.5t65 -24.5t27 -59.5q0 -34 -27 -59t-65 -25t-65 25t-27 59z" />
<glyph unicode="&#xec;" horiz-adv-x="718" d="M201 1391h182l147 -240h-120zM371 0v1024h149v-1024h-149z" />
<glyph unicode="&#xed;" horiz-adv-x="718" d="M201 1151l147 240h182l-211 -240h-118zM240 0v1024h149v-1024h-149z" />
<glyph unicode="&#xee;" horiz-adv-x="962" d="M201 1153l217 246h137l217 -248h-129l-156 131l-157 -129h-129zM412 0v1024h149v-1024h-149z" />
<glyph unicode="&#xef;" horiz-adv-x="999" d="M201 1235q0 35 27 59.5t65 24.5t64 -24.5t26 -59.5t-26 -59.5t-64 -24.5t-65 24.5t-27 59.5zM434 0v1024h150v-1024h-150zM625 1235q0 35 27 59.5t65 24.5t65 -24.5t27 -59.5t-27 -59.5t-65 -24.5t-65 24.5t-27 59.5z" />
<glyph unicode="&#xf0;" horiz-adv-x="1368" d="M129 502q0 216 143 364t359 148q131 0 239 -67t160 -177v168q0 166 -67 260l-148 -133l-57 63l145 132q-82 61 -221 61q-186 0 -352 -113l-86 92q188 156 438 156q203 0 328 -104l90 82l59 -62l-90 -80q111 -135 111 -354v-416q0 -115 -40.5 -215.5t-110 -171 t-167.5 -111t-209 -40.5q-151 0 -272 70.5t-186.5 188.5t-65.5 259zM279 502q0 -159 108.5 -267t265.5 -108q161 0 269 107.5t108 267.5q0 159 -110.5 267t-266.5 108q-154 0 -264 -108t-110 -267z" />
<glyph unicode="&#xf1;" horiz-adv-x="1337" d="M190 0v1024h107l8 -233q57 124 168 185.5t240 61.5q209 0 326.5 -129t117.5 -358v-551h-147v545q0 176 -85 263t-233 87q-162 0 -257 -107t-95 -301v-487h-150zM373 1151l39 106q38 116 127 119q60 3 108 -39l80 -75q42 -29 72 -29q30 1 48 20t30 58l16 47h78l-39 -107 q-38 -115 -129 -118q-56 -3 -107 38l-80 76q-37 29 -75 29q-29 -1 -46 -20t-28 -58l-14 -47h-80z" />
<glyph unicode="&#xf2;" horiz-adv-x="1306" d="M129 512q0 143 70 264t190.5 191.5t263.5 70.5t264.5 -70.5t192 -191.5t70.5 -264t-70.5 -263.5t-192 -190.5t-264.5 -70t-263.5 70t-190.5 190.5t-70 263.5zM276 512q0 -163 110 -272t265 -109q156 0 266.5 109t110.5 272q0 164 -110.5 273.5t-266.5 109.5 q-155 0 -265 -110t-110 -273zM422 1391h180l150 -240h-121z" />
<glyph unicode="&#xf3;" horiz-adv-x="1306" d="M129 512q0 143 70 264t190.5 191.5t263.5 70.5t264.5 -70.5t192 -191.5t70.5 -264t-70.5 -263.5t-192 -190.5t-264.5 -70t-263.5 70t-190.5 190.5t-70 263.5zM276 512q0 -163 110 -272t265 -109q156 0 266.5 109t110.5 272q0 164 -110.5 273.5t-266.5 109.5 q-155 0 -265 -110t-110 -273zM541 1151l147 240h182l-211 -240h-118z" />
<glyph unicode="&#xf4;" horiz-adv-x="1306" d="M129 512q0 143 70 264t190.5 191.5t263.5 70.5t264.5 -70.5t192 -191.5t70.5 -264t-70.5 -263.5t-192 -190.5t-264.5 -70t-263.5 70t-190.5 190.5t-70 263.5zM276 512q0 -163 110 -272t265 -109q156 0 266.5 109t110.5 272q0 164 -110.5 273.5t-266.5 109.5 q-155 0 -265 -110t-110 -273zM367 1151l217 248h137l217 -248h-129l-156 131l-157 -131h-129z" />
<glyph unicode="&#xf5;" horiz-adv-x="1306" d="M129 512q0 143 70 264t190.5 191.5t263.5 70.5t264.5 -70.5t192 -191.5t70.5 -264t-70.5 -263.5t-192 -190.5t-264.5 -70t-263.5 70t-190.5 190.5t-70 263.5zM276 512q0 -163 110 -272t265 -109q156 0 266.5 109t110.5 272q0 164 -110.5 273.5t-266.5 109.5 q-155 0 -265 -110t-110 -273zM352 1151l39 106q38 116 127 119q61 3 109 -39l80 -75q42 -29 71 -29q30 1 48 20t30 58l16 47h78l-39 -107q-38 -115 -129 -118q-55 -3 -106 38l-80 76q-37 29 -76 29q-29 -1 -46 -20t-28 -58l-14 -47h-80z" />
<glyph unicode="&#xf6;" horiz-adv-x="1306" d="M129 512q0 143 70 264t190.5 191.5t263.5 70.5t264.5 -70.5t192 -191.5t70.5 -264t-70.5 -263.5t-192 -190.5t-264.5 -70t-263.5 70t-190.5 190.5t-70 263.5zM276 512q0 -163 110 -272t265 -109q156 0 266.5 109t110.5 272q0 164 -110.5 273.5t-266.5 109.5 q-155 0 -265 -110t-110 -273zM352 1235q0 35 27 59.5t65 24.5t65.5 -24.5t27.5 -59.5t-27.5 -59.5t-65.5 -24.5t-65 24.5t-27 59.5zM778 1235q0 35 27 59.5t65 24.5t65.5 -24.5t27.5 -59.5t-27.5 -59.5t-65.5 -24.5t-65 24.5t-27 59.5z" />
<glyph unicode="&#xf7;" horiz-adv-x="1105" d="M129 479v99h848v-99h-848zM455 182q0 38 28.5 64t69.5 26q40 0 69 -26t29 -64q0 -37 -29 -63.5t-69 -26.5q-41 0 -69.5 26.5t-28.5 63.5zM455 866q0 38 28.5 64t69.5 26q40 0 69 -26t29 -64q0 -37 -29 -62.5t-69 -25.5q-41 0 -69.5 25.5t-28.5 62.5z" />
<glyph unicode="&#xf8;" horiz-adv-x="1306" d="M129 0l141 154q-141 151 -141 358q0 143 70 264t190.5 191.5t263.5 70.5q185 0 326 -112l92 98h109l-142 -154q142 -152 142 -358q0 -143 -70.5 -263.5t-192 -190.5t-264.5 -70q-185 0 -323 110l-92 -98h-109zM276 512q0 -144 93 -252l512 557q-100 78 -230 78 q-155 0 -265 -110t-110 -273zM426 205q99 -74 225 -74q156 0 266.5 109t110.5 272q0 142 -90 250z" />
<glyph unicode="&#xf9;" horiz-adv-x="1327" d="M180 473v551h150v-543q0 -178 83.5 -265t233.5 -87q162 0 257 107t95 301v487h148v-1024h-105l-10 233q-57 -124 -167.5 -185.5t-237.5 -61.5q-211 0 -329 129t-118 358zM410 1391h180l149 -240h-121z" />
<glyph unicode="&#xfa;" horiz-adv-x="1327" d="M180 473v551h150v-543q0 -178 83.5 -265t233.5 -87q162 0 257 107t95 301v487h148v-1024h-105l-10 233q-57 -124 -167.5 -185.5t-237.5 -61.5q-211 0 -329 129t-118 358zM522 1151l148 240h182l-211 -240h-119z" />
<glyph unicode="&#xfb;" horiz-adv-x="1327" d="M180 473v551h150v-543q0 -178 83.5 -265t233.5 -87q162 0 257 107t95 301v487h148v-1024h-105l-10 233q-57 -124 -167.5 -185.5t-237.5 -61.5q-211 0 -329 129t-118 358zM360 1153l218 246h137l217 -248h-129l-156 131l-158 -129h-129z" />
<glyph unicode="&#xfc;" horiz-adv-x="1327" d="M180 473v551h150v-543q0 -178 83.5 -265t233.5 -87q162 0 257 107t95 301v487h148v-1024h-105l-10 233q-57 -124 -167.5 -185.5t-237.5 -61.5q-211 0 -329 129t-118 358zM352 1235q0 35 27 59.5t65 24.5t65.5 -24.5t27.5 -59.5t-27.5 -59.5t-65.5 -24.5t-65 24.5 t-27 59.5zM778 1235q0 35 27 59.5t65 24.5t65.5 -24.5t27.5 -59.5t-27.5 -59.5t-65.5 -24.5t-65 24.5t-27 59.5z" />
<glyph unicode="&#xfd;" horiz-adv-x="1337" d="M190 489v535h150v-528q0 -178 83.5 -264.5t233.5 -86.5q162 0 257.5 107t95.5 299v473h149v-895q0 -237 -130 -378t-367 -142q-251 0 -441 155l86 95q168 -115 355 -115q168 0 257 92.5t89 263.5v121q-36 -76 -100.5 -127t-132 -71.5t-138.5 -20.5q-211 0 -329 128.5 t-118 358.5zM532 1151l148 240h182l-211 -240h-119z" />
<glyph unicode="&#xfe;" horiz-adv-x="1366" d="M197 -377v1811h149v-619q54 100 155.5 161.5t223.5 61.5q143 0 261 -70.5t184.5 -191t66.5 -264.5t-66.5 -264t-184.5 -190t-261 -70q-122 0 -224 60.5t-155 160.5v-586h-149zM336 512q0 -163 111 -273t266 -110t264.5 109.5t109.5 273.5t-109.5 273.5t-264.5 109.5 t-266 -110t-111 -273z" />
<glyph unicode="&#xff;" horiz-adv-x="1337" d="M190 489v535h150v-528q0 -178 83.5 -264.5t233.5 -86.5q162 0 257.5 107t95.5 299v473h149v-895q0 -237 -130 -378t-367 -142q-251 0 -441 155l86 95q168 -115 355 -115q168 0 257 92.5t89 263.5v121q-36 -76 -100.5 -127t-132 -71.5t-138.5 -20.5q-211 0 -329 128.5 t-118 358.5zM354 1235q0 35 27 59.5t65 24.5t65.5 -24.5t27.5 -59.5t-27.5 -59.5t-65.5 -24.5t-65 24.5t-27 59.5zM780 1235q0 35 27 59.5t65 24.5t65.5 -24.5t27.5 -59.5t-27.5 -59.5t-65.5 -24.5t-65 24.5t-27 59.5z" />
<glyph unicode="&#x152;" horiz-adv-x="2463" d="M141 717q0 148 57.5 283.5t155 233.5t233 156t283.5 58q186 0 340 -95.5t232 -250.5v332h907v-150h-747v-485h702v-150h-702v-499h747v-150h-907v332q-78 -156 -232 -251t-340 -95q-198 0 -366 97.5t-265.5 265.5t-97.5 368zM301 717q0 -164 76 -298t206 -209t287 -75 q117 0 222.5 44.5t182.5 121t122 185t45 231.5q0 163 -76.5 296.5t-207.5 209t-288 75.5t-287 -75.5t-206 -209t-76 -296.5z" />
<glyph unicode="&#x153;" horiz-adv-x="2158" d="M129 512q0 143 70 264t190.5 191.5t263.5 70.5q149 0 270 -79t177 -207q54 129 173 207.5t277 78.5q164 0 284 -80.5t177 -218.5q24 -58 28.5 -136.5t-9.5 -125.5h-848q0 -163 107 -257.5t278 -96.5q197 0 354 110l80 -90q-199 -155 -434 -155q-167 1 -289.5 76.5 t-175.5 207.5q-58 -128 -179 -206t-270 -78q-143 0 -263.5 70t-190.5 190.5t-70 263.5zM276 512q0 -163 110 -272t265 -109q156 0 266.5 109t110.5 272q0 164 -110.5 273.5t-266.5 109.5q-155 0 -265 -110t-110 -273zM1188 578h706q3 53 -22 116q-39 95 -123.5 151 t-198.5 56q-152 0 -253 -94t-109 -229z" />
<glyph unicode="&#x178;" horiz-adv-x="1441" d="M94 1434h182l445 -750l442 750h183l-547 -942v-492h-160v492zM416 1620q0 35 27 59.5t65 24.5t65 -24.5t27 -59.5t-27 -59.5t-65 -24.5t-65 24.5t-27 59.5zM842 1620q0 35 27 59.5t65 24.5t65 -24.5t27 -59.5t-27 -59.5t-65 -24.5t-65 24.5t-27 59.5z" />
<glyph unicode="&#x2c6;" horiz-adv-x="829" d="M129 1225l217 245h137l217 -245h-129l-155 131l-158 -131h-129z" />
<glyph unicode="&#x2dc;" horiz-adv-x="856" d="M129 1229l39 104q38 116 127 119q57 5 108 -39l80 -74q39 -30 72 -28q30 0 48 18t30 57l16 48h78l-39 -105q-37 -115 -129 -121q-55 -3 -106 41l-80 74q-40 32 -76 29q-29 -1 -46 -19.5t-28 -56.5l-14 -47h-80z" />
<glyph unicode="&#x2000;" horiz-adv-x="938" />
<glyph unicode="&#x2001;" horiz-adv-x="1876" />
<glyph unicode="&#x2002;" horiz-adv-x="938" />
<glyph unicode="&#x2003;" horiz-adv-x="1876" />
<glyph unicode="&#x2004;" horiz-adv-x="625" />
<glyph unicode="&#x2005;" horiz-adv-x="469" />
<glyph unicode="&#x2006;" horiz-adv-x="312" />
<glyph unicode="&#x2007;" horiz-adv-x="312" />
<glyph unicode="&#x2008;" horiz-adv-x="234" />
<glyph unicode="&#x2009;" horiz-adv-x="375" />
<glyph unicode="&#x200a;" horiz-adv-x="104" />
<glyph unicode="&#x2010;" horiz-adv-x="765" d="M129 541v100h508v-100h-508z" />
<glyph unicode="&#x2011;" horiz-adv-x="765" d="M129 541v100h508v-100h-508z" />
<glyph unicode="&#x2012;" horiz-adv-x="765" d="M129 541v100h508v-100h-508z" />
<glyph unicode="&#x2013;" horiz-adv-x="1019" d="M129 541v100h762v-100h-762z" />
<glyph unicode="&#x2014;" horiz-adv-x="1363" d="M129 541v100h1106v-100h-1106z" />
<glyph unicode="&#x2018;" horiz-adv-x="546" d="M129 1028l184 406h107l-123 -406h-168z" />
<glyph unicode="&#x2019;" horiz-adv-x="546" d="M129 1028l123 406h168l-184 -406h-107z" />
<glyph unicode="&#x201a;" horiz-adv-x="546" d="M129 -242l123 406h168l-184 -406h-107z" />
<glyph unicode="&#x201c;" horiz-adv-x="790" d="M129 1028l184 406h107l-123 -406h-168zM371 1028l184 406h107l-123 -406h-168z" />
<glyph unicode="&#x201d;" horiz-adv-x="790" d="M129 1028l123 406h168l-184 -406h-107zM371 1028l123 406h168l-185 -406h-106z" />
<glyph unicode="&#x201e;" horiz-adv-x="790" d="M129 -242l123 406h168l-184 -406h-107zM371 -242l123 406h168l-185 -406h-106z" />
<glyph unicode="&#x2022;" horiz-adv-x="796" d="M129 621q0 111 79 189.5t191 78.5t191.5 -79t79.5 -189q0 -114 -79 -192.5t-192 -78.5t-191.5 78.5t-78.5 192.5z" />
<glyph unicode="&#x2026;" horiz-adv-x="1290" d="M129 76q0 37 28.5 62.5t69.5 25.5q40 0 69.5 -26t29.5 -62q0 -38 -29.5 -64t-69.5 -26q-41 0 -69.5 26t-28.5 64zM547 76q0 37 28.5 62.5t69.5 25.5q40 0 69 -25.5t29 -62.5q0 -38 -29 -64t-69 -26q-41 0 -69.5 26t-28.5 64zM967 76q0 37 28.5 62.5t69.5 25.5 q40 0 69 -25.5t29 -62.5q0 -38 -29 -64t-69 -26q-41 0 -69.5 26t-28.5 64z" />
<glyph unicode="&#x202f;" horiz-adv-x="375" />
<glyph unicode="&#x2039;" horiz-adv-x="593" d="M129 549l336 297v-141l-184 -156l184 -154v-139z" />
<glyph unicode="&#x203a;" horiz-adv-x="593" d="M129 256v139l186 154l-186 156v141l336 -297z" />
<glyph unicode="&#x205f;" horiz-adv-x="469" />
<glyph unicode="&#x20ac;" horiz-adv-x="1697" d="M129 532v99h174q-4 58 -4 86q0 45 6 92h-176v98h195q64 236 259 388.5t445 152.5q158 0 298.5 -63.5t242.5 -176.5l-105 -94q-85 88 -197 136t-239 48q-189 0 -336 -108t-205 -283h693l-41 -98h-674q-6 -47 -6 -92q0 -43 6 -86h512l-39 -99h-453q56 -179 204 -288 t339 -109q128 0 240 47.5t196 136.5l105 -98q-102 -111 -242 -173t-299 -62q-252 0 -448 153.5t-258 392.5h-193z" />
<glyph unicode="&#x2122;" horiz-adv-x="1560" d="M129 1335v99h569v-99h-233v-536h-103v536h-233zM758 799v635h59l277 -308l278 308h60v-635h-103v461l-235 -261l-234 261v-461h-102z" />
<glyph unicode="&#x25fc;" horiz-adv-x="1024" d="M0 0v1024h1024v-1024h-1024z" />
</font>
</defs>
</svg>
