<?xml version="1.0" standalone="no"?>
<!DOCTYPE svg PUBLIC "-//W3C//DTD SVG 1.1//EN" "http://www.w3.org/Graphics/SVG/1.1/DTD/svg11.dtd" >
<svg xmlns="http://www.w3.org/2000/svg" xmlns:xlink="http://www.w3.org/1999/xlink" version="1.1">
<metadata></metadata>
<defs>
<font id="acrombold" horiz-adv-x="1316" >
<font-face units-per-em="2048" ascent="1536" descent="-512" />
<missing-glyph horiz-adv-x="690" />
<glyph horiz-adv-x="0" />
<glyph horiz-adv-x="682" />
<glyph unicode=" "  horiz-adv-x="690" />
<glyph unicode="&#x09;" horiz-adv-x="690" />
<glyph unicode="&#xa0;" horiz-adv-x="690" />
<glyph unicode="!" horiz-adv-x="536" d="M113 123q0 59 44.5 99t110.5 40q65 0 109.5 -40.5t44.5 -98.5q0 -57 -45 -97t-109 -40q-66 0 -110.5 40t-44.5 97zM127 881v553h283v-551l-25 -494h-233z" />
<glyph unicode="&#x22;" horiz-adv-x="669" d="M113 1434h178l-19 -377h-141zM379 1434h178l-18 -377h-142z" />
<glyph unicode="#" horiz-adv-x="1406" d="M113 428l30 145h246l57 275h-243l30 147h244l94 439h164l-94 -439h240l94 439h164l-95 -439h248l-30 -147h-248l-60 -275h250l-30 -145h-250l-90 -428h-164l90 428h-240l-90 -428h-164l92 428h-245zM553 573h240l57 275h-240z" />
<glyph unicode="$" horiz-adv-x="1402" d="M113 274l184 170q45 -62 126.5 -113.5t190.5 -70.5v361q-469 62 -469 391q0 183 131.5 298.5t337.5 133.5v92h162v-94q128 -17 250 -78t219 -154l-184 -170q-58 48 -135 82.5t-150 48.5v-303h6q115 -14 203 -42.5t159 -78.5t108.5 -130.5t37.5 -188.5 q0 -191 -143.5 -309.5t-370.5 -130.5v-92h-162v96q-164 21 -293 98t-208 184zM428 1022q0 -57 49 -87.5t137 -45.5v289q-77 -11 -131.5 -49t-54.5 -107zM776 254q107 9 169.5 55t62.5 119q0 80 -60.5 118.5t-171.5 55.5v-348z" />
<glyph unicode="%" horiz-adv-x="1691" d="M113 1108q0 142 102.5 241t251.5 99q150 0 253 -99t103 -241t-103 -241t-253 -99q-149 0 -251.5 99t-102.5 241zM299 1108q0 -75 48.5 -122.5t121.5 -47.5t121.5 47.5t48.5 122.5q0 76 -48.5 124t-121.5 48t-121.5 -48t-48.5 -124zM377 0l772 1434h166l-772 -1434h-166z M868 326q0 140 103.5 240t251.5 100q150 0 253 -99.5t103 -240.5q0 -142 -103 -241t-253 -99q-149 0 -252 99.5t-103 240.5zM1053 326q0 -77 48.5 -124.5t121.5 -47.5t121.5 47.5t48.5 124.5q0 75 -48.5 122.5t-121.5 47.5t-121.5 -47.5t-48.5 -122.5z" />
<glyph unicode="&#x26;" horiz-adv-x="1419" d="M113 414q0 117 62.5 206t166.5 130l-49 51q-121 132 -121 274q0 68 27 130t77.5 112.5t133.5 80t186 29.5h25q96 -1 177.5 -32.5t137 -85.5t86.5 -126.5t31 -154.5v-29h-269q0 83 -50 126.5t-132 43.5q-69 0 -119.5 -39.5t-50.5 -111.5t57 -135l431 -459q22 58 22 119 h195q0 -160 -64 -291l232 -252h-273l-88 96q-127 -100 -323 -100h-13q-119 1 -214 33t-156 88.5t-93 132t-32 164.5zM381 469q0 -98 68 -155.5t176 -57.5q88 0 139 39l-297 317q-86 -47 -86 -143z" />
<glyph unicode="'" horiz-adv-x="403" d="M113 1434h178l-19 -377h-141z" />
<glyph unicode="(" horiz-adv-x="782" d="M113 608v31q1 166 63.5 331t189.5 314t302 246v-268q-131 -127 -201 -296.5t-70 -326.5v-31q0 -159 69.5 -329t201.5 -299v-267q-175 99 -302.5 248.5t-190 315t-62.5 331.5z" />
<glyph unicode=")" horiz-adv-x="782" d="M113 -20q132 129 202 299t70 329v31q-2 159 -71.5 328t-200.5 295v268q175 -97 302.5 -246t190 -314.5t62.5 -330.5v-31q0 -166 -62 -331.5t-189.5 -315t-303.5 -248.5v267z" />
<glyph unicode="*" horiz-adv-x="980" d="M113 1130l39 142l282 -98l-18 294h147l-18 -297l282 101l39 -142l-293 -63l222 -238l-115 -94l-191 269l-192 -269l-113 92l219 240z" />
<glyph unicode="+" horiz-adv-x="1075" d="M113 475v162h336v344h176v-344h336v-162h-336v-342h-176v342h-336z" />
<glyph unicode="," horiz-adv-x="673" d="M113 -295l172 557h274l-256 -557h-190z" />
<glyph unicode="-" horiz-adv-x="735" d="M113 510v162h508v-162h-508z" />
<glyph unicode="." horiz-adv-x="536" d="M113 123q0 59 44.5 99t110.5 40q65 0 109.5 -40.5t44.5 -98.5q0 -57 -45 -97t-109 -40q-66 0 -110.5 40t-44.5 97z" />
<glyph unicode="/" horiz-adv-x="880" d="M113 0l489 1434h164l-490 -1434h-163z" />
<glyph unicode="0" horiz-adv-x="1671" d="M119 702q0 146 56.5 278.5t152.5 228.5t229 153t279 57t279 -57t228.5 -153t152 -228.5t56.5 -278.5t-56.5 -279t-152 -228.5t-228.5 -152t-279 -56.5q-195 0 -360 95.5t-261 260.5t-96 360zM403 702q0 -198 124 -323t309 -125q186 0 310 125t124 323q0 197 -124.5 324 t-309.5 127q-184 0 -308.5 -127t-124.5 -324z" />
<glyph unicode="1" horiz-adv-x="913" d="M88 868l444 535h168v-1403h-282v905l-148 -176z" />
<glyph unicode="2" horiz-adv-x="1300" d="M109 0v170l589 494q98 79 146.5 140.5t48.5 135.5q0 98 -67 154.5t-169 58.5h-12q-75 0 -152.5 -36.5t-173.5 -121.5l-184 168q253 256 533 256h16q117 -1 211.5 -37t153 -95t89.5 -133.5t31 -156.5q0 -102 -47 -196.5t-126 -176.5t-208 -184l-200 -174h606v-266h-1085z " />
<glyph unicode="3" horiz-adv-x="1333" d="M109 248l184 170q106 -91 196 -128.5t193 -37.5h14q116 1 189 67.5t73 165.5q0 102 -67 159.5t-207 57.5q-12 0 -25 -1t-24 -2.5t-24 -4.5t-22 -5.5t-22 -6.5t-20 -6.5t-19.5 -7.5t-17 -6.5t-16 -6.5t-13.5 -6l-133 101l404 389h-514v264h925v-166l-403 -389q58 4 96 2 q176 -24 272.5 -136t96.5 -270q0 -94 -31.5 -174.5t-93.5 -144t-164.5 -101t-235.5 -38.5h-14q-340 3 -577 262z" />
<glyph unicode="4" horiz-adv-x="1286" d="M88 227v166l805 1010h168v-909h139v-267h-139v-227h-283v227h-690zM418 494h358v450z" />
<glyph unicode="5" horiz-adv-x="1325" d="M109 248l184 170q107 -92 192 -129t185 -37h14q113 2 189.5 64.5t76.5 170.5q0 114 -74 176t-208 62q-159 0 -320 -113l-133 101v690h868v-264h-618v-285q41 29 115 52.5t172 23.5q225 0 346 -128t121 -335q0 -91 -32 -174.5t-94.5 -152.5t-167.5 -111t-239 -43h-16 q-324 3 -561 262z" />
<glyph unicode="6" horiz-adv-x="1271" d="M109 588v78q0 218 67.5 387.5t200 267.5t311.5 98h12q264 -2 435 -192l-183 -170q-70 52 -128 74t-126 22h-10q-129 0 -209 -102t-98 -263q44 75 127.5 119.5t193.5 44.5q128 0 232 -54.5t167.5 -163t63.5 -253.5q0 -94 -34 -181.5t-96 -158t-161.5 -113t-220.5 -42.5 q-237 0 -390.5 168t-153.5 434zM391 489q0 -102 67.5 -168.5t178.5 -66.5q105 0 174.5 64t69.5 163q0 101 -69.5 166.5t-174.5 65.5t-175.5 -64.5t-70.5 -159.5z" />
<glyph unicode="7" horiz-adv-x="1144" d="M88 1139v264h971v-166l-668 -1237h-301l615 1139h-617z" />
<glyph unicode="8" horiz-adv-x="1239" d="M109 410q0 120 66 208t175 127q-194 99 -194 306q0 68 29 132.5t83 118t143 85.5t199 32h25q109 0 197.5 -32.5t142.5 -86t83 -117.5t29 -132q0 -206 -196 -306q109 -40 175.5 -127.5t66.5 -207.5q0 -187 -133 -305t-371 -119h-13q-239 0 -373 118.5t-134 305.5zM377 459 q0 -97 68 -154t176 -57t175.5 57t67.5 154q0 96 -66.5 152.5t-176.5 56.5q-43 0 -84.5 -12t-78 -36t-59 -65.5t-22.5 -95.5zM422 999q0 -82 56 -126t143 -44q86 0 141 44t55 126q0 83 -55 126.5t-141 43.5q-88 0 -143.5 -43.5t-55.5 -126.5z" />
<glyph unicode="9" horiz-adv-x="1271" d="M109 922q0 94 34 182.5t96.5 159t161.5 113t220 42.5q236 0 390 -168.5t154 -433.5v-78q0 -218 -67.5 -387.5t-200 -267.5t-311.5 -98h-13q-265 2 -436 192l185 170q69 -53 126.5 -74.5t126.5 -21.5h11q129 0 209 101.5t98 262.5q-44 -75 -127.5 -119t-194.5 -44 q-127 0 -231 54.5t-167.5 162.5t-63.5 252zM391 922q0 -100 70 -165t176 -65q104 0 174 63.5t70 157.5q0 103 -67.5 170.5t-176.5 67.5q-106 0 -176 -64t-70 -165z" />
<glyph unicode=":" horiz-adv-x="536" d="M113 123q0 59 44.5 99t110.5 40q65 0 109.5 -40.5t44.5 -98.5q0 -57 -45 -97t-109 -40q-66 0 -110.5 40t-44.5 97zM113 788q0 57 44.5 97.5t110.5 40.5q64 0 109 -40.5t45 -97.5q0 -58 -44.5 -98.5t-109.5 -40.5q-66 0 -110.5 40t-44.5 99z" />
<glyph unicode=";" horiz-adv-x="706" d="M113 -295l172 557h274l-256 -557h-190zM283 788q0 57 44.5 97.5t110.5 40.5q64 0 109 -40.5t45 -97.5q0 -58 -44.5 -98.5t-109.5 -40.5q-66 0 -110.5 40t-44.5 99z" />
<glyph unicode="&#x3c;" horiz-adv-x="978" d="M113 700l753 414v-229l-342 -187l342 -182v-231z" />
<glyph unicode="=" horiz-adv-x="1075" d="M113 311v162h848v-162h-848zM113 602v162h848v-162h-848z" />
<glyph unicode="&#x3e;" horiz-adv-x="978" d="M113 285v231l340 182l-340 187v229l753 -414z" />
<glyph unicode="?" horiz-adv-x="1343" d="M113 1186q248 262 577 262h17q131 -2 233.5 -40t164 -101t93 -141.5t31.5 -168.5q0 -181 -118 -292t-312 -140v-170h-283v326q107 -6 187.5 4t129 31t78.5 54t41 68t11 78q0 97 -73.5 161t-191.5 65h-12q-101 0 -191 -38t-198 -128zM502 123q0 59 44.5 99t110.5 40 q65 0 109.5 -40.5t44.5 -98.5q0 -57 -45 -97t-109 -40q-66 0 -110.5 40t-44.5 97z" />
<glyph unicode="@" horiz-adv-x="1886" d="M113 522q0 169 65 323t176 265.5t264.5 177.5t323.5 66q174 0 329 -63.5t265 -171.5t174 -257t64 -315v-119q0 -165 -81.5 -262t-222.5 -98q-167 3 -223 116l-8 47q-54 -80 -139 -125t-189 -45q-186 0 -309 131t-123 320q0 190 123.5 321.5t308.5 131.5q93 0 170.5 -38.5 t130.5 -105.5l11 131h143v-590q0 -65 30.5 -98t78.5 -33q25 0 43 7.5t34.5 27.5t25.5 61t9 101v111q0 119 -35 222.5t-96 180t-142.5 132t-176.5 83t-195 27.5q-122 0 -236.5 -46t-205.5 -128.5t-146 -209.5t-55 -278t55 -278t146 -209t205.5 -127t236.5 -45q192 0 356 108 l123 -125q-215 -153 -479 -153q-227 0 -417.5 110.5t-301 301t-110.5 417.5zM694 512q0 -109 71 -177.5t167 -68.5q97 0 168 68.5t71 177.5t-71 178.5t-168 69.5q-96 0 -167 -69.5t-71 -178.5z" />
<glyph unicode="A" horiz-adv-x="1513" d="M88 0l590 1434h166l581 -1434h-313l-102 262h-506l-103 -262h-313zM602 530h309l-153 392z" />
<glyph unicode="B" horiz-adv-x="1417" d="M215 0v1434h553q86 0 157.5 -14t120.5 -36.5t87 -55t60 -66t36 -72.5t19 -71.5t5 -65.5q0 -116 -50.5 -193t-137.5 -112q112 -26 178 -117t66 -219q0 -89 -27 -160.5t-86.5 -129.5t-165.5 -90t-252 -32h-563zM498 268h340q108 0 156 48.5t48 125.5q0 74 -50.5 124 t-153.5 50h-340v-348zM498 860h301q54 0 93 14t58.5 38t28 49t8.5 53q0 153 -188 153h-301v-307z" />
<glyph unicode="C" horiz-adv-x="1497" d="M119 717q0 148 57.5 283.5t155 233.5t233 156t283.5 58q156 0 296.5 -63.5t244.5 -174.5l-185 -170q-145 142 -356 142q-190 0 -318.5 -131t-128.5 -334q0 -204 128.5 -334.5t318.5 -130.5q215 0 356 141l185 -170q-103 -111 -243.5 -174t-297.5 -63q-148 0 -283.5 58 t-233 156t-155 233.5t-57.5 283.5z" />
<glyph unicode="D" horiz-adv-x="1560" d="M215 0v1434h498q200 0 366.5 -91.5t264.5 -256.5t98 -369q0 -154 -57.5 -288t-155.5 -227.5t-232 -147.5t-284 -54h-498zM498 266h215q194 0 320 119.5t126 331.5q0 210 -126 330t-320 120h-215v-901z" />
<glyph unicode="E" horiz-adv-x="1277" d="M215 0v1434h954v-267h-671v-313h620v-266h-620v-322h671v-266h-954z" />
<glyph unicode="F" horiz-adv-x="1277" d="M215 0v1434h954v-267h-671v-313h620v-266h-620v-588h-283z" />
<glyph unicode="G" horiz-adv-x="1583" d="M119 715q0 148 57.5 283.5t155 233.5t233 156t283.5 58q156 0 296.5 -63.5t244.5 -174.5l-185 -170q-142 142 -356 142q-190 0 -318.5 -130.5t-128.5 -334.5q0 -203 128.5 -334t318.5 -131q145 0 258 80v248h-262v213h545v-570q-103 -111 -243.5 -174t-297.5 -63 q-148 0 -283.5 58t-233 156t-155 233.5t-57.5 283.5z" />
<glyph unicode="H" horiz-adv-x="1552" d="M215 0v1434h283v-580h555v580h282v-1434h-282v588h-555v-588h-283z" />
<glyph unicode="I" horiz-adv-x="1058" d="M215 0v266h172v901h-172v267h627v-267h-172v-901h172v-266h-627z" />
<glyph unicode="J" horiz-adv-x="1245" d="M119 524v80h282v-121q0 -108 64 -169.5t158 -61.5t157.5 61.5t63.5 169.5v684h-420v267h702v-910q0 -139 -40 -245t-110 -168.5t-159 -93.5t-194 -31t-194 31t-159.5 93.5t-110.5 168.5t-40 245z" />
<glyph unicode="K" horiz-adv-x="1525" d="M215 0v1434h283v-572h123q70 0 107.5 27t86.5 102l283 443h319l-338 -529q-100 -138 -166 -172q38 -17 77.5 -57t96.5 -129l351 -547h-320l-295 461q-48 76 -85.5 102.5t-108.5 26.5h-131v-590h-283z" />
<glyph unicode="L" horiz-adv-x="1230" d="M215 0v1434h283v-1168h645v-266h-928z" />
<glyph unicode="M" horiz-adv-x="1837" d="M195 0v1434h167l545 -684l547 684h168v-1434h-283v915l-432 -536l-430 536v-915h-282z" />
<glyph unicode="N" horiz-adv-x="1517" d="M195 0v1434h165l680 -904v904h283v-1434h-168l-678 903v-903h-282z" />
<glyph unicode="O" horiz-adv-x="1697" d="M119 717q0 148 57.5 283.5t155 233.5t233 156t283.5 58t283.5 -58t233.5 -156t156 -233.5t58 -283.5q0 -200 -98 -368t-266.5 -265.5t-366.5 -97.5t-366 97.5t-265.5 265.5t-97.5 368zM401 717q0 -204 128.5 -334.5t318.5 -130.5q191 0 319.5 130.5t128.5 334.5 q0 203 -128.5 334t-319.5 131q-190 0 -318.5 -131t-128.5 -334z" />
<glyph unicode="P" horiz-adv-x="1443" d="M215 0v1434h471q147 0 268.5 -42t202 -116t124.5 -175t44 -218q0 -119 -44 -220.5t-124.5 -175t-202 -115.5t-268.5 -42h-188v-330h-283zM498 596h211q95 0 171.5 28.5t126.5 95t50 163.5q0 93 -50 158.5t-127 95.5t-171 30h-211v-571z" />
<glyph unicode="Q" horiz-adv-x="1771" d="M119 717q0 148 57.5 283.5t155 233.5t233 156t283.5 58t283.5 -58t233.5 -156t156 -233.5t58 -283.5q0 -138 -57 -261t-154 -204h287v-266h-807q-198 0 -366 97.5t-265.5 265.5t-97.5 368zM401 717q0 -204 128.5 -334.5t318.5 -130.5q191 0 319.5 130.5t128.5 334.5 q0 203 -128.5 334t-319.5 131q-190 0 -318.5 -131t-128.5 -334z" />
<glyph unicode="R" horiz-adv-x="1439" d="M215 0v1434h487q147 0 266 -42t196.5 -115t119 -171.5t41.5 -212.5q0 -159 -81 -276.5t-228 -174.5q90 -57 213 -252l123 -190h-318l-92 143q-85 131 -134.5 167.5t-152.5 39.5h-157v-350h-283zM498 616h231q147 0 237.5 69.5t90.5 207.5q0 132 -92 203t-236 71h-231 v-551z" />
<glyph unicode="S" horiz-adv-x="1392" d="M109 274l184 170q54 -78 165.5 -135t258.5 -57h12q126 2 200.5 48.5t74.5 127.5q0 36 -14 64.5t-36.5 47t-58 32t-72 21t-84.5 13.5l-112 12q-486 59 -486 394q0 131 71 230.5t191 151.5t269 54h16q147 0 292.5 -65t260.5 -173l-184 -170q-77 63 -183 102.5t-186 39.5 h-16q-39 0 -79 -8t-79.5 -25t-64.5 -50t-25 -77q0 -35 18.5 -60t54 -40.5t74.5 -24.5t93 -16l114 -13q115 -14 203 -42.5t159 -78.5t108.5 -130.5t37.5 -188.5q0 -200 -157 -320t-400 -122h-12q-202 0 -358.5 81t-249.5 207z" />
<glyph unicode="T" horiz-adv-x="1245" d="M88 1167v267h1069v-267h-393v-1167h-283v1167h-393z" />
<glyph unicode="U" horiz-adv-x="1572" d="M215 602v832h283v-826q0 -78 17 -139.5t45 -101.5t67 -66.5t81 -37.5t89 -11t89 11t81 37.5t67 66.5t45 101.5t17 139.5v826h282v-832q0 -150 -48 -270t-130 -194t-185 -113t-218 -39q-116 0 -219 39t-185 113t-130 194t-48 270z" />
<glyph unicode="V" horiz-adv-x="1517" d="M88 1434h313l359 -916l358 916h314l-584 -1434h-168z" />
<glyph unicode="W" horiz-adv-x="2365" d="M88 1434h313l347 -914l352 914h166l352 -914l346 914h313l-577 -1434h-168l-348 862l-350 -862h-166z" />
<glyph unicode="X" horiz-adv-x="1486" d="M88 0l498 748l-465 686h321l306 -439l299 439h321l-465 -699l498 -735h-322l-338 487l-329 -487h-324z" />
<glyph unicode="Y" horiz-adv-x="1478" d="M88 1434h322l331 -607l330 607h322l-512 -955v-479h-283v479z" />
<glyph unicode="Z" horiz-adv-x="1282" d="M109 0v166l657 1001h-602v267h993v-168l-657 -1000h676v-266h-1067z" />
<glyph unicode="[" horiz-adv-x="643" d="M113 -287v1823h415v-266h-133v-1288h133v-269h-415z" />
<glyph unicode="\" horiz-adv-x="880" d="M113 1434h163l490 -1434h-162z" />
<glyph unicode="]" horiz-adv-x="643" d="M113 -18h133v1288h-133v266h415v-1823h-415v269z" />
<glyph unicode="^" horiz-adv-x="1050" d="M113 795l411 628l412 -628h-166l-246 374l-245 -374h-166z" />
<glyph unicode="_" horiz-adv-x="1075" d="M113 -104h850v-123h-850v123z" />
<glyph unicode="`" horiz-adv-x="679" d="M113 1509h278l174 -299h-196z" />
<glyph unicode="a" d="M113 512q0 144 63.5 264.5t178.5 191t257 70.5q104 0 193 -42.5t147 -116.5l15 145h174v-1024h-174l-15 145q-58 -73 -147 -115t-193 -42q-143 0 -257.5 70t-178 190t-63.5 264zM373 512q0 -121 78.5 -196.5t185.5 -75.5q106 0 185 75.5t79 196.5t-79 197.5t-185 76.5 q-107 0 -185.5 -76t-78.5 -198z" />
<glyph unicode="b" d="M174 0v1434h260v-510q46 53 117.5 83.5t153.5 30.5q215 0 356 -152.5t141 -373.5q0 -145 -63 -264.5t-177.5 -189.5t-256.5 -70q-105 0 -194 41.5t-149 115.5l-14 -145h-174zM414 512q0 -121 79 -196.5t185 -75.5q107 0 185.5 75.5t78.5 196.5q0 122 -78.5 198t-185.5 76 q-106 0 -185 -76.5t-79 -197.5z" />
<glyph unicode="c" horiz-adv-x="1144" d="M113 512q0 143 70 263.5t190.5 190.5t263.5 70q119 0 224.5 -50t178.5 -138l-155 -168q-61 57 -119.5 80.5t-128.5 23.5q-107 0 -185.5 -75.5t-78.5 -196.5t78.5 -196.5t185.5 -75.5q70 0 128.5 23.5t119.5 80.5l155 -168q-73 -88 -178.5 -138t-224.5 -50 q-143 0 -263.5 70t-190.5 190.5t-70 263.5z" />
<glyph unicode="d" d="M113 512q0 144 63.5 264.5t178.5 191t257 70.5q82 0 152.5 -30.5t116.5 -83.5v510h260v-1434h-174l-15 145q-58 -73 -147 -115t-193 -42q-143 0 -257.5 70t-178 190t-63.5 264zM373 512q0 -121 78.5 -196.5t185.5 -75.5q106 0 185 75.5t79 196.5t-79 197.5t-185 76.5 q-107 0 -185.5 -76t-78.5 -198z" />
<glyph unicode="e" horiz-adv-x="1218" d="M113 512q0 224 141.5 375t374.5 151q161 0 275.5 -72t174.5 -204q31 -70 35 -164q1 -15 1 -30q0 -75 -19 -128h-715q0 -101 72.5 -158t181.5 -57q168 0 309 72l137 -150q-215 -159 -446 -159t-376.5 148.5t-145.5 375.5zM391 604h469q0 44 -24 82q-27 52 -81.5 83.5 t-125.5 31.5q-100 0 -167.5 -60t-70.5 -137z" />
<glyph unicode="f" horiz-adv-x="829" d="M113 772v252h137v33q0 196 124 299q110 91 280 91q19 0 40 -1l31 -2v-236h-18q-97 0 -148 -34t-51 -125v-25h217v-252h-219v-774h-260v774h-133z" />
<glyph unicode="g" horiz-adv-x="1306" d="M102 526q0 137 63.5 254t179 187.5t257.5 70.5q104 0 193 -42t147 -115l14 143h174v-893q0 -229 -139.5 -375.5t-374.5 -146.5q-259 0 -452 160l147 157q81 -41 153 -61q68 -19 144 -19h8q115 0 182.5 58t67.5 168v57q-46 -52 -115.5 -81.5t-148.5 -29.5 q-142 0 -257.5 70t-179 186t-63.5 252zM362 526q0 -111 79.5 -183.5t185.5 -72.5q105 0 184.5 73t79.5 183q0 112 -79.5 186t-184.5 74q-106 0 -185.5 -74t-79.5 -186z" />
<glyph unicode="h" horiz-adv-x="1341" d="M184 0v1434h260v-516q48 61 122.5 90.5t162.5 29.5q216 0 331.5 -134t115.5 -363v-541h-261v524q0 262 -227 262q-116 0 -180 -70t-64 -214v-502h-260z" />
<glyph unicode="i" horiz-adv-x="663" d="M184 1251q0 57 44.5 96t107.5 39q65 0 109 -39t44 -96t-44 -96t-109 -39q-63 0 -107.5 39t-44.5 96zM207 0v1024h260v-1024h-260z" />
<glyph unicode="j" horiz-adv-x="663" d="M184 1251q0 57 44.5 96t107.5 39q65 0 109 -39t44 -96t-44 -96t-109 -39q-63 0 -107.5 39t-44.5 96zM205 -377v1401h262v-1401h-262z" />
<glyph unicode="k" horiz-adv-x="1243" d="M184 0v1434h260v-783h64q69 0 106.5 26.5t85.5 102.5l160 244h289l-229 -346q-34 -53 -73.5 -95t-72.5 -55q71 -22 156 -153l246 -375h-289l-176 272q-49 75 -87 102t-108 27h-72v-401h-260z" />
<glyph unicode="l" horiz-adv-x="612" d="M184 0v1434h262v-1434h-262z" />
<glyph unicode="m" horiz-adv-x="2062" d="M174 0v1024h174l19 -160q52 85 144 129.5t208 44.5q128 0 221 -51t143 -147q49 96 145.5 147t221.5 51q216 0 331 -134t115 -363v-541h-260v524q0 262 -227 262q-116 0 -180 -70t-64 -214v-502h-260v524q0 262 -227 262q-116 0 -180 -70t-64 -214v-502h-260z" />
<glyph unicode="n" horiz-adv-x="1331" d="M174 0v1024h174l19 -160q52 85 144 129.5t208 44.5q216 0 331 -134t115 -363v-541h-260v524q0 262 -227 262q-116 0 -180 -70t-64 -214v-502h-260z" />
<glyph unicode="o" horiz-adv-x="1275" d="M113 512q0 143 70 264t190.5 191.5t263.5 70.5t264 -70.5t191.5 -191.5t70.5 -264t-70.5 -263.5t-191.5 -190.5t-264 -70t-263.5 70t-190.5 190.5t-70 263.5zM373 512q0 -121 78.5 -196.5t185.5 -75.5q106 0 185 75.5t79 196.5t-79 197.5t-185 76.5q-107 0 -185.5 -76 t-78.5 -198z" />
<glyph unicode="p" horiz-adv-x="1302" d="M160 -377v1401h174l14 -145q60 74 148.5 115.5t193.5 41.5q142 0 257 -70t178 -190t63 -264q0 -145 -63 -265t-178 -190.5t-257 -70.5q-81 0 -152 31t-118 83v-477h-260zM401 512q0 -121 79.5 -197.5t185.5 -76.5q107 0 185.5 76t78.5 198q0 121 -78.5 196.5t-185.5 75.5 q-106 0 -185.5 -75.5t-79.5 -196.5z" />
<glyph unicode="q" d="M113 512q0 144 63.5 264t178 190t257.5 70q104 0 193 -42t147 -115l15 145h174v-1401h-260v477q-47 -52 -117.5 -83t-151.5 -31q-142 0 -257 70.5t-178.5 191t-63.5 264.5zM373 512q0 -122 78.5 -198t185.5 -76q106 0 185 76.5t79 197.5t-79 196.5t-185 75.5 q-107 0 -185.5 -75.5t-78.5 -196.5z" />
<glyph unicode="r" horiz-adv-x="892" d="M174 0v1024h174l29 -221q59 111 161.5 173t243.5 62h43v-252h-104q-140 0 -213.5 -86.5t-73.5 -236.5v-463h-260z" />
<glyph unicode="s" horiz-adv-x="1130" d="M113 184l147 140q45 -54 141 -89.5t191 -35.5h10q70 0 112 25t42 75q0 57 -41.5 80t-134.5 31l-58 6q-186 15 -285.5 89.5t-99.5 207.5q0 151 119 237t297 88h16q128 0 243.5 -51.5t182.5 -138.5l-147 -137q-48 53 -128.5 86.5t-148.5 33.5h-16q-72 -2 -115 -28t-43 -74 q0 -43 37.5 -64t132.5 -28l70 -8q81 -6 147 -25.5t119.5 -56t83 -97t29.5 -141.5q0 -139 -112.5 -230t-299.5 -91h-10q-152 0 -284.5 53.5t-196.5 142.5z" />
<glyph unicode="t" horiz-adv-x="735" d="M113 772v252h133v344h262v-344h133v-252h-133v-772h-262v772h-133z" />
<glyph unicode="u" horiz-adv-x="1320" d="M164 483v541h260v-524q0 -262 229 -262q114 0 178 70.5t64 213.5v502h260v-1024h-174l-18 160q-52 -85 -143.5 -129.5t-207.5 -44.5q-218 0 -333 134t-115 363z" />
<glyph unicode="v" horiz-adv-x="1247" d="M68 1024h276l281 -641l282 641h275l-473 -1024h-168z" />
<glyph unicode="w" horiz-adv-x="1955" d="M68 1024h276l272 -641l279 641h168l278 -641l273 641h276l-467 -1024h-166l-278 608l-279 -608h-168z" />
<glyph unicode="x" horiz-adv-x="1228" d="M68 0l399 532l-377 492h301l227 -283l222 283h299l-377 -502l401 -522h-301l-250 315l-243 -315h-301z" />
<glyph unicode="y" horiz-adv-x="1331" d="M174 516v508h260v-494q0 -262 230 -262q114 0 177.5 70.5t63.5 214.5v471h260v-893q0 -112 -36 -208t-101 -165.5t-161.5 -109t-213.5 -39.5q-261 0 -454 160l147 157q82 -41 154 -61q68 -19 145 -19h8q114 0 182 58.5t68 167.5v65q-47 -60 -121.5 -90.5t-158.5 -30.5 q-217 0 -333 135.5t-116 364.5z" />
<glyph unicode="z" horiz-adv-x="1095" d="M113 0l2 197l477 575h-440v252h811l-2 -197l-478 -575h500v-252h-870z" />
<glyph unicode="{" horiz-adv-x="835" d="M113 516v244h10q47 2 75.5 9.5t51.5 29t32.5 62t10.5 106.5l2 227q3 161 94.5 251.5t245.5 90.5h86v-266h-39q-42 0 -73 -32.5t-31 -82.5v-219q0 -119 -45 -199t-144 -98q186 -33 186 -262v-281q0 -49 32 -81.5t75 -32.5h39v-267h-86q-154 0 -245.5 90t-94.5 252l-2 246 q-3 89 -23 135t-52.5 60.5t-94.5 17.5h-10z" />
<glyph unicode="|" horiz-adv-x="403" d="M113 -123v1557h178v-1557h-178z" />
<glyph unicode="}" horiz-adv-x="835" d="M113 -18h41q43 0 73.5 32t30.5 82v281q0 229 186 262q-186 33 -186 297v219q0 50 -31 82.5t-73 32.5h-41v266h86q154 0 246.5 -90.5t93.5 -251.5l2 -227q1 -66 11 -106.5t33 -62t51 -29t75 -9.5h10v-244h-10q-62 -3 -94.5 -17.5t-52.5 -60.5t-23 -135l-2 -246 q-3 -162 -94.5 -252t-245.5 -90h-86v267z" />
<glyph unicode="~" horiz-adv-x="1116" d="M113 406l86 178q27 56 68 87.5t85 36.5t86.5 -4t79.5 -32l125 -72q53 -33 108 -31t83 47l36 60h134l-86 -178q-27 -56 -68 -87.5t-85.5 -37t-87 3.5t-79.5 31l-125 73q-52 33 -107 31t-83 -49l-35 -57h-135z" />
<glyph unicode="&#xa1;" horiz-adv-x="536" d="M113 979q0 59 44.5 99t110.5 40q65 0 109.5 -40.5t44.5 -98.5q0 -57 -45 -97t-109 -40q-66 0 -110.5 40t-44.5 97zM127 223l25 490h233l25 -492v-551h-283v553z" />
<glyph unicode="&#xa2;" horiz-adv-x="1155" d="M113 512q0 195 124.5 341t313.5 177v201h162v-201q194 -27 327 -182l-155 -168q-84 78 -172 96v-528q88 18 172 96l155 -168q-133 -155 -327 -182v-195h-162v195q-189 31 -313.5 177t-124.5 341zM373 512q0 -95 50 -163.5t128 -94.5v516q-78 -26 -128 -94.5t-50 -163.5z " />
<glyph unicode="&#xa3;" horiz-adv-x="1404" d="M113 537v266h112q-19 108 -26 190q-6 111 34 199t114 143t172 84t212 29h17q146 -3 288.5 -67.5t253.5 -170.5l-182 -170q-80 63 -185.5 102.5t-185.5 39.5h-18q-32 -1 -61.5 -5.5t-65 -20t-60.5 -39.5t-40 -68t-11 -101q4 -48 21 -145h387v-266h-330q23 -88 9.5 -156.5 t-79.5 -114.5h668v-266h-1040v176q118 77 150.5 159.5t13.5 201.5h-168z" />
<glyph unicode="&#xa4;" horiz-adv-x="1302" d="M115 117l133 133q-95 129 -95 289.5t95 289.5l-133 132l114 114l133 -133q129 95 290 95.5t290 -93.5l131 131l115 -114l-131 -132q94 -129 94 -290t-94 -291l129 -129l-115 -115l-129 131q-129 -95 -290 -95t-290 95l-133 -133zM442 608q-28 -97 14 -176t124 -110 t166 8.5t112 136.5t-13.5 176.5t-123.5 110.5q-55 18 -110 10.5t-102.5 -49.5t-66.5 -107z" />
<glyph unicode="&#xa5;" horiz-adv-x="1531" d="M113 1434h321l332 -607l330 607h321l-397 -740h280v-315h-395v-379h-282v379h-394v315h279z" />
<glyph unicode="&#xa6;" horiz-adv-x="403" d="M113 -123v678h178v-678h-178zM113 754v680h178v-680h-178z" />
<glyph unicode="&#xa7;" horiz-adv-x="1130" d="M113 588q0 113 82 198q-58 67 -58 166q0 148 116.5 234.5t291.5 91.5h24q128 0 243.5 -51.5t182.5 -139.5l-147 -137q-48 53 -128.5 87t-148.5 34h-20q-70 -2 -112 -28t-42 -74q0 -76 103 -86l65 -4q97 -1 177 -20t142.5 -58t97 -103t34.5 -149q0 -117 -82 -199 q57 -66 57 -166q0 -148 -115 -234t-290 -91h-25q-129 0 -244 51t-184 139l148 137q48 -53 128 -86.5t148 -33.5h16q73 2 115.5 28t42.5 74q0 36 -22 58t-80 28l-66 4q-66 1 -126.5 10.5t-121 33t-104 60t-71 94.5t-27.5 132zM373 598q0 -51 42.5 -76.5t129.5 -34.5l63 -6 q60 -6 103 -18q45 25 45 76q0 52 -42.5 77t-131.5 33l-60 6q-54 5 -104 19q-45 -25 -45 -76z" />
<glyph unicode="&#xa8;" horiz-adv-x="972" d="M113 1376q0 58 44 97.5t107 39.5q65 0 109.5 -39.5t44.5 -97.5q0 -57 -44.5 -96t-109.5 -39q-63 0 -107 39t-44 96zM555 1376q0 58 44.5 97.5t107.5 39.5q65 0 109 -39.5t44 -97.5q0 -57 -44 -96t-109 -39q-63 0 -107.5 39t-44.5 96z" />
<glyph unicode="&#xa9;" horiz-adv-x="1327" d="M113 881q0 112 43.5 214t116.5 176.5t175.5 118.5t215.5 44q151 0 277 -74.5t198.5 -201.5t72.5 -277t-72.5 -277t-198.5 -201.5t-277 -74.5q-113 0 -215.5 44t-175.5 118.5t-116.5 176.5t-43.5 214zM219 881q0 -122 58.5 -225.5t161 -163.5t225.5 -60t225 60 t160.5 163.5t58.5 225.5q0 186 -129 317t-315 131q-187 0 -316 -131.5t-129 -316.5zM342 881q0 133 94 227t228 94q72 0 137 -31t110 -84l-94 -100q-75 66 -153 66q-66 0 -115 -48.5t-49 -123.5q0 -74 49 -122t115 -48q80 0 153 67l92 -102q-43 -55 -107.5 -86t-137.5 -31 q-134 0 -228 94.5t-94 227.5z" />
<glyph unicode="&#xab;" horiz-adv-x="1001" d="M113 528l405 379v-229l-166 -150l166 -147v-229zM481 528l406 379v-229l-166 -150l166 -147v-229z" />
<glyph unicode="&#xac;" horiz-adv-x="1075" d="M113 475v162h848v-373h-177v211h-671z" />
<glyph unicode="&#xad;" horiz-adv-x="735" d="M113 510v162h508v-162h-508z" />
<glyph unicode="&#xae;" horiz-adv-x="1327" d="M113 881q0 112 43.5 214t116.5 176.5t175.5 118.5t215.5 44q151 0 277 -74.5t198.5 -201.5t72.5 -277t-72.5 -277t-198.5 -201.5t-277 -74.5q-113 0 -215.5 44t-175.5 118.5t-116.5 176.5t-43.5 214zM219 881q0 -122 58.5 -225.5t161 -163.5t225.5 -60t225 60 t160.5 163.5t58.5 225.5q0 186 -129 317t-315 131q-187 0 -316 -131.5t-129 -316.5zM393 578v608h299q72 0 124.5 -20t79 -53.5t38.5 -69.5t12 -76q0 -62 -37 -111t-104 -63l153 -215h-159l-140 186h-114v-186h-152zM545 893h162q88 0 88 74q0 73 -88 73h-162v-147z" />
<glyph unicode="&#xaf;" horiz-adv-x="763" d="M113 1317v192h536v-192h-536z" />
<glyph unicode="&#xb0;" horiz-adv-x="741" d="M113 1255q0 107 75.5 182.5t182.5 75.5q106 0 181 -75.5t75 -182.5q0 -106 -75 -181t-181 -75q-107 0 -182.5 75t-75.5 181zM260 1255q0 -46 32.5 -78t78.5 -32q44 0 76 32t32 78t-32 78.5t-76 32.5q-46 0 -78.5 -32.5t-32.5 -78.5z" />
<glyph unicode="&#xb1;" horiz-adv-x="1075" d="M113 199v161h848v-161h-848zM113 645v162h336v209h176v-209h336v-162h-336v-209h-176v209h-336z" />
<glyph unicode="&#xb4;" horiz-adv-x="679" d="M113 1210l174 299h278l-256 -299h-196z" />
<glyph unicode="&#xb6;" horiz-adv-x="1353" d="M113 1024q0 85 25.5 153.5t70.5 116t108 79.5t137 46.5t158 14.5h629v-164h-123v-1604h-178v1604h-154v-1604h-178v965q-83 0 -155 13t-135.5 42.5t-108 74t-70.5 112t-26 151.5z" />
<glyph unicode="&#xb7;" horiz-adv-x="536" d="M113 618q0 63 44 108.5t111 45.5q66 0 110 -45.5t44 -108.5t-44 -108t-110 -45q-67 0 -111 45t-44 108z" />
<glyph unicode="&#xb8;" horiz-adv-x="522" d="M113 -219q54 -28 93.5 -17t39.5 50q0 36 -27 47t-92 -15l55 154h76l-22 -70q26 12 56.5 9t56.5 -15t43.5 -42.5t17.5 -74.5q0 -61 -39 -100t-105 -40.5t-153 44.5v70z" />
<glyph unicode="&#xbb;" horiz-adv-x="1001" d="M113 152v229l166 147l-166 150v229l405 -379zM481 152v229l166 147l-166 150v229l406 -379z" />
<glyph unicode="&#xbc;" horiz-adv-x="1439" d="M113 1165l223 269h137v-652h-184v406l-80 -96zM285 0l706 1434h164l-706 -1434h-164zM743 111v94l387 446h127v-393h68v-147h-68v-111h-184v111h-330zM922 258h151v170z" />
<glyph unicode="&#xbd;" horiz-adv-x="1542" d="M113 1165l223 269h137v-652h-184v406l-80 -96zM285 0l706 1434h164l-706 -1434h-164zM850 0v94l305 225q44 32 64 55.5t20 49.5q0 32 -25 54.5t-65 23.5h-8q-74 0 -164 -68l-113 105q74 64 147 96.5t165 32.5h8q103 -1 168 -61t65 -144q0 -73 -43.5 -126.5t-136.5 -109.5 l-92 -57h285v-170h-580z" />
<glyph unicode="&#xbe;" horiz-adv-x="1570" d="M113 895l104 96q24 -19 40.5 -29.5t51 -22t72.5 -11.5q57 2 94 25.5t37 60.5q0 34 -30.5 53.5t-80.5 17.5q-48 -3 -79 -18l-58 45l197 164h-283v158h473v-121l-186 -144q30 -3 72 -12q76 -20 114.5 -65.5t38.5 -110.5q0 -86 -69.5 -149.5t-194.5 -63.5h-8 q-175 0 -305 127zM416 0l706 1434h164l-706 -1434h-164zM877 111v94l387 446h127v-393h67v-147h-67v-111h-185v111h-329zM1053 258h151v170z" />
<glyph unicode="&#xbf;" horiz-adv-x="1343" d="M113 115q0 182 118 293.5t314 138.5v170h282v-326q-106 7 -186.5 -3t-129 -31t-78.5 -54.5t-41 -68.5t-11 -78q0 -96 73 -159.5t189 -64.5h14q99 0 190 38t200 128l182 -170q-243 -262 -576 -262h-18q-131 2 -233 39.5t-164 100.5t-93.5 141.5t-31.5 167.5zM530 989 q0 59 45 99t111 40q65 0 109.5 -40.5t44.5 -98.5q0 -57 -45 -97t-109 -40q-66 0 -111 40t-45 97z" />
<glyph unicode="&#xc0;" horiz-adv-x="1513" d="M88 0l590 1434h166l581 -1434h-313l-102 262h-506l-103 -262h-313zM414 1835h278l174 -299h-196zM602 530h309l-153 392z" />
<glyph unicode="&#xc1;" horiz-adv-x="1513" d="M88 0l590 1434h166l581 -1434h-313l-102 262h-506l-103 -262h-313zM602 530h309l-153 392zM655 1536l174 299h279l-256 -299h-197z" />
<glyph unicode="&#xc2;" horiz-adv-x="1513" d="M88 0l590 1434h166l581 -1434h-313l-102 262h-506l-103 -262h-313zM446 1536l181 301h260l180 -301h-197l-112 106l-115 -106h-197zM602 530h309l-153 392z" />
<glyph unicode="&#xc3;" horiz-adv-x="1513" d="M88 0l590 1434h166l581 -1434h-313l-102 262h-506l-103 -262h-313zM438 1536l56 143q38 99 127 109q69 6 116 -31l84 -59q43 -27 74 -25q44 3 61 51l15 39h116l-55 -143q-40 -102 -129 -109q-62 -6 -115 31l-83 60q-41 27 -80 24q-38 -6 -56 -51l-14 -39h-117zM602 530 h309l-153 392z" />
<glyph unicode="&#xc4;" horiz-adv-x="1513" d="M88 0l590 1434h166l581 -1434h-313l-102 262h-506l-103 -262h-313zM385 1671q0 57 44.5 96t107.5 39q65 0 109 -39t44 -96t-44 -96t-109 -39q-63 0 -107.5 39t-44.5 96zM602 530h309l-153 392zM825 1671q0 57 44.5 96t107.5 39q65 0 109 -39t44 -96t-44 -96t-109 -39 q-63 0 -107.5 39t-44.5 96z" />
<glyph unicode="&#xc5;" horiz-adv-x="1513" d="M88 0l590 1434h166l581 -1434h-313l-102 262h-506l-103 -262h-313zM563 1731q0 78 57 135t136 57t136.5 -57t57.5 -135q0 -81 -57 -138t-137 -57t-136.5 57t-56.5 138zM602 530h309l-153 392zM692 1731q0 -28 18.5 -48t47.5 -20q27 0 46 20t19 48q0 27 -19 46t-46 19 q-29 0 -47.5 -19t-18.5 -46z" />
<glyph unicode="&#xc6;" horiz-adv-x="1818" d="M88 0l590 1434h1034v-267h-674v-313h621v-266h-621v-322h674v-266h-956v262h-252l-103 -262h-313zM602 530h154v388z" />
<glyph unicode="&#xc7;" horiz-adv-x="1497" d="M119 717q0 148 57.5 283.5t155 233.5t233 156t283.5 58q156 0 296.5 -63.5t244.5 -174.5l-185 -170q-145 142 -356 142q-190 0 -318.5 -131t-128.5 -334q0 -204 128.5 -334.5t318.5 -130.5q215 0 356 141l185 -170q-103 -111 -243.5 -174t-297.5 -63h-6l-19 -56 q26 12 56.5 9t56.5 -15t43.5 -42.5t17.5 -74.5q0 -61 -39 -100t-105 -40.5t-153 44.5v70q54 -28 94 -17t40 50q0 36 -27 47t-92 -15l51 144q-135 15 -255 78t-206 159t-136 223.5t-50 266.5z" />
<glyph unicode="&#xc8;" horiz-adv-x="1277" d="M215 0v1434h954v-267h-671v-313h620v-266h-620v-322h671v-266h-954zM385 1835h279l174 -299h-197z" />
<glyph unicode="&#xc9;" horiz-adv-x="1277" d="M215 0v1434h954v-267h-671v-313h620v-266h-620v-322h671v-266h-954zM518 1536l174 299h279l-256 -299h-197z" />
<glyph unicode="&#xca;" horiz-adv-x="1277" d="M215 0v1434h954v-267h-671v-313h620v-266h-620v-322h671v-266h-954zM379 1536l180 301h260l180 -301h-196l-113 106l-115 -106h-196z" />
<glyph unicode="&#xcb;" horiz-adv-x="1277" d="M215 0v1434h954v-267h-671v-313h620v-266h-620v-322h671v-266h-954zM315 1671q0 57 44.5 97t107.5 40q64 0 109 -40t45 -97t-44.5 -96t-109.5 -39q-63 0 -107.5 39t-44.5 96zM756 1671q0 57 44 97t107 40q64 0 109 -40t45 -97t-44.5 -96t-109.5 -39q-63 0 -107 39t-44 96 z" />
<glyph unicode="&#xcc;" horiz-adv-x="1058" d="M215 0v266h172v901h-172v267h627v-267h-172v-901h172v-266h-627zM244 1835h278l174 -299h-196z" />
<glyph unicode="&#xcd;" horiz-adv-x="1058" d="M215 0v266h172v901h-172v267h627v-267h-172v-901h172v-266h-627zM342 1536l174 299h279l-256 -299h-197z" />
<glyph unicode="&#xce;" horiz-adv-x="1097" d="M236 0v266h172v901h-172v267h626v-267h-172v-901h172v-266h-626zM244 1536l180 301h260l180 -301h-196l-113 106l-115 -106h-196z" />
<glyph unicode="&#xcf;" horiz-adv-x="1177" d="M215 1671q0 57 44.5 96t107.5 39q65 0 109 -39t44 -96t-44 -96t-109 -39q-63 0 -107.5 39t-44.5 96zM274 0v266h172v901h-172v267h627v-267h-172v-901h172v-266h-627zM657 1671q0 57 44.5 96t107.5 39q65 0 109.5 -39t44.5 -96t-44.5 -96t-109.5 -39q-63 0 -107.5 39 t-44.5 96z" />
<glyph unicode="&#xd0;" horiz-adv-x="1658" d="M215 637v162h100v635h498q200 0 366.5 -91.5t264.5 -256.5t98 -369q0 -154 -57.5 -288t-155.5 -227.5t-232 -147.5t-284 -54h-498v637h-100zM598 266h215q127 0 227 51t160 155t60 245q0 210 -126.5 330t-320.5 120h-215v-368h129v-162h-129v-371z" />
<glyph unicode="&#xd1;" horiz-adv-x="1517" d="M195 0v1434h165l680 -904v904h283v-1434h-168l-678 903v-903h-282zM444 1536l56 143q38 99 127 109q69 6 116 -31l84 -59q43 -27 74 -25q45 3 62 51l14 39h117l-56 -143q-40 -102 -129 -109q-61 -5 -114 31l-84 60q-41 27 -80 24q-38 -6 -56 -51l-14 -39h-117z" />
<glyph unicode="&#xd2;" horiz-adv-x="1697" d="M119 717q0 148 57.5 283.5t155 233.5t233 156t283.5 58t283.5 -58t233.5 -156t156 -233.5t58 -283.5q0 -200 -98 -368t-266.5 -265.5t-366.5 -97.5t-366 97.5t-265.5 265.5t-97.5 368zM401 717q0 -204 128.5 -334.5t318.5 -130.5q191 0 319.5 130.5t128.5 334.5 q0 203 -128.5 334t-319.5 131q-190 0 -318.5 -131t-128.5 -334zM551 1835h278l175 -299h-197z" />
<glyph unicode="&#xd3;" horiz-adv-x="1697" d="M119 717q0 148 57.5 283.5t155 233.5t233 156t283.5 58t283.5 -58t233.5 -156t156 -233.5t58 -283.5q0 -200 -98 -368t-266.5 -265.5t-366.5 -97.5t-366 97.5t-265.5 265.5t-97.5 368zM401 717q0 -204 128.5 -334.5t318.5 -130.5q191 0 319.5 130.5t128.5 334.5 q0 203 -128.5 334t-319.5 131q-190 0 -318.5 -131t-128.5 -334zM682 1536l174 299h279l-256 -299h-197z" />
<glyph unicode="&#xd4;" horiz-adv-x="1697" d="M119 717q0 148 57.5 283.5t155 233.5t233 156t283.5 58t283.5 -58t233.5 -156t156 -233.5t58 -283.5q0 -200 -98 -368t-266.5 -265.5t-366.5 -97.5t-366 97.5t-265.5 265.5t-97.5 368zM401 717q0 -204 128.5 -334.5t318.5 -130.5q191 0 319.5 130.5t128.5 334.5 q0 203 -128.5 334t-319.5 131q-190 0 -318.5 -131t-128.5 -334zM537 1536l180 301h260l180 -301h-196l-113 106l-115 -106h-196z" />
<glyph unicode="&#xd5;" horiz-adv-x="1697" d="M119 717q0 148 57.5 283.5t155 233.5t233 156t283.5 58t283.5 -58t233.5 -156t156 -233.5t58 -283.5q0 -200 -98 -368t-266.5 -265.5t-366.5 -97.5t-366 97.5t-265.5 265.5t-97.5 368zM401 717q0 -204 128.5 -334.5t318.5 -130.5q191 0 319.5 130.5t128.5 334.5 q0 203 -128.5 334t-319.5 131q-190 0 -318.5 -131t-128.5 -334zM524 1536l56 143q38 99 127 109q69 6 116 -31l84 -59q43 -27 74 -25q44 3 61 51l15 39h117l-56 -143q-40 -102 -129 -109q-62 -6 -115 31l-83 60q-41 27 -80 24q-38 -6 -56 -51l-14 -39h-117z" />
<glyph unicode="&#xd6;" horiz-adv-x="1697" d="M119 717q0 148 57.5 283.5t155 233.5t233 156t283.5 58t283.5 -58t233.5 -156t156 -233.5t58 -283.5q0 -200 -98 -368t-266.5 -265.5t-366.5 -97.5t-366 97.5t-265.5 265.5t-97.5 368zM401 717q0 -204 128.5 -334.5t318.5 -130.5q191 0 319.5 130.5t128.5 334.5 q0 203 -128.5 334t-319.5 131q-190 0 -318.5 -131t-128.5 -334zM475 1671q0 57 44.5 96t107.5 39q65 0 109 -39t44 -96t-44 -96t-109 -39q-63 0 -107.5 39t-44.5 96zM918 1671q0 57 44 96t107 39q65 0 109.5 -39t44.5 -96t-44.5 -96t-109.5 -39q-63 0 -107 39t-44 96z" />
<glyph unicode="&#xd7;" horiz-adv-x="940" d="M113 313l241 244l-241 242l114 114l242 -241l244 241l114 -114l-241 -242l241 -244l-114 -114l-244 241l-242 -241z" />
<glyph unicode="&#xd8;" horiz-adv-x="1697" d="M119 0l196 217q-196 209 -196 500q0 148 57.5 283.5t155 233.5t233 156t283.5 58q246 0 442 -150l121 136h168l-197 -217q93 -101 145 -229.5t52 -270.5q0 -200 -98 -368t-266.5 -265.5t-366.5 -97.5q-247 0 -442 149l-121 -135h-166zM401 717q0 -173 97 -297l612 680 q-114 82 -262 82q-190 0 -318.5 -131t-128.5 -334zM586 334q114 -82 262 -82q191 0 319.5 130.5t128.5 334.5q0 174 -96 297z" />
<glyph unicode="&#xd9;" horiz-adv-x="1572" d="M215 602v832h283v-826q0 -78 17 -139.5t45 -101.5t67 -66.5t81 -37.5t89 -11t89 11t81 37.5t67 66.5t45 101.5t17 139.5v826h282v-832q0 -150 -48 -270t-130 -194t-185 -113t-218 -39q-116 0 -219 39t-185 113t-130 194t-48 270zM510 1835h278l175 -299h-197z" />
<glyph unicode="&#xda;" horiz-adv-x="1572" d="M215 602v832h283v-826q0 -78 17 -139.5t45 -101.5t67 -66.5t81 -37.5t89 -11t89 11t81 37.5t67 66.5t45 101.5t17 139.5v826h282v-832q0 -150 -48 -270t-130 -194t-185 -113t-218 -39q-116 0 -219 39t-185 113t-130 194t-48 270zM621 1536l174 299h278l-256 -299h-196z " />
<glyph unicode="&#xdb;" horiz-adv-x="1572" d="M215 602v832h283v-826q0 -78 17 -139.5t45 -101.5t67 -66.5t81 -37.5t89 -11t89 11t81 37.5t67 66.5t45 101.5t17 139.5v826h282v-832q0 -150 -48 -270t-130 -194t-185 -113t-218 -39q-116 0 -219 39t-185 113t-130 194t-48 270zM485 1536l181 301h260l180 -301h-197 l-112 106l-115 -106h-197z" />
<glyph unicode="&#xdc;" horiz-adv-x="1572" d="M215 602v832h283v-826q0 -78 17 -139.5t45 -101.5t67 -66.5t81 -37.5t89 -11t89 11t81 37.5t67 66.5t45 101.5t17 139.5v826h282v-832q0 -150 -48 -270t-130 -194t-185 -113t-218 -39q-116 0 -219 39t-185 113t-130 194t-48 270zM424 1671q0 57 44 96t107 39 q65 0 109.5 -39t44.5 -96t-44.5 -96t-109.5 -39q-63 0 -107 39t-44 96zM866 1671q0 57 44.5 96t107.5 39q65 0 109 -39t44 -96t-44 -96t-109 -39q-63 0 -107.5 39t-44.5 96z" />
<glyph unicode="&#xdd;" horiz-adv-x="1478" d="M88 1434h322l331 -607l330 607h322l-512 -955v-479h-283v479zM563 1536l174 299h279l-256 -299h-197z" />
<glyph unicode="&#xde;" horiz-adv-x="1443" d="M215 0v1434h283v-146h188q294 0 466.5 -155.5t172.5 -397.5q0 -118 -44 -219t-124.5 -174.5t-202 -115.5t-268.5 -42h-188v-184h-283zM498 451h211q95 0 171.5 28t126.5 94t50 162q0 94 -50 160.5t-127 96.5t-171 30h-211v-571z" />
<glyph unicode="&#xdf;" horiz-adv-x="1341" d="M174 0v1049q0 49 11 98t43.5 105t83.5 98.5t139.5 70.5t201.5 27h62q111 0 198 -26.5t137.5 -67t82.5 -94t43.5 -101.5t11.5 -96q0 -118 -53 -206t-140 -122q109 -26 173.5 -117t64.5 -217q0 -71 -18 -131.5t-58 -113t-101 -89.5t-151.5 -58.5t-204.5 -22.5h-155v266h157 q263 0 263 180q0 75 -50 124.5t-153 49.5h-152v264h123q104 0 146.5 45.5t42.5 108.5q0 75 -52 116.5t-155 41.5h-72q-101 0 -151 -47t-50 -125v-1010h-268z" />
<glyph unicode="&#xe0;" d="M113 512q0 144 63.5 264.5t178.5 191t257 70.5q104 0 193 -42.5t147 -116.5l15 145h174v-1024h-174l-15 145q-58 -73 -147 -115t-193 -42q-143 0 -257.5 70t-178 190t-63.5 264zM373 512q0 -121 78.5 -196.5t185.5 -75.5q106 0 185 75.5t79 196.5t-79 197.5t-185 76.5 q-107 0 -185.5 -76t-78.5 -198zM381 1415h278l175 -299h-197z" />
<glyph unicode="&#xe1;" d="M113 512q0 144 63.5 264.5t178.5 191t257 70.5q104 0 193 -42.5t147 -116.5l15 145h174v-1024h-174l-15 145q-58 -73 -147 -115t-193 -42q-143 0 -257.5 70t-178 190t-63.5 264zM373 512q0 -121 78.5 -196.5t185.5 -75.5q106 0 185 75.5t79 196.5t-79 197.5t-185 76.5 q-107 0 -185.5 -76t-78.5 -198zM485 1116l174 299h279l-256 -299h-197z" />
<glyph unicode="&#xe2;" d="M113 512q0 144 63.5 264.5t178.5 191t257 70.5q104 0 193 -42.5t147 -116.5l15 145h174v-1024h-174l-15 145q-58 -73 -147 -115t-193 -42q-143 0 -257.5 70t-178 190t-63.5 264zM328 1116l180 299h260l180 -299h-196l-113 107l-115 -107h-196zM373 512 q0 -121 78.5 -196.5t185.5 -75.5q106 0 185 75.5t79 196.5t-79 197.5t-185 76.5q-107 0 -185.5 -76t-78.5 -198z" />
<glyph unicode="&#xe3;" d="M113 512q0 144 63.5 264.5t178.5 191t257 70.5q104 0 193 -42.5t147 -116.5l15 145h174v-1024h-174l-15 145q-58 -73 -147 -115t-193 -42q-143 0 -257.5 70t-178 190t-63.5 264zM326 1116l55 141q39 102 127 109q63 8 117 -29l84 -59q43 -27 73 -25q44 0 62 52l14 36h117 l-55 -141q-38 -100 -129 -110q-63 -6 -115 30l-84 62q-46 27 -80 22q-37 -3 -55 -51l-15 -37h-116zM373 512q0 -121 78.5 -196.5t185.5 -75.5q106 0 185 75.5t79 196.5t-79 197.5t-185 76.5q-107 0 -185.5 -76t-78.5 -198z" />
<glyph unicode="&#xe4;" d="M113 512q0 144 63.5 264.5t178.5 191t257 70.5q104 0 193 -42.5t147 -116.5l15 145h174v-1024h-174l-15 145q-58 -73 -147 -115t-193 -42q-143 0 -257.5 70t-178 190t-63.5 264zM264 1251q0 57 44.5 96t107.5 39q65 0 109 -39t44 -96t-44 -96t-109 -39q-63 0 -107.5 39 t-44.5 96zM373 512q0 -121 78.5 -196.5t185.5 -75.5q106 0 185 75.5t79 196.5t-79 197.5t-185 76.5q-107 0 -185.5 -76t-78.5 -198zM707 1251q0 57 44 96t107 39q65 0 109.5 -39t44.5 -96t-44.5 -96t-109.5 -39q-63 0 -107 39t-44 96z" />
<glyph unicode="&#xe5;" d="M113 512q0 144 63.5 264.5t178.5 191t257 70.5q104 0 193 -42.5t147 -116.5l15 145h174v-1024h-174l-15 145q-58 -73 -147 -115t-193 -42q-143 0 -257.5 70t-178 190t-63.5 264zM373 512q0 -121 78.5 -196.5t185.5 -75.5q106 0 185 75.5t79 196.5t-79 197.5t-185 76.5 q-107 0 -185.5 -76t-78.5 -198zM444 1309q0 80 57 137t136 57t136.5 -57.5t57.5 -136.5t-57 -136t-137 -57q-79 0 -136 57t-57 136zM571 1309q0 -28 18.5 -48t47.5 -20q27 0 46 20t19 48t-18.5 47.5t-46.5 19.5q-29 0 -47.5 -19.5t-18.5 -47.5z" />
<glyph unicode="&#xe6;" horiz-adv-x="2009" d="M113 512q0 144 63.5 264.5t178.5 191t257 70.5q104 0 193 -42.5t147 -116.5l15 145h174v-94q108 108 278 108q160 0 275.5 -72.5t173.5 -203.5q33 -69 36.5 -163.5t-20.5 -158.5h-715q0 -100 73.5 -157.5t182.5 -57.5q167 0 308 72l137 -150q-211 -159 -445 -159 q-179 0 -284 108v-96h-174l-15 145q-58 -73 -147 -115t-193 -42q-143 0 -257.5 70t-178 190t-63.5 264zM373 512q0 -121 78.5 -196.5t185.5 -75.5q106 0 185 75.5t79 196.5t-79 197.5t-185 76.5q-107 0 -185.5 -76t-78.5 -198zM1182 604h469q0 43 -25 82q-27 52 -81.5 83.5 t-125.5 31.5q-100 0 -167 -60t-70 -137z" />
<glyph unicode="&#xe7;" horiz-adv-x="1144" d="M113 512q0 143 70 263.5t190.5 190.5t263.5 70q119 0 224.5 -50t178.5 -138l-155 -168q-61 57 -119.5 80.5t-128.5 23.5q-107 0 -185.5 -75.5t-78.5 -196.5t78.5 -196.5t185.5 -75.5q70 0 128.5 23.5t119.5 80.5l155 -168q-72 -86 -175.5 -136.5t-221.5 -51.5l-18 -58 q26 12 56.5 9t56.5 -15t43.5 -42.5t17.5 -74.5q0 -61 -39 -100t-105 -40.5t-153 44.5v70q54 -28 93.5 -17t39.5 50q0 36 -27.5 47t-91.5 -15l53 146q-195 25 -325.5 172.5t-130.5 347.5z" />
<glyph unicode="&#xe8;" horiz-adv-x="1218" d="M113 512q0 224 141.5 375t374.5 151q161 0 275.5 -72t174.5 -204q31 -69 35.5 -163.5t-18.5 -158.5h-715q0 -101 72.5 -158t181.5 -57q168 0 309 72l137 -150q-215 -159 -446 -159t-376.5 148.5t-145.5 375.5zM348 1415h279l174 -299h-197zM391 604h469q0 44 -24 82 q-27 52 -81.5 83.5t-125.5 31.5q-100 0 -167.5 -60t-70.5 -137z" />
<glyph unicode="&#xe9;" horiz-adv-x="1218" d="M113 512q0 224 141.5 375t374.5 151q161 0 275.5 -72t174.5 -204q31 -69 35.5 -163.5t-18.5 -158.5h-715q0 -101 72.5 -158t181.5 -57q168 0 309 72l137 -150q-215 -159 -446 -159t-376.5 148.5t-145.5 375.5zM391 604h469q0 44 -24 82q-27 52 -81.5 83.5t-125.5 31.5 q-100 0 -167.5 -60t-70.5 -137zM469 1116l174 299h279l-256 -299h-197z" />
<glyph unicode="&#xea;" horiz-adv-x="1218" d="M113 512q0 224 141.5 375t374.5 151q161 0 275.5 -72t174.5 -204q31 -69 35.5 -163.5t-18.5 -158.5h-715q0 -101 72.5 -158t181.5 -57q168 0 309 72l137 -150q-215 -159 -446 -159t-376.5 148.5t-145.5 375.5zM319 1116l181 299h260l180 -301h-197l-112 109l-115 -107 h-197zM391 604h469q0 44 -24 82q-27 52 -81.5 83.5t-125.5 31.5q-100 0 -167.5 -60t-70.5 -137z" />
<glyph unicode="&#xeb;" horiz-adv-x="1218" d="M113 512q0 224 141.5 375t374.5 151q161 0 275.5 -72t174.5 -204q31 -69 35.5 -163.5t-18.5 -158.5h-715q0 -101 72.5 -158t181.5 -57q168 0 309 72l137 -150q-215 -159 -446 -159t-376.5 148.5t-145.5 375.5zM260 1251q0 57 44.5 96t107.5 39q65 0 109 -39t44 -96 t-44 -96t-109 -39q-63 0 -107.5 39t-44.5 96zM391 604h469q0 44 -24 82q-27 52 -81.5 83.5t-125.5 31.5q-100 0 -167.5 -60t-70.5 -137zM700 1251q0 57 44.5 96t107.5 39q65 0 109.5 -39t44.5 -96t-44.5 -96t-109.5 -39q-63 0 -107.5 39t-44.5 96z" />
<glyph unicode="&#xec;" horiz-adv-x="813" d="M184 1415h279l176 -299h-199zM358 0v1024h260v-1024h-260z" />
<glyph unicode="&#xed;" horiz-adv-x="813" d="M184 1116l174 299h279l-256 -299h-197zM219 0v1024h260v-1024h-260z" />
<glyph unicode="&#xee;" horiz-adv-x="980" d="M184 1116l181 299h260l180 -299h-197l-112 107l-115 -107h-197zM365 0v1024h260v-1024h-260z" />
<glyph unicode="&#xef;" horiz-adv-x="1105" d="M184 1251q0 57 44.5 96t107.5 39q65 0 109 -39t44 -96t-44 -96t-109 -39q-63 0 -107.5 39t-44.5 96zM430 0v1024h260v-1024h-260zM627 1251q0 57 44 96t107 39q65 0 109.5 -39t44.5 -96t-44.5 -96t-109.5 -39q-63 0 -107 39t-44 96z" />
<glyph unicode="&#xf0;" horiz-adv-x="1337" d="M113 494q0 138 57.5 250.5t167.5 179.5t252 67q100 0 185 -45t128 -119v115q0 93 -29 162l-108 -96l-88 96l106 96q-60 29 -135 29q-147 0 -305 -82l-147 160q192 159 452 159q186 0 322 -102l78 70l88 -99l-74 -65q100 -133 100 -328v-407q0 -124 -40.5 -228 t-111 -174.5t-166.5 -109.5t-206 -39q-156 0 -277.5 70t-185 185.5t-63.5 254.5zM375 494q0 -112 79 -185t185 -73q109 0 186.5 72.5t77.5 185.5q0 111 -79 184.5t-185 73.5q-105 0 -184.5 -73.5t-79.5 -184.5z" />
<glyph unicode="&#xf1;" horiz-adv-x="1331" d="M174 0v1024h174l19 -160q52 85 144 129.5t208 44.5q216 0 331 -134t115 -363v-541h-260v524q0 262 -227 262q-116 0 -180 -70t-64 -214v-502h-260zM348 1116l55 141q39 102 127 109q63 8 117 -29l84 -59q43 -27 74 -25q43 0 61 52l15 36h116l-55 -141q-38 -100 -129 -110 q-63 -6 -115 30l-84 62q-46 27 -79 22q-38 -3 -56 -51l-14 -37h-117z" />
<glyph unicode="&#xf2;" horiz-adv-x="1275" d="M113 512q0 143 70 264t190.5 191.5t263.5 70.5t264 -70.5t191.5 -191.5t70.5 -264t-70.5 -263.5t-191.5 -190.5t-264 -70t-263.5 70t-190.5 190.5t-70 263.5zM336 1415h278l174 -299h-196zM373 512q0 -121 78.5 -196.5t185.5 -75.5q106 0 185 75.5t79 196.5t-79 197.5 t-185 76.5q-107 0 -185.5 -76t-78.5 -198z" />
<glyph unicode="&#xf3;" horiz-adv-x="1275" d="M113 512q0 143 70 264t190.5 191.5t263.5 70.5t264 -70.5t191.5 -191.5t70.5 -264t-70.5 -263.5t-191.5 -190.5t-264 -70t-263.5 70t-190.5 190.5t-70 263.5zM373 512q0 -121 78.5 -196.5t185.5 -75.5q106 0 185 75.5t79 196.5t-79 197.5t-185 76.5q-107 0 -185.5 -76 t-78.5 -198zM457 1116l174 299h278l-256 -299h-196z" />
<glyph unicode="&#xf4;" horiz-adv-x="1275" d="M113 512q0 143 70 264t190.5 191.5t263.5 70.5t264 -70.5t191.5 -191.5t70.5 -264t-70.5 -263.5t-191.5 -190.5t-264 -70t-263.5 70t-190.5 190.5t-70 263.5zM328 1114l180 301h260l180 -299h-196l-113 107l-115 -109h-196zM373 512q0 -121 78.5 -196.5t185.5 -75.5 q106 0 185 75.5t79 196.5t-79 197.5t-185 76.5q-107 0 -185.5 -76t-78.5 -198z" />
<glyph unicode="&#xf5;" horiz-adv-x="1275" d="M113 512q0 143 70 264t190.5 191.5t263.5 70.5t264 -70.5t191.5 -191.5t70.5 -264t-70.5 -263.5t-191.5 -190.5t-264 -70t-263.5 70t-190.5 190.5t-70 263.5zM311 1116l56 141q39 102 127 109q62 8 116 -29l84 -59q43 -27 74 -25q43 0 61 52l15 36h117l-56 -141 q-38 -100 -129 -110q-62 -6 -114 30l-84 62q-46 27 -80 22q-38 -3 -56 -51l-14 -37h-117zM373 512q0 -121 78.5 -196.5t185.5 -75.5q106 0 185 75.5t79 196.5t-79 197.5t-185 76.5q-107 0 -185.5 -76t-78.5 -198z" />
<glyph unicode="&#xf6;" horiz-adv-x="1275" d="M113 512q0 143 70 264t190.5 191.5t263.5 70.5t264 -70.5t191.5 -191.5t70.5 -264t-70.5 -263.5t-191.5 -190.5t-264 -70t-263.5 70t-190.5 190.5t-70 263.5zM266 1251q0 57 44.5 96t107.5 39q65 0 109 -39t44 -96t-44 -96t-109 -39q-63 0 -107.5 39t-44.5 96zM373 512 q0 -121 78.5 -196.5t185.5 -75.5q106 0 185 75.5t79 196.5t-79 197.5t-185 76.5q-107 0 -185.5 -76t-78.5 -198zM709 1251q0 57 44 96t107 39q65 0 109.5 -39t44.5 -96t-44.5 -96t-109.5 -39q-63 0 -107 39t-44 96z" />
<glyph unicode="&#xf7;" horiz-adv-x="1075" d="M113 449v159h848v-159h-848zM383 182q0 58 45 97.5t111 39.5q65 0 109 -39.5t44 -97.5t-44 -97.5t-109 -39.5q-66 0 -111 39.5t-45 97.5zM383 870q0 58 45 98t111 40q65 0 109 -40t44 -98q0 -59 -44.5 -99t-108.5 -40q-66 0 -111 40t-45 99z" />
<glyph unicode="&#xf8;" horiz-adv-x="1275" d="M113 0l137 158q-137 150 -137 354q0 143 70 264t190.5 191.5t263.5 70.5q160 0 293 -90l65 76h168l-137 -158q137 -150 137 -354q0 -143 -70.5 -263.5t-191.5 -190.5t-264 -70q-159 0 -293 88l-65 -76h-166zM373 512q0 -91 45 -158l344 400q-59 32 -125 32 q-107 0 -185.5 -76t-78.5 -198zM512 270q58 -30 125 -30q106 0 185 75.5t79 196.5q0 92 -45 156z" />
<glyph unicode="&#xf9;" horiz-adv-x="1320" d="M164 483v541h260v-524q0 -262 229 -262q114 0 178 70.5t64 213.5v502h260v-1024h-174l-18 160q-52 -85 -143.5 -129.5t-207.5 -44.5q-218 0 -333 134t-115 363zM344 1415h279l174 -299h-197z" />
<glyph unicode="&#xfa;" horiz-adv-x="1320" d="M164 483v541h260v-524q0 -262 229 -262q114 0 178 70.5t64 213.5v502h260v-1024h-174l-18 160q-52 -85 -143.5 -129.5t-207.5 -44.5q-218 0 -333 134t-115 363zM449 1116l174 299h278l-256 -299h-196z" />
<glyph unicode="&#xfb;" horiz-adv-x="1320" d="M164 483v541h260v-524q0 -262 229 -262q114 0 178 70.5t64 213.5v502h260v-1024h-174l-18 160q-52 -85 -143.5 -129.5t-207.5 -44.5q-218 0 -333 134t-115 363zM342 1116l180 299h260l181 -299h-197l-113 107l-114 -107h-197z" />
<glyph unicode="&#xfc;" horiz-adv-x="1320" d="M164 483v541h260v-524q0 -262 229 -262q114 0 178 70.5t64 213.5v502h260v-1024h-174l-18 160q-52 -85 -143.5 -129.5t-207.5 -44.5q-218 0 -333 134t-115 363zM287 1251q0 57 44 96t107 39q65 0 109.5 -39t44.5 -96t-44.5 -96t-109.5 -39q-63 0 -107 39t-44 96z M727 1251q0 57 44.5 96t107.5 39q65 0 109 -39t44 -96t-44 -96t-109 -39q-63 0 -107.5 39t-44.5 96z" />
<glyph unicode="&#xfd;" horiz-adv-x="1331" d="M174 516v508h260v-494q0 -262 230 -262q114 0 177.5 70.5t63.5 214.5v471h260v-893q0 -112 -36 -208t-101 -165.5t-161.5 -109t-213.5 -39.5q-261 0 -454 160l147 157q82 -41 153.5 -61t153.5 -19q114 0 182 58.5t68 167.5v65q-47 -60 -121.5 -90.5t-158.5 -30.5 q-217 0 -333 135.5t-116 364.5zM461 1116l174 299h278l-256 -299h-196z" />
<glyph unicode="&#xfe;" horiz-adv-x="1318" d="M178 -377v1811h260v-512q46 53 117.5 83.5t153.5 30.5q142 0 256.5 -70t177.5 -189.5t63 -264.5q0 -221 -141 -373.5t-356 -152.5q-81 0 -152.5 31t-118.5 83v-477h-260zM418 512q0 -121 79 -197.5t185 -76.5q107 0 185.5 76t78.5 198q0 121 -78.5 196.5t-185.5 75.5 q-106 0 -185 -75.5t-79 -196.5z" />
<glyph unicode="&#xff;" horiz-adv-x="1331" d="M174 516v508h260v-494q0 -262 230 -262q114 0 177.5 70.5t63.5 214.5v471h260v-893q0 -112 -36 -208t-101 -165.5t-161.5 -109t-213.5 -39.5q-261 0 -454 160l147 157q82 -41 153.5 -61t153.5 -19q114 0 182 58.5t68 167.5v65q-47 -60 -121.5 -90.5t-158.5 -30.5 q-217 0 -333 135.5t-116 364.5zM293 1251q0 57 44 96t107 39q65 0 109.5 -39t44.5 -96t-44.5 -96t-109.5 -39q-63 0 -107 39t-44 96zM735 1251q0 57 44.5 96t107.5 39q65 0 109 -39t44 -96t-44 -96t-109 -39q-63 0 -107.5 39t-44.5 96z" />
<glyph unicode="&#x152;" horiz-adv-x="2359" d="M119 717q0 148 57.5 283.5t155 233.5t233 156t283.5 58q132 0 250 -54t198 -145v185h955v-267h-672v-313h621v-266h-621v-322h672v-266h-955v184q-80 -91 -198 -144.5t-250 -53.5q-198 0 -366 97.5t-265.5 265.5t-97.5 368zM401 717q0 -204 128.5 -334.5t318.5 -130.5 q191 0 319.5 130.5t128.5 334.5q0 203 -128.5 334t-319.5 131q-190 0 -318.5 -131t-128.5 -334z" />
<glyph unicode="&#x153;" horiz-adv-x="2007" d="M113 512q0 143 70 264t190.5 191.5t263.5 70.5q118 0 220.5 -52.5t166.5 -141.5q62 90 164 142t231 52q160 0 274.5 -72.5t174.5 -203.5q32 -69 36 -163t-20 -159h-715q0 -101 73 -158t183 -57q167 0 308 72l137 -150q-215 -159 -445 -159q-130 0 -233.5 51t-165.5 143 q-64 -89 -167 -141.5t-222 -52.5q-143 0 -263.5 70t-190.5 190.5t-70 263.5zM373 512q0 -121 78.5 -196.5t185.5 -75.5q106 0 185 75.5t79 196.5t-79 197.5t-185 76.5q-107 0 -185.5 -76t-78.5 -198zM1180 604h469q0 43 -25 82q-27 52 -81.5 83.5t-125.5 31.5 q-100 0 -167 -60t-70 -137z" />
<glyph unicode="&#x178;" horiz-adv-x="1478" d="M88 1434h322l331 -607l330 607h322l-512 -955v-479h-283v479zM367 1671q0 57 44 96t107 39q65 0 109.5 -39t44.5 -96t-44.5 -96t-109.5 -39q-63 0 -107 39t-44 96zM807 1671q0 57 44 96t107 39q65 0 109.5 -39t44.5 -96t-44.5 -96t-109.5 -39q-63 0 -107 39t-44 96z" />
<glyph unicode="&#x2c6;" horiz-adv-x="847" d="M113 1208l180 301h260l180 -301h-196l-113 107l-115 -107h-196z" />
<glyph unicode="&#x2dc;" horiz-adv-x="876" d="M113 1206l55 144q38 98 127 108q67 9 117 -31l84 -59q39 -25 73 -25q44 3 62 52l14 39h117l-55 -142q-38 -100 -129 -110q-63 -6 -115 30l-84 60q-41 27 -80 24q-37 -6 -55 -51l-15 -39h-116z" />
<glyph unicode="&#x2000;" horiz-adv-x="961" />
<glyph unicode="&#x2001;" horiz-adv-x="1923" />
<glyph unicode="&#x2002;" horiz-adv-x="961" />
<glyph unicode="&#x2003;" horiz-adv-x="1923" />
<glyph unicode="&#x2004;" horiz-adv-x="641" />
<glyph unicode="&#x2005;" horiz-adv-x="480" />
<glyph unicode="&#x2006;" horiz-adv-x="320" />
<glyph unicode="&#x2007;" horiz-adv-x="320" />
<glyph unicode="&#x2008;" horiz-adv-x="240" />
<glyph unicode="&#x2009;" horiz-adv-x="384" />
<glyph unicode="&#x200a;" horiz-adv-x="106" />
<glyph unicode="&#x2010;" horiz-adv-x="735" d="M113 510v162h508v-162h-508z" />
<glyph unicode="&#x2011;" horiz-adv-x="735" d="M113 510v162h508v-162h-508z" />
<glyph unicode="&#x2012;" horiz-adv-x="735" d="M113 510v162h508v-162h-508z" />
<glyph unicode="&#x2013;" horiz-adv-x="989" d="M113 510v162h761v-162h-761z" />
<glyph unicode="&#x2014;" horiz-adv-x="1333" d="M113 510v162h1106v-162h-1106z" />
<glyph unicode="&#x2018;" horiz-adv-x="673" d="M113 877l256 557h190l-172 -557h-274z" />
<glyph unicode="&#x2019;" horiz-adv-x="673" d="M113 877l172 557h274l-256 -557h-190z" />
<glyph unicode="&#x201a;" horiz-adv-x="673" d="M113 -295l172 557h274l-256 -557h-190z" />
<glyph unicode="&#x201c;" horiz-adv-x="1028" d="M113 877l256 557h190l-172 -557h-274zM469 877l256 557h190l-172 -557h-274z" />
<glyph unicode="&#x201d;" horiz-adv-x="1028" d="M113 877l172 557h274l-256 -557h-190zM469 877l172 557h274l-256 -557h-190z" />
<glyph unicode="&#x201e;" horiz-adv-x="1028" d="M113 -295l172 557h274l-256 -557h-190zM469 -295l172 557h274l-256 -557h-190z" />
<glyph unicode="&#x2022;" horiz-adv-x="862" d="M113 600q0 132 92.5 225t224.5 93q133 0 226.5 -93t93.5 -225t-93.5 -224.5t-226.5 -92.5q-132 0 -224.5 92.5t-92.5 224.5z" />
<glyph unicode="&#x2026;" horiz-adv-x="1519" d="M113 123q0 59 44.5 99t110.5 40q65 0 109.5 -40.5t44.5 -98.5q0 -57 -45 -97t-109 -40q-66 0 -110.5 40t-44.5 97zM604 123q0 59 45 99t111 40q64 0 108.5 -40t44.5 -99q0 -57 -44.5 -97t-108.5 -40q-66 0 -111 40t-45 97zM1098 123q0 59 44.5 99t110.5 40 q65 0 109.5 -40.5t44.5 -98.5q0 -57 -45 -97t-109 -40q-66 0 -110.5 40t-44.5 97z" />
<glyph unicode="&#x202f;" horiz-adv-x="384" />
<glyph unicode="&#x2039;" horiz-adv-x="630" d="M113 528l405 379v-229l-166 -150l166 -147v-229z" />
<glyph unicode="&#x203a;" horiz-adv-x="630" d="M113 152v229l166 147l-166 150v229l405 -379z" />
<glyph unicode="&#x205f;" horiz-adv-x="480" />
<glyph unicode="&#x20ac;" horiz-adv-x="1640" d="M113 502v162h147q-2 18 -2 53q0 39 2 57h-147v162h178q72 226 262.5 369t433.5 143q156 0 296.5 -63.5t244.5 -174.5l-185 -170q-145 142 -356 142q-131 0 -237 -65.5t-162 -180.5h481l-43 -162h-483q-2 -18 -2 -57q0 -37 2 -53h409l-43 -162h-323q56 -116 162 -183 t239 -67q215 0 356 141l185 -170q-103 -111 -243.5 -174t-297.5 -63q-243 0 -435.5 144.5t-260.5 371.5h-178z" />
<glyph unicode="&#x2122;" horiz-adv-x="1533" d="M113 1274v160h561v-160h-199v-475h-166v475h-196zM733 799v635h107l237 -273l238 273h106v-635h-166v366l-178 -202l-178 202v-366h-166z" />
<glyph unicode="&#x25fc;" horiz-adv-x="1024" d="M0 0v1024h1024v-1024h-1024z" />
</font>
</defs>
</svg>
