<?xml version="1.0" standalone="no"?>
<!DOCTYPE svg PUBLIC "-//W3C//DTD SVG 1.1//EN" "http://www.w3.org/Graphics/SVG/1.1/DTD/svg11.dtd" >
<svg xmlns="http://www.w3.org/2000/svg" xmlns:xlink="http://www.w3.org/1999/xlink" version="1.1">
<metadata></metadata>
<defs>
<font id="acromthin" horiz-adv-x="1400" >
<font-face units-per-em="2048" ascent="1536" descent="-512" />
<missing-glyph horiz-adv-x="612" />
<glyph horiz-adv-x="0" />
<glyph horiz-adv-x="682" />
<glyph unicode=" "  horiz-adv-x="612" />
<glyph unicode="&#x09;" horiz-adv-x="612" />
<glyph unicode="&#xa0;" horiz-adv-x="612" />
<glyph unicode="!" horiz-adv-x="370" d="M143 27q0 17 12 29t29 12t29 -12t12 -29t-12 -29t-29 -12t-29 12t-12 29zM166 758v676h37v-676l-10 -467h-17z" />
<glyph unicode="&#x22;" horiz-adv-x="471" d="M143 1434h39l-10 -285h-18zM289 1434h39l-11 -285h-18z" />
<glyph unicode="#" horiz-adv-x="1439" d="M143 479l9 39h315l76 354h-316l9 37h315l111 525h38l-110 -525h338l112 525h39l-112 -525h329l-8 -37h-330l-73 -354h329l-8 -39h-329l-103 -479h-39l103 479h-338l-105 -479h-39l105 479h-318zM508 518h340l74 354h-340z" />
<glyph unicode="$" horiz-adv-x="1345" d="M143 322l25 20q48 -145 170 -229t307 -93v728l-51 6q-222 32 -317 109t-95 214q0 109 67 195.5t170.5 131t219.5 44.5h6v88h39v-88q151 -3 274 -65t189 -175l-25 -22q-65 108 -180 167t-258 62v-639l104 -14q214 -28 313 -118t99 -259q0 -118 -71 -210.5t-184 -140.5 t-243 -48h-10h-8v-99h-39v101q-193 9 -323.5 97t-178.5 237zM219 1077q0 -123 83.5 -192t291.5 -97l51 -6v633h-6q-109 0 -203.5 -39t-155.5 -118t-61 -181zM684 18h8h10q122 0 226 43t169.5 128.5t65.5 195.5q0 153 -88 234.5t-284 107.5l-107 14v-723z" />
<glyph unicode="%" horiz-adv-x="1669" d="M143 1108q0 141 99.5 240.5t240.5 99.5t240.5 -99.5t99.5 -240.5t-99.5 -240.5t-240.5 -99.5t-240.5 99.5t-99.5 240.5zM184 1108q0 -134 83.5 -218.5t217.5 -84.5t217.5 84.5t83.5 218.5t-83.5 218.5t-217.5 84.5t-217.5 -84.5t-83.5 -218.5zM362 0l893 1434h48 l-893 -1434h-48zM844 326q0 141 99.5 240.5t240.5 99.5t240.5 -99.5t99.5 -240.5t-99.5 -240.5t-240.5 -99.5t-240.5 99.5t-99.5 240.5zM885 326q0 -134 83.5 -218.5t217.5 -84.5t217.5 84.5t83.5 218.5t-83.5 219.5t-217.5 85.5t-217.5 -85.5t-83.5 -219.5z" />
<glyph unicode="&#x26;" horiz-adv-x="1382" d="M143 391q0 141 75.5 236.5t205.5 138.5l-117 119q-82 85 -82 219q0 88 36 156t96.5 108t132 60t149.5 20h8q75 -2 145 -22t129 -58t94.5 -102t35.5 -146v-14h-37q0 79 -33 140.5t-88 97t-119.5 53.5t-134.5 18q-71 0 -135.5 -18t-119 -53.5t-87.5 -97.5t-33 -142 q0 -124 80 -201l698 -704q52 80 52 190h39q0 -127 -64 -219l170 -170h-55l-137 139q-65 -75 -171 -114t-239 -39h-12q-214 3 -348 109t-134 296zM182 391q0 -119 60 -204t162 -126t235 -41q258 0 383 146l-567 571q-127 -36 -200 -125t-73 -221z" />
<glyph unicode="'" horiz-adv-x="325" d="M143 1434h39l-10 -285h-18z" />
<glyph unicode="(" horiz-adv-x="774" d="M143 612v15q2 159 47.5 309.5t117 262t154.5 192t167 118.5v-34q-77 -39 -154 -118t-143 -186.5t-108 -250t-44 -291.5v-17q0 -151 41 -295t107.5 -253t143.5 -189.5t157 -126.5v-35q-68 35 -135 93.5t-130.5 143t-112.5 184t-78.5 224t-29.5 254.5z" />
<glyph unicode=")" horiz-adv-x="774" d="M143 -252q80 46 157 126.5t143.5 189.5t107.5 253t41 295v17q-2 149 -44 291.5t-108 250t-143 186.5t-154 118v34q84 -38 167 -118.5t154.5 -192t117 -262t47.5 -309.5v-15q0 -130 -29.5 -254.5t-78.5 -224t-112.5 -184t-130.5 -143t-135 -93.5v35z" />
<glyph unicode="*" horiz-adv-x="882" d="M143 1237l13 37l264 -86l2 278h39v-278l264 86l12 -37l-264 -88l164 -225l-33 -23l-164 225l-164 -225l-30 23l162 225z" />
<glyph unicode="+" horiz-adv-x="1136" d="M143 623v34h406v408h37v-408h405v-34h-405v-406h-37v406h-406z" />
<glyph unicode="," horiz-adv-x="421" d="M143 -188l72 256h61l-110 -256h-23z" />
<glyph unicode="-" horiz-adv-x="796" d="M143 573v39h508v-39h-508z" />
<glyph unicode="." horiz-adv-x="370" d="M143 27q0 17 12 29t29 12t29 -12t12 -29t-12 -29t-29 -12t-29 12t-12 29z" />
<glyph unicode="/" horiz-adv-x="974" d="M143 0l648 1434h38l-647 -1434h-39z" />
<glyph unicode="0" horiz-adv-x="1761" d="M164 702q0 146 56.5 278.5t152.5 228.5t228.5 153t277.5 57t278 -57t228.5 -153t152.5 -228.5t57 -278.5q0 -195 -96 -360t-261 -260.5t-359 -95.5q-146 0 -278 56.5t-228 152t-152.5 228.5t-56.5 279zM203 702q0 -140 53.5 -266.5t143.5 -217.5t215.5 -144.5 t263.5 -53.5q186 0 342 90.5t247 247.5t91 344q0 140 -53.5 266t-144.5 217.5t-217 145t-265 53.5q-185 0 -340.5 -91t-245.5 -248t-90 -343z" />
<glyph unicode="1" horiz-adv-x="630" d="M102 1083l271 320h10v-1403h-37v1315l-213 -256z" />
<glyph unicode="2" horiz-adv-x="1288" d="M123 0v12l670 594q173 155 232.5 244.5t59.5 198.5q0 102 -61.5 180t-155.5 116.5t-202 38.5h-27q-151 0 -272 -58.5t-187 -168.5l-24 21q68 116 196 177.5t287 61.5h27q116 0 219 -43.5t170 -130t67 -196.5q0 -121 -69.5 -220t-261.5 -268l-594 -526h968v-33h-1042z" />
<glyph unicode="3" horiz-adv-x="1296" d="M123 322l24 20q52 -153 186.5 -238.5t336.5 -85.5h10q201 5 328 125.5t127 325.5q0 172 -110 266t-345 94q-155 0 -272 -57l-31 23l682 575h-813v33h891v-10l-662 -555q85 25 227 28q228 0 348.5 -108.5t120.5 -286.5q0 -216 -138 -348t-351 -137h-23q-207 3 -345.5 91.5 t-190.5 244.5z" />
<glyph unicode="4" horiz-adv-x="1292" d="M102 332v10l891 1061h13v-1038h184v-33h-184v-332h-37v332h-867zM164 365h805v948z" />
<glyph unicode="5" horiz-adv-x="1296" d="M123 322l24 22q52 -155 186 -240.5t337 -85.5h8q199 3 328 119.5t129 300.5q0 196 -117.5 301t-337.5 105q-120 0 -238.5 -36t-187.5 -101l-29 22v674h824v-33h-785v-610q78 57 194 87t247 30q212 0 339 -118t127 -319q0 -195 -139.5 -322t-347.5 -132h-25 q-207 3 -345.5 91.5t-190.5 244.5z" />
<glyph unicode="6" horiz-adv-x="1280" d="M123 666q0 72 7 142t25 146t45 142t70.5 126t98.5 102.5t131.5 67.5t167.5 25h14q273 0 420 -196l-25 -23q-144 186 -395 186h-14q-119 0 -211 -45.5t-146.5 -116t-89.5 -168t-47.5 -189t-13.5 -191.5q59 126 186.5 204t292.5 78q225 0 371.5 -140.5t146.5 -346.5 t-146.5 -344.5t-371.5 -138.5q-121 0 -220 42t-162.5 113.5t-97.5 163.5t-34 195zM164 502q0 -96 31 -182t89.5 -153.5t150.5 -107t206 -39.5q209 0 344 129.5t135 319.5q0 192 -135 322.5t-344 130.5q-103 0 -193.5 -35t-152 -93t-96.5 -134t-35 -158z" />
<glyph unicode="7" horiz-adv-x="1093" d="M102 1370v33h889v-10l-841 -1393h-44l826 1370h-830z" />
<glyph unicode="8" horiz-adv-x="1236" d="M123 377q0 147 90 244.5t244 132.5q-124 31 -198.5 112t-74.5 211q0 88 36.5 156t98.5 108t137.5 60t159.5 20h15q83 -2 156 -22.5t133.5 -60.5t95.5 -107t35 -154q0 -130 -74.5 -211t-198.5 -112q154 -35 244 -132.5t90 -244.5q0 -181 -134.5 -284.5t-348.5 -106.5h-13 q-142 0 -252.5 44.5t-175.5 134t-65 212.5zM162 377q0 -168 127 -262.5t329 -94.5t329.5 95t127.5 262q0 168 -123.5 260.5t-333.5 97.5q-39 0 -81 -5t-96.5 -18t-101.5 -39t-88 -63.5t-65 -97.5t-24 -135zM223 1077q0 -64 22 -116.5t59 -87.5t88 -58.5t107.5 -34 t118.5 -10.5q78 0 146.5 17.5t125.5 52.5t90.5 96t33.5 141t-33.5 142t-90.5 98t-125.5 54t-146.5 18t-147 -18t-125.5 -54t-89.5 -97.5t-33 -142.5z" />
<glyph unicode="9" horiz-adv-x="1280" d="M123 934q0 206 146 344.5t370 138.5q122 0 221 -42t162.5 -113.5t98 -163.5t34.5 -195l2 -164q0 -73 -7 -143.5t-25 -146.5t-45 -142t-70.5 -126t-98.5 -102.5t-131.5 -67.5t-167.5 -25h-16q-271 0 -418 196l25 23q141 -187 393 -187h16q86 0 158 23.5t123.5 63.5 t91.5 97t64.5 119t40.5 134t22 138t6 136q-57 -125 -184 -202.5t-293 -77.5q-225 0 -371.5 139.5t-146.5 345.5zM160 934q0 -192 135 -322.5t344 -130.5q103 0 193.5 35t152 93t96.5 135t35 159q0 95 -31 181t-89.5 153t-150.5 107t-206 40q-209 0 -344 -130t-135 -320z" />
<glyph unicode=":" horiz-adv-x="370" d="M143 27q0 17 12 29t29 12t29 -12t12 -29t-12 -29t-29 -12t-29 12t-12 29zM143 606q0 17 12 29t29 12t29 -12t12 -29q0 -19 -12 -31t-29 -12t-29 12t-12 31z" />
<glyph unicode=";" horiz-adv-x="432" d="M143 -188l72 256h61l-110 -256h-23zM205 606q0 17 12 29t29 12t29 -12t12 -29q0 -19 -12 -31t-29 -12t-29 12t-12 31z" />
<glyph unicode="&#x3c;" horiz-adv-x="919" d="M143 700l631 414v-49l-559 -367l559 -364v-49z" />
<glyph unicode="=" horiz-adv-x="1136" d="M143 442v39h848v-39h-848zM143 741v39h848v-39h-848z" />
<glyph unicode="&#x3e;" horiz-adv-x="919" d="M143 285v49l559 364l-559 367v49l631 -414z" />
<glyph unicode="?" horiz-adv-x="1337" d="M143 1112q53 148 193.5 240.5t343.5 95.5h22q210 -5 350 -132t140 -321q0 -199 -144.5 -315t-383.5 -119v-188h-37v223q251 0 389.5 102.5t138.5 296.5q0 184 -129 300.5t-328 119.5h-8q-198 0 -333 -89t-189 -234zM604 27q0 17 12 29t29 12t29 -12t12 -29t-12 -29 t-29 -12t-29 12t-12 29z" />
<glyph unicode="@" horiz-adv-x="1949" d="M143 526q0 169 65.5 323t176.5 265.5t265 177.5t323 66q159 0 294.5 -42.5t233.5 -118.5t166.5 -180.5t102.5 -229t34 -263.5v-362q0 -172 -174 -176q-172 4 -172 182v141q-61 -145 -193 -234t-294 -89q-143 0 -264 70.5t-191 191.5t-70 264t70 264.5t191 192.5t264 71 q162 0 294 -90t195 -235l-2 311h41v-862q0 -82 35 -111.5t96 -29.5t96 29.5t35 109.5v362q0 168 -50.5 311t-147 251t-248 169.5t-342.5 61.5q-161 0 -307 -62t-250.5 -168t-166 -252.5t-61.5 -308.5q0 -164 61.5 -311t166.5 -252t250 -167t307 -62q190 0 358 84l29 -29 q-181 -96 -387 -96q-169 0 -322.5 65.5t-265 177t-177 265.5t-65.5 325zM485 512q0 -135 65 -248t177 -178.5t246 -65.5q133 0 245.5 65.5t178 178.5t65.5 248t-65.5 248t-178 178.5t-245.5 65.5q-134 0 -246 -65.5t-177 -178.5t-65 -248z" />
<glyph unicode="A" horiz-adv-x="1417" d="M102 0l600 1434h13l600 -1434h-39l-209 500h-717l-209 -500h-39zM365 532h690l-346 824z" />
<glyph unicode="B" horiz-adv-x="1417" d="M246 0v1434h487q113 0 197 -19.5t134.5 -51t81 -79t41.5 -96t11 -109.5q0 -251 -246 -323q169 -27 255.5 -124.5t86.5 -248.5q0 -383 -467 -383h-581zM283 33h542q232 0 332 88.5t100 261.5q0 167 -107.5 257.5t-324.5 90.5h-542v-698zM283 764h450q100 0 176 17 t123.5 45t77 69.5t40.5 86t11 99.5q0 56 -8.5 99t-35.5 86.5t-73 71.5t-124.5 45.5t-186.5 17.5h-450v-637z" />
<glyph unicode="C" horiz-adv-x="1558" d="M164 717q0 148 57.5 283.5t155 233.5t233 156t283.5 58q158 0 298.5 -63.5t242.5 -176.5l-25 -22q-97 108 -230.5 168.5t-285.5 60.5q-142 0 -270 -55t-220.5 -148t-147 -222.5t-54.5 -272.5q0 -144 54.5 -273.5t147 -223t220.5 -148t270 -54.5q153 0 286 60.5t230 169.5 l25 -27q-102 -111 -242 -173t-299 -62q-198 0 -366 97.5t-265.5 265.5t-97.5 368z" />
<glyph unicode="D" horiz-adv-x="1544" d="M246 0v1434h403q150 0 283.5 -51.5t232 -143t156 -227t57.5 -295.5t-57.5 -295.5t-156 -227t-232 -143t-283.5 -51.5h-403zM283 33h366q193 0 349.5 82t249.5 239t93 363t-93 363t-249.5 239t-349.5 82h-366v-1368z" />
<glyph unicode="E" horiz-adv-x="1228" d="M246 0v1434h858v-33h-821v-656h786v-32h-786v-680h821v-33h-858z" />
<glyph unicode="F" horiz-adv-x="1228" d="M246 0v1434h858v-33h-821v-656h786v-32h-786v-713h-37z" />
<glyph unicode="G" horiz-adv-x="1660" d="M164 717q0 148 57.5 283.5t155 233.5t233 156t283.5 58q158 0 298.5 -63.5t242.5 -176.5l-25 -22q-97 108 -230.5 168.5t-285.5 60.5q-142 0 -270 -55t-220.5 -148t-147 -222.5t-54.5 -272.5q0 -144 54.5 -273.5t147 -223t220.5 -148t270 -54.5q148 0 278 56t226 159v445 h-525v33h562v-490q-102 -111 -242 -173t-299 -62q-198 0 -366 97.5t-265.5 265.5t-97.5 368z" />
<glyph unicode="H" horiz-adv-x="1538" d="M246 0v1434h37v-686h970v686h37v-1434h-37v715h-970v-715h-37z" />
<glyph unicode="I" horiz-adv-x="858" d="M246 0v33h164v1368h-164v33h364v-33h-164v-1368h164v-33h-364z" />
<glyph unicode="J" horiz-adv-x="1200" d="M164 451v36h37v-34q0 -197 98.5 -316t298.5 -119q201 0 300 119t99 316v948h-559v33h596v-983q0 -134 -45.5 -236.5t-145.5 -165.5t-245 -63q-144 0 -243.5 63t-145 165.5t-45.5 236.5z" />
<glyph unicode="K" horiz-adv-x="1415" d="M246 0v1434h37v-686h297q48 0 84 5.5t65.5 18.5t52.5 31t48 48t47.5 63t54.5 83q8 13 12 19l270 418h46l-291 -443q-92 -141 -124 -178q-45 -54 -95 -76q22 -6 42 -16.5t34.5 -19t35 -31t30 -33t33.5 -45.5t32 -47.5t38 -59.5q6 -9 9 -14l309 -471h-45l-289 446 q-88 138 -122 176q-61 69 -146 85q-40 8 -95 8h-333v-715h-37z" />
<glyph unicode="L" horiz-adv-x="1208" d="M246 0v1434h37v-1401h823v-33h-860z" />
<glyph unicode="M" horiz-adv-x="1820" d="M225 0v1434h13l661 -856l664 856h12v-1434h-37v1337l-639 -823l-637 823v-1337h-37z" />
<glyph unicode="N" horiz-adv-x="1497" d="M225 0v1434h13l995 -1338v1338h37v-1434h-13l-995 1337v-1337h-37z" />
<glyph unicode="O" horiz-adv-x="1789" d="M164 717q0 148 57.5 283.5t155 233.5t233 156t283.5 58t283.5 -58t233.5 -156t156 -233.5t58 -283.5q0 -200 -98 -368t-266.5 -265.5t-366.5 -97.5t-366 97.5t-265.5 265.5t-97.5 368zM201 717q0 -144 54.5 -273.5t147 -223t220.5 -148t270 -54.5t270.5 54.5t221.5 148 t147.5 223t54.5 273.5q0 143 -54.5 272.5t-147.5 222.5t-221.5 148t-270.5 55t-270 -55t-220.5 -148t-147 -222.5t-54.5 -272.5z" />
<glyph unicode="P" horiz-adv-x="1460" d="M246 0v1434h432q127 0 236 -30t195 -89.5t135.5 -158t49.5 -224.5t-49.5 -223.5t-135.5 -157t-195 -89.5t-236 -30h-395v-432h-37zM283 465h395q120 0 222 27t183.5 81.5t127.5 146t46 212.5q0 98 -30.5 177t-83.5 132.5t-127 90t-158.5 53t-179.5 16.5h-395v-936z" />
<glyph unicode="Q" horiz-adv-x="1787" d="M164 717q0 148 57.5 283.5t155 233.5t233 156t283.5 58t283.5 -58t233.5 -156t156 -233.5t58 -283.5q0 -243 -141.5 -434.5t-364.5 -264.5h504v-32h-729q-198 0 -366 97.5t-265.5 265.5t-97.5 368zM201 717q0 -144 54.5 -273.5t147 -223t220.5 -148t270 -54.5t270.5 54.5 t221.5 148t147.5 223t54.5 273.5q0 143 -54.5 272.5t-147.5 222.5t-221.5 148t-270.5 55t-270 -55t-220.5 -148t-147 -222.5t-54.5 -272.5z" />
<glyph unicode="R" horiz-adv-x="1396" d="M246 0v1434h432q127 0 236 -30t195 -88.5t135.5 -154.5t49.5 -219q0 -191 -115.5 -311t-306.5 -160q72 -21 134 -72.5t124 -148.5l164 -250h-45l-143 223q-48 74 -92 120.5t-93 70t-95.5 31.5t-114.5 8h-428v-453h-37zM283 485h395q120 0 222 27t183.5 80.5t127.5 143 t46 206.5q0 95 -30.5 172t-83.5 130t-127 88.5t-158.5 52t-179.5 16.5h-395v-916z" />
<glyph unicode="S" horiz-adv-x="1304" d="M123 322l24 20q52 -154 186.5 -239t338.5 -85h10q122 0 226 43t169.5 128.5t65.5 195.5q0 153 -88.5 234.5t-284.5 107.5l-197 27q-222 32 -316.5 109t-94.5 214q0 109 66.5 195.5t170 131t219.5 44.5h27q157 0 285 -62t196 -178l-24 -22q-67 111 -187 170t-270 59h-27 q-109 0 -203 -39t-155 -118t-61 -181q0 -124 83 -192.5t291 -96.5l195 -26q214 -28 313 -118t99 -259q0 -118 -71 -210.5t-184 -140.5t-243 -48h-10q-212 0 -354.5 89t-194.5 247z" />
<glyph unicode="T" horiz-adv-x="1230" d="M102 1401v33h1024v-33h-493v-1401h-37v1401h-494z" />
<glyph unicode="U" horiz-adv-x="1646" d="M246 633v801h37v-801q0 -182 59.5 -318.5t184.5 -216.5t304 -80t305 80t186 216.5t60 318.5v801h37v-801q0 -140 -38.5 -257.5t-111 -204.5t-185 -136t-253.5 -49q-187 0 -321 85t-199 229.5t-65 332.5z" />
<glyph unicode="V" horiz-adv-x="1437" d="M102 1434h39l578 -1356l577 1356h39l-610 -1434h-12z" />
<glyph unicode="W" horiz-adv-x="2461" d="M102 1434h39l527 -1354l557 1354h12l557 -1354l526 1354h39l-559 -1434h-12l-557 1354l-557 -1354h-12z" />
<glyph unicode="X" horiz-adv-x="1331" d="M102 0l539 733l-518 701h47l498 -674l493 674h47l-518 -705l539 -729h-47l-518 702l-514 -702h-48z" />
<glyph unicode="Y" horiz-adv-x="1402" d="M102 1434h43l557 -893l555 893h43l-581 -930v-504h-37v502z" />
<glyph unicode="Z" horiz-adv-x="1290" d="M123 0v8l969 1393h-887v33h950v-9l-971 -1392h983v-33h-1044z" />
<glyph unicode="[" horiz-adv-x="456" d="M143 -287v1823h170v-33h-133v-1757h133v-33h-170z" />
<glyph unicode="\" horiz-adv-x="974" d="M143 1434h39l647 -1434h-38z" />
<glyph unicode="]" horiz-adv-x="456" d="M143 -254h133v1757h-133v33h170v-1823h-170v33z" />
<glyph unicode="^" horiz-adv-x="1112" d="M143 768l412 629l412 -629h-47l-365 555l-365 -555h-47z" />
<glyph unicode="_" horiz-adv-x="1134" d="M143 -166h848v-39h-848v39z" />
<glyph unicode="`" horiz-adv-x="491" d="M143 1432h82l123 -179h-43z" />
<glyph unicode="a" d="M143 512q0 143 70.5 264t191.5 191.5t263 70.5q164 0 297 -90.5t192 -238.5v315h39v-1024h-39v315q-59 -146 -192 -236.5t-297 -90.5q-107 0 -204 41.5t-167.5 111.5t-112 167t-41.5 204zM182 512q0 -205 142 -347t346 -142q203 0 345 142t142 347q0 135 -65 248 t-177 178.5t-245 65.5q-134 0 -246 -65.5t-177 -178.5t-65 -248z" />
<glyph unicode="b" d="M205 0v1434h37v-725q61 147 193.5 238t297.5 91q142 0 263 -70.5t191 -191.5t70 -264t-70 -263.5t-191 -190.5t-263 -70q-164 0 -297 90.5t-192 236.5v-315h-39zM246 512q0 -205 142 -347t345 -142q204 0 346 142t142 347q0 135 -65 248t-177 178.5t-246 65.5 q-133 0 -245 -65.5t-177 -178.5t-65 -248z" />
<glyph unicode="c" horiz-adv-x="1206" d="M143 512q0 143 70 264t191 191.5t264 70.5q120 0 225 -50.5t180 -139.5l-26 -25q-69 85 -167.5 133t-211.5 48q-133 0 -245.5 -65.5t-177.5 -178.5t-65 -248t65.5 -247.5t177.5 -177t245 -64.5q114 0 213 47.5t166 130.5l24 -25q-73 -89 -178 -138.5t-225 -49.5 q-143 0 -264 70t-191 190.5t-70 263.5z" />
<glyph unicode="d" d="M143 512q0 143 70.5 264t191.5 191.5t263 70.5q163 0 296.5 -91t194.5 -238v725h37v-1434h-39v315q-59 -146 -192 -236.5t-297 -90.5q-107 0 -204 41.5t-167.5 111.5t-112 167t-41.5 204zM182 512q0 -205 142 -347t346 -142q203 0 345 142t142 347q0 135 -65 248 t-177 178.5t-245 65.5q-134 0 -246 -65.5t-177 -178.5t-65 -248z" />
<glyph unicode="e" horiz-adv-x="1298" d="M143 512q0 144 67 264.5t188 191t270 70.5q168 0 291.5 -87.5t179.5 -233.5q17 -47 23 -109q2 -25 2 -45q0 -30 -5 -49h-979q0 -227 140.5 -359t371.5 -132h9q218 0 393 145l24 -27q-187 -153 -426 -153q-245 2 -397 144.5t-152 379.5zM182 549h944q1 11 1 22 q0 71 -23 134q-51 137 -164.5 218t-271.5 81q-203 0 -338.5 -130t-147.5 -325z" />
<glyph unicode="f" horiz-adv-x="802" d="M143 991v33h164v59q0 98 32.5 173t86.5 116.5t117 59.5q50 15 102 15q15 0 29 -1l26 -2l-4 -31h-20q-62 0 -117 -16t-105 -51.5t-79.5 -102t-30.5 -158.5v-61h352v-33h-352v-991h-37v991h-164z" />
<glyph unicode="g" horiz-adv-x="1388" d="M133 512q0 143 70 264t191 191.5t263 70.5q162 0 294.5 -90t193.5 -235v311h39v-899q0 -244 -121.5 -379.5t-360.5 -136.5q-239 0 -426 153l25 27q174 -145 392 -145h9q224 0 334.5 124.5t110.5 358.5v184q-61 -145 -194 -234t-296 -89q-142 0 -263 70t-191 190.5 t-70 263.5zM172 512q0 -135 64.5 -248t176.5 -178.5t246 -65.5q133 0 245.5 65.5t177.5 178.5t65 248t-65 248t-177.5 178.5t-245.5 65.5q-134 0 -246 -65.5t-176.5 -178.5t-64.5 -248z" />
<glyph unicode="h" horiz-adv-x="1353" d="M215 0v1434h37v-715q32 85 86 149t118.5 99.5t129.5 53t129 17.5q202 0 323 -123.5t121 -353.5v-561h-39v563q0 217 -108.5 329t-296.5 112q-210 0 -336.5 -144t-126.5 -387v-473h-37z" />
<glyph unicode="i" horiz-adv-x="483" d="M215 1221q0 12 9.5 21t21.5 9q13 0 23 -9t10 -21q0 -13 -9.5 -23t-23.5 -10q-12 0 -21.5 10t-9.5 23zM229 0v1024h37v-1024h-37z" />
<glyph unicode="j" horiz-adv-x="483" d="M215 1221q0 12 9.5 21t21.5 9q13 0 23 -9t10 -21q0 -13 -9.5 -23t-23.5 -10q-12 0 -21.5 10t-9.5 23zM229 -377v1401h37v-1401h-37z" />
<glyph unicode="k" horiz-adv-x="1142" d="M215 0v1434h37v-887h207q57 0 98.5 9t72 25t60.5 49.5t54.5 69t63.5 96.5l4.5 7.5t4 6.5t4.5 7l137 207h46l-156 -233q-8 -11 -28.5 -42t-26.5 -40.5t-23 -34t-24 -33t-21.5 -26.5t-23.5 -25.5t-22 -19.5t-25.5 -19.5t-26.5 -13.5q23 -6 43.5 -17t35.5 -20t35.5 -32.5 t31 -35t35.5 -48t34 -51t41 -63.5l176 -270h-45l-156 246q-89 138 -123 175q-61 69 -145 85q-40 8 -96 8h-242v-514h-37z" />
<glyph unicode="l" horiz-adv-x="458" d="M215 0v1434h37v-1434h-37z" />
<glyph unicode="m" horiz-adv-x="2250" d="M205 0v1024h39v-305q32 85 86 149t118 99.5t128.5 53t128.5 17.5q172 0 287 -90.5t147 -261.5q29 93 83 164t120.5 110.5t133.5 58.5t134 19q203 0 323.5 -123t120.5 -354v-561h-37v563q0 217 -108.5 329t-296.5 112q-211 0 -337 -143.5t-126 -387.5v-473h-39v563 q0 217 -108.5 329t-296.5 112q-210 0 -336.5 -144t-126.5 -387v-473h-37z" />
<glyph unicode="n" horiz-adv-x="1343" d="M205 0v1024h39v-305q32 85 86 149t118 99.5t128.5 53t128.5 17.5q202 0 323 -123.5t121 -353.5v-561h-39v563q0 217 -108.5 329t-296.5 112q-210 0 -336.5 -144t-126.5 -387v-473h-37z" />
<glyph unicode="o" horiz-adv-x="1337" d="M143 512q0 143 70 264t191 191.5t264 70.5t264 -70.5t191.5 -191.5t70.5 -264t-70.5 -263.5t-191.5 -190.5t-264 -70t-264 70t-191 190.5t-70 263.5zM182 512q0 -205 142 -347t346 -142q203 0 345 142t142 347q0 135 -65 248t-177 178.5t-245 65.5q-134 0 -246 -65.5 t-177 -178.5t-65 -248z" />
<glyph unicode="p" horiz-adv-x="1318" d="M123 -377v1401h39v-315q59 148 192 238.5t297 90.5q142 0 263 -70.5t191.5 -191.5t70.5 -264q0 -107 -41.5 -204t-112 -167t-167.5 -111.5t-204 -41.5q-165 0 -297.5 90.5t-193.5 238.5v-694h-37zM162 512q0 -205 142 -347t345 -142q204 0 346 142t142 347q0 135 -65 248 t-177 178.5t-246 65.5q-133 0 -245 -65.5t-177 -178.5t-65 -248z" />
<glyph unicode="q" d="M143 512q0 143 70.5 264t191.5 191.5t263 70.5q164 0 297 -90.5t192 -238.5v315h39v-1401h-37v694q-61 -148 -194 -238.5t-297 -90.5q-107 0 -204 41.5t-167.5 111.5t-112 167t-41.5 204zM182 512q0 -205 142 -347t346 -142q203 0 345 142t142 347q0 135 -65 248 t-177 178.5t-245 65.5q-134 0 -246 -65.5t-177 -178.5t-65 -248z" />
<glyph unicode="r" horiz-adv-x="862" d="M205 0v1024h39v-330q59 174 196.5 259t329.5 85h8v-34h-12q-114 0 -204 -31t-149.5 -84.5t-98.5 -129t-55.5 -160.5t-16.5 -183v-416h-37z" />
<glyph unicode="s" horiz-adv-x="1118" d="M143 201l27 24q38 -89 149.5 -147t245.5 -58h8q153 0 258 65t105 187q0 43 -9 78t-23 58.5t-37 42t-44 28.5t-52 18t-52.5 11t-52.5 6l-174 21q-91 11 -154 33.5t-96 56t-46.5 70.5t-13.5 83q0 118 104 189t257 71h30q105 0 213.5 -52.5t163.5 -137.5l-26 -25 q-51 81 -152.5 131t-198.5 50h-18q-142 0 -238 -62.5t-96 -165.5q0 -39 9 -68t35.5 -59t83.5 -50t143 -30l172 -18q50 -6 86 -13.5t81 -26.5t73.5 -47t48.5 -77.5t20 -114.5q0 -91 -55 -157.5t-141.5 -97.5t-190.5 -31h-21q-140 0 -259 60.5t-163 154.5z" />
<glyph unicode="t" horiz-adv-x="634" d="M143 991v33h164v344h37v-344h166v-33h-166v-991h-37v991h-164z" />
<glyph unicode="u" horiz-adv-x="1333" d="M195 463v561h36v-563q0 -217 109 -329t299 -112q210 0 336.5 144t126.5 387v473h37v-1024h-39v305q-32 -85 -86 -149t-118.5 -99.5t-129 -53t-127.5 -17.5q-202 0 -323 123.5t-121 353.5z" />
<glyph unicode="v" horiz-adv-x="1116" d="M82 1024h39l436 -946l438 946h39l-471 -1024h-12z" />
<glyph unicode="w" horiz-adv-x="1914" d="M82 1024h39l405 -946l428 946h7l425 -946l408 946h39l-440 -1024h-11l-426 946l-424 -946h-12z" />
<glyph unicode="x" horiz-adv-x="1130" d="M82 0l457 526l-437 498h48l417 -477l414 477h45l-436 -502l457 -522h-48l-436 500l-434 -500h-47z" />
<glyph unicode="y" horiz-adv-x="1343" d="M205 461v563h37v-563q0 -217 108.5 -329t298.5 -112q210 0 336.5 144t126.5 387v473h37v-899q0 -244 -121.5 -379.5t-359.5 -136.5q-239 0 -426 153l24 27q174 -145 393 -145h9q224 0 334 124.5t110 358.5v178q-32 -85 -86 -149t-118.5 -99.5t-129.5 -53t-129 -17.5 q-202 0 -323 123t-121 352z" />
<glyph unicode="z" horiz-adv-x="1191" d="M143 0v6l809 985h-737v33h805v-6l-809 -985h838v-33h-906z" />
<glyph unicode="{" horiz-adv-x="733" d="M143 608v33h11q95 3 158 64t63 149v530q0 66 42 109t101 43h72v-33h-74q-43 0 -73.5 -32t-30.5 -82v-533q0 -77 -44.5 -140t-117.5 -91q73 -30 117.5 -93t44.5 -141v-530q0 -50 31 -82.5t73 -32.5h74v-33h-72q-59 0 -101 43t-42 109v530q0 86 -63 147.5t-158 65.5h-11z " />
<glyph unicode="|" horiz-adv-x="325" d="M143 -123v1557h39v-1557h-39z" />
<glyph unicode="}" horiz-adv-x="733" d="M143 -254h72q42 0 73 32.5t31 82.5v530q0 79 45 141.5t119 92.5q-74 28 -119 91t-45 140v533q0 50 -30.5 82t-73.5 32h-72v33h72q58 0 99.5 -43t41.5 -109v-530q0 -88 64.5 -149t159.5 -64h10v-33h-10q-95 -5 -159.5 -66t-64.5 -147v-530q0 -66 -41.5 -109t-99.5 -43h-72 v33z" />
<glyph unicode="~" horiz-adv-x="1112" d="M143 516l88 109q34 40 84.5 52.5t99 1.5t93.5 -38l125 -74q36 -21 74.5 -29t78 3t64.5 45l61 80h58l-90 -107q-33 -41 -83 -53.5t-98 -1.5t-94 37l-125 73q-36 21 -75 29.5t-79 -2.5t-65 -45l-59 -80h-58z" />
<glyph unicode="&#xa1;" horiz-adv-x="370" d="M143 1085q0 17 12 29t29 12t29 -12t12 -29t-12 -29t-29 -12t-29 12t-12 29zM166 -322v676l10 467h17l10 -467v-676h-37z" />
<glyph unicode="&#xa2;" horiz-adv-x="1216" d="M143 512q0 137 64.5 254.5t176 189t245.5 80.5v195h39v-193q120 0 225 -50.5t180 -139.5l-26 -25q-69 85 -167.5 133t-211.5 48v-981q114 0 213 47.5t166 130.5l24 -25q-73 -89 -178 -138.5t-225 -49.5v-189h-39v191q-205 14 -345.5 164t-140.5 358zM180 512 q0 -195 129.5 -334t319.5 -153v976q-190 -14 -319.5 -153.5t-129.5 -335.5z" />
<glyph unicode="&#xa3;" horiz-adv-x="1372" d="M143 0v41q55 9 87.5 16.5t65 24t48 34.5t28.5 55t14 78.5t-3.5 111.5t-15.5 147.5t-29 193.5h-195v33h189l-45 273q-17 102 1.5 181.5t60 127t104.5 78t127 42t135 11.5h26q158 0 286 -62t196 -178l-23 -22q-68 111 -188.5 170t-270.5 59h-26q-45 0 -87 -5t-87.5 -18 t-81 -33.5t-68 -52t-49.5 -74t-24.5 -99t6.5 -127.5l47 -271h485v-33h-481q22 -132 34 -220.5t15 -162t-3.5 -117t-25 -78t-45 -54.5t-69.5 -37h950v-33h-1088z" />
<glyph unicode="&#xa4;" horiz-adv-x="1130" d="M143.5 610.5q0.5 163.5 110.5 284.5l-102 100l28 29l101 -102q121 109 284 109t283 -109l102 102l27 -29l-100 -100q110 -122 110 -285t-110 -284l102 -101l-29 -28l-100 102q-122 -110 -285.5 -110t-283.5 110l-103 -102l-26 28l100 101q-109 121 -108.5 284.5z M181.5 611.5q-0.5 -158.5 111.5 -271.5q74 -75 173 -101.5t197.5 -0.5t172.5 100q114 110 114.5 269.5t-112.5 273.5q-113 113 -271 113.5t-272 -111.5q-113 -113 -113.5 -271.5z" />
<glyph unicode="&#xa5;" horiz-adv-x="1484" d="M143 1434h43l557 -893l555 893h43l-569 -910h399v-39h-411v-182h411v-39h-411v-264h-37v264h-410v39h410v182h-410v39h396z" />
<glyph unicode="&#xa6;" horiz-adv-x="325" d="M143 -123v653h39v-653h-39zM143 778v654h39v-654h-39z" />
<glyph unicode="&#xa7;" horiz-adv-x="1118" d="M143 625q0 141 123 219q-84 60 -84 172q0 119 104 190.5t257 71.5h30q105 0 213.5 -53t163.5 -138l-26 -24q-51 80 -152 130t-199 50h-18q-142 0 -238 -62t-96 -165q0 -39 9.5 -68t36 -59t83 -50t142.5 -30l174 -18q57 -7 107 -23.5t97 -47.5t75 -84.5t28 -123.5 q0 -143 -123 -219q84 -57 84 -172q0 -119 -104 -190.5t-257 -71.5h-30q-104 0 -212 52.5t-163 137.5l27 25q49 -80 149.5 -129t198.5 -49h18q143 0 238.5 61t95.5 164q0 40 -9 68.5t-35.5 58.5t-83 50t-142.5 30l-172 18q-58 7 -108 23.5t-98 47.5t-76 84.5t-28 123.5z M182 625q0 -51 17 -91.5t43.5 -66.5t64 -44.5t72.5 -27t74 -12.5l172 -21q117 -11 190 -47q121 67 121 197q0 51 -17 91.5t-43.5 66.5t-63.5 44.5t-72 27t-74 12.5l-172 20q-119 12 -191 47q-121 -67 -121 -196z" />
<glyph unicode="&#xa8;" horiz-adv-x="759" d="M143 1415q0 13 9.5 22t21.5 9q14 0 23.5 -9t9.5 -22q0 -12 -10 -21.5t-23 -9.5q-12 0 -21.5 9.5t-9.5 21.5zM553 1415q0 13 9.5 22t21.5 9q14 0 23 -9t9 -22q0 -12 -9.5 -21.5t-22.5 -9.5q-12 0 -21.5 9.5t-9.5 21.5z" />
<glyph unicode="&#xa9;" horiz-adv-x="1372" d="M143 881q0 110 41.5 211.5t112.5 176.5t172.5 120t216.5 45t216.5 -45t172.5 -120t112.5 -176.5t41.5 -211.5t-41.5 -211.5t-112.5 -176.5t-172.5 -120t-216.5 -45t-216.5 45t-172.5 120t-112.5 176.5t-41.5 211.5zM184 881q0 -141 63.5 -259.5t179.5 -189t259 -70.5 q108 0 202.5 41.5t160.5 112t103.5 165.5t37.5 200q0 141 -63.5 259t-180 188.5t-260.5 70.5q-143 0 -259 -70.5t-179.5 -188.5t-63.5 -259zM326 881q0 151 106 257.5t258 106.5q83 0 155.5 -35t123.5 -96l-23 -22q-49 53 -115.5 85.5t-140.5 32.5q-131 0 -227 -98t-96 -231 t96 -230.5t227 -97.5q137 0 254 121l25 -27q-52 -61 -124.5 -96t-154.5 -35q-152 0 -258 106.5t-106 258.5z" />
<glyph unicode="&#xab;" horiz-adv-x="786" d="M143 571l269 211v-51l-207 -162l207 -159v-50zM375 571l268 211v-51l-207 -162l207 -159v-50z" />
<glyph unicode="&#xac;" horiz-adv-x="1136" d="M143 621v38h848v-297h-35v259h-813z" />
<glyph unicode="&#xad;" horiz-adv-x="796" d="M143 573v39h508v-39h-508z" />
<glyph unicode="&#xae;" horiz-adv-x="1372" d="M143 881q0 110 41.5 211.5t112.5 176.5t172.5 120t216.5 45t216.5 -45t172.5 -120t112.5 -176.5t41.5 -211.5t-41.5 -211.5t-112.5 -176.5t-172.5 -120t-216.5 -45t-216.5 45t-172.5 120t-112.5 176.5t-41.5 211.5zM184 881q0 -141 63.5 -259.5t179.5 -189t259 -70.5 q108 0 202.5 41.5t160.5 112t103.5 165.5t37.5 200q0 141 -63.5 259t-180 188.5t-260.5 70.5q-143 0 -259 -70.5t-179.5 -188.5t-63.5 -259zM389 530v701h383q119 0 177.5 -56.5t58.5 -152.5q0 -92 -54 -148.5t-166 -60.5l234 -283h-49l-236 283h-307v-283h-41zM428 850h342 q99 0 148 48t49 124q0 77 -49 124.5t-148 47.5h-342v-344z" />
<glyph unicode="&#xaf;" horiz-adv-x="790" d="M143 1399v33h504v-33h-504z" />
<glyph unicode="&#xb0;" horiz-adv-x="772" d="M143 1204q0 101 71 172.5t171 71.5q101 0 172.5 -71.5t71.5 -172.5q0 -100 -71.5 -170.5t-172.5 -70.5q-100 0 -171 70.5t-71 170.5zM184 1204q0 -86 58.5 -145.5t142.5 -59.5q85 0 144 59.5t59 145.5q0 87 -59 147t-144 60q-84 0 -142.5 -60t-58.5 -147z" />
<glyph unicode="&#xb1;" horiz-adv-x="1136" d="M143 264v39h848v-39h-848zM143 719v35h406v305h37v-305h405v-35h-405v-305h-37v305h-406z" />
<glyph unicode="&#xb4;" horiz-adv-x="491" d="M143 1253l123 179h82l-162 -179h-43z" />
<glyph unicode="&#xb6;" horiz-adv-x="1179" d="M143 1024q0 105 39 185.5t108 128.5t158 72t195 24h391v-39h-78v-1729h-36v1729h-242v-1729h-39v965q-105 0 -192 21.5t-156.5 66t-108.5 122.5t-39 183z" />
<glyph unicode="&#xb7;" horiz-adv-x="370" d="M143 608q0 17 12 29t29 12t29 -12t12 -29t-12 -29t-29 -12t-29 12t-12 29z" />
<glyph unicode="&#xb8;" horiz-adv-x="509" d="M143 -264q40 -33 84 -36.5t72.5 19t28.5 60.5q0 58 -44 77t-118 -10l33 154h39l-23 -104q62 18 107 -15.5t45 -101.5q0 -49 -35 -81.5t-84.5 -33.5t-104.5 31v41z" />
<glyph unicode="&#xbb;" horiz-adv-x="786" d="M143 360v50l205 159l-205 162v51l269 -211zM375 360v50l205 159l-205 162v51l268 -211z" />
<glyph unicode="&#xbc;" horiz-adv-x="1443" d="M143 1198l199 236h12v-652h-39v564l-141 -170zM332 0l643 1434h39l-643 -1434h-39zM727 147v15l461 489h14v-467h96v-37h-96v-147h-39v147h-436zM805 184h358v383z" />
<glyph unicode="&#xbd;" horiz-adv-x="1617" d="M143 1198l199 236h12v-652h-39v564l-141 -170zM332 0l643 1434h39l-643 -1434h-39zM852 0v12l405 252q80 47 117 91t37 104q0 62 -63 117t-164 55h-15q-89 0 -161 -42.5t-109 -92.5l-27 26q41 59 121 102.5t174 43.5h17q123 0 194.5 -64.5t71.5 -146.5q0 -41 -13.5 -74.5 t-45 -64t-58 -50t-76.5 -51.5l-292 -182h510v-35h-623z" />
<glyph unicode="&#xbe;" horiz-adv-x="1722" d="M143 909l29 27q11 -19 29.5 -38t50.5 -42.5t83.5 -38t113.5 -14.5q104 2 176.5 53.5t72.5 124.5q0 63 -61 106t-172 43q-95 0 -152 -22l-34 27l335 264h-395v35h479v-13l-340 -268q28 14 105 14q134 0 204 -50.5t70 -135.5q0 -93 -78.5 -153t-203.5 -60h-13 q-81 1 -148.5 27.5t-100 55t-50.5 58.5zM610 0l643 1434h39l-643 -1434h-39zM1006 147v15l460 489h15v-467h96v-37h-96v-147h-39v147h-436zM1083 184h359v383z" />
<glyph unicode="&#xbf;" horiz-adv-x="1337" d="M143 129q0 198 145.5 314.5t383.5 119.5v189h37v-224q-251 0 -390 -102.5t-139 -296.5q0 -184 129.5 -300.5t327.5 -121.5h8q200 1 335.5 90.5t188.5 235.5l23 -23q-51 -146 -192.5 -239t-342.5 -97h-24q-210 6 -350 133.5t-140 321.5zM649 1098q0 17 12 29t29 12t29 -12 t12 -29t-12 -29t-29 -12t-29 12t-12 29z" />
<glyph unicode="&#xc0;" horiz-adv-x="1417" d="M102 0l600 1434h13l600 -1434h-39l-209 500h-717l-209 -500h-39zM365 532h690l-346 824zM555 1714h82l123 -178h-43z" />
<glyph unicode="&#xc1;" horiz-adv-x="1417" d="M102 0l600 1434h13l600 -1434h-39l-209 500h-717l-209 -500h-39zM365 532h690l-346 824zM657 1536l123 178h82l-162 -178h-43z" />
<glyph unicode="&#xc2;" horiz-adv-x="1417" d="M102 0l600 1434h13l600 -1434h-39l-209 500h-717l-209 -500h-39zM365 532h690l-346 824zM446 1536l252 193h19l252 -193h-60l-200 156l-203 -156h-60z" />
<glyph unicode="&#xc3;" horiz-adv-x="1417" d="M102 0l600 1434h13l600 -1434h-39l-209 500h-717l-209 -500h-39zM365 532h690l-346 824zM440 1536l21 68q21 66 51 97.5t78 31.5q55 0 98 -50l78 -88q32 -32 72 -32q37 0 57.5 23.5t36.5 78.5l14 55h41l-20 -69q-21 -65 -51.5 -97t-77.5 -32q-54 0 -99 49l-77 88 q-35 35 -72 35t-57.5 -24.5t-36.5 -78.5l-15 -55h-41z" />
<glyph unicode="&#xc4;" horiz-adv-x="1417" d="M102 0l600 1434h13l600 -1434h-39l-209 500h-717l-209 -500h-39zM365 532h690l-346 824zM475 1567q0 13 9.5 22.5t21.5 9.5q14 0 23.5 -9.5t9.5 -22.5q0 -12 -10 -21.5t-23 -9.5q-12 0 -21.5 9.5t-9.5 21.5zM885 1567q0 13 9 22.5t21 9.5q14 0 23.5 -9.5t9.5 -22.5 q0 -12 -10 -21.5t-23 -9.5q-12 0 -21 9.5t-9 21.5z" />
<glyph unicode="&#xc5;" horiz-adv-x="1417" d="M102 0l600 1434h13l600 -1434h-39l-209 500h-717l-209 -500h-39zM365 532h690l-346 824zM563 1683q0 58 42 101t102 43q59 0 102 -43t43 -101q0 -61 -42.5 -104t-102.5 -43q-61 0 -102.5 42.5t-41.5 104.5zM604 1683q0 -46 28.5 -78t74.5 -32t76 32.5t30 77.5 q0 43 -30 75t-76 32t-74.5 -32t-28.5 -75z" />
<glyph unicode="&#xc6;" horiz-adv-x="1683" d="M102 0l600 1434h859v-33h-824v-656h787v-32h-787v-680h824v-33h-861v500h-350l-209 -500h-39zM365 532h337v807z" />
<glyph unicode="&#xc7;" horiz-adv-x="1558" d="M164 717q0 148 57.5 283.5t155 233.5t233 156t283.5 58q158 0 298.5 -63.5t242.5 -176.5l-25 -22q-97 108 -230.5 168.5t-285.5 60.5q-142 0 -270 -55t-220.5 -148t-147 -222.5t-54.5 -272.5q0 -144 54.5 -273.5t147 -223t220.5 -148t270 -54.5q153 0 286 60.5t230 169.5 l25 -27q-102 -111 -242 -173t-299 -62h-8l-19 -90q62 18 107 -15.5t45 -101.5q0 -49 -34.5 -81.5t-84.5 -33.5t-104 31v41q40 -33 84 -36.5t72 19t28 60.5q0 58 -44.5 77t-117.5 -10l31 142q-141 8 -268 69t-218 158t-144.5 228t-53.5 274z" />
<glyph unicode="&#xc8;" horiz-adv-x="1228" d="M246 0v1434h858v-33h-821v-656h786v-32h-786v-680h821v-33h-858zM530 1714h82l123 -178h-43z" />
<glyph unicode="&#xc9;" horiz-adv-x="1228" d="M246 0v1434h858v-33h-821v-656h786v-32h-786v-680h821v-33h-858zM608 1536l123 178h82l-162 -178h-43z" />
<glyph unicode="&#xca;" horiz-adv-x="1228" d="M246 0v1434h858v-33h-821v-656h786v-32h-786v-680h821v-33h-858zM414 1536l252 193h18l252 -193h-59l-201 156l-203 -156h-59z" />
<glyph unicode="&#xcb;" horiz-adv-x="1228" d="M246 0v1434h858v-33h-821v-656h786v-32h-786v-680h821v-33h-858zM430 1569q0 12 9.5 21t21.5 9q13 0 23 -9t10 -21q0 -13 -10 -23t-23 -10q-12 0 -21.5 10t-9.5 23zM840 1569q0 12 9 21t21 9q13 0 23 -9t10 -21q0 -13 -9.5 -23t-23.5 -10q-12 0 -21 10t-9 23z" />
<glyph unicode="&#xcc;" horiz-adv-x="858" d="M246 0v33h164v1368h-164v33h364v-33h-164v-1368h164v-33h-364zM289 1714h82l123 -178h-43z" />
<glyph unicode="&#xcd;" horiz-adv-x="858" d="M246 0v33h164v1368h-164v33h364v-33h-164v-1368h164v-33h-364zM369 1536l123 178h81l-161 -178h-43z" />
<glyph unicode="&#xce;" horiz-adv-x="1013" d="M246 1536l252 193h18l252 -193h-59l-201 156l-203 -156h-59zM324 0v33h163v1368h-163v33h364v-33h-164v-1368h164v-33h-364z" />
<glyph unicode="&#xcf;" horiz-adv-x="964" d="M246 1567q0 13 9 22.5t21 9.5q14 0 23.5 -9.5t9.5 -22.5q0 -12 -10 -21.5t-23 -9.5q-12 0 -21 9.5t-9 21.5zM299 0v33h164v1368h-164v33h365v-33h-164v-1368h164v-33h-365zM655 1567q0 13 9.5 22.5t21.5 9.5q14 0 23.5 -9.5t9.5 -22.5q0 -12 -10 -21.5t-23 -9.5 q-12 0 -21.5 9.5t-9.5 21.5z" />
<glyph unicode="&#xd0;" horiz-adv-x="1720" d="M246 702v35h176v697h403q150 0 283.5 -51.5t232 -143t156 -227t57.5 -295.5t-57.5 -295.5t-156 -227t-232 -143t-283.5 -51.5h-403v702h-176zM459 33h366q144 0 270.5 48t220.5 135t148 216.5t54 284.5t-54 284.5t-148 216.5t-220.5 135t-270.5 48h-366v-664h295v-35 h-295v-669z" />
<glyph unicode="&#xd1;" horiz-adv-x="1497" d="M225 0v1434h13l995 -1338v1338h37v-1434h-13l-995 1337v-1337h-37zM471 1536l21 68q21 66 51 97.5t78 31.5q55 0 98 -50l78 -88q32 -32 71 -32q37 0 58 24t37 78l14 55h41l-21 -69q-21 -65 -51.5 -97t-77.5 -32q-53 0 -98 49l-78 88q-35 35 -71 35q-37 0 -58 -24.5 t-37 -78.5l-14 -55h-41z" />
<glyph unicode="&#xd2;" horiz-adv-x="1789" d="M164 717q0 148 57.5 283.5t155 233.5t233 156t283.5 58t283.5 -58t233.5 -156t156 -233.5t58 -283.5q0 -200 -98 -368t-266.5 -265.5t-366.5 -97.5t-366 97.5t-265.5 265.5t-97.5 368zM201 717q0 -144 54.5 -273.5t147 -223t220.5 -148t270 -54.5t270.5 54.5t221.5 148 t147.5 223t54.5 273.5q0 143 -54.5 272.5t-147.5 222.5t-221.5 148t-270.5 55t-270 -55t-220.5 -148t-147 -222.5t-54.5 -272.5zM731 1714h82l123 -178h-43z" />
<glyph unicode="&#xd3;" horiz-adv-x="1789" d="M164 717q0 148 57.5 283.5t155 233.5t233 156t283.5 58t283.5 -58t233.5 -156t156 -233.5t58 -283.5q0 -200 -98 -368t-266.5 -265.5t-366.5 -97.5t-366 97.5t-265.5 265.5t-97.5 368zM201 717q0 -144 54.5 -273.5t147 -223t220.5 -148t270 -54.5t270.5 54.5t221.5 148 t147.5 223t54.5 273.5q0 143 -54.5 272.5t-147.5 222.5t-221.5 148t-270.5 55t-270 -55t-220.5 -148t-147 -222.5t-54.5 -272.5zM850 1536l123 178h82l-162 -178h-43z" />
<glyph unicode="&#xd4;" horiz-adv-x="1789" d="M164 717q0 148 57.5 283.5t155 233.5t233 156t283.5 58t283.5 -58t233.5 -156t156 -233.5t58 -283.5q0 -200 -98 -368t-266.5 -265.5t-366.5 -97.5t-366 97.5t-265.5 265.5t-97.5 368zM201 717q0 -144 54.5 -273.5t147 -223t220.5 -148t270 -54.5t270.5 54.5t221.5 148 t147.5 223t54.5 273.5q0 143 -54.5 272.5t-147.5 222.5t-221.5 148t-270.5 55t-270 -55t-220.5 -148t-147 -222.5t-54.5 -272.5zM633 1536l252 193h18l252 -193h-59l-201 156l-203 -156h-59z" />
<glyph unicode="&#xd5;" horiz-adv-x="1789" d="M164 717q0 148 57.5 283.5t155 233.5t233 156t283.5 58t283.5 -58t233.5 -156t156 -233.5t58 -283.5q0 -200 -98 -368t-266.5 -265.5t-366.5 -97.5t-366 97.5t-265.5 265.5t-97.5 368zM201 717q0 -144 54.5 -273.5t147 -223t220.5 -148t270 -54.5t270.5 54.5t221.5 148 t147.5 223t54.5 273.5q0 143 -54.5 272.5t-147.5 222.5t-221.5 148t-270.5 55t-270 -55t-220.5 -148t-147 -222.5t-54.5 -272.5zM616 1536l21 68q21 66 51 97.5t78 31.5q55 0 98 -50l78 -88q32 -32 72 -32q37 0 57.5 23.5t36.5 78.5l14 55h41l-20 -69q-21 -65 -51.5 -97 t-77.5 -32q-54 0 -99 49l-77 88q-35 35 -72 35t-57.5 -24.5t-36.5 -78.5l-15 -55h-41z" />
<glyph unicode="&#xd6;" horiz-adv-x="1789" d="M164 717q0 148 57.5 283.5t155 233.5t233 156t283.5 58t283.5 -58t233.5 -156t156 -233.5t58 -283.5q0 -200 -98 -368t-266.5 -265.5t-366.5 -97.5t-366 97.5t-265.5 265.5t-97.5 368zM201 717q0 -144 54.5 -273.5t147 -223t220.5 -148t270 -54.5t270.5 54.5t221.5 148 t147.5 223t54.5 273.5q0 143 -54.5 272.5t-147.5 222.5t-221.5 148t-270.5 55t-270 -55t-220.5 -148t-147 -222.5t-54.5 -272.5zM659 1567q0 13 9.5 22.5t21.5 9.5q14 0 23.5 -9.5t9.5 -22.5q0 -12 -10 -21.5t-23 -9.5q-12 0 -21.5 9.5t-9.5 21.5zM1069 1567q0 13 9.5 22.5 t21.5 9.5q14 0 23.5 -9.5t9.5 -22.5q0 -12 -10 -21.5t-23 -9.5q-12 0 -21.5 9.5t-9.5 21.5z" />
<glyph unicode="&#xd7;" horiz-adv-x="913" d="M143 354l285 287l-285 285l27 26l287 -284l284 284l27 -26l-285 -285l285 -287l-27 -26l-284 284l-287 -284z" />
<glyph unicode="&#xd8;" horiz-adv-x="1789" d="M164 0l205 209q-97 100 -151 231t-54 277q0 148 57.5 283.5t155 233.5t233 156t283.5 58q142 0 271 -52.5t229 -146.5l180 185h51l-205 -209q97 -100 151 -231.5t54 -276.5q0 -200 -98 -368t-266.5 -265.5t-366.5 -97.5q-143 0 -271.5 51.5t-226.5 144.5l-180 -182h-51z M201 717q0 -141 49.5 -266t140.5 -220l979 996q-95 89 -218 138.5t-259 49.5q-142 0 -270 -55t-220.5 -148t-147 -222.5t-54.5 -272.5zM418 207q94 -89 216.5 -139t258.5 -50q142 0 270.5 54.5t221.5 148t147.5 223t54.5 273.5q0 139 -50.5 263t-141.5 220z" />
<glyph unicode="&#xd9;" horiz-adv-x="1646" d="M246 633v801h37v-801q0 -182 59.5 -318.5t184.5 -216.5t304 -80t305 80t186 216.5t60 318.5v801h37v-801q0 -140 -38.5 -257.5t-111 -204.5t-185 -136t-253.5 -49q-187 0 -321 85t-199 229.5t-65 332.5zM670 1714h82l122 -178h-43z" />
<glyph unicode="&#xda;" horiz-adv-x="1646" d="M246 633v801h37v-801q0 -182 59.5 -318.5t184.5 -216.5t304 -80t305 80t186 216.5t60 318.5v801h37v-801q0 -140 -38.5 -257.5t-111 -204.5t-185 -136t-253.5 -49q-187 0 -321 85t-199 229.5t-65 332.5zM788 1536l123 178h82l-162 -178h-43z" />
<glyph unicode="&#xdb;" horiz-adv-x="1646" d="M246 633v801h37v-801q0 -182 59.5 -318.5t184.5 -216.5t304 -80t305 80t186 216.5t60 318.5v801h37v-801q0 -140 -38.5 -257.5t-111 -204.5t-185 -136t-253.5 -49q-187 0 -321 85t-199 229.5t-65 332.5zM571 1536l252 193h19l252 -193h-60l-200 156l-203 -156h-60z" />
<glyph unicode="&#xdc;" horiz-adv-x="1646" d="M246 633v801h37v-801q0 -182 59.5 -318.5t184.5 -216.5t304 -80t305 80t186 216.5t60 318.5v801h37v-801q0 -140 -38.5 -257.5t-111 -204.5t-185 -136t-253.5 -49q-187 0 -321 85t-199 229.5t-65 332.5zM600 1567q0 13 9.5 22.5t21.5 9.5q14 0 23.5 -9.5t9.5 -22.5 q0 -12 -10 -21.5t-23 -9.5q-12 0 -21.5 9.5t-9.5 21.5zM1010 1567q0 13 9 22.5t21 9.5q14 0 23.5 -9.5t9.5 -22.5q0 -12 -10 -21.5t-23 -9.5q-12 0 -21 9.5t-9 21.5z" />
<glyph unicode="&#xdd;" horiz-adv-x="1402" d="M102 1434h43l557 -893l555 893h43l-581 -930v-504h-37v502zM659 1536l123 178h82l-162 -178h-43z" />
<glyph unicode="&#xde;" horiz-adv-x="1460" d="M246 0v1434h37v-195h395q127 0 236 -30t195 -89.5t135.5 -157t49.5 -223.5t-49.5 -224t-135.5 -157.5t-195 -89.5t-236 -30h-395v-238h-37zM283 270h395q95 0 179.5 16.5t158.5 53t127 90.5t83.5 133t30.5 176q0 121 -46 212.5t-127.5 146t-183.5 81.5t-222 27h-395v-936 z" />
<glyph unicode="&#xdf;" horiz-adv-x="1359" d="M205 0v1079q0 78 27 143.5t80.5 116.5t142.5 80t204 29h68q226 0 340.5 -103t114.5 -266q0 -261 -262 -327q156 -32 235.5 -128t79.5 -241q0 -183 -137 -290t-367 -107h-328v32h328q218 0 342.5 96.5t124.5 268.5q0 167 -107 257.5t-323 90.5h-199v33h148q100 0 176 17 t123.5 45t77 69t40.5 85.5t11 98.5q0 150 -102 243t-316 93h-68q-213 0 -315 -92.5t-102 -241.5v-1081h-37z" />
<glyph unicode="&#xe0;" d="M143 512q0 143 70.5 264t191.5 191.5t263 70.5q164 0 297 -90.5t192 -238.5v315h39v-1024h-39v315q-59 -146 -192 -236.5t-297 -90.5q-107 0 -204 41.5t-167.5 111.5t-112 167t-41.5 204zM182 512q0 -205 142 -347t346 -142q203 0 345 142t142 347q0 135 -65 248 t-177 178.5t-245 65.5q-134 0 -246 -65.5t-177 -178.5t-65 -248zM508 1368h82l123 -180h-43z" />
<glyph unicode="&#xe1;" d="M143 512q0 143 70.5 264t191.5 191.5t263 70.5q164 0 297 -90.5t192 -238.5v315h39v-1024h-39v315q-59 -146 -192 -236.5t-297 -90.5q-107 0 -204 41.5t-167.5 111.5t-112 167t-41.5 204zM182 512q0 -205 142 -347t346 -142q203 0 345 142t142 347q0 135 -65 248 t-177 178.5t-245 65.5q-134 0 -246 -65.5t-177 -178.5t-65 -248zM629 1188l123 180h82l-162 -180h-43z" />
<glyph unicode="&#xe2;" d="M143 512q0 143 70.5 264t191.5 191.5t263 70.5q164 0 297 -90.5t192 -238.5v315h39v-1024h-39v315q-59 -146 -192 -236.5t-297 -90.5q-107 0 -204 41.5t-167.5 111.5t-112 167t-41.5 204zM182 512q0 -205 142 -347t346 -142q203 0 345 142t142 347q0 135 -65 248 t-177 178.5t-245 65.5q-134 0 -246 -65.5t-177 -178.5t-65 -248zM408 1188l251 192h19l252 -192h-60l-200 155l-203 -155h-59z" />
<glyph unicode="&#xe3;" d="M143 512q0 143 70.5 264t191.5 191.5t263 70.5q164 0 297 -90.5t192 -238.5v315h39v-1024h-39v315q-59 -146 -192 -236.5t-297 -90.5q-107 0 -204 41.5t-167.5 111.5t-112 167t-41.5 204zM182 512q0 -205 142 -347t346 -142q203 0 345 142t142 347q0 135 -65 248 t-177 178.5t-245 65.5q-134 0 -246 -65.5t-177 -178.5t-65 -248zM387 1188l21 67q21 66 51 98.5t78 32.5q53 0 98 -49l78 -90q37 -33 71 -33q37 0 58 24.5t37 78.5l14 55h41l-21 -67q-21 -66 -51 -98.5t-78 -32.5q-55 2 -98 49l-78 90q-37 33 -71 33q-37 0 -58 -24.5 t-37 -78.5l-14 -55h-41z" />
<glyph unicode="&#xe4;" d="M143 512q0 143 70.5 264t191.5 191.5t263 70.5q164 0 297 -90.5t192 -238.5v315h39v-1024h-39v315q-59 -146 -192 -236.5t-297 -90.5q-107 0 -204 41.5t-167.5 111.5t-112 167t-41.5 204zM182 512q0 -205 142 -347t346 -142q203 0 345 142t142 347q0 135 -65 248 t-177 178.5t-245 65.5q-134 0 -246 -65.5t-177 -178.5t-65 -248zM434 1221q0 12 9.5 21t21.5 9q13 0 23 -9t10 -21q0 -13 -10 -23t-23 -10q-12 0 -21.5 10t-9.5 23zM844 1221q0 12 9 21t21 9q13 0 23 -9t10 -21q0 -13 -9.5 -23t-23.5 -10q-12 0 -21 10t-9 23z" />
<glyph unicode="&#xe5;" d="M143 512q0 143 70.5 264t191.5 191.5t263 70.5q164 0 297 -90.5t192 -238.5v315h39v-1024h-39v315q-59 -146 -192 -236.5t-297 -90.5q-107 0 -204 41.5t-167.5 111.5t-112 167t-41.5 204zM182 512q0 -205 142 -347t346 -142q203 0 345 142t142 347q0 135 -65 248 t-177 178.5t-245 65.5q-134 0 -246 -65.5t-177 -178.5t-65 -248zM524 1335q0 59 41.5 101.5t102.5 42.5q60 0 102.5 -42.5t42.5 -101.5q0 -61 -42.5 -104t-102.5 -43q-61 0 -102.5 42.5t-41.5 104.5zM565 1335q0 -46 28.5 -78t74.5 -32t76 32.5t30 77.5q0 43 -30 76t-76 33 q-45 0 -74 -33t-29 -76z" />
<glyph unicode="&#xe6;" horiz-adv-x="2312" d="M143 512q0 143 70.5 264t191.5 191.5t263 70.5q164 0 297 -90.5t192 -238.5v315h39v-305q58 144 187.5 231.5t299.5 87.5q167 0 291 -88t178 -233q17 -46 23 -108t-2 -95h-977q0 -227 140.5 -359t371.5 -132q225 -3 399 145l25 -27q-187 -153 -424 -153 q-183 1 -317.5 82.5t-194.5 226.5v-297h-39v315q-59 -146 -192 -236.5t-297 -90.5q-107 0 -204 41.5t-167.5 111.5t-112 167t-41.5 204zM182 512q0 -205 142 -347t346 -142q203 0 345 142t142 347q0 135 -65 248t-177 178.5t-245 65.5q-134 0 -246 -65.5t-177 -178.5 t-65 -248zM1198 549h944q4 84 -22 156q-51 136 -165 217.5t-272 81.5q-203 0 -338 -130t-147 -325z" />
<glyph unicode="&#xe7;" horiz-adv-x="1206" d="M143 512q0 143 70 264t191 191.5t264 70.5q120 0 225 -50.5t180 -139.5l-26 -25q-69 85 -167.5 133t-211.5 48q-133 0 -245.5 -65.5t-177.5 -178.5t-65 -248t65.5 -247.5t177.5 -177t245 -64.5q114 0 213 47.5t166 130.5l24 -25q-73 -89 -178 -138.5t-225 -49.5h-2 l-21 -92q62 18 107 -15.5t45 -101.5q0 -49 -35 -81.5t-84.5 -33.5t-104.5 31v41q40 -33 84 -36.5t72.5 19t28.5 60.5q0 58 -44 77t-118 -10l31 144q-204 15 -344 165t-140 357z" />
<glyph unicode="&#xe8;" horiz-adv-x="1298" d="M143 512q0 144 67 264.5t188 191t270 70.5q168 0 291.5 -87.5t179.5 -233.5q17 -46 22.5 -108.5t-2.5 -94.5h-979q0 -227 140.5 -359t371.5 -132q223 -3 402 145l24 -27q-187 -153 -426 -153q-245 2 -397 144.5t-152 379.5zM182 549h944q4 84 -22 156q-51 137 -164.5 218 t-271.5 81q-203 0 -338.5 -130t-147.5 -325zM506 1368h82l123 -180h-43z" />
<glyph unicode="&#xe9;" horiz-adv-x="1298" d="M143 512q0 144 67 264.5t188 191t270 70.5q168 0 291.5 -87.5t179.5 -233.5q17 -46 22.5 -108.5t-2.5 -94.5h-979q0 -227 140.5 -359t371.5 -132q223 -3 402 145l24 -27q-187 -153 -426 -153q-245 2 -397 144.5t-152 379.5zM182 549h944q4 84 -22 156q-51 137 -164.5 218 t-271.5 81q-203 0 -338.5 -130t-147.5 -325zM625 1188l123 180h81l-161 -180h-43z" />
<glyph unicode="&#xea;" horiz-adv-x="1298" d="M143 512q0 144 67 264.5t188 191t270 70.5q168 0 291.5 -87.5t179.5 -233.5q17 -46 22.5 -108.5t-2.5 -94.5h-979q0 -227 140.5 -359t371.5 -132q223 -3 402 145l24 -27q-187 -153 -426 -153q-245 2 -397 144.5t-152 379.5zM182 549h944q4 84 -22 156q-51 137 -164.5 218 t-271.5 81q-203 0 -338.5 -130t-147.5 -325zM408 1188l251 192h19l252 -192h-60l-200 155l-203 -155h-59z" />
<glyph unicode="&#xeb;" horiz-adv-x="1298" d="M143 512q0 144 67 264.5t188 191t270 70.5q168 0 291.5 -87.5t179.5 -233.5q17 -46 22.5 -108.5t-2.5 -94.5h-979q0 -227 140.5 -359t371.5 -132q223 -3 402 145l24 -27q-187 -153 -426 -153q-245 2 -397 144.5t-152 379.5zM182 549h944q4 84 -22 156q-51 137 -164.5 218 t-271.5 81q-203 0 -338.5 -130t-147.5 -325zM438 1221q0 12 9.5 21t21.5 9q13 0 23 -9t10 -21q0 -13 -10 -23t-23 -10q-12 0 -21.5 10t-9.5 23zM848 1221q0 12 9.5 21t21.5 9q13 0 22.5 -9t9.5 -21q0 -14 -9.5 -23.5t-22.5 -9.5q-12 0 -21.5 10t-9.5 23z" />
<glyph unicode="&#xec;" horiz-adv-x="626" d="M215 1368h84l121 -180h-41zM385 0v1024h37v-1024h-37z" />
<glyph unicode="&#xed;" horiz-adv-x="624" d="M215 1188l123 180h82l-162 -180h-43zM260 0v1024h37v-1024h-37z" />
<glyph unicode="&#xee;" horiz-adv-x="944" d="M215 1188l252 192h18l252 -192h-59l-201 155l-201 -155h-61zM457 0v1024h37v-1024h-37z" />
<glyph unicode="&#xef;" horiz-adv-x="892" d="M215 1221q0 12 9.5 21t21.5 9t21 -9t9 -21q0 -13 -9 -23t-21 -10t-21.5 10t-9.5 23zM436 0v1024h37v-1024h-37zM625 1221q0 12 9 21t21 9q13 0 23 -9t10 -21q0 -13 -10 -23t-23 -10q-12 0 -21 10t-9 23z" />
<glyph unicode="&#xf0;" horiz-adv-x="1398" d="M143 512q0 107 41.5 204t112 167t167.5 111.5t204 41.5q163 0 295.5 -89t193.5 -234l-2 219q0 236 -111 356l-180 -164l-28 27l182 164q-110 96 -305 96q-223 5 -402 -143l-24 26q188 154 426 154q210 0 331 -109l107 95l27 -27l-107 -94q123 -135 123 -381v-422 q0 -143 -67 -263t-188.5 -190.5t-270.5 -70.5q-147 0 -267.5 70.5t-189 191t-68.5 264.5zM182 512q0 -207 139 -349.5t349 -142.5q211 0 349 142t138 350q0 135 -65 248t-177 178.5t-245 65.5q-134 0 -246 -65.5t-177 -178.5t-65 -248z" />
<glyph unicode="&#xf1;" horiz-adv-x="1343" d="M205 0v1024h39v-305q32 85 86 149t118 99.5t128.5 53t128.5 17.5q202 0 323 -123.5t121 -353.5v-561h-39v563q0 217 -108.5 329t-296.5 112q-210 0 -336.5 -144t-126.5 -387v-473h-37zM397 1188l21 67q21 66 51 98.5t78 32.5q53 0 98 -49l78 -90q37 -33 72 -33 q37 0 57.5 24.5t36.5 78.5l14 55h41l-20 -67q-21 -66 -51 -98.5t-78 -32.5q-56 2 -99 49l-78 90q-37 33 -71 33q-37 0 -57.5 -24.5t-36.5 -78.5l-15 -55h-41z" />
<glyph unicode="&#xf2;" horiz-adv-x="1337" d="M143 512q0 143 70 264t191 191.5t264 70.5t264 -70.5t191.5 -191.5t70.5 -264t-70.5 -263.5t-191.5 -190.5t-264 -70t-264 70t-191 190.5t-70 263.5zM182 512q0 -205 142 -347t346 -142q203 0 345 142t142 347q0 135 -65 248t-177 178.5t-245 65.5q-134 0 -246 -65.5 t-177 -178.5t-65 -248zM506 1368h82l123 -180h-43z" />
<glyph unicode="&#xf3;" horiz-adv-x="1337" d="M143 512q0 143 70 264t191 191.5t264 70.5t264 -70.5t191.5 -191.5t70.5 -264t-70.5 -263.5t-191.5 -190.5t-264 -70t-264 70t-191 190.5t-70 263.5zM182 512q0 -205 142 -347t346 -142q203 0 345 142t142 347q0 135 -65 248t-177 178.5t-245 65.5q-134 0 -246 -65.5 t-177 -178.5t-65 -248zM625 1188l123 180h81l-161 -180h-43z" />
<glyph unicode="&#xf4;" horiz-adv-x="1337" d="M143 512q0 143 70 264t191 191.5t264 70.5t264 -70.5t191.5 -191.5t70.5 -264t-70.5 -263.5t-191.5 -190.5t-264 -70t-264 70t-191 190.5t-70 263.5zM182 512q0 -205 142 -347t346 -142q203 0 345 142t142 347q0 135 -65 248t-177 178.5t-245 65.5q-134 0 -246 -65.5 t-177 -178.5t-65 -248zM408 1188l251 192h19l252 -192h-60l-200 155l-203 -155h-59z" />
<glyph unicode="&#xf5;" horiz-adv-x="1337" d="M143 512q0 143 70 264t191 191.5t264 70.5t264 -70.5t191.5 -191.5t70.5 -264t-70.5 -263.5t-191.5 -190.5t-264 -70t-264 70t-191 190.5t-70 263.5zM182 512q0 -205 142 -347t346 -142q203 0 345 142t142 347q0 135 -65 248t-177 178.5t-245 65.5q-134 0 -246 -65.5 t-177 -178.5t-65 -248zM395 1188l21 67q21 66 51 98.5t78 32.5q53 0 98 -49l78 -90q37 -33 72 -33q37 0 57.5 24.5t36.5 78.5l14 55h41l-20 -67q-21 -66 -51 -98.5t-78 -32.5q-56 2 -99 49l-78 90q-37 33 -71 33q-37 0 -57.5 -24.5t-36.5 -78.5l-15 -55h-41z" />
<glyph unicode="&#xf6;" horiz-adv-x="1337" d="M143 512q0 143 70 264t191 191.5t264 70.5t264 -70.5t191.5 -191.5t70.5 -264t-70.5 -263.5t-191.5 -190.5t-264 -70t-264 70t-191 190.5t-70 263.5zM182 512q0 -205 142 -347t346 -142q203 0 345 142t142 347q0 135 -65 248t-177 178.5t-245 65.5q-134 0 -246 -65.5 t-177 -178.5t-65 -248zM438 1221q0 12 9.5 21t21.5 9q13 0 23 -9t10 -21q0 -13 -10 -23t-23 -10q-12 0 -21.5 10t-9.5 23zM848 1221q0 12 9.5 21t21.5 9q13 0 22.5 -9t9.5 -21q0 -14 -9.5 -23.5t-22.5 -9.5q-12 0 -21.5 10t-9.5 23z" />
<glyph unicode="&#xf7;" horiz-adv-x="1136" d="M143 512v33h848v-33h-848zM528 182q0 17 12 29t29 12t29 -12t12 -29t-12 -29t-29 -12t-29 12t-12 29zM528 864q0 17 12 29t29 12t29 -12t12 -29q0 -18 -11.5 -29.5t-29.5 -11.5t-29.5 11.5t-11.5 29.5z" />
<glyph unicode="&#xf8;" horiz-adv-x="1337" d="M143 0l146 150q-146 152 -146 362q0 143 70 264t191 191.5t264 70.5q207 0 354 -137l121 123h51l-145 -150q145 -151 145 -362q0 -143 -70.5 -263.5t-191.5 -190.5t-264 -70q-205 0 -353 135l-120 -123h-52zM182 512q0 -197 131 -338l686 703q-140 127 -329 127 q-134 0 -246 -65.5t-177 -178.5t-65 -248zM340 150q137 -127 330 -127q203 0 345 142t142 347q0 195 -133 338z" />
<glyph unicode="&#xf9;" horiz-adv-x="1333" d="M195 463v561h36v-563q0 -217 109 -329t299 -112q210 0 336.5 144t126.5 387v473h37v-1024h-39v305q-32 -85 -86 -149t-118.5 -99.5t-129 -53t-127.5 -17.5q-202 0 -323 123.5t-121 353.5zM477 1368h82l123 -180h-43z" />
<glyph unicode="&#xfa;" horiz-adv-x="1333" d="M195 463v561h36v-563q0 -217 109 -329t299 -112q210 0 336.5 144t126.5 387v473h37v-1024h-39v305q-32 -85 -86 -149t-118.5 -99.5t-129 -53t-127.5 -17.5q-202 0 -323 123.5t-121 353.5zM596 1188l123 180h82l-162 -180h-43z" />
<glyph unicode="&#xfb;" horiz-adv-x="1333" d="M195 463v561h36v-563q0 -217 109 -329t299 -112q210 0 336.5 144t126.5 387v473h37v-1024h-39v305q-32 -85 -86 -149t-118.5 -99.5t-129 -53t-127.5 -17.5q-202 0 -323 123.5t-121 353.5zM377 1188l252 192h18l252 -192h-59l-201 155l-203 -155h-59z" />
<glyph unicode="&#xfc;" horiz-adv-x="1333" d="M195 463v561h36v-563q0 -217 109 -329t299 -112q210 0 336.5 144t126.5 387v473h37v-1024h-39v305q-32 -85 -86 -149t-118.5 -99.5t-129 -53t-127.5 -17.5q-202 0 -323 123.5t-121 353.5zM420 1221q0 12 9.5 21t21.5 9q13 0 22.5 -9t9.5 -21q0 -14 -9.5 -23.5t-22.5 -9.5 q-12 0 -21.5 10t-9.5 23zM829 1221q0 12 9.5 21t21.5 9q13 0 23 -9t10 -21q0 -13 -9.5 -23t-23.5 -10q-12 0 -21.5 10t-9.5 23z" />
<glyph unicode="&#xfd;" horiz-adv-x="1343" d="M205 461v563h37v-563q0 -217 108.5 -329t298.5 -112q210 0 336.5 144t126.5 387v473h37v-899q0 -244 -121.5 -379.5t-359.5 -136.5q-239 0 -426 153l24 27q178 -148 402 -145q224 0 334 124.5t110 358.5v178q-32 -85 -86 -149t-118.5 -99.5t-129.5 -53t-129 -17.5 q-202 0 -323 123t-121 352zM606 1188l123 180h82l-162 -180h-43z" />
<glyph unicode="&#xfe;" horiz-adv-x="1411" d="M215 -377v1811h37v-725q61 147 193.5 238t297.5 91q142 0 263 -70.5t191.5 -191.5t70.5 -264q0 -107 -41.5 -204t-112 -167t-167.5 -111.5t-204 -41.5q-165 0 -297.5 90.5t-193.5 238.5v-694h-37zM256 512q0 -205 142 -347t345 -142q204 0 346 142t142 347q0 135 -65 248 t-177 178.5t-246 65.5q-133 0 -245 -65.5t-177 -178.5t-65 -248z" />
<glyph unicode="&#xff;" horiz-adv-x="1343" d="M205 461v563h37v-563q0 -217 108.5 -329t298.5 -112q210 0 336.5 144t126.5 387v473h37v-899q0 -244 -121.5 -379.5t-359.5 -136.5q-239 0 -426 153l24 27q178 -148 402 -145q224 0 334 124.5t110 358.5v178q-32 -85 -86 -149t-118.5 -99.5t-129.5 -53t-129 -17.5 q-202 0 -323 123t-121 352zM416 1221q0 12 9 21t21 9q13 0 23 -9t10 -21q0 -13 -9.5 -23t-23.5 -10q-12 0 -21 10t-9 23zM825 1221q0 12 9.5 21t21.5 9q13 0 23 -9t10 -21q0 -13 -9.5 -23t-23.5 -10q-12 0 -21.5 10t-9.5 23z" />
<glyph unicode="&#x152;" horiz-adv-x="2570" d="M164 717q0 148 57.5 283.5t155 233.5t233 156t283.5 58q238 0 428 -138t266 -356v480h858v-33h-821v-656h786v-32h-786v-680h821v-33h-858v479q-76 -219 -265.5 -356t-428.5 -137q-198 0 -366 97.5t-265.5 265.5t-97.5 368zM201 717q0 -144 54.5 -273.5t147 -223 t220.5 -148t270 -54.5t270.5 54.5t221.5 148t147.5 223t54.5 273.5q0 143 -54.5 272.5t-147.5 222.5t-221.5 148t-270.5 55t-270 -55t-220.5 -148t-147 -222.5t-54.5 -272.5z" />
<glyph unicode="&#x153;" horiz-adv-x="2310" d="M143 512q0 143 70 264t191 191.5t264 70.5q178 0 318 -107t188 -274q47 169 183.5 275t323.5 106q167 0 291 -88t178 -233q17 -46 23 -108t-2 -95h-977q0 -227 140.5 -359t371.5 -132q225 -3 399 145l25 -27q-187 -153 -424 -153q-203 2 -345.5 101.5t-186.5 272.5 q-50 -165 -189 -269.5t-317 -104.5q-143 0 -264 70t-191 190.5t-70 263.5zM182 512q0 -205 142 -347t346 -142q203 0 345 142t142 347q0 135 -65 248t-177 178.5t-245 65.5q-134 0 -246 -65.5t-177 -178.5t-65 -248zM1196 549h944q4 84 -22 156q-51 136 -165 217.5 t-272 81.5q-203 0 -338 -130t-147 -325z" />
<glyph unicode="&#x178;" horiz-adv-x="1402" d="M102 1434h43l557 -893l555 893h43l-581 -930v-504h-37v502zM467 1567q0 13 9.5 22.5t21.5 9.5q14 0 23 -9.5t9 -22.5q0 -12 -9.5 -21.5t-22.5 -9.5q-12 0 -21.5 9.5t-9.5 21.5zM874 1567q0 13 9.5 22.5t21.5 9.5q14 0 23.5 -9.5t9.5 -22.5q0 -12 -10 -21.5t-23 -9.5 q-12 0 -21.5 9.5t-9.5 21.5z" />
<glyph unicode="&#x2c6;" horiz-adv-x="811" d="M143 1239l252 193h19l252 -193h-60l-200 156l-203 -156h-60z" />
<glyph unicode="&#x2dc;" horiz-adv-x="833" d="M143 1249l21 70q21 65 51.5 97t77.5 32q53 0 98 -49l78 -88q35 -35 72 -35t57.5 24t36.5 78l14 56h41l-20 -68q-21 -66 -51 -97.5t-78 -31.5q-57 0 -99 49l-77 88q-33 33 -72 33q-37 0 -57.5 -23.5t-36.5 -78.5l-15 -56h-41z" />
<glyph unicode="&#x2000;" horiz-adv-x="913" />
<glyph unicode="&#x2001;" horiz-adv-x="1827" />
<glyph unicode="&#x2002;" horiz-adv-x="913" />
<glyph unicode="&#x2003;" horiz-adv-x="1827" />
<glyph unicode="&#x2004;" horiz-adv-x="609" />
<glyph unicode="&#x2005;" horiz-adv-x="456" />
<glyph unicode="&#x2006;" horiz-adv-x="304" />
<glyph unicode="&#x2007;" horiz-adv-x="304" />
<glyph unicode="&#x2008;" horiz-adv-x="228" />
<glyph unicode="&#x2009;" horiz-adv-x="365" />
<glyph unicode="&#x200a;" horiz-adv-x="101" />
<glyph unicode="&#x2010;" horiz-adv-x="796" d="M143 573v39h508v-39h-508z" />
<glyph unicode="&#x2011;" horiz-adv-x="796" d="M143 573v39h508v-39h-508z" />
<glyph unicode="&#x2012;" horiz-adv-x="796" d="M143 573v39h508v-39h-508z" />
<glyph unicode="&#x2013;" horiz-adv-x="1050" d="M143 573v39h762v-39h-762z" />
<glyph unicode="&#x2014;" horiz-adv-x="1394" d="M143 573v39h1106v-39h-1106z" />
<glyph unicode="&#x2018;" horiz-adv-x="421" d="M143 1178l113 256h20l-71 -256h-62z" />
<glyph unicode="&#x2019;" horiz-adv-x="421" d="M143 1178l72 256h61l-110 -256h-23z" />
<glyph unicode="&#x201a;" horiz-adv-x="421" d="M143 -188l72 256h61l-110 -256h-23z" />
<glyph unicode="&#x201c;" horiz-adv-x="550" d="M143 1178l113 256h20l-71 -256h-62zM272 1178l113 256h21l-72 -256h-62z" />
<glyph unicode="&#x201d;" horiz-adv-x="550" d="M143 1178l72 256h61l-110 -256h-23zM272 1178l72 256h62l-111 -256h-23z" />
<glyph unicode="&#x201e;" horiz-adv-x="550" d="M143 -188l72 256h61l-110 -256h-23zM272 -188l72 256h62l-111 -256h-23z" />
<glyph unicode="&#x2022;" horiz-adv-x="731" d="M143 639q0 92 65 156.5t157 64.5q93 0 157 -64t64 -157t-64 -157t-157 -64q-92 0 -157 64.5t-65 156.5z" />
<glyph unicode="&#x2026;" horiz-adv-x="1060" d="M143 27q0 17 12 29t29 12t29 -12t12 -29t-12 -29t-29 -12t-29 12t-12 29zM489 27q0 17 12 29t29 12t29 -12t12 -29t-12 -29t-29 -12t-29 12t-12 29zM836 27q0 17 12 29t29 12t29 -12t12 -29t-12 -29t-29 -12t-29 12t-12 29z" />
<glyph unicode="&#x202f;" horiz-adv-x="365" />
<glyph unicode="&#x2039;" horiz-adv-x="555" d="M143 571l269 211v-51l-207 -162l207 -159v-50z" />
<glyph unicode="&#x203a;" horiz-adv-x="555" d="M143 360v50l205 159l-205 162v51l269 -211z" />
<glyph unicode="&#x205f;" horiz-adv-x="456" />
<glyph unicode="&#x20ac;" horiz-adv-x="1755" d="M143 561v35h207q-10 65 -10 121q0 68 12 129h-209v35h215q56 247 254 407t457 160q158 0 298.5 -63.5t242.5 -176.5l-25 -22q-97 108 -230.5 168.5t-285.5 60.5q-245 0 -432.5 -150t-241.5 -384h891l-37 -35h-860q-12 -62 -12 -129q0 -56 10 -121h614l-36 -35h-572 q53 -237 241 -390t435 -153q153 0 286 60.5t230 169.5l25 -27q-102 -111 -242 -173t-299 -62q-172 0 -323 74.5t-252.5 205.5t-137.5 295h-213z" />
<glyph unicode="&#x2122;" horiz-adv-x="1587" d="M143 1399v35h578v-35h-270v-600h-39v600h-269zM782 799v635h15l315 -344l318 344h12v-635h-39v555l-291 -320l-291 320v-555h-39z" />
<glyph unicode="&#x25fc;" horiz-adv-x="1024" d="M0 0v1024h1024v-1024h-1024z" />
</font>
</defs>
</svg>
