<?xml version="1.0" standalone="no"?>
<!DOCTYPE svg PUBLIC "-//W3C//DTD SVG 1.1//EN" "http://www.w3.org/Graphics/SVG/1.1/DTD/svg11.dtd" >
<svg xmlns="http://www.w3.org/2000/svg" xmlns:xlink="http://www.w3.org/1999/xlink" version="1.1">
<metadata></metadata>
<defs>
<font id="acromextrabold" horiz-adv-x="1294" >
<font-face units-per-em="2048" ascent="1536" descent="-512" />
<missing-glyph horiz-adv-x="710" />
<glyph horiz-adv-x="0" />
<glyph horiz-adv-x="682" />
<glyph unicode=" "  horiz-adv-x="710" />
<glyph unicode="&#x09;" horiz-adv-x="710" />
<glyph unicode="&#xa0;" horiz-adv-x="710" />
<glyph unicode="!" horiz-adv-x="579" d="M104 150q0 69 54 116t131 47q78 0 132 -47t54 -116t-54 -116.5t-132 -47.5q-77 0 -131 47.5t-54 116.5zM117 911v523h348v-519l-29 -499h-291z" />
<glyph unicode="&#x22;" horiz-adv-x="722" d="M104 1434h215l-20 -402h-174zM403 1434h215l-20 -402h-174z" />
<glyph unicode="#" horiz-adv-x="1396" d="M104 414l37 176h226l55 252h-227l38 176h226l88 416h196l-88 -416h213l88 416h199l-90 -416h227l-37 -176h-227l-53 -252h225l-37 -176h-227l-88 -414h-197l88 414h-213l-88 -414h-196l88 414h-226zM565 590h213l53 252h-213z" />
<glyph unicode="$" horiz-adv-x="1419" d="M104 262l228 209q112 -108 272 -143v260q-99 14 -180 42.5t-148 76t-104 121t-37 167.5q0 186 130 305.5t339 143.5v92h195v-96q245 -36 473 -230l-228 -209q-123 75 -245 103v-209q114 -14 202.5 -43.5t161 -81.5t111.5 -135.5t39 -194.5q0 -195 -140.5 -314.5 t-373.5 -137.5v-88h-195v94q-158 23 -286 96.5t-214 171.5zM483 1006q0 -70 121 -88v194q-121 -21 -121 -106zM799 317q166 18 166 123q0 56 -43.5 83.5t-122.5 41.5v-248z" />
<glyph unicode="%" horiz-adv-x="1697" d="M104 1108q0 142 104 241t255 99q153 0 256.5 -99t103.5 -241t-103.5 -240t-256.5 -98q-152 0 -255.5 98t-103.5 240zM330 1108q0 -61 39 -98t96 -37q56 0 94.5 37t38.5 98t-38.5 98t-94.5 37q-57 0 -96 -37t-39 -98zM381 0l739 1434h197l-739 -1434h-197zM874 326 q0 141 104 240.5t255 99.5q152 0 256 -99.5t104 -240.5q0 -142 -103.5 -241t-256.5 -99q-151 0 -255 99t-104 241zM1098 326q0 -62 39 -100t96 -38q56 0 94.5 38.5t38.5 99.5q0 60 -38.5 97.5t-94.5 37.5q-57 0 -96 -37.5t-39 -97.5z" />
<glyph unicode="&#x26;" horiz-adv-x="1427" d="M104 420q0 111 59.5 197.5t155.5 127.5l-30 33q-62 69 -96.5 138t-34.5 153q0 50 14.5 98.5t48 94.5t81.5 81t121 56.5t161 21.5h28q136 0 238.5 -60.5t152.5 -154.5t50 -205v-30h-330q0 64 -33.5 98.5t-95.5 34.5q-47 0 -82 -29.5t-35 -79.5q0 -33 11.5 -59t41.5 -59 l357 -392q16 50 16 99h236q0 -170 -64 -310l248 -274h-330l-78 84q-120 -84 -301 -84h-12q-123 0 -220 33.5t-156.5 91.5t-90.5 133t-31 162zM434 489q0 -77 52 -124.5t135 -47.5q41 0 73 13l-225 248q-35 -40 -35 -89z" />
<glyph unicode="'" horiz-adv-x="423" d="M104 1434h215l-20 -402h-174z" />
<glyph unicode="(" horiz-adv-x="784" d="M104 606v37q0 113 34.5 232t102.5 238t181 229.5t258 191.5v-330q-64 -69 -110.5 -148.5t-70 -154.5t-34 -138t-10.5 -120v-37q0 -128 51.5 -278.5t173.5 -284.5v-330q-145 81 -258 191.5t-181 229.5t-102.5 238.5t-34.5 233.5z" />
<glyph unicode=")" horiz-adv-x="784" d="M104 43q122 134 174 284.5t52 278.5v37q0 79 -17.5 164t-71 195.5t-137.5 201.5v330q144 -81 257 -191.5t181 -229.5t102.5 -238t35.5 -232v-37q0 -114 -34.5 -233.5t-103 -238.5t-181 -229t-257.5 -192v330z" />
<glyph unicode="*" horiz-adv-x="1005" d="M104 1102l46 170l286 -103l-22 301h176l-23 -303l287 105l47 -170l-299 -58l234 -241l-136 -113l-198 281l-201 -281l-133 113l233 241z" />
<glyph unicode="+" horiz-adv-x="1058" d="M104 436v197h316v325h217v-325h315v-197h-315v-325h-217v325h-316z" />
<glyph unicode="," horiz-adv-x="739" d="M104 -324l199 637h332l-293 -637h-238z" />
<glyph unicode="-" horiz-adv-x="718" d="M104 492v194h508v-194h-508z" />
<glyph unicode="." horiz-adv-x="579" d="M104 150q0 69 54 116t131 47q78 0 132 -47t54 -116t-54 -116.5t-132 -47.5q-77 0 -131 47.5t-54 116.5z" />
<glyph unicode="/" horiz-adv-x="856" d="M104 0l449 1434h197l-449 -1434h-197z" />
<glyph unicode="0" horiz-adv-x="1648" d="M106 702q0 146 56.5 278.5t152.5 228.5t229 153t279 57t279.5 -57t229.5 -153t153 -228.5t57 -278.5q0 -195 -96.5 -360t-262 -260.5t-360.5 -95.5t-360 95.5t-261 260.5t-96 360zM457 702q0 -175 103.5 -281t262.5 -106q160 0 264.5 106t104.5 281q0 174 -104.5 281 t-264.5 107q-158 0 -262 -107t-104 -281z" />
<glyph unicode="1" horiz-adv-x="989" d="M84 811l491 592h209v-1403h-348v797l-129 -156z" />
<glyph unicode="2" horiz-adv-x="1304" d="M104 0v211l570 467q49 38 79 66t58.5 74.5t28.5 92.5q0 84 -50.5 131t-134.5 50h-10q-53 0 -119 -32t-170 -110l-225 209q284 260 545 260h12q125 -1 223 -39t155.5 -101t86.5 -137.5t29 -156.5q0 -156 -99 -291.5t-295 -285.5l-96 -80h510v-328h-1098z" />
<glyph unicode="3" horiz-adv-x="1341" d="M104 229l228 209q116 -73 194.5 -98t157.5 -25h16q94 0 152.5 51t58.5 123q0 85 -55.5 133t-169.5 48q-29 0 -60.5 -7.5t-48.5 -13.5t-45.5 -19.5t-29.5 -13.5l-162 123l328 336h-435v328h936v-207l-333 -346q29 0 59 -6q164 -30 254 -142.5t90 -265.5q0 -89 -30 -166.5 t-91 -141.5t-166.5 -102.5t-244.5 -39.5h-15q-308 0 -588 243z" />
<glyph unicode="4" horiz-adv-x="1284" d="M84 199v209l782 995h209v-875h127v-329h-127v-199h-348v199h-643zM485 528h242v318z" />
<glyph unicode="5" horiz-adv-x="1333" d="M104 229l228 209q118 -74 190 -98.5t148 -24.5h16q90 0 152.5 49t62.5 136q0 91 -62.5 141.5t-172.5 50.5q-52 0 -105 -15t-83.5 -30.5t-66 -37.5t-38.5 -23l-160 123v694h881v-328h-574v-196q14 12 40 24.5t83 26.5t121 14q116 0 206.5 -36t146.5 -100.5t85 -149 t29 -185.5q0 -71 -18.5 -138t-60.5 -130.5t-103.5 -111t-155 -77t-207.5 -30.5h-12q-166 0 -300.5 63t-269.5 180z" />
<glyph unicode="6" horiz-adv-x="1269" d="M104 612v54q0 345 163 549t427 204h11q81 -1 150 -17t122.5 -45t91 -58.5t76.5 -69.5l-227 -209q-67 41 -115 55.5t-103 16.5h-6q-91 0 -162 -72t-92 -201q41 61 112.5 96t166.5 35q90 0 170.5 -30.5t142.5 -87t98.5 -146.5t36.5 -201q0 -92 -32.5 -179.5t-93.5 -159.5 t-161 -116t-223 -44q-154 0 -279.5 76.5t-199.5 220.5t-74 329zM453 487q0 -77 51.5 -124.5t130.5 -47.5q80 0 132 46.5t52 123.5q0 75 -52.5 122.5t-131.5 47.5q-78 0 -130 -47t-52 -121z" />
<glyph unicode="7" horiz-adv-x="1159" d="M84 0l561 1075h-561v328h991v-207l-620 -1196h-371z" />
<glyph unicode="8" horiz-adv-x="1241" d="M104 420q0 112 60.5 198t159.5 125q-177 107 -177 301q0 50 16 100.5t52.5 100.5t88.5 88.5t130.5 62t173.5 23.5h27q95 0 173.5 -23.5t130.5 -62t88.5 -88.5t52.5 -100.5t16 -100.5q0 -195 -176 -301q98 -39 158.5 -125.5t60.5 -197.5q0 -92 -32.5 -170t-95 -137.5 t-161.5 -93t-223 -33.5h-13q-245 0 -377.5 122t-132.5 312zM434 479q0 -76 52 -123t135 -47t134.5 47t51.5 123q0 78 -51 124t-135 46q-80 0 -133.5 -45.5t-53.5 -124.5zM475 979q0 -62 40 -97.5t106 -35.5t105.5 35.5t39.5 97.5t-39.5 97.5t-105.5 35.5t-106 -35.5 t-40 -97.5z" />
<glyph unicode="9" horiz-adv-x="1269" d="M104 920q0 92 32.5 179.5t93.5 159.5t161 116t223 44q154 0 279.5 -76.5t199.5 -220.5t74 -329v-52q0 -347 -162.5 -551t-426.5 -204h-11q-81 1 -150 17t-122.5 45t-91 58.5t-76.5 69.5l227 209q67 -41 114.5 -55.5t100.5 -14.5h9q91 0 161.5 71.5t91.5 199.5 q-89 -131 -278 -131q-90 0 -170.5 30.5t-143 87t-99 146.5t-36.5 201zM453 920q0 -75 52.5 -122.5t131.5 -47.5q78 0 130 47t52 121q0 77 -51.5 124.5t-130.5 47.5q-80 0 -132 -46.5t-52 -123.5z" />
<glyph unicode=":" horiz-adv-x="579" d="M104 150q0 69 54 116t131 47q78 0 132 -47t54 -116t-54 -116.5t-132 -47.5q-77 0 -131 47.5t-54 116.5zM104 838q0 67 54 115t131 48q78 0 132 -47.5t54 -115.5q0 -69 -54 -116.5t-132 -47.5q-77 0 -131 47.5t-54 116.5z" />
<glyph unicode=";" horiz-adv-x="778" d="M104 -324l199 637h332l-293 -637h-238zM303 838q0 68 54 115.5t130 47.5q78 0 132.5 -47.5t54.5 -115.5q0 -69 -54.5 -116.5t-132.5 -47.5q-77 0 -130.5 47.5t-53.5 116.5z" />
<glyph unicode="&#x3c;" horiz-adv-x="995" d="M104 700l787 414v-278l-283 -138l283 -135v-278z" />
<glyph unicode="=" horiz-adv-x="1058" d="M104 279v194h848v-194h-848zM104 565v195h848v-195h-848z" />
<glyph unicode="&#x3e;" horiz-adv-x="995" d="M104 285v278l283 135l-283 138v278l787 -414z" />
<glyph unicode="?" horiz-adv-x="1345" d="M104 1204q285 244 588 244h17q138 -2 243.5 -40.5t166 -102.5t90.5 -141t30 -165q0 -178 -111 -288t-294 -144v-166h-349v355q80 -8 142 -3.5t107 11.5t76.5 24t51.5 33.5t30.5 40t14.5 43t4 43.5q0 73 -59 121.5t-154 48.5h-14q-77 0 -156 -25.5t-196 -97.5zM475 150 q0 69 53.5 116t130.5 47q78 0 132.5 -47t54.5 -116t-54.5 -116.5t-132.5 -47.5q-77 0 -130.5 47.5t-53.5 116.5z" />
<glyph unicode="@" horiz-adv-x="1869" d="M104 522q0 169 65.5 323t176 265.5t264.5 177.5t324 66q168 0 321.5 -63.5t265 -170.5t178 -256t66.5 -313v-51q0 -185 -89.5 -297.5t-248.5 -112.5q-156 0 -235 98l-10 23q-111 -131 -287 -131q-177 0 -291.5 124.5t-114.5 307.5t114.5 308.5t291.5 125.5q151 0 250 -96 l16 84h170v-518q0 -60 28 -93.5t73 -33.5q51 0 79.5 43t28.5 166v45q0 115 -36 214.5t-96 170t-138.5 121.5t-164 75.5t-171.5 24.5q-88 0 -174.5 -25.5t-164 -78.5t-136.5 -126t-94 -176.5t-35 -222.5t35 -221.5t94 -175t136.5 -124t164 -76.5t174.5 -25q199 0 354 114 l150 -149q-226 -170 -504 -170q-170 0 -323.5 65t-264.5 176t-176.5 264.5t-65.5 323.5zM750 512q0 -83 51.5 -131.5t120.5 -48.5q68 0 120 48.5t52 131.5t-52 132.5t-120 49.5q-69 0 -120.5 -49.5t-51.5 -132.5z" />
<glyph unicode="A" horiz-adv-x="1538" d="M84 0l586 1434h209l577 -1434h-387l-74 199h-450l-74 -199h-387zM666 528h208l-104 279z" />
<glyph unicode="B" horiz-adv-x="1417" d="M207 0v1434h569q121 0 213.5 -28.5t144 -70.5t84 -98t42.5 -101.5t10 -91.5q0 -114 -49.5 -188.5t-126.5 -112.5q97 -25 158 -113.5t61 -209.5q0 -71 -16 -130.5t-55.5 -114t-101 -92.5t-157 -60.5t-217.5 -22.5h-559zM555 330h285q76 0 110.5 38.5t34.5 90.5 q0 50 -35 88.5t-110 38.5h-285v-256zM555 885h260q36 0 62 11.5t39 29.5t18.5 35t5.5 34t-5.5 34t-18 35.5t-38.5 30t-63 11.5h-260v-221z" />
<glyph unicode="C" horiz-adv-x="1480" d="M106 717q0 148 58 283.5t155.5 233.5t233 156t283.5 58q156 0 296 -63.5t244 -174.5l-225 -209q-131 119 -315 119q-163 0 -272 -111t-109 -292t109 -291.5t272 -110.5q186 0 315 117l225 -209q-104 -111 -243.5 -174t-296.5 -63q-148 0 -283.5 58t-233 156t-155.5 233.5 t-58 283.5z" />
<glyph unicode="D" horiz-adv-x="1564" d="M207 0v1434h522q200 0 366.5 -92.5t264.5 -257.5t98 -367q0 -203 -98 -368t-264.5 -257t-366.5 -92h-522zM555 330h174q168 0 274.5 101.5t106.5 285.5q0 183 -107 286t-274 103h-174v-776z" />
<glyph unicode="E" horiz-adv-x="1292" d="M207 0v1434h981v-328h-633v-223h578v-330h-578v-223h633v-330h-981z" />
<glyph unicode="F" horiz-adv-x="1292" d="M207 0v1434h981v-328h-633v-223h578v-330h-578v-553h-348z" />
<glyph unicode="G" horiz-adv-x="1562" d="M106 715q0 148 58 283.5t155.5 233.5t233 156t283.5 58q156 0 296 -63.5t244 -174.5l-225 -209q-131 119 -315 119q-163 0 -272 -111t-109 -292t109 -291.5t272 -110.5q105 0 192 41v197h-192v262h540v-592q-104 -111 -243.5 -174t-296.5 -63q-148 0 -283.5 58t-233 156 t-155.5 233.5t-58 283.5z" />
<glyph unicode="H" horiz-adv-x="1554" d="M207 0v1434h348v-551h444v551h349v-1434h-349v553h-444v-553h-348z" />
<glyph unicode="I" horiz-adv-x="1112" d="M207 0v330h174v776h-174v328h696v-328h-174v-776h174v-330h-696z" />
<glyph unicode="J" horiz-adv-x="1257" d="M106 543v92h349v-141q0 -86 54 -132.5t120 -46.5q67 0 120.5 46t53.5 133v612h-383v328h731v-891q0 -101 -20 -185.5t-57 -144.5t-85 -104.5t-107.5 -71t-122 -39t-130.5 -12.5q-83 0 -157 17.5t-142 59t-117 104t-78 159t-29 217.5z" />
<glyph unicode="K" horiz-adv-x="1556" d="M207 0v1434h348v-541h76q53 0 83.5 19.5t65.5 72.5l287 449h391l-350 -551q-36 -49 -69 -83.5t-46 -44t-35 -24.5q21 -12 36 -22.5t47.5 -47.5t68.5 -94l363 -567h-394l-297 465q-34 53 -65 72.5t-84 19.5h-78v-557h-348z" />
<glyph unicode="L" horiz-adv-x="1236" d="M207 0v1434h348v-1104h598v-330h-946z" />
<glyph unicode="M" horiz-adv-x="1841" d="M186 0v1434h209l514 -639l516 639h209v-1434h-348v803l-377 -461l-374 461v-803h-349z" />
<glyph unicode="N" horiz-adv-x="1523" d="M186 0v1434h209l594 -789v789h348v-1434h-209l-593 788v-788h-349z" />
<glyph unicode="O" horiz-adv-x="1673" d="M106 717q0 148 58 283.5t155.5 233.5t233 156t283.5 58t283.5 -58t233.5 -156t156 -233.5t58 -283.5q0 -200 -98 -368t-266.5 -265.5t-366.5 -97.5t-366 97.5t-266 265.5t-98 368zM455 717q0 -182 108.5 -292t272.5 -110q165 0 274 110t109 292q0 181 -109 292t-274 111 q-163 0 -272 -111t-109 -292z" />
<glyph unicode="P" horiz-adv-x="1439" d="M207 0v1434h483q153 0 277 -45.5t203 -123.5t121 -179.5t42 -217.5t-42 -218t-121 -179.5t-203 -122.5t-277 -45h-135v-303h-348zM555 633h162q77 0 140 23t105 78t42 134q0 112 -84.5 175t-202.5 63h-162v-473z" />
<glyph unicode="Q" horiz-adv-x="1767" d="M106 717q0 148 58 283.5t155.5 233.5t233 156t283.5 58t283.5 -58t233.5 -156t156 -233.5t58 -283.5q0 -229 -133 -402h227v-329h-825q-198 0 -366 97.5t-266 265.5t-98 368zM455 717q0 -182 108.5 -292t272.5 -110q165 0 274 110t109 292q0 181 -109 292t-274 111 q-163 0 -272 -111t-109 -292z" />
<glyph unicode="R" horiz-adv-x="1452" d="M207 0v1434h504q153 0 273.5 -45t195.5 -122.5t114 -176t39 -211.5q0 -150 -72.5 -266t-207.5 -179q67 -52 202 -258l113 -176h-391l-80 123q-76 118 -103 146q-42 44 -109 52q-19 2 -44 3h-86v-324h-348zM555 653h188q118 0 189.5 57t71.5 169q0 107 -72.5 167 t-188.5 60h-188v-453z" />
<glyph unicode="S" horiz-adv-x="1415" d="M104 262l228 209q62 -60 164 -109t233 -49h10q109 1 167.5 34.5t58.5 92.5q0 25 -8.5 44.5t-27 32.5t-37 22t-49 16t-52.5 10.5t-58 7.5l-94 11q-105 11 -191.5 38.5t-159 75t-113 123.5t-40.5 174q0 136 72.5 239.5t197 157.5t281.5 56h14q145 0 294.5 -65t277.5 -173 l-228 -209q-82 50 -183 84.5t-161 34.5h-14q-30 0 -59.5 -4t-64.5 -14.5t-57 -35t-22 -60.5q0 -19 8 -34t26 -25t34 -17t44.5 -12t45.5 -7.5t47 -5.5l92 -8q93 -10 169 -30t145.5 -55.5t116.5 -85t74.5 -122.5t27.5 -164q0 -207 -158.5 -329t-415.5 -125h-10 q-201 0 -360.5 79t-264.5 197z" />
<glyph unicode="T" horiz-adv-x="1247" d="M84 1106v328h1081v-328h-366v-1106h-348v1106h-367z" />
<glyph unicode="U" horiz-adv-x="1554" d="M207 592v842h348v-832q0 -71 15.5 -124t39 -83.5t56 -49t61 -24.5t59.5 -6q40 0 76 11t73.5 39.5t60 89t22.5 147.5v832h348v-842q0 -122 -33.5 -224.5t-89.5 -172t-131.5 -117.5t-157.5 -70t-168 -22t-168 22t-157 70t-131 117.5t-89.5 172t-33.5 224.5z" />
<glyph unicode="V" horiz-adv-x="1540" d="M84 1434h387l301 -797l299 797h387l-579 -1434h-207z" />
<glyph unicode="W" horiz-adv-x="2338" d="M84 1434h387l297 -797l299 797h207l299 -797l297 797h387l-584 -1434h-209l-295 729l-292 -729h-209z" />
<glyph unicode="X" horiz-adv-x="1529" d="M84 0l487 752l-452 682h397l254 -377l246 377h395l-450 -697l485 -737h-395l-289 432l-283 -432h-395z" />
<glyph unicode="Y" horiz-adv-x="1499" d="M84 1434h395l271 -529l272 529h395l-493 -961v-473h-349v473z" />
<glyph unicode="Z" horiz-adv-x="1280" d="M104 0v209l576 897h-528v328h1005v-209l-573 -895h594v-330h-1074z" />
<glyph unicode="[" horiz-adv-x="692" d="M104 -287v1823h482v-330h-133v-1163h133v-330h-482z" />
<glyph unicode="\" horiz-adv-x="856" d="M104 1434h197l449 -1434h-197z" />
<glyph unicode="]" horiz-adv-x="692" d="M104 43h134v1163h-134v330h482v-1823h-482v330z" />
<glyph unicode="^" horiz-adv-x="1034" d="M104 801l412 631l412 -631h-199l-213 327l-213 -327h-199z" />
<glyph unicode="_" horiz-adv-x="1058" d="M104 -88h850v-145h-850v145z" />
<glyph unicode="`" horiz-adv-x="729" d="M104 1530h332l189 -332h-238z" />
<glyph unicode="a" d="M104 512q0 145 61.5 265t175 190.5t255.5 70.5q180 0 303 -114l19 100h208v-1024h-208l-21 100q-122 -112 -301 -112q-142 0 -255.5 70t-175 189.5t-61.5 264.5zM424 512q0 -99 62 -157t143 -58t143 58t62 157t-62 158t-143 59t-143 -59t-62 -158z" />
<glyph unicode="b" d="M166 0v1434h319v-453q93 57 211 57q142 0 255.5 -70.5t175 -190.5t61.5 -265t-61.5 -264.5t-175 -189.5t-255.5 -70q-179 0 -301 112l-18 -100h-211zM459 512q0 -98 62.5 -156.5t142.5 -58.5q82 0 143 58t61 157t-61 158t-143 59q-80 0 -142.5 -59.5t-62.5 -157.5z" />
<glyph unicode="c" horiz-adv-x="1128" d="M104 512q0 143 70 263.5t191 190.5t264 70q119 0 224.5 -50t178.5 -138l-190 -207q-59 50 -106.5 68t-106.5 18q-81 0 -143 -58t-62 -157t62 -157t143 -58q59 0 106.5 18t106.5 68l190 -207q-73 -88 -178.5 -138t-224.5 -50q-143 0 -264 70t-191 190.5t-70 263.5z" />
<glyph unicode="d" d="M104 512q0 145 61.5 265t175 190.5t255.5 70.5q118 0 211 -57v453h319v-1434h-208l-21 100q-122 -112 -301 -112q-142 0 -255.5 70t-175 189.5t-61.5 264.5zM424 512q0 -99 62 -157t143 -58t143 58t62 157t-62 158t-143 59t-143 -59t-62 -158z" />
<glyph unicode="e" horiz-adv-x="1198" d="M104 512q0 147 60 265.5t178 189.5t276 71q159 0 271.5 -68t173.5 -196q36 -76 39 -178v-20q0 -90 -25 -156h-643q0 -66 55 -103.5t132 -37.5q155 0 284 53l166 -182q-221 -162 -450 -162q-150 0 -269 70t-183.5 189t-64.5 265zM446 621h342q0 32 -24 59q-47 65 -146 65 q-73 0 -121.5 -39.5t-50.5 -84.5z" />
<glyph unicode="f" horiz-adv-x="835" d="M104 715v309h132v25q0 198 126 305q112 94 290 94q23 0 48 -2l33 -2v-291h-18q-85 0 -123.5 -23t-38.5 -90v-16h180v-309h-184v-717h-320v717h-125z" />
<glyph unicode="g" horiz-adv-x="1284" d="M94 530q0 136 61.5 251.5t175 186t255.5 70.5q178 0 303 -112l18 98h209v-891q0 -147 -63 -265.5t-183 -188.5t-276 -70q-267 0 -459 162l178 192q155 -63 281 -63q86 0 142.5 40t56.5 117v23q-92 -53 -207 -53q-142 0 -255.5 69.5t-175 184t-61.5 249.5zM414 530 q0 -86 62 -140t142 -54t142.5 54t62.5 140q0 87 -63 143t-142 56t-141.5 -56t-62.5 -143z" />
<glyph unicode="h" horiz-adv-x="1337" d="M176 0v1434h320v-463q88 67 235 67q221 0 335 -137t114 -366v-535h-320v516q0 115 -46 164t-134 49q-89 0 -136.5 -51t-47.5 -168v-510h-320z" />
<glyph unicode="i" horiz-adv-x="712" d="M176 1260q0 68 54 115.5t130 47.5q77 0 131 -48t54 -115q0 -69 -54 -116.5t-131 -47.5t-130.5 47.5t-53.5 116.5zM201 0v1024h319v-1024h-319z" />
<glyph unicode="j" horiz-adv-x="712" d="M176 1260q0 68 54 115.5t130 47.5q77 0 131 -48t54 -115q0 -69 -54 -116.5t-131 -47.5t-130.5 47.5t-53.5 116.5zM199 -377v1401h321v-1401h-321z" />
<glyph unicode="k" horiz-adv-x="1269" d="M176 0v1434h320v-754h24q53 0 84.5 19t65.5 71l164 254h354l-248 -377q-26 -38 -64 -75.5t-63 -47.5q26 -9 64.5 -45.5t64.5 -75.5l264 -403h-354l-180 279q-35 52 -66 72t-84 20h-26v-371h-320z" />
<glyph unicode="l" horiz-adv-x="655" d="M176 0v1434h322v-1434h-322z" />
<glyph unicode="m" horiz-adv-x="2011" d="M166 0v1024h211l22 -123q108 137 322 137q229 0 348 -157q48 73 133.5 115t204.5 42q148 0 250 -65.5t150 -177t48 -260.5v-535h-319v516q0 115 -46.5 164t-135.5 49t-137 -51.5t-48 -167.5v-510h-319v516q0 115 -46 164t-134 49q-89 0 -137 -51.5t-48 -167.5v-510h-319z " />
<glyph unicode="n" horiz-adv-x="1327" d="M166 0v1024h211l22 -123q108 137 322 137q221 0 334.5 -137t113.5 -366v-535h-319v516q0 115 -46 164t-134 49q-89 0 -137 -51.5t-48 -167.5v-510h-319z" />
<glyph unicode="o" horiz-adv-x="1259" d="M104 512q0 143 70 264t191 191.5t264 70.5t264 -70.5t191.5 -191.5t70.5 -264t-70.5 -263.5t-191.5 -190.5t-264 -70t-264 70t-191 190.5t-70 263.5zM424 512q0 -99 62 -157t143 -58t143 58t62 157t-62 158t-143 59t-143 -59t-62 -158z" />
<glyph unicode="p" horiz-adv-x="1298" d="M170 -377v1401h211l18 -100q122 112 301 112q142 0 255.5 -70t175 -189.5t61.5 -264.5t-61.5 -265t-175 -190.5t-255.5 -70.5q-118 0 -211 57v-420h-319zM465 512q0 -98 62.5 -157.5t142.5 -59.5q82 0 143 59t61 158t-61 157t-143 58q-80 0 -142.5 -58.5t-62.5 -156.5z " />
<glyph unicode="q" d="M104 512q0 145 61.5 264.5t175 189.5t255.5 70q179 0 301 -112l21 100h208v-1401h-319v420q-93 -57 -211 -57q-142 0 -255.5 70.5t-175 190.5t-61.5 265zM424 512q0 -99 62 -158t143 -59t143 59t62 158t-62 157t-143 58t-143 -58t-62 -157z" />
<glyph unicode="r" horiz-adv-x="901" d="M166 0v1024h211l37 -193q58 95 151 151t221 56h54v-309h-129q-105 0 -165.5 -67t-60.5 -187v-475h-319z" />
<glyph unicode="s" horiz-adv-x="1132" d="M104 180l179 170q49 -44 141 -74t176 -30h8q101 0 101 59q0 34 -34 51.5t-118 24.5l-27 4q-403 30 -403 311q0 158 121.5 248.5t306.5 93.5h12q135 0 252.5 -51t188.5 -139l-179 -166q-48 46 -123 75t-135 29h-16q-109 -3 -109 -69q0 -33 31.5 -45t110.5 -19l41 -2 q183 -13 291 -93.5t108 -238.5q0 -140 -112.5 -235t-305.5 -96h-8q-155 0 -291.5 52t-206.5 140z" />
<glyph unicode="t" horiz-adv-x="761" d="M104 715v309h125v344h322v-344h125v-309h-125v-715h-322v715h-125z" />
<glyph unicode="u" horiz-adv-x="1316" d="M156 489v535h319v-516q0 -115 46 -164t134 -49q91 0 138 51t47 168v510h319v-1024h-209l-24 123q-103 -137 -322 -137q-148 0 -250 65.5t-150 177t-48 260.5z" />
<glyph unicode="v" horiz-adv-x="1284" d="M63 1024h338l242 -561l240 561h338l-473 -1024h-209z" />
<glyph unicode="w" horiz-adv-x="1968" d="M63 1024h338l240 -561l240 561h209l239 -561l238 561h338l-473 -1024h-207l-240 518l-240 -518h-208z" />
<glyph unicode="x" horiz-adv-x="1255" d="M63 0l386 535l-361 489h367l178 -231l168 231h368l-360 -502l383 -522h-367l-200 266l-193 -266h-369z" />
<glyph unicode="y" horiz-adv-x="1327" d="M166 530v494h319v-475q0 -115 46.5 -164t134.5 -49q90 0 137 51t47 168v469h319v-891q0 -147 -63 -265.5t-182.5 -188.5t-274.5 -70q-269 0 -461 162l181 192q152 -63 280 -63q86 0 142.5 40t56.5 119v33q-89 -65 -234 -65q-148 0 -250 65.5t-150 177t-48 260.5z" />
<glyph unicode="z" horiz-adv-x="1071" d="M104 0l2 248l390 467h-363v309h813l-2 -248l-389 -467h410v-309h-861z" />
<glyph unicode="{" horiz-adv-x="862" d="M104 492v301h11q33 1 51 2.5t38 8t29.5 19t19 35t13 55.5t4.5 82l2 148q4 187 109.5 290t284.5 103h90v-328h-31q-43 0 -73.5 -32t-30.5 -82v-136q0 -290 -195 -315q195 -29 195 -270v-215q0 -50 31 -82.5t73 -32.5h31v-328h-90q-179 0 -284.5 103t-109.5 291l-2 172 q-2 50 -6 84.5t-13.5 58t-19 36.5t-29.5 20t-37 9t-50 3h-11z" />
<glyph unicode="|" horiz-adv-x="425" d="M104 -123v1557h215v-1557h-215z" />
<glyph unicode="}" horiz-adv-x="862" d="M104 43h31q43 0 75 32.5t32 82.5v215q0 112 42.5 183t149.5 87q-194 25 -194 315v136q0 50 -31 82t-74 32h-31v328h91q179 0 284.5 -103t108.5 -290l2 -148q1 -49 4.5 -82t13 -55.5t19 -35t30 -19t38 -8t50.5 -2.5h11v-301h-11q-32 -1 -49 -3t-37 -9t-29.5 -20 t-19.5 -36.5t-14 -58t-6 -84.5l-2 -172q-3 -188 -108.5 -291t-284.5 -103h-91v328z" />
<glyph unicode="~" horiz-adv-x="1118" d="M104 375l86 196q28 63 70.5 99.5t88.5 44t90 -1t83 -31.5l125 -74q53 -33 105 -30t77 47l29 53h156l-88 -197q-27 -62 -69.5 -98t-88.5 -43t-90 1.5t-82 31.5l-125 71q-53 34 -105 31.5t-77 -47.5l-29 -53h-156z" />
<glyph unicode="&#xa1;" horiz-adv-x="579" d="M104 950q0 69 54 116.5t131 47.5q78 0 132 -47.5t54 -116.5q0 -68 -54 -116t-132 -48q-76 0 -130.5 48t-54.5 116zM117 188l28 496h291l29 -498v-520h-348v522z" />
<glyph unicode="&#xa2;" horiz-adv-x="1138" d="M104 512q0 192 120.5 336t305.5 180v203h195v-203q187 -35 307 -180l-190 -207q-64 55 -117 72v-402q53 17 117 72l190 -207q-120 -145 -307 -180v-197h-195v197q-185 36 -305.5 180t-120.5 336zM424 512q0 -66 29.5 -115t76.5 -75v380q-47 -26 -76.5 -75t-29.5 -115z " />
<glyph unicode="&#xa3;" horiz-adv-x="1413" d="M104 494v327h95q-22 84 -25 170q-2 142 72.5 247t201 157.5t287.5 52.5h15q142 -3 288 -68t271 -170l-228 -209q-82 50 -183.5 84.5t-162.5 34.5h-16q-23 -1 -44.5 -4.5t-51.5 -15t-51.5 -30.5t-36 -55t-13.5 -83q3 -50 13 -111h364v-327h-285q6 -102 -71 -164h594v-330 h-1028v211q157 122 157 283h-162z" />
<glyph unicode="&#xa4;" horiz-adv-x="1349" d="M104 952l138 138l141 -142q131 91 291.5 91t292.5 -91l137 139l139 -137l-139 -139q90 -131 90 -291t-90 -293l137 -137l-137 -137l-137 137q-132 -89 -292 -89t-292 89l-139 -139l-138 137l140 141q-91 131 -91 291t91 291zM483 535q-7 -93 45.5 -152.5t128.5 -65.5 q75 -8 138.5 41.5t70.5 143.5q6 93 -47.5 153t-128.5 66q-75 8 -138 -42t-69 -144z" />
<glyph unicode="&#xa5;" horiz-adv-x="1542" d="M104 1434h396l270 -529l272 529h396l-326 -633h223v-195h-323l-31 -61h354v-195h-391v-350h-348v350h-389v195h352l-31 61h-321v195h221z" />
<glyph unicode="&#xa6;" horiz-adv-x="425" d="M104 -123v686h215v-686h-215zM104 748v686h215v-686h-215z" />
<glyph unicode="&#xa7;" horiz-adv-x="1132" d="M104 578q0 110 72 194q-49 64 -49 164q0 105 57.5 183t150.5 117t210 42h22q134 0 252 -51.5t189 -139.5l-179 -165q-48 46 -123 75t-135 29h-20q-105 -6 -105 -70q0 -50 56 -53l37 -2q108 1 196 -19t154.5 -60.5t102.5 -107t36 -155.5q0 -110 -72 -194q50 -65 50 -164 q0 -155 -118 -245.5t-298 -96.5h-25q-134 0 -251.5 51t-188.5 139l178 166q48 -46 123 -75t135 -29h14q111 3 111 69q0 50 -55 53l-39 3q-72 -1 -137.5 8t-131 33.5t-113 62t-77 98.5t-29.5 140zM424 592q0 -33 32.5 -51t112.5 -25l33 -4q33 -2 82 -10q25 16 25 43 q0 33 -34 51t-116 25l-29 4q-31 2 -81 10q-25 -16 -25 -43z" />
<glyph unicode="&#xa8;" horiz-adv-x="1028" d="M104 1368q0 67 54 114.5t131 47.5t130.5 -47.5t53.5 -114.5q0 -69 -53.5 -116.5t-130.5 -47.5t-131 47.5t-54 116.5zM555 1368q0 67 53.5 114.5t130.5 47.5t131 -47.5t54 -114.5q0 -69 -54 -116.5t-131 -47.5t-130.5 47.5t-53.5 116.5z" />
<glyph unicode="&#xa9;" horiz-adv-x="1314" d="M104 881q0 112 43.5 214.5t117.5 176.5t176.5 118t215.5 44q112 0 214.5 -44t176 -118t117 -176.5t43.5 -214.5t-43.5 -214.5t-117 -176.5t-176 -118t-214.5 -44q-113 0 -215.5 44t-176.5 118t-117.5 176.5t-43.5 214.5zM227 881q0 -179 125 -304.5t305 -125.5 q178 0 303 125.5t125 304.5t-125 304.5t-303 125.5q-180 0 -305 -125.5t-125 -304.5zM348 881q0 129 90 220t219 91q70 0 133 -30.5t107 -82.5l-113 -121q-60 52 -127 52q-48 0 -84 -34.5t-36 -94.5q0 -58 36 -92.5t84 -34.5q35 0 63.5 10.5t63.5 40.5l113 -123 q-43 -52 -106 -81.5t-134 -29.5q-129 0 -219 90.5t-90 219.5z" />
<glyph unicode="&#xab;" horiz-adv-x="1056" d="M104 516l443 426v-278l-156 -146l156 -145v-277zM510 516l442 426v-278l-155 -146l155 -145v-277z" />
<glyph unicode="&#xac;" horiz-adv-x="1058" d="M104 436v197h848v-395h-213v198h-635z" />
<glyph unicode="&#xad;" horiz-adv-x="718" d="M104 492v194h508v-194h-508z" />
<glyph unicode="&#xae;" horiz-adv-x="1314" d="M104 881q0 112 43.5 214.5t117.5 176.5t176.5 118t215.5 44q112 0 214.5 -44t176 -118t117 -176.5t43.5 -214.5t-43.5 -214.5t-117 -176.5t-176 -118t-214.5 -44q-113 0 -215.5 44t-176.5 118t-117.5 176.5t-43.5 214.5zM227 881q0 -179 125 -304.5t305 -125.5 q178 0 303 125.5t125 304.5t-125 304.5t-303 125.5q-180 0 -305 -125.5t-125 -304.5zM395 592v582h275q62 0 109.5 -14.5t75 -37t45.5 -53.5t24 -59.5t6 -59.5q0 -53 -32 -98.5t-87 -65.5l131 -194h-190l-113 160h-64v-160h-180zM575 903h115q60 0 60 47q0 49 -60 49h-115 v-96z" />
<glyph unicode="&#xaf;" horiz-adv-x="755" d="M104 1294v236h547v-236h-547z" />
<glyph unicode="&#xb0;" horiz-adv-x="731" d="M104 1270q0 107 77 183.5t184 76.5q109 0 185.5 -76.5t76.5 -183.5q0 -109 -76.5 -185.5t-185.5 -76.5q-107 0 -184 77t-77 185zM281 1270q0 -35 25.5 -60.5t60.5 -25.5t59.5 25.5t24.5 60.5t-24.5 60.5t-59.5 25.5t-60.5 -25.5t-25.5 -60.5z" />
<glyph unicode="&#xb1;" horiz-adv-x="1058" d="M104 182v195h848v-195h-848zM104 627v194h316v185h217v-185h315v-194h-315v-185h-217v185h-316z" />
<glyph unicode="&#xb4;" horiz-adv-x="729" d="M104 1198l189 332h332l-283 -332h-238z" />
<glyph unicode="&#xb6;" horiz-adv-x="1400" d="M104 1024q0 105 39 185.5t108 128.5t158 72t195 24h690v-197h-133v-1571h-215v1571h-131v-1571h-215v965q-105 0 -192 21.5t-156.5 66t-108.5 122.5t-39 183z" />
<glyph unicode="&#xb7;" horiz-adv-x="579" d="M104 621q0 75 52.5 129.5t132.5 54.5q81 0 133.5 -54t52.5 -130q0 -74 -52.5 -128.5t-133.5 -54.5q-80 0 -132.5 54.5t-52.5 128.5z" />
<glyph unicode="&#xb8;" horiz-adv-x="526" d="M104 -207q51 -23 86 -13t35 44q0 29 -23.5 38t-84.5 -16l61 154h86l-24 -59q26 11 57.5 8.5t59 -13t46.5 -42.5t19 -78q0 -65 -40.5 -106t-111.5 -43.5t-166 48.5v78z" />
<glyph unicode="&#xbb;" horiz-adv-x="1056" d="M104 96v277l156 145l-156 146v278l443 -426zM510 96v277l156 145l-156 146v278l442 -426z" />
<glyph unicode="&#xbc;" horiz-adv-x="1437" d="M104 1157l230 277h172v-652h-225v363l-64 -76zM270 0l723 1434h197l-723 -1434h-197zM748 100v117l366 436h158v-374h59v-179h-59v-100h-223v100h-301zM952 279h97v112z" />
<glyph unicode="&#xbd;" horiz-adv-x="1521" d="M104 1157l230 277h172v-652h-225v363l-64 -76zM270 0l723 1434h197l-723 -1434h-197zM850 0v117l278 219q35 26 50.5 43.5t15.5 34.5q0 49 -55 53h-4q-65 0 -136 -49l-137 125q83 65 154 95t162 30h8q97 -3 160 -61t63 -142q0 -73 -42.5 -127t-133.5 -109l-39 -24h225 v-205h-569z" />
<glyph unicode="&#xbe;" horiz-adv-x="1529" d="M104 891l125 115q69 -43 133 -43q44 0 72.5 16.5t28.5 42.5t-23 39.5t-57 11.5q-36 -3 -59 -16l-64 49l160 137h-254v191h473v-150l-143 -108q34 -10 61 -21q121 -52 121 -172q0 -39 -16 -76.5t-47 -68.5t-82 -50t-115 -20h-6q-173 0 -308 123zM362 0l723 1434h197 l-723 -1434h-197zM842 100v117l366 436h158v-374h59v-179h-59v-100h-223v100h-301zM1044 279h97v112z" />
<glyph unicode="&#xbf;" horiz-adv-x="1345" d="M104 113q0 177 111.5 286.5t294.5 143.5v166h348v-353q-108 8 -187.5 -0.5t-124 -26.5t-71 -47.5t-34 -56.5t-7.5 -61q0 -74 58 -123t153 -49h14q77 0 157 25.5t198 97.5l225 -209q-282 -241 -588 -244h-16q-138 2 -243.5 40.5t-166.5 103t-91 141.5t-30 166zM500 961 q0 69 53.5 116t130.5 47q78 0 132 -47t54 -116q0 -68 -54 -116t-132 -48q-76 0 -130 48t-54 116z" />
<glyph unicode="&#xc0;" horiz-adv-x="1538" d="M84 0l586 1434h209l577 -1434h-387l-74 199h-450l-74 -199h-387zM377 1868h332l188 -332h-238zM666 528h208l-104 279z" />
<glyph unicode="&#xc1;" horiz-adv-x="1538" d="M84 0l586 1434h209l577 -1434h-387l-74 199h-450l-74 -199h-387zM655 1536l189 332h332l-283 -332h-238zM666 528h208l-104 279z" />
<glyph unicode="&#xc2;" horiz-adv-x="1538" d="M84 0l586 1434h209l577 -1434h-387l-74 199h-450l-74 -199h-387zM446 1538l162 328h324l162 -330h-234l-90 94l-90 -92h-234zM666 528h208l-104 279z" />
<glyph unicode="&#xc3;" horiz-adv-x="1538" d="M84 0l586 1434h209l577 -1434h-387l-74 199h-450l-74 -199h-387zM436 1536l66 162q37 94 125 104q67 9 123 -24l86 -54q41 -23 73 -20q37 0 52 37l16 35h135l-63 -164q-38 -93 -129 -103q-63 -8 -121 25l-84 53q-48 27 -84 21q-28 -6 -43 -37l-15 -35h-137zM666 528h208 l-104 279z" />
<glyph unicode="&#xc4;" horiz-adv-x="1538" d="M84 0l586 1434h209l577 -1434h-387l-74 199h-450l-74 -199h-387zM360 1700q0 68 54.5 116t130.5 48t130 -48t54 -116q0 -69 -53.5 -116.5t-130.5 -47.5t-131 47.5t-54 116.5zM666 528h208l-104 279zM811 1700q0 68 54 116t130 48t130.5 -48t54.5 -116q0 -69 -54 -116.5 t-131 -47.5t-130.5 47.5t-53.5 116.5z" />
<glyph unicode="&#xc5;" horiz-adv-x="1538" d="M84 0l586 1434h209l577 -1434h-387l-74 199h-450l-74 -199h-387zM563 1743q0 85 60.5 146t146.5 61q85 0 145 -61t60 -146q0 -86 -60 -146.5t-145 -60.5q-86 0 -146.5 60.5t-60.5 146.5zM666 528h208l-104 279zM715 1743q0 -23 16 -39t39 -16t39 16t16 39t-16 39t-39 16 t-39 -16t-16 -39z" />
<glyph unicode="&#xc6;" horiz-adv-x="1855" d="M84 0l586 1434h1081v-328h-633v-223h578v-330h-578v-223h633v-330h-981v199h-225l-74 -199h-387zM666 528h104v277z" />
<glyph unicode="&#xc7;" horiz-adv-x="1480" d="M106 717q0 148 58 283.5t155.5 233.5t233 156t283.5 58q156 0 296 -63.5t244 -174.5l-225 -209q-131 119 -315 119q-163 0 -272 -111t-109 -292t109 -291.5t272 -110.5q186 0 315 117l225 -209q-104 -111 -243.5 -174t-296.5 -63h-7l-18 -45q25 11 57 8.5t59.5 -13 t46.5 -42.5t19 -78q0 -65 -40.5 -106t-111 -43.5t-165.5 48.5v78q51 -23 86 -13t35 44q0 29 -23.5 38t-85.5 -16l57 146q-178 21 -324.5 122.5t-230.5 260.5t-84 342z" />
<glyph unicode="&#xc8;" horiz-adv-x="1292" d="M207 0v1434h981v-328h-633v-223h578v-330h-578v-223h633v-330h-981zM346 1868h332l188 -332h-237z" />
<glyph unicode="&#xc9;" horiz-adv-x="1292" d="M207 0v1434h981v-328h-633v-223h578v-330h-578v-223h633v-330h-981zM494 1536l188 332h332l-283 -332h-237z" />
<glyph unicode="&#xca;" horiz-adv-x="1292" d="M207 0v1434h981v-328h-633v-223h578v-330h-578v-223h633v-330h-981zM369 1538l161 328h324l162 -330h-234l-90 94l-90 -92h-233z" />
<glyph unicode="&#xcb;" horiz-adv-x="1292" d="M207 0v1434h981v-328h-633v-223h578v-330h-578v-223h633v-330h-981zM285 1700q0 68 54 116t130 48t130 -48t54 -116q0 -69 -53.5 -116.5t-130.5 -47.5t-130.5 47.5t-53.5 116.5zM733 1700q0 68 54.5 116t130.5 48t130 -48t54 -116q0 -69 -53.5 -116.5t-130.5 -47.5 t-131 47.5t-54 116.5z" />
<glyph unicode="&#xcc;" horiz-adv-x="1112" d="M207 0v330h174v776h-174v328h696v-328h-174v-776h174v-330h-696zM233 1868h332l189 -332h-238z" />
<glyph unicode="&#xcd;" horiz-adv-x="1112" d="M207 0v330h174v776h-174v328h696v-328h-174v-776h174v-330h-696zM334 1536l188 332h332l-283 -332h-237z" />
<glyph unicode="&#xce;" horiz-adv-x="1120" d="M213 0v330h174v776h-174v328h696v-328h-174v-776h174v-330h-696zM244 1538l162 328h323l162 -330h-234l-90 94l-90 -92h-233z" />
<glyph unicode="&#xcf;" horiz-adv-x="1232" d="M207 1700q0 68 54 116t130 48t130 -48t54 -116q0 -69 -53.5 -116.5t-130.5 -47.5t-130.5 47.5t-53.5 116.5zM266 0v330h174v776h-174v328h697v-328h-175v-776h175v-330h-697zM657 1700q0 68 54.5 116t130.5 48t130 -48t54 -116q0 -69 -53.5 -116.5t-130.5 -47.5 t-131 47.5t-54 116.5z" />
<glyph unicode="&#xd0;" horiz-adv-x="1644" d="M207 621v194h78v619h522q200 0 366.5 -92.5t264.5 -257.5t98 -367q0 -203 -98 -368t-264.5 -257t-366.5 -92h-522v621h-78zM633 330h174q168 0 274.5 101.5t106.5 285.5q0 183 -107 286t-274 103h-174v-291h88v-194h-88v-291z" />
<glyph unicode="&#xd1;" horiz-adv-x="1523" d="M186 0v1434h209l594 -789v789h348v-1434h-209l-593 788v-788h-349zM436 1536l66 162q37 94 125 104q67 9 123 -24l86 -54q41 -23 73 -20q37 0 52 37l16 35h135l-63 -164q-38 -93 -129 -103q-63 -8 -121 25l-84 53q-48 27 -84 21q-28 -6 -43 -37l-15 -35h-137z" />
<glyph unicode="&#xd2;" horiz-adv-x="1673" d="M106 717q0 148 58 283.5t155.5 233.5t233 156t283.5 58t283.5 -58t233.5 -156t156 -233.5t58 -283.5q0 -200 -98 -368t-266.5 -265.5t-366.5 -97.5t-366 97.5t-266 265.5t-98 368zM455 717q0 -182 108.5 -292t272.5 -110q165 0 274 110t109 292q0 181 -109 292t-274 111 q-163 0 -272 -111t-109 -292zM504 1868h332l188 -332h-238z" />
<glyph unicode="&#xd3;" horiz-adv-x="1673" d="M106 717q0 148 58 283.5t155.5 233.5t233 156t283.5 58t283.5 -58t233.5 -156t156 -233.5t58 -283.5q0 -200 -98 -368t-266.5 -265.5t-366.5 -97.5t-366 97.5t-266 265.5t-98 368zM455 717q0 -182 108.5 -292t272.5 -110q165 0 274 110t109 292q0 181 -109 292t-274 111 q-163 0 -272 -111t-109 -292zM637 1536l188 332h332l-283 -332h-237z" />
<glyph unicode="&#xd4;" horiz-adv-x="1673" d="M106 717q0 148 58 283.5t155.5 233.5t233 156t283.5 58t283.5 -58t233.5 -156t156 -233.5t58 -283.5q0 -200 -98 -368t-266.5 -265.5t-366.5 -97.5t-366 97.5t-266 265.5t-98 368zM455 717q0 -182 108.5 -292t272.5 -110q165 0 274 110t109 292q0 181 -109 292t-274 111 q-163 0 -272 -111t-109 -292zM512 1536l162 330h323l162 -330h-233l-90 94l-91 -94h-233z" />
<glyph unicode="&#xd5;" horiz-adv-x="1673" d="M106 717q0 148 58 283.5t155.5 233.5t233 156t283.5 58t283.5 -58t233.5 -156t156 -233.5t58 -283.5q0 -200 -98 -368t-266.5 -265.5t-366.5 -97.5t-366 97.5t-266 265.5t-98 368zM455 717q0 -182 108.5 -292t272.5 -110q165 0 274 110t109 292q0 181 -109 292t-274 111 q-163 0 -272 -111t-109 -292zM500 1536l65 162q37 94 125 104q67 9 123 -24l86 -54q41 -23 74 -20q36 0 51 37l16 35h136l-64 -164q-38 -93 -129 -103q-63 -8 -121 25l-84 53q-48 27 -84 21q-28 -6 -43 -37l-14 -35h-137z" />
<glyph unicode="&#xd6;" horiz-adv-x="1673" d="M106 717q0 148 58 283.5t155.5 233.5t233 156t283.5 58t283.5 -58t233.5 -156t156 -233.5t58 -283.5q0 -200 -98 -368t-266.5 -265.5t-366.5 -97.5t-366 97.5t-266 265.5t-98 368zM426 1700q0 68 54 116t130 48t130.5 -48t54.5 -116q0 -69 -54 -116.5t-131 -47.5 t-130.5 47.5t-53.5 116.5zM455 717q0 -182 108.5 -292t272.5 -110q165 0 274 110t109 292q0 181 -109 292t-274 111q-163 0 -272 -111t-109 -292zM877 1700q0 68 54 116t130 48t130 -48t54 -116q0 -69 -53.5 -116.5t-130.5 -47.5t-130.5 47.5t-53.5 116.5z" />
<glyph unicode="&#xd7;" horiz-adv-x="948" d="M104 303l232 232l-232 229l140 139l229 -231l232 231l137 -139l-230 -229l230 -232l-137 -137l-232 229l-229 -229z" />
<glyph unicode="&#xd8;" horiz-adv-x="1673" d="M106 0l193 219q-91 101 -142 228.5t-51 269.5q0 148 58 283.5t155.5 233.5t233 156t283.5 58q233 0 426 -137l106 123h199l-195 -222q92 -98 143.5 -226.5t51.5 -268.5q0 -200 -98 -368t-266.5 -265.5t-366.5 -97.5q-233 0 -426 137l-107 -123h-197zM455 717 q0 -143 69 -244l518 590q-91 57 -206 57q-163 0 -272 -111t-109 -292zM631 371q94 -56 205 -56q165 0 274 110t109 292q0 141 -70 244z" />
<glyph unicode="&#xd9;" horiz-adv-x="1554" d="M207 592v842h348v-832q0 -71 15.5 -124t39 -83.5t56 -49t61 -24.5t59.5 -6q40 0 76 11t73.5 39.5t60 89t22.5 147.5v832h348v-842q0 -122 -33.5 -224.5t-89.5 -172t-131.5 -117.5t-157.5 -70t-168 -22t-168 22t-157 70t-131 117.5t-89.5 172t-33.5 224.5zM469 1868h332 l188 -332h-237z" />
<glyph unicode="&#xda;" horiz-adv-x="1554" d="M207 592v842h348v-832q0 -71 15.5 -124t39 -83.5t56 -49t61 -24.5t59.5 -6q40 0 76 11t73.5 39.5t60 89t22.5 147.5v832h348v-842q0 -122 -33.5 -224.5t-89.5 -172t-131.5 -117.5t-157.5 -70t-168 -22t-168 22t-157 70t-131 117.5t-89.5 172t-33.5 224.5zM573 1536 l189 332h332l-283 -332h-238z" />
<glyph unicode="&#xdb;" horiz-adv-x="1554" d="M207 592v842h348v-832q0 -71 15.5 -124t39 -83.5t56 -49t61 -24.5t59.5 -6q40 0 76 11t73.5 39.5t60 89t22.5 147.5v832h348v-842q0 -122 -33.5 -224.5t-89.5 -172t-131.5 -117.5t-157.5 -70t-168 -22t-168 22t-157 70t-131 117.5t-89.5 172t-33.5 224.5zM463 1538 l162 328h323l162 -330h-233l-91 94l-90 -92h-233z" />
<glyph unicode="&#xdc;" horiz-adv-x="1554" d="M207 592v842h348v-832q0 -71 15.5 -124t39 -83.5t56 -49t61 -24.5t59.5 -6q40 0 76 11t73.5 39.5t60 89t22.5 147.5v832h348v-842q0 -122 -33.5 -224.5t-89.5 -172t-131.5 -117.5t-157.5 -70t-168 -22t-168 22t-157 70t-131 117.5t-89.5 172t-33.5 224.5zM377 1700 q0 68 54 116t130 48t130 -48t54 -116q0 -69 -53.5 -116.5t-130.5 -47.5t-130.5 47.5t-53.5 116.5zM827 1700q0 68 54.5 116t130.5 48t130 -48t54 -116q0 -69 -53.5 -116.5t-130.5 -47.5t-131 47.5t-54 116.5z" />
<glyph unicode="&#xdd;" horiz-adv-x="1499" d="M84 1434h395l271 -529l272 529h395l-493 -961v-473h-349v473zM539 1536l188 332h332l-283 -332h-237z" />
<glyph unicode="&#xde;" horiz-adv-x="1439" d="M207 0v1434h348v-134h135q123 0 227.5 -29.5t180.5 -81.5t129.5 -123t79.5 -155t26 -176q0 -116 -42 -218t-121 -179.5t-203 -122.5t-277 -45h-135v-170h-348zM555 498h162q77 0 140 23.5t105 79t42 134.5q0 112 -84 174t-203 62h-162v-473z" />
<glyph unicode="&#xdf;" horiz-adv-x="1337" d="M166 0v1040q0 46 9.5 93.5t41 106.5t81.5 103.5t141.5 75t211.5 29.5h60q117 0 206.5 -28.5t139.5 -70t81.5 -97.5t41.5 -101.5t10 -91.5q0 -117 -51 -205t-123 -123q96 -27 156.5 -116t60.5 -209q0 -70 -16.5 -130t-56.5 -114t-101 -92t-155 -60.5t-214 -23.5h-108v329 h112q100 0 154.5 27.5t54.5 101.5q0 51 -34 89t-109 38h-139v328h116q47 0 77 20.5t39 43.5t9 47q0 110 -149 110h-74q-72 0 -107.5 -35.5t-35.5 -95.5v-989h-330z" />
<glyph unicode="&#xe0;" d="M104 512q0 145 61.5 265t175 190.5t255.5 70.5q180 0 303 -114l19 100h208v-1024h-208l-21 100q-122 -112 -301 -112q-142 0 -255.5 70t-175 189.5t-61.5 264.5zM348 1427h332l188 -331h-237zM424 512q0 -99 62 -157t143 -58t143 58t62 157t-62 158t-143 59t-143 -59 t-62 -158z" />
<glyph unicode="&#xe1;" d="M104 512q0 145 61.5 265t175 190.5t255.5 70.5q180 0 303 -114l19 100h208v-1024h-208l-21 100q-122 -112 -301 -112q-142 0 -255.5 70t-175 189.5t-61.5 264.5zM424 512q0 -99 62 -157t143 -58t143 58t62 157t-62 158t-143 59t-143 -59t-62 -158zM446 1096l189 331h332 l-283 -331h-238z" />
<glyph unicode="&#xe2;" d="M104 512q0 145 61.5 265t175 190.5t255.5 70.5q180 0 303 -114l19 100h208v-1024h-208l-21 100q-122 -112 -301 -112q-142 0 -255.5 70t-175 189.5t-61.5 264.5zM305 1098l162 327h324l161 -329h-233l-90 94l-90 -92h-234zM424 512q0 -99 62 -157t143 -58t143 58t62 157 t-62 158t-143 59t-143 -59t-62 -158z" />
<glyph unicode="&#xe3;" d="M104 512q0 145 61.5 265t175 190.5t255.5 70.5q180 0 303 -114l19 100h208v-1024h-208l-21 100q-122 -112 -301 -112q-142 0 -255.5 70t-175 189.5t-61.5 264.5zM307 1096l66 161q38 95 125 105q66 8 123 -25l86 -53q41 -23 73 -20q37 0 51 36l17 35h135l-63 -164 q-37 -92 -129 -102q-63 -8 -121 25l-84 51q-45 28 -84 22q-28 -6 -43 -37l-15 -34h-137zM424 512q0 -99 62 -157t143 -58t143 58t62 157t-62 158t-143 59t-143 -59t-62 -158z" />
<glyph unicode="&#xe4;" d="M104 512q0 145 61.5 265t175 190.5t255.5 70.5q180 0 303 -114l19 100h208v-1024h-208l-21 100q-122 -112 -301 -112q-142 0 -255.5 70t-175 189.5t-61.5 264.5zM219 1260q0 68 54 115.5t130 47.5q77 0 131 -48t54 -115q0 -69 -54 -116.5t-131 -47.5t-130.5 47.5 t-53.5 116.5zM424 512q0 -99 62 -157t143 -58t143 58t62 157t-62 158t-143 59t-143 -59t-62 -158zM670 1260q0 68 54 115.5t130 47.5t130 -47.5t54 -115.5q0 -69 -53.5 -116.5t-130.5 -47.5t-130.5 47.5t-53.5 116.5z" />
<glyph unicode="&#xe5;" d="M104 512q0 145 61.5 265t175 190.5t255.5 70.5q180 0 303 -114l19 100h208v-1024h-208l-21 100q-122 -112 -301 -112q-142 0 -255.5 70t-175 189.5t-61.5 264.5zM424 512q0 -99 62 -157t143 -58t143 58t62 157t-62 158t-143 59t-143 -59t-62 -158zM424 1303 q0 85 60.5 144.5t146.5 59.5q85 0 145 -59.5t60 -144.5q0 -86 -60 -146.5t-145 -60.5q-86 0 -146.5 60.5t-60.5 146.5zM573 1303q0 -23 16.5 -39.5t39.5 -16.5t39 16.5t16 39.5t-16 39t-39 16t-39.5 -16t-16.5 -39z" />
<glyph unicode="&#xe6;" horiz-adv-x="1927" d="M104 512q0 145 61.5 265t175 190.5t255.5 70.5q180 0 303 -114l19 100h208v-39q98 53 222 53q159 0 272 -68t172 -196q36 -76 39.5 -178.5t-23.5 -175.5h-645q0 -65 55.5 -103t131.5 -38q155 0 284 53l166 -182q-221 -162 -450 -162q-125 0 -224 55v-43h-208l-21 100 q-122 -112 -301 -112q-142 0 -255.5 70t-175 189.5t-61.5 264.5zM424 512q0 -99 62 -157t143 -58t143 58t62 157t-62 158t-143 59t-143 -59t-62 -158zM1178 621h342q0 31 -25 59q-47 65 -145 65q-73 0 -121.5 -39.5t-50.5 -84.5z" />
<glyph unicode="&#xe7;" horiz-adv-x="1128" d="M104 512q0 143 70 263.5t191 190.5t264 70q119 0 224.5 -50t178.5 -138l-190 -207q-59 50 -106.5 68t-106.5 18q-81 0 -143 -58t-62 -157t62 -157t143 -58q59 0 106.5 18t106.5 68l190 -207q-72 -86 -175 -136.5t-220 -51.5l-21 -47q26 11 57.5 8.5t59.5 -13t47 -42.5 t19 -78q0 -65 -40.5 -106t-111.5 -43.5t-166 48.5v78q51 -23 86 -13t35 44q0 29 -23 38t-85 -16l59 148q-192 28 -320.5 174.5t-128.5 343.5z" />
<glyph unicode="&#xe8;" horiz-adv-x="1198" d="M104 512q0 147 60 265.5t178 189.5t276 71q159 0 271.5 -68t173.5 -196q36 -76 39 -178.5t-25 -175.5h-643q0 -66 55 -103.5t132 -37.5q155 0 284 53l166 -182q-221 -162 -450 -162q-150 0 -269 70t-183.5 189t-64.5 265zM305 1427h332l188 -331h-237zM446 621h342 q0 32 -24 59q-47 65 -146 65q-73 0 -121.5 -39.5t-50.5 -84.5z" />
<glyph unicode="&#xe9;" horiz-adv-x="1198" d="M104 512q0 147 60 265.5t178 189.5t276 71q159 0 271.5 -68t173.5 -196q36 -76 39 -178.5t-25 -175.5h-643q0 -66 55 -103.5t132 -37.5q155 0 284 53l166 -182q-221 -162 -450 -162q-150 0 -269 70t-183.5 189t-64.5 265zM428 1096l188 331h332l-282 -331h-238zM446 621 h342q0 32 -24 59q-47 65 -146 65q-73 0 -121.5 -39.5t-50.5 -84.5z" />
<glyph unicode="&#xea;" horiz-adv-x="1198" d="M104 512q0 147 60 265.5t178 189.5t276 71q159 0 271.5 -68t173.5 -196q36 -76 39 -178.5t-25 -175.5h-643q0 -66 55 -103.5t132 -37.5q155 0 284 53l166 -182q-221 -162 -450 -162q-150 0 -269 70t-183.5 189t-64.5 265zM297 1098l162 327h323l162 -329h-233l-90 94 l-91 -92h-233zM446 621h342q0 32 -24 59q-47 65 -146 65q-73 0 -121.5 -39.5t-50.5 -84.5z" />
<glyph unicode="&#xeb;" horiz-adv-x="1198" d="M104 512q0 147 60 265.5t178 189.5t276 71q159 0 271.5 -68t173.5 -196q36 -76 39 -178.5t-25 -175.5h-643q0 -66 55 -103.5t132 -37.5q155 0 284 53l166 -182q-221 -162 -450 -162q-150 0 -269 70t-183.5 189t-64.5 265zM211 1260q0 68 54 115.5t130 47.5q77 0 131 -48 t54 -115q0 -69 -54 -116.5t-131 -47.5t-130.5 47.5t-53.5 116.5zM446 621h342q0 32 -24 59q-47 65 -146 65q-73 0 -121.5 -39.5t-50.5 -84.5zM662 1260q0 68 54 115.5t130 47.5t130 -47.5t54 -115.5q0 -69 -53.5 -116.5t-130.5 -47.5t-130.5 47.5t-53.5 116.5z" />
<glyph unicode="&#xec;" horiz-adv-x="862" d="M176 1427h332l188 -331h-237zM352 0v1024h320v-1024h-320z" />
<glyph unicode="&#xed;" horiz-adv-x="862" d="M176 1096l189 331h331l-282 -331h-238zM209 0v1024h319v-1024h-319z" />
<glyph unicode="&#xee;" horiz-adv-x="989" d="M176 1098l162 327h324l161 -329h-233l-90 94l-90 -92h-234zM342 0v1024h320v-1024h-320z" />
<glyph unicode="&#xef;" horiz-adv-x="1161" d="M176 1260q0 68 54 115.5t130 47.5q77 0 131 -48t54 -115q0 -69 -54 -116.5t-131 -47.5t-130.5 47.5t-53.5 116.5zM430 0v1024h320v-1024h-320zM627 1260q0 68 54 115.5t130 47.5t130 -47.5t54 -115.5q0 -69 -53.5 -116.5t-130.5 -47.5t-130.5 47.5t-53.5 116.5z" />
<glyph unicode="&#xf0;" horiz-adv-x="1320" d="M104 489q0 209 126.5 349.5t338.5 140.5q85 0 157 -32.5t110 -88.5v88q0 55 -13 105l-84 -74l-102 115l84 73q-41 15 -88 15q-126 0 -281 -66l-180 195q194 161 461 161q181 0 319 -98l70 62l102 -117l-63 -57q94 -133 94 -314v-405q0 -128 -41 -234.5t-112 -177 t-166.5 -109t-204.5 -38.5q-120 0 -220.5 41t-166.5 110.5t-103 161.5t-37 194zM426 487q0 -86 62.5 -140t142.5 -54q81 0 143 53.5t62 140.5t-62 143t-143 56q-78 0 -141.5 -56t-63.5 -143z" />
<glyph unicode="&#xf1;" horiz-adv-x="1327" d="M166 0v1024h211l22 -123q108 137 322 137q221 0 334.5 -137t113.5 -366v-535h-319v516q0 115 -46 164t-134 49q-89 0 -137 -51.5t-48 -167.5v-510h-319zM336 1096l65 161q38 95 125 105q66 8 123 -25l86 -53q41 -23 74 -20q37 0 51 36l17 35h135l-64 -164 q-37 -92 -129 -102q-63 -8 -121 25l-84 51q-45 28 -84 22q-28 -6 -43 -37l-14 -34h-137z" />
<glyph unicode="&#xf2;" horiz-adv-x="1259" d="M104 512q0 143 70 264t191 191.5t264 70.5t264 -70.5t191.5 -191.5t70.5 -264t-70.5 -263.5t-191.5 -190.5t-264 -70t-264 70t-191 190.5t-70 263.5zM291 1427h332l188 -331h-238zM424 512q0 -99 62 -157t143 -58t143 58t62 157t-62 158t-143 59t-143 -59t-62 -158z" />
<glyph unicode="&#xf3;" horiz-adv-x="1259" d="M104 512q0 143 70 264t191 191.5t264 70.5t264 -70.5t191.5 -191.5t70.5 -264t-70.5 -263.5t-191.5 -190.5t-264 -70t-264 70t-191 190.5t-70 263.5zM412 1096l188 331h332l-283 -331h-237zM424 512q0 -99 62 -157t143 -58t143 58t62 157t-62 158t-143 59t-143 -59 t-62 -158z" />
<glyph unicode="&#xf4;" horiz-adv-x="1259" d="M104 512q0 143 70 264t191 191.5t264 70.5t264 -70.5t191.5 -191.5t70.5 -264t-70.5 -263.5t-191.5 -190.5t-264 -70t-264 70t-191 190.5t-70 263.5zM305 1096l162 327l324 2l161 -329h-233l-90 94l-90 -94h-234zM424 512q0 -99 62 -157t143 -58t143 58t62 157t-62 158 t-143 59t-143 -59t-62 -158z" />
<glyph unicode="&#xf5;" horiz-adv-x="1259" d="M104 512q0 143 70 264t191 191.5t264 70.5t264 -70.5t191.5 -191.5t70.5 -264t-70.5 -263.5t-191.5 -190.5t-264 -70t-264 70t-191 190.5t-70 263.5zM289 1096l65 161q38 95 125 105q66 8 123 -25l86 -53q41 -23 74 -20q37 0 51 36l16 35h136l-64 -164q-37 -92 -129 -102 q-63 -8 -121 25l-84 51q-45 28 -84 22q-28 -6 -43 -37l-14 -34h-137zM424 512q0 -99 62 -157t143 -58t143 58t62 157t-62 158t-143 59t-143 -59t-62 -158z" />
<glyph unicode="&#xf6;" horiz-adv-x="1259" d="M104 512q0 143 70 264t191 191.5t264 70.5t264 -70.5t191.5 -191.5t70.5 -264t-70.5 -263.5t-191.5 -190.5t-264 -70t-264 70t-191 190.5t-70 263.5zM221 1260q0 67 54 115t131 48q76 0 130 -47.5t54 -115.5q0 -69 -53.5 -116.5t-130.5 -47.5t-131 47.5t-54 116.5z M424 512q0 -99 62 -157t143 -58t143 58t62 157t-62 158t-143 59t-143 -59t-62 -158zM672 1260q0 68 54 115.5t130 47.5t130 -47.5t54 -115.5q0 -69 -53.5 -116.5t-130.5 -47.5t-130.5 47.5t-53.5 116.5z" />
<glyph unicode="&#xf7;" horiz-adv-x="1058" d="M104 430v195h848v-195h-848zM344 182q0 69 53.5 116.5t130.5 47.5q78 0 132.5 -47.5t54.5 -116.5t-54.5 -116.5t-132.5 -47.5q-77 0 -130.5 47.5t-53.5 116.5zM344 872q0 68 54 116t130 48q78 0 132.5 -48t54.5 -116q0 -69 -54.5 -116t-132.5 -47q-77 0 -130.5 47 t-53.5 116z" />
<glyph unicode="&#xf8;" horiz-adv-x="1259" d="M104 0l134 162q-134 150 -134 350q0 143 70 264t191 191.5t264 70.5q148 0 274 -77l53 63h199l-135 -162q135 -148 135 -350q0 -143 -70.5 -263.5t-191.5 -190.5t-264 -70q-147 0 -275 75l-53 -63h-197zM424 512q0 -56 22 -102l254 307q-34 12 -71 12q-81 0 -143 -59 t-62 -158zM559 309q35 -12 70 -12q81 0 143 58t62 157q0 49 -21 100z" />
<glyph unicode="&#xf9;" horiz-adv-x="1316" d="M156 489v535h319v-516q0 -115 46 -164t134 -49q91 0 138 51t47 168v510h319v-1024h-209l-24 123q-103 -137 -322 -137q-148 0 -250 65.5t-150 177t-48 260.5zM307 1427h332l188 -331h-237z" />
<glyph unicode="&#xfa;" horiz-adv-x="1316" d="M156 489v535h319v-516q0 -115 46 -164t134 -49q91 0 138 51t47 168v510h319v-1024h-209l-24 123q-103 -137 -322 -137q-148 0 -250 65.5t-150 177t-48 260.5zM408 1096l188 331h332l-283 -331h-237z" />
<glyph unicode="&#xfb;" horiz-adv-x="1316" d="M156 489v535h319v-516q0 -115 46 -164t134 -49q91 0 138 51t47 168v510h319v-1024h-209l-24 123q-103 -137 -322 -137q-148 0 -250 65.5t-150 177t-48 260.5zM334 1098l162 327h323l162 -329h-233l-91 94l-90 -92h-233z" />
<glyph unicode="&#xfc;" horiz-adv-x="1316" d="M156 489v535h319v-516q0 -115 46 -164t134 -49q91 0 138 51t47 168v510h319v-1024h-209l-24 123q-103 -137 -322 -137q-148 0 -250 65.5t-150 177t-48 260.5zM250 1260q0 68 54 115.5t130 47.5t130 -47.5t54 -115.5q0 -69 -53.5 -116.5t-130.5 -47.5t-130.5 47.5 t-53.5 116.5zM700 1260q0 67 54 115t131 48q76 0 130 -47.5t54 -115.5q0 -69 -53.5 -116.5t-130.5 -47.5t-131 47.5t-54 116.5z" />
<glyph unicode="&#xfd;" horiz-adv-x="1327" d="M166 530v494h319v-475q0 -115 46.5 -164t134.5 -49q90 0 137 51t47 168v469h319v-891q0 -147 -63 -265.5t-182.5 -188.5t-274.5 -70q-269 0 -461 162l181 192q152 -63 280 -63q86 0 142.5 40t56.5 119v33q-89 -65 -234 -65q-148 0 -250 65.5t-150 177t-48 260.5z M422 1096l188 331h332l-283 -331h-237z" />
<glyph unicode="&#xfe;" d="M168 -377v1811h319v-455q88 57 211 57q142 0 255.5 -70t175 -189.5t61.5 -264.5t-61.5 -265t-175 -190.5t-255.5 -70.5q-118 0 -211 57v-420h-319zM461 512q0 -98 62.5 -157.5t142.5 -59.5q82 0 143 59t61 158t-61 157t-143 58q-80 0 -142.5 -58.5t-62.5 -156.5z" />
<glyph unicode="&#xff;" horiz-adv-x="1327" d="M166 530v494h319v-475q0 -115 46.5 -164t134.5 -49q90 0 137 51t47 168v469h319v-891q0 -147 -63 -265.5t-182.5 -188.5t-274.5 -70q-269 0 -461 162l181 192q152 -63 280 -63q86 0 142.5 40t56.5 119v33q-89 -65 -234 -65q-148 0 -250 65.5t-150 177t-48 260.5z M260 1260q0 68 54 115.5t130 47.5q77 0 131 -48t54 -115q0 -69 -54 -116.5t-131 -47.5t-130.5 47.5t-53.5 116.5zM711 1260q0 68 54 115.5t130 47.5t130 -47.5t54 -115.5q0 -69 -53.5 -116.5t-130.5 -47.5t-130.5 47.5t-53.5 116.5z" />
<glyph unicode="&#x152;" horiz-adv-x="2304" d="M106 717q0 148 58 283.5t155.5 233.5t233 156t283.5 58q214 0 383 -121v107h981v-328h-633v-223h577v-330h-577v-223h633v-330h-981v106q-167 -120 -383 -120q-198 0 -366 97.5t-266 265.5t-98 368zM455 717q0 -182 108.5 -292t272.5 -110q165 0 274 110t109 292 q0 181 -109 292t-274 111q-163 0 -272 -111t-109 -292z" />
<glyph unicode="&#x153;" horiz-adv-x="1927" d="M104 512q0 143 70 264t191 191.5t264 70.5q208 0 356 -145q135 145 363 145q159 0 272 -68t172 -196q36 -76 39 -178.5t-25 -175.5h-643q0 -66 55 -103.5t132 -37.5q155 0 284 53l166 -182q-221 -162 -450 -162q-222 0 -363 147q-69 -69 -161.5 -108t-196.5 -39 q-143 0 -264 70t-191 190.5t-70 263.5zM424 512q0 -99 62 -157t143 -58t143 58t62 157t-62 158t-143 59t-143 -59t-62 -158zM1178 621h342q0 31 -25 59q-47 65 -145 65q-73 0 -121.5 -39.5t-50.5 -84.5z" />
<glyph unicode="&#x178;" horiz-adv-x="1499" d="M84 1434h395l271 -529l272 529h395l-493 -961v-473h-349v473zM340 1700q0 68 54 116t130 48t130.5 -48t54.5 -116q0 -69 -54 -116.5t-131 -47.5t-130.5 47.5t-53.5 116.5zM791 1700q0 68 54 116t130 48t130 -48t54 -116q0 -69 -53.5 -116.5t-130.5 -47.5t-130.5 47.5 t-53.5 116.5z" />
<glyph unicode="&#x2c6;" horiz-adv-x="856" d="M104 1202l162 328h324l162 -330h-234l-90 94l-90 -92h-234z" />
<glyph unicode="&#x2dc;" horiz-adv-x="886" d="M104 1194l66 164q38 92 125 102q68 12 123 -24l86 -52q39 -25 74 -22q36 3 51 37l16 35h135l-63 -162q-38 -95 -129 -105q-63 -8 -121 25l-84 53q-48 27 -84 21q-28 -3 -43 -37l-14 -35h-138z" />
<glyph unicode="&#x2000;" horiz-adv-x="975" />
<glyph unicode="&#x2001;" horiz-adv-x="1950" />
<glyph unicode="&#x2002;" horiz-adv-x="975" />
<glyph unicode="&#x2003;" horiz-adv-x="1950" />
<glyph unicode="&#x2004;" horiz-adv-x="650" />
<glyph unicode="&#x2005;" horiz-adv-x="487" />
<glyph unicode="&#x2006;" horiz-adv-x="325" />
<glyph unicode="&#x2007;" horiz-adv-x="325" />
<glyph unicode="&#x2008;" horiz-adv-x="243" />
<glyph unicode="&#x2009;" horiz-adv-x="390" />
<glyph unicode="&#x200a;" horiz-adv-x="108" />
<glyph unicode="&#x2010;" horiz-adv-x="718" d="M104 492v194h508v-194h-508z" />
<glyph unicode="&#x2011;" horiz-adv-x="718" d="M104 492v194h508v-194h-508z" />
<glyph unicode="&#x2012;" horiz-adv-x="718" d="M104 492v194h508v-194h-508z" />
<glyph unicode="&#x2013;" horiz-adv-x="972" d="M104 492v194h762v-194h-762z" />
<glyph unicode="&#x2014;" horiz-adv-x="1316" d="M104 492v194h1106v-194h-1106z" />
<glyph unicode="&#x2018;" horiz-adv-x="739" d="M104 797l293 637h238l-201 -637h-330z" />
<glyph unicode="&#x2019;" horiz-adv-x="739" d="M104 797l199 637h332l-293 -637h-238z" />
<glyph unicode="&#x201a;" horiz-adv-x="739" d="M104 -324l199 637h332l-293 -637h-238z" />
<glyph unicode="&#x201c;" horiz-adv-x="1155" d="M104 797l293 637h238l-201 -637h-330zM520 797l293 637h238l-201 -637h-330z" />
<glyph unicode="&#x201d;" horiz-adv-x="1155" d="M104 797l199 637h332l-293 -637h-238zM520 797l199 637h332l-293 -637h-238z" />
<glyph unicode="&#x201e;" horiz-adv-x="1155" d="M104 -324l199 637h332l-293 -637h-238zM520 -324l199 637h332l-293 -637h-238z" />
<glyph unicode="&#x2022;" horiz-adv-x="899" d="M104 590q0 142 101 243t244 101t243.5 -101t100.5 -243t-100.5 -243t-243.5 -101t-244 101t-101 243z" />
<glyph unicode="&#x2026;" horiz-adv-x="1642" d="M104 150q0 69 54 116t131 47q78 0 132 -47t54 -116t-54 -116.5t-132 -47.5q-77 0 -131 47.5t-54 116.5zM635 150q0 69 53.5 116t130.5 47q78 0 132.5 -47t54.5 -116t-54.5 -116.5t-132.5 -47.5q-77 0 -130.5 47.5t-53.5 116.5zM1167 150q0 69 54 116t131 47q78 0 132 -47 t54 -116t-54 -116.5t-132 -47.5q-77 0 -131 47.5t-54 116.5z" />
<glyph unicode="&#x202f;" horiz-adv-x="390" />
<glyph unicode="&#x2039;" horiz-adv-x="651" d="M104 516l443 426v-278l-156 -146l156 -145v-277z" />
<glyph unicode="&#x203a;" horiz-adv-x="651" d="M104 96v277l156 145l-156 146v278l443 -426z" />
<glyph unicode="&#x205f;" horiz-adv-x="487" />
<glyph unicode="&#x20ac;" horiz-adv-x="1611" d="M104 485v195h132v37v39h-132v194h170q73 220 262.5 359t428.5 139q156 0 296 -63.5t244 -174.5l-225 -209q-131 119 -315 119q-100 0 -183.5 -44.5t-134.5 -125.5h363l-43 -194h-381l-2 -39q0 -25 2 -37h352l-43 -195h-250q51 -81 134.5 -125.5t185.5 -44.5 q186 0 315 117l225 -209q-104 -111 -243.5 -174t-296.5 -63q-240 0 -430 139t-263 360h-168z" />
<glyph unicode="&#x2122;" horiz-adv-x="1517" d="M104 1239v195h558v-195h-179v-442h-200v442h-179zM719 799v635h129l219 -252l217 252h129v-635h-199v317l-147 -172l-149 172v-317h-199z" />
<glyph unicode="&#x25fc;" horiz-adv-x="1024" d="M0 0v1024h1024v-1024h-1024z" />
</font>
</defs>
</svg>
