<?xml version="1.0" standalone="no"?>
<!DOCTYPE svg PUBLIC "-//W3C//DTD SVG 1.1//EN" "http://www.w3.org/Graphics/SVG/1.1/DTD/svg11.dtd" >
<svg xmlns="http://www.w3.org/2000/svg" xmlns:xlink="http://www.w3.org/1999/xlink" version="1.1">
<metadata>
Created by FontForge 20161003 at Fri May 10 08:23:01 2019
 By www-data
(c) 2001-2018 Typodermic Fonts Inc.
</metadata>
<defs>
<font id="steelfish_bd" horiz-adv-x="285" >
  <font-face 
    font-family="steelfish_bd"
    font-weight="700"
    font-stretch="normal"
    units-per-em="1000"
    panose-1="2 11 8 8 2 2 2 4 5 4"
    ascent="851"
    descent="-149"
    x-height="619"
    cap-height="823"
    bbox="-321 -149 586 1124"
    underline-thickness="50"
    underline-position="-175"
    unicode-range="U+0017-FB02"
  />
<missing-glyph horiz-adv-x="524" 
d="M124 -144q-90 0 -90 79v869q0 80 90 80h274q92 0 92 -80v-869q0 -79 -92 -79h-274zM257 234q5 27 9 44.5t11 31.5t19 27t34 31q35 29 56 69.5t32 103.5l18 104q2 11 3 23t1 23q0 64 -40.5 102t-121.5 38q-57 0 -87.5 -33t-41.5 -102l-27 -159l115 -21l28 162q5 29 27 29
q30 0 30 -29l-21 -117q-6 -32 -10.5 -51.5t-12 -33.5t-20 -26t-33.5 -29q-17 -15 -29 -31t-21 -35.5t-15.5 -44t-12.5 -57.5l-23 -123l112 -20zM225 42l-111 19l-24 -138l110 -18z" />
    <glyph glyph-name=".notdef" horiz-adv-x="524" 
d="M124 -144q-90 0 -90 79v869q0 80 90 80h274q92 0 92 -80v-869q0 -79 -92 -79h-274zM257 234q5 27 9 44.5t11 31.5t19 27t34 31q35 29 56 69.5t32 103.5l18 104q2 11 3 23t1 23q0 64 -40.5 102t-121.5 38q-57 0 -87.5 -33t-41.5 -102l-27 -159l115 -21l28 162q5 29 27 29
q30 0 30 -29l-21 -117q-6 -32 -10.5 -51.5t-12 -33.5t-20 -26t-33.5 -29q-17 -15 -29 -31t-21 -35.5t-15.5 -44t-12.5 -57.5l-23 -123l112 -20zM225 42l-111 19l-24 -138l110 -18z" />
    <glyph glyph-name=".null" horiz-adv-x="0" 
 />
    <glyph glyph-name="nonmarkingreturn" horiz-adv-x="136" 
 />
    <glyph glyph-name="uni0017" horiz-adv-x="136" 
 />
    <glyph glyph-name="space" unicode=" " horiz-adv-x="136" 
 />
    <glyph glyph-name="exclam" unicode="!" horiz-adv-x="173" 
d="M39 0v109h95v-109h-95zM57 159l-18 297v367h95v-365l-19 -299h-58z" />
    <glyph glyph-name="quotedbl" unicode="&#x22;" horiz-adv-x="276" 
d="M30 595zM48 595l-18 136v92h83v-92l-18 -136h-47zM181 595l-18 136v92h83v-92l-18 -136h-47z" />
    <glyph glyph-name="numbersign" unicode="#" horiz-adv-x="400" 
d="M176 0l46 290h-83l-46 -290h-60l45 290h-58v79h70l17 108h-70v79h83l41 267h63l-43 -267h82l42 267h62l-43 -267h57v-79h-69l-17 -108h67v-79h-80l-45 -290h-61zM251 477h-83l-17 -108h83z" />
    <glyph glyph-name="dollar" unicode="$" horiz-adv-x="286" 
d="M127 -52v62q-51 5 -74.5 40t-23.5 95v157h70v-158q0 -24 7 -36t24 -15v272l-34 35q-21 21 -34 38t-20.5 35t-10 38.5t-2.5 48.5v118q0 63 25 96t73 38v57h31v-57q51 -5 73.5 -37.5t22.5 -96.5v-132h-68v139q0 37 -32 45v-266l36 -33q21 -19 34 -35.5t20.5 -36t10 -44.5
t2.5 -61v-109q0 -61 -24 -96t-75 -40v-61h-31zM130 730q-31 -6 -31 -45v-127q0 -23 7 -39.5t24 -34.5v246zM184 238q0 37 -5.5 60.5t-24.5 46.5v-252q30 4 30 44v101z" />
    <glyph glyph-name="percent" unicode="%" horiz-adv-x="484" 
d="M28 0zM31 768q0 70 68 70t68 -70v-281q0 -70 -68 -70t-68 70v281zM117 769q0 19 -18 19t-18 -19v-283q0 -19 18 -19t18 19v283zM28 0l367 823h61l-366 -823h-62zM315 336q0 70 68 70t68 -70v-281q0 -70 -68 -70t-68 70v281zM401 337q0 19 -18 19t-18 -19v-283
q0 -19 18 -19t18 19v283z" />
    <glyph glyph-name="ampersand" unicode="&#x26;" horiz-adv-x="380" 
d="M364 7q-9 -5 -20 -8t-30 -3q-35 0 -54 24q-16 -15 -41 -22t-54 -7q-42 0 -69 10.5t-43 32t-22 53.5t-6 75v59q0 30 2.5 55.5t10.5 50.5t23 51.5t40 59.5l-20 56q-10 28 -16 48.5t-9 38t-3.5 33.5t-0.5 34v49q0 73 26.5 103.5t86.5 30.5q30 0 51 -10t33.5 -28t18 -42
t5.5 -52v-61q0 -27 -5 -51.5t-15 -49t-26 -51.5t-38 -60l86 -243q12 40 12 94v28h71v-32q0 -112 -43 -185q8 -5 16 -5q9 0 17.5 2t15.5 10v-88zM137 344q-14 -24 -18 -49.5t-4 -69.5v-61q0 -45 12.5 -66t45.5 -21q16 0 30 4t22 12zM157 512q19 28 30.5 63t11.5 78v29
q0 29 -7 44t-26 15q-35 0 -35 -48v-32q0 -31 3 -57t14 -64z" />
    <glyph glyph-name="quotesingle" unicode="'" horiz-adv-x="143" 
d="M48 595l-18 136v92h83v-92l-18 -136h-47z" />
    <glyph glyph-name="parenleft" unicode="(" horiz-adv-x="256" 
d="M227 -80q-78 0 -116 41t-38 132v637q0 91 38 132t116 41h9v-67h-9q-88 0 -88 -106v-637q0 -106 88 -106h9v-67h-9z" />
    <glyph glyph-name="parenright" unicode=")" horiz-adv-x="256" 
d="M73 -80v67h9q88 0 88 106v637q0 106 -88 106h-9v67h9q78 0 116 -41t38 -132v-637q0 -91 -38 -132t-116 -41h-9z" />
    <glyph glyph-name="asterisk" unicode="*" horiz-adv-x="326" 
d="M227 540l-65 100l-63 -100l-45 33l74 91l-114 30l17 53l110 -42l-7 118h57l-7 -118l110 44l17 -54l-114 -31l75 -91z" />
    <glyph glyph-name="plus" unicode="+" horiz-adv-x="466" 
d="M199 221v164h-163v69h163v163h69v-163h164v-69h-164v-164h-69z" />
    <glyph glyph-name="comma" unicode="," horiz-adv-x="146" 
d="M41 -61v38h9q19 0 19 21v24h-39v103h86v-121q0 -27 -15 -46t-50 -19h-10z" />
    <glyph glyph-name="hyphen" unicode="-" horiz-adv-x="181" 
d="M12 379v71h160v-71h-160z" />
    <glyph glyph-name="hyphen" unicode="&#xad;" horiz-adv-x="181" 
d="M12 379v71h160v-71h-160z" />
    <glyph glyph-name="period" unicode="." horiz-adv-x="145" 
d="M30 0v125h86v-125h-86z" />
    <glyph glyph-name="slash" unicode="/" horiz-adv-x="242" 
d="M5 0l164 823h68l-165 -823h-67z" />
    <glyph glyph-name="zero" unicode="0" horiz-adv-x="329" 
d="M30 692q0 69 32.5 104.5t102.5 35.5t102.5 -35.5t32.5 -104.5v-561q0 -69 -32.5 -104.5t-102.5 -35.5t-102.5 35.5t-32.5 104.5v561zM209 694q0 47 -44 47q-43 0 -43 -47v-565q0 -47 43 -47q44 0 44 47v565z" />
    <glyph glyph-name="one" unicode="1" horiz-adv-x="190" 
d="M61 0v672h-45v90h21q33 0 33 39v22h82v-823h-91z" />
    <glyph glyph-name="two" unicode="2" horiz-adv-x="310" 
d="M25 0v150q0 37 2.5 65t11 54t23.5 53.5t40 62.5q29 41 47 69.5t28 51.5t13.5 45t3.5 51v88q0 49 -39 49q-38 0 -38 -49v-144h-92v143q0 76 32 109.5t98 33.5t99 -34t33 -109v-96q0 -62 -21.5 -116t-64.5 -114q-28 -39 -44.5 -67t-25 -51t-11 -45t-2.5 -50v-58h169v-92
h-262z" />
    <glyph glyph-name="three" unicode="3" horiz-adv-x="311" 
d="M196 328q0 24 -8.5 36t-31.5 12h-41v87h45q21 0 28 12.5t7 35.5v180q0 25 -8.5 36.5t-30.5 11.5q-21 0 -29.5 -11.5t-8.5 -36.5v-146h-91v145q0 75 31.5 108.5t97.5 33.5q67 0 97.5 -33.5t30.5 -109.5v-182q0 -35 -13 -55.5t-40 -32.5q26 -8 40.5 -29t14.5 -60v-199
q0 -63 -31.5 -101.5t-98.5 -38.5q-66 0 -98.5 38t-32.5 101v162h93v-161q0 -48 38 -48q22 0 31 12.5t9 35.5v197z" />
    <glyph glyph-name="three" unicode="&#x417;" horiz-adv-x="311" 
d="M196 328q0 24 -8.5 36t-31.5 12h-41v87h45q21 0 28 12.5t7 35.5v180q0 25 -8.5 36.5t-30.5 11.5q-21 0 -29.5 -11.5t-8.5 -36.5v-146h-91v145q0 75 31.5 108.5t97.5 33.5q67 0 97.5 -33.5t30.5 -109.5v-182q0 -35 -13 -55.5t-40 -32.5q26 -8 40.5 -29t14.5 -60v-199
q0 -63 -31.5 -101.5t-98.5 -38.5q-66 0 -98.5 38t-32.5 101v162h93v-161q0 -48 38 -48q22 0 31 12.5t9 35.5v197z" />
    <glyph glyph-name="four" unicode="4" horiz-adv-x="321" 
d="M185 251q0 60 0.5 108.5t1 89t1.5 74t2 64.5q-9 -31 -18.5 -64.5t-21.5 -73.5t-26.5 -88.5t-33.5 -109.5h95zM185 0v164h-177v80l176 579h87v-572h40v-87h-40v-164h-86z" />
    <glyph glyph-name="five" unicode="5" horiz-adv-x="317" 
d="M200 397q0 43 -42 43q-20 0 -32 -12t-16 -32l-80 3l10 424h244v-93h-160l-9 -241q11 15 30 24t49 9q45 0 70 -29t25 -98v-266q0 -70 -31 -104t-97 -34q-130 0 -130 138v173h90v-172q0 -47 40 -47q39 0 39 48v266z" />
    <glyph glyph-name="six" unicode="6" horiz-adv-x="320" 
d="M200 357q0 34 -7 52.5t-32 18.5q-18 0 -27.5 -9.5t-11.5 -23.5v-264q0 -23 8 -35.5t31 -12.5t31 12.5t8 35.5v226zM293 131q0 -66 -33 -103t-99 -37t-99 37t-33 103v561q0 66 33 103t99 37t96.5 -37t30.5 -103v-142h-89v142q0 47 -38 47q-39 0 -39 -47v-208
q10 13 26.5 23t45.5 10q51 0 75 -30t24 -99v-257z" />
    <glyph glyph-name="seven" unicode="7" horiz-adv-x="289" 
d="M62 0q0 173 16.5 302.5t38.5 219.5t43 141t30 67h-177v93h264v-86q-66 -148 -94.5 -328t-28.5 -409h-92z" />
    <glyph glyph-name="eight" unicode="8" horiz-adv-x="316" 
d="M288 129q0 -138 -131 -138q-130 0 -130 138v199q0 42 15 65t40 33q-22 11 -35 32t-13 59v174q0 66 28.5 103.5t94.5 37.5t94.5 -37.5t28.5 -103.5v-174q0 -38 -12.5 -59t-34.5 -32q24 -10 39.5 -33t15.5 -65v-199zM197 335q0 42 -40 42q-39 0 -39 -42v-205q0 -47 39 -47
q40 0 40 47v205zM196 691q0 26 -8 37t-31 11q-22 0 -30 -11t-8 -37v-186q0 -42 38 -42q39 0 39 42v186z" />
    <glyph glyph-name="nine" unicode="9" horiz-adv-x="320" 
d="M197 692q0 47 -39 47q-20 0 -29.5 -10.5t-9.5 -36.5v-235q0 -46 39 -46q18 0 27.5 10t11.5 24v247zM197 352q-9 -13 -26 -23t-45 -10q-51 0 -74.5 30t-23.5 99v244q0 67 32 103.5t98 36.5t99 -36.5t33 -102.5v-562q0 -66 -33 -103t-99 -37q-61 0 -95 37t-34 103v142h90
v-142q0 -48 39 -48t39 48v221z" />
    <glyph glyph-name="colon" unicode=":" horiz-adv-x="145" 
d="M30 366v124h86v-124h-86zM30 0v125h86v-125h-86z" />
    <glyph glyph-name="semicolon" unicode=";" horiz-adv-x="146" 
d="M30 366v124h86v-124h-86zM41 -61v38h9q19 0 19 21v24h-39v103h86v-121q0 -27 -15 -46t-50 -19h-10z" />
    <glyph glyph-name="less" unicode="&#x3c;" horiz-adv-x="466" 
d="M36 377v84l396 121v-69l-326 -92l326 -97v-69z" />
    <glyph glyph-name="equal" unicode="=" horiz-adv-x="466" 
d="M36 478v70h396v-70h-396zM36 291v70h396v-70h-396z" />
    <glyph glyph-name="greater" unicode="&#x3e;" horiz-adv-x="466" 
d="M36 255v69l326 97l-326 92v69l396 -121v-84z" />
    <glyph glyph-name="question" unicode="?" horiz-adv-x="300" 
d="M95 187v111q0 30 2.5 52.5t8 41.5t15 35t23.5 33q15 16 23.5 28.5t13 27.5t6 34.5t1.5 48.5v92q0 48 -38 48q-39 0 -39 -47v-146h-88v144q0 73 30.5 107.5t96.5 34.5t97.5 -34t31.5 -109v-90q0 -60 -12 -97.5t-38 -68.5q-17 -20 -27 -33.5t-14.5 -27t-5.5 -30t-1 -42.5
v-113h-86zM95 0v125h86v-125h-86z" />
    <glyph glyph-name="at" unicode="@" horiz-adv-x="520" 
d="M490 63q1 -5 1.5 -10t0.5 -10q0 -29 -9.5 -55.5t-35.5 -46.5t-71 -32t-115 -12q-54 0 -97 12.5t-73 41.5t-46.5 76.5t-16.5 118.5v349q0 124 55.5 177t175.5 53q115 0 168.5 -50t53.5 -161v-303q0 -52 -26.5 -81t-68.5 -29q-28 0 -49 11t-29 28q-5 -13 -20 -24t-41 -11
q-36 0 -58 20t-22 73v218q0 30 5.5 50t16 31.5t25.5 16t33 4.5q41 0 55 -36q0 9 0.5 16.5t1.5 14.5h45v-322q3 -12 10 -21t24 -9q16 0 26 10.5t10 36.5v308q0 63 -37.5 100t-122.5 37q-89 0 -124.5 -41t-35.5 -117v-351q0 -49 11.5 -82t33 -53t54 -28.5t74.5 -8.5
q46 0 76.5 6t49 16t26 24t7.5 31q0 12 -1 14h60zM294 423q-8 29 -30 29q-17 0 -26.5 -9t-9.5 -30v-207q0 -23 8.5 -33t27.5 -10q22 0 30 24v236z" />
    <glyph glyph-name="A" unicode="A" horiz-adv-x="337" 
d="M232 0l-15 127h-101q-5 -32 -8.5 -63.5t-7.5 -63.5h-90l107 823h107l101 -823h-93zM207 212q-11 94 -21 185.5t-19 188.5q-18 -194 -42 -374h82z" />
    <glyph glyph-name="A" unicode="&#x410;" horiz-adv-x="337" 
d="M232 0l-15 127h-101q-5 -32 -8.5 -63.5t-7.5 -63.5h-90l107 823h107l101 -823h-93zM207 212q-11 94 -21 185.5t-19 188.5q-18 -194 -42 -374h82z" />
    <glyph glyph-name="A" unicode="&#x391;" horiz-adv-x="337" 
d="M232 0l-15 127h-101q-5 -32 -8.5 -63.5t-7.5 -63.5h-90l107 823h107l101 -823h-93zM207 212q-11 94 -21 185.5t-19 188.5q-18 -194 -42 -374h82z" />
    <glyph glyph-name="B" unicode="B" horiz-adv-x="326" 
d="M207 683q0 26 -9 36.5t-29 10.5h-41v-269h42q37 0 37 43v179zM209 332q0 26 -8.5 37t-30.5 11h-42v-288h41q40 0 40 48v192zM36 0v823h133q67 0 95.5 -34t28.5 -109v-167q0 -70 -44 -87q22 -5 38 -26t16 -60v-201q0 -73 -33.5 -106t-100.5 -33h-133z" />
    <glyph glyph-name="B" unicode="&#x412;" horiz-adv-x="326" 
d="M207 683q0 26 -9 36.5t-29 10.5h-41v-269h42q37 0 37 43v179zM209 332q0 26 -8.5 37t-30.5 11h-42v-288h41q40 0 40 48v192zM36 0v823h133q67 0 95.5 -34t28.5 -109v-167q0 -70 -44 -87q22 -5 38 -26t16 -60v-201q0 -73 -33.5 -106t-100.5 -33h-133z" />
    <glyph glyph-name="B" unicode="&#x392;" horiz-adv-x="326" 
d="M207 683q0 26 -9 36.5t-29 10.5h-41v-269h42q37 0 37 43v179zM209 332q0 26 -8.5 37t-30.5 11h-42v-288h41q40 0 40 48v192zM36 0v823h133q67 0 95.5 -34t28.5 -109v-167q0 -70 -44 -87q22 -5 38 -26t16 -60v-201q0 -73 -33.5 -106t-100.5 -33h-133z" />
    <glyph glyph-name="C" unicode="C" horiz-adv-x="310" 
d="M201 302h84v-170q0 -72 -29 -106.5t-93 -34.5q-133 0 -133 139v560q0 142 133 142q122 0 122 -140v-146h-84v146q0 24 -8.5 35.5t-29.5 11.5q-39 0 -39 -47v-561q0 -48 39 -48q38 0 38 48v171z" />
    <glyph glyph-name="C" unicode="&#x421;" horiz-adv-x="310" 
d="M201 302h84v-170q0 -72 -29 -106.5t-93 -34.5q-133 0 -133 139v560q0 142 133 142q122 0 122 -140v-146h-84v146q0 24 -8.5 35.5t-29.5 11.5q-39 0 -39 -47v-561q0 -48 39 -48q38 0 38 48v171z" />
    <glyph glyph-name="D" unicode="D" horiz-adv-x="327" 
d="M206 682q0 48 -40 48h-38v-638h38q40 0 40 48v542zM36 0v823h130q66 0 99 -37.5t33 -103.5v-542q0 -140 -132 -140h-130z" />
    <glyph glyph-name="E" unicode="E" horiz-adv-x="281" 
d="M36 0v823h222v-93h-130v-264h87v-93h-87v-281h135v-92h-227z" />
    <glyph glyph-name="E" unicode="&#x415;" horiz-adv-x="281" 
d="M36 0v823h222v-93h-130v-264h87v-93h-87v-281h135v-92h-227z" />
    <glyph glyph-name="E" unicode="&#x395;" horiz-adv-x="281" 
d="M36 0v823h222v-93h-130v-264h87v-93h-87v-281h135v-92h-227z" />
    <glyph glyph-name="F" unicode="F" horiz-adv-x="271" 
d="M36 0v823h227v-93h-135v-268h88v-93h-88v-369h-92z" />
    <glyph glyph-name="G" unicode="G" horiz-adv-x="323" 
d="M284 -5l-30 39q-14 -23 -41 -33t-58 -10q-27 0 -49.5 7t-39.5 23.5t-26.5 43.5t-9.5 66v560q0 69 33 105t99 36q67 0 97 -36t30 -105v-145h-83v146q0 47 -44 47q-40 0 -40 -47v-561q0 -25 11 -36.5t28 -11.5q42 0 45 42v177h-49v88h138v-395h-11z" />
    <glyph glyph-name="H" unicode="H" horiz-adv-x="333" 
d="M206 0v373h-78v-373h-92v823h92v-358h78v358h92v-823h-92z" />
    <glyph glyph-name="H" unicode="&#x41d;" horiz-adv-x="333" 
d="M206 0v373h-78v-373h-92v823h92v-358h78v358h92v-823h-92z" />
    <glyph glyph-name="H" unicode="&#x397;" horiz-adv-x="333" 
d="M206 0v373h-78v-373h-92v823h92v-358h78v358h92v-823h-92z" />
    <glyph glyph-name="I" unicode="I" horiz-adv-x="168" 
d="M38 0v823h92v-823h-92z" />
    <glyph glyph-name="I" unicode="&#x4cf;" horiz-adv-x="168" 
d="M38 0v823h92v-823h-92z" />
    <glyph glyph-name="I" unicode="&#x4c0;" horiz-adv-x="168" 
d="M38 0v823h92v-823h-92z" />
    <glyph glyph-name="I" unicode="&#x406;" horiz-adv-x="168" 
d="M38 0v823h92v-823h-92z" />
    <glyph glyph-name="I" unicode="&#x399;" horiz-adv-x="168" 
d="M38 0v823h92v-823h-92z" />
    <glyph glyph-name="J" unicode="J" horiz-adv-x="217" 
d="M9 92q9 -2 20 -3.5t25 -1.5q38 0 38 50v686h93v-686q0 -75 -33.5 -109t-97.5 -34q-14 0 -25.5 2t-19.5 4v92z" />
    <glyph glyph-name="J" unicode="&#x408;" horiz-adv-x="217" 
d="M9 92q9 -2 20 -3.5t25 -1.5q38 0 38 50v686h93v-686q0 -75 -33.5 -109t-97.5 -34q-14 0 -25.5 2t-19.5 4v92z" />
    <glyph glyph-name="K" unicode="K" horiz-adv-x="351" 
d="M242 0q-31 103 -59 200.5t-57 197.5q2 -51 2 -104.5v-120.5v-173h-93v823h93v-170v-101.5t-2 -78.5q28 91 56 176.5t57 173.5h99l-132 -371l142 -452h-106z" />
    <glyph glyph-name="K" unicode="&#x41a;" horiz-adv-x="351" 
d="M242 0q-31 103 -59 200.5t-57 197.5q2 -51 2 -104.5v-120.5v-173h-93v823h93v-170v-101.5t-2 -78.5q28 91 56 176.5t57 173.5h99l-132 -371l142 -452h-106z" />
    <glyph glyph-name="K" unicode="&#x39a;" horiz-adv-x="351" 
d="M242 0q-31 103 -59 200.5t-57 197.5q2 -51 2 -104.5v-120.5v-173h-93v823h93v-170v-101.5t-2 -78.5q28 91 56 176.5t57 173.5h99l-132 -371l142 -452h-106z" />
    <glyph glyph-name="L" unicode="L" horiz-adv-x="272" 
d="M36 0v823h92v-731h135v-92h-227z" />
    <glyph glyph-name="M" unicode="M" horiz-adv-x="454" 
d="M336 0v240q0 81 1 161t3 161q-7 -51 -14.5 -104t-16 -118.5t-19 -148t-24.5 -191.5h-80l-72 562q2 -81 3 -161t1 -161v-240h-85v823h123q15 -140 26 -235.5t19 -164t13.5 -116.5t10.5 -92q5 43 11 91.5t14 117t19 164.5t26 235h126v-823h-85z" />
    <glyph glyph-name="M" unicode="&#x41c;" horiz-adv-x="454" 
d="M336 0v240q0 81 1 161t3 161q-7 -51 -14.5 -104t-16 -118.5t-19 -148t-24.5 -191.5h-80l-72 562q2 -81 3 -161t1 -161v-240h-85v823h123q15 -140 26 -235.5t19 -164t13.5 -116.5t10.5 -92q5 43 11 91.5t14 117t19 164.5t26 235h126v-823h-85z" />
    <glyph glyph-name="M" unicode="&#x39c;" horiz-adv-x="454" 
d="M336 0v240q0 81 1 161t3 161q-7 -51 -14.5 -104t-16 -118.5t-19 -148t-24.5 -191.5h-80l-72 562q2 -81 3 -161t1 -161v-240h-85v823h123q15 -140 26 -235.5t19 -164t13.5 -116.5t10.5 -92q5 43 11 91.5t14 117t19 164.5t26 235h126v-823h-85z" />
    <glyph glyph-name="N" unicode="N" horiz-adv-x="355" 
d="M231 0q-23 106 -41 187t-32.5 145.5t-26 117t-21.5 102.5q2 -85 2 -169.5v-169.5v-213h-79v823h108q20 -114 35.5 -198t27.5 -148t21.5 -114.5t18.5 -98.5q-2 72 -2 141v138v280h79v-823h-90z" />
    <glyph glyph-name="N" unicode="&#x39d;" horiz-adv-x="355" 
d="M231 0q-23 106 -41 187t-32.5 145.5t-26 117t-21.5 102.5q2 -85 2 -169.5v-169.5v-213h-79v823h108q20 -114 35.5 -198t27.5 -148t21.5 -114.5t18.5 -98.5q-2 72 -2 141v138v280h79v-823h-90z" />
    <glyph glyph-name="O" unicode="O" horiz-adv-x="322" 
d="M30 692q0 140 131 140q132 0 132 -140v-561q0 -140 -132 -140q-131 0 -131 140v561zM201 692q0 47 -40 47q-39 0 -39 -47v-561q0 -48 39 -48q40 0 40 48v561z" />
    <glyph glyph-name="O" unicode="&#x41e;" horiz-adv-x="322" 
d="M30 692q0 140 131 140q132 0 132 -140v-561q0 -140 -132 -140q-131 0 -131 140v561zM201 692q0 47 -40 47q-39 0 -39 -47v-561q0 -48 39 -48q40 0 40 48v561z" />
    <glyph glyph-name="O" unicode="&#x39f;" horiz-adv-x="322" 
d="M30 692q0 140 131 140q132 0 132 -140v-561q0 -140 -132 -140q-131 0 -131 140v561zM201 692q0 47 -40 47q-39 0 -39 -47v-561q0 -48 39 -48q40 0 40 48v561z" />
    <glyph glyph-name="P" unicode="P" horiz-adv-x="323" 
d="M218 675q0 28 -12 41.5t-40 13.5h-38v-249h39q51 0 51 55v139zM36 0v823h130q75 0 109 -35.5t34 -113.5v-135q0 -78 -34.5 -113t-107.5 -35h-39v-391h-92z" />
    <glyph glyph-name="P" unicode="&#x420;" horiz-adv-x="323" 
d="M218 675q0 28 -12 41.5t-40 13.5h-38v-249h39q51 0 51 55v139zM36 0v823h130q75 0 109 -35.5t34 -113.5v-135q0 -78 -34.5 -113t-107.5 -35h-39v-391h-92z" />
    <glyph glyph-name="P" unicode="&#x3a1;" horiz-adv-x="323" 
d="M218 675q0 28 -12 41.5t-40 13.5h-38v-249h39q51 0 51 55v139zM36 0v823h130q75 0 109 -35.5t34 -113.5v-135q0 -78 -34.5 -113t-107.5 -35h-39v-391h-92z" />
    <glyph glyph-name="Q" unicode="Q" horiz-adv-x="322" 
d="M293 -74q-9 -9 -25.5 -15.5t-42.5 -6.5t-44.5 9t-31 23.5t-18.5 33t-6 38.5q-96 18 -96 137v547q0 140 132 140t132 -140v-547q0 -126 -106 -139q4 -14 18 -21.5t35 -7.5q32 0 53 21v-72zM200 692q0 47 -39 47t-39 -47v-552q0 -47 39 -47t39 47v552z" />
    <glyph glyph-name="R" unicode="R" horiz-adv-x="332" 
d="M214 656q0 38 -9 56t-42 18h-35v-276h36q50 0 50 53v149zM214 0q-11 94 -22 185t-26 185h-38v-370h-93v823h128q72 0 108.5 -33.5t36.5 -114.5v-167q0 -48 -13 -75.5t-41 -43.5q18 -100 32.5 -196t28.5 -193h-101z" />
    <glyph glyph-name="S" unicode="S" horiz-adv-x="311" 
d="M194 244q0 28 -6 44.5t-23 38.5q-10 13 -26 31.5t-32.5 38.5t-32 39t-24.5 33q-14 22 -19.5 45t-5.5 59v123q0 136 133 136q68 0 96.5 -33.5t28.5 -102.5v-150h-86v149q0 20 -9 32t-30 12q-39 0 -39 -43v-122q0 -17 3 -30t13 -26q7 -11 22 -28t32 -36.5t33.5 -40
t28.5 -37.5q10 -14 16.5 -27.5t10.5 -28.5t6 -33t2 -42v-118q0 -66 -30.5 -101t-99.5 -35t-100 35t-31 101v175h89v-175q0 -20 9.5 -32t30.5 -12q40 0 40 44v117z" />
    <glyph glyph-name="S" unicode="&#x405;" horiz-adv-x="311" 
d="M194 244q0 28 -6 44.5t-23 38.5q-10 13 -26 31.5t-32.5 38.5t-32 39t-24.5 33q-14 22 -19.5 45t-5.5 59v123q0 136 133 136q68 0 96.5 -33.5t28.5 -102.5v-150h-86v149q0 20 -9 32t-30 12q-39 0 -39 -43v-122q0 -17 3 -30t13 -26q7 -11 22 -28t32 -36.5t33.5 -40
t28.5 -37.5q10 -14 16.5 -27.5t10.5 -28.5t6 -33t2 -42v-118q0 -66 -30.5 -101t-99.5 -35t-100 35t-31 101v175h89v-175q0 -20 9.5 -32t30.5 -12q40 0 40 44v117z" />
    <glyph glyph-name="T" unicode="T" horiz-adv-x="283" 
d="M96 0v730h-86v93h264v-93h-86v-730h-92z" />
    <glyph glyph-name="T" unicode="&#x422;" horiz-adv-x="283" 
d="M96 0v730h-86v93h264v-93h-86v-730h-92z" />
    <glyph glyph-name="T" unicode="&#x3a4;" horiz-adv-x="283" 
d="M96 0v730h-86v93h264v-93h-86v-730h-92z" />
    <glyph glyph-name="U" unicode="U" horiz-adv-x="327" 
d="M203 823h92v-692q0 -140 -131 -140t-131 140v692h92v-692q0 -48 39 -48t39 48v692z" />
    <glyph glyph-name="V" unicode="V" horiz-adv-x="340" 
d="M105 0l-94 823h96q6 -68 12.5 -138.5t13 -138t13 -129t11 -112.5t8 -88.5t4.5 -56.5q2 28 9 97t16.5 160.5t21 197t21.5 208.5h92l-101 -823h-123z" />
    <glyph glyph-name="W" unicode="W" horiz-adv-x="531" 
d="M314 0q-10 103 -19.5 199.5t-16.5 173.5t-11 129.5t-4 67.5q-1 -15 -6.5 -67.5t-13 -130t-17.5 -173.5t-20 -199h-110l-85 823h96q8 -108 16.5 -210.5t16 -185t12.5 -139.5t6 -75q1 18 7 75t15 139.5t20 185t23 210.5h86q10 -108 19.5 -210.5t17.5 -185t13 -139.5t6 -75
q1 18 6.5 75t14 139.5t18.5 185t20 210.5h97l-98 -823h-109z" />
    <glyph glyph-name="X" unicode="X" horiz-adv-x="341" 
d="M239 0q-9 50 -20.5 103.5t-22 101.5t-18.5 85t-10 53q-2 -16 -9.5 -53t-17.5 -84.5t-21.5 -101.5t-21.5 -104h-94l113 440l-95 383h99q6 -39 14.5 -82t16 -82t13.5 -69.5t7 -43.5q1 13 7 43.5t14 69.5t16.5 82t14.5 82h96l-97 -380l115 -443h-99z" />
    <glyph glyph-name="X" unicode="&#x425;" horiz-adv-x="341" 
d="M239 0q-9 50 -20.5 103.5t-22 101.5t-18.5 85t-10 53q-2 -16 -9.5 -53t-17.5 -84.5t-21.5 -101.5t-21.5 -104h-94l113 440l-95 383h99q6 -39 14.5 -82t16 -82t13.5 -69.5t7 -43.5q1 13 7 43.5t14 69.5t16.5 82t14.5 82h96l-97 -380l115 -443h-99z" />
    <glyph glyph-name="X" unicode="&#x3a7;" horiz-adv-x="341" 
d="M239 0q-9 50 -20.5 103.5t-22 101.5t-18.5 85t-10 53q-2 -16 -9.5 -53t-17.5 -84.5t-21.5 -101.5t-21.5 -104h-94l113 440l-95 383h99q6 -39 14.5 -82t16 -82t13.5 -69.5t7 -43.5q1 13 7 43.5t14 69.5t16.5 82t14.5 82h96l-97 -380l115 -443h-99z" />
    <glyph glyph-name="Y" unicode="Y" horiz-adv-x="334" 
d="M118 0v360l-110 463h97q9 -51 19.5 -103t19.5 -96.5t16 -78t9 -47.5q2 14 9.5 47.5t17 78.5t20.5 96.5t20 102.5h90l-114 -463v-360h-94z" />
    <glyph glyph-name="Y" unicode="&#x4ae;" horiz-adv-x="334" 
d="M118 0v360l-110 463h97q9 -51 19.5 -103t19.5 -96.5t16 -78t9 -47.5q2 14 9.5 47.5t17 78.5t20.5 96.5t20 102.5h90l-114 -463v-360h-94z" />
    <glyph glyph-name="Y" unicode="&#x3a5;" horiz-adv-x="334" 
d="M118 0v360l-110 463h97q9 -51 19.5 -103t19.5 -96.5t16 -78t9 -47.5q2 14 9.5 47.5t17 78.5t20.5 96.5t20 102.5h90l-114 -463v-360h-94z" />
    <glyph glyph-name="Z" unicode="Z" horiz-adv-x="308" 
d="M24 0v94l170 639h-163v90h255v-83l-166 -646h166v-94h-262z" />
    <glyph glyph-name="Z" unicode="&#x396;" horiz-adv-x="308" 
d="M24 0v94l170 639h-163v90h255v-83l-166 -646h166v-94h-262z" />
    <glyph glyph-name="bracketleft" unicode="[" horiz-adv-x="250" 
d="M73 -80v983h157v-67h-91v-849h91v-67h-157z" />
    <glyph glyph-name="backslash" unicode="\" horiz-adv-x="242" 
d="M170 0l-165 823h68l164 -823h-67z" />
    <glyph glyph-name="bracketright" unicode="]" horiz-adv-x="250" 
d="M73 -80v67h91v849h-91v67h157v-983h-157z" />
    <glyph glyph-name="asciicircum" unicode="^" horiz-adv-x="319" 
d="M217 526l-55 225l-60 -225h-66l82 297h84l81 -297h-66z" />
    <glyph glyph-name="underscore" unicode="_" horiz-adv-x="302" 
d="M-1 -108v62h305v-62h-305z" />
    <glyph glyph-name="grave" unicode="`" horiz-adv-x="289" 
d="M173 656l-137 161h106l111 -161h-80z" />
    <glyph glyph-name="a" unicode="a" 
d="M179 0q-4 9 -4 34q-11 -20 -27.5 -31.5t-41.5 -11.5q-42 0 -63.5 23t-21.5 75v91q0 44 11.5 73.5t32 50t47.5 34.5t58 28v140q0 19 -7.5 29t-25.5 10q-21 0 -27.5 -10t-6.5 -29v-130h-73v131q0 122 109 122q111 0 111 -122v-454q0 -33 5 -53h-76zM170 299
q-25 -9 -38.5 -20.5t-20 -26.5t-7.5 -34.5t-1 -43.5v-64q0 -38 34 -38q24 0 33 27v200z" />
    <glyph glyph-name="a" unicode="&#x430;" 
d="M179 0q-4 9 -4 34q-11 -20 -27.5 -31.5t-41.5 -11.5q-42 0 -63.5 23t-21.5 75v91q0 44 11.5 73.5t32 50t47.5 34.5t58 28v140q0 19 -7.5 29t-25.5 10q-21 0 -27.5 -10t-6.5 -29v-130h-73v131q0 122 109 122q111 0 111 -122v-454q0 -33 5 -53h-76zM170 299
q-25 -9 -38.5 -20.5t-20 -26.5t-7.5 -34.5t-1 -43.5v-64q0 -38 34 -38q24 0 33 27v200z" />
    <glyph glyph-name="b" unicode="b" horiz-adv-x="304" 
d="M191 506q0 36 -34 36q-12 0 -22.5 -6.5t-15.5 -20.5v-404q10 -28 38 -28q17 0 25.5 9t8.5 30v384zM36 0v823h83v-223q24 29 65 29q46 0 68 -27t22 -87v-392q0 -66 -25 -97.5t-80 -31.5q-28 0 -47 13t-31 33q-2 -11 -5 -20.5t-8 -19.5h-42z" />
    <glyph glyph-name="c" unicode="c" horiz-adv-x="284" 
d="M179 253h78v-138q0 -57 -27 -90.5t-85 -33.5q-60 0 -87.5 34.5t-27.5 91.5v384q0 57 27.5 92.5t87.5 35.5q58 0 84 -35t26 -92v-134h-76v136q0 39 -34 39t-34 -40v-386q0 -41 34 -41t34 41v136z" />
    <glyph glyph-name="c" unicode="&#x441;" horiz-adv-x="284" 
d="M179 253h78v-138q0 -57 -27 -90.5t-85 -33.5q-60 0 -87.5 34.5t-27.5 91.5v384q0 57 27.5 92.5t87.5 35.5q58 0 84 -35t26 -92v-134h-76v136q0 39 -34 39t-34 -40v-386q0 -41 34 -41t34 41v136z" />
    <glyph glyph-name="d" unicode="d" horiz-adv-x="304" 
d="M185 517q-5 14 -15.5 20.5t-22.5 6.5q-34 0 -34 -37v-385q0 -21 8.5 -30t25.5 -9q12 0 22.5 7t15.5 21v406zM198 0q-3 18 -3 40q-10 -23 -28 -34.5t-50 -11.5q-42 0 -64.5 28.5t-22.5 88.5v404q0 60 22 87t68 27q41 0 65 -29v223h83v-823h-70z" />
    <glyph glyph-name="e" unicode="e" horiz-adv-x="280" 
d="M173 502q0 40 -34 40q-32 0 -32 -40v-144h66v144zM173 252h78v-136q0 -125 -112 -125q-109 0 -109 125v386q0 127 109 127q112 0 112 -127v-204h-144v-182q0 -40 32 -40q34 0 34 41v135z" />
    <glyph glyph-name="e" unicode="&#x435;" horiz-adv-x="280" 
d="M173 502q0 40 -34 40q-32 0 -32 -40v-144h66v144zM173 252h78v-136q0 -125 -112 -125q-109 0 -109 125v386q0 127 109 127q112 0 112 -127v-204h-144v-182q0 -40 32 -40q34 0 34 41v135z" />
    <glyph glyph-name="f" unicode="f" horiz-adv-x="191" 
d="M39 0v546h-30v73h30v86q0 54 21.5 88.5t75.5 34.5q26 0 46 -6v-71q-4 2 -9.5 2h-10.5q-19 0 -29.5 -11.5t-10.5 -38.5v-84h58v-73h-58v-546h-83z" />
    <glyph glyph-name="g" unicode="g" horiz-adv-x="304" 
d="M188 58q-24 -29 -69 -29q-46 0 -67.5 26.5t-21.5 86.5v366q0 60 22.5 88.5t64.5 28.5q29 0 47.5 -11.5t30.5 -34.5q0 22 3 40h70v-651q0 -57 -27.5 -87t-87.5 -30q-65 0 -90 30.5t-25 86.5v25h75v-29q0 -40 38 -40q37 0 37 40v94zM188 508q-12 27 -41 27q-35 0 -35 -36
v-353q0 -37 35 -37q27 0 41 27v372z" />
    <glyph glyph-name="h" unicode="h" horiz-adv-x="303" 
d="M187 0v510q0 37 -30 37q-11 0 -21.5 -5.5t-16.5 -18.5v-523h-83v823h83v-229q29 35 74 35q78 0 78 -114v-515h-84z" />
    <glyph glyph-name="h" unicode="&#x4bb;" horiz-adv-x="303" 
d="M187 0v510q0 37 -30 37q-11 0 -21.5 -5.5t-16.5 -18.5v-523h-83v823h83v-229q29 35 74 35q78 0 78 -114v-515h-84z" />
    <glyph glyph-name="i" unicode="i" horiz-adv-x="158" 
d="M38 698v125h83v-125h-83zM38 0v619h83v-619h-83z" />
    <glyph glyph-name="i" unicode="&#x456;" horiz-adv-x="158" 
d="M38 698v125h83v-125h-83zM38 0v619h83v-619h-83z" />
    <glyph glyph-name="j" unicode="j" horiz-adv-x="172" 
d="M-24 -57q13 -4 37 -4q38 0 38 48v632h83v-632q0 -69 -30.5 -100t-90.5 -31q-24 0 -37 4v83zM51 698v125h83v-125h-83z" />
    <glyph glyph-name="j" unicode="&#x458;" horiz-adv-x="172" 
d="M-24 -57q13 -4 37 -4q38 0 38 48v632h83v-632q0 -69 -30.5 -100t-90.5 -31q-24 0 -37 4v83zM51 698v125h83v-125h-83z" />
    <glyph glyph-name="k" unicode="k" horiz-adv-x="300" 
d="M203 0q-24 86 -38.5 138.5t-23.5 85t-14.5 51.5t-10.5 39v-38.5t0.5 -38t0.5 -41v-48.5v-148h-82v823h82v-324v-42t-0.5 -35.5t-0.5 -32.5v-33q16 51 38.5 118t50.5 145h86l-98 -270l101 -349h-91z" />
    <glyph glyph-name="l" unicode="l" horiz-adv-x="155" 
d="M36 0v823h83v-823h-83z" />
    <glyph glyph-name="m" unicode="m" horiz-adv-x="442" 
d="M326 0v512q0 35 -27 35q-22 0 -35 -24v-523h-83v512q0 35 -28 35q-9 0 -18.5 -5.5t-15.5 -18.5v-523h-83v619h70q3 -18 3 -39q14 23 34.5 36t44.5 13q50 0 65 -46q13 21 34 33.5t47 12.5q75 0 75 -116v-513h-83z" />
    <glyph glyph-name="n" unicode="n" horiz-adv-x="303" 
d="M187 0v510q0 37 -30 37q-11 0 -21.5 -5.5t-16.5 -18.5v-523h-83v619h70q3 -18 3 -40q30 50 83 50q79 0 79 -114v-515h-84z" />
    <glyph glyph-name="o" unicode="o" horiz-adv-x="291" 
d="M30 505q0 60 28 92t88 32q57 0 86.5 -32t29.5 -92v-391q0 -60 -29.5 -91.5t-86.5 -31.5q-60 0 -88 31.5t-28 91.5v391zM180 502q0 20 -7 30.5t-27 10.5t-27.5 -10.5t-7.5 -30.5v-386q0 -20 7.5 -30t27.5 -10t27 10.5t7 30.5v385z" />
    <glyph glyph-name="o" unicode="&#x43e;" horiz-adv-x="291" 
d="M30 505q0 60 28 92t88 32q57 0 86.5 -32t29.5 -92v-391q0 -60 -29.5 -91.5t-86.5 -31.5q-60 0 -88 31.5t-28 91.5v391zM180 502q0 20 -7 30.5t-27 10.5t-27.5 -10.5t-7.5 -30.5v-386q0 -20 7.5 -30t27.5 -10t27 10.5t7 30.5v385z" />
    <glyph glyph-name="o" unicode="&#x3bf;" horiz-adv-x="291" 
d="M30 505q0 60 28 92t88 32q57 0 86.5 -32t29.5 -92v-391q0 -60 -29.5 -91.5t-86.5 -31.5q-60 0 -88 31.5t-28 91.5v391zM180 502q0 20 -7 30.5t-27 10.5t-27.5 -10.5t-7.5 -30.5v-386q0 -20 7.5 -30t27.5 -10t27 10.5t7 30.5v385z" />
    <glyph glyph-name="p" unicode="p" horiz-adv-x="304" 
d="M191 497q0 22 -8.5 30.5t-25.5 8.5q-12 0 -22.5 -6.5t-15.5 -20.5v-407q5 -14 15.5 -20.5t22.5 -6.5q34 0 34 37v385zM36 -139v758h70q3 -20 3 -40q10 23 28 34.5t50 11.5q42 0 64.5 -28.5t22.5 -88.5v-404q0 -60 -22 -86.5t-68 -26.5q-43 0 -65 28v-158h-83z" />
    <glyph glyph-name="p" unicode="&#x440;" horiz-adv-x="304" 
d="M191 497q0 22 -8.5 30.5t-25.5 8.5q-12 0 -22.5 -6.5t-15.5 -20.5v-407q5 -14 15.5 -20.5t22.5 -6.5q34 0 34 37v385zM36 -139v758h70q3 -20 3 -40q10 23 28 34.5t50 11.5q42 0 64.5 -28.5t22.5 -88.5v-404q0 -60 -22 -86.5t-68 -26.5q-43 0 -65 28v-158h-83z" />
    <glyph glyph-name="q" unicode="q" horiz-adv-x="304" 
d="M185 511q-5 14 -15.5 20.5t-22.5 6.5q-34 0 -34 -39v-387q0 -37 34 -37q12 0 22.5 6.5t15.5 20.5v409zM185 -139v158q-22 -28 -65 -28q-46 0 -68 26.5t-22 86.5v404q0 60 22.5 88.5t64.5 28.5q32 0 50 -12.5t28 -33.5q0 20 3 40h70v-758h-83z" />
    <glyph glyph-name="r" unicode="r" horiz-adv-x="207" 
d="M36 0v619h70q3 -18 3 -38q22 45 68 45q11 0 19 -4v-93q-6 4 -14.5 5.5t-17.5 1.5q-13 0 -25.5 -5.5t-19.5 -21.5v-509h-83z" />
    <glyph glyph-name="s" unicode="s" horiz-adv-x="279" 
d="M252 105q0 -61 -29 -87.5t-89 -26.5q-54 0 -81.5 28.5t-27.5 89.5v98h76v-96q0 -19 9.5 -28.5t25.5 -9.5q33 0 33 38v67q0 20 -3.5 30.5t-15.5 26.5q-23 31 -49 57t-49 56q-16 20 -21.5 44.5t-5.5 55.5v59q0 67 29 94.5t83 27.5q65 0 88.5 -29.5t23.5 -92.5v-98h-76v98
q0 19 -9.5 28.5t-24.5 9.5q-32 0 -32 -38v-68q0 -15 2.5 -25.5t13.5 -24.5q23 -29 48.5 -53.5t46.5 -51.5t27.5 -53t6.5 -65v-61z" />
    <glyph glyph-name="s" unicode="&#x455;" horiz-adv-x="279" 
d="M252 105q0 -61 -29 -87.5t-89 -26.5q-54 0 -81.5 28.5t-27.5 89.5v98h76v-96q0 -19 9.5 -28.5t25.5 -9.5q33 0 33 38v67q0 20 -3.5 30.5t-15.5 26.5q-23 31 -49 57t-49 56q-16 20 -21.5 44.5t-5.5 55.5v59q0 67 29 94.5t83 27.5q65 0 88.5 -29.5t23.5 -92.5v-98h-76v98
q0 19 -9.5 28.5t-24.5 9.5q-32 0 -32 -38v-68q0 -15 2.5 -25.5t13.5 -24.5q23 -29 48.5 -53.5t46.5 -51.5t27.5 -53t6.5 -65v-61z" />
    <glyph glyph-name="t" unicode="t" horiz-adv-x="191" 
d="M181 -5q-6 -2 -14.5 -3t-16.5 -1q-57 0 -84.5 34t-27.5 94v427h-30v73h30v196h84v-196h57v-73h-57v-426q0 -57 46 -57h6.5t6.5 1v-69z" />
    <glyph glyph-name="u" unicode="u" horiz-adv-x="301" 
d="M195 0q-3 18 -3 39q-29 -45 -81 -45q-38 0 -58 27.5t-20 78.5v519h83v-506q0 -37 29 -37q11 0 21 5.5t16 18.5v519h84v-619h-71z" />
    <glyph glyph-name="v" unicode="v" horiz-adv-x="278" 
d="M95 0l-86 619h84q9 -81 16 -141.5t12 -108t9 -86t7 -74.5q4 36 8.5 74.5t10.5 86t13.5 108t17.5 141.5h80l-89 -619h-83z" />
    <glyph glyph-name="v" unicode="&#x3bd;" horiz-adv-x="278" 
d="M95 0l-86 619h84q9 -81 16 -141.5t12 -108t9 -86t7 -74.5q4 36 8.5 74.5t10.5 86t13.5 108t17.5 141.5h80l-89 -619h-83z" />
    <glyph glyph-name="w" unicode="w" horiz-adv-x="421" 
d="M247 0l-39 429l-43 -429h-97l-56 619h77l33 -456l49 456h77l43 -456l41 456h77l-64 -619h-98z" />
    <glyph glyph-name="x" unicode="x" 
d="M194 0q-8 41 -16.5 83t-16 79t-13 66.5t-7.5 45.5q-2 -16 -7 -45.5t-12 -66.5t-15.5 -79t-17.5 -83h-83l82 331l-70 288h87q6 -31 12 -63t11.5 -61t9.5 -54t6 -42q2 17 5.5 42t9 54t12 61t13.5 63h83l-70 -287l83 -332h-86z" />
    <glyph glyph-name="x" unicode="&#x445;" 
d="M194 0q-8 41 -16.5 83t-16 79t-13 66.5t-7.5 45.5q-2 -16 -7 -45.5t-12 -66.5t-15.5 -79t-17.5 -83h-83l82 331l-70 288h87q6 -31 12 -63t11.5 -61t9.5 -54t6 -42q2 17 5.5 42t9 54t12 61t13.5 63h83l-70 -287l83 -332h-86z" />
    <glyph glyph-name="y" unicode="y" horiz-adv-x="278" 
d="M18 -56q11 -4 34 -4q21 0 29 18t13 48l2 13l-87 600h87q9 -82 15.5 -145t11.5 -113.5t8.5 -93t6.5 -82.5q4 40 8.5 82.5t10 93t13 113.5t17.5 145h80l-84 -596q-6 -39 -14 -70t-21.5 -52.5t-36 -33t-56.5 -11.5q-17 0 -37 5v83z" />
    <glyph glyph-name="y" unicode="&#x443;" horiz-adv-x="278" 
d="M18 -56q11 -4 34 -4q21 0 29 18t13 48l2 13l-87 600h87q9 -82 15.5 -145t11.5 -113.5t8.5 -93t6.5 -82.5q4 40 8.5 82.5t10 93t13 113.5t17.5 145h80l-84 -596q-6 -39 -14 -70t-21.5 -52.5t-36 -33t-56.5 -11.5q-17 0 -37 5v83z" />
    <glyph glyph-name="z" unicode="z" horiz-adv-x="256" 
d="M24 0v79l131 458h-129v82h208v-77l-127 -457h126v-85h-209z" />
    <glyph glyph-name="braceleft" unicode="{" horiz-adv-x="273" 
d="M248 -80q-142 0 -142 137v211q0 19 -3.5 28.5t-11.5 19.5l-76 96l76 95q8 10 11.5 19.5t3.5 28.5v210q0 138 142 138h8v-67h-7q-40 0 -58.5 -17t-18.5 -57v-203q0 -32 -6 -50.5t-23 -38.5l-47 -58l47 -59q17 -20 23 -39.5t6 -50.5v-202q0 -40 18.5 -57t58.5 -17h7v-67h-8
z" />
    <glyph glyph-name="bar" unicode="|" horiz-adv-x="201" 
d="M67 -80v983h67v-983h-67z" />
    <glyph glyph-name="braceright" unicode="}" horiz-adv-x="273" 
d="M15 -80v67h7q40 0 58.5 17t18.5 57v202q0 31 6 50.5t23 39.5l47 59l-47 58q-17 20 -23 38.5t-6 50.5v203q0 40 -18.5 57t-58.5 17h-7v67h8q142 0 142 -138v-210q0 -19 3.5 -28.5t11.5 -19.5l76 -95l-76 -96q-8 -10 -11.5 -19.5t-3.5 -28.5v-211q0 -137 -142 -137h-8z" />
    <glyph glyph-name="asciitilde" unicode="~" horiz-adv-x="467" 
d="M433 400q-23 -19 -49.5 -28t-63.5 -9q-24 0 -47 7t-45.5 16t-44.5 16t-44 7q-27 0 -52 -10.5t-51 -40.5v82q15 15 40 26.5t60 11.5q28 0 53 -7t47.5 -16t44 -16t42.5 -7q33 0 58.5 11t51.5 39v-82z" />
    <glyph glyph-name="nonbreakingspace" unicode="&#xa0;" horiz-adv-x="136" 
 />
    <glyph glyph-name="exclamdown" unicode="&#xa1;" horiz-adv-x="173" 
d="M39 0zM134.002 703v-108.993h-94.9941v108.993h94.9941zM116.004 544.01l17.998 -296.982v-366.978h-94.9941v364.979l18.999 298.981h57.9971z" />
    <glyph glyph-name="cent" unicode="&#xa2;" horiz-adv-x="282" 
d="M130 0v89q-51 4 -75.5 38t-24.5 88v381q0 54 24.5 87.5t75.5 38.5v101h31v-101q51 -5 72.5 -39t21.5 -86v-136h-67v137q0 15 -8 25.5t-22 12.5v-461q30 4 30 40v132h69v-134q0 -52 -22.5 -85t-73.5 -38v-90h-31zM134 636q-15 -2 -23 -12.5t-8 -25.5v-383q0 -38 31 -39
v460z" />
    <glyph glyph-name="sterling" unicode="&#xa3;" horiz-adv-x="287" 
d="M268 22q-23 -30 -66 -30q-18 0 -33.5 6t-30 12.5t-27.5 12.5t-26 6q-17 0 -31.5 -7.5t-30.5 -30.5h-4v85q8 11 20.5 19.5t29.5 10.5q2 24 3.5 43.5t2 40.5t1 47t0.5 64v160h-54v70h54v143q0 76 32 117t92 41q14 0 28 -1.5t23 -5.5v-85q-15 7 -33 7q-32 0 -47 -19t-15 -53
v-144h95v-70h-95v-161q0 -37 -1 -66t-2.5 -54t-3.5 -46.5t-5 -43.5q13 -5 27.5 -12t33.5 -7t33.5 6.5t25.5 23.5h4v-79z" />
    <glyph glyph-name="currency" unicode="&#xa4;" horiz-adv-x="490" 
d="M362 227q-26 -17 -55 -27.5t-62 -10.5q-32 0 -62.5 10.5t-53.5 27.5l-65 -68l-49 50l66 65q-18 24 -28 54t-10 63q0 32 10 61.5t28 55.5l-65 63l49 51l63 -67q49 39 117 39q66 0 118 -40l61 68l50 -51l-65 -63q39 -51 39 -117q0 -33 -10.5 -63t-28.5 -54l66 -65l-50 -50z
M372 391q0 26 -10 49t-27.5 40t-40.5 27t-49 10t-49 -10t-40 -27t-27 -40t-10 -49q0 -27 10 -50t27 -40t40 -26.5t49 -9.5t49 9.5t40.5 26.5t27.5 40t10 50z" />
    <glyph glyph-name="yen" unicode="&#xa5;" horiz-adv-x="342" 
d="M212 87v-87h-87v87h-109v72h109v85h-109v72h109v41l-114 466h98l64 -325l66 325h91l-118 -466v-41h109v-72h-109v-85h109v-72h-109z" />
    <glyph glyph-name="brokenbar" unicode="&#xa6;" horiz-adv-x="201" 
d="M67 500v403h67v-403h-67zM67 -80v403h67v-403h-67z" />
    <glyph glyph-name="section" unicode="&#xa7;" horiz-adv-x="288" 
d="M252 -21q0 -118 -114 -118q-60 0 -85 29t-25 89v101h75v-96q0 -21 7 -31.5t26 -10.5q34 0 34 37v76q0 14 -2.5 26t-11.5 23q-24 32 -50.5 61.5t-49.5 61.5q-19 26 -25 51.5t-6 62.5v70q0 39 13 65.5t41 37.5q-12 15 -21 28.5t-15 27.5t-8.5 30t-2.5 37v77q0 118 114 118
q60 0 85 -29t25 -89v-101h-75v96q0 21 -7 31.5t-26 10.5q-34 0 -34 -37v-76q0 -14 2.5 -26t11.5 -23q24 -32 50.5 -61.5t49.5 -61.5q19 -26 25 -51.5t6 -62.5v-70q0 -82 -54 -103q13 -17 22 -30.5t14.5 -27t8 -29t2.5 -36.5v-77zM179 351q0 22 -5.5 38.5t-19.5 33.5l-22 26
q-17 -2 -22 -11.5t-5 -26.5v-69q0 -23 5.5 -38.5t19.5 -33.5l21 -27q17 2 22.5 12t5.5 27v69z" />
    <glyph glyph-name="dieresis" unicode="&#xa8;" horiz-adv-x="307" 
d="M188 668v125h84v-125h-84zM36 668v125h83v-125h-83z" />
    <glyph glyph-name="copyright" unicode="&#xa9;" horiz-adv-x="521" 
d="M492 221q0 -62 -13.5 -106t-42 -71.5t-72 -40t-103.5 -12.5t-103.5 12.5t-72 40t-42 71.5t-13.5 106v381q0 62 13.5 106t42 71.5t72 40t103.5 12.5q119 0 175 -53t56 -177v-381zM429 609q0 46 -8.5 77.5t-28.5 51t-52 27.5t-79 8q-48 0 -80 -8t-52 -27.5t-28.5 -51
t-8.5 -77.5v-396q0 -87 38 -124.5t131 -37.5q47 0 79 9t52 28.5t28.5 50t8.5 74.5v396zM285 347h53v-107q0 -45 -17 -66.5t-59 -21.5t-63 21t-21 66v352q0 90 84 90q76 0 76 -89v-92h-53v92q0 30 -23 30q-24 0 -24 -30v-353q0 -29 24 -29q23 0 23 29v108z" />
    <glyph glyph-name="ordfeminine" unicode="&#xaa;" horiz-adv-x="216" 
d="M123 300q-2 8 -2 17q-6 -10 -14 -16t-23 -6q-20 0 -31.5 12.5t-11.5 41.5v50q0 24 5.5 39.5t16 26.5t24 18.5t30.5 15.5v80q0 13 -12 13t-12 -13v-72h-47v72q0 67 61 67q62 0 62 -67v-250q0 -22 3 -29h-49zM117 456q-11 -7 -17 -14t-6 -22v-61q0 -11 11 -11q9 0 12 8v100
z" />
    <glyph glyph-name="guillemotleft" unicode="&#xab;" horiz-adv-x="390" 
d="M18 174zM18 286v95l159 106v-78l-115 -75l115 -79v-81zM213 286v95l159 106v-78l-115 -75l115 -79v-81z" />
    <glyph glyph-name="logicalnot" unicode="&#xac;" horiz-adv-x="427" 
d="M305 0v374h-286v88h372v-462h-86z" />
    <glyph glyph-name="registered" unicode="&#xae;" horiz-adv-x="521" 
d="M491 221q0 -62 -13.5 -106t-42 -71.5t-72 -40t-103.5 -12.5t-103.5 12.5t-72 40t-42 71.5t-13.5 106v381q0 124 56 177t175 53q60 0 103.5 -12.5t72 -40t42 -71.5t13.5 -106v-381zM429 609q0 46 -8.5 77.5t-28.5 50.5t-52.5 27t-79.5 8t-79.5 -8t-52 -27t-28 -50.5
t-8.5 -77.5v-396q0 -87 37.5 -124.5t130.5 -37.5q47 0 79.5 9t52.5 28.5t28.5 50t8.5 74.5v396zM291 569q0 23 -6 34.5t-26 11.5h-21v-172h21q32 0 32 33v93zM291 157q-7 60 -14 116.5t-16 113.5h-23v-230h-59v518h80q48 0 69.5 -21.5t21.5 -72.5v-106q0 -30 -7.5 -48
t-25.5 -27q12 -61 21.5 -122t17.5 -121h-65z" />
    <glyph glyph-name="macron" unicode="&#xaf;" horiz-adv-x="305" 
d="M36 694v72h234v-72h-234z" />
    <glyph glyph-name="degree" unicode="&#xb0;" horiz-adv-x="306" 
d="M153 560q-63 0 -93 36.5t-30 94.5q0 57 30 95.5t93 38.5q61 0 92 -38.5t31 -95.5q0 -58 -31 -94.5t-92 -36.5zM152 611q37 0 53.5 19t16.5 61t-16.5 62t-53.5 20q-72 0 -72 -82q0 -80 72 -80z" />
    <glyph glyph-name="plusminus" unicode="&#xb1;" horiz-adv-x="466" 
d="M36 105zM199 221v164h-163v69h163v163h69v-163h164v-69h-164v-164h-69zM36 105v69h396v-69h-396z" />
    <glyph glyph-name="twosuperior" unicode="&#xb2;" horiz-adv-x="185" 
d="M27 422zM27 422v75q0 18 1.5 32t5.5 26.5t11.5 26.5t20.5 34q12 18 20 31.5t13 25t7 23.5t2 27v44q0 20 -16 20q-15 0 -15 -20v-72h-50v71q0 38 16 55t48 17q68 0 68 -72v-49q0 -36 -12.5 -62t-29.5 -53q-14 -21 -21.5 -34.5t-12 -24t-5.5 -21t-1 -25.5v-25h82v-50h-132z
" />
    <glyph glyph-name="threesuperior" unicode="&#xb3;" horiz-adv-x="185" 
d="M26 417zM109 588q0 20 -16 20h-21v47h23q14 0 14 20v92q0 20 -16 20t-16 -20v-73h-49v73q0 38 15.5 54.5t48.5 16.5q34 0 49.5 -17t15.5 -55v-92q0 -31 -25 -43q26 -9 26 -44v-100q0 -32 -16 -51t-49 -19t-50 19t-17 51v81h51v-81q0 -20 16 -20t16 20v101z" />
    <glyph glyph-name="acute" unicode="&#xb4;" horiz-adv-x="289" 
d="M36 656l110 161h107l-137 -161h-80z" />
    <glyph glyph-name="paragraph" unicode="&#xb6;" horiz-adv-x="432" 
d="M278 -134v868h-76v-763q0 -49 -24.5 -83t-74.5 -34q-24 0 -44 7v64q13 -3 20 -3q24 0 34 11t10 39v627h-8q-54 0 -77 30.5t-23 78.5t23.5 81.5t79.5 33.5h297v-89h-60v-868h-77zM123 734h-11q-19 0 -26.5 -12.5t-7.5 -33.5q0 -18 7.5 -31t22.5 -13h15v90z" />
    <glyph glyph-name="periodcentered" unicode="&#xb7;" horiz-adv-x="145" 
d="M30 350zM30 350v125h86v-125h-86z" />
    <glyph glyph-name="cedilla" unicode="&#xb8;" horiz-adv-x="141" 
d="M44 -149v28h14q11 0 11 12v17h-33v72h69v-88q0 -19 -10.5 -30t-33.5 -11h-17z" />
    <glyph glyph-name="onesuperior" unicode="&#xb9;" horiz-adv-x="127" 
d="M22 422zM45 422v332h-23v49h10q18 0 18 19v11h45v-411h-50z" />
    <glyph glyph-name="ordmasculine" unicode="&#xba;" horiz-adv-x="220" 
d="M45 578q0 68 65 68t65 -68v-215q0 -68 -65 -68t-65 68v215zM122 576q0 14 -12 14t-12 -14v-211q0 -15 12 -15t12 15v211z" />
    <glyph glyph-name="guillemotright" unicode="&#xbb;" horiz-adv-x="390" 
d="M18 174zM18 174v81l115 79l-115 75v78l159 -106v-95zM213 174v81l115 79l-115 75v78l159 -106v-95z" />
    <glyph glyph-name="onequarter" unicode="&#xbc;" horiz-adv-x="481" 
d="M28 0zM28 0l367 823h61l-366 -823h-62zM94 422v332h-23v49h10q18 0 18 19v11h45v-411h-50zM377 118q0 61 1.5 95.5t1.5 59.5q-3 -12 -6.5 -26.5t-9 -32.5t-12.5 -41.5t-16 -54.5h41zM377 -10v80h-86v44l86 287h47v-283h20v-48h-20v-80h-47z" />
    <glyph glyph-name="onehalf" unicode="&#xbd;" horiz-adv-x="481" 
d="M28 0zM28 0l367 823h61l-366 -823h-62zM94 422v332h-23v49h10q18 0 18 19v11h45v-411h-50zM313 -10v75q0 18 1.5 32t5.5 26.5t11.5 26.5t20.5 34q12 18 20 31.5t13 25t7 23.5t2 27v44q0 20 -16 20q-15 0 -15 -20v-72h-50v71q0 38 16 55t48 17q68 0 68 -72v-49
q0 -36 -12.5 -62t-29.5 -53q-14 -21 -21.5 -34.5t-12 -24t-5.5 -21t-1 -25.5v-25h82v-50h-132z" />
    <glyph glyph-name="threequarters" unicode="&#xbe;" horiz-adv-x="481" 
d="M28 0zM28 0l367 823h61l-366 -823h-62zM357 118q0 61 1.5 95.5t1.5 59.5q-3 -12 -6.5 -26.5t-9 -32.5t-12.5 -41.5t-16 -54.5h41zM357 -10v80h-86v44l86 287h47v-283h20v-48h-20v-80h-47zM130 588q0 20 -16 20h-21v47h23q14 0 14 20v92q0 20 -16 20t-16 -20v-73h-49v73
q0 38 15.5 54.5t48.5 16.5q34 0 49.5 -17t15.5 -55v-92q0 -31 -25 -43q26 -9 26 -44v-100q0 -32 -16 -51t-49 -19t-50 19t-17 51v81h51v-81q0 -20 16 -20t16 20v101z" />
    <glyph glyph-name="questiondown" unicode="&#xbf;" horiz-adv-x="300" 
d="M22 0zM206.006 516.012v-110.993q0 -29.999 -2.5 -52.4971q-2.5 -22.499 -7.99902 -41.498q-5.5 -18.998 -14.999 -34.9971q-9.5 -15.999 -23.499 -32.998q-14.999 -15.999 -23.499 -28.498q-8.49902 -12.5 -12.999 -27.499q-4.49902 -14.999 -5.99902 -34.498
q-1.5 -19.498 -1.5 -48.4971v-91.9941q0 -47.9971 37.9971 -47.9971q38.998 0 38.998 46.9971v145.991h87.9941v-143.991q0 -72.9951 -30.498 -107.493t-96.4941 -34.498q-65.9951 0 -97.4941 33.998q-31.498 33.998 -31.498 108.993v89.9941q0 59.9971 12 97.4941
q11.999 37.498 37.9971 68.4961q16.999 19.999 26.999 33.498q9.99902 13.499 14.499 26.998q4.49902 13.499 5.49902 29.998t1 42.498v112.993h85.9951zM206.006 703v-124.992h-85.9951v124.992h85.9951z" />
    <glyph glyph-name="Agrave" unicode="&#xc0;" horiz-adv-x="337" 
d="M10 0zM232 0l-15 127h-101q-5 -32 -8.5 -63.5t-7.5 -63.5h-90l107 823h107l101 -823h-93zM207 212q-11 94 -21 185.5t-19 188.5q-18 -194 -42 -374h82zM160 860l-137 161h106l111 -161h-80z" />
    <glyph glyph-name="Aacute" unicode="&#xc1;" horiz-adv-x="337" 
d="M10 0zM232 0l-15 127h-101q-5 -32 -8.5 -63.5t-7.5 -63.5h-90l107 823h107l101 -823h-93zM207 212q-11 94 -21 185.5t-19 188.5q-18 -194 -42 -374h82zM96 860l110 161h107l-137 -161h-80z" />
    <glyph glyph-name="Acircumflex" unicode="&#xc2;" horiz-adv-x="337" 
d="M10 0zM232 0l-15 127h-101q-5 -32 -8.5 -63.5t-7.5 -63.5h-90l107 823h107l101 -823h-93zM207 212q-11 94 -21 185.5t-19 188.5q-18 -194 -42 -374h82zM237 860l-68 116l-71 -116h-77l102 161h98l97 -161h-81z" />
    <glyph glyph-name="Atilde" unicode="&#xc3;" horiz-adv-x="337" 
d="M10 0zM232 0l-15 127h-101q-5 -32 -8.5 -63.5t-7.5 -63.5h-90l107 823h107l101 -823h-93zM207 212q-11 94 -21 185.5t-19 188.5q-18 -194 -42 -374h82zM289 911q-11 -11 -26.5 -18t-35.5 -7q-18 0 -33.5 5t-30.5 11t-30 11t-31 5q-18 0 -31.5 -7.5t-24.5 -21.5h-1v71
q9 11 24 18.5t38 7.5q18 0 33.5 -5t30 -10.5t29.5 -10.5t32 -5q18 0 32.5 7.5t23.5 20.5h1v-72z" />
    <glyph glyph-name="Adieresis" unicode="&#xc4;" horiz-adv-x="337" 
d="M10 0zM232 0l-15 127h-101q-5 -32 -8.5 -63.5t-7.5 -63.5h-90l107 823h107l101 -823h-93zM207 212q-11 94 -21 185.5t-19 188.5q-18 -194 -42 -374h82zM203 872v125h84v-125h-84zM51 872v125h83v-125h-83z" />
    <glyph glyph-name="Aring" unicode="&#xc5;" horiz-adv-x="337" 
d="M10 0zM232 0l-15 127h-101q-5 -32 -8.5 -63.5t-7.5 -63.5h-90l107 823h107l101 -823h-93zM207 212q-11 94 -21 185.5t-19 188.5q-18 -194 -42 -374h82zM266 941q0 -34 -24 -56t-75 -22q-49 0 -73 22t-24 56q0 35 24 57.5t73 22.5q51 0 75 -22.5t24 -57.5zM222 941
q0 22 -13 33t-42 11q-56 0 -56 -44q0 -42 56 -42q29 0 42 10.5t13 31.5z" />
    <glyph glyph-name="AE" unicode="&#xc6;" horiz-adv-x="467" 
d="M221 0v128h-104l-16 -128h-90l107 823h326v-93h-129v-264h87v-93h-87v-281h133v-92h-227zM221 730h-31l-63 -518h94v518z" />
    <glyph glyph-name="Ccedilla" unicode="&#xc7;" horiz-adv-x="310" 
d="M30 0zM201 302h84v-170q0 -72 -29 -106.5t-93 -34.5q-133 0 -133 139v560q0 142 133 142q122 0 122 -140v-146h-84v146q0 24 -8.5 35.5t-29.5 11.5q-39 0 -39 -47v-561q0 -48 39 -48q38 0 38 48v171zM137 -149v28h14q11 0 11 12v17h-33v72h69v-88q0 -19 -10.5 -30
t-33.5 -11h-17z" />
    <glyph glyph-name="Egrave" unicode="&#xc8;" horiz-adv-x="281" 
d="M0 0zM36 0v823h222v-93h-130v-264h87v-93h-87v-281h135v-92h-227zM132 860l-137 161h106l111 -161h-80z" />
    <glyph glyph-name="Egrave" unicode="&#x400;" horiz-adv-x="281" 
d="M0 0zM36 0v823h222v-93h-130v-264h87v-93h-87v-281h135v-92h-227zM132 860l-137 161h106l111 -161h-80z" />
    <glyph glyph-name="Eacute" unicode="&#xc9;" horiz-adv-x="281" 
d="M36 0zM36 0v823h222v-93h-130v-264h87v-93h-87v-281h135v-92h-227zM69 860l110 161h107l-137 -161h-80z" />
    <glyph glyph-name="Ecircumflex" unicode="&#xca;" horiz-adv-x="281" 
d="M0 0zM36 0v823h222v-93h-130v-264h87v-93h-87v-281h135v-92h-227zM213 860l-68 116l-71 -116h-77l102 161h98l97 -161h-81z" />
    <glyph glyph-name="Edieresis" unicode="&#xcb;" horiz-adv-x="281" 
d="M28 0zM36 0v823h222v-93h-130v-264h87v-93h-87v-281h135v-92h-227zM180 872v125h84v-125h-84zM28 872v125h83v-125h-83z" />
    <glyph glyph-name="Edieresis" unicode="&#x401;" horiz-adv-x="281" 
d="M28 0zM36 0v823h222v-93h-130v-264h87v-93h-87v-281h135v-92h-227zM180 872v125h84v-125h-84zM28 872v125h83v-125h-83z" />
    <glyph glyph-name="Igrave" unicode="&#xcc;" horiz-adv-x="168" 
d="M0 0zM38 0v823h92v-823h-92zM76 860l-137 161h106l111 -161h-80z" />
    <glyph glyph-name="Iacute" unicode="&#xcd;" horiz-adv-x="168" 
d="M12 0zM38 0v823h92v-823h-92zM12 860l110 161h107l-137 -161h-80z" />
    <glyph glyph-name="Icircumflex" unicode="&#xce;" horiz-adv-x="168" 
d="M0 0zM38 0v823h92v-823h-92zM151 860l-68 116l-71 -116h-77l102 161h98l97 -161h-81z" />
    <glyph glyph-name="Idieresis" unicode="&#xcf;" horiz-adv-x="168" 
d="M0 0zM38 0v823h92v-823h-92zM118 872v125h84v-125h-84zM-34 872v125h83v-125h-83z" />
    <glyph glyph-name="Idieresis" unicode="&#x407;" horiz-adv-x="168" 
d="M0 0zM38 0v823h92v-823h-92zM118 872v125h84v-125h-84zM-34 872v125h83v-125h-83z" />
    <glyph glyph-name="Idieresis" unicode="&#x3aa;" horiz-adv-x="168" 
d="M0 0zM38 0v823h92v-823h-92zM118 872v125h84v-125h-84zM-34 872v125h83v-125h-83z" />
    <glyph glyph-name="Eth" unicode="&#xd0;" horiz-adv-x="326" 
d="M34 0v373h-25v93h25v357h131q66 0 99 -37.5t33 -103.5v-542q0 -140 -132 -140h-131zM205 683q0 20 -9.5 33.5t-30.5 13.5h-38v-264h45v-93h-45v-281h38q40 0 40 48v543z" />
    <glyph glyph-name="Eth" unicode="&#x110;" horiz-adv-x="326" 
d="M34 0v373h-25v93h25v357h131q66 0 99 -37.5t33 -103.5v-542q0 -140 -132 -140h-131zM205 683q0 20 -9.5 33.5t-30.5 13.5h-38v-264h45v-93h-45v-281h38q40 0 40 48v543z" />
    <glyph glyph-name="Ntilde" unicode="&#xd1;" horiz-adv-x="355" 
d="M33 0zM231 0q-23 106 -41 187t-32.5 145.5t-26 117t-21.5 102.5q2 -85 2 -169.5v-169.5v-213h-79v823h108q20 -114 35.5 -198t27.5 -148t21.5 -114.5t18.5 -98.5q-2 72 -2 141v138v280h79v-823h-90zM298 911q-11 -11 -26.5 -18t-35.5 -7q-18 0 -33.5 5t-30.5 11t-30 11
t-31 5q-18 0 -31.5 -7.5t-24.5 -21.5h-1v71q9 11 24 18.5t38 7.5q18 0 33.5 -5t30 -10.5t29.5 -10.5t32 -5q18 0 32.5 7.5t23.5 20.5h1v-72z" />
    <glyph glyph-name="Ograve" unicode="&#xd2;" horiz-adv-x="322" 
d="M16 0zM30 692q0 140 131 140q132 0 132 -140v-561q0 -140 -132 -140q-131 0 -131 140v561zM201 692q0 47 -40 47q-39 0 -39 -47v-561q0 -48 39 -48q40 0 40 48v561zM153 860l-137 161h106l111 -161h-80z" />
    <glyph glyph-name="Oacute" unicode="&#xd3;" horiz-adv-x="322" 
d="M30 0zM30 692q0 140 131 140q132 0 132 -140v-561q0 -140 -132 -140q-131 0 -131 140v561zM201 692q0 47 -40 47q-39 0 -39 -47v-561q0 -48 39 -48q40 0 40 48v561zM89 860l110 161h107l-137 -161h-80z" />
    <glyph glyph-name="Ocircumflex" unicode="&#xd4;" horiz-adv-x="322" 
d="M13 0zM30 692q0 140 131 140q132 0 132 -140v-561q0 -140 -132 -140q-131 0 -131 140v561zM201 692q0 47 -40 47q-39 0 -39 -47v-561q0 -48 39 -48q40 0 40 48v561zM229 860l-68 116l-71 -116h-77l102 161h98l97 -161h-81z" />
    <glyph glyph-name="Otilde" unicode="&#xd5;" horiz-adv-x="322" 
d="M30 0zM30 692q0 140 131 140q132 0 132 -140v-561q0 -140 -132 -140q-131 0 -131 140v561zM201 692q0 47 -40 47q-39 0 -39 -47v-561q0 -48 39 -48q40 0 40 48v561zM282 911q-11 -11 -26.5 -18t-35.5 -7q-18 0 -33.5 5t-30.5 11t-30 11t-31 5q-18 0 -31.5 -7.5
t-24.5 -21.5h-1v71q9 11 24 18.5t38 7.5q18 0 33.5 -5t30 -10.5t29.5 -10.5t32 -5q18 0 32.5 7.5t23.5 20.5h1v-72z" />
    <glyph glyph-name="Odieresis" unicode="&#xd6;" horiz-adv-x="322" 
d="M30 0zM30 692q0 140 131 140q132 0 132 -140v-561q0 -140 -132 -140q-131 0 -131 140v561zM201 692q0 47 -40 47q-39 0 -39 -47v-561q0 -48 39 -48q40 0 40 48v561zM195 872v125h84v-125h-84zM43 872v125h83v-125h-83z" />
    <glyph glyph-name="multiply" unicode="&#xd7;" horiz-adv-x="466" 
d="M349 254l-116 116l-115 -115l-49 49l116 115l-116 115l49 49l115 -115l116 116l49 -49l-116 -116l116 -116z" />
    <glyph glyph-name="Oslash" unicode="&#xd8;" horiz-adv-x="322" 
d="M29 -94l28 127q-27 36 -27 98v561q0 140 131 140q36 0 69 -14l22 99h41l-28 -127q28 -34 28 -98v-561q0 -140 -132 -140q-37 0 -70 14l-22 -99h-40zM201 502l-79 -357v-14q0 -48 39 -48q40 0 40 48v371zM201 686v6q0 47 -40 47q-39 0 -39 -47v-364z" />
    <glyph glyph-name="Ugrave" unicode="&#xd9;" horiz-adv-x="327" 
d="M19 0zM203 823h92v-692q0 -140 -131 -140t-131 140v692h92v-692q0 -48 39 -48t39 48v692zM156 860l-137 161h106l111 -161h-80z" />
    <glyph glyph-name="Uacute" unicode="&#xda;" horiz-adv-x="327" 
d="M33 0zM203 823h92v-692q0 -140 -131 -140t-131 140v692h92v-692q0 -48 39 -48t39 48v692zM91 860l110 161h107l-137 -161h-80z" />
    <glyph glyph-name="Ucircumflex" unicode="&#xdb;" horiz-adv-x="327" 
d="M15 0zM203 823h92v-692q0 -140 -131 -140t-131 140v692h92v-692q0 -48 39 -48t39 48v692zM231 860l-68 116l-71 -116h-77l102 161h98l97 -161h-81z" />
    <glyph glyph-name="Udieresis" unicode="&#xdc;" horiz-adv-x="327" 
d="M33 0zM203 823h92v-692q0 -140 -131 -140t-131 140v692h92v-692q0 -48 39 -48t39 48v692zM198 872v125h84v-125h-84zM46 872v125h83v-125h-83z" />
    <glyph glyph-name="Yacute" unicode="&#xdd;" horiz-adv-x="334" 
d="M8 0zM118 0v360l-110 463h97q9 -51 19.5 -103t19.5 -96.5t16 -78t9 -47.5q2 14 9.5 47.5t17 78.5t20.5 96.5t20 102.5h90l-114 -463v-360h-94zM96 860l110 161h107l-137 -161h-80z" />
    <glyph glyph-name="Thorn" unicode="&#xde;" horiz-adv-x="329" 
d="M221 529q0 55 -52 55h-41v-364h42q51 0 51 56v253zM36 0v823h92v-146h41q73 0 109 -36t36 -112v-253q0 -72 -36 -110t-108 -38h-42v-128h-92z" />
    <glyph glyph-name="germandbls" unicode="&#xdf;" horiz-adv-x="329" 
d="M157 78q10 -3 27 -3q20 0 28.5 10t8.5 33v228q0 23 -9.5 32.5t-27.5 9.5h-40v80h14q13 0 20.5 8t7.5 28v202q0 19 -8 30t-26 11q-19 0 -27 -11t-8 -30v-706h-81v709q0 60 28 91.5t88 31.5q57 0 86 -31.5t29 -91.5v-205q0 -25 -9.5 -40t-17.5 -20q27 -8 45 -32t18 -69
v-225q0 -66 -25.5 -96.5t-86.5 -30.5q-27 0 -35 4z" />
    <glyph glyph-name="agrave" unicode="&#xe0;" 
d="M0 0zM179 0q-4 9 -4 34q-11 -20 -27.5 -31.5t-41.5 -11.5q-42 0 -63.5 23t-21.5 75v91q0 44 11.5 73.5t32 50t47.5 34.5t58 28v140q0 19 -7.5 29t-25.5 10q-21 0 -27.5 -10t-6.5 -29v-130h-73v131q0 122 109 122q111 0 111 -122v-454q0 -33 5 -53h-76zM170 299
q-25 -9 -38.5 -20.5t-20 -26.5t-7.5 -34.5t-1 -43.5v-64q0 -38 34 -38q24 0 33 27v200zM134 656l-137 161h106l111 -161h-80z" />
    <glyph glyph-name="aacute" unicode="&#xe1;" 
d="M21 0zM179 0q-4 9 -4 34q-11 -20 -27.5 -31.5t-41.5 -11.5q-42 0 -63.5 23t-21.5 75v91q0 44 11.5 73.5t32 50t47.5 34.5t58 28v140q0 19 -7.5 29t-25.5 10q-21 0 -27.5 -10t-6.5 -29v-130h-73v131q0 122 109 122q111 0 111 -122v-454q0 -33 5 -53h-76zM170 299
q-25 -9 -38.5 -20.5t-20 -26.5t-7.5 -34.5t-1 -43.5v-64q0 -38 34 -38q24 0 33 27v200zM71 656l110 161h107l-137 -161h-80z" />
    <glyph glyph-name="acircumflex" unicode="&#xe2;" 
d="M0 0zM179 0q-4 9 -4 34q-11 -20 -27.5 -31.5t-41.5 -11.5q-42 0 -63.5 23t-21.5 75v91q0 44 11.5 73.5t32 50t47.5 34.5t58 28v140q0 19 -7.5 29t-25.5 10q-21 0 -27.5 -10t-6.5 -29v-130h-73v131q0 122 109 122q111 0 111 -122v-454q0 -33 5 -53h-76zM170 299
q-25 -9 -38.5 -20.5t-20 -26.5t-7.5 -34.5t-1 -43.5v-64q0 -38 34 -38q24 0 33 27v200zM210 656l-68 116l-71 -116h-77l102 161h98l97 -161h-81z" />
    <glyph glyph-name="atilde" unicode="&#xe3;" 
d="M20 0zM179 0q-4 9 -4 34q-11 -20 -27.5 -31.5t-41.5 -11.5q-42 0 -63.5 23t-21.5 75v91q0 44 11.5 73.5t32 50t47.5 34.5t58 28v140q0 19 -7.5 29t-25.5 10q-21 0 -27.5 -10t-6.5 -29v-130h-73v131q0 122 109 122q111 0 111 -122v-454q0 -33 5 -53h-76zM170 299
q-25 -9 -38.5 -20.5t-20 -26.5t-7.5 -34.5t-1 -43.5v-64q0 -38 34 -38q24 0 33 27v200zM264 707q-11 -11 -26.5 -18t-35.5 -7q-18 0 -33.5 5t-30.5 11t-30 11t-31 5q-18 0 -31.5 -7.5t-24.5 -21.5h-1v71q9 11 24 18.5t38 7.5q18 0 33.5 -5t30 -10.5t29.5 -10.5t32 -5
q18 0 32.5 7.5t23.5 20.5h1v-72z" />
    <glyph glyph-name="adieresis" unicode="&#xe4;" 
d="M21 0zM179 0q-4 9 -4 34q-11 -20 -27.5 -31.5t-41.5 -11.5q-42 0 -63.5 23t-21.5 75v91q0 44 11.5 73.5t32 50t47.5 34.5t58 28v140q0 19 -7.5 29t-25.5 10q-21 0 -27.5 -10t-6.5 -29v-130h-73v131q0 122 109 122q111 0 111 -122v-454q0 -33 5 -53h-76zM170 299
q-25 -9 -38.5 -20.5t-20 -26.5t-7.5 -34.5t-1 -43.5v-64q0 -38 34 -38q24 0 33 27v200zM177 668v125h84v-125h-84zM25 668v125h83v-125h-83z" />
    <glyph glyph-name="aring" unicode="&#xe5;" 
d="M21 0zM179 0q-4 9 -4 34q-11 -20 -27.5 -31.5t-41.5 -11.5q-42 0 -63.5 23t-21.5 75v91q0 44 11.5 73.5t32 50t47.5 34.5t58 28v140q0 19 -7.5 29t-25.5 10q-21 0 -27.5 -10t-6.5 -29v-130h-73v131q0 122 109 122q111 0 111 -122v-454q0 -33 5 -53h-76zM170 299
q-25 -9 -38.5 -20.5t-20 -26.5t-7.5 -34.5t-1 -43.5v-64q0 -38 34 -38q24 0 33 27v200zM240 737q0 -34 -24 -56t-75 -22q-49 0 -73 22t-24 56q0 35 24 57.5t73 22.5q51 0 75 -22.5t24 -57.5zM196 737q0 22 -13 33t-42 11q-56 0 -56 -44q0 -42 56 -42q29 0 42 10.5t13 31.5z
" />
    <glyph glyph-name="ae" unicode="&#xe6;" horiz-adv-x="424" 
d="M316 252h78v-136q0 -125 -112 -125q-34 0 -53 11.5t-33 34.5q-11 -20 -30 -33t-55 -13q-42 0 -66 23t-24 75v91q0 44 11.5 73.5t32 50t47.5 34.5t58 28v141q0 38 -33 38q-34 0 -34 -38v-131h-73v131q0 122 109 122q47 0 73 -23q26 23 70 23q112 0 112 -127v-204h-144
v-185q0 -19 9 -28t23 -9q34 0 34 40v136zM170 299q-25 -9 -38.5 -20.5t-20 -26.5t-7.5 -34.5t-1 -43.5v-52q0 -24 6.5 -37t27.5 -13q24 0 33 27v200zM316 502q0 40 -34 40q-32 0 -32 -40v-144h66v144z" />
    <glyph glyph-name="ccedilla" unicode="&#xe7;" horiz-adv-x="284" 
d="M30 0zM179 253h78v-138q0 -57 -27 -90.5t-85 -33.5q-60 0 -87.5 34.5t-27.5 91.5v384q0 57 27.5 92.5t87.5 35.5q58 0 84 -35t26 -92v-134h-76v136q0 39 -34 39t-34 -40v-386q0 -41 34 -41t34 41v136zM119 -149v28h14q11 0 11 12v17h-33v72h69v-88q0 -19 -10.5 -30
t-33.5 -11h-17z" />
    <glyph glyph-name="egrave" unicode="&#xe8;" horiz-adv-x="280" 
d="M0 0zM173 502q0 40 -34 40q-32 0 -32 -40v-144h66v144zM173 252h78v-136q0 -125 -112 -125q-109 0 -109 125v386q0 127 109 127q112 0 112 -127v-204h-144v-182q0 -40 32 -40q34 0 34 41v135zM132 656l-137 161h106l111 -161h-80z" />
    <glyph glyph-name="egrave" unicode="&#x450;" horiz-adv-x="280" 
d="M0 0zM173 502q0 40 -34 40q-32 0 -32 -40v-144h66v144zM173 252h78v-136q0 -125 -112 -125q-109 0 -109 125v386q0 127 109 127q112 0 112 -127v-204h-144v-182q0 -40 32 -40q34 0 34 41v135zM132 656l-137 161h106l111 -161h-80z" />
    <glyph glyph-name="eacute" unicode="&#xe9;" horiz-adv-x="280" 
d="M30 0zM173 502q0 40 -34 40q-32 0 -32 -40v-144h66v144zM173 252h78v-136q0 -125 -112 -125q-109 0 -109 125v386q0 127 109 127q112 0 112 -127v-204h-144v-182q0 -40 32 -40q34 0 34 41v135zM68 656l110 161h107l-137 -161h-80z" />
    <glyph glyph-name="ecircumflex" unicode="&#xea;" horiz-adv-x="280" 
d="M0 0zM173 502q0 40 -34 40q-32 0 -32 -40v-144h66v144zM173 252h78v-136q0 -125 -112 -125q-109 0 -109 125v386q0 127 109 127q112 0 112 -127v-204h-144v-182q0 -40 32 -40q34 0 34 41v135zM208 656l-68 116l-71 -116h-77l102 161h98l97 -161h-81z" />
    <glyph glyph-name="edieresis" unicode="&#xeb;" horiz-adv-x="280" 
d="M22 0zM173 502q0 40 -34 40q-32 0 -32 -40v-144h66v144zM173 252h78v-136q0 -125 -112 -125q-109 0 -109 125v386q0 127 109 127q112 0 112 -127v-204h-144v-182q0 -40 32 -40q34 0 34 41v135zM174 668v125h84v-125h-84zM22 668v125h83v-125h-83z" />
    <glyph glyph-name="edieresis" unicode="&#x451;" horiz-adv-x="280" 
d="M22 0zM173 502q0 40 -34 40q-32 0 -32 -40v-144h66v144zM173 252h78v-136q0 -125 -112 -125q-109 0 -109 125v386q0 127 109 127q112 0 112 -127v-204h-144v-182q0 -40 32 -40q34 0 34 41v135zM174 668v125h84v-125h-84zM22 668v125h83v-125h-83z" />
    <glyph glyph-name="igrave" unicode="&#xec;" horiz-adv-x="184" 
d="M0 0zM97 656l-137 161h106l111 -161h-80zM64 0v619h83v-619h-83z" />
    <glyph glyph-name="iacute" unicode="&#xed;" horiz-adv-x="189" 
d="M7 0zM7 656l110 161h107l-137 -161h-80zM38 0v619h83v-619h-83z" />
    <glyph glyph-name="icircumflex" unicode="&#xee;" horiz-adv-x="241" 
d="M0 0zM79 0v619h83v-619h-83zM188 656l-68 116l-71 -116h-77l102 161h98l97 -161h-81z" />
    <glyph glyph-name="idieresis" unicode="&#xef;" horiz-adv-x="236" 
d="M0 0zM152 668v125h84v-125h-84zM0 668v125h83v-125h-83zM77 0v619h83v-619h-83z" />
    <glyph glyph-name="idieresis" unicode="&#x457;" horiz-adv-x="236" 
d="M0 0zM152 668v125h84v-125h-84zM0 668v125h83v-125h-83zM77 0v619h83v-619h-83z" />
    <glyph glyph-name="eth" unicode="&#xf0;" horiz-adv-x="322" 
d="M30 398q0 66 30 94t81 28q24 0 40 -8.5t27 -23.5v96q0 55 -11 93l-93 -114l-31 27l101 125q-13 12 -31 17t-42 7v93q45 0 77.5 -11.5t54.5 -33.5l43 52l31 -27l-48 -59q19 -34 26.5 -79t7.5 -102v-438q0 -69 -33 -106t-99 -37t-98.5 37t-32.5 106v264zM200 392
q-3 15 -10 26t-27 11q-41 0 -41 -47v-245q0 -26 9 -40t30 -14q39 0 39 48v261z" />
    <glyph glyph-name="ntilde" unicode="&#xf1;" horiz-adv-x="303" 
d="M29 0zM187 0v510q0 37 -30 37q-11 0 -21.5 -5.5t-16.5 -18.5v-523h-83v619h70q3 -18 3 -40q30 50 83 50q79 0 79 -114v-515h-84zM273 707q-11 -11 -26.5 -18t-35.5 -7q-18 0 -33.5 5t-30.5 11t-30 11t-31 5q-18 0 -31.5 -7.5t-24.5 -21.5h-1v71q9 11 24 18.5t38 7.5
q18 0 33.5 -5t30 -10.5t29.5 -10.5t32 -5q18 0 32.5 7.5t23.5 20.5h1v-72z" />
    <glyph glyph-name="ograve" unicode="&#xf2;" horiz-adv-x="291" 
d="M0 0zM30 505q0 60 28 92t88 32q57 0 86.5 -32t29.5 -92v-391q0 -60 -29.5 -91.5t-86.5 -31.5q-60 0 -88 31.5t-28 91.5v391zM180 502q0 20 -7 30.5t-27 10.5t-27.5 -10.5t-7.5 -30.5v-386q0 -20 7.5 -30t27.5 -10t27 10.5t7 30.5v385zM137 656l-137 161h106l111 -161h-80
z" />
    <glyph glyph-name="oacute" unicode="&#xf3;" horiz-adv-x="291" 
d="M30 0zM30 505q0 60 28 92t88 32q57 0 86.5 -32t29.5 -92v-391q0 -60 -29.5 -91.5t-86.5 -31.5q-60 0 -88 31.5t-28 91.5v391zM180 502q0 20 -7 30.5t-27 10.5t-27.5 -10.5t-7.5 -30.5v-386q0 -20 7.5 -30t27.5 -10t27 10.5t7 30.5v385zM74 656l110 161h107l-137 -161h-80
z" />
    <glyph glyph-name="ocircumflex" unicode="&#xf4;" horiz-adv-x="291" 
d="M0 0zM30 505q0 60 28 92t88 32q57 0 86.5 -32t29.5 -92v-391q0 -60 -29.5 -91.5t-86.5 -31.5q-60 0 -88 31.5t-28 91.5v391zM180 502q0 20 -7 30.5t-27 10.5t-27.5 -10.5t-7.5 -30.5v-386q0 -20 7.5 -30t27.5 -10t27 10.5t7 30.5v385zM213 656l-68 116l-71 -116h-77
l102 161h98l97 -161h-81z" />
    <glyph glyph-name="otilde" unicode="&#xf5;" horiz-adv-x="291" 
d="M23 0zM30 505q0 60 28 92t88 32q57 0 86.5 -32t29.5 -92v-391q0 -60 -29.5 -91.5t-86.5 -31.5q-60 0 -88 31.5t-28 91.5v391zM180 502q0 20 -7 30.5t-27 10.5t-27.5 -10.5t-7.5 -30.5v-386q0 -20 7.5 -30t27.5 -10t27 10.5t7 30.5v385zM267 707q-11 -11 -26.5 -18
t-35.5 -7q-18 0 -33.5 5t-30.5 11t-30 11t-31 5q-18 0 -31.5 -7.5t-24.5 -21.5h-1v71q9 11 24 18.5t38 7.5q18 0 33.5 -5t30 -10.5t29.5 -10.5t32 -5q18 0 32.5 7.5t23.5 20.5h1v-72z" />
    <glyph glyph-name="odieresis" unicode="&#xf6;" horiz-adv-x="291" 
d="M28 0zM30 505q0 60 28 92t88 32q57 0 86.5 -32t29.5 -92v-391q0 -60 -29.5 -91.5t-86.5 -31.5q-60 0 -88 31.5t-28 91.5v391zM180 502q0 20 -7 30.5t-27 10.5t-27.5 -10.5t-7.5 -30.5v-386q0 -20 7.5 -30t27.5 -10t27 10.5t7 30.5v385zM180 668v125h84v-125h-84zM28 668
v125h83v-125h-83z" />
    <glyph glyph-name="divide" unicode="&#xf7;" horiz-adv-x="466" 
d="M36 180zM36 385v69h396v-69h-396zM190 534v125h86v-125h-86zM190 180v125h86v-125h-86z" />
    <glyph glyph-name="oslash" unicode="&#xf8;" horiz-adv-x="291" 
d="M29 -94l28 118q-27 31 -27 90v391q0 60 28 92t88 32q30 0 53 -9l22 93h40l-28 -117q29 -32 29 -91v-391q0 -60 -29.5 -91.5t-86.5 -31.5q-16 0 -30 2.5t-25 6.5l-22 -94h-40zM180 372l-66 -278q6 -18 32 -18q20 0 27 10.5t7 30.5v255zM176 525q-6 18 -30 18
q-20 0 -27.5 -10.5t-7.5 -30.5v-251z" />
    <glyph glyph-name="ugrave" unicode="&#xf9;" horiz-adv-x="301" 
d="M5 0zM195 0q-3 18 -3 39q-29 -45 -81 -45q-38 0 -58 27.5t-20 78.5v519h83v-506q0 -37 29 -37q11 0 21 5.5t16 18.5v519h84v-619h-71zM142 656l-137 161h106l111 -161h-80z" />
    <glyph glyph-name="uacute" unicode="&#xfa;" horiz-adv-x="301" 
d="M33 0zM195 0q-3 18 -3 39q-29 -45 -81 -45q-38 0 -58 27.5t-20 78.5v519h83v-506q0 -37 29 -37q11 0 21 5.5t16 18.5v519h84v-619h-71zM79 656l110 161h107l-137 -161h-80z" />
    <glyph glyph-name="ucircumflex" unicode="&#xfb;" horiz-adv-x="301" 
d="M2 0zM195 0q-3 18 -3 39q-29 -45 -81 -45q-38 0 -58 27.5t-20 78.5v519h83v-506q0 -37 29 -37q11 0 21 5.5t16 18.5v519h84v-619h-71zM218 656l-68 116l-71 -116h-77l102 161h98l97 -161h-81z" />
    <glyph glyph-name="udieresis" unicode="&#xfc;" horiz-adv-x="301" 
d="M33 0zM195 0q-3 18 -3 39q-29 -45 -81 -45q-38 0 -58 27.5t-20 78.5v519h83v-506q0 -37 29 -37q11 0 21 5.5t16 18.5v519h84v-619h-71zM185 668v125h84v-125h-84zM33 668v125h83v-125h-83z" />
    <glyph glyph-name="yacute" unicode="&#xfd;" horiz-adv-x="278" 
d="M9 0zM18 -56q11 -4 34 -4q21 0 29 18t13 48l2 13l-87 600h87q9 -82 15.5 -145t11.5 -113.5t8.5 -93t6.5 -82.5q4 40 8.5 82.5t10 93t13 113.5t17.5 145h80l-84 -596q-6 -39 -14 -70t-21.5 -52.5t-36 -33t-56.5 -11.5q-17 0 -37 5v83zM68 656l110 161h107l-137 -161h-80z
" />
    <glyph glyph-name="thorn" unicode="&#xfe;" horiz-adv-x="304" 
d="M36 -139v962h83v-223q24 29 65 29q46 0 68 -27t22 -87v-411q0 -60 -22 -86.5t-68 -26.5q-43 0 -65 28v-158h-83zM191 504q0 38 -34 38q-12 0 -22.5 -6.5t-15.5 -20.5v-411q5 -14 15.5 -20t22.5 -6q17 0 25.5 8.5t8.5 28.5v389z" />
    <glyph glyph-name="ydieresis" unicode="&#xff;" horiz-adv-x="278" 
d="M9 0zM18 -56q11 -4 34 -4q21 0 29 18t13 48l2 13l-87 600h87q9 -82 15.5 -145t11.5 -113.5t8.5 -93t6.5 -82.5q4 40 8.5 82.5t10 93t13 113.5t17.5 145h80l-84 -596q-6 -39 -14 -70t-21.5 -52.5t-36 -33t-56.5 -11.5q-17 0 -37 5v83zM174 668v125h84v-125h-84zM22 668
v125h83v-125h-83z" />
    <glyph glyph-name="Amacron" unicode="&#x100;" horiz-adv-x="337" 
d="M10 0zM232 0l-15 127h-101q-5 -32 -8.5 -63.5t-7.5 -63.5h-90l107 823h107l101 -823h-93zM207 212q-11 94 -21 185.5t-19 188.5q-18 -194 -42 -374h82zM51 898v72h234v-72h-234z" />
    <glyph glyph-name="amacron" unicode="&#x101;" 
d="M21 0zM179 0q-4 9 -4 34q-11 -20 -27.5 -31.5t-41.5 -11.5q-42 0 -63.5 23t-21.5 75v91q0 44 11.5 73.5t32 50t47.5 34.5t58 28v140q0 19 -7.5 29t-25.5 10q-21 0 -27.5 -10t-6.5 -29v-130h-73v131q0 122 109 122q111 0 111 -122v-454q0 -33 5 -53h-76zM170 299
q-25 -9 -38.5 -20.5t-20 -26.5t-7.5 -34.5t-1 -43.5v-64q0 -38 34 -38q24 0 33 27v200zM26 694v72h234v-72h-234z" />
    <glyph glyph-name="Abreve" unicode="&#x102;" horiz-adv-x="337" 
d="M10 0zM232 0l-15 127h-101q-5 -32 -8.5 -63.5t-7.5 -63.5h-90l107 823h107l101 -823h-93zM207 212q-11 94 -21 185.5t-19 188.5q-18 -194 -42 -374h82zM305 1015q0 -45 -8 -74t-24.5 -46.5t-42 -24t-59.5 -6.5q-39 0 -65.5 6.5t-42.5 24t-23 46.5t-7 74h75
q0 -34 4.5 -54.5t13 -31t19.5 -14t24 -3.5q12 0 23 3.5t19.5 14t13 31t4.5 54.5h76z" />
    <glyph glyph-name="abreve" unicode="&#x103;" 
d="M7 0zM179 0q-4 9 -4 34q-11 -20 -27.5 -31.5t-41.5 -11.5q-42 0 -63.5 23t-21.5 75v91q0 44 11.5 73.5t32 50t47.5 34.5t58 28v140q0 19 -7.5 29t-25.5 10q-21 0 -27.5 -10t-6.5 -29v-130h-73v131q0 122 109 122q111 0 111 -122v-454q0 -33 5 -53h-76zM170 299
q-25 -9 -38.5 -20.5t-20 -26.5t-7.5 -34.5t-1 -43.5v-64q0 -38 34 -38q24 0 33 27v200zM279 811q0 -45 -8 -74t-24.5 -46.5t-42 -24t-59.5 -6.5q-39 0 -65.5 6.5t-42.5 24t-23 46.5t-7 74h75q0 -34 4.5 -54.5t13 -31t19.5 -14t24 -3.5q12 0 23 3.5t19.5 14t13 31t4.5 54.5
h76z" />
    <glyph glyph-name="Aogonek" unicode="&#x104;" horiz-adv-x="337" 
d="M353 -49q0 -45 -23.5 -72.5t-81.5 -27.5q-45 0 -69.5 17.5t-24.5 49.5q0 30 20.5 49.5t58.5 28.5l-16 131h-101q-5 -32 -8.5 -63.5t-7.5 -63.5h-90l107 823h107l101 -823q-62 -8 -87.5 -25t-25.5 -38q0 -10 6.5 -19t26.5 -9q23 0 30.5 12.5t7.5 29.5v11h70v-11zM207 212
q-11 94 -21 185.5t-19 188.5q-18 -194 -42 -374h82z" />
    <glyph glyph-name="aogonek" unicode="&#x105;" 
d="M283 -49q0 -45 -23.5 -72.5t-81.5 -27.5q-45 0 -69.5 17.5t-24.5 49.5t24.5 53t70.5 28q-2 7 -3 16.5t-1 18.5q-12 -21 -28 -32t-44 -11q-82 0 -82 98v91q0 44 11.5 73.5t32 50t47.5 34.5t58 28v140q0 20 -7.5 29.5t-26.5 9.5q-20 0 -26.5 -10.5t-6.5 -28.5v-130h-73v131
q0 122 109 122q111 0 111 -122v-454q0 -33 5 -53q-62 -8 -87.5 -25t-25.5 -38q0 -10 6.5 -19t26.5 -9q23 0 30.5 12.5t7.5 29.5v11h70v-11zM170 299q-25 -9 -38.5 -20.5t-20 -26.5t-7.5 -34.5t-1 -43.5v-64q0 -38 33 -38q14 0 21.5 7t12.5 20v200z" />
    <glyph glyph-name="Cacute" unicode="&#x106;" horiz-adv-x="310" 
d="M30 0zM201 302h84v-170q0 -72 -29 -106.5t-93 -34.5q-133 0 -133 139v560q0 142 133 142q122 0 122 -140v-146h-84v146q0 24 -8.5 35.5t-29.5 11.5q-39 0 -39 -47v-561q0 -48 39 -48q38 0 38 48v171zM83 860l110 161h107l-137 -161h-80z" />
    <glyph glyph-name="cacute" unicode="&#x107;" horiz-adv-x="284" 
d="M30 0zM179 253h78v-138q0 -57 -27 -90.5t-85 -33.5q-60 0 -87.5 34.5t-27.5 91.5v384q0 57 27.5 92.5t87.5 35.5q58 0 84 -35t26 -92v-134h-76v136q0 39 -34 39t-34 -40v-386q0 -41 34 -41t34 41v136zM70 656l110 161h107l-137 -161h-80z" />
    <glyph glyph-name="Cdotaccent" unicode="&#x10a;" horiz-adv-x="310" 
d="M30 0zM201 302h84v-170q0 -72 -29 -106.5t-93 -34.5q-133 0 -133 139v560q0 142 133 142q122 0 122 -140v-146h-84v146q0 24 -8.5 35.5t-29.5 11.5q-39 0 -39 -47v-561q0 -48 39 -48q38 0 38 48v171zM117 872v125h83v-125h-83z" />
    <glyph glyph-name="cdotaccent" unicode="&#x10b;" horiz-adv-x="284" 
d="M30 0zM179 253h78v-138q0 -57 -27 -90.5t-85 -33.5q-60 0 -87.5 34.5t-27.5 91.5v384q0 57 27.5 92.5t87.5 35.5q58 0 84 -35t26 -92v-134h-76v136q0 39 -34 39t-34 -40v-386q0 -41 34 -41t34 41v136zM100 668v125h83v-125h-83z" />
    <glyph glyph-name="Ccaron" unicode="&#x10c;" horiz-adv-x="310" 
d="M10 0zM201 302h84v-170q0 -72 -29 -106.5t-93 -34.5q-133 0 -133 139v560q0 142 133 142q122 0 122 -140v-146h-84v146q0 24 -8.5 35.5t-29.5 11.5q-39 0 -39 -47v-561q0 -48 39 -48q38 0 38 48v171zM107 860l-97 161h81l68 -116l71 116h77l-102 -161h-98z" />
    <glyph glyph-name="ccaron" unicode="&#x10d;" horiz-adv-x="284" 
d="M0 0zM179 253h78v-138q0 -57 -27 -90.5t-85 -33.5q-60 0 -87.5 34.5t-27.5 91.5v384q0 57 27.5 92.5t87.5 35.5q58 0 84 -35t26 -92v-134h-76v136q0 39 -34 39t-34 -40v-386q0 -41 34 -41t34 41v136zM90 656l-97 161h81l68 -116l71 116h77l-102 -161h-98z" />
    <glyph glyph-name="Dcaron" unicode="&#x10e;" horiz-adv-x="327" 
d="M13 0zM206 682q0 48 -40 48h-38v-638h38q40 0 40 48v542zM36 0v823h130q66 0 99 -37.5t33 -103.5v-542q0 -140 -132 -140h-130zM110 860l-97 161h81l68 -116l71 116h77l-102 -161h-98z" />
    <glyph glyph-name="dcaron" unicode="&#x10f;" horiz-adv-x="394" 
d="M30 0zM185 517q-5 14 -15.5 20.5t-22.5 6.5q-34 0 -34 -37v-385q0 -21 8.5 -30t25.5 -9q12 0 22.5 7t15.5 21v406zM198 0q-3 18 -3 40q-10 -23 -28 -34.5t-50 -11.5q-42 0 -64.5 28.5t-22.5 88.5v404q0 60 22 87t68 27q41 0 65 -29v223h83v-823h-70zM318 637v38h9
q19 0 19 21v24h-39v103h86v-121q0 -27 -15 -46t-50 -19h-10z" />
    <glyph glyph-name="dmacron" unicode="&#x111;" horiz-adv-x="304" 
d="M197 0q-1 9 -1.5 19t-0.5 21q-10 -23 -28.5 -34.5t-50.5 -11.5q-41 0 -64 29t-23 87v405q0 61 22 87.5t69 26.5q41 0 65 -29v80h-121v72h121v71h83v-71h30v-72h-30v-680h-71zM185 517q-12 27 -39 27q-33 0 -33 -38v-384q0 -39 33 -39q26 0 39 27v407z" />
    <glyph glyph-name="Emacron" unicode="&#x112;" horiz-adv-x="281" 
d="M24 0zM36 0v823h222v-93h-130v-264h87v-93h-87v-281h135v-92h-227zM24 898v72h234v-72h-234z" />
    <glyph glyph-name="emacron" unicode="&#x113;" horiz-adv-x="280" 
d="M24 0zM173 502q0 40 -34 40q-32 0 -32 -40v-144h66v144zM173 252h78v-136q0 -125 -112 -125q-109 0 -109 125v386q0 127 109 127q112 0 112 -127v-204h-144v-182q0 -40 32 -40q34 0 34 41v135zM24 694v72h234v-72h-234z" />
    <glyph glyph-name="Ebreve" unicode="&#x114;" horiz-adv-x="281" 
d="M7 0zM36 0v823h222v-93h-130v-264h87v-93h-87v-281h135v-92h-227zM279 1015q0 -45 -8 -74t-24.5 -46.5t-42 -24t-59.5 -6.5q-39 0 -65.5 6.5t-42.5 24t-23 46.5t-7 74h75q0 -34 4.5 -54.5t13 -31t19.5 -14t24 -3.5q12 0 23 3.5t19.5 14t13 31t4.5 54.5h76z" />
    <glyph glyph-name="ebreve" unicode="&#x115;" horiz-adv-x="280" 
d="M4 0zM173 502q0 40 -34 40q-32 0 -32 -40v-144h66v144zM173 252h78v-136q0 -125 -112 -125q-109 0 -109 125v386q0 127 109 127q112 0 112 -127v-204h-144v-182q0 -40 32 -40q34 0 34 41v135zM276 811q0 -45 -8 -74t-24.5 -46.5t-42 -24t-59.5 -6.5q-39 0 -65.5 6.5
t-42.5 24t-23 46.5t-7 74h75q0 -34 4.5 -54.5t13 -31t19.5 -14t24 -3.5q12 0 23 3.5t19.5 14t13 31t4.5 54.5h76z" />
    <glyph glyph-name="Edotaccent" unicode="&#x116;" horiz-adv-x="281" 
d="M36 0zM36 0v823h222v-93h-130v-264h87v-93h-87v-281h135v-92h-227zM105 872v125h83v-125h-83z" />
    <glyph glyph-name="edotaccent" unicode="&#x117;" horiz-adv-x="280" 
d="M30 0zM173 502q0 40 -34 40q-32 0 -32 -40v-144h66v144zM173 252h78v-136q0 -125 -112 -125q-109 0 -109 125v386q0 127 109 127q112 0 112 -127v-204h-144v-182q0 -40 32 -40q34 0 34 41v135zM98 668v125h83v-125h-83z" />
    <glyph glyph-name="Eogonek" unicode="&#x118;" horiz-adv-x="281" 
d="M291 -49q0 -45 -23.5 -72.5t-81.5 -27.5q-45 0 -69.5 17.5t-24.5 49.5q0 35 27.5 56t78.5 26h-162v823h222v-93h-130v-264h87v-93h-87v-281h135v-92q-62 -8 -87.5 -25t-25.5 -38q0 -10 6.5 -19t26.5 -9q23 0 30.5 12.5t7.5 29.5v11h70v-11z" />
    <glyph glyph-name="eogonek" unicode="&#x119;" horiz-adv-x="280" 
d="M251 -49q0 -45 -23.5 -72.5t-81.5 -27.5q-45 0 -69.5 17.5t-24.5 49.5q0 28 17 46.5t49 28.5q-88 10 -88 123v386q0 127 110 127q111 0 111 -127v-204h-144v-182q0 -40 32 -40q34 0 34 41v135h78v-136q0 -35 -7.5 -56t-19.5 -34t-27 -20t-30 -12q-34 -12 -45.5 -26.5
t-11.5 -29.5q0 -12 7 -20.5t26 -8.5q23 0 30.5 12.5t7.5 29.5v11h70v-11zM173 502q0 40 -33 40t-33 -40v-144h66v144z" />
    <glyph glyph-name="Ecaron" unicode="&#x11a;" horiz-adv-x="281" 
d="M0 0zM36 0v823h222v-93h-130v-264h87v-93h-87v-281h135v-92h-227zM95 860l-97 161h81l68 -116l71 116h77l-102 -161h-98z" />
    <glyph glyph-name="ecaron" unicode="&#x11b;" horiz-adv-x="280" 
d="M0 0zM173 502q0 40 -34 40q-32 0 -32 -40v-144h66v144zM173 252h78v-136q0 -125 -112 -125q-109 0 -109 125v386q0 127 109 127q112 0 112 -127v-204h-144v-182q0 -40 32 -40q34 0 34 41v135zM89 656l-97 161h81l68 -116l71 116h77l-102 -161h-98z" />
    <glyph glyph-name="Gbreve" unicode="&#x11e;" horiz-adv-x="323" 
d="M26 0zM284 -5l-30 39q-14 -23 -41 -33t-58 -10q-27 0 -49.5 7t-39.5 23.5t-26.5 43.5t-9.5 66v560q0 69 33 105t99 36q67 0 97 -36t30 -105v-145h-83v146q0 47 -44 47q-40 0 -40 -47v-561q0 -25 11 -36.5t28 -11.5q42 0 45 42v177h-49v88h138v-395h-11zM298 1015
q0 -45 -8 -74t-24.5 -46.5t-42 -24t-59.5 -6.5q-39 0 -65.5 6.5t-42.5 24t-23 46.5t-7 74h75q0 -34 4.5 -54.5t13 -31t19.5 -14t24 -3.5q12 0 23 3.5t19.5 14t13 31t4.5 54.5h76z" />
    <glyph glyph-name="gbreve" unicode="&#x11f;" horiz-adv-x="304" 
d="M16 0zM188 58q-24 -29 -69 -29q-46 0 -67.5 26.5t-21.5 86.5v366q0 60 22.5 88.5t64.5 28.5q29 0 47.5 -11.5t30.5 -34.5q0 22 3 40h70v-651q0 -57 -27.5 -87t-87.5 -30q-65 0 -90 30.5t-25 86.5v25h75v-29q0 -40 38 -40q37 0 37 40v94zM188 508q-12 27 -41 27
q-35 0 -35 -36v-353q0 -37 35 -37q27 0 41 27v372zM288 811q0 -45 -8 -74t-24.5 -46.5t-42 -24t-59.5 -6.5q-39 0 -65.5 6.5t-42.5 24t-23 46.5t-7 74h75q0 -34 4.5 -54.5t13 -31t19.5 -14t24 -3.5q12 0 23 3.5t19.5 14t13 31t4.5 54.5h76z" />
    <glyph glyph-name="Gdotaccent" unicode="&#x120;" horiz-adv-x="323" 
d="M30 0zM284 -5l-30 39q-14 -23 -41 -33t-58 -10q-27 0 -49.5 7t-39.5 23.5t-26.5 43.5t-9.5 66v560q0 69 33 105t99 36q67 0 97 -36t30 -105v-145h-83v146q0 47 -44 47q-40 0 -40 -47v-561q0 -25 11 -36.5t28 -11.5q42 0 45 42v177h-49v88h138v-395h-11zM120 872v125h83
v-125h-83z" />
    <glyph glyph-name="gdotaccent" unicode="&#x121;" horiz-adv-x="304" 
d="M30 0zM188 58q-24 -29 -69 -29q-46 0 -67.5 26.5t-21.5 86.5v366q0 60 22.5 88.5t64.5 28.5q29 0 47.5 -11.5t30.5 -34.5q0 22 3 40h70v-651q0 -57 -27.5 -87t-87.5 -30q-65 0 -90 30.5t-25 86.5v25h75v-29q0 -40 38 -40q37 0 37 40v94zM188 508q-12 27 -41 27
q-35 0 -35 -36v-353q0 -37 35 -37q27 0 41 27v372zM108 668v125h83v-125h-83z" />
    <glyph glyph-name="Gcommaaccent" unicode="&#x122;" horiz-adv-x="323" 
d="M30 0zM284 -5l-30 39q-14 -23 -41 -33t-58 -10q-27 0 -49.5 7t-39.5 23.5t-26.5 43.5t-9.5 66v560q0 69 33 105t99 36q67 0 97 -36t30 -105v-145h-83v146q0 47 -44 47q-40 0 -40 -47v-561q0 -25 11 -36.5t28 -11.5q42 0 45 42v177h-49v88h138v-395h-11zM138 -149v28h14
q11 0 11 12v17h-33v72h69v-88q0 -19 -10.5 -30t-33.5 -11h-17z" />
    <glyph glyph-name="gcommaaccent" unicode="&#x123;" horiz-adv-x="304" 
d="M30 0zM188 58q-24 -29 -69 -29q-46 0 -67.5 26.5t-21.5 86.5v366q0 60 22.5 88.5t64.5 28.5q29 0 47.5 -11.5t30.5 -34.5q0 22 3 40h70v-651q0 -57 -27.5 -87t-87.5 -30q-65 0 -90 30.5t-25 86.5v25h75v-29q0 -40 38 -40q37 0 37 40v94zM188 508q-12 27 -41 27
q-35 0 -35 -36v-353q0 -37 35 -37q27 0 41 27v372zM175.003 783.991v-27.999h-13.999q-11 0 -11 -11.999v-16.999h32.998v-71.9951h-68.9951v87.9941q0 18.999 10.499 29.998q10.499 11 33.498 11h16.999z" />
    <glyph glyph-name="Hbar" unicode="&#x126;" horiz-adv-x="333" 
d="M206 0v373h-78v-373h-92v823h92v-152h78v152h92v-823h-92zM206 465v134h-78v-134h78z" />
    <glyph glyph-name="hbar" unicode="&#x127;" horiz-adv-x="303" 
d="M119 684v-90q29 35 74 35q78 0 78 -114v-515h-84v510q0 37 -30 37q-11 0 -21.5 -5.5t-16.5 -18.5v-523h-83v684h-29v72h29v67h83v-67h122v-72h-122z" />
    <glyph glyph-name="hbar" unicode="&#x45b;" horiz-adv-x="303" 
d="M119 684v-90q29 35 74 35q78 0 78 -114v-515h-84v510q0 37 -30 37q-11 0 -21.5 -5.5t-16.5 -18.5v-523h-83v684h-29v72h29v67h83v-67h122v-72h-122z" />
    <glyph glyph-name="Itilde" unicode="&#x128;" horiz-adv-x="201" 
d="M0 0zM54 0v823h92v-823h-92zM222 911q-11 -11 -26.5 -18t-35.5 -7q-18 0 -33.5 5t-30.5 11t-30 11t-31 5q-18 0 -31.5 -7.5t-24.5 -21.5h-1v71q9 11 24 18.5t38 7.5q18 0 33.5 -5t30 -10.5t29.5 -10.5t32 -5q18 0 32.5 7.5t23.5 20.5h1v-72z" />
    <glyph glyph-name="itilde" unicode="&#x129;" horiz-adv-x="231" 
d="M0 0zM237 707q-11 -11 -26.5 -18t-35.5 -7q-18 0 -33.5 5t-30.5 11t-30 11t-31 5q-18 0 -31.5 -7.5t-24.5 -21.5h-1v71q9 11 24 18.5t38 7.5q18 0 33.5 -5t30 -10.5t29.5 -10.5t32 -5q18 0 32.5 7.5t23.5 20.5h1v-72zM74 0v619h83v-619h-83z" />
    <glyph glyph-name="Imacron" unicode="&#x12a;" horiz-adv-x="168" 
d="M0 0zM38 0v823h92v-823h-92zM-32 898v72h234v-72h-234z" />
    <glyph glyph-name="imacron" unicode="&#x12b;" horiz-adv-x="199" 
d="M0 0zM-18 694v72h234v-72h-234zM57 0v619h83v-619h-83z" />
    <glyph glyph-name="Ibreve" unicode="&#x12c;" horiz-adv-x="168" 
d="M0 0zM38 0v823h92v-823h-92zM220 1015q0 -45 -8 -74t-24.5 -46.5t-42 -24t-59.5 -6.5q-39 0 -65.5 6.5t-42.5 24t-23 46.5t-7 74h75q0 -34 4.5 -54.5t13 -31t19.5 -14t24 -3.5q12 0 23 3.5t19.5 14t13 31t4.5 54.5h76z" />
    <glyph glyph-name="ibreve" unicode="&#x12d;" horiz-adv-x="230" 
d="M0 0zM251 811q0 -45 -8 -74t-24.5 -46.5t-42 -24t-59.5 -6.5q-39 0 -65.5 6.5t-42.5 24t-23 46.5t-7 74h75q0 -34 4.5 -54.5t13 -31t19.5 -14t24 -3.5q12 0 23 3.5t19.5 14t13 31t4.5 54.5h76zM73 0v619h83v-619h-83z" />
    <glyph glyph-name="Iogonek" unicode="&#x12e;" horiz-adv-x="168" 
d="M158 -49q0 -45 -23.5 -72.5t-81.5 -27.5q-45 0 -69.5 17.5t-24.5 49.5q0 30 20.5 49.5t58.5 28.5v827h92v-823q-62 -8 -87.5 -25t-25.5 -38q0 -10 6.5 -19t26.5 -9q23 0 30.5 12.5t7.5 29.5v11h70v-11z" />
    <glyph glyph-name="iogonek" unicode="&#x12f;" horiz-adv-x="158" 
d="M149 -49q0 -45 -23.5 -72.5t-81.5 -27.5q-45 0 -69.5 17.5t-24.5 49.5t23 52t65 28v621h83v-619q-62 -8 -87.5 -25t-25.5 -38q0 -10 6.5 -19t26.5 -9q23 0 30.5 12.5t7.5 29.5v11h70v-11zM38 698v125h83v-125h-83z" />
    <glyph glyph-name="Idotaccent" unicode="&#x130;" horiz-adv-x="168" 
d="M38 0zM38 0v823h92v-823h-92zM42 872v125h83v-125h-83z" />
    <glyph glyph-name="dotlessi" unicode="&#x131;" horiz-adv-x="158" 
d="M38 0v619h83v-619h-83z" />
    <glyph glyph-name="IJ" unicode="&#x132;" horiz-adv-x="385" 
d="M38 0zM38 0v823h92v-823h-92zM177 92q9 -2 20 -3.5t25 -1.5q38 0 38 50v686h93v-686q0 -75 -33.5 -109t-97.5 -34q-14 0 -25.5 2t-19.5 4v92z" />
    <glyph glyph-name="ij" unicode="&#x133;" horiz-adv-x="330" 
d="M38 0zM38 698v125h83v-125h-83zM38 0v619h83v-619h-83zM134 -57q13 -4 37 -4q38 0 38 48v632h83v-632q0 -69 -30.5 -100t-90.5 -31q-24 0 -37 4v83zM209 698v125h83v-125h-83z" />
    <glyph glyph-name="Kcommaaccent" unicode="&#x136;" horiz-adv-x="351" 
d="M35 0zM242 0q-31 103 -59 200.5t-57 197.5q2 -51 2 -104.5v-120.5v-173h-93v823h93v-170v-101.5t-2 -78.5q28 91 56 176.5t57 173.5h99l-132 -371l142 -452h-106zM160 -149v28h14q11 0 11 12v17h-33v72h69v-88q0 -19 -10.5 -30t-33.5 -11h-17z" />
    <glyph glyph-name="kcommaaccent" unicode="&#x137;" horiz-adv-x="300" 
d="M35 0zM203 0q-24 86 -38.5 138.5t-23.5 85t-14.5 51.5t-10.5 39v-38.5t0.5 -38t0.5 -41v-48.5v-148h-82v823h82v-324v-42t-0.5 -35.5t-0.5 -32.5v-33q16 51 38.5 118t50.5 145h86l-98 -270l101 -349h-91zM135 -149v28h14q11 0 11 12v17h-33v72h69v-88q0 -19 -10.5 -30
t-33.5 -11h-17z" />
    <glyph glyph-name="Lacute" unicode="&#x139;" horiz-adv-x="272" 
d="M10 0zM36 0v823h92v-731h135v-92h-227zM10 860l110 161h107l-137 -161h-80z" />
    <glyph glyph-name="lacute" unicode="&#x13a;" horiz-adv-x="155" 
d="M5 0zM36 0v823h83v-823h-83zM5 860l110 161h107l-137 -161h-80z" />
    <glyph glyph-name="Lcommaaccent" unicode="&#x13b;" horiz-adv-x="272" 
d="M36 0zM36 0v823h92v-731h135v-92h-227zM121 -149v28h14q11 0 11 12v17h-33v72h69v-88q0 -19 -10.5 -30t-33.5 -11h-17z" />
    <glyph glyph-name="lcommaaccent" unicode="&#x13c;" horiz-adv-x="155" 
d="M36 0zM36 0v823h83v-823h-83zM50 -149v28h14q11 0 11 12v17h-33v72h69v-88q0 -19 -10.5 -30t-33.5 -11h-17z" />
    <glyph glyph-name="Lcaron" unicode="&#x13d;" horiz-adv-x="292" 
d="M36 0zM36 0v823h92v-731h135v-92h-227zM211 637v38h9q19 0 19 21v24h-39v103h86v-121q0 -27 -15 -46t-50 -19h-10z" />
    <glyph glyph-name="lcaron" unicode="&#x13e;" horiz-adv-x="241" 
d="M36 0zM36 0v823h83v-823h-83zM166 637v38h9q19 0 19 21v24h-39v103h86v-121q0 -27 -15 -46t-50 -19h-10z" />
    <glyph glyph-name="Lslash" unicode="&#x141;" horiz-adv-x="275" 
d="M38 0v493l-35 -22l-31 51l66 39v262h93v-208l53 33l29 -51l-82 -50v-455h134v-92h-227z" />
    <glyph glyph-name="lslash" unicode="&#x142;" horiz-adv-x="215" 
d="M67 0v504l-54 -31l-30 49l84 49v252h84v-203l52 32l31 -50l-83 -50v-552h-84z" />
    <glyph glyph-name="Nacute" unicode="&#x143;" horiz-adv-x="355" 
d="M33 0zM231 0q-23 106 -41 187t-32.5 145.5t-26 117t-21.5 102.5q2 -85 2 -169.5v-169.5v-213h-79v823h108q20 -114 35.5 -198t27.5 -148t21.5 -114.5t18.5 -98.5q-2 72 -2 141v138v280h79v-823h-90zM105 860l110 161h107l-137 -161h-80z" />
    <glyph glyph-name="nacute" unicode="&#x144;" horiz-adv-x="303" 
d="M36 0zM187 0v510q0 37 -30 37q-11 0 -21.5 -5.5t-16.5 -18.5v-523h-83v619h70q3 -18 3 -40q30 50 83 50q79 0 79 -114v-515h-84zM80 656l110 161h107l-137 -161h-80z" />
    <glyph glyph-name="Ncommaaccent" unicode="&#x145;" horiz-adv-x="355" 
d="M33 0zM231 0q-23 106 -41 187t-32.5 145.5t-26 117t-21.5 102.5q2 -85 2 -169.5v-169.5v-213h-79v823h108q20 -114 35.5 -198t27.5 -148t21.5 -114.5t18.5 -98.5q-2 72 -2 141v138v280h79v-823h-90zM151 -149v28h14q11 0 11 12v17h-33v72h69v-88q0 -19 -10.5 -30
t-33.5 -11h-17z" />
    <glyph glyph-name="ncommaaccent" unicode="&#x146;" horiz-adv-x="303" 
d="M36 0zM187 0v510q0 37 -30 37q-11 0 -21.5 -5.5t-16.5 -18.5v-523h-83v619h70q3 -18 3 -40q30 50 83 50q79 0 79 -114v-515h-84zM128 -149v28h14q11 0 11 12v17h-33v72h69v-88q0 -19 -10.5 -30t-33.5 -11h-17z" />
    <glyph glyph-name="Ncaron" unicode="&#x147;" horiz-adv-x="355" 
d="M29 0zM231 0q-23 106 -41 187t-32.5 145.5t-26 117t-21.5 102.5q2 -85 2 -169.5v-169.5v-213h-79v823h108q20 -114 35.5 -198t27.5 -148t21.5 -114.5t18.5 -98.5q-2 72 -2 141v138v280h79v-823h-90zM126 860l-97 161h81l68 -116l71 116h77l-102 -161h-98z" />
    <glyph glyph-name="ncaron" unicode="&#x148;" horiz-adv-x="303" 
d="M5 0zM187 0v510q0 37 -30 37q-11 0 -21.5 -5.5t-16.5 -18.5v-523h-83v619h70q3 -18 3 -40q30 50 83 50q79 0 79 -114v-515h-84zM102 656l-97 161h81l68 -116l71 116h77l-102 -161h-98z" />
    <glyph glyph-name="Eng" unicode="&#x14a;" horiz-adv-x="355" 
d="M163 -62q8 -2 17 -3t16 -1q15 0 26 5t18 21q-23 104 -42.5 191t-35.5 159.5t-29 132t-23 109.5q2 -85 2 -169.5v-169.5v-213h-79v823h108q20 -114 35.5 -198t27.5 -148t21.5 -114.5t18.5 -98.5q-2 72 -2 141v138v280h79v-841q0 -70 -30.5 -100.5t-91.5 -30.5q-10 0 -19 1
t-17 3v83z" />
    <glyph glyph-name="eng" unicode="&#x14b;" horiz-adv-x="303" 
d="M113 -62q8 -2 17 -3t15 -1q22 0 32 10.5t10 37.5v528q0 37 -30 37q-11 0 -21.5 -5.5t-16.5 -18.5v-523h-83v619h70q3 -18 3 -40q30 50 83 50q79 0 79 -114v-533q0 -70 -30.5 -100.5t-91.5 -30.5q-10 0 -19 1t-17 3v83z" />
    <glyph glyph-name="Omacron" unicode="&#x14c;" horiz-adv-x="322" 
d="M30 0zM30 692q0 140 131 140q132 0 132 -140v-561q0 -140 -132 -140q-131 0 -131 140v561zM201 692q0 47 -40 47q-39 0 -39 -47v-561q0 -48 39 -48q40 0 40 48v561zM44 898v72h234v-72h-234z" />
    <glyph glyph-name="omacron" unicode="&#x14d;" horiz-adv-x="291" 
d="M29 0zM30 505q0 60 28 92t88 32q57 0 86.5 -32t29.5 -92v-391q0 -60 -29.5 -91.5t-86.5 -31.5q-60 0 -88 31.5t-28 91.5v391zM180 502q0 20 -7 30.5t-27 10.5t-27.5 -10.5t-7.5 -30.5v-386q0 -20 7.5 -30t27.5 -10t27 10.5t7 30.5v385zM29 694v72h234v-72h-234z" />
    <glyph glyph-name="Obreve" unicode="&#x14e;" horiz-adv-x="322" 
d="M26 0zM30 692q0 140 131 140q132 0 132 -140v-561q0 -140 -132 -140q-131 0 -131 140v561zM201 692q0 47 -40 47q-39 0 -39 -47v-561q0 -48 39 -48q40 0 40 48v561zM298 1015q0 -45 -8 -74t-24.5 -46.5t-42 -24t-59.5 -6.5q-39 0 -65.5 6.5t-42.5 24t-23 46.5t-7 74h75
q0 -34 4.5 -54.5t13 -31t19.5 -14t24 -3.5q12 0 23 3.5t19.5 14t13 31t4.5 54.5h76z" />
    <glyph glyph-name="obreve" unicode="&#x14f;" horiz-adv-x="291" 
d="M10 0zM30 505q0 60 28 92t88 32q57 0 86.5 -32t29.5 -92v-391q0 -60 -29.5 -91.5t-86.5 -31.5q-60 0 -88 31.5t-28 91.5v391zM180 502q0 20 -7 30.5t-27 10.5t-27.5 -10.5t-7.5 -30.5v-386q0 -20 7.5 -30t27.5 -10t27 10.5t7 30.5v385zM282 811q0 -45 -8 -74t-24.5 -46.5
t-42 -24t-59.5 -6.5q-39 0 -65.5 6.5t-42.5 24t-23 46.5t-7 74h75q0 -34 4.5 -54.5t13 -31t19.5 -14t24 -3.5q12 0 23 3.5t19.5 14t13 31t4.5 54.5h76z" />
    <glyph glyph-name="Ohungarumlaut" unicode="&#x150;" horiz-adv-x="322" 
d="M7 0zM30 692q0 140 131 140q132 0 132 -140v-561q0 -140 -132 -140q-131 0 -131 140v561zM201 692q0 47 -40 47q-39 0 -39 -47v-561q0 -48 39 -48q40 0 40 48v561zM172 860l110 161h108l-138 -161h-80zM7 860l110 161h107l-137 -161h-80z" />
    <glyph glyph-name="ohungarumlaut" unicode="&#x151;" horiz-adv-x="291" 
d="M0 0zM30 505q0 60 28 92t88 32q57 0 86.5 -32t29.5 -92v-391q0 -60 -29.5 -91.5t-86.5 -31.5q-60 0 -88 31.5t-28 91.5v391zM180 502q0 20 -7 30.5t-27 10.5t-27.5 -10.5t-7.5 -30.5v-386q0 -20 7.5 -30t27.5 -10t27 10.5t7 30.5v385zM156 656l110 161h108l-138 -161h-80
zM-9 656l110 161h107l-137 -161h-80z" />
    <glyph glyph-name="OE" unicode="&#x152;" horiz-adv-x="436" 
d="M216 0q-23 -9 -55 -9q-131 0 -131 140v561q0 140 131 140q32 0 55 -9h197v-93h-130v-264h87v-93h-87v-281h135v-92h-202zM191 735q-8 4 -30 4q-39 0 -39 -47v-561q0 -48 39 -48q21 0 30 4v648z" />
    <glyph glyph-name="oe" unicode="&#x153;" horiz-adv-x="435" 
d="M327 252h79v-136q0 -125 -113 -125q-44 0 -73 23q-26 -23 -74 -23q-60 0 -88 31.5t-28 91.5v391q0 60 28 92t88 32q47 0 75 -25q28 25 72 25q113 0 113 -127v-204h-144v-182q0 -40 31 -40q34 0 34 41v135zM180 502q0 20 -7 30.5t-27 10.5t-27.5 -10.5t-7.5 -30.5v-386
q0 -20 7.5 -30t27.5 -10t27 10.5t7 30.5v385zM327 502q0 40 -34 40q-31 0 -31 -40v-144h65v144z" />
    <glyph glyph-name="Racute" unicode="&#x154;" horiz-adv-x="332" 
d="M35 0zM214 656q0 38 -9 56t-42 18h-35v-276h36q50 0 50 53v149zM214 0q-11 94 -22 185t-26 185h-38v-370h-93v823h128q72 0 108.5 -33.5t36.5 -114.5v-167q0 -48 -13 -75.5t-41 -43.5q18 -100 32.5 -196t28.5 -193h-101zM94 860l110 161h107l-137 -161h-80z" />
    <glyph glyph-name="racute" unicode="&#x155;" horiz-adv-x="207" 
d="M32 0zM36 0v619h70q3 -18 3 -38q22 45 68 45q11 0 19 -4v-93q-6 4 -14.5 5.5t-17.5 1.5q-13 0 -25.5 -5.5t-19.5 -21.5v-509h-83zM32 656l110 161h107l-137 -161h-80z" />
    <glyph glyph-name="Rcommaaccent" unicode="&#x156;" horiz-adv-x="332" 
d="M35 0zM214 656q0 38 -9 56t-42 18h-35v-276h36q50 0 50 53v149zM214 0q-11 94 -22 185t-26 185h-38v-370h-93v823h128q72 0 108.5 -33.5t36.5 -114.5v-167q0 -48 -13 -75.5t-41 -43.5q18 -100 32.5 -196t28.5 -193h-101zM149 -149v28h14q11 0 11 12v17h-33v72h69v-88
q0 -19 -10.5 -30t-33.5 -11h-17z" />
    <glyph glyph-name="rcommaaccent" unicode="&#x157;" horiz-adv-x="207" 
d="M36 0zM36 0v619h70q3 -18 3 -38q22 45 68 45q11 0 19 -4v-93q-6 4 -14.5 5.5t-17.5 1.5q-13 0 -25.5 -5.5t-19.5 -21.5v-509h-83zM51 -149v28h14q11 0 11 12v17h-33v72h69v-88q0 -19 -10.5 -30t-33.5 -11h-17z" />
    <glyph glyph-name="Rcaron" unicode="&#x158;" horiz-adv-x="332" 
d="M19 0zM214 656q0 38 -9 56t-42 18h-35v-276h36q50 0 50 53v149zM214 0q-11 94 -22 185t-26 185h-38v-370h-93v823h128q72 0 108.5 -33.5t36.5 -114.5v-167q0 -48 -13 -75.5t-41 -43.5q18 -100 32.5 -196t28.5 -193h-101zM116 860l-97 161h81l68 -116l71 116h77l-102 -161
h-98z" />
    <glyph glyph-name="rcaron" unicode="&#x159;" horiz-adv-x="207" 
d="M0 0zM36 0v619h70q3 -18 3 -38q22 45 68 45q11 0 19 -4v-93q-6 4 -14.5 5.5t-17.5 1.5q-13 0 -25.5 -5.5t-19.5 -21.5v-509h-83zM52 656l-97 161h81l68 -116l71 116h77l-102 -161h-98z" />
    <glyph glyph-name="Sacute" unicode="&#x15a;" horiz-adv-x="311" 
d="M25 0zM194 244q0 28 -6 44.5t-23 38.5q-10 13 -26 31.5t-32.5 38.5t-32 39t-24.5 33q-14 22 -19.5 45t-5.5 59v123q0 136 133 136q68 0 96.5 -33.5t28.5 -102.5v-150h-86v149q0 20 -9 32t-30 12q-39 0 -39 -43v-122q0 -17 3 -30t13 -26q7 -11 22 -28t32 -36.5t33.5 -40
t28.5 -37.5q10 -14 16.5 -27.5t10.5 -28.5t6 -33t2 -42v-118q0 -66 -30.5 -101t-99.5 -35t-100 35t-31 101v175h89v-175q0 -20 9.5 -32t30.5 -12q40 0 40 44v117zM83 860l110 161h107l-137 -161h-80z" />
    <glyph glyph-name="sacute" unicode="&#x15b;" horiz-adv-x="279" 
d="M25 0zM252 105q0 -61 -29 -87.5t-89 -26.5q-54 0 -81.5 28.5t-27.5 89.5v98h76v-96q0 -19 9.5 -28.5t25.5 -9.5q33 0 33 38v67q0 20 -3.5 30.5t-15.5 26.5q-23 31 -49 57t-49 56q-16 20 -21.5 44.5t-5.5 55.5v59q0 67 29 94.5t83 27.5q65 0 88.5 -29.5t23.5 -92.5v-98
h-76v98q0 19 -9.5 28.5t-24.5 9.5q-32 0 -32 -38v-68q0 -15 2.5 -25.5t13.5 -24.5q23 -29 48.5 -53.5t46.5 -51.5t27.5 -53t6.5 -65v-61zM68 656l110 161h107l-137 -161h-80z" />
    <glyph glyph-name="Scedilla" unicode="&#x15e;" horiz-adv-x="311" 
d="M25 0zM194 244q0 28 -6 44.5t-23 38.5q-10 13 -26 31.5t-32.5 38.5t-32 39t-24.5 33q-14 22 -19.5 45t-5.5 59v123q0 136 133 136q68 0 96.5 -33.5t28.5 -102.5v-150h-86v149q0 20 -9 32t-30 12q-39 0 -39 -43v-122q0 -17 3 -30t13 -26q7 -11 22 -28t32 -36.5t33.5 -40
t28.5 -37.5q10 -14 16.5 -27.5t10.5 -28.5t6 -33t2 -42v-118q0 -66 -30.5 -101t-99.5 -35t-100 35t-31 101v175h89v-175q0 -20 9.5 -32t30.5 -12q40 0 40 44v117zM129 -149v28h14q11 0 11 12v17h-33v72h69v-88q0 -19 -10.5 -30t-33.5 -11h-17z" />
    <glyph glyph-name="Scedilla" unicode="&#x218;" horiz-adv-x="311" 
d="M25 0zM194 244q0 28 -6 44.5t-23 38.5q-10 13 -26 31.5t-32.5 38.5t-32 39t-24.5 33q-14 22 -19.5 45t-5.5 59v123q0 136 133 136q68 0 96.5 -33.5t28.5 -102.5v-150h-86v149q0 20 -9 32t-30 12q-39 0 -39 -43v-122q0 -17 3 -30t13 -26q7 -11 22 -28t32 -36.5t33.5 -40
t28.5 -37.5q10 -14 16.5 -27.5t10.5 -28.5t6 -33t2 -42v-118q0 -66 -30.5 -101t-99.5 -35t-100 35t-31 101v175h89v-175q0 -20 9.5 -32t30.5 -12q40 0 40 44v117zM129 -149v28h14q11 0 11 12v17h-33v72h69v-88q0 -19 -10.5 -30t-33.5 -11h-17z" />
    <glyph glyph-name="scedilla" unicode="&#x15f;" horiz-adv-x="279" 
d="M25 0zM252 105q0 -61 -29 -87.5t-89 -26.5q-54 0 -81.5 28.5t-27.5 89.5v98h76v-96q0 -19 9.5 -28.5t25.5 -9.5q33 0 33 38v67q0 20 -3.5 30.5t-15.5 26.5q-23 31 -49 57t-49 56q-16 20 -21.5 44.5t-5.5 55.5v59q0 67 29 94.5t83 27.5q65 0 88.5 -29.5t23.5 -92.5v-98
h-76v98q0 19 -9.5 28.5t-24.5 9.5q-32 0 -32 -38v-68q0 -15 2.5 -25.5t13.5 -24.5q23 -29 48.5 -53.5t46.5 -51.5t27.5 -53t6.5 -65v-61zM112 -149v28h14q11 0 11 12v17h-33v72h69v-88q0 -19 -10.5 -30t-33.5 -11h-17z" />
    <glyph glyph-name="scedilla" unicode="&#x219;" horiz-adv-x="279" 
d="M25 0zM252 105q0 -61 -29 -87.5t-89 -26.5q-54 0 -81.5 28.5t-27.5 89.5v98h76v-96q0 -19 9.5 -28.5t25.5 -9.5q33 0 33 38v67q0 20 -3.5 30.5t-15.5 26.5q-23 31 -49 57t-49 56q-16 20 -21.5 44.5t-5.5 55.5v59q0 67 29 94.5t83 27.5q65 0 88.5 -29.5t23.5 -92.5v-98
h-76v98q0 19 -9.5 28.5t-24.5 9.5q-32 0 -32 -38v-68q0 -15 2.5 -25.5t13.5 -24.5q23 -29 48.5 -53.5t46.5 -51.5t27.5 -53t6.5 -65v-61zM112 -149v28h14q11 0 11 12v17h-33v72h69v-88q0 -19 -10.5 -30t-33.5 -11h-17z" />
    <glyph glyph-name="Scaron" unicode="&#x160;" horiz-adv-x="311" 
d="M10 0zM194 244q0 28 -6 44.5t-23 38.5q-10 13 -26 31.5t-32.5 38.5t-32 39t-24.5 33q-14 22 -19.5 45t-5.5 59v123q0 136 133 136q68 0 96.5 -33.5t28.5 -102.5v-150h-86v149q0 20 -9 32t-30 12q-39 0 -39 -43v-122q0 -17 3 -30t13 -26q7 -11 22 -28t32 -36.5t33.5 -40
t28.5 -37.5q10 -14 16.5 -27.5t10.5 -28.5t6 -33t2 -42v-118q0 -66 -30.5 -101t-99.5 -35t-100 35t-31 101v175h89v-175q0 -20 9.5 -32t30.5 -12q40 0 40 44v117zM107 860l-97 161h81l68 -116l71 116h77l-102 -161h-98z" />
    <glyph glyph-name="scaron" unicode="&#x161;" horiz-adv-x="279" 
d="M0 0zM252 105q0 -61 -29 -87.5t-89 -26.5q-54 0 -81.5 28.5t-27.5 89.5v98h76v-96q0 -19 9.5 -28.5t25.5 -9.5q33 0 33 38v67q0 20 -3.5 30.5t-15.5 26.5q-23 31 -49 57t-49 56q-16 20 -21.5 44.5t-5.5 55.5v59q0 67 29 94.5t83 27.5q65 0 88.5 -29.5t23.5 -92.5v-98h-76
v98q0 19 -9.5 28.5t-24.5 9.5q-32 0 -32 -38v-68q0 -15 2.5 -25.5t13.5 -24.5q23 -29 48.5 -53.5t46.5 -51.5t27.5 -53t6.5 -65v-61zM89 656l-97 161h81l68 -116l71 116h77l-102 -161h-98z" />
    <glyph glyph-name="Tcommaaccent" unicode="&#x162;" horiz-adv-x="283" 
d="M10 0zM96 0v730h-86v93h264v-93h-86v-730h-92zM116 -149v28h14q11 0 11 12v17h-33v72h69v-88q0 -19 -10.5 -30t-33.5 -11h-17z" />
    <glyph glyph-name="Tcommaaccent" unicode="&#x21a;" horiz-adv-x="283" 
d="M10 0zM96 0v730h-86v93h264v-93h-86v-730h-92zM116 -149v28h14q11 0 11 12v17h-33v72h69v-88q0 -19 -10.5 -30t-33.5 -11h-17z" />
    <glyph glyph-name="tcommaaccent" unicode="&#x163;" horiz-adv-x="191" 
d="M8 0zM181 -5q-6 -2 -14.5 -3t-16.5 -1q-57 0 -84.5 34t-27.5 94v427h-30v73h30v196h84v-196h57v-73h-57v-426q0 -57 46 -57h6.5t6.5 1v-69zM91 -149v28h14q11 0 11 12v17h-33v72h69v-88q0 -19 -10.5 -30t-33.5 -11h-17z" />
    <glyph glyph-name="tcommaaccent" unicode="&#x21b;" horiz-adv-x="191" 
d="M8 0zM181 -5q-6 -2 -14.5 -3t-16.5 -1q-57 0 -84.5 34t-27.5 94v427h-30v73h30v196h84v-196h57v-73h-57v-426q0 -57 46 -57h6.5t6.5 1v-69zM91 -149v28h14q11 0 11 12v17h-33v72h69v-88q0 -19 -10.5 -30t-33.5 -11h-17z" />
    <glyph glyph-name="Tcaron" unicode="&#x164;" horiz-adv-x="283" 
d="M0 0zM96 0v730h-86v93h264v-93h-86v-730h-92zM90 860l-97 161h81l68 -116l71 116h77l-102 -161h-98z" />
    <glyph glyph-name="tcaron" unicode="&#x165;" horiz-adv-x="263" 
d="M8 0zM181 -5q-6 -2 -14.5 -3t-16.5 -1q-57 0 -84.5 34t-27.5 94v427h-30v73h30v196h84v-196h57v-73h-57v-426q0 -57 46 -57h6.5t6.5 1v-69zM187 637v38h9q19 0 19 21v24h-39v103h86v-121q0 -27 -15 -46t-50 -19h-10z" />
    <glyph glyph-name="Tbar" unicode="&#x166;" horiz-adv-x="283" 
d="M96 0v383h-54v71h54v276h-86v93h264v-93h-86v-276h54v-71h-54v-383h-92z" />
    <glyph glyph-name="tbar" unicode="&#x167;" horiz-adv-x="191" 
d="M122 289v-169q0 -57 46 -57h6.5t6.5 1v-69q-6 -2 -14.5 -3t-16.5 -1q-57 0 -84.5 34t-27.5 94v170h-23v71h23v186h-30v73h30v196h84v-196h57v-73h-57v-186h53v-71h-53z" />
    <glyph glyph-name="Utilde" unicode="&#x168;" horiz-adv-x="327" 
d="M33 0zM203 823h92v-692q0 -140 -131 -140t-131 140v692h92v-692q0 -48 39 -48t39 48v692zM285 911q-11 -11 -26.5 -18t-35.5 -7q-18 0 -33.5 5t-30.5 11t-30 11t-31 5q-18 0 -31.5 -7.5t-24.5 -21.5h-1v71q9 11 24 18.5t38 7.5q18 0 33.5 -5t30 -10.5t29.5 -10.5t32 -5
q18 0 32.5 7.5t23.5 20.5h1v-72z" />
    <glyph glyph-name="utilde" unicode="&#x169;" horiz-adv-x="301" 
d="M28 0zM195 0q-3 18 -3 39q-29 -45 -81 -45q-38 0 -58 27.5t-20 78.5v519h83v-506q0 -37 29 -37q11 0 21 5.5t16 18.5v519h84v-619h-71zM272 707q-11 -11 -26.5 -18t-35.5 -7q-18 0 -33.5 5t-30.5 11t-30 11t-31 5q-18 0 -31.5 -7.5t-24.5 -21.5h-1v71q9 11 24 18.5
t38 7.5q18 0 33.5 -5t30 -10.5t29.5 -10.5t32 -5q18 0 32.5 7.5t23.5 20.5h1v-72z" />
    <glyph glyph-name="Umacron" unicode="&#x16a;" horiz-adv-x="327" 
d="M33 0zM203 823h92v-692q0 -140 -131 -140t-131 140v692h92v-692q0 -48 39 -48t39 48v692zM46 898v72h234v-72h-234z" />
    <glyph glyph-name="umacron" unicode="&#x16b;" horiz-adv-x="301" 
d="M33 0zM195 0q-3 18 -3 39q-29 -45 -81 -45q-38 0 -58 27.5t-20 78.5v519h83v-506q0 -37 29 -37q11 0 21 5.5t16 18.5v519h84v-619h-71zM34 694v72h234v-72h-234z" />
    <glyph glyph-name="Ubreve" unicode="&#x16c;" horiz-adv-x="327" 
d="M28 0zM203 823h92v-692q0 -140 -131 -140t-131 140v692h92v-692q0 -48 39 -48t39 48v692zM300 1015q0 -45 -8 -74t-24.5 -46.5t-42 -24t-59.5 -6.5q-39 0 -65.5 6.5t-42.5 24t-23 46.5t-7 74h75q0 -34 4.5 -54.5t13 -31t19.5 -14t24 -3.5q12 0 23 3.5t19.5 14t13 31
t4.5 54.5h76z" />
    <glyph glyph-name="ubreve" unicode="&#x16d;" horiz-adv-x="301" 
d="M15 0zM195 0q-3 18 -3 39q-29 -45 -81 -45q-38 0 -58 27.5t-20 78.5v519h83v-506q0 -37 29 -37q11 0 21 5.5t16 18.5v519h84v-619h-71zM287 811q0 -45 -8 -74t-24.5 -46.5t-42 -24t-59.5 -6.5q-39 0 -65.5 6.5t-42.5 24t-23 46.5t-7 74h75q0 -34 4.5 -54.5t13 -31
t19.5 -14t24 -3.5q12 0 23 3.5t19.5 14t13 31t4.5 54.5h76z" />
    <glyph glyph-name="Uring" unicode="&#x16e;" horiz-adv-x="327" 
d="M33 0zM203 823h92v-692q0 -140 -131 -140t-131 140v692h92v-692q0 -48 39 -48t39 48v692zM261 941q0 -34 -24 -56t-75 -22q-49 0 -73 22t-24 56q0 35 24 57.5t73 22.5q51 0 75 -22.5t24 -57.5zM217 941q0 22 -13 33t-42 11q-56 0 -56 -44q0 -42 56 -42q29 0 42 10.5
t13 31.5z" />
    <glyph glyph-name="uring" unicode="&#x16f;" horiz-adv-x="301" 
d="M33 0zM195 0q-3 18 -3 39q-29 -45 -81 -45q-38 0 -58 27.5t-20 78.5v519h83v-506q0 -37 29 -37q11 0 21 5.5t16 18.5v519h84v-619h-71zM248 737q0 -34 -24 -56t-75 -22q-49 0 -73 22t-24 56q0 35 24 57.5t73 22.5q51 0 75 -22.5t24 -57.5zM204 737q0 22 -13 33t-42 11
q-56 0 -56 -44q0 -42 56 -42q29 0 42 10.5t13 31.5z" />
    <glyph glyph-name="Uhungarumlaut" unicode="&#x170;" horiz-adv-x="327" 
d="M9 0zM203 823h92v-692q0 -140 -131 -140t-131 140v692h92v-692q0 -48 39 -48t39 48v692zM174 860l110 161h108l-138 -161h-80zM9 860l110 161h107l-137 -161h-80z" />
    <glyph glyph-name="uhungarumlaut" unicode="&#x171;" horiz-adv-x="301" 
d="M0 0zM195 0q-3 18 -3 39q-29 -45 -81 -45q-38 0 -58 27.5t-20 78.5v519h83v-506q0 -37 29 -37q11 0 21 5.5t16 18.5v519h84v-619h-71zM161 656l110 161h108l-138 -161h-80zM-4 656l110 161h107l-137 -161h-80z" />
    <glyph glyph-name="Uogonek" unicode="&#x172;" horiz-adv-x="327" 
d="M250 -49q0 -48 -24.5 -74t-88.5 -26q-37 0 -61.5 17.5t-24.5 51.5q0 26 19.5 45.5t54.5 29.5q-92 18 -92 136v692h92v-692q0 -48 39 -48t39 48v692h92v-692q0 -67 -30 -98t-87 -41q-37 -6 -53 -22t-16 -34q0 -9 7 -18t25 -9q23 0 31 12.5t8 29.5v11h70v-11z" />
    <glyph glyph-name="uogonek" unicode="&#x173;" horiz-adv-x="301" 
d="M294 -49q0 -48 -24.5 -74t-88.5 -26q-37 0 -61.5 17.5t-24.5 51.5q0 31 26 52.5t74 27.5q-3 16 -3 39q-29 -45 -81 -45q-38 0 -58 27.5t-20 78.5v519h83v-506q0 -37 29 -37q11 0 21 5.5t16 18.5v519h84v-619q-60 -8 -86.5 -24.5t-26.5 -39.5q0 -9 7 -18t25 -9
q23 0 31 12.5t8 29.5v11h70v-11z" />
    <glyph glyph-name="Wcircumflex" unicode="&#x174;" horiz-adv-x="531" 
d="M11 0zM314 0q-10 103 -19.5 199.5t-16.5 173.5t-11 129.5t-4 67.5q-1 -15 -6.5 -67.5t-13 -130t-17.5 -173.5t-20 -199h-110l-85 823h96q8 -108 16.5 -210.5t16 -185t12.5 -139.5t6 -75q1 18 7 75t15 139.5t20 185t23 210.5h86q10 -108 19.5 -210.5t17.5 -185t13 -139.5
t6 -75q1 18 6.5 75t14 139.5t18.5 185t20 210.5h97l-98 -823h-109zM333 860l-68 116l-71 -116h-77l102 161h98l97 -161h-81z" />
    <glyph glyph-name="wcircumflex" unicode="&#x175;" horiz-adv-x="421" 
d="M12 0zM247 0l-39 429l-43 -429h-97l-56 619h77l33 -456l49 456h77l43 -456l41 456h77l-64 -619h-98zM278 656l-68 116l-71 -116h-77l102 161h98l97 -161h-81z" />
    <glyph glyph-name="Ycircumflex" unicode="&#x176;" horiz-adv-x="334" 
d="M8 0zM118 0v360l-110 463h97q9 -51 19.5 -103t19.5 -96.5t16 -78t9 -47.5q2 14 9.5 47.5t17 78.5t20.5 96.5t20 102.5h90l-114 -463v-360h-94zM237 860l-68 116l-71 -116h-77l102 161h98l97 -161h-81z" />
    <glyph glyph-name="ycircumflex" unicode="&#x177;" horiz-adv-x="278" 
d="M0 0zM18 -56q11 -4 34 -4q21 0 29 18t13 48l2 13l-87 600h87q9 -82 15.5 -145t11.5 -113.5t8.5 -93t6.5 -82.5q4 40 8.5 82.5t10 93t13 113.5t17.5 145h80l-84 -596q-6 -39 -14 -70t-21.5 -52.5t-36 -33t-56.5 -11.5q-17 0 -37 5v83zM208 656l-68 116l-71 -116h-77
l102 161h98l97 -161h-81z" />
    <glyph glyph-name="Ydieresis" unicode="&#x178;" horiz-adv-x="334" 
d="M8 0zM118 0v360l-110 463h97q9 -51 19.5 -103t19.5 -96.5t16 -78t9 -47.5q2 14 9.5 47.5t17 78.5t20.5 96.5t20 102.5h90l-114 -463v-360h-94zM203 872v125h84v-125h-84zM51 872v125h83v-125h-83z" />
    <glyph glyph-name="Ydieresis" unicode="&#x3ab;" horiz-adv-x="334" 
d="M8 0zM118 0v360l-110 463h97q9 -51 19.5 -103t19.5 -96.5t16 -78t9 -47.5q2 14 9.5 47.5t17 78.5t20.5 96.5t20 102.5h90l-114 -463v-360h-94zM203 872v125h84v-125h-84zM51 872v125h83v-125h-83z" />
    <glyph glyph-name="Zacute" unicode="&#x179;" horiz-adv-x="308" 
d="M24 0zM24 0v94l170 639h-163v90h255v-83l-166 -646h166v-94h-262zM82 860l110 161h107l-137 -161h-80z" />
    <glyph glyph-name="zacute" unicode="&#x17a;" horiz-adv-x="256" 
d="M24 0zM24 0v79l131 458h-129v82h208v-77l-127 -457h126v-85h-209zM56 656l110 161h107l-137 -161h-80z" />
    <glyph glyph-name="Zdotaccent" unicode="&#x17b;" horiz-adv-x="308" 
d="M24 0zM24 0v94l170 639h-163v90h255v-83l-166 -646h166v-94h-262zM117 872v125h83v-125h-83z" />
    <glyph glyph-name="zdotaccent" unicode="&#x17c;" horiz-adv-x="256" 
d="M24 0zM24 0v79l131 458h-129v82h208v-77l-127 -457h126v-85h-209zM88 668v125h83v-125h-83z" />
    <glyph glyph-name="Zcaron" unicode="&#x17d;" horiz-adv-x="308" 
d="M12 0zM24 0v94l170 639h-163v90h255v-83l-166 -646h166v-94h-262zM109 860l-97 161h81l68 -116l71 116h77l-102 -161h-98z" />
    <glyph glyph-name="zcaron" unicode="&#x17e;" horiz-adv-x="256" 
d="M0 0zM24 0v79l131 458h-129v82h208v-77l-127 -457h126v-85h-209zM77 656l-97 161h81l68 -116l71 116h77l-102 -161h-98z" />
    <glyph glyph-name="uni018E" unicode="&#x18e;" horiz-adv-x="281" 
d="M245 823v-823h-222v92h130v265h-88v92h88v281h-135v93h227z" />
    <glyph glyph-name="uni018F" unicode="&#x18f;" horiz-adv-x="315" 
d="M113 534h-84v157q0 72 28.5 106.5t94.5 34.5q133 0 133 -140v-560q0 -141 -133 -141q-123 0 -123 140v296h161v264q0 48 -39 48q-38 0 -38 -47v-158zM190 356h-77v-213q0 -30 7.5 -45t30.5 -15q22 0 30.5 13.5t8.5 39.5v220z" />
    <glyph glyph-name="uni018F" unicode="&#x4d8;" horiz-adv-x="315" 
d="M113 534h-84v157q0 72 28.5 106.5t94.5 34.5q133 0 133 -140v-560q0 -141 -133 -141q-123 0 -123 140v296h161v264q0 48 -39 48q-38 0 -38 -47v-158zM190 356h-77v-213q0 -30 7.5 -45t30.5 -15q22 0 30.5 13.5t8.5 39.5v220z" />
    <glyph glyph-name="florin" unicode="&#x192;" horiz-adv-x="411" 
d="M16 74q10 -2 22 -4t32 -2q30 0 42.5 15t17.5 53l50 427h-76v71h84l9 65q5 37 15 62.5t28 41t44 22.5t64 7q20 0 34.5 -3t21.5 -6v-74q-11 2 -23 3.5t-32 1.5q-28 0 -41 -12.5t-17 -45.5l-7 -62h98v-71h-108l-49 -431q-5 -39 -15.5 -66t-28.5 -43.5t-45 -24t-65 -7.5
q-20 0 -34.5 3t-20.5 6v74z" />
    <glyph glyph-name="uni0194" unicode="&#x194;" horiz-adv-x="340" 
d="M173 -149q-58 0 -78.5 23t-20.5 69q0 17 2 35t5 33l50 262l-121 550h96l66 -338l65 338h92l-116 -547l52 -265q3 -15 5 -33t2 -35q0 -46 -20.5 -69t-78.5 -23zM172 86l-20 -98q-3 -14 -5 -26.5t-2 -25.5q0 -20 6 -29.5t22 -9.5t22 9.5t6 29.5q0 14 -2.5 30t-5.5 28z" />
    <glyph glyph-name="uni019D" unicode="&#x19d;" horiz-adv-x="355" 
d="M33 823h108q18 -103 32.5 -183t26.5 -145.5t22.5 -121t21.5 -109.5q-2 76 -2 151v150v258h79v-823h-90l-121 552q2 -81 2 -160.5v-160.5v-244q0 -69 -28 -100t-89 -31q-10 0 -19 1t-17 3v83q8 -2 17 -2.5t15 -0.5q23 0 32.5 10.5t9.5 36.5v836z" />
    <glyph glyph-name="uni01A0" unicode="&#x1a0;" horiz-adv-x="360" 
d="M156 832q26 0 43 -4.5t39 -4.5q23 0 32.5 9t9.5 35v63h80v-58q0 -50 -21 -75.5t-63 -31.5q11 -18 14 -41.5t3 -51.5v-541q0 -140 -132 -140t-132 140v561q0 70 33.5 105t93.5 35zM200 692q0 47 -39 47t-39 -47v-561q0 -48 39 -48t39 48v561z" />
    <glyph glyph-name="uni01A1" unicode="&#x1a1;" horiz-adv-x="342" 
d="M140 629q26 0 41.5 -5t38.5 -5t33 9.5t10 34.5v63h79v-53q0 -54 -22 -81t-69 -32q7 -15 8.5 -33.5t1.5 -38.5v-374q0 -60 -28 -91.5t-88 -31.5t-88 31.5t-28 91.5v391q0 60 28.5 92t82.5 32zM179 493q0 23 -7 36t-27 13t-27 -13t-7 -36v-368q0 -23 7 -36t27 -13
q34 0 34 41v376z" />
    <glyph glyph-name="uni01AF" unicode="&#x1af;" horiz-adv-x="416" 
d="M203 823h92q22 0 31.5 10t9.5 34v63h80v-58q0 -58 -30 -84t-91 -26v-631q0 -140 -131 -140q-132 0 -132 140v692h93v-692q0 -48 39 -48t39 48v692z" />
    <glyph glyph-name="uni01B0" unicode="&#x1b0;" horiz-adv-x="386" 
d="M194 0q-1 9 -1.5 18.5t-0.5 20.5q-29 -45 -80 -45q-39 0 -59.5 27t-20.5 78v520h84v-506q0 -37 28 -37q26 0 38 23v520h83q23 0 32.5 10t9.5 34v64h79v-59q0 -58 -29.5 -83.5t-91.5 -25.5v-559h-71z" />
    <glyph glyph-name="uni01DD" unicode="&#x1dd;" horiz-adv-x="280" 
d="M107 118q0 -40 34 -40q32 0 32 40v144h-66v-144zM107 368h-78v136q0 125 112 125q109 0 109 -125v-386q0 -127 -109 -127q-112 0 -112 127v204h144v182q0 40 -32 40q-34 0 -34 -41v-135z" />
    <glyph glyph-name="uni01DD" unicode="&#x4d9;" horiz-adv-x="280" 
d="M107 118q0 -40 34 -40q32 0 32 40v144h-66v-144zM107 368h-78v136q0 125 112 125q109 0 109 -125v-386q0 -127 -109 -127q-112 0 -112 127v204h144v182q0 40 -32 40q-34 0 -34 -41v-135z" />
    <glyph glyph-name="uni01E6" unicode="&#x1e6;" horiz-adv-x="323" 
d="M13 0zM284 -5l-30 39q-14 -23 -41 -33t-58 -10q-27 0 -49.5 7t-39.5 23.5t-26.5 43.5t-9.5 66v560q0 69 33 105t99 36q67 0 97 -36t30 -105v-145h-83v146q0 47 -44 47q-40 0 -40 -47v-561q0 -25 11 -36.5t28 -11.5q42 0 45 42v177h-49v88h138v-395h-11zM110 860l-97 161
h81l68 -116l71 116h77l-102 -161h-98z" />
    <glyph glyph-name="uni01E7" unicode="&#x1e7;" horiz-adv-x="304" 
d="M1 0zM188 58q-24 -29 -69 -29q-46 0 -67.5 26.5t-21.5 86.5v366q0 60 22.5 88.5t64.5 28.5q29 0 47.5 -11.5t30.5 -34.5q0 22 3 40h70v-651q0 -57 -27.5 -87t-87.5 -30q-65 0 -90 30.5t-25 86.5v25h75v-29q0 -40 38 -40q37 0 37 40v94zM188 508q-12 27 -41 27
q-35 0 -35 -36v-353q0 -37 35 -37q27 0 41 27v372zM98 656l-97 161h81l68 -116l71 116h77l-102 -161h-98z" />
    <glyph glyph-name="uni01F4" unicode="&#x1f4;" horiz-adv-x="323" 
d="M30 0zM284 -5l-30 39q-14 -23 -41 -33t-58 -10q-27 0 -49.5 7t-39.5 23.5t-26.5 43.5t-9.5 66v560q0 69 33 105t99 36q67 0 97 -36t30 -105v-145h-83v146q0 47 -44 47q-40 0 -40 -47v-561q0 -25 11 -36.5t28 -11.5q42 0 45 42v177h-49v88h138v-395h-11zM89 860l110 161
h107l-137 -161h-80z" />
    <glyph glyph-name="uni01F5" unicode="&#x1f5;" horiz-adv-x="304" 
d="M30 0zM188 58q-24 -29 -69 -29q-46 0 -67.5 26.5t-21.5 86.5v366q0 60 22.5 88.5t64.5 28.5q29 0 47.5 -11.5t30.5 -34.5q0 22 3 40h70v-651q0 -57 -27.5 -87t-87.5 -30q-65 0 -90 30.5t-25 86.5v25h75v-29q0 -40 38 -40q37 0 37 40v94zM188 508q-12 27 -41 27
q-35 0 -35 -36v-353q0 -37 35 -37q27 0 41 27v372zM65 656l110 161h107l-137 -161h-80z" />
    <glyph glyph-name="uni01F8" unicode="&#x1f8;" horiz-adv-x="355" 
d="M33 0zM231 0q-23 106 -41 187t-32.5 145.5t-26 117t-21.5 102.5q2 -85 2 -169.5v-169.5v-213h-79v823h108q20 -114 35.5 -198t27.5 -148t21.5 -114.5t18.5 -98.5q-2 72 -2 141v138v280h79v-823h-90zM172 860l-137 161h106l111 -161h-80z" />
    <glyph glyph-name="uni01F9" unicode="&#x1f9;" horiz-adv-x="303" 
d="M10 0zM187 0v510q0 37 -30 37q-11 0 -21.5 -5.5t-16.5 -18.5v-523h-83v619h70q3 -18 3 -40q30 50 83 50q79 0 79 -114v-515h-84zM147 656l-137 161h106l111 -161h-80z" />
    <glyph glyph-name="dotlessj" unicode="&#x237;" horiz-adv-x="172" 
d="M-24 -57q13 -4 37 -4q37 0 37 48v632h84v-632q0 -69 -30.5 -100t-90.5 -31q-24 0 -37 4v83z" />
    <glyph glyph-name="uni0241" unicode="&#x241;" horiz-adv-x="300" 
d="M92 0v298q0 34 3.5 57.5t10 41.5t16 32t21.5 30q14 18 23 31t14 27t6.5 33t1.5 49v92q0 48 -38 48q-39 0 -39 -48v-145h-89v144q0 72 30.5 107t98.5 35q66 0 97 -34t31 -109v-91q0 -33 -3 -57t-9.5 -42.5t-16 -34.5t-21.5 -32q-11 -15 -19.5 -25.5t-14.5 -24t-9 -32.5
t-3 -50v-300h-91z" />
    <glyph glyph-name="uni0242" unicode="&#x242;" horiz-adv-x="295" 
d="M90 0v133q0 36 3 59.5t9 41t15 31.5t21 30q13 18 21.5 31.5t13 28t6.5 33t2 47.5v53q0 48 -38 48t-38 -48v-107h-81v106q0 72 27 107t93 35q63 0 93.5 -34t30.5 -109v-52q0 -36 -3.5 -60.5t-9.5 -43t-15 -33t-20 -29.5q-12 -17 -21 -30.5t-14.5 -28t-8.5 -32t-3 -42.5
v-135h-83z" />
    <glyph glyph-name="uni024C" unicode="&#x24c;" horiz-adv-x="382" 
d="M264 -2q-11 94 -22 185t-26 185h-38v-370h-93v370h-85v84h85v369h128q72 0 108.5 -33.5t36.5 -114.5v-167q0 -48 -13 -75.5t-41 -43.5q18 -100 32.5 -196t28.5 -193h-101zM264 654q0 38 -9 56t-42 18h-35v-276h36q50 0 50 53v149z" />
    <glyph glyph-name="uni024D" unicode="&#x24d;" horiz-adv-x="228" 
d="M57 0v277h-58v72h58v270h70q3 -18 3 -38q22 45 68 45q11 0 19 -4v-93q-6 4 -14.5 5.5t-17.5 1.5q-13 0 -25.5 -5.5t-19.5 -21.5v-160h70v-72h-70v-277h-83z" />
    <glyph glyph-name="uni0263" unicode="&#x263;" horiz-adv-x="278" 
d="M139 -149q-47 0 -63.5 23.5t-16.5 71.5q0 20 2 35t5 30l39 199l-96 409h84l47 -234l46 234h81l-93 -405l41 -203q3 -15 4.5 -33t1.5 -33q0 -45 -16.5 -69.5t-65.5 -24.5zM140 65l-16 -69q-3 -14 -5 -31t-2 -31q0 -17 4.5 -27t18.5 -10t19 10t5 31q0 12 -1.5 26t-6.5 32z
" />
    <glyph glyph-name="uni0272" unicode="&#x272;" horiz-adv-x="303" 
d="M119 -2q0 -69 -31 -105.5t-92 -36.5q-9 0 -18 1t-17 3v83q6 -2 17 -3t16 -1q23 0 32 17.5t9 41.5v621h71q3 -20 3 -40q30 50 83 50q78 0 78 -114v-515h-83v509q0 38 -30 38q-26 0 -38 -24v-525z" />
    <glyph glyph-name="circumflex" unicode="&#x2c6;" horiz-adv-x="387" 
d="M261 656l-68 116l-71 -116h-77l102 161h98l97 -161h-81z" />
    <glyph glyph-name="caron" unicode="&#x2c7;" horiz-adv-x="387" 
d="M142 656l-97 161h81l68 -116l71 116h77l-102 -161h-98z" />
    <glyph glyph-name="breve" unicode="&#x2d8;" horiz-adv-x="342" 
d="M308 811q0 -45 -8 -74t-24.5 -46.5t-42 -24t-59.5 -6.5q-39 0 -65.5 6.5t-42.5 24t-23 46.5t-7 74h75q0 -34 4.5 -54.5t13 -31t19.5 -14t24 -3.5q12 0 23 3.5t19.5 14t13 31t4.5 54.5h76z" />
    <glyph glyph-name="dotaccent" unicode="&#x2d9;" horiz-adv-x="155" 
d="M36 668v125h83v-125h-83z" />
    <glyph glyph-name="ring" unicode="&#x2da;" horiz-adv-x="267" 
d="M232 737q0 -34 -24 -56t-75 -22q-49 0 -73 22t-24 56q0 35 24 57.5t73 22.5q51 0 75 -22.5t24 -57.5zM188 737q0 22 -13 33t-42 11q-56 0 -56 -44q0 -42 56 -42q29 0 42 10.5t13 31.5z" />
    <glyph glyph-name="ogonek" unicode="&#x2db;" horiz-adv-x="269" 
d="M235 -49q0 -48 -24.5 -74t-88.5 -26q-37 0 -61.5 17.5t-24.5 51.5q0 32 27.5 53.5t78.5 26.5h65q-60 -8 -86.5 -24.5t-26.5 -39.5q0 -9 7 -18t25 -9q23 0 31 12.5t8 29.5v11h70v-11z" />
    <glyph glyph-name="tilde" unicode="&#x2dc;" horiz-adv-x="315" 
d="M279 707q-11 -11 -26.5 -18t-35.5 -7q-18 0 -33.5 5t-30.5 11t-30 11t-31 5q-18 0 -31.5 -7.5t-24.5 -21.5h-1v71q9 11 24 18.5t38 7.5q18 0 33.5 -5t30 -10.5t29.5 -10.5t32 -5q18 0 32.5 7.5t23.5 20.5h1v-72z" />
    <glyph glyph-name="hungarumlaut" unicode="&#x2dd;" horiz-adv-x="454" 
d="M201 656l110 161h108l-138 -161h-80zM36 656l110 161h107l-137 -161h-80z" />
    <glyph glyph-name="gravecomb" unicode="&#x300;" horiz-adv-x="0" 
d="M-79 656zM-159 656l-137 161h106l111 -161h-80z" />
    <glyph glyph-name="acutecomb" unicode="&#x301;" horiz-adv-x="0" 
d="M-19 656zM-236 656l110 161h107l-137 -161h-80z" />
    <glyph glyph-name="uni0302" unicode="&#x302;" horiz-adv-x="0" 
d="M-4 656zM-85 656l-68 116l-71 -116h-77l102 161h98l97 -161h-81z" />
    <glyph glyph-name="tildecomb" unicode="&#x303;" horiz-adv-x="0" 
d="M-30 682zM-30 707q-11 -11 -26.5 -18t-35.5 -7q-18 0 -33.5 5t-30.5 11t-30 11t-31 5q-18 0 -31.5 -7.5t-24.5 -21.5h-1v71q9 11 24 18.5t38 7.5q18 0 33.5 -5t30 -10.5t29.5 -10.5t32 -5q18 0 32.5 7.5t23.5 20.5h1v-72z" />
    <glyph glyph-name="uni0304" unicode="&#x304;" horiz-adv-x="0" 
d="M-34 694zM-268 694v72h234v-72h-234z" />
    <glyph glyph-name="uni0306" unicode="&#x306;" horiz-adv-x="0" 
d="M-17 660zM-17 811q0 -45 -8 -74t-24.5 -46.5t-42 -24t-59.5 -6.5q-39 0 -65.5 6.5t-42.5 24t-23 46.5t-7 74h75q0 -34 4.5 -54.5t13 -31t19.5 -14t24 -3.5q12 0 23 3.5t19.5 14t13 31t4.5 54.5h76z" />
    <glyph glyph-name="uni0307" unicode="&#x307;" horiz-adv-x="0" 
d="M-115 668zM-198 668v125h83v-125h-83z" />
    <glyph glyph-name="uni0308" unicode="&#x308;" horiz-adv-x="0" 
d="M-40 668zM-124 668v125h84v-125h-84zM-276 668v125h83v-125h-83z" />
    <glyph glyph-name="hookabovecomb" unicode="&#x309;" horiz-adv-x="0" 
d="M-184 661v11q0 26 9.5 37t20.5 19q13 8 19.5 14.5t6.5 19.5v6q0 14 -19 14q-21 0 -21 -13v-12h-58v14q0 23 18.5 34.5t59.5 11.5q80 0 80 -46v-9q0 -24 -7 -33.5t-26 -20.5q-11 -6 -16.5 -10t-8 -7.5t-3 -7.5t-0.5 -11v-11h-55z" />
    <glyph glyph-name="uni030A" unicode="&#x30a;" horiz-adv-x="0" 
d="M-54 659zM-54 737q0 -34 -24 -56t-75 -22q-49 0 -73 22t-24 56q0 35 24 57.5t73 22.5q51 0 75 -22.5t24 -57.5zM-98 737q0 22 -13 33t-42 11q-56 0 -56 -44q0 -42 56 -42q29 0 42 10.5t13 31.5z" />
    <glyph glyph-name="uni030B" unicode="&#x30b;" horiz-adv-x="0" 
d="M0 656zM-156 656l110 161h108l-138 -161h-80zM-321 656l110 161h107l-137 -161h-80z" />
    <glyph glyph-name="uni030C" unicode="&#x30c;" horiz-adv-x="0" 
d="M-4 656zM-204 656l-97 161h81l68 -116l71 116h77l-102 -161h-98z" />
    <glyph glyph-name="uni0313" unicode="&#x313;" horiz-adv-x="0" 
d="M-195 663v83q0 27 15 49t51 22h10v-43h-11q-18 0 -18 -20v-7h40v-84h-87z" />
    <glyph glyph-name="uni031B" unicode="&#x31b;" horiz-adv-x="56" 
d="M-95 622q15 -3 32 -3q23 0 31.5 9.5t8.5 35.5v62h79v-58q0 -60 -29.5 -85t-86.5 -25q-22 0 -35 3v61z" />
    <glyph glyph-name="dotbelowcomb" unicode="&#x323;" horiz-adv-x="0" 
d="M-193 -149v102h84v-102h-84z" />
    <glyph glyph-name="uni0326" unicode="&#x326;" horiz-adv-x="0" 
d="M-121 -20zM-182 -149v28h14q11 0 11 12v17h-33v72h69v-88q0 -19 -10.5 -30t-33.5 -11h-17z" />
    <glyph glyph-name="uni0328" unicode="&#x328;" horiz-adv-x="0" 
d="M-52 0zM-52 -49q0 -48 -24.5 -74t-88.5 -26q-37 0 -61.5 17.5t-24.5 51.5q0 32 27.5 53.5t78.5 26.5h65q-60 -8 -86.5 -24.5t-26.5 -39.5q0 -9 7 -18t25 -9q23 0 31 12.5t8 29.5v11h70v-11z" />
    <glyph glyph-name="uni032D" unicode="&#x32d;" horiz-adv-x="0" 
d="M-94 -149l-57 90l-61 -90h-68l88 124h87l83 -124h-72z" />
    <glyph glyph-name="tonos" unicode="&#x384;" horiz-adv-x="96" 
d="M11 657v200h76l-16 -200h-60z" />
    <glyph glyph-name="dieresistonos" unicode="&#x385;" horiz-adv-x="311" 
d="M5 657zM123 657v200h76l-16 -200h-60zM222 668v125h83v-125h-83zM5 668v125h83v-125h-83z" />
    <glyph glyph-name="Alphatonos" unicode="&#x386;" horiz-adv-x="368" 
d="M10 0zM262 0l-15 127h-101q-5 -32 -8.5 -63.5t-7.5 -63.5h-90l107 823h107l101 -823h-93zM237 212q-11 94 -21 185.5t-19 188.5q-18 -194 -42 -374h82zM10 657v200h76l-16 -200h-60z" />
    <glyph glyph-name="anoteleia" unicode="&#x387;" horiz-adv-x="145" 
d="M30 494zM30 494v125h86v-125h-86z" />
    <glyph glyph-name="Epsilontonos" unicode="&#x388;" horiz-adv-x="377" 
d="M10 0zM132 0v823h222v-93h-130v-264h87v-93h-87v-281h135v-92h-227zM10 657v200h76l-16 -200h-60z" />
    <glyph glyph-name="Etatonos" unicode="&#x389;" horiz-adv-x="430" 
d="M10 0zM302 0v373h-78v-373h-92v823h92v-358h78v358h92v-823h-92zM10 657v200h76l-16 -200h-60z" />
    <glyph glyph-name="Iotatonos" unicode="&#x38a;" horiz-adv-x="264" 
d="M10 0zM134 0v823h92v-823h-92zM10 657v200h76l-16 -200h-60z" />
    <glyph glyph-name="Omicrontonos" unicode="&#x38c;" horiz-adv-x="399" 
d="M10 0zM106 692q0 140 131 140q132 0 132 -140v-561q0 -140 -132 -140q-131 0 -131 140v561zM277 692q0 47 -40 47q-39 0 -39 -47v-561q0 -48 39 -48q40 0 40 48v561zM10 657v200h76l-16 -200h-60z" />
    <glyph glyph-name="Upsilontonos" unicode="&#x38e;" horiz-adv-x="430" 
d="M10 0zM214 0v360l-110 463h97q9 -51 19.5 -103t19.5 -96.5t16 -78t9 -47.5q2 14 9.5 47.5t17 78.5t20.5 96.5t20 102.5h90l-114 -463v-360h-94zM10 657v200h76l-16 -200h-60z" />
    <glyph glyph-name="Omegatonos" unicode="&#x38f;" horiz-adv-x="399" 
d="M10 0zM237 739q-23 0 -34 -12t-11 -41v-403q0 -73 8.5 -122t22.5 -78v-83h-126v92h59q-23 24 -37 73.5t-14 117.5v402q0 78 31 112.5t102 34.5t101.5 -34.5t30.5 -112.5v-402q0 -68 -14 -117.5t-37 -73.5h59v-92h-126v83q14 29 22 78t8 122v403q0 29 -11 41t-34 12z
M10 657v200h76l-16 -200h-60z" />
    <glyph glyph-name="iotadieresistonos" unicode="&#x390;" horiz-adv-x="301" 
d="M4 0zM244 3q-10 -5 -23.5 -6.5t-24.5 -1.5q-48 0 -69 27.5t-21 75.5v521h84v-502q0 -23 5 -38t25 -15q6 0 12.5 1.5t11.5 4.5v-67zM118 657v200h76l-16 -200h-60zM214 668v125h83v-125h-83zM4 668v125h83v-125h-83z" />
    <glyph glyph-name="uni0413" unicode="&#x393;" horiz-adv-x="272" 
d="M262 823v-93h-134v-730h-93v823h227z" />
    <glyph glyph-name="uni0413" unicode="&#x413;" horiz-adv-x="272" 
d="M262 823v-93h-134v-730h-93v823h227z" />
    <glyph glyph-name="Delta" unicode="&#x394;" horiz-adv-x="339" 
d="M10 0l101 823h123l94 -823h-318zM223 92q-11 107 -19 189.5t-14 149.5t-11 122t-9 108q-5 -53 -10.5 -108t-12 -121.5t-15.5 -149t-21 -190.5h112z" />
    <glyph glyph-name="Theta" unicode="&#x398;" horiz-adv-x="322" 
d="M126 464h71v-92h-71v92zM30 692q0 140 131 140q132 0 132 -140v-561q0 -140 -132 -140q-131 0 -131 140v561zM203 692q0 47 -42 47q-41 0 -41 -47v-561q0 -48 41 -48q42 0 42 48v561z" />
    <glyph glyph-name="Lambda" unicode="&#x39b;" horiz-adv-x="340" 
d="M235 823l94 -823h-96q-9 102 -19.5 208t-19.5 197.5t-15.5 160t-7.5 97.5q-2 -29 -9 -97.5t-17 -160t-21 -197t-21 -208.5h-92l101 823h123z" />
    <glyph glyph-name="Xi" unicode="&#x39e;" horiz-adv-x="281" 
d="M18 0v92h244v-92h-244zM23 730v93h234v-93h-234zM65 373v92h150v-92h-150z" />
    <glyph glyph-name="uni041F" unicode="&#x3a0;" horiz-adv-x="333" 
d="M206 0v730h-78v-730h-93v823h263v-823h-92z" />
    <glyph glyph-name="uni041F" unicode="&#x41f;" horiz-adv-x="333" 
d="M206 0v730h-78v-730h-93v823h263v-823h-92z" />
    <glyph glyph-name="Sigma" unicode="&#x3a3;" horiz-adv-x="286" 
d="M104 92h163v-92h-253v84l120 351l-107 304v84h235v-93h-145l104 -297z" />
    <glyph glyph-name="uni0424" unicode="&#x3a6;" horiz-adv-x="406" 
d="M108 241q0 -28 12 -42t40 -18v460q-28 -4 -40 -18.5t-12 -42.5v-339zM246 181q27 4 39 18t12 42v339q0 28 -11.5 42.5t-39.5 18.5v-460zM27 574q0 37 5 64.5t19.5 46.5t39.5 30t66 15v93h91v-93q40 -4 65.5 -15t40 -30t19.5 -46.5t5 -64.5v-326q0 -37 -5 -64.5
t-19.5 -46.5t-40 -30t-65.5 -15v-92h-91v92q-41 4 -66 15t-39.5 30t-19.5 46.5t-5 64.5v326z" />
    <glyph glyph-name="uni0424" unicode="&#x424;" horiz-adv-x="406" 
d="M108 241q0 -28 12 -42t40 -18v460q-28 -4 -40 -18.5t-12 -42.5v-339zM246 181q27 4 39 18t12 42v339q0 28 -11.5 42.5t-39.5 18.5v-460zM27 574q0 37 5 64.5t19.5 46.5t39.5 30t66 15v93h91v-93q40 -4 65.5 -15t40 -30t19.5 -46.5t5 -64.5v-326q0 -37 -5 -64.5
t-19.5 -46.5t-40 -30t-65.5 -15v-92h-91v92q-41 4 -66 15t-39.5 30t-19.5 46.5t-5 64.5v326z" />
    <glyph glyph-name="Psi" unicode="&#x3a8;" horiz-adv-x="406" 
d="M27 823h81v-472q0 -53 52 -60v532h86v-532q27 4 39 18t12 42v472h81v-465q0 -37 -5 -64.5t-19.5 -46.5t-40 -30t-65.5 -15v-202h-91v202q-41 4 -66 15t-39.5 30t-19.5 46.5t-5 64.5v465z" />
    <glyph glyph-name="Omega" unicode="&#x3a9;" horiz-adv-x="321" 
d="M160 739q-23 0 -34 -12t-11 -41v-403q0 -73 8.5 -122t22.5 -78v-83h-126v92h59q-23 24 -37 73.5t-14 117.5v402q0 78 31 112.5t102 34.5t101.5 -34.5t30.5 -112.5v-402q0 -68 -14 -117.5t-37 -73.5h59v-92h-126v83q14 29 22 78t8 122v403q0 29 -11 41t-34 12z" />
    <glyph glyph-name="alphatonos" unicode="&#x3ac;" horiz-adv-x="334" 
d="M29 0zM29 508q0 59 23 87.5t66 28.5q30 0 49 -13t27 -33q0 20 3 41h71v-502q0 -23 5 -38t25 -15q14 0 25 6v-67q-11 -5 -24.5 -6.5t-24.5 -1.5q-32 0 -49 13t-25 36q-14 -20 -35.5 -35t-50.5 -15q-38 0 -61.5 29t-23.5 87v398zM184 510q-11 27 -39 27q-32 0 -32 -39v-376
q0 -39 31 -39q15 0 25 7.5t15 19.5v400zM117 657v200h76l-16 -200h-60z" />
    <glyph glyph-name="epsilontonos" unicode="&#x3ad;" horiz-adv-x="289" 
d="M31 0zM113 657v200h76l-16 -200h-60zM114 109q0 -22 8.5 -35t28.5 -13t26 13t6 35v127h78v-137q0 -50 -28 -79t-87 -29q-60 0 -87.5 29t-27.5 78v149q0 29 13 45.5t36 22.5q-25 10 -35.5 25t-10.5 41v138q0 57 26 83.5t86 26.5t86.5 -26.5t26.5 -84.5v-119h-76v104
q0 18 -8 28.5t-25 10.5q-34 0 -34 -38v-108q0 -22 6.5 -32t26.5 -10h63v-71h-61q-37 0 -37 -32v-142z" />
    <glyph glyph-name="etatonos" unicode="&#x3ae;" horiz-adv-x="303" 
d="M35 0zM187 -139v649q0 37 -29 37q-12 0 -22.5 -6t-16.5 -18v-523h-84v619h71q3 -20 3 -40q30 50 83 50q78 0 78 -114v-654h-83zM120 657v200h76l-16 -200h-60z" />
    <glyph glyph-name="iotatonos" unicode="&#x3af;" horiz-adv-x="187" 
d="M37 0zM175 3q-10 -5 -23.5 -6.5t-24.5 -1.5q-48 0 -69 27.5t-21 75.5v521h84v-502q0 -23 5 -38t25 -15q6 0 12.5 1.5t11.5 4.5v-67zM50 657v200h76l-16 -200h-60z" />
    <glyph glyph-name="upsilondieresistonos" unicode="&#x3b0;" horiz-adv-x="325" 
d="M16 0zM130 657v200h76l-16 -200h-60zM275 114q0 -60 -28 -91.5t-88 -31.5q-59 0 -87.5 31.5t-28.5 91.5v505h82v-502q0 -41 34 -41q35 0 35 41v502h81v-505zM226 668v125h83v-125h-83zM16 668v125h83v-125h-83z" />
    <glyph glyph-name="alpha" unicode="&#x3b1;" horiz-adv-x="334" 
d="M29 508q0 59 23 87.5t66 28.5q30 0 49 -13t27 -33q0 20 3 41h71v-502q0 -23 5 -38t25 -15q14 0 25 6v-67q-11 -5 -24.5 -6.5t-24.5 -1.5q-32 0 -49 13t-25 36q-14 -20 -35.5 -35t-50.5 -15q-38 0 -61.5 29t-23.5 87v398zM184 510q-11 27 -39 27q-32 0 -32 -39v-376
q0 -39 31 -39q15 0 25 7.5t15 19.5v400z" />
    <glyph glyph-name="beta" unicode="&#x3b2;" horiz-adv-x="305" 
d="M177 -9q-17 0 -31 2.5t-27 7.5v-140h-84v848q0 60 28 91.5t88 31.5t87.5 -31.5t27.5 -91.5v-204q0 -25 -9.5 -42.5t-22.5 -23.5q17 -9 28 -29.5t11 -65.5v-226q0 -69 -22.5 -98t-73.5 -29zM119 86q16 -11 37 -11q17 0 25.5 9.5t8.5 33.5v221q0 25 -6.5 37t-23.5 12h-15
v81h14q13 0 20.5 8t7.5 28v194q0 18 -6 32.5t-28 14.5t-28 -14.5t-6 -32.5v-613z" />
    <glyph glyph-name="uni04AF" unicode="&#x3b3;" horiz-adv-x="278" 
d="M179 -139h-84v174l-86 584h84l44 -383l50 383h80l-88 -584v-174z" />
    <glyph glyph-name="uni04AF" unicode="&#x4af;" horiz-adv-x="278" 
d="M179 -139h-84v174l-86 584h84l44 -383l50 383h80l-88 -584v-174z" />
    <glyph glyph-name="delta" unicode="&#x3b4;" horiz-adv-x="294" 
d="M171 747q37 -32 64 -80t27 -112v-441q0 -60 -28.5 -91.5t-87.5 -31.5t-88 31.5t-29 91.5v391q0 64 24.5 94t69.5 30q14 0 27 -2.5t25 -7.5q-7 24 -20.5 45t-31.5 37.5t-37.5 28t-38.5 17.5v76h212v-76h-88zM146 76q34 0 34 41v423q-16 10 -34 10q-35 0 -35 -41v-392
q0 -41 35 -41z" />
    <glyph glyph-name="epsilon" unicode="&#x3b5;" horiz-adv-x="289" 
d="M114 109q0 -22 8.5 -35t28.5 -13t26 13t6 35v127h78v-137q0 -50 -28 -79t-87 -29q-60 0 -87.5 29t-27.5 78v149q0 29 13 45.5t36 22.5q-25 10 -35.5 25t-10.5 41v138q0 57 26 83.5t86 26.5t86.5 -26.5t26.5 -84.5v-119h-76v104q0 18 -8 28.5t-25 10.5q-34 0 -34 -38v-108
q0 -22 6.5 -32t26.5 -10h63v-71h-61q-37 0 -37 -32v-142z" />
    <glyph glyph-name="zeta" unicode="&#x3b6;" horiz-adv-x="259" 
d="M110 193q0 -31 4 -45.5t12 -23.5q15 -19 41.5 -36t44.5 -34q13 -12 22.5 -31.5t9.5 -59.5q0 -60 -24.5 -86t-69.5 -26h-84v87h75q14 0 21 5.5t7 19.5q0 22 -18 38q-7 7 -18.5 15t-24.5 18t-26 21t-24 24q-8 9 -13.5 19t-9.5 23.5t-5.5 32t-1.5 45.5v39q0 27 1.5 48.5
t5 41.5t9.5 42t15 50l107 326h-133v77h209v-78l-106 -337q-8 -26 -13 -45.5t-8 -38.5t-4 -39t-1 -47v-45z" />
    <glyph glyph-name="eta" unicode="&#x3b7;" horiz-adv-x="303" 
d="M187 -139v649q0 37 -29 37q-12 0 -22.5 -6t-16.5 -18v-523h-84v619h71q3 -20 3 -40q30 50 83 50q78 0 78 -114v-654h-83z" />
    <glyph glyph-name="theta" unicode="&#x3b8;" horiz-adv-x="291" 
d="M29 708q0 60 28.5 92t87.5 32q60 0 88 -32t28 -92v-594q0 -60 -28 -91.5t-88 -31.5q-59 0 -87.5 31.5t-28.5 91.5v594zM180 378h-69v-261q0 -41 34 -41q35 0 35 41v261zM111 463h69v241q0 42 -35 42q-34 0 -34 -42v-241z" />
    <glyph glyph-name="iota" unicode="&#x3b9;" horiz-adv-x="187" 
d="M175 3q-10 -5 -23.5 -6.5t-24.5 -1.5q-48 0 -69 27.5t-21 75.5v521h84v-502q0 -23 5 -38t25 -15q6 0 12.5 1.5t11.5 4.5v-67z" />
    <glyph glyph-name="uni043A" unicode="&#x3ba;" horiz-adv-x="299" 
d="M203 0q-24 86 -38.5 138.5t-23.5 85t-14.5 51.5t-10.5 39v-38.5t0.5 -38t0.5 -41v-48.5v-148h-82v619h82v-120v-42t-0.5 -35.5t-0.5 -32.5v-33q16 51 38.5 118t50.5 145h86l-98 -270l101 -349h-91z" />
    <glyph glyph-name="uni043A" unicode="&#x43a;" horiz-adv-x="299" 
d="M203 0q-24 86 -38.5 138.5t-23.5 85t-14.5 51.5t-10.5 39v-38.5t0.5 -38t0.5 -41v-48.5v-148h-82v619h82v-120v-42t-0.5 -35.5t-0.5 -32.5v-33q16 51 38.5 118t50.5 145h86l-98 -270l101 -349h-91z" />
    <glyph glyph-name="lambda" unicode="&#x3bb;" horiz-adv-x="278" 
d="M10 823q17 5 40 5q32 0 53.5 -10.5t35.5 -31t22 -50t13 -66.5l93 -670h-83l-45 410l-49 -410h-81l87 607l-11 78q-4 28 -13.5 43.5t-36.5 15.5q-8 0 -13 -1t-12 -3v83z" />
    <glyph glyph-name="mu" unicode="&#x3bc;" horiz-adv-x="335" 
d="M35 -139v758h84v-498q0 -21 5.5 -33t25.5 -12q11 0 19.5 4.5t15.5 18.5v520h83v-502q0 -23 5 -38t25 -15q14 0 25 6v-67q-10 -5 -24 -6.5t-24 -1.5q-56 0 -76 42q-8 -12 -18.5 -19.5t-20.5 -11.5t-18.5 -5t-14.5 -1q-2 0 -4.5 0.5t-4.5 0.5v-140h-83z" />
    <glyph glyph-name="xi" unicode="&#x3be;" horiz-adv-x="257" 
d="M31 553q0 64 26 113t64 80h-88v77h207v-77q-25 -8 -48 -24.5t-40.5 -40t-28 -53.5t-10.5 -65v-69q0 -21 11 -26.5t30 -5.5h58v-71h-58q-23 0 -33.5 -6t-10.5 -26v-170q0 -26 3 -41t13 -26q14 -16 39 -32t43 -32q16 -14 26 -34t10 -59q0 -62 -26 -88t-68 -26h-84v87h75
q15 0 21.5 5.5t6.5 19.5t-5.5 22.5t-14.5 16.5q-14 12 -41.5 30t-48.5 41q-17 18 -24 39t-7 60v183q0 29 13 45t36 23q-25 10 -35.5 25t-10.5 41v64z" />
    <glyph glyph-name="pi" unicode="&#x3c0;" horiz-adv-x="353" 
d="M341 3q-11 -5 -24.5 -6.5t-24.5 -1.5q-48 0 -69 28t-21 76v447h-68v-546h-84v546h-39v73h323v-73h-48v-428q0 -26 5 -40t25 -14q14 0 25 6v-67z" />
    <glyph glyph-name="rho" unicode="&#x3c1;" horiz-adv-x="301" 
d="M187 493q0 24 -7.5 36.5t-28.5 12.5q-35 0 -35 -41v-400q10 -26 39 -26q32 0 32 37v381zM271 104q0 -62 -23 -87.5t-65 -25.5q-45 0 -67 27v-157h-84v644q0 60 29.5 92t89.5 32q61 0 90.5 -32t29.5 -92v-401z" />
    <glyph glyph-name="sigma1" unicode="&#x3c2;" horiz-adv-x="278" 
d="M178 503q0 18 -8.5 28.5t-25.5 10.5q-33 0 -33 -39v-330q0 -33 16 -50q12 -14 37 -30t45 -34q15 -14 25.5 -34t10.5 -61q0 -62 -25.5 -87.5t-68.5 -25.5h-84v87h75q14 0 21 5.5t7 19.5t-5.5 23t-14.5 17q-8 7 -19.5 15t-24.5 17t-25 18.5t-20 19.5q-13 14 -22.5 37.5
t-9.5 61.5v329q0 57 27.5 92.5t87.5 35.5q59 0 84.5 -35t25.5 -92v-134h-76v135z" />
    <glyph glyph-name="sigma" unicode="&#x3c3;" horiz-adv-x="324" 
d="M29 495q0 60 28 92t88 32h171v-86h-71q5 -7 8 -16.5t3 -23.5v-379q0 -60 -25.5 -91.5t-85.5 -31.5t-88 31.5t-28 91.5v381zM179 483q0 24 -7 36.5t-27 12.5t-27 -12.5t-7 -36.5v-359q0 -23 7 -35.5t27 -12.5q34 0 34 41v366z" />
    <glyph glyph-name="tau" unicode="&#x3c4;" horiz-adv-x="237" 
d="M160 117q0 -23 5 -38t25 -15q6 0 12.5 1.5t11.5 4.5v-67q-10 -5 -23.5 -6.5t-24.5 -1.5q-48 0 -69 27.5t-21 75.5v436h-65v85h214v-85h-65v-417v0z" />
    <glyph glyph-name="upsilon" unicode="&#x3c5;" horiz-adv-x="297" 
d="M264 114q0 -60 -28 -91.5t-88 -31.5q-59 0 -87.5 31.5t-28.5 91.5v505h82v-502q0 -41 34 -41q35 0 35 41v502h81v-505z" />
    <glyph glyph-name="uni0444" unicode="&#x3c6;" horiz-adv-x="403" 
d="M159 -140v132q-130 4 -130 122v391q0 57 32 88.5t98 34.5v195h83v-195q66 -3 97.5 -34.5t31.5 -88.5v-391q0 -118 -129 -122v-132h-83zM109 114q0 -20 14.5 -31t38.5 -11v474q-24 0 -38.5 -10.5t-14.5 -30.5v-391zM291 505q0 20 -14.5 30.5t-37.5 10.5v-474q23 0 37.5 11
t14.5 31v391z" />
    <glyph glyph-name="uni0444" unicode="&#x444;" horiz-adv-x="403" 
d="M159 -140v132q-130 4 -130 122v391q0 57 32 88.5t98 34.5v195h83v-195q66 -3 97.5 -34.5t31.5 -88.5v-391q0 -118 -129 -122v-132h-83zM109 114q0 -20 14.5 -31t38.5 -11v474q-24 0 -38.5 -10.5t-14.5 -30.5v-391zM291 505q0 20 -14.5 30.5t-37.5 10.5v-474q23 0 37.5 11
t14.5 31v391z" />
    <glyph glyph-name="chi" unicode="&#x3c7;" 
d="M194 -139q-8 51 -16.5 102t-16 96.5t-13 81.5t-7.5 56q-2 -20 -7 -56t-12 -81.5t-15.5 -96.5t-17.5 -102h-83l82 405l-70 353h87q6 -38 12 -77t11.5 -74.5t9.5 -66t6 -51.5q2 21 5.5 51.5t9 66t12 74.5t13.5 77h83l-70 -351l83 -407h-86z" />
    <glyph glyph-name="psi" unicode="&#x3c8;" horiz-adv-x="408" 
d="M298 619h80v-505q0 -118 -133 -122v-131h-83v131q-133 5 -133 122v505h80v-505q0 -20 16.5 -31t39.5 -11v547h77v-547q24 0 40 11t16 31v505z" />
    <glyph glyph-name="omega" unicode="&#x3c9;" horiz-adv-x="427" 
d="M253 117q0 -41 31 -41q20 0 25.5 14t5.5 36v375q0 42 -34 42v86q60 0 88 -32t28 -92v-391q0 -123 -103 -123q-32 0 -51 13t-30 34q-11 -21 -30 -34t-51 -13q-51 0 -77 31.5t-26 91.5v391q0 60 28 92t88 32v-86q-34 0 -34 -42v-375q0 -23 5.5 -36.5t25.5 -13.5
q17 0 24 10.5t7 30.5v308h80v-308z" />
    <glyph glyph-name="iotadieresis" unicode="&#x3ca;" horiz-adv-x="252" 
d="M9 0zM223 3q-10 -5 -23.5 -6.5t-24.5 -1.5q-48 0 -69 27.5t-21 75.5v521h84v-502q0 -23 5 -38t25 -15q6 0 12.5 1.5t11.5 4.5v-67zM161 668v125h84v-125h-84zM9 668v125h83v-125h-83z" />
    <glyph glyph-name="upsilondieresis" unicode="&#x3cb;" horiz-adv-x="297" 
d="M31 0zM264 114q0 -60 -28 -91.5t-88 -31.5q-59 0 -87.5 31.5t-28.5 91.5v505h82v-502q0 -41 34 -41q35 0 35 41v502h81v-505zM183 668v125h84v-125h-84zM31 668v125h83v-125h-83z" />
    <glyph glyph-name="omicrontonos" unicode="&#x3cc;" horiz-adv-x="291" 
d="M30 0zM30 505q0 60 28 92t88 32q57 0 86.5 -32t29.5 -92v-391q0 -60 -29.5 -91.5t-86.5 -31.5q-60 0 -88 31.5t-28 91.5v391zM180 502q0 20 -7 30.5t-27 10.5t-27.5 -10.5t-7.5 -30.5v-386q0 -20 7.5 -30t27.5 -10t27 10.5t7 30.5v385zM113 657v200h76l-16 -200h-60z" />
    <glyph glyph-name="upsilontonos" unicode="&#x3cd;" horiz-adv-x="297" 
d="M32 0zM116 657v200h76l-16 -200h-60zM264 114q0 -60 -28 -91.5t-88 -31.5q-59 0 -87.5 31.5t-28.5 91.5v505h82v-502q0 -41 34 -41q35 0 35 41v502h81v-505z" />
    <glyph glyph-name="omegatonos" unicode="&#x3ce;" horiz-adv-x="427" 
d="M29 0zM253 117q0 -41 31 -41q20 0 25.5 14t5.5 36v375q0 42 -34 42v86q60 0 88 -32t28 -92v-391q0 -123 -103 -123q-32 0 -51 13t-30 34q-11 -21 -30 -34t-51 -13q-51 0 -77 31.5t-26 91.5v391q0 60 28 92t88 32v-86q-34 0 -34 -42v-375q0 -23 5.5 -36.5t25.5 -13.5
q17 0 24 10.5t7 30.5v308h80v-308zM182 657v200h76l-16 -200h-60z" />
    <glyph glyph-name="uni0402" unicode="&#x402;" horiz-adv-x="414" 
d="M271 345q0 47 -43 47q-11 0 -19 -2.5t-16 -6.5v-383h-92v730h-91v93h282v-93h-99v-254q8 3 22.5 6t31.5 3q54 0 85 -35t31 -105v-358q0 -70 -33.5 -100.5t-99.5 -30.5q-26 0 -41 4v83q15 -4 40 -4q22 0 32 11t10 37v358z" />
    <glyph glyph-name="uni0403" unicode="&#x403;" horiz-adv-x="272" 
d="M35 0zM71 860l110 161h107l-137 -161h-80zM262 823v-93h-134v-730h-93v823h227z" />
    <glyph glyph-name="uni0404" unicode="&#x404;" horiz-adv-x="310" 
d="M201 290h84v-158q0 -72 -28 -106.5t-94 -34.5q-134 0 -134 139v560q0 142 133 142q123 0 123 -140v-142h-84v142q0 47 -38 47q-39 0 -39 -48v-226h136v-92h-136v-243q0 -47 39 -47q38 0 38 48v159z" />
    <glyph glyph-name="uni0409" unicode="&#x409;" horiz-adv-x="547" 
d="M335 823v-358h39q74 0 108 -35t34 -113v-168q0 -78 -34.5 -113.5t-108.5 -35.5h-131v730h-50l-14 -268q-8 -144 -17 -227.5t-18 -123.5q-14 -62 -43.5 -86.5t-75.5 -24.5h-15v92h12q17 0 28 8t19 38q5 17 9 43.5t8 67t7.5 97.5t7.5 134l17 343h218zM425 300q0 31 -10 53
t-41 22h-39v-283h38q52 0 52 56v152z" />
    <glyph glyph-name="uni040A" unicode="&#x40a;" horiz-adv-x="494" 
d="M299 823v-358h38q74 0 108 -35t34 -113v-168q0 -78 -34 -113.5t-109 -35.5h-130v372h-78v-372h-93v823h93v-358h78v358h93zM388 300q0 31 -10 53t-41 22h-38v-283h37q52 0 52 56v152z" />
    <glyph glyph-name="uni040B" unicode="&#x40b;" horiz-adv-x="414" 
d="M291 823v-93h-98v-255q8 4 23 7t32 3q53 0 84 -35t31 -105v-345h-92v345q0 47 -43 47q-11 0 -19 -2.5t-16 -6.5v-383h-92v730h-92v93h282z" />
    <glyph glyph-name="uni040C" unicode="&#x40c;" horiz-adv-x="351" 
d="M35 0zM242 0q-31 103 -59 200.5t-57 197.5q2 -51 2 -104.5v-120.5v-173h-93v823h93v-170v-101.5t-2 -78.5q28 91 56 176.5t57 173.5h99l-132 -371l142 -452h-106zM110 860l110 161h107l-137 -161h-80z" />
    <glyph glyph-name="uni040D" unicode="&#x40d;" horiz-adv-x="333" 
d="M24 0zM161 860l-137 161h106l111 -161h-80zM35 0v823h84v-519l72 519h107v-823h-85v528l-89 -528h-89z" />
    <glyph glyph-name="uni040E" unicode="&#x40e;" horiz-adv-x="336" 
d="M8 0zM307 1015q0 -45 -8 -74t-24.5 -46.5t-42 -24t-59.5 -6.5q-39 0 -65.5 6.5t-42.5 24t-23 46.5t-7 74h75q0 -34 4.5 -54.5t13 -31t19.5 -14t24 -3.5q12 0 23 3.5t19.5 14t13 31t4.5 54.5h76zM199 132q-8 -41 -19 -66.5t-30.5 -40t-50 -20t-76.5 -5.5h-10v92h10
q19 0 34.5 2t27 8t19 18t11.5 32l20 104l-127 567h101l66 -382l63 382h90z" />
    <glyph glyph-name="uni040F" unicode="&#x40f;" horiz-adv-x="333" 
d="M130 -110v110h-95v823h93v-731h78v731h92v-823h-96v-110h-72z" />
    <glyph glyph-name="uni0411" unicode="&#x411;" horiz-adv-x="323" 
d="M262 823v-93h-134v-265h39q74 0 108 -35t34 -113v-168q0 -78 -34.5 -113.5t-108.5 -35.5h-131v823h227zM218 321q0 54 -51 54h-39v-283h38q52 0 52 56v173z" />
    <glyph glyph-name="uni0414" unicode="&#x414;" horiz-adv-x="388" 
d="M9 -109v201h19q11 0 21.5 9t18.5 37q4 15 8 39t8 62t7.5 94.5t7.5 136.5l18 353h217v-731h44v-201h-72v109h-225v-109h-72zM242 92v638h-50l-15 -272q-5 -83 -10 -145t-10.5 -106.5t-11 -72.5t-11.5 -42h108z" />
    <glyph glyph-name="uni0416" unicode="&#x416;" horiz-adv-x="530" 
d="M2 0l140 453l-130 370h99l108 -351v351h90v-351l110 351h98l-130 -370l140 -453h-105l-113 398v-398h-90v398l-111 -398h-106z" />
    <glyph glyph-name="uni0418" unicode="&#x418;" horiz-adv-x="333" 
d="M35 0v823h84v-519l72 519h107v-823h-85v528l-89 -528h-89z" />
    <glyph glyph-name="uni0419" unicode="&#x419;" horiz-adv-x="333" 
d="M31 0zM303 1015q0 -45 -8 -74t-24.5 -46.5t-42 -24t-59.5 -6.5q-39 0 -65.5 6.5t-42.5 24t-23 46.5t-7 74h75q0 -34 4.5 -54.5t13 -31t19.5 -14t24 -3.5q12 0 23 3.5t19.5 14t13 31t4.5 54.5h76zM35 0v823h84v-519l72 519h107v-823h-85v528l-89 -528h-89z" />
    <glyph glyph-name="uni041B" unicode="&#x41b;" horiz-adv-x="370" 
d="M9 0v92h12q16 0 27 7.5t20 38.5q4 14 8 37t7.5 61t7.5 94.5t8 139.5l18 353h217v-823h-92v730h-50l-15 -276q-5 -83 -9.5 -142.5t-9.5 -101t-10 -67.5t-9 -42q-14 -50 -39.5 -75.5t-75.5 -25.5h-15z" />
    <glyph glyph-name="uni0423" unicode="&#x423;" horiz-adv-x="336" 
d="M199 132q-8 -41 -19 -66.5t-30.5 -40t-50 -20t-76.5 -5.5h-10v92h10q19 0 34.5 2t27 8t19 18t11.5 32l20 104l-127 567h101l66 -382l63 382h90z" />
    <glyph glyph-name="uni0426" unicode="&#x426;" horiz-adv-x="351" 
d="M269 -110v110h-234v823h93v-731h78v731h92v-731h43v-202h-72z" />
    <glyph glyph-name="uni0427" unicode="&#x427;" horiz-adv-x="324" 
d="M195 0v346q-8 -3 -22.5 -6t-31.5 -3q-54 0 -85 35t-31 105v346h93v-343q0 -29 9 -42.5t34 -13.5q11 0 18.5 2.5t15.5 6.5v390h93v-823h-93z" />
    <glyph glyph-name="uni0428" unicode="&#x428;" horiz-adv-x="482" 
d="M37 0v823h93v-731h67v731h87v-731h67v731h93v-823h-407z" />
    <glyph glyph-name="uni0429" unicode="&#x429;" horiz-adv-x="498" 
d="M416 -110v110h-379v823h93v-731h67v731h88v-731h66v731h93v-731h44v-202h-72z" />
    <glyph glyph-name="uni042A" unicode="&#x42a;" horiz-adv-x="389" 
d="M193 823v-358h40q74 0 107.5 -35t33.5 -113v-168q0 -78 -34 -113.5t-108 -35.5h-131v730h-91v93h183zM283 321q0 54 -50 54h-40v-283h39q51 0 51 56v173z" />
    <glyph glyph-name="uni042B" unicode="&#x42b;" horiz-adv-x="491" 
d="M35 0zM361 0v823h92v-823h-92zM128 823v-358h39q74 0 108 -35t34 -113v-168q0 -78 -34.5 -113.5t-108.5 -35.5h-131v823h93zM218 321q0 54 -51 54h-39v-283h38q52 0 52 56v173z" />
    <glyph glyph-name="uni042C" unicode="&#x42c;" horiz-adv-x="323" 
d="M128 823v-358h39q74 0 108 -35t34 -113v-168q0 -78 -34.5 -113.5t-108.5 -35.5h-131v823h93zM218 321q0 54 -51 54h-39v-283h38q52 0 52 56v173z" />
    <glyph glyph-name="uni042D" unicode="&#x42d;" horiz-adv-x="310" 
d="M109 131q0 -48 37 -48q40 0 40 47v243h-137v92h137v226q0 48 -40 48q-37 0 -37 -47v-142h-85v142q0 140 123 140q133 0 133 -142v-560q0 -139 -134 -139q-66 0 -94 34.5t-28 106.5v158h85v-159z" />
    <glyph glyph-name="uni042E" unicode="&#x42e;" horiz-adv-x="491" 
d="M37 0v823h93v-358h67v227q0 140 132 140t132 -140v-561q0 -140 -132 -140t-132 140v242h-67v-373h-93zM368 692q0 47 -39 47t-39 -47v-561q0 -48 39 -48t39 48v561z" />
    <glyph glyph-name="uni042F" unicode="&#x42f;" horiz-adv-x="332" 
d="M16 0l61 389q-28 16 -40.5 43.5t-12.5 75.5v167q0 81 35.5 114.5t109.5 33.5h127v-823h-92v370h-39l-48 -370h-101zM117 526q0 -34 9.5 -53t41.5 -19h36v276h-35q-28 0 -40 -13t-12 -42v-149z" />
    <glyph glyph-name="uni0431" unicode="&#x431;" horiz-adv-x="295" 
d="M32 675q0 44 7 70t20 40.5t31.5 20t41.5 7.5q22 2 35 4t20.5 5.5t10 10t2.5 17.5v10h65v-10q0 -35 -5 -54.5t-15.5 -30.5t-26.5 -15.5t-38 -8.5q-18 -3 -30.5 -7t-20.5 -11t-11.5 -18.5t-3.5 -29.5v-58q13 5 27 8.5t29 3.5q45 0 69.5 -30t24.5 -94v-391
q0 -60 -28.5 -91.5t-87.5 -31.5t-87.5 31.5t-28.5 91.5v561zM148 547q-20 0 -34 -10v-420q0 -41 34 -41q35 0 35 41v388q0 42 -35 42z" />
    <glyph glyph-name="uni0432" unicode="&#x432;" horiz-adv-x="308" 
d="M191 498q0 36 -35 36h-37v-183h37q35 0 35 33v114zM192 248q0 33 -36 33h-37v-196h37q36 0 36 35v128zM35 0v619h121q61 0 86.5 -26t25.5 -83v-125q0 -52 -40 -65q20 -5 34.5 -20t14.5 -45v-150q0 -55 -30 -80t-91 -25h-121z" />
    <glyph glyph-name="uni0433" unicode="&#x433;" horiz-adv-x="217" 
d="M35 0v619h170v-85h-86v-534h-84z" />
    <glyph glyph-name="uni0434" unicode="&#x434;" horiz-adv-x="365" 
d="M312 85h43v-184h-62v99h-220v-99h-63v184h11q16 0 25.5 7.5t17.5 28.5q4 12 8 27.5t7.5 42t7 67.5t7.5 103l17 258h201v-534zM179 534l-14 -195q-2 -27 -5 -63.5t-7 -73.5t-10 -68.5t-14 -48.5h99v449h-49z" />
    <glyph glyph-name="uni0436" unicode="&#x436;" horiz-adv-x="414" 
d="M170 0v314l-78 -314h-88l94 348l-91 271h82l81 -263v263h74v-263l80 263h83l-91 -271l93 -348h-87l-78 314v-314h-74z" />
    <glyph glyph-name="uni0437" unicode="&#x437;" horiz-adv-x="289" 
d="M174 251q0 32 -36 32h-29v71h30q14 0 23.5 7t9.5 25v118q0 38 -36 38q-31 0 -31 -39v-104h-76v119q0 58 26.5 84.5t86.5 26.5t86 -26.5t26 -83.5v-138q0 -26 -10.5 -41t-35.5 -25q23 -6 36 -22.5t13 -45.5v-149q0 -49 -27 -78t-87 -29q-59 0 -87.5 29t-28.5 79v137h78
v-118q0 -23 6 -40t29 -17q34 0 34 42v148z" />
    <glyph glyph-name="uni0438" unicode="&#x438;" horiz-adv-x="319" 
d="M35 0v619h84v-367l82 367h83v-619h-81v401l-93 -401h-75z" />
    <glyph glyph-name="uni0439" unicode="&#x439;" horiz-adv-x="319" 
d="M24 0zM296 811q0 -45 -8 -74t-24.5 -46.5t-42 -24t-59.5 -6.5q-39 0 -65.5 6.5t-42.5 24t-23 46.5t-7 74h75q0 -34 4.5 -54.5t13 -31t19.5 -14t24 -3.5q12 0 23 3.5t19.5 14t13 31t4.5 54.5h76zM35 0v619h84v-367l82 367h83v-619h-81v401l-93 -401h-75z" />
    <glyph glyph-name="uni043B" unicode="&#x43b;" horiz-adv-x="347" 
d="M9 0v85h12q16 0 25.5 5.5t17.5 28.5q5 12 8.5 28.5t6.5 43.5t6.5 67.5t7.5 102.5l18 258h200v-619h-83v533h-49l-14 -193q-4 -59 -8.5 -103t-9 -75.5t-9.5 -53.5t-10 -37q-11 -32 -32.5 -51.5t-72.5 -19.5h-14z" />
    <glyph glyph-name="uni043C" unicode="&#x43c;" horiz-adv-x="444" 
d="M327 0v177q0 63 1.5 124.5t3.5 122.5q-1 -9 -5.5 -35.5t-11.5 -63t-15 -80.5t-15.5 -88.5t-14.5 -85t-11 -71.5h-77l-71 424q2 -61 3.5 -122.5t1.5 -124.5v-177h-81v619h119l66 -459l69 459h119v-619h-81z" />
    <glyph glyph-name="uni043D" unicode="&#x43d;" horiz-adv-x="306" 
d="M35 0v619h84v-246h68v246h83v-619h-83v288h-68v-288h-84z" />
    <glyph glyph-name="uni043F" unicode="&#x43f;" horiz-adv-x="306" 
d="M35 0v619h235v-619h-83v534h-68v-534h-84z" />
    <glyph glyph-name="uni0442" unicode="&#x442;" horiz-adv-x="237" 
d="M76 0v534h-65v85h214v-85h-65v-534h-84z" />
    <glyph glyph-name="uni0446" unicode="&#x446;" horiz-adv-x="324" 
d="M251 -99v99h-216v619h84v-534h68v534h83v-534h44v-184h-63z" />
    <glyph glyph-name="uni0447" unicode="&#x447;" horiz-adv-x="297" 
d="M178 0v292q-7 -3 -19.5 -5.5t-28.5 -2.5q-48 0 -76 28t-28 85v222h84v-224q0 -20 8.5 -29t28.5 -9q18 0 31 7v255h83v-619h-83z" />
    <glyph glyph-name="uni0448" unicode="&#x448;" horiz-adv-x="440" 
d="M35 0v619h84v-534h61v534h80v-534h61v534h84v-619h-370z" />
    <glyph glyph-name="uni0449" unicode="&#x449;" horiz-adv-x="458" 
d="M386 -100v100h-351v619h84v-534h61v534h80v-534h61v534h84v-534h43v-185h-62z" />
    <glyph glyph-name="uni044A" unicode="&#x44a;" horiz-adv-x="347" 
d="M160 377h39q63 0 91.5 -30t28.5 -98v-121q0 -67 -29 -97.5t-92 -30.5h-122v534h-65v85h149v-242zM236 250q0 45 -40 45h-36v-210h35q41 0 41 45v120z" />
    <glyph glyph-name="uni044B" unicode="&#x44b;" horiz-adv-x="464" 
d="M35 0zM119 619v-242h39q63 0 91.5 -30t28.5 -98v-121q0 -67 -29 -97.5t-92 -30.5h-122v619h84zM194 250q0 45 -39 45h-36v-210h35q40 0 40 45v120zM343 0v619h83v-619h-83z" />
    <glyph glyph-name="uni044C" unicode="&#x44c;" horiz-adv-x="305" 
d="M119 619v-242h39q63 0 91.5 -30t28.5 -98v-121q0 -67 -29 -97.5t-92 -30.5h-122v619h84zM194 250q0 45 -39 45h-36v-210h35q40 0 40 45v120z" />
    <glyph glyph-name="uni044D" unicode="&#x44d;" horiz-adv-x="284" 
d="M139 629q60 0 87.5 -35.5t27.5 -92.5v-384q0 -57 -27.5 -91.5t-87.5 -34.5q-59 0 -85.5 33.5t-26.5 90.5v122h78v-121q0 -40 33 -40q35 0 35 41v166h-107v71h107v149q0 40 -34 40t-34 -40v-104h-76v103q0 57 26 92t84 35z" />
    <glyph glyph-name="uni044E" unicode="&#x44e;" horiz-adv-x="449" 
d="M38 0v619h83v-263h67v149q0 60 28 92t88 32q57 0 86.5 -32t29.5 -92v-391q0 -60 -29.5 -91.5t-86.5 -31.5q-60 0 -88 31.5t-28 91.5v157h-67v-271h-83zM338 502q0 20 -7 30.5t-27 10.5t-27.5 -10.5t-7.5 -30.5v-386q0 -20 7.5 -30t27.5 -10t27 10.5t7 30.5v385z" />
    <glyph glyph-name="uni044F" unicode="&#x44f;" horiz-adv-x="303" 
d="M16 0l54 293q-24 11 -35.5 31.5t-11.5 57.5v126q0 61 31.5 86t97.5 25h115v-619h-84v275h-21q-9 0 -12 1l-48 -276h-86zM107 404q0 -27 7 -42.5t38 -15.5h31v187h-31q-45 0 -45 -41v-88z" />
    <glyph glyph-name="uni0452" unicode="&#x452;" horiz-adv-x="303" 
d="M187 510q0 37 -29 37q-12 0 -22.5 -5.5t-16.5 -18.5v-523h-84v684h-28v72h28v67h84v-67h122v-72h-122v-90q14 16 32.5 25.5t42.5 9.5q76 0 76 -114v-528q0 -70 -30.5 -100.5t-90.5 -30.5q-11 0 -20 1t-17 3v83q8 -2 17 -3t19 -1q20 0 29.5 11t9.5 37v523z" />
    <glyph glyph-name="uni0453" unicode="&#x453;" horiz-adv-x="244" 
d="M33 0zM33 656l110 161h107l-137 -161h-80zM35 0v619h170v-85h-86v-534h-84z" />
    <glyph glyph-name="uni0454" unicode="&#x454;" horiz-adv-x="284" 
d="M111 283v-166q0 -41 34 -41t34 40v121h77v-122q0 -57 -26 -90.5t-85 -33.5q-60 0 -88 34.5t-28 91.5v384q0 57 28 92.5t87 35.5t84.5 -35t25.5 -92v-103h-75v104q0 40 -34 40t-34 -40v-149h107v-71h-107z" />
    <glyph glyph-name="uni0459" unicode="&#x459;" horiz-adv-x="499" 
d="M9 0v85h12q15 0 25 6t18 28q4 11 7.5 26.5t7 40.5t6.5 62.5t7 92.5l19 278h200v-242h40q62 0 91 -30t29 -98v-121q0 -67 -29 -97.5t-92 -30.5h-122v533h-49l-15 -207q-8 -102 -16 -158.5t-15 -84.5q-11 -42 -35.5 -62.5t-74.5 -20.5h-14zM387 242q0 25 -8 38.5t-31 13.5
h-37v-209h36q40 0 40 45v112z" />
    <glyph glyph-name="uni045A" unicode="&#x45a;" horiz-adv-x="457" 
d="M35 0v619h84v-244h68v244h83v-244h40q62 0 90.5 -30t28.5 -97v-120q0 -67 -28.5 -97.5t-91.5 -30.5h-122v290h-68v-290h-84zM346 249q0 44 -39 44h-37v-208h36q40 0 40 45v119z" />
    <glyph glyph-name="uni045C" unicode="&#x45c;" horiz-adv-x="299" 
d="M35 0zM61 656l110 161h107l-137 -161h-80zM203 0q-24 86 -38.5 138.5t-23.5 85t-14.5 51.5t-10.5 39v-38.5t0.5 -38t0.5 -41v-48.5v-148h-82v619h82v-120v-42t-0.5 -35.5t-0.5 -32.5v-33q16 51 38.5 118t50.5 145h86l-98 -270l101 -349h-91z" />
    <glyph glyph-name="uni045D" unicode="&#x45d;" horiz-adv-x="319" 
d="M21 0zM158 656l-137 161h106l111 -161h-80zM35 0v619h84v-367l82 367h83v-619h-81v401l-93 -401h-75z" />
    <glyph glyph-name="uni045E" unicode="&#x45e;" horiz-adv-x="278" 
d="M5 0zM18 -56q11 -4 34 -4q21 0 29 18t13 48l2 13l-87 600h87q9 -82 15.5 -145t11.5 -113.5t8.5 -93t6.5 -82.5q4 40 8.5 82.5t10 93t13 113.5t17.5 145h80l-84 -596q-6 -39 -14 -70t-21.5 -52.5t-36 -33t-56.5 -11.5q-17 0 -37 5v83zM277 811q0 -45 -8 -74t-24.5 -46.5
t-42 -24t-59.5 -6.5q-39 0 -65.5 6.5t-42.5 24t-23 46.5t-7 74h75q0 -34 4.5 -54.5t13 -31t19.5 -14t24 -3.5q12 0 23 3.5t19.5 14t13 31t4.5 54.5h76z" />
    <glyph glyph-name="uni045F" unicode="&#x45f;" horiz-adv-x="306" 
d="M121 -99v99h-86v619h84v-534h68v534h83v-619h-86v-99h-63z" />
    <glyph glyph-name="uni0490" unicode="&#x490;" horiz-adv-x="272" 
d="M191 823v109h71v-202h-134v-730h-93v823h156z" />
    <glyph glyph-name="uni0491" unicode="&#x491;" horiz-adv-x="217" 
d="M119 534v-534h-84v619h108v99h62v-184h-86z" />
    <glyph glyph-name="uni0492" unicode="&#x492;" horiz-adv-x="287" 
d="M144 398v-398h-93v398h-43v71h43v354h227v-93h-134v-261h98v-71h-98z" />
    <glyph glyph-name="uni0493" unicode="&#x493;" horiz-adv-x="242" 
d="M60 0v265h-53v72h53v282h170v-85h-86v-197h82v-72h-82v-265h-84z" />
    <glyph glyph-name="uni0496" unicode="&#x496;" horiz-adv-x="579" 
d="M2 0l140 453l-130 370h99l108 -351v351h90v-351l110 351h98l-130 -370l111 -361h71v-202h-72v110h-75l-113 398v-398h-90v398l-111 -398h-106z" />
    <glyph glyph-name="uni0497" unicode="&#x497;" horiz-adv-x="455" 
d="M170 0v314l-78 -314h-88l94 348l-91 271h82l81 -263v263h74v-263l80 263h83l-91 -271l70 -263h59v-185h-63v100h-60l-78 314v-314h-74z" />
    <glyph glyph-name="uni0498" unicode="&#x498;" horiz-adv-x="311" 
d="M196 328q0 24 -8.5 36t-31.5 12h-41v87h45q21 0 28 12.5t7 35.5v180q0 25 -8.5 36.5t-30.5 11.5q-21 0 -29.5 -11.5t-8.5 -36.5v-146h-91v145q0 75 31.5 108.5t97.5 33.5q67 0 97.5 -33.5t30.5 -109.5v-182q0 -35 -13 -55.5t-40 -32.5q26 -8 40.5 -29t14.5 -60v-199
q0 -54 -22 -90t-70 -46q38 -9 52 -29.5t14 -46.5q0 -33 -24.5 -50.5t-69.5 -17.5h-78v59h76q21 0 29 8t8 20q0 16 -13 28t-55 27q-55 6 -81.5 42.5t-26.5 94.5v162h93v-161q0 -48 38 -48q22 0 31 12.5t9 35.5v197z" />
    <glyph glyph-name="uni0499" unicode="&#x499;" horiz-adv-x="289" 
d="M174 251q0 32 -36 32h-29v71h30q14 0 23.5 7t9.5 25v118q0 38 -36 38q-31 0 -31 -39v-104h-76v119q0 58 26.5 84.5t86.5 26.5t86 -26.5t26 -83.5v-138q0 -26 -10.5 -41t-35.5 -25q23 -6 36 -22.5t13 -45.5v-149q0 -42 -19 -68.5t-60 -34.5q39 -9 52.5 -29.5t13.5 -46.5
q0 -33 -24 -50.5t-69 -17.5h-78v59h75q22 0 29.5 8t7.5 20q0 17 -13 29t-56 26q-45 6 -67 34t-22 72v137h78v-118q0 -23 6 -40t29 -17q34 0 34 42v148z" />
    <glyph glyph-name="uni049A" unicode="&#x49a;" horiz-adv-x="396" 
d="M314 -110v110h-72q-31 103 -59 200.5t-57 197.5q2 -51 2 -104.5v-120.5v-173h-93v823h93v-170v-101.5t-2 -78.5q28 91 56 176.5t57 173.5h99l-132 -371l113 -360h67v-202h-72z" />
    <glyph glyph-name="uni049B" unicode="&#x49b;" horiz-adv-x="339" 
d="M266 -100v100h-63q-24 86 -38.5 138.5t-23.5 85t-14.5 51.5t-10.5 39v-38.5t0.5 -38t0.5 -41v-48.5v-148h-82v619h82v-120v-42t-0.5 -35.5t-0.5 -32.5v-33q16 51 38.5 118t50.5 145h86l-98 -270l76 -264h60v-185h-63z" />
    <glyph glyph-name="uni04A0" unicode="&#x4a0;" horiz-adv-x="418" 
d="M309 0l-116 398q2 -51 2 -104.5v-120.5v-173h-93v730h-93v93h186v-158v-107t-2 -85l113 350h99l-134 -371l144 -452h-106z" />
    <glyph glyph-name="uni04A1" unicode="&#x4a1;" horiz-adv-x="342" 
d="M245 0l-87 314q1 -19 1.5 -36t0.5 -35v-38.5v-46.5v-158h-82v533h-67v86h149v-111v-45v-37.5t-0.5 -34.5t-1.5 -35l89 263h87l-99 -270l102 -349h-92z" />
    <glyph glyph-name="uni04A2" unicode="&#x4a2;" horiz-adv-x="351" 
d="M269 -110v110h-63v373h-78v-373h-93v823h93v-358h78v358h92v-731h43v-202h-72z" />
    <glyph glyph-name="uni04A3" unicode="&#x4a3;" horiz-adv-x="331" 
d="M259 -100v100h-72v288h-68v-288h-84v619h84v-246h68v246h83v-534h51v-185h-62z" />
    <glyph glyph-name="uni04AA" unicode="&#x4aa;" horiz-adv-x="310" 
d="M201 302h84v-170q0 -62 -21 -96t-67 -42q37 -9 50 -29.5t13 -45.5q0 -33 -24.5 -50.5t-69.5 -17.5h-78v59h76q21 0 29 8t8 20q0 16 -14 28t-57 27q-100 15 -100 137v560q0 142 133 142q122 0 122 -140v-146h-84v146q0 24 -8.5 35.5t-29.5 11.5q-39 0 -39 -47v-561
q0 -48 39 -48q38 0 38 48v171z" />
    <glyph glyph-name="uni04AB" unicode="&#x4ab;" horiz-adv-x="284" 
d="M179 253h78v-138q0 -48 -18.5 -79t-58.5 -41q35 -8 49.5 -27.5t14.5 -43.5q0 -73 -94 -73h-78v59h77q21 0 28.5 9t7.5 21q0 14 -12.5 26t-51.5 27q-48 7 -69.5 40t-21.5 84v384q0 57 27.5 92.5t87.5 35.5q58 0 84 -35t26 -92v-134h-76v136q0 39 -34 39t-34 -40v-386
q0 -41 34 -41t34 41v136z" />
    <glyph glyph-name="uni04B2" unicode="&#x4b2;" horiz-adv-x="387" 
d="M305 -110v110h-66q-9 50 -20.5 103.5t-22 101.5t-18.5 85t-10 53q-2 -16 -9.5 -53t-17.5 -84.5t-21.5 -101.5t-21.5 -104h-94l113 440l-95 383h99q6 -39 14.5 -82t16 -82t13.5 -69.5t7 -43.5q1 13 7 43.5t14 69.5t16.5 82t14.5 82h96l-97 -380l91 -351h63v-202h-72z" />
    <glyph glyph-name="uni04B3" unicode="&#x4b3;" horiz-adv-x="367" 
d="M253 -100v100h-59q-8 41 -16.5 83t-16 79t-13 66.5t-7.5 45.5q-2 -16 -7 -45.5t-12 -66.5t-15.5 -79t-17.5 -83h-83l82 331l-70 288h87q6 -31 12 -63t11.5 -61t9.5 -54t6 -42q2 17 5.5 42t9 54t12 61t13.5 63h83l-70 -287l61 -247h58v-185h-63z" />
    <glyph glyph-name="uni04B6" unicode="&#x4b6;" horiz-adv-x="341" 
d="M259 -110v110h-64v346q-8 -3 -22.5 -6t-31.5 -3q-54 0 -85 35t-31 105v346h93v-343q0 -29 9 -42.5t34 -13.5q11 0 18.5 2.5t15.5 6.5v390h93v-731h43v-202h-72z" />
    <glyph glyph-name="uni04B7" unicode="&#x4b7;" horiz-adv-x="322" 
d="M250 -100v100h-72v292q-7 -3 -19.5 -5.5t-28.5 -2.5q-48 0 -76 28t-28 85v222h84v-224q0 -20 8.5 -29t28.5 -9q18 0 31 7v255h83v-534h52v-185h-63z" />
    <glyph glyph-name="uni04BA" unicode="&#x4ba;" horiz-adv-x="329" 
d="M131 823v-346q8 3 22.5 6t31.5 3q54 0 85 -35t31 -105v-346h-93v343q0 29 -9 42.5t-34 13.5q-11 0 -18.5 -2.5t-15.5 -6.5v-390h-93v823h93z" />
    <glyph glyph-name="uni04C3" unicode="&#x4c3;" horiz-adv-x="351" 
d="M162 -57q9 -2 19.5 -3t18.5 -1q26 0 36 8.5t10 25.5q0 15 -8 42l-110 383v-398h-93v823h93v-350l111 350h99l-134 -371l125 -400q6 -20 9.5 -39.5t3.5 -37.5q0 -52 -32.5 -85.5t-106.5 -33.5q-11 0 -22 1t-19 3v83z" />
    <glyph glyph-name="uni04C4" unicode="&#x4c4;" horiz-adv-x="299" 
d="M136 -57q8 -2 16.5 -3t15.5 -1q23 0 31.5 9.5t8.5 25.5q0 9 -2 18t-5 19l-84 303v-314h-82v618h82v-262l88 263h86l-98 -270l90 -316q5 -18 7.5 -29.5t2.5 -27.5q0 -58 -30.5 -89t-90.5 -31q-9 0 -18.5 1t-17.5 3v83z" />
    <glyph glyph-name="uni04C7" unicode="&#x4c7;" horiz-adv-x="333" 
d="M127 -57q8 -2 17.5 -3t16.5 -1q25 0 35 11t10 37v385h-78v-372h-93v823h93v-358h78v358h92v-836q0 -69 -33.5 -100t-99.5 -31q-11 0 -21 1t-17 3v83z" />
    <glyph glyph-name="uni04C8" unicode="&#x4c8;" horiz-adv-x="306" 
d="M112 -57q8 -2 16.5 -3t15.5 -1q23 0 33 11t10 37v300h-68v-287h-84v619h84v-246h68v246h83v-632q0 -70 -30.5 -100.5t-92.5 -30.5q-22 0 -35 4v83z" />
    <glyph glyph-name="uni04E8" unicode="&#x4e8;" horiz-adv-x="322" 
d="M30 692q0 140 131 140q132 0 132 -140v-561q0 -140 -132 -140q-131 0 -131 140v561zM201 378h-79v-247q0 -48 39 -48q40 0 40 48v247zM122 470h79v222q0 47 -40 47q-39 0 -39 -47v-222z" />
    <glyph glyph-name="uni04E9" unicode="&#x4e9;" horiz-adv-x="291" 
d="M30 505q0 60 28 92t88 32q57 0 86.5 -32t29.5 -92v-391q0 -60 -29.5 -91.5t-86.5 -31.5q-60 0 -88 31.5t-28 91.5v391zM180 278h-69v-162q0 -20 7.5 -30t27.5 -10t27 10.5t7 30.5v161zM111 350h69v152q0 20 -7 30.5t-27 10.5t-27.5 -10.5t-7.5 -30.5v-152z" />
    <glyph glyph-name="uni04EE" unicode="&#x4ee;" horiz-adv-x="336" 
d="M8 0zM54 898v72h234v-72h-234zM199 132q-8 -41 -19 -66.5t-30.5 -40t-50 -20t-76.5 -5.5h-10v92h10q19 0 34.5 2t27 8t19 18t11.5 32l20 104l-127 567h101l66 -382l63 382h90z" />
    <glyph glyph-name="uni04EF" unicode="&#x4ef;" horiz-adv-x="278" 
d="M9 0zM18 -56q11 -4 34 -4q21 0 29 18t13 48l2 13l-87 600h87q9 -82 15.5 -145t11.5 -113.5t8.5 -93t6.5 -82.5q4 40 8.5 82.5t10 93t13 113.5t17.5 145h80l-84 -596q-6 -39 -14 -70t-21.5 -52.5t-36 -33t-56.5 -11.5q-17 0 -37 5v83zM24 694v72h234v-72h-234z" />
    <glyph glyph-name="uni0512" unicode="&#x512;" horiz-adv-x="370" 
d="M163 -57q8 -2 17.5 -3t20.5 -1q41 0 41 48v743h-50l-15 -277q-5 -80 -9 -136.5t-8.5 -96.5t-9 -65.5t-8.5 -43.5q-12 -53 -37 -82t-81 -29h-15v92h12q16 0 27 7.5t20 38.5q4 15 8 38t7.5 60.5t7.5 94t8 139.5l18 353h217v-836q0 -69 -33 -100t-99 -31q-11 0 -21 1t-18 3
v83z" />
    <glyph glyph-name="uni0513" unicode="&#x513;" horiz-adv-x="347" 
d="M153 -57q8 -2 17 -3t19 -1q39 0 39 48v546h-49l-13 -190q-4 -58 -8 -100.5t-8.5 -73.5t-8.5 -51.5t-8 -34.5q-13 -45 -38.5 -64t-71.5 -19h-14v85h12q16 0 25.5 5.5t17.5 28.5q5 12 8.5 28.5t6.5 43.5t6.5 67.5t7.5 102.5l18 258h200v-632q0 -69 -30.5 -100t-90.5 -31
q-11 0 -20 1t-17 3v83z" />
    <glyph glyph-name="uni0584" unicode="&#x584;" horiz-adv-x="330" 
d="M275 212v-212h-93v212h-96v70h96v117h-96v70h96v223q0 48 -39 48t-39 -48v-150h-82v150q0 70 27.5 105t93.5 35q132 0 132 -140v-223h47v-70h-47v-117h47v-70h-47z" />
    <glyph glyph-name="uni1E0C" unicode="&#x1e0c;" horiz-adv-x="327" 
d="M36 0zM206 682q0 48 -40 48h-38v-638h38q40 0 40 48v542zM36 0v823h130q66 0 99 -37.5t33 -103.5v-542q0 -140 -132 -140h-130zM121 -149v102h84v-102h-84z" />
    <glyph glyph-name="uni1E0D" unicode="&#x1e0d;" horiz-adv-x="304" 
d="M30 0zM185 517q-5 14 -15.5 20.5t-22.5 6.5q-34 0 -34 -37v-385q0 -21 8.5 -30t25.5 -9q12 0 22.5 7t15.5 21v406zM198 0q-3 18 -3 40q-10 -23 -28 -34.5t-50 -11.5q-42 0 -64.5 28.5t-22.5 88.5v404q0 60 22 87t68 27q41 0 65 -29v223h83v-823h-70zM109 -149v102h84
v-102h-84z" />
    <glyph glyph-name="uni1E12" unicode="&#x1e12;" horiz-adv-x="327" 
d="M25 0zM206 682q0 48 -40 48h-38v-638h38q40 0 40 48v542zM36 0v823h130q66 0 99 -37.5t33 -103.5v-542q0 -140 -132 -140h-130zM211 -149l-57 90l-61 -90h-68l88 124h87l83 -124h-72z" />
    <glyph glyph-name="uni1E13" unicode="&#x1e13;" horiz-adv-x="304" 
d="M22 0zM185 517q-5 14 -15.5 20.5t-22.5 6.5q-34 0 -34 -37v-385q0 -21 8.5 -30t25.5 -9q12 0 22.5 7t15.5 21v406zM198 0q-3 18 -3 40q-10 -23 -28 -34.5t-50 -11.5q-42 0 -64.5 28.5t-22.5 88.5v404q0 60 22 87t68 27q41 0 65 -29v223h83v-823h-70zM208 -149l-57 90
l-61 -90h-68l88 124h87l83 -124h-72z" />
    <glyph glyph-name="uni1E24" unicode="&#x1e24;" horiz-adv-x="333" 
d="M36 0zM206 0v373h-78v-373h-92v823h92v-358h78v358h92v-823h-92zM124 -149v102h84v-102h-84z" />
    <glyph glyph-name="uni1E25" unicode="&#x1e25;" horiz-adv-x="303" 
d="M36 0zM187 0v510q0 37 -30 37q-11 0 -21.5 -5.5t-16.5 -18.5v-523h-83v823h83v-229q29 35 74 35q78 0 78 -114v-515h-84zM109 -149v102h84v-102h-84z" />
    <glyph glyph-name="uni1E3C" unicode="&#x1e3c;" horiz-adv-x="272" 
d="M16 0zM36 0v823h92v-731h135v-92h-227zM202 -149l-57 90l-61 -90h-68l88 124h87l83 -124h-72z" />
    <glyph glyph-name="uni1E3D" unicode="&#x1e3d;" horiz-adv-x="229" 
d="M0 0zM72 0v823h83v-823h-83zM170 -149l-57 90l-61 -90h-68l88 124h87l83 -124h-72z" />
    <glyph glyph-name="uni1E44" unicode="&#x1e44;" horiz-adv-x="355" 
d="M33 0zM231 0q-23 106 -41 187t-32.5 145.5t-26 117t-21.5 102.5q2 -85 2 -169.5v-169.5v-213h-79v823h108q20 -114 35.5 -198t27.5 -148t21.5 -114.5t18.5 -98.5q-2 72 -2 141v138v280h79v-823h-90zM135 872v125h83v-125h-83z" />
    <glyph glyph-name="uni1E45" unicode="&#x1e45;" horiz-adv-x="303" 
d="M36 0zM187 0v510q0 37 -30 37q-11 0 -21.5 -5.5t-16.5 -18.5v-523h-83v619h70q3 -18 3 -40q30 50 83 50q79 0 79 -114v-515h-84zM110 668v125h83v-125h-83z" />
    <glyph glyph-name="uni1E4A" unicode="&#x1e4a;" horiz-adv-x="355" 
d="M33 0zM231 0q-23 106 -41 187t-32.5 145.5t-26 117t-21.5 102.5q2 -85 2 -169.5v-169.5v-213h-79v823h108q20 -114 35.5 -198t27.5 -148t21.5 -114.5t18.5 -98.5q-2 72 -2 141v138v280h79v-823h-90zM233 -149l-57 90l-61 -90h-68l88 124h87l83 -124h-72z" />
    <glyph glyph-name="uni1E4B" unicode="&#x1e4b;" horiz-adv-x="303" 
d="M22 0zM187 0v510q0 37 -30 37q-11 0 -21.5 -5.5t-16.5 -18.5v-523h-83v619h70q3 -18 3 -40q30 50 83 50q79 0 79 -114v-515h-84zM208 -149l-57 90l-61 -90h-68l88 124h87l83 -124h-72z" />
    <glyph glyph-name="uni1E5A" unicode="&#x1e5a;" horiz-adv-x="332" 
d="M35 0zM214 656q0 38 -9 56t-42 18h-35v-276h36q50 0 50 53v149zM214 0q-11 94 -22 185t-26 185h-38v-370h-93v823h128q72 0 108.5 -33.5t36.5 -114.5v-167q0 -48 -13 -75.5t-41 -43.5q18 -100 32.5 -196t28.5 -193h-101zM123 -149v102h84v-102h-84z" />
    <glyph glyph-name="uni1E5B" unicode="&#x1e5b;" horiz-adv-x="207" 
d="M35 0zM36 0v619h70q3 -18 3 -38q22 45 68 45q11 0 19 -4v-93q-6 4 -14.5 5.5t-17.5 1.5q-13 0 -25.5 -5.5t-19.5 -21.5v-509h-83zM35 -149v102h84v-102h-84z" />
    <glyph glyph-name="uni1E62" unicode="&#x1e62;" horiz-adv-x="311" 
d="M25 0zM194 244q0 28 -6 44.5t-23 38.5q-10 13 -26 31.5t-32.5 38.5t-32 39t-24.5 33q-14 22 -19.5 45t-5.5 59v123q0 136 133 136q68 0 96.5 -33.5t28.5 -102.5v-150h-86v149q0 20 -9 32t-30 12q-39 0 -39 -43v-122q0 -17 3 -30t13 -26q7 -11 22 -28t32 -36.5t33.5 -40
t28.5 -37.5q10 -14 16.5 -27.5t10.5 -28.5t6 -33t2 -42v-118q0 -66 -30.5 -101t-99.5 -35t-100 35t-31 101v175h89v-175q0 -20 9.5 -32t30.5 -12q40 0 40 44v117zM113 -149v102h84v-102h-84z" />
    <glyph glyph-name="uni1E63" unicode="&#x1e63;" horiz-adv-x="279" 
d="M25 0zM252 105q0 -61 -29 -87.5t-89 -26.5q-54 0 -81.5 28.5t-27.5 89.5v98h76v-96q0 -19 9.5 -28.5t25.5 -9.5q33 0 33 38v67q0 20 -3.5 30.5t-15.5 26.5q-23 31 -49 57t-49 56q-16 20 -21.5 44.5t-5.5 55.5v59q0 67 29 94.5t83 27.5q65 0 88.5 -29.5t23.5 -92.5v-98
h-76v98q0 19 -9.5 28.5t-24.5 9.5q-32 0 -32 -38v-68q0 -15 2.5 -25.5t13.5 -24.5q23 -29 48.5 -53.5t46.5 -51.5t27.5 -53t6.5 -65v-61zM97 -149v102h84v-102h-84z" />
    <glyph glyph-name="uni1E6C" unicode="&#x1e6c;" horiz-adv-x="283" 
d="M10 0zM96 0v730h-86v93h264v-93h-86v-730h-92zM99 -149v102h84v-102h-84z" />
    <glyph glyph-name="uni1E6D" unicode="&#x1e6d;" horiz-adv-x="191" 
d="M8 0zM181 -5q-6 -2 -14.5 -3t-16.5 -1q-57 0 -84.5 34t-27.5 94v427h-30v73h30v196h84v-196h57v-73h-57v-426q0 -57 46 -57h6.5t6.5 1v-69zM53 -149v102h84v-102h-84z" />
    <glyph glyph-name="Wgrave" unicode="&#x1e80;" horiz-adv-x="531" 
d="M11 0zM314 0q-10 103 -19.5 199.5t-16.5 173.5t-11 129.5t-4 67.5q-1 -15 -6.5 -67.5t-13 -130t-17.5 -173.5t-20 -199h-110l-85 823h96q8 -108 16.5 -210.5t16 -185t12.5 -139.5t6 -75q1 18 7 75t15 139.5t20 185t23 210.5h86q10 -108 19.5 -210.5t17.5 -185t13 -139.5
t6 -75q1 18 6.5 75t14 139.5t18.5 185t20 210.5h97l-98 -823h-109zM257 860l-137 161h106l111 -161h-80z" />
    <glyph glyph-name="wgrave" unicode="&#x1e81;" horiz-adv-x="421" 
d="M12 0zM247 0l-39 429l-43 -429h-97l-56 619h77l33 -456l49 456h77l43 -456l41 456h77l-64 -619h-98zM202 656l-137 161h106l111 -161h-80z" />
    <glyph glyph-name="Wacute" unicode="&#x1e82;" horiz-adv-x="531" 
d="M11 0zM314 0q-10 103 -19.5 199.5t-16.5 173.5t-11 129.5t-4 67.5q-1 -15 -6.5 -67.5t-13 -130t-17.5 -173.5t-20 -199h-110l-85 823h96q8 -108 16.5 -210.5t16 -185t12.5 -139.5t6 -75q1 18 7 75t15 139.5t20 185t23 210.5h86q10 -108 19.5 -210.5t17.5 -185t13 -139.5
t6 -75q1 18 6.5 75t14 139.5t18.5 185t20 210.5h97l-98 -823h-109zM193 860l110 161h107l-137 -161h-80z" />
    <glyph glyph-name="wacute" unicode="&#x1e83;" horiz-adv-x="421" 
d="M12 0zM247 0l-39 429l-43 -429h-97l-56 619h77l33 -456l49 456h77l43 -456l41 456h77l-64 -619h-98zM138 656l110 161h107l-137 -161h-80z" />
    <glyph glyph-name="Wdieresis" unicode="&#x1e84;" horiz-adv-x="531" 
d="M11 0zM314 0q-10 103 -19.5 199.5t-16.5 173.5t-11 129.5t-4 67.5q-1 -15 -6.5 -67.5t-13 -130t-17.5 -173.5t-20 -199h-110l-85 823h96q8 -108 16.5 -210.5t16 -185t12.5 -139.5t6 -75q1 18 7 75t15 139.5t20 185t23 210.5h86q10 -108 19.5 -210.5t17.5 -185t13 -139.5
t6 -75q1 18 6.5 75t14 139.5t18.5 185t20 210.5h97l-98 -823h-109zM300 872v125h84v-125h-84zM148 872v125h83v-125h-83z" />
    <glyph glyph-name="wdieresis" unicode="&#x1e85;" horiz-adv-x="421" 
d="M12 0zM247 0l-39 429l-43 -429h-97l-56 619h77l33 -456l49 456h77l43 -456l41 456h77l-64 -619h-98zM245 668v125h84v-125h-84zM93 668v125h83v-125h-83z" />
    <glyph glyph-name="uni1E92" unicode="&#x1e92;" horiz-adv-x="308" 
d="M24 0zM24 0v94l170 639h-163v90h255v-83l-166 -646h166v-94h-262zM112 -149v102h84v-102h-84z" />
    <glyph glyph-name="uni1E93" unicode="&#x1e93;" horiz-adv-x="256" 
d="M24 0zM24 0v79l131 458h-129v82h208v-77l-127 -457h126v-85h-209zM85 -149v102h84v-102h-84z" />
    <glyph glyph-name="uni1E9E" unicode="&#x1e9e;" horiz-adv-x="357" 
d="M311 823v-84l-68 -282q35 -9 58 -36.5t23 -78.5v-224q0 -67 -29 -97t-95 -30q-15 0 -23.5 1t-14.5 2v84q12 -3 27 -3q21 0 31.5 9t10.5 34v213q0 30 -15 43t-60 13v61l66 284h-59q-39 0 -39 -47v-685h-92v683q0 140 131 140h148z" />
    <glyph glyph-name="uni1EA0" unicode="&#x1ea0;" horiz-adv-x="337" 
d="M10 0zM232 0l-15 127h-101q-5 -32 -8.5 -63.5t-7.5 -63.5h-90l107 823h107l101 -823h-93zM207 212q-11 94 -21 185.5t-19 188.5q-18 -194 -42 -374h82zM125 -149v102h84v-102h-84z" />
    <glyph glyph-name="uni1EA1" unicode="&#x1ea1;" 
d="M21 0zM179 0q-4 9 -4 34q-11 -20 -27.5 -31.5t-41.5 -11.5q-42 0 -63.5 23t-21.5 75v91q0 44 11.5 73.5t32 50t47.5 34.5t58 28v140q0 19 -7.5 29t-25.5 10q-21 0 -27.5 -10t-6.5 -29v-130h-73v131q0 122 109 122q111 0 111 -122v-454q0 -33 5 -53h-76zM170 299
q-25 -9 -38.5 -20.5t-20 -26.5t-7.5 -34.5t-1 -43.5v-64q0 -38 34 -38q24 0 33 27v200zM100 -149v102h84v-102h-84z" />
    <glyph glyph-name="uni1EA2" unicode="&#x1ea2;" horiz-adv-x="337" 
d="M10 0zM232 0l-15 127h-101q-5 -32 -8.5 -63.5t-7.5 -63.5h-90l107 823h107l101 -823h-93zM207 212q-11 94 -21 185.5t-19 188.5q-18 -194 -42 -374h82zM142 865v11q0 26 9.5 37t20.5 19q13 8 19.5 14.5t6.5 19.5v6q0 14 -19 14q-21 0 -21 -13v-12h-58v14q0 23 18.5 34.5
t59.5 11.5q80 0 80 -46v-9q0 -24 -7 -33.5t-26 -20.5q-11 -6 -16.5 -10t-8 -7.5t-3 -7.5t-0.5 -11v-11h-55z" />
    <glyph glyph-name="uni1EA3" unicode="&#x1ea3;" 
d="M21 0zM179 0q-4 9 -4 34q-11 -20 -27.5 -31.5t-41.5 -11.5q-42 0 -63.5 23t-21.5 75v91q0 44 11.5 73.5t32 50t47.5 34.5t58 28v140q0 19 -7.5 29t-25.5 10q-21 0 -27.5 -10t-6.5 -29v-130h-73v131q0 122 109 122q111 0 111 -122v-454q0 -33 5 -53h-76zM170 299
q-25 -9 -38.5 -20.5t-20 -26.5t-7.5 -34.5t-1 -43.5v-64q0 -38 34 -38q24 0 33 27v200zM115 661v11q0 26 9.5 37t20.5 19q13 8 19.5 14.5t6.5 19.5v6q0 14 -19 14q-21 0 -21 -13v-12h-58v14q0 23 18.5 34.5t59.5 11.5q80 0 80 -46v-9q0 -24 -7 -33.5t-26 -20.5
q-11 -6 -16.5 -10t-8 -7.5t-3 -7.5t-0.5 -11v-11h-55z" />
    <glyph glyph-name="uni1EA4" unicode="&#x1ea4;" horiz-adv-x="337" 
d="M10 0zM232 0l-15 127h-101q-5 -32 -8.5 -63.5t-7.5 -63.5h-90l107 823h107l101 -823h-93zM207 212q-11 94 -21 185.5t-19 188.5q-18 -194 -42 -374h82zM266 900l110 161h107l-137 -161h-80zM237 833.453l-68 96.6289l-71 -96.6289h-77l102 134.114h98l97 -134.114h-81z
" />
    <glyph glyph-name="uni1EA5" unicode="&#x1ea5;" 
d="M0 0zM179 0q-4 9 -4 34q-11 -20 -27.5 -31.5t-41.5 -11.5q-42 0 -63.5 23t-21.5 75v91q0 44 11.5 73.5t32 50t47.5 34.5t58 28v140q0 19 -7.5 29t-25.5 10q-21 0 -27.5 -10t-6.5 -29v-130h-73v131q0 122 109 122q111 0 111 -122v-454q0 -33 5 -53h-76zM170 299
q-25 -9 -38.5 -20.5t-20 -26.5t-7.5 -34.5t-1 -43.5v-64q0 -38 34 -38q24 0 33 27v200zM68 860l110 161h107l-137 -161h-80zM210 656l-68 116l-71 -116h-77l102 161h98l97 -161h-81z" />
    <glyph glyph-name="uni1EA6" unicode="&#x1ea6;" horiz-adv-x="337" 
d="M10 0zM232 0l-15 127h-101q-5 -32 -8.5 -63.5t-7.5 -63.5h-90l107 823h107l101 -823h-93zM207 212q-11 94 -21 185.5t-19 188.5q-18 -194 -42 -374h82zM338 900l-137 161h106l111 -161h-80zM237 833.453l-68 96.6289l-71 -96.6289h-77l102 134.114h98l97 -134.114h-81z
" />
    <glyph glyph-name="uni1EA7" unicode="&#x1ea7;" 
d="M0 0zM179 0q-4 9 -4 34q-11 -20 -27.5 -31.5t-41.5 -11.5q-42 0 -63.5 23t-21.5 75v91q0 44 11.5 73.5t32 50t47.5 34.5t58 28v140q0 19 -7.5 29t-25.5 10q-21 0 -27.5 -10t-6.5 -29v-130h-73v131q0 122 109 122q111 0 111 -122v-454q0 -33 5 -53h-76zM170 299
q-25 -9 -38.5 -20.5t-20 -26.5t-7.5 -34.5t-1 -43.5v-64q0 -38 34 -38q24 0 33 27v200zM138 860l-137 161h106l111 -161h-80zM210 656l-68 116l-71 -116h-77l102 161h98l97 -161h-81z" />
    <glyph glyph-name="uni1EA8" unicode="&#x1ea8;" horiz-adv-x="337" 
d="M10 0zM232 0l-15 127h-101q-5 -32 -8.5 -63.5t-7.5 -63.5h-90l107 823h107l101 -823h-93zM207 212q-11 94 -21 185.5t-19 188.5q-18 -194 -42 -374h82zM237 833.453l-68 96.6289l-71 -96.6289h-77l102 134.114h98l97 -134.114h-81zM300 875v11q0 26 9.5 37t20.5 19
q13 8 19.5 14.5t6.5 19.5v6q0 14 -19 14q-21 0 -21 -13v-12h-58v14q0 23 18.5 34.5t59.5 11.5q80 0 80 -46v-9q0 -24 -7 -33.5t-26 -20.5q-11 -6 -16.5 -10t-8 -7.5t-3 -7.5t-0.5 -11v-11h-55z" />
    <glyph glyph-name="uni1EA9" unicode="&#x1ea9;" 
d="M0 0zM179 0q-4 9 -4 34q-11 -20 -27.5 -31.5t-41.5 -11.5q-42 0 -63.5 23t-21.5 75v91q0 44 11.5 73.5t32 50t47.5 34.5t58 28v140q0 19 -7.5 29t-25.5 10q-21 0 -27.5 -10t-6.5 -29v-130h-73v131q0 122 109 122q111 0 111 -122v-454q0 -33 5 -53h-76zM170 299
q-25 -9 -38.5 -20.5t-20 -26.5t-7.5 -34.5t-1 -43.5v-64q0 -38 34 -38q24 0 33 27v200zM210 656l-68 116l-71 -116h-77l102 161h98l97 -161h-81zM114 865v11q0 26 9.5 37t20.5 19q13 8 19.5 14.5t6.5 19.5v6q0 14 -19 14q-21 0 -21 -13v-12h-58v14q0 23 18.5 34.5t59.5 11.5
q80 0 80 -46v-9q0 -24 -7 -33.5t-26 -20.5q-11 -6 -16.5 -10t-8 -7.5t-3 -7.5t-0.5 -11v-11h-55z" />
    <glyph glyph-name="uni1EAA" unicode="&#x1eaa;" horiz-adv-x="337" 
d="M10 0zM232 0l-15 127h-101q-5 -32 -8.5 -63.5t-7.5 -63.5h-90l107 823h107l101 -823h-93zM207 212q-11 94 -21 185.5t-19 188.5q-18 -194 -42 -374h82zM289 1011q-11 -11 -26.5 -18t-35.5 -7q-18 0 -33.5 5t-30.5 11t-30 11t-31 5q-18 0 -31.5 -7.5t-24.5 -21.5h-1v71
q9 11 24 18.5t38 7.5q18 0 33.5 -5t30 -10.5t29.5 -10.5t32 -5q18 0 32.5 7.5t23.5 20.5h1v-72zM237 833.453l-68 96.6289l-71 -96.6289h-77l102 134.114h98l97 -134.114h-81z" />
    <glyph glyph-name="uni1EAB" unicode="&#x1eab;" 
d="M0 0zM179 0q-4 9 -4 34q-11 -20 -27.5 -31.5t-41.5 -11.5q-42 0 -63.5 23t-21.5 75v91q0 44 11.5 73.5t32 50t47.5 34.5t58 28v140q0 19 -7.5 29t-25.5 10q-21 0 -27.5 -10t-6.5 -29v-130h-73v131q0 122 109 122q111 0 111 -122v-454q0 -33 5 -53h-76zM170 299
q-25 -9 -38.5 -20.5t-20 -26.5t-7.5 -34.5t-1 -43.5v-64q0 -38 34 -38q24 0 33 27v200zM264 911q-11 -11 -26.5 -18t-35.5 -7q-18 0 -33.5 5t-30.5 11t-30 11t-31 5q-18 0 -31.5 -7.5t-24.5 -21.5h-1v71q9 11 24 18.5t38 7.5q18 0 33.5 -5t30 -10.5t29.5 -10.5t32 -5
q18 0 32.5 7.5t23.5 20.5h1v-72zM210 656l-68 116l-71 -116h-77l102 161h98l97 -161h-81z" />
    <glyph glyph-name="uni1EAC" unicode="&#x1eac;" horiz-adv-x="337" 
d="M10 0zM232 0l-15 127h-101q-5 -32 -8.5 -63.5t-7.5 -63.5h-90l107 823h107l101 -823h-93zM207 212q-11 94 -21 185.5t-19 188.5q-18 -194 -42 -374h82zM237 860l-68 116l-71 -116h-77l102 161h98l97 -161h-81zM125 -149v102h84v-102h-84z" />
    <glyph glyph-name="uni1EAD" unicode="&#x1ead;" 
d="M0 0zM179 0q-4 9 -4 34q-11 -20 -27.5 -31.5t-41.5 -11.5q-42 0 -63.5 23t-21.5 75v91q0 44 11.5 73.5t32 50t47.5 34.5t58 28v140q0 19 -7.5 29t-25.5 10q-21 0 -27.5 -10t-6.5 -29v-130h-73v131q0 122 109 122q111 0 111 -122v-454q0 -33 5 -53h-76zM170 299
q-25 -9 -38.5 -20.5t-20 -26.5t-7.5 -34.5t-1 -43.5v-64q0 -38 34 -38q24 0 33 27v200zM210 656l-68 116l-71 -116h-77l102 161h98l97 -161h-81zM100 -149v102h84v-102h-84z" />
    <glyph glyph-name="uni1EAE" unicode="&#x1eae;" horiz-adv-x="337" 
d="M10 0zM232 0l-15 127h-101q-5 -32 -8.5 -63.5t-7.5 -63.5h-90l107 823h107l101 -823h-93zM207 212q-11 94 -21 185.5t-19 188.5q-18 -194 -42 -374h82zM90 963l110 161h107l-137 -161h-80zM305 960.712q0 -35.6064 -8 -58.5537q-8 -22.9463 -24.5 -36.793
q-16.5 -13.8477 -42 -18.9902q-25.5 -5.14355 -59.5 -5.14355q-39 0 -65.5 5.14355q-26.5 5.14258 -42.5 18.9902q-16 13.8467 -23 36.793q-7 22.9473 -7 58.5537h75q0 -26.9033 4.5 -43.124t13 -24.5293q8.5 -8.30762 19.5 -11.0771t24 -2.76953q12 0 23 2.76953
t19.5 11.0771q8.5 8.30859 13 24.5293t4.5 43.124h76z" />
    <glyph glyph-name="uni1EAF" unicode="&#x1eaf;" 
d="M7 0zM179 0q-4 9 -4 34q-11 -20 -27.5 -31.5t-41.5 -11.5q-42 0 -63.5 23t-21.5 75v91q0 44 11.5 73.5t32 50t47.5 34.5t58 28v140q0 19 -7.5 29t-25.5 10q-21 0 -27.5 -10t-6.5 -29v-130h-73v131q0 122 109 122q111 0 111 -122v-454q0 -33 5 -53h-76zM170 299
q-25 -9 -38.5 -20.5t-20 -26.5t-7.5 -34.5t-1 -43.5v-64q0 -38 34 -38q24 0 33 27v200zM67 860l110 161h107l-137 -161h-80zM279 811q0 -45 -8 -74t-24.5 -46.5t-42 -24t-59.5 -6.5q-39 0 -65.5 6.5t-42.5 24t-23 46.5t-7 74h75q0 -34 4.5 -54.5t13 -31t19.5 -14t24 -3.5
q12 0 23 3.5t19.5 14t13 31t4.5 54.5h76z" />
    <glyph glyph-name="uni1EB0" unicode="&#x1eb0;" horiz-adv-x="337" 
d="M10 0zM232 0l-15 127h-101q-5 -32 -8.5 -63.5t-7.5 -63.5h-90l107 823h107l101 -823h-93zM207 212q-11 94 -21 185.5t-19 188.5q-18 -194 -42 -374h82zM305 960.712q0 -35.6064 -8 -58.5537q-8 -22.9463 -24.5 -36.793q-16.5 -13.8477 -42 -18.9902
q-25.5 -5.14355 -59.5 -5.14355q-39 0 -65.5 5.14355q-26.5 5.14258 -42.5 18.9902q-16 13.8467 -23 36.793q-7 22.9473 -7 58.5537h75q0 -26.9033 4.5 -43.124t13 -24.5293q8.5 -8.30762 19.5 -11.0771t24 -2.76953q12 0 23 2.76953t19.5 11.0771q8.5 8.30859 13 24.5293
t4.5 43.124h76zM166 963l-137 161h106l111 -161h-80z" />
    <glyph glyph-name="uni1EB1" unicode="&#x1eb1;" 
d="M1 0zM179 0q-4 9 -4 34q-11 -20 -27.5 -31.5t-41.5 -11.5q-42 0 -63.5 23t-21.5 75v91q0 44 11.5 73.5t32 50t47.5 34.5t58 28v140q0 19 -7.5 29t-25.5 10q-21 0 -27.5 -10t-6.5 -29v-130h-73v131q0 122 109 122q111 0 111 -122v-454q0 -33 5 -53h-76zM170 299
q-25 -9 -38.5 -20.5t-20 -26.5t-7.5 -34.5t-1 -43.5v-64q0 -38 34 -38q24 0 33 27v200zM279 811q0 -45 -8 -74t-24.5 -46.5t-42 -24t-59.5 -6.5q-39 0 -65.5 6.5t-42.5 24t-23 46.5t-7 74h75q0 -34 4.5 -54.5t13 -31t19.5 -14t24 -3.5q12 0 23 3.5t19.5 14t13 31t4.5 54.5
h76zM138 860l-137 161h106l111 -161h-80z" />
    <glyph glyph-name="uni1EB2" unicode="&#x1eb2;" horiz-adv-x="337" 
d="M10 0zM232 0l-15 127h-101q-5 -32 -8.5 -63.5t-7.5 -63.5h-90l107 823h107l101 -823h-93zM207 212q-11 94 -21 185.5t-19 188.5q-18 -194 -42 -374h82zM305 960.712q0 -35.6064 -8 -58.5537q-8 -22.9463 -24.5 -36.793q-16.5 -13.8477 -42 -18.9902
q-25.5 -5.14355 -59.5 -5.14355q-39 0 -65.5 5.14355q-26.5 5.14258 -42.5 18.9902q-16 13.8467 -23 36.793q-7 22.9473 -7 58.5537h75q0 -26.9033 4.5 -43.124t13 -24.5293q8.5 -8.30762 19.5 -11.0771t24 -2.76953q12 0 23 2.76953t19.5 11.0771q8.5 8.30859 13 24.5293
t4.5 43.124h76zM140 951v11q0 26 9.5 37t20.5 19q13 8 19.5 14.5t6.5 19.5v6q0 14 -19 14q-21 0 -21 -13v-12h-58v14q0 23 18.5 34.5t59.5 11.5q80 0 80 -46v-9q0 -24 -7 -33.5t-26 -20.5q-11 -6 -16.5 -10t-8 -7.5t-3 -7.5t-0.5 -11v-11h-55z" />
    <glyph glyph-name="uni1EB3" unicode="&#x1eb3;" 
d="M7 0zM179 0q-4 9 -4 34q-11 -20 -27.5 -31.5t-41.5 -11.5q-42 0 -63.5 23t-21.5 75v91q0 44 11.5 73.5t32 50t47.5 34.5t58 28v140q0 19 -7.5 29t-25.5 10q-21 0 -27.5 -10t-6.5 -29v-130h-73v131q0 122 109 122q111 0 111 -122v-454q0 -33 5 -53h-76zM170 299
q-25 -9 -38.5 -20.5t-20 -26.5t-7.5 -34.5t-1 -43.5v-64q0 -38 34 -38q24 0 33 27v200zM279 811q0 -45 -8 -74t-24.5 -46.5t-42 -24t-59.5 -6.5q-39 0 -65.5 6.5t-42.5 24t-23 46.5t-7 74h75q0 -34 4.5 -54.5t13 -31t19.5 -14t24 -3.5q12 0 23 3.5t19.5 14t13 31t4.5 54.5
h76zM115 865v11q0 26 9.5 37t20.5 19q13 8 19.5 14.5t6.5 19.5v6q0 14 -19 14q-21 0 -21 -13v-12h-58v14q0 23 18.5 34.5t59.5 11.5q80 0 80 -46v-9q0 -24 -7 -33.5t-26 -20.5q-11 -6 -16.5 -10t-8 -7.5t-3 -7.5t-0.5 -11v-11h-55z" />
    <glyph glyph-name="uni1EB4" unicode="&#x1eb4;" horiz-adv-x="337" 
d="M10 0zM232 0l-15 127h-101q-5 -32 -8.5 -63.5t-7.5 -63.5h-90l107 823h107l101 -823h-93zM207 212q-11 94 -21 185.5t-19 188.5q-18 -194 -42 -374h82zM305 960.712q0 -35.6064 -8 -58.5537q-8 -22.9463 -24.5 -36.793q-16.5 -13.8477 -42 -18.9902
q-25.5 -5.14355 -59.5 -5.14355q-39 0 -65.5 5.14355q-26.5 5.14258 -42.5 18.9902q-16 13.8467 -23 36.793q-7 22.9473 -7 58.5537h75q0 -26.9033 4.5 -43.124t13 -24.5293q8.5 -8.30762 19.5 -11.0771t24 -2.76953q12 0 23 2.76953t19.5 11.0771q8.5 8.30859 13 24.5293
t4.5 43.124h76zM289 999q-11 -11 -26.5 -18t-35.5 -7q-18 0 -33.5 5t-30.5 11t-30 11t-31 5q-18 0 -31.5 -7.5t-24.5 -21.5h-1v71q9 11 24 18.5t38 7.5q18 0 33.5 -5t30 -10.5t29.5 -10.5t32 -5q18 0 32.5 7.5t23.5 20.5h1v-72z" />
    <glyph glyph-name="uni1EB5" unicode="&#x1eb5;" 
d="M7 0zM179 0q-4 9 -4 34q-11 -20 -27.5 -31.5t-41.5 -11.5q-42 0 -63.5 23t-21.5 75v91q0 44 11.5 73.5t32 50t47.5 34.5t58 28v140q0 19 -7.5 29t-25.5 10q-21 0 -27.5 -10t-6.5 -29v-130h-73v131q0 122 109 122q111 0 111 -122v-454q0 -33 5 -53h-76zM170 299
q-25 -9 -38.5 -20.5t-20 -26.5t-7.5 -34.5t-1 -43.5v-64q0 -38 34 -38q24 0 33 27v200zM279 811q0 -45 -8 -74t-24.5 -46.5t-42 -24t-59.5 -6.5q-39 0 -65.5 6.5t-42.5 24t-23 46.5t-7 74h75q0 -34 4.5 -54.5t13 -31t19.5 -14t24 -3.5q12 0 23 3.5t19.5 14t13 31t4.5 54.5
h76zM264 911q-11 -11 -26.5 -18t-35.5 -7q-18 0 -33.5 5t-30.5 11t-30 11t-31 5q-18 0 -31.5 -7.5t-24.5 -21.5h-1v71q9 11 24 18.5t38 7.5q18 0 33.5 -5t30 -10.5t29.5 -10.5t32 -5q18 0 32.5 7.5t23.5 20.5h1v-72z" />
    <glyph glyph-name="uni1EB6" unicode="&#x1eb6;" horiz-adv-x="337" 
d="M10 0zM232 0l-15 127h-101q-5 -32 -8.5 -63.5t-7.5 -63.5h-90l107 823h107l101 -823h-93zM207 212q-11 94 -21 185.5t-19 188.5q-18 -194 -42 -374h82zM305 1015q0 -45 -8 -74t-24.5 -46.5t-42 -24t-59.5 -6.5q-39 0 -65.5 6.5t-42.5 24t-23 46.5t-7 74h75
q0 -34 4.5 -54.5t13 -31t19.5 -14t24 -3.5q12 0 23 3.5t19.5 14t13 31t4.5 54.5h76zM125 -149v102h84v-102h-84z" />
    <glyph glyph-name="uni1EB7" unicode="&#x1eb7;" 
d="M7 0zM179 0q-4 9 -4 34q-11 -20 -27.5 -31.5t-41.5 -11.5q-42 0 -63.5 23t-21.5 75v91q0 44 11.5 73.5t32 50t47.5 34.5t58 28v140q0 19 -7.5 29t-25.5 10q-21 0 -27.5 -10t-6.5 -29v-130h-73v131q0 122 109 122q111 0 111 -122v-454q0 -33 5 -53h-76zM170 299
q-25 -9 -38.5 -20.5t-20 -26.5t-7.5 -34.5t-1 -43.5v-64q0 -38 34 -38q24 0 33 27v200zM279 811q0 -45 -8 -74t-24.5 -46.5t-42 -24t-59.5 -6.5q-39 0 -65.5 6.5t-42.5 24t-23 46.5t-7 74h75q0 -34 4.5 -54.5t13 -31t19.5 -14t24 -3.5q12 0 23 3.5t19.5 14t13 31t4.5 54.5
h76zM100 -149v102h84v-102h-84z" />
    <glyph glyph-name="uni1EB8" unicode="&#x1eb8;" horiz-adv-x="281" 
d="M36 0zM36 0v823h222v-93h-130v-264h87v-93h-87v-281h135v-92h-227zM106 -149v102h84v-102h-84z" />
    <glyph glyph-name="uni1EB9" unicode="&#x1eb9;" horiz-adv-x="280" 
d="M30 0zM173 502q0 40 -34 40q-32 0 -32 -40v-144h66v144zM173 252h78v-136q0 -125 -112 -125q-109 0 -109 125v386q0 127 109 127q112 0 112 -127v-204h-144v-182q0 -40 32 -40q34 0 34 41v135zM97 -149v102h84v-102h-84z" />
    <glyph glyph-name="uni1EBA" unicode="&#x1eba;" horiz-adv-x="281" 
d="M36 0zM36 0v823h222v-93h-130v-264h87v-93h-87v-281h135v-92h-227zM120 865v11q0 26 9.5 37t20.5 19q13 8 19.5 14.5t6.5 19.5v6q0 14 -19 14q-21 0 -21 -13v-12h-58v14q0 23 18.5 34.5t59.5 11.5q80 0 80 -46v-9q0 -24 -7 -33.5t-26 -20.5q-11 -6 -16.5 -10t-8 -7.5
t-3 -7.5t-0.5 -11v-11h-55z" />
    <glyph glyph-name="uni1EBB" unicode="&#x1ebb;" horiz-adv-x="280" 
d="M30 0zM173 502q0 40 -34 40q-32 0 -32 -40v-144h66v144zM173 252h78v-136q0 -125 -112 -125q-109 0 -109 125v386q0 127 109 127q112 0 112 -127v-204h-144v-182q0 -40 32 -40q34 0 34 41v135zM112 661v11q0 26 9.5 37t20.5 19q13 8 19.5 14.5t6.5 19.5v6q0 14 -19 14
q-21 0 -21 -13v-12h-58v14q0 23 18.5 34.5t59.5 11.5q80 0 80 -46v-9q0 -24 -7 -33.5t-26 -20.5q-11 -6 -16.5 -10t-8 -7.5t-3 -7.5t-0.5 -11v-11h-55z" />
    <glyph glyph-name="uni1EBC" unicode="&#x1ebc;" horiz-adv-x="281" 
d="M28 0zM36 0v823h222v-93h-130v-264h87v-93h-87v-281h135v-92h-227zM272 911q-11 -11 -26.5 -18t-35.5 -7q-18 0 -33.5 5t-30.5 11t-30 11t-31 5q-18 0 -31.5 -7.5t-24.5 -21.5h-1v71q9 11 24 18.5t38 7.5q18 0 33.5 -5t30 -10.5t29.5 -10.5t32 -5q18 0 32.5 7.5
t23.5 20.5h1v-72z" />
    <glyph glyph-name="uni1EBD" unicode="&#x1ebd;" horiz-adv-x="280" 
d="M18 0zM173 502q0 40 -34 40q-32 0 -32 -40v-144h66v144zM173 252h78v-136q0 -125 -112 -125q-109 0 -109 125v386q0 127 109 127q112 0 112 -127v-204h-144v-182q0 -40 32 -40q34 0 34 41v135zM262 707q-11 -11 -26.5 -18t-35.5 -7q-18 0 -33.5 5t-30.5 11t-30 11t-31 5
q-18 0 -31.5 -7.5t-24.5 -21.5h-1v71q9 11 24 18.5t38 7.5q18 0 33.5 -5t30 -10.5t29.5 -10.5t32 -5q18 0 32.5 7.5t23.5 20.5h1v-72z" />
    <glyph glyph-name="uni1EBE" unicode="&#x1ebe;" horiz-adv-x="281" 
d="M5 0zM36 0v823h222v-93h-130v-264h87v-93h-87v-281h135v-92h-227zM249 900l110 161h107l-137 -161h-80zM221 833.453l-68 96.6289l-71 -96.6289h-77l102 134.114h98l97 -134.114h-81z" />
    <glyph glyph-name="uni1EBF" unicode="&#x1ebf;" horiz-adv-x="280" 
d="M0 0zM173 502q0 40 -34 40q-32 0 -32 -40v-144h66v144zM173 252h78v-136q0 -125 -112 -125q-109 0 -109 125v386q0 127 109 127q112 0 112 -127v-204h-144v-182q0 -40 32 -40q34 0 34 41v135zM65 860l110 161h107l-137 -161h-80zM207 656l-68 116l-71 -116h-77l102 161
h98l97 -161h-81z" />
    <glyph glyph-name="uni1EC0" unicode="&#x1ec0;" horiz-adv-x="281" 
d="M5 0zM36 0v823h222v-93h-130v-264h87v-93h-87v-281h135v-92h-227zM320 900l-137 161h106l111 -161h-80zM221 833.453l-68 96.6289l-71 -96.6289h-77l102 134.114h98l97 -134.114h-81z" />
    <glyph glyph-name="uni1EC1" unicode="&#x1ec1;" horiz-adv-x="280" 
d="M0 0zM173 502q0 40 -34 40q-32 0 -32 -40v-144h66v144zM173 252h78v-136q0 -125 -112 -125q-109 0 -109 125v386q0 127 109 127q112 0 112 -127v-204h-144v-182q0 -40 32 -40q34 0 34 41v135zM136 860l-137 161h106l111 -161h-80zM207 656l-68 116l-71 -116h-77l102 161
h98l97 -161h-81z" />
    <glyph glyph-name="uni1EC2" unicode="&#x1ec2;" horiz-adv-x="281" 
d="M5 0zM36 0v823h222v-93h-130v-264h87v-93h-87v-281h135v-92h-227zM221 833.453l-68 96.6289l-71 -96.6289h-77l102 134.114h98l97 -134.114h-81zM284 875v11q0 26 9.5 37t20.5 19q13 8 19.5 14.5t6.5 19.5v6q0 14 -19 14q-21 0 -21 -13v-12h-58v14q0 23 18.5 34.5
t59.5 11.5q80 0 80 -46v-9q0 -24 -7 -33.5t-26 -20.5q-11 -6 -16.5 -10t-8 -7.5t-3 -7.5t-0.5 -11v-11h-55z" />
    <glyph glyph-name="uni1EC3" unicode="&#x1ec3;" horiz-adv-x="280" 
d="M0 0zM173 502q0 40 -34 40q-32 0 -32 -40v-144h66v144zM173 252h78v-136q0 -125 -112 -125q-109 0 -109 125v386q0 127 109 127q112 0 112 -127v-204h-144v-182q0 -40 32 -40q34 0 34 41v135zM207 656l-68 116l-71 -116h-77l102 161h98l97 -161h-81zM113 865v11
q0 26 9.5 37t20.5 19q13 8 19.5 14.5t6.5 19.5v6q0 14 -19 14q-21 0 -21 -13v-12h-58v14q0 23 18.5 34.5t59.5 11.5q80 0 80 -46v-9q0 -24 -7 -33.5t-26 -20.5q-11 -6 -16.5 -10t-8 -7.5t-3 -7.5t-0.5 -11v-11h-55z" />
    <glyph glyph-name="uni1EC4" unicode="&#x1ec4;" horiz-adv-x="281" 
d="M5 0zM36 0v823h222v-93h-130v-264h87v-93h-87v-281h135v-92h-227zM273 1014q-11 -11 -26.5 -18t-35.5 -7q-18 0 -33.5 5t-30.5 11t-30 11t-31 5q-18 0 -31.5 -7.5t-24.5 -21.5h-1v71q9 11 24 18.5t38 7.5q18 0 33.5 -5t30 -10.5t29.5 -10.5t32 -5q18 0 32.5 7.5
t23.5 20.5h1v-72zM221 833.453l-68 96.6289l-71 -96.6289h-77l102 134.114h98l97 -134.114h-81z" />
    <glyph glyph-name="uni1EC5" unicode="&#x1ec5;" horiz-adv-x="280" 
d="M0 0zM173 502q0 40 -34 40q-32 0 -32 -40v-144h66v144zM173 252h78v-136q0 -125 -112 -125q-109 0 -109 125v386q0 127 109 127q112 0 112 -127v-204h-144v-182q0 -40 32 -40q34 0 34 41v135zM262 911q-11 -11 -26.5 -18t-35.5 -7q-18 0 -33.5 5t-30.5 11t-30 11t-31 5
q-18 0 -31.5 -7.5t-24.5 -21.5h-1v71q9 11 24 18.5t38 7.5q18 0 33.5 -5t30 -10.5t29.5 -10.5t32 -5q18 0 32.5 7.5t23.5 20.5h1v-72zM207 656l-68 116l-71 -116h-77l102 161h98l97 -161h-81z" />
    <glyph glyph-name="uni1EC6" unicode="&#x1ec6;" horiz-adv-x="281" 
d="M6 0zM36 0v823h222v-93h-130v-264h87v-93h-87v-281h135v-92h-227zM222 860l-68 116l-71 -116h-77l102 161h98l97 -161h-81zM106 -149v102h84v-102h-84z" />
    <glyph glyph-name="uni1EC7" unicode="&#x1ec7;" horiz-adv-x="280" 
d="M0 0zM173 502q0 40 -34 40q-32 0 -32 -40v-144h66v144zM173 252h78v-136q0 -125 -112 -125q-109 0 -109 125v386q0 127 109 127q112 0 112 -127v-204h-144v-182q0 -40 32 -40q34 0 34 41v135zM207 656l-68 116l-71 -116h-77l102 161h98l97 -161h-81zM97 -149v102h84v-102
h-84z" />
    <glyph glyph-name="uni1EC8" unicode="&#x1ec8;" horiz-adv-x="172" 
d="M15 0zM39 0v823h92v-823h-92zM57 865v11q0 26 9.5 37t20.5 19q13 8 19.5 14.5t6.5 19.5v6q0 14 -19 14q-21 0 -21 -13v-12h-58v14q0 23 18.5 34.5t59.5 11.5q80 0 80 -46v-9q0 -24 -7 -33.5t-26 -20.5q-11 -6 -16.5 -10t-8 -7.5t-3 -7.5t-0.5 -11v-11h-55z" />
    <glyph glyph-name="uni1EC9" unicode="&#x1ec9;" horiz-adv-x="168" 
d="M10 0zM39 0v619h83v-619h-83zM52 661v11q0 26 9.5 37t20.5 19q13 8 19.5 14.5t6.5 19.5v6q0 14 -19 14q-21 0 -21 -13v-12h-58v14q0 23 18.5 34.5t59.5 11.5q80 0 80 -46v-9q0 -24 -7 -33.5t-26 -20.5q-11 -6 -16.5 -10t-8 -7.5t-3 -7.5t-0.5 -11v-11h-55z" />
    <glyph glyph-name="uni1ECA" unicode="&#x1eca;" horiz-adv-x="168" 
d="M38 0zM38 0v823h92v-823h-92zM41 -149v102h84v-102h-84z" />
    <glyph glyph-name="uni1ECB" unicode="&#x1ecb;" horiz-adv-x="158" 
d="M36 0zM38 698v125h83v-125h-83zM38 0v619h83v-619h-83zM36 -149v102h84v-102h-84z" />
    <glyph glyph-name="uni1ECC" unicode="&#x1ecc;" horiz-adv-x="322" 
d="M30 0zM30 692q0 140 131 140q132 0 132 -140v-561q0 -140 -132 -140q-131 0 -131 140v561zM201 692q0 47 -40 47q-39 0 -39 -47v-561q0 -48 39 -48q40 0 40 48v561zM119 -149v102h84v-102h-84z" />
    <glyph glyph-name="uni1ECD" unicode="&#x1ecd;" horiz-adv-x="291" 
d="M30 0zM30 505q0 60 28 92t88 32q57 0 86.5 -32t29.5 -92v-391q0 -60 -29.5 -91.5t-86.5 -31.5q-60 0 -88 31.5t-28 91.5v391zM180 502q0 20 -7 30.5t-27 10.5t-27.5 -10.5t-7.5 -30.5v-386q0 -20 7.5 -30t27.5 -10t27 10.5t7 30.5v385zM103 -149v102h84v-102h-84z" />
    <glyph glyph-name="uni1ECE" unicode="&#x1ece;" horiz-adv-x="322" 
d="M30 0zM30 692q0 140 131 140q132 0 132 -140v-561q0 -140 -132 -140q-131 0 -131 140v561zM201 692q0 47 -40 47q-39 0 -39 -47v-561q0 -48 39 -48q40 0 40 48v561zM133 865v11q0 26 9.5 37t20.5 19q13 8 19.5 14.5t6.5 19.5v6q0 14 -19 14q-21 0 -21 -13v-12h-58v14
q0 23 18.5 34.5t59.5 11.5q80 0 80 -46v-9q0 -24 -7 -33.5t-26 -20.5q-11 -6 -16.5 -10t-8 -7.5t-3 -7.5t-0.5 -11v-11h-55z" />
    <glyph glyph-name="uni1ECF" unicode="&#x1ecf;" horiz-adv-x="291" 
d="M30 0zM30 505q0 60 28 92t88 32q57 0 86.5 -32t29.5 -92v-391q0 -60 -29.5 -91.5t-86.5 -31.5q-60 0 -88 31.5t-28 91.5v391zM180 502q0 20 -7 30.5t-27 10.5t-27.5 -10.5t-7.5 -30.5v-386q0 -20 7.5 -30t27.5 -10t27 10.5t7 30.5v385zM117 661v11q0 26 9.5 37t20.5 19
q13 8 19.5 14.5t6.5 19.5v6q0 14 -19 14q-21 0 -21 -13v-12h-58v14q0 23 18.5 34.5t59.5 11.5q80 0 80 -46v-9q0 -24 -7 -33.5t-26 -20.5q-11 -6 -16.5 -10t-8 -7.5t-3 -7.5t-0.5 -11v-11h-55z" />
    <glyph glyph-name="uni1ED0" unicode="&#x1ed0;" horiz-adv-x="322" 
d="M15 0zM30 692q0 140 131 140q132 0 132 -140v-561q0 -140 -132 -140q-131 0 -131 140v561zM201 692q0 47 -40 47q-39 0 -39 -47v-561q0 -48 39 -48q40 0 40 48v561zM259 900l110 161h107l-137 -161h-80zM231 833.453l-68 96.6289l-71 -96.6289h-77l102 134.114h98
l97 -134.114h-81z" />
    <glyph glyph-name="uni1ED1" unicode="&#x1ed1;" horiz-adv-x="291" 
d="M0 0zM30 505q0 60 28 92t88 32q57 0 86.5 -32t29.5 -92v-391q0 -60 -29.5 -91.5t-86.5 -31.5q-60 0 -88 31.5t-28 91.5v391zM180 502q0 20 -7 30.5t-27 10.5t-27.5 -10.5t-7.5 -30.5v-386q0 -20 7.5 -30t27.5 -10t27 10.5t7 30.5v385zM70 860l110 161h107l-137 -161h-80z
M213 656l-68 116l-71 -116h-77l102 161h98l97 -161h-81z" />
    <glyph glyph-name="uni1ED2" unicode="&#x1ed2;" horiz-adv-x="322" 
d="M15 0zM30 692q0 140 131 140q132 0 132 -140v-561q0 -140 -132 -140q-131 0 -131 140v561zM201 692q0 47 -40 47q-39 0 -39 -47v-561q0 -48 39 -48q40 0 40 48v561zM331 900l-137 161h106l111 -161h-80zM231 833.453l-68 96.6289l-71 -96.6289h-77l102 134.114h98
l97 -134.114h-81z" />
    <glyph glyph-name="uni1ED3" unicode="&#x1ed3;" horiz-adv-x="291" 
d="M0 0zM30 505q0 60 28 92t88 32q57 0 86.5 -32t29.5 -92v-391q0 -60 -29.5 -91.5t-86.5 -31.5q-60 0 -88 31.5t-28 91.5v391zM180 502q0 20 -7 30.5t-27 10.5t-27.5 -10.5t-7.5 -30.5v-386q0 -20 7.5 -30t27.5 -10t27 10.5t7 30.5v385zM141 860l-137 161h106l111 -161h-80
zM213 656l-68 116l-71 -116h-77l102 161h98l97 -161h-81z" />
    <glyph glyph-name="uni1ED4" unicode="&#x1ed4;" horiz-adv-x="322" 
d="M15 0zM30 692q0 140 131 140q132 0 132 -140v-561q0 -140 -132 -140q-131 0 -131 140v561zM201 692q0 47 -40 47q-39 0 -39 -47v-561q0 -48 39 -48q40 0 40 48v561zM231 833.453l-68 96.6289l-71 -96.6289h-77l102 134.114h98l97 -134.114h-81zM286 885v11q0 26 9.5 37
t20.5 19q13 8 19.5 14.5t6.5 19.5v6q0 14 -19 14q-21 0 -21 -13v-12h-58v14q0 23 18.5 34.5t59.5 11.5q80 0 80 -46v-9q0 -24 -7 -33.5t-26 -20.5q-11 -6 -16.5 -10t-8 -7.5t-3 -7.5t-0.5 -11v-11h-55z" />
    <glyph glyph-name="uni1ED5" unicode="&#x1ed5;" horiz-adv-x="291" 
d="M0 0zM30 505q0 60 28 92t88 32q57 0 86.5 -32t29.5 -92v-391q0 -60 -29.5 -91.5t-86.5 -31.5q-60 0 -88 31.5t-28 91.5v391zM180 502q0 20 -7 30.5t-27 10.5t-27.5 -10.5t-7.5 -30.5v-386q0 -20 7.5 -30t27.5 -10t27 10.5t7 30.5v385zM213 656l-68 116l-71 -116h-77
l102 161h98l97 -161h-81zM116 865v11q0 26 9.5 37t20.5 19q13 8 19.5 14.5t6.5 19.5v6q0 14 -19 14q-21 0 -21 -13v-12h-58v14q0 23 18.5 34.5t59.5 11.5q80 0 80 -46v-9q0 -24 -7 -33.5t-26 -20.5q-11 -6 -16.5 -10t-8 -7.5t-3 -7.5t-0.5 -11v-11h-55z" />
    <glyph glyph-name="uni1ED6" unicode="&#x1ed6;" horiz-adv-x="322" 
d="M15 0zM30 692q0 140 131 140q132 0 132 -140v-561q0 -140 -132 -140q-131 0 -131 140v561zM201 692q0 47 -40 47q-39 0 -39 -47v-561q0 -48 39 -48q40 0 40 48v561zM282 1011q-11 -11 -26.5 -18t-35.5 -7q-18 0 -33.5 5t-30.5 11t-30 11t-31 5q-18 0 -31.5 -7.5
t-24.5 -21.5h-1v71q9 11 24 18.5t38 7.5q18 0 33.5 -5t30 -10.5t29.5 -10.5t32 -5q18 0 32.5 7.5t23.5 20.5h1v-72zM231 833.453l-68 96.6289l-71 -96.6289h-77l102 134.114h98l97 -134.114h-81z" />
    <glyph glyph-name="uni1ED7" unicode="&#x1ed7;" horiz-adv-x="291" 
d="M0 0zM30 505q0 60 28 92t88 32q57 0 86.5 -32t29.5 -92v-391q0 -60 -29.5 -91.5t-86.5 -31.5q-60 0 -88 31.5t-28 91.5v391zM180 502q0 20 -7 30.5t-27 10.5t-27.5 -10.5t-7.5 -30.5v-386q0 -20 7.5 -30t27.5 -10t27 10.5t7 30.5v385zM267 911q-11 -11 -26.5 -18
t-35.5 -7q-18 0 -33.5 5t-30.5 11t-30 11t-31 5q-18 0 -31.5 -7.5t-24.5 -21.5h-1v71q9 11 24 18.5t38 7.5q18 0 33.5 -5t30 -10.5t29.5 -10.5t32 -5q18 0 32.5 7.5t23.5 20.5h1v-72zM213 656l-68 116l-71 -116h-77l102 161h98l97 -161h-81z" />
    <glyph glyph-name="uni1ED8" unicode="&#x1ed8;" horiz-adv-x="322" 
d="M13 0zM30 692q0 140 131 140q132 0 132 -140v-561q0 -140 -132 -140q-131 0 -131 140v561zM201 692q0 47 -40 47q-39 0 -39 -47v-561q0 -48 39 -48q40 0 40 48v561zM229 860l-68 116l-71 -116h-77l102 161h98l97 -161h-81zM119 -149v102h84v-102h-84z" />
    <glyph glyph-name="uni1ED9" unicode="&#x1ed9;" horiz-adv-x="291" 
d="M0 0zM30 505q0 60 28 92t88 32q57 0 86.5 -32t29.5 -92v-391q0 -60 -29.5 -91.5t-86.5 -31.5q-60 0 -88 31.5t-28 91.5v391zM180 502q0 20 -7 30.5t-27 10.5t-27.5 -10.5t-7.5 -30.5v-386q0 -20 7.5 -30t27.5 -10t27 10.5t7 30.5v385zM213 656l-68 116l-71 -116h-77
l102 161h98l97 -161h-81zM103 -149v102h84v-102h-84z" />
    <glyph glyph-name="uni1EDA" unicode="&#x1eda;" horiz-adv-x="360" 
d="M29 0zM87 860l110 161h107l-137 -161h-80zM156 832q26 0 43 -4.5t39 -4.5q23 0 32.5 9t9.5 35v63h80v-58q0 -50 -21 -75.5t-63 -31.5q11 -18 14 -41.5t3 -51.5v-541q0 -140 -132 -140t-132 140v561q0 70 33.5 105t93.5 35zM200 692q0 47 -39 47t-39 -47v-561
q0 -48 39 -48t39 48v561z" />
    <glyph glyph-name="uni1EDB" unicode="&#x1edb;" horiz-adv-x="342" 
d="M29 0zM70 656l110 161h107l-137 -161h-80zM140 629q26 0 41.5 -5t38.5 -5t33 9.5t10 34.5v63h79v-53q0 -54 -22 -81t-69 -32q7 -15 8.5 -33.5t1.5 -38.5v-374q0 -60 -28 -91.5t-88 -31.5t-88 31.5t-28 91.5v391q0 60 28.5 92t82.5 32zM179 493q0 23 -7 36t-27 13t-27 -13
t-7 -36v-368q0 -23 7 -36t27 -13q34 0 34 41v376z" />
    <glyph glyph-name="uni1EDC" unicode="&#x1edc;" horiz-adv-x="360" 
d="M20 0zM157 860l-137 161h106l111 -161h-80zM156 832q26 0 43 -4.5t39 -4.5q23 0 32.5 9t9.5 35v63h80v-58q0 -50 -21 -75.5t-63 -31.5q11 -18 14 -41.5t3 -51.5v-541q0 -140 -132 -140t-132 140v561q0 70 33.5 105t93.5 35zM200 692q0 47 -39 47t-39 -47v-561
q0 -48 39 -48t39 48v561z" />
    <glyph glyph-name="uni1EDD" unicode="&#x1edd;" horiz-adv-x="342" 
d="M5 0zM142 656l-137 161h106l111 -161h-80zM140 629q26 0 41.5 -5t38.5 -5t33 9.5t10 34.5v63h79v-53q0 -54 -22 -81t-69 -32q7 -15 8.5 -33.5t1.5 -38.5v-374q0 -60 -28 -91.5t-88 -31.5t-88 31.5t-28 91.5v391q0 60 28.5 92t82.5 32zM179 493q0 23 -7 36t-27 13t-27 -13
t-7 -36v-368q0 -23 7 -36t27 -13q34 0 34 41v376z" />
    <glyph glyph-name="uni1EDE" unicode="&#x1ede;" horiz-adv-x="360" 
d="M29 0zM156 832q26 0 43 -4.5t39 -4.5q23 0 32.5 9t9.5 35v63h80v-58q0 -50 -21 -75.5t-63 -31.5q11 -18 14 -41.5t3 -51.5v-541q0 -140 -132 -140t-132 140v561q0 70 33.5 105t93.5 35zM200 692q0 47 -39 47t-39 -47v-561q0 -48 39 -48t39 48v561zM134 865v11
q0 26 9.5 37t20.5 19q13 8 19.5 14.5t6.5 19.5v6q0 14 -19 14q-21 0 -21 -13v-12h-58v14q0 23 18.5 34.5t59.5 11.5q80 0 80 -46v-9q0 -24 -7 -33.5t-26 -20.5q-11 -6 -16.5 -10t-8 -7.5t-3 -7.5t-0.5 -11v-11h-55z" />
    <glyph glyph-name="uni1EDF" unicode="&#x1edf;" horiz-adv-x="342" 
d="M29 0zM140 629q26 0 41.5 -5t38.5 -5t33 9.5t10 34.5v63h79v-53q0 -54 -22 -81t-69 -32q7 -15 8.5 -33.5t1.5 -38.5v-374q0 -60 -28 -91.5t-88 -31.5t-88 31.5t-28 91.5v391q0 60 28.5 92t82.5 32zM179 493q0 23 -7 36t-27 13t-27 -13t-7 -36v-368q0 -23 7 -36t27 -13
q34 0 34 41v376zM116 661v11q0 26 9.5 37t20.5 19q13 8 19.5 14.5t6.5 19.5v6q0 14 -19 14q-21 0 -21 -13v-12h-58v14q0 23 18.5 34.5t59.5 11.5q80 0 80 -46v-9q0 -24 -7 -33.5t-26 -20.5q-11 -6 -16.5 -10t-8 -7.5t-3 -7.5t-0.5 -11v-11h-55z" />
    <glyph glyph-name="uni1EE0" unicode="&#x1ee0;" horiz-adv-x="360" 
d="M28 0zM272 936q-11 -11 -26.5 -18t-35.5 -7q-18 0 -33.5 5t-30.5 11t-30 11t-31 5q-18 0 -31.5 -7.5t-24.5 -21.5h-1v71q9 11 24 18.5t38 7.5q18 0 33.5 -5t30 -10.5t29.5 -10.5t32 -5q18 0 32.5 7.5t23.5 20.5h1v-72zM156 832q26 0 43 -4.5t39 -4.5q23 0 32.5 9t9.5 35
v63h80v-58q0 -50 -21 -75.5t-63 -31.5q11 -18 14 -41.5t3 -51.5v-541q0 -140 -132 -140t-132 140v561q0 70 33.5 105t93.5 35zM200 692q0 47 -39 47t-39 -47v-561q0 -48 39 -48t39 48v561z" />
    <glyph glyph-name="uni1EE1" unicode="&#x1ee1;" horiz-adv-x="342" 
d="M20 0zM264 732q-11 -11 -26.5 -18t-35.5 -7q-18 0 -33.5 5t-30.5 11t-30 11t-31 5q-18 0 -31.5 -7.5t-24.5 -21.5h-1v71q9 11 24 18.5t38 7.5q18 0 33.5 -5t30 -10.5t29.5 -10.5t32 -5q18 0 32.5 7.5t23.5 20.5h1v-72zM140 629q26 0 41.5 -5t38.5 -5t33 9.5t10 34.5v63
h79v-53q0 -54 -22 -81t-69 -32q7 -15 8.5 -33.5t1.5 -38.5v-374q0 -60 -28 -91.5t-88 -31.5t-88 31.5t-28 91.5v391q0 60 28.5 92t82.5 32zM179 493q0 23 -7 36t-27 13t-27 -13t-7 -36v-368q0 -23 7 -36t27 -13q34 0 34 41v376z" />
    <glyph glyph-name="uni1EE2" unicode="&#x1ee2;" horiz-adv-x="360" 
d="M29 0zM156 832q26 0 43 -4.5t39 -4.5q23 0 32.5 9t9.5 35v63h80v-58q0 -50 -21 -75.5t-63 -31.5q11 -18 14 -41.5t3 -51.5v-541q0 -140 -132 -140t-132 140v561q0 70 33.5 105t93.5 35zM200 692q0 47 -39 47t-39 -47v-561q0 -48 39 -48t39 48v561zM119 -149v102h84v-102
h-84z" />
    <glyph glyph-name="uni1EE3" unicode="&#x1ee3;" horiz-adv-x="342" 
d="M29 0zM140 629q26 0 41.5 -5t38.5 -5t33 9.5t10 34.5v63h79v-53q0 -54 -22 -81t-69 -32q7 -15 8.5 -33.5t1.5 -38.5v-374q0 -60 -28 -91.5t-88 -31.5t-88 31.5t-28 91.5v391q0 60 28.5 92t82.5 32zM179 493q0 23 -7 36t-27 13t-27 -13t-7 -36v-368q0 -23 7 -36t27 -13
q34 0 34 41v376zM102 -149v102h84v-102h-84z" />
    <glyph glyph-name="uni1EE4" unicode="&#x1ee4;" horiz-adv-x="327" 
d="M33 0zM203 823h92v-692q0 -140 -131 -140t-131 140v692h92v-692q0 -48 39 -48t39 48v692zM121 -149v102h84v-102h-84z" />
    <glyph glyph-name="uni1EE5" unicode="&#x1ee5;" horiz-adv-x="301" 
d="M33 0zM195 0q-3 18 -3 39q-29 -45 -81 -45q-38 0 -58 27.5t-20 78.5v519h83v-506q0 -37 29 -37q11 0 21 5.5t16 18.5v519h84v-619h-71zM108 -149v102h84v-102h-84z" />
    <glyph glyph-name="uni1EE6" unicode="&#x1ee6;" horiz-adv-x="327" 
d="M33 0zM203 823h92v-692q0 -140 -131 -140t-131 140v692h92v-692q0 -48 39 -48t39 48v692zM135 865v11q0 26 9.5 37t20.5 19q13 8 19.5 14.5t6.5 19.5v6q0 14 -19 14q-21 0 -21 -13v-12h-58v14q0 23 18.5 34.5t59.5 11.5q80 0 80 -46v-9q0 -24 -7 -33.5t-26 -20.5
q-11 -6 -16.5 -10t-8 -7.5t-3 -7.5t-0.5 -11v-11h-55z" />
    <glyph glyph-name="uni1EE7" unicode="&#x1ee7;" horiz-adv-x="301" 
d="M33 0zM195 0q-3 18 -3 39q-29 -45 -81 -45q-38 0 -58 27.5t-20 78.5v519h83v-506q0 -37 29 -37q11 0 21 5.5t16 18.5v519h84v-619h-71zM122 661v11q0 26 9.5 37t20.5 19q13 8 19.5 14.5t6.5 19.5v6q0 14 -19 14q-21 0 -21 -13v-12h-58v14q0 23 18.5 34.5t59.5 11.5
q80 0 80 -46v-9q0 -24 -7 -33.5t-26 -20.5q-11 -6 -16.5 -10t-8 -7.5t-3 -7.5t-0.5 -11v-11h-55z" />
    <glyph glyph-name="uni1EE8" unicode="&#x1ee8;" horiz-adv-x="416" 
d="M32 0zM93 860l110 161h107l-137 -161h-80zM203 823h92q22 0 31.5 10t9.5 34v63h80v-58q0 -58 -30 -84t-91 -26v-631q0 -140 -131 -140q-132 0 -132 140v692h93v-692q0 -48 39 -48t39 48v692z" />
    <glyph glyph-name="uni1EE9" unicode="&#x1ee9;" horiz-adv-x="386" 
d="M32 0zM75 656l110 161h107l-137 -161h-80zM194 0q-1 9 -1.5 18.5t-0.5 20.5q-29 -45 -80 -45q-39 0 -59.5 27t-20.5 78v520h84v-506q0 -37 28 -37q26 0 38 23v520h83q23 0 32.5 10t9.5 34v64h79v-59q0 -58 -29.5 -83.5t-91.5 -25.5v-559h-71z" />
    <glyph glyph-name="uni1EEA" unicode="&#x1eea;" horiz-adv-x="416" 
d="M24 0zM161 860l-137 161h106l111 -161h-80zM203 823h92q22 0 31.5 10t9.5 34v63h80v-58q0 -58 -30 -84t-91 -26v-631q0 -140 -131 -140q-132 0 -132 140v692h93v-692q0 -48 39 -48t39 48v692z" />
    <glyph glyph-name="uni1EEB" unicode="&#x1eeb;" horiz-adv-x="386" 
d="M9 0zM146 656l-137 161h106l111 -161h-80zM194 0q-1 9 -1.5 18.5t-0.5 20.5q-29 -45 -80 -45q-39 0 -59.5 27t-20.5 78v520h84v-506q0 -37 28 -37q26 0 38 23v520h83q23 0 32.5 10t9.5 34v64h79v-59q0 -58 -29.5 -83.5t-91.5 -25.5v-559h-71z" />
    <glyph glyph-name="uni1EEC" unicode="&#x1eec;" horiz-adv-x="416" 
d="M32 0zM203 823h92q22 0 31.5 10t9.5 34v63h80v-58q0 -58 -30 -84t-91 -26v-631q0 -140 -131 -140q-132 0 -132 140v692h93v-692q0 -48 39 -48t39 48v692zM137 865v11q0 26 9.5 37t20.5 19q13 8 19.5 14.5t6.5 19.5v6q0 14 -19 14q-21 0 -21 -13v-12h-58v14
q0 23 18.5 34.5t59.5 11.5q80 0 80 -46v-9q0 -24 -7 -33.5t-26 -20.5q-11 -6 -16.5 -10t-8 -7.5t-3 -7.5t-0.5 -11v-11h-55z" />
    <glyph glyph-name="uni1EED" unicode="&#x1eed;" horiz-adv-x="386" 
d="M32 0zM194 0q-1 9 -1.5 18.5t-0.5 20.5q-29 -45 -80 -45q-39 0 -59.5 27t-20.5 78v520h84v-506q0 -37 28 -37q26 0 38 23v520h83q23 0 32.5 10t9.5 34v64h79v-59q0 -58 -29.5 -83.5t-91.5 -25.5v-559h-71zM121 661v11q0 26 9.5 37t20.5 19q13 8 19.5 14.5t6.5 19.5v6
q0 14 -19 14q-21 0 -21 -13v-12h-58v14q0 23 18.5 34.5t59.5 11.5q80 0 80 -46v-9q0 -24 -7 -33.5t-26 -20.5q-11 -6 -16.5 -10t-8 -7.5t-3 -7.5t-0.5 -11v-11h-55z" />
    <glyph glyph-name="uni1EEE" unicode="&#x1eee;" horiz-adv-x="416" 
d="M32 0zM287 911q-11 -11 -26.5 -18t-35.5 -7q-18 0 -33.5 5t-30.5 11t-30 11t-31 5q-18 0 -31.5 -7.5t-24.5 -21.5h-1v71q9 11 24 18.5t38 7.5q18 0 33.5 -5t30 -10.5t29.5 -10.5t32 -5q18 0 32.5 7.5t23.5 20.5h1v-72zM203 823h92q22 0 31.5 10t9.5 34v63h80v-58
q0 -58 -30 -84t-91 -26v-631q0 -140 -131 -140q-132 0 -132 140v692h93v-692q0 -48 39 -48t39 48v692z" />
    <glyph glyph-name="uni1EEF" unicode="&#x1eef;" horiz-adv-x="386" 
d="M28 0zM272 707q-11 -11 -26.5 -18t-35.5 -7q-18 0 -33.5 5t-30.5 11t-30 11t-31 5q-18 0 -31.5 -7.5t-24.5 -21.5h-1v71q9 11 24 18.5t38 7.5q18 0 33.5 -5t30 -10.5t29.5 -10.5t32 -5q18 0 32.5 7.5t23.5 20.5h1v-72zM194 0q-1 9 -1.5 18.5t-0.5 20.5q-29 -45 -80 -45
q-39 0 -59.5 27t-20.5 78v520h84v-506q0 -37 28 -37q26 0 38 23v520h83q23 0 32.5 10t9.5 34v64h79v-59q0 -58 -29.5 -83.5t-91.5 -25.5v-559h-71z" />
    <glyph glyph-name="uni1EF0" unicode="&#x1ef0;" horiz-adv-x="416" 
d="M32 0zM203 823h92q22 0 31.5 10t9.5 34v63h80v-58q0 -58 -30 -84t-91 -26v-631q0 -140 -131 -140q-132 0 -132 140v692h93v-692q0 -48 39 -48t39 48v692zM124 -149v102h84v-102h-84z" />
    <glyph glyph-name="uni1EF1" unicode="&#x1ef1;" horiz-adv-x="386" 
d="M32 0zM194 0q-1 9 -1.5 18.5t-0.5 20.5q-29 -45 -80 -45q-39 0 -59.5 27t-20.5 78v520h84v-506q0 -37 28 -37q26 0 38 23v520h83q23 0 32.5 10t9.5 34v64h79v-59q0 -58 -29.5 -83.5t-91.5 -25.5v-559h-71zM108 -149v102h84v-102h-84z" />
    <glyph glyph-name="Ygrave" unicode="&#x1ef2;" horiz-adv-x="334" 
d="M8 0zM118 0v360l-110 463h97q9 -51 19.5 -103t19.5 -96.5t16 -78t9 -47.5q2 14 9.5 47.5t17 78.5t20.5 96.5t20 102.5h90l-114 -463v-360h-94zM159 860l-137 161h106l111 -161h-80z" />
    <glyph glyph-name="ygrave" unicode="&#x1ef3;" horiz-adv-x="278" 
d="M0 0zM18 -56q11 -4 34 -4q21 0 29 18t13 48l2 13l-87 600h87q9 -82 15.5 -145t11.5 -113.5t8.5 -93t6.5 -82.5q4 40 8.5 82.5t10 93t13 113.5t17.5 145h80l-84 -596q-6 -39 -14 -70t-21.5 -52.5t-36 -33t-56.5 -11.5q-17 0 -37 5v83zM131 656l-137 161h106l111 -161h-80z
" />
    <glyph glyph-name="uni1EF6" unicode="&#x1ef6;" horiz-adv-x="334" 
d="M8 0zM118 0v360l-110 463h97q9 -51 19.5 -103t19.5 -96.5t16 -78t9 -47.5q2 14 9.5 47.5t17 78.5t20.5 96.5t20 102.5h90l-114 -463v-360h-94zM139 865v11q0 26 9.5 37t20.5 19q13 8 19.5 14.5t6.5 19.5v6q0 14 -19 14q-21 0 -21 -13v-12h-58v14q0 23 18.5 34.5
t59.5 11.5q80 0 80 -46v-9q0 -24 -7 -33.5t-26 -20.5q-11 -6 -16.5 -10t-8 -7.5t-3 -7.5t-0.5 -11v-11h-55z" />
    <glyph glyph-name="uni1EF7" unicode="&#x1ef7;" horiz-adv-x="278" 
d="M9 0zM18 -56q11 -4 34 -4q21 0 29 18t13 48l2 13l-87 600h87q9 -82 15.5 -145t11.5 -113.5t8.5 -93t6.5 -82.5q4 40 8.5 82.5t10 93t13 113.5t17.5 145h80l-84 -596q-6 -39 -14 -70t-21.5 -52.5t-36 -33t-56.5 -11.5q-17 0 -37 5v83zM110 661v11q0 26 9.5 37t20.5 19
q13 8 19.5 14.5t6.5 19.5v6q0 14 -19 14q-21 0 -21 -13v-12h-58v14q0 23 18.5 34.5t59.5 11.5q80 0 80 -46v-9q0 -24 -7 -33.5t-26 -20.5q-11 -6 -16.5 -10t-8 -7.5t-3 -7.5t-0.5 -11v-11h-55z" />
    <glyph glyph-name="endash" unicode="&#x2013;" horiz-adv-x="280" 
d="M12 379v71h257v-71h-257z" />
    <glyph glyph-name="emdash" unicode="&#x2014;" horiz-adv-x="442" 
d="M12 379v71h420v-71h-420z" />
    <glyph glyph-name="quoteleft" unicode="&#x2018;" horiz-adv-x="146" 
d="M30 645v122q0 27 15 45.5t50 18.5h10v-38h-10q-18 0 -18 -20v-25h39v-103h-86z" />
    <glyph glyph-name="quoteright" unicode="&#x2019;" horiz-adv-x="146" 
d="M41 637v38h9q19 0 19 21v24h-39v103h86v-121q0 -27 -15 -46t-50 -19h-10z" />
    <glyph glyph-name="quotesinglbase" unicode="&#x201a;" horiz-adv-x="153" 
d="M45 -61v38h9q19 0 19 21v24h-39v103h86v-121q0 -27 -15 -46t-50 -19h-10z" />
    <glyph glyph-name="quotedblleft" unicode="&#x201c;" horiz-adv-x="292" 
d="M30 645zM30 645v122q0 27 15 45.5t50 18.5h10v-38h-10q-18 0 -18 -20v-25h39v-103h-86zM176 645v122q0 27 15 45.5t50 18.5h10v-38h-10q-18 0 -18 -20v-25h39v-103h-86z" />
    <glyph glyph-name="quotedblright" unicode="&#x201d;" horiz-adv-x="292" 
d="M30 637zM41 637v38h9q19 0 19 21v24h-39v103h86v-121q0 -27 -15 -46t-50 -19h-10zM187 637v38h9q19 0 19 21v24h-39v103h86v-121q0 -27 -15 -46t-50 -19h-10z" />
    <glyph glyph-name="quotedblbase" unicode="&#x201e;" horiz-adv-x="299" 
d="M34 0zM45 -61v38h9q19 0 19 21v24h-39v103h86v-121q0 -27 -15 -46t-50 -19h-10zM191 -61v38h9q19 0 19 21v24h-39v103h86v-121q0 -27 -15 -46t-50 -19h-10z" />
    <glyph glyph-name="dagger" unicode="&#x2020;" horiz-adv-x="398" 
d="M166 195l9 412l-145 -7v67l143 -8l-8 164h67l-8 -164l144 9v-68l-146 7l8 -412h-64z" />
    <glyph glyph-name="daggerdbl" unicode="&#x2021;" horiz-adv-x="398" 
d="M165 0l8 164l-143 -7v66l145 -8l-16 197l16 195l-145 -7v67l143 -8l-8 164h67l-8 -164l144 9v-68l-146 7l16 -195l-16 -197l146 8v-68l-144 9l8 -164h-67z" />
    <glyph glyph-name="bullet" unicode="&#x2022;" horiz-adv-x="210" 
d="M106 383q-36 0 -56 25t-20 62q0 36 20 61t56 25q35 0 55 -25t20 -61q0 -37 -20 -62t-55 -25z" />
    <glyph glyph-name="ellipsis" unicode="&#x2026;" horiz-adv-x="435" 
d="M30 0v125h86v-125h-86zM175 0v125h86v-125h-86zM320 0v125h86v-125h-86z" />
    <glyph glyph-name="perthousand" unicode="&#x2030;" horiz-adv-x="615" 
d="M28 0zM61 768q0 70 68 70t68 -70v-281q0 -70 -68 -70t-68 70v281zM147 769q0 19 -18 19t-18 -19v-283q0 -19 18 -19t18 19v283zM28 0l367 823h61l-366 -823h-62zM285 336q0 70 68 70t68 -70v-281q0 -70 -68 -70t-68 70v281zM371 337q0 19 -18 19t-18 -19v-283
q0 -19 18 -19t18 19v283zM450 336q0 70 68 70t68 -70v-281q0 -70 -68 -70t-68 70v281zM536 337q0 19 -18 19t-18 -19v-283q0 -19 18 -19t18 19v283z" />
    <glyph glyph-name="guilsinglleft" unicode="&#x2039;" horiz-adv-x="194" 
d="M18 286v95l159 106v-78l-115 -75l115 -79v-81z" />
    <glyph glyph-name="guilsinglright" unicode="&#x203a;" horiz-adv-x="194" 
d="M18 174v81l115 79l-115 75v78l159 -106v-95z" />
    <glyph glyph-name="fraction" unicode="&#x2044;" horiz-adv-x="165" 
d="M-129 0l367 823h61l-366 -823h-62z" />
    <glyph glyph-name="zerosuperior" unicode="&#x2070;" horiz-adv-x="194" 
d="M29 417zM29 768q0 70 68 70t68 -70v-281q0 -70 -68 -70t-68 70v281zM115 769q0 19 -18 19t-18 -19v-283q0 -19 18 -19t18 19v283z" />
    <glyph glyph-name="foursuperior" unicode="&#x2074;" horiz-adv-x="190" 
d="M18 422zM104 550q0 61 1.5 95.5t1.5 59.5q-3 -12 -6.5 -26.5t-9 -32.5t-12.5 -41.5t-16 -54.5h41zM104 422v80h-86v44l86 287h47v-283h20v-48h-20v-80h-47z" />
    <glyph glyph-name="fivesuperior" unicode="&#x2075;" horiz-adv-x="188" 
d="M29 417zM111 620q0 18 -17 18q-19 0 -22 -21l-43 2l5 214h123v-50h-77l-5 -115q13 15 38 15q23 0 35 -14.5t12 -49.5v-133q0 -69 -65 -69q-66 0 -66 69v87h50v-86q0 -20 16 -20t16 20v133z" />
    <glyph glyph-name="sixsuperior" unicode="&#x2076;" horiz-adv-x="190" 
d="M29 417zM111 606q0 13 -3 19.5t-13 6.5q-13 0 -16 -13v-132q0 -20 16 -20t16 20v119zM162 487q0 -32 -17 -51t-50 -19t-49.5 19t-16.5 51v281q0 32 16.5 51t49.5 19t48.5 -19t15.5 -51v-71h-48v71q0 19 -16 19t-16 -19v-102q5 5 13 9.5t24 4.5q23 0 34.5 -14.5
t11.5 -49.5v-129z" />
    <glyph glyph-name="sevensuperior" unicode="&#x2077;" horiz-adv-x="174" 
d="M20 422zM44 422q0 87 8.5 152t19.5 110t21.5 69.5t13.5 29.5h-87v50h134v-47q-33 -75 -46.5 -164t-13.5 -200h-50z" />
    <glyph glyph-name="eightsuperior" unicode="&#x2078;" horiz-adv-x="187" 
d="M27 417zM159 486q0 -69 -66 -69t-66 69v100q0 20 7.5 32t19.5 17q-11 6 -16.5 16t-5.5 28v88q0 33 14 52t47 19t47.5 -19t14.5 -52v-88q0 -18 -5.5 -28t-16.5 -16q11 -5 18.5 -17t7.5 -32v-100zM109 590q0 18 -16 18t-16 -18v-103q0 -20 16 -20t16 20v103zM109 767
q0 20 -16 20t-16 -20v-94q0 -18 16 -18t16 18v94z" />
    <glyph glyph-name="ninesuperior" unicode="&#x2079;" horiz-adv-x="189" 
d="M28 417zM109 768q0 19 -15 19q-16 0 -16 -19v-117q0 -20 16 -20q8 0 11 4t4 9v124zM109 595q-5 -5 -12.5 -9.5t-22.5 -4.5q-24 0 -35 14.5t-11 49.5v123q0 32 16.5 51t49.5 19t49.5 -19t16.5 -51v-281q0 -32 -16.5 -51t-48.5 -19t-49.5 18.5t-17.5 51.5v71h50v-71
q0 -20 16 -20q15 0 15 20v108z" />
    <glyph glyph-name="zeroinferior" unicode="&#x2080;" horiz-adv-x="194" 
d="M29 336q0 70 68 70t68 -70v-281q0 -70 -68 -70t-68 70v281zM115 337q0 19 -18 19t-18 -19v-283q0 -19 18 -19t18 19v283z" />
    <glyph glyph-name="oneinferior" unicode="&#x2081;" horiz-adv-x="127" 
d="M45 -10v332h-23v49h10q18 0 18 19v11h45v-411h-50z" />
    <glyph glyph-name="twoinferior" unicode="&#x2082;" horiz-adv-x="185" 
d="M27 -10v75q0 18 1.5 32t5.5 26.5t11.5 26.5t20.5 34q12 18 20 31.5t13 25t7 23.5t2 27v44q0 20 -16 20q-15 0 -15 -20v-72h-50v71q0 38 16 55t48 17q68 0 68 -72v-49q0 -36 -12.5 -62t-29.5 -53q-14 -21 -21.5 -34.5t-12 -24t-5.5 -21t-1 -25.5v-25h82v-50h-132z" />
    <glyph glyph-name="threeinferior" unicode="&#x2083;" horiz-adv-x="185" 
d="M109 156q0 20 -16 20h-21v47h23q14 0 14 20v92q0 20 -16 20t-16 -20v-73h-49v73q0 38 15.5 54.5t48.5 16.5q34 0 49.5 -17t15.5 -55v-92q0 -31 -25 -43q26 -9 26 -44v-100q0 -32 -16 -51t-49 -19t-50 19t-17 51v81h51v-81q0 -20 16 -20t16 20v101z" />
    <glyph glyph-name="fourinferior" unicode="&#x2084;" horiz-adv-x="190" 
d="M104 118q0 61 1.5 95.5t1.5 59.5q-3 -12 -6.5 -26.5t-9 -32.5t-12.5 -41.5t-16 -54.5h41zM104 -10v80h-86v44l86 287h47v-283h20v-48h-20v-80h-47z" />
    <glyph glyph-name="fiveinferior" unicode="&#x2085;" horiz-adv-x="188" 
d="M111 188q0 18 -17 18q-19 0 -22 -21l-43 2l5 214h123v-50h-77l-5 -115q13 15 38 15q23 0 35 -14.5t12 -49.5v-133q0 -69 -65 -69q-66 0 -66 69v87h50v-86q0 -20 16 -20t16 20v133z" />
    <glyph glyph-name="sixinferior" unicode="&#x2086;" horiz-adv-x="190" 
d="M111 174q0 13 -3 19.5t-13 6.5q-13 0 -16 -13v-132q0 -20 16 -20t16 20v119zM162 55q0 -32 -17 -51t-50 -19t-49.5 19t-16.5 51v281q0 32 16.5 51t49.5 19t48.5 -19t15.5 -51v-71h-48v71q0 19 -16 19t-16 -19v-102q5 5 13 9.5t24 4.5q23 0 34.5 -14.5t11.5 -49.5v-129z
" />
    <glyph glyph-name="seveninferior" unicode="&#x2087;" horiz-adv-x="174" 
d="M44 -10q0 87 8.5 152t19.5 110t21.5 69.5t13.5 29.5h-87v50h134v-47q-33 -75 -46.5 -164t-13.5 -200h-50z" />
    <glyph glyph-name="eightinferior" unicode="&#x2088;" horiz-adv-x="187" 
d="M159 54q0 -69 -66 -69t-66 69v100q0 20 7.5 32t19.5 17q-11 6 -16.5 16t-5.5 28v88q0 33 14 52t47 19t47.5 -19t14.5 -52v-88q0 -18 -5.5 -28t-16.5 -16q11 -5 18.5 -17t7.5 -32v-100zM109 158q0 18 -16 18t-16 -18v-103q0 -20 16 -20t16 20v103zM109 335q0 20 -16 20
t-16 -20v-94q0 -18 16 -18t16 18v94z" />
    <glyph glyph-name="nineinferior" unicode="&#x2089;" horiz-adv-x="189" 
d="M109 336q0 19 -15 19q-16 0 -16 -19v-117q0 -20 16 -20q8 0 11 4t4 9v124zM109 163q-5 -5 -12.5 -9.5t-22.5 -4.5q-24 0 -35 14.5t-11 49.5v123q0 32 16.5 51t49.5 19t49.5 -19t16.5 -51v-281q0 -32 -16.5 -51t-48.5 -19t-49.5 18.5t-17.5 51.5v71h50v-71q0 -20 16 -20
q15 0 15 20v108z" />
    <glyph glyph-name="uni20A9" unicode="&#x20a9;" horiz-adv-x="531" 
d="M313 0l-33 405h-29l-37 -405h-101l-39 405h-63v71h56l-9 101h-47v71h40l-16 175h88l13 -175h76l17 175h79l14 -175h76l16 175h88l-19 -175h37v-71h-45l-11 -101h56v-71h-63l-44 -405h-100zM337 476h46l9 101h-64zM150 476h45l10 101h-63zM359 213l17 192h-33zM170 213
l18 192h-33zM257 476h17l-8 94z" />
    <glyph glyph-name="uni20AA" unicode="&#x20aa;" horiz-adv-x="530" 
d="M110 721v-721h-75v823h217q59 0 86 -30.5t27 -96.5v-487h-75v474q0 20 -8 29t-30 9h-142zM419 101v722h75v-823h-217q-58 0 -85.5 29.5t-27.5 96.5v487h75v-474q0 -20 8 -29t30 -9h142z" />
    <glyph glyph-name="dong" unicode="&#x20ab;" horiz-adv-x="304" 
d="M197 108q-1 5 -1.5 19t-0.5 21q-10 -23 -28 -34.5t-50 -11.5q-42 0 -65 28.5t-23 87.5v297q0 60 22 87t67 27q42 0 67 -29v94h-122v71h122v58h83v-58h33v-71h-33v-586h-71zM14 0v62h274v-62h-274zM185 517q-12 27 -40 27q-32 0 -32 -38v-276q0 -39 32 -39q27 0 40 27v299
z" />
    <glyph glyph-name="Euro" unicode="&#x20ac;" horiz-adv-x="344" 
d="M326 131q0 -69 -32.5 -104.5t-102.5 -35.5t-103 35.5t-33 104.5v159h-47l11 70h36v117h-47l11 71h36v124q0 40 9 70.5t29.5 50t54.5 29.5t84 10q30 0 56 -1.5t48 -3.5l-15 -93q-42 6 -86 6q-28 0 -45 -4t-26.5 -12.5t-12.5 -21t-3 -30.5v-124h144l-12 -71h-132v-117h115
l-12 -70h-103v-161q0 -20 11.5 -34t31.5 -14q28 0 36 17.5t8 52.5v57h91v-77z" />
    <glyph glyph-name="uni20AD" unicode="&#x20ad;" horiz-adv-x="390" 
d="M243 401l116 -401h-98l-105 398v-398h-86v401h-59v71h59v351h86v-350l102 350h91l-115 -351h136v-71h-127z" />
    <glyph glyph-name="uni20AE" unicode="&#x20ae;" horiz-adv-x="283" 
d="M96 0v215l-49 -28l-35 60l84 49v75l-49 -28l-35 60l84 49v278h-86v93h264v-93h-86v-224l46 27l36 -61l-82 -48v-74l46 27l36 -61l-82 -48v-268h-92z" />
    <glyph glyph-name="uni20B1" unicode="&#x20b1;" horiz-adv-x="390" 
d="M328 489q-2 -75 -35.5 -107.5t-105.5 -32.5h-27v-349h-93v489h-56v62h56v64h-56v62h56v146h119q72 0 106.5 -35t35.5 -111h49v-62h-49v-64h49v-62h-49zM160 551h77v64h-77v-64zM160 677h77q0 56 -51 56h-26v-56zM187 436q49 0 50 53h-77v-53h27z" />
    <glyph glyph-name="uni20B2" unicode="&#x20b2;" horiz-adv-x="323" 
d="M30 -53l21 92q-10 17 -15.5 39.5t-5.5 52.5v560q0 69 33 105t99 36q41 0 70 -15l9 40h68l-26 -111q6 -24 6 -55v-145h-53l-36 -156h95v-395h-11l-30 39q-14 -23 -41 -33t-58 -10q-26 0 -47 6l-11 -50h-67zM122 343l83 360q-5 36 -42 36q-41 0 -41 -47v-349zM179 302
l-48 -206q10 -13 31 -13q41 0 44 42v177h-27z" />
    <glyph glyph-name="uni20B4" unicode="&#x20b4;" horiz-adv-x="338" 
d="M31 340v60h61l39 47h-100v60h151q14 15 19.5 31.5t5.5 35.5v122q0 43 -39 43q-21 0 -30 -12t-9 -32v-149h-86v150q0 69 28.5 102.5t96.5 33.5q133 0 133 -136v-123q0 -41 -7 -66h18v-60h-52l-38 -47h90v-60h-141q-12 -16 -20 -27.5t-12 -22t-5.5 -21.5t-1.5 -25v-117
q0 -44 40 -44q21 0 30.5 12t9.5 32v175h89v-175q0 -66 -31 -101t-100 -35t-99.5 35t-30.5 101v118q0 32 3 54t11 41h-23z" />
    </font>
</defs>
</svg>
